<?xml version="1.0" encoding="UTF-8"?>
<svg xmlns="http://www.w3.org/2000/svg" xmlns:xlink="http://www.w3.org/1999/xlink" width="313pt" height="331pt" viewBox="0 0 313 331" version="1.1">
<g id="surface397">
<path style="fill-rule:nonzero;fill:rgb(84.999084%,84.999084%,84.999084%);fill-opacity:0.6;stroke-width:1;stroke-linecap:square;stroke-linejoin:miter;stroke:rgb(50%,50%,50%);stroke-opacity:1;stroke-miterlimit:3.25;" d="M 169.605469 228.441406 L 184.917969 329.472656 L 257.5625 261.171875 Z M 169.605469 228.441406 " transform="matrix(1,0,0,1,-74,-13)"/>
<path style="fill-rule:nonzero;fill:rgb(84.999084%,84.999084%,84.999084%);fill-opacity:0.6;stroke-width:1;stroke-linecap:square;stroke-linejoin:miter;stroke:rgb(50%,50%,50%);stroke-opacity:1;stroke-miterlimit:3.25;" d="M 184.917969 329.472656 L 169.605469 228.441406 L 82.101563 198.90625 Z M 184.917969 329.472656 " transform="matrix(1,0,0,1,-74,-13)"/>
<path style="fill-rule:nonzero;fill:rgb(84.999084%,84.999084%,84.999084%);fill-opacity:0.6;stroke-width:1;stroke-linecap:square;stroke-linejoin:miter;stroke:rgb(50%,50%,50%);stroke-opacity:1;stroke-miterlimit:3.25;" d="M 82.101563 198.90625 L 148.582031 152.066406 L 131.886719 131.011719 Z M 82.101563 198.90625 " transform="matrix(1,0,0,1,-74,-13)"/>
<path style="fill-rule:nonzero;fill:rgb(84.999084%,84.999084%,84.999084%);fill-opacity:0.6;stroke-width:1;stroke-linecap:square;stroke-linejoin:miter;stroke:rgb(50%,50%,50%);stroke-opacity:1;stroke-miterlimit:3.25;" d="M 148.582031 152.066406 L 82.101563 198.90625 L 169.605469 228.441406 Z M 148.582031 152.066406 " transform="matrix(1,0,0,1,-74,-13)"/>
<path style="fill-rule:nonzero;fill:rgb(84.999084%,84.999084%,84.999084%);fill-opacity:0.6;stroke-width:1;stroke-linecap:square;stroke-linejoin:miter;stroke:rgb(50%,50%,50%);stroke-opacity:1;stroke-miterlimit:3.25;" d="M 169.605469 228.441406 L 212.804688 178.855469 L 148.582031 152.066406 Z M 169.605469 228.441406 " transform="matrix(1,0,0,1,-74,-13)"/>
<path style="fill-rule:nonzero;fill:rgb(84.999084%,84.999084%,84.999084%);fill-opacity:0.6;stroke-width:1;stroke-linecap:square;stroke-linejoin:miter;stroke:rgb(50%,50%,50%);stroke-opacity:1;stroke-miterlimit:3.25;" d="M 257.5625 261.171875 L 283.4375 244.234375 L 268.34375 193.21875 Z M 257.5625 261.171875 " transform="matrix(1,0,0,1,-74,-13)"/>
<path style="fill-rule:nonzero;fill:rgb(84.999084%,84.999084%,84.999084%);fill-opacity:0.6;stroke-width:1;stroke-linecap:square;stroke-linejoin:miter;stroke:rgb(50%,50%,50%);stroke-opacity:1;stroke-miterlimit:3.25;" d="M 335.191406 342.0625 L 283.4375 244.234375 L 257.5625 261.171875 Z M 335.191406 342.0625 " transform="matrix(1,0,0,1,-74,-13)"/>
<path style="fill-rule:nonzero;fill:rgb(84.999084%,84.999084%,84.999084%);fill-opacity:0.6;stroke-width:1;stroke-linecap:square;stroke-linejoin:miter;stroke:rgb(50%,50%,50%);stroke-opacity:1;stroke-miterlimit:3.25;" d="M 148.582031 152.066406 L 212.804688 178.855469 L 192.195313 138.441406 Z M 148.582031 152.066406 " transform="matrix(1,0,0,1,-74,-13)"/>
<path style="fill-rule:nonzero;fill:rgb(84.999084%,84.999084%,84.999084%);fill-opacity:0.6;stroke-width:1;stroke-linecap:square;stroke-linejoin:miter;stroke:rgb(50%,50%,50%);stroke-opacity:1;stroke-miterlimit:3.25;" d="M 268.34375 193.21875 L 212.804688 178.855469 L 257.5625 261.171875 Z M 268.34375 193.21875 " transform="matrix(1,0,0,1,-74,-13)"/>
<path style="fill-rule:nonzero;fill:rgb(84.999084%,84.999084%,84.999084%);fill-opacity:0.6;stroke-width:1;stroke-linecap:square;stroke-linejoin:miter;stroke:rgb(50%,50%,50%);stroke-opacity:1;stroke-miterlimit:3.25;" d="M 261.234375 130.335938 L 268.34375 193.21875 L 292.527344 138.96875 Z M 261.234375 130.335938 " transform="matrix(1,0,0,1,-74,-13)"/>
<path style="fill-rule:nonzero;fill:rgb(84.999084%,84.999084%,84.999084%);fill-opacity:0.6;stroke-width:1;stroke-linecap:square;stroke-linejoin:miter;stroke:rgb(50%,50%,50%);stroke-opacity:1;stroke-miterlimit:3.25;" d="M 257.5625 261.171875 L 212.804688 178.855469 L 169.605469 228.441406 Z M 257.5625 261.171875 " transform="matrix(1,0,0,1,-74,-13)"/>
<path style="fill-rule:nonzero;fill:rgb(84.999084%,84.999084%,84.999084%);fill-opacity:0.6;stroke-width:1;stroke-linecap:square;stroke-linejoin:miter;stroke:rgb(50%,50%,50%);stroke-opacity:1;stroke-miterlimit:3.25;" d="M 257.5625 261.171875 L 184.917969 329.472656 L 335.191406 342.0625 Z M 257.5625 261.171875 " transform="matrix(1,0,0,1,-74,-13)"/>
<path style="fill-rule:nonzero;fill:rgb(84.999084%,84.999084%,84.999084%);fill-opacity:0.6;stroke-width:1;stroke-linecap:square;stroke-linejoin:miter;stroke:rgb(50%,50%,50%);stroke-opacity:1;stroke-miterlimit:3.25;" d="M 261.234375 130.335938 L 212.804688 178.855469 L 268.34375 193.21875 Z M 261.234375 130.335938 " transform="matrix(1,0,0,1,-74,-13)"/>
<path style="fill-rule:nonzero;fill:rgb(84.999084%,84.999084%,84.999084%);fill-opacity:0.6;stroke-width:1;stroke-linecap:square;stroke-linejoin:miter;stroke:rgb(50%,50%,50%);stroke-opacity:1;stroke-miterlimit:3.25;" d="M 131.886719 131.011719 L 178.574219 132.707031 L 175 77.078125 Z M 131.886719 131.011719 " transform="matrix(1,0,0,1,-74,-13)"/>
<path style="fill-rule:nonzero;fill:rgb(84.999084%,84.999084%,84.999084%);fill-opacity:0.6;stroke-width:1;stroke-linecap:square;stroke-linejoin:miter;stroke:rgb(50%,50%,50%);stroke-opacity:1;stroke-miterlimit:3.25;" d="M 131.886719 131.011719 L 148.582031 152.066406 L 178.574219 132.707031 Z M 131.886719 131.011719 " transform="matrix(1,0,0,1,-74,-13)"/>
<path style="fill-rule:nonzero;fill:rgb(84.999084%,84.999084%,84.999084%);fill-opacity:0.6;stroke-width:1;stroke-linecap:square;stroke-linejoin:miter;stroke:rgb(50%,50%,50%);stroke-opacity:1;stroke-miterlimit:3.25;" d="M 175 77.078125 L 191.066406 98.054688 L 192.953125 56.78125 Z M 175 77.078125 " transform="matrix(1,0,0,1,-74,-13)"/>
<path style="fill-rule:nonzero;fill:rgb(84.999084%,84.999084%,84.999084%);fill-opacity:0.6;stroke-width:1;stroke-linecap:square;stroke-linejoin:miter;stroke:rgb(50%,50%,50%);stroke-opacity:1;stroke-miterlimit:3.25;" d="M 191.066406 98.054688 L 175 77.078125 L 178.574219 132.707031 Z M 191.066406 98.054688 " transform="matrix(1,0,0,1,-74,-13)"/>
<path style="fill-rule:nonzero;fill:rgb(84.999084%,84.999084%,84.999084%);fill-opacity:0.6;stroke-width:1;stroke-linecap:square;stroke-linejoin:miter;stroke:rgb(50%,50%,50%);stroke-opacity:1;stroke-miterlimit:3.25;" d="M 178.574219 132.707031 L 193.804688 99.253906 L 191.066406 98.054688 Z M 178.574219 132.707031 " transform="matrix(1,0,0,1,-74,-13)"/>
<path style="fill-rule:nonzero;fill:rgb(84.999084%,84.999084%,84.999084%);fill-opacity:0.6;stroke-width:1;stroke-linecap:square;stroke-linejoin:miter;stroke:rgb(50%,50%,50%);stroke-opacity:1;stroke-miterlimit:3.25;" d="M 192.195313 138.441406 L 261.234375 130.335938 L 193.804688 99.253906 Z M 192.195313 138.441406 " transform="matrix(1,0,0,1,-74,-13)"/>
<path style="fill-rule:nonzero;fill:rgb(84.999084%,84.999084%,84.999084%);fill-opacity:0.6;stroke-width:1;stroke-linecap:square;stroke-linejoin:miter;stroke:rgb(50%,50%,50%);stroke-opacity:1;stroke-miterlimit:3.25;" d="M 261.234375 130.335938 L 192.195313 138.441406 L 212.804688 178.855469 Z M 261.234375 130.335938 " transform="matrix(1,0,0,1,-74,-13)"/>
<path style="fill-rule:nonzero;fill:rgb(84.999084%,84.999084%,84.999084%);fill-opacity:0.6;stroke-width:1;stroke-linecap:square;stroke-linejoin:miter;stroke:rgb(50%,50%,50%);stroke-opacity:1;stroke-miterlimit:3.25;" d="M 192.953125 56.78125 L 193.804688 99.253906 L 287.691406 42.257813 Z M 192.953125 56.78125 " transform="matrix(1,0,0,1,-74,-13)"/>
<path style="fill-rule:nonzero;fill:rgb(84.999084%,84.999084%,84.999084%);fill-opacity:0.6;stroke-width:1;stroke-linecap:square;stroke-linejoin:miter;stroke:rgb(50%,50%,50%);stroke-opacity:1;stroke-miterlimit:3.25;" d="M 192.953125 56.78125 L 191.066406 98.054688 L 193.804688 99.253906 Z M 192.953125 56.78125 " transform="matrix(1,0,0,1,-74,-13)"/>
<path style="fill-rule:nonzero;fill:rgb(84.999084%,84.999084%,84.999084%);fill-opacity:0.6;stroke-width:1;stroke-linecap:square;stroke-linejoin:miter;stroke:rgb(50%,50%,50%);stroke-opacity:1;stroke-miterlimit:3.25;" d="M 287.691406 42.257813 L 193.804688 99.253906 L 261.234375 130.335938 Z M 287.691406 42.257813 " transform="matrix(1,0,0,1,-74,-13)"/>
<path style="fill-rule:nonzero;fill:rgb(84.999084%,84.999084%,84.999084%);fill-opacity:0.6;stroke-width:1;stroke-linecap:square;stroke-linejoin:miter;stroke:rgb(50%,50%,50%);stroke-opacity:1;stroke-miterlimit:3.25;" d="M 192.953125 56.78125 L 287.691406 42.257813 L 332.996094 26.0625 Z M 192.953125 56.78125 " transform="matrix(1,0,0,1,-74,-13)"/>
<path style="fill-rule:nonzero;fill:rgb(84.999084%,84.999084%,84.999084%);fill-opacity:0.6;stroke-width:1;stroke-linecap:square;stroke-linejoin:miter;stroke:rgb(50%,50%,50%);stroke-opacity:1;stroke-miterlimit:3.25;" d="M 287.691406 42.257813 L 261.234375 130.335938 L 292.527344 138.96875 Z M 287.691406 42.257813 " transform="matrix(1,0,0,1,-74,-13)"/>
<path style="fill-rule:nonzero;fill:rgb(84.999084%,84.999084%,84.999084%);fill-opacity:0.6;stroke-width:1;stroke-linecap:square;stroke-linejoin:miter;stroke:rgb(50%,50%,50%);stroke-opacity:1;stroke-miterlimit:3.25;" d="M 193.804688 99.253906 L 178.574219 132.707031 L 192.195313 138.441406 Z M 193.804688 99.253906 " transform="matrix(1,0,0,1,-74,-13)"/>
<path style="fill-rule:nonzero;fill:rgb(84.999084%,84.999084%,84.999084%);fill-opacity:0.6;stroke-width:1;stroke-linecap:square;stroke-linejoin:miter;stroke:rgb(50%,50%,50%);stroke-opacity:1;stroke-miterlimit:3.25;" d="M 148.582031 152.066406 L 192.195313 138.441406 L 178.574219 132.707031 Z M 148.582031 152.066406 " transform="matrix(1,0,0,1,-74,-13)"/>
<path style="fill-rule:nonzero;fill:rgb(84.999084%,84.999084%,84.999084%);fill-opacity:0.6;stroke-width:1;stroke-linecap:square;stroke-linejoin:miter;stroke:rgb(50%,50%,50%);stroke-opacity:1;stroke-miterlimit:3.25;" d="M 268.34375 193.21875 L 283.4375 244.234375 L 295.753906 218.230469 Z M 268.34375 193.21875 " transform="matrix(1,0,0,1,-74,-13)"/>
<path style="fill-rule:nonzero;fill:rgb(84.999084%,84.999084%,84.999084%);fill-opacity:0.6;stroke-width:1;stroke-linecap:square;stroke-linejoin:miter;stroke:rgb(50%,50%,50%);stroke-opacity:1;stroke-miterlimit:3.25;" d="M 335.191406 342.0625 L 337.6875 340.96875 L 337.875 340.765625 Z M 335.191406 342.0625 " transform="matrix(1,0,0,1,-74,-13)"/>
<path style="fill-rule:nonzero;fill:rgb(84.999084%,84.999084%,84.999084%);fill-opacity:0.6;stroke-width:1;stroke-linecap:square;stroke-linejoin:miter;stroke:rgb(50%,50%,50%);stroke-opacity:1;stroke-miterlimit:3.25;" d="M 358.234375 300.550781 L 335.191406 342.0625 L 337.875 340.765625 Z M 358.234375 300.550781 " transform="matrix(1,0,0,1,-74,-13)"/>
<path style="fill-rule:nonzero;fill:rgb(84.999084%,84.999084%,84.999084%);fill-opacity:0.6;stroke-width:1;stroke-linecap:square;stroke-linejoin:miter;stroke:rgb(50%,50%,50%);stroke-opacity:1;stroke-miterlimit:3.25;" d="M 358.785156 299.941406 L 283.4375 244.234375 L 358.234375 300.550781 Z M 358.785156 299.941406 " transform="matrix(1,0,0,1,-74,-13)"/>
<path style="fill-rule:nonzero;fill:rgb(84.999084%,84.999084%,84.999084%);fill-opacity:0.6;stroke-width:1;stroke-linecap:square;stroke-linejoin:miter;stroke:rgb(50%,50%,50%);stroke-opacity:1;stroke-miterlimit:3.25;" d="M 297.46875 218.652344 L 295.753906 218.230469 L 283.4375 244.234375 Z M 297.46875 218.652344 " transform="matrix(1,0,0,1,-74,-13)"/>
<path style="fill-rule:nonzero;fill:rgb(84.999084%,84.999084%,84.999084%);fill-opacity:0.6;stroke-width:1;stroke-linecap:square;stroke-linejoin:miter;stroke:rgb(50%,50%,50%);stroke-opacity:1;stroke-miterlimit:3.25;" d="M 358.234375 300.550781 L 360.996094 303.394531 L 358.785156 299.941406 Z M 358.234375 300.550781 " transform="matrix(1,0,0,1,-74,-13)"/>
<path style="fill-rule:nonzero;fill:rgb(84.999084%,84.999084%,84.999084%);fill-opacity:0.6;stroke-width:1;stroke-linecap:square;stroke-linejoin:miter;stroke:rgb(50%,50%,50%);stroke-opacity:1;stroke-miterlimit:3.25;" d="M 360.996094 303.394531 L 358.234375 300.550781 L 337.875 340.765625 Z M 360.996094 303.394531 " transform="matrix(1,0,0,1,-74,-13)"/>
<path style="fill-rule:nonzero;fill:rgb(84.999084%,84.999084%,84.999084%);fill-opacity:0.6;stroke-width:1;stroke-linecap:square;stroke-linejoin:miter;stroke:rgb(50%,50%,50%);stroke-opacity:1;stroke-miterlimit:3.25;" d="M 375.273438 222.726563 L 297.46875 218.652344 L 358.785156 299.941406 Z M 375.273438 222.726563 " transform="matrix(1,0,0,1,-74,-13)"/>
<path style="fill-rule:nonzero;fill:rgb(84.999084%,84.999084%,84.999084%);fill-opacity:0.6;stroke-width:1;stroke-linecap:square;stroke-linejoin:miter;stroke:rgb(50%,50%,50%);stroke-opacity:1;stroke-miterlimit:3.25;" d="M 375.273438 222.726563 L 358.785156 299.941406 L 360.996094 303.394531 Z M 375.273438 222.726563 " transform="matrix(1,0,0,1,-74,-13)"/>
<path style="fill-rule:nonzero;fill:rgb(84.999084%,84.999084%,84.999084%);fill-opacity:0.6;stroke-width:1;stroke-linecap:square;stroke-linejoin:miter;stroke:rgb(50%,50%,50%);stroke-opacity:1;stroke-miterlimit:3.25;" d="M 360.996094 303.394531 L 385.050781 191.628906 L 375.273438 222.726563 Z M 360.996094 303.394531 " transform="matrix(1,0,0,1,-74,-13)"/>
<path style="fill-rule:nonzero;fill:rgb(84.999084%,84.999084%,84.999084%);fill-opacity:0.6;stroke-width:1;stroke-linecap:square;stroke-linejoin:miter;stroke:rgb(50%,50%,50%);stroke-opacity:1;stroke-miterlimit:3.25;" d="M 297.46875 218.652344 L 283.4375 244.234375 L 358.785156 299.941406 Z M 297.46875 218.652344 " transform="matrix(1,0,0,1,-74,-13)"/>
<path style="fill-rule:nonzero;fill:rgb(84.999084%,84.999084%,84.999084%);fill-opacity:0.6;stroke-width:1;stroke-linecap:square;stroke-linejoin:miter;stroke:rgb(50%,50%,50%);stroke-opacity:1;stroke-miterlimit:3.25;" d="M 297.46875 218.652344 L 375.273438 222.726563 L 385.050781 191.628906 Z M 297.46875 218.652344 " transform="matrix(1,0,0,1,-74,-13)"/>
<path style="fill-rule:nonzero;fill:rgb(84.999084%,84.999084%,84.999084%);fill-opacity:0.6;stroke-width:1;stroke-linecap:square;stroke-linejoin:miter;stroke:rgb(50%,50%,50%);stroke-opacity:1;stroke-miterlimit:3.25;" d="M 331.195313 27.835938 L 294.117188 139.917969 L 337.03125 26.128906 Z M 331.195313 27.835938 " transform="matrix(1,0,0,1,-74,-13)"/>
<path style="fill-rule:nonzero;fill:rgb(84.999084%,84.999084%,84.999084%);fill-opacity:0.6;stroke-width:1;stroke-linecap:square;stroke-linejoin:miter;stroke:rgb(50%,50%,50%);stroke-opacity:1;stroke-miterlimit:3.25;" d="M 294.117188 139.917969 L 292.527344 138.96875 L 268.34375 193.21875 Z M 294.117188 139.917969 " transform="matrix(1,0,0,1,-74,-13)"/>
<path style="fill-rule:nonzero;fill:rgb(84.999084%,84.999084%,84.999084%);fill-opacity:0.6;stroke-width:1;stroke-linecap:square;stroke-linejoin:miter;stroke:rgb(50%,50%,50%);stroke-opacity:1;stroke-miterlimit:3.25;" d="M 294.117188 139.917969 L 287.691406 42.257813 L 292.527344 138.96875 Z M 294.117188 139.917969 " transform="matrix(1,0,0,1,-74,-13)"/>
<path style="fill-rule:nonzero;fill:rgb(84.999084%,84.999084%,84.999084%);fill-opacity:0.6;stroke-width:1;stroke-linecap:square;stroke-linejoin:miter;stroke:rgb(50%,50%,50%);stroke-opacity:1;stroke-miterlimit:3.25;" d="M 287.691406 42.257813 L 294.117188 139.917969 L 331.195313 27.835938 Z M 287.691406 42.257813 " transform="matrix(1,0,0,1,-74,-13)"/>
<path style="fill-rule:nonzero;fill:rgb(84.999084%,84.999084%,84.999084%);fill-opacity:0.6;stroke-width:1;stroke-linecap:square;stroke-linejoin:miter;stroke:rgb(50%,50%,50%);stroke-opacity:1;stroke-miterlimit:3.25;" d="M 297.46875 218.652344 L 294.117188 139.917969 L 268.34375 193.21875 Z M 297.46875 218.652344 " transform="matrix(1,0,0,1,-74,-13)"/>
<path style="fill-rule:nonzero;fill:rgb(84.999084%,84.999084%,84.999084%);fill-opacity:0.6;stroke-width:1;stroke-linecap:square;stroke-linejoin:miter;stroke:rgb(50%,50%,50%);stroke-opacity:1;stroke-miterlimit:3.25;" d="M 268.34375 193.21875 L 295.753906 218.230469 L 297.46875 218.652344 Z M 268.34375 193.21875 " transform="matrix(1,0,0,1,-74,-13)"/>
<path style="fill-rule:nonzero;fill:rgb(84.999084%,84.999084%,84.999084%);fill-opacity:0.6;stroke-width:1;stroke-linecap:square;stroke-linejoin:miter;stroke:rgb(50%,50%,50%);stroke-opacity:1;stroke-miterlimit:3.25;" d="M 331.195313 27.835938 L 337.03125 26.128906 L 333.632813 26.351563 Z M 331.195313 27.835938 " transform="matrix(1,0,0,1,-74,-13)"/>
<path style="fill-rule:nonzero;fill:rgb(84.999084%,84.999084%,84.999084%);fill-opacity:0.6;stroke-width:1;stroke-linecap:square;stroke-linejoin:miter;stroke:rgb(50%,50%,50%);stroke-opacity:1;stroke-miterlimit:3.25;" d="M 333.632813 26.351563 L 332.996094 26.0625 L 331.195313 27.835938 Z M 333.632813 26.351563 " transform="matrix(1,0,0,1,-74,-13)"/>
<path style="fill-rule:nonzero;fill:rgb(84.999084%,84.999084%,84.999084%);fill-opacity:0.6;stroke-width:1;stroke-linecap:square;stroke-linejoin:miter;stroke:rgb(50%,50%,50%);stroke-opacity:1;stroke-miterlimit:3.25;" d="M 333.632813 26.351563 L 334.242188 26.027344 L 332.996094 26.0625 Z M 333.632813 26.351563 " transform="matrix(1,0,0,1,-74,-13)"/>
<path style="fill-rule:nonzero;fill:rgb(84.999084%,84.999084%,84.999084%);fill-opacity:0.6;stroke-width:1;stroke-linecap:square;stroke-linejoin:miter;stroke:rgb(50%,50%,50%);stroke-opacity:1;stroke-miterlimit:3.25;" d="M 334.242188 26.027344 L 333.632813 26.351563 L 337.03125 26.128906 Z M 334.242188 26.027344 " transform="matrix(1,0,0,1,-74,-13)"/>
<path style="fill-rule:nonzero;fill:rgb(84.999084%,84.999084%,84.999084%);fill-opacity:0.6;stroke-width:1;stroke-linecap:square;stroke-linejoin:miter;stroke:rgb(50%,50%,50%);stroke-opacity:1;stroke-miterlimit:3.25;" d="M 294.117188 139.917969 L 385.050781 191.628906 L 337.03125 26.128906 Z M 294.117188 139.917969 " transform="matrix(1,0,0,1,-74,-13)"/>
<path style="fill-rule:nonzero;fill:rgb(84.999084%,84.999084%,84.999084%);fill-opacity:0.6;stroke-width:1;stroke-linecap:square;stroke-linejoin:miter;stroke:rgb(50%,50%,50%);stroke-opacity:1;stroke-miterlimit:3.25;" d="M 297.46875 218.652344 L 385.050781 191.628906 L 294.117188 139.917969 Z M 297.46875 218.652344 " transform="matrix(1,0,0,1,-74,-13)"/>
<path style="fill-rule:nonzero;fill:rgb(84.999084%,84.999084%,84.999084%);fill-opacity:0.6;stroke-width:1;stroke-linecap:square;stroke-linejoin:miter;stroke:rgb(50%,50%,50%);stroke-opacity:1;stroke-miterlimit:3.25;" d="M 331.195313 27.835938 L 332.996094 26.0625 L 287.691406 42.257813 Z M 331.195313 27.835938 " transform="matrix(1,0,0,1,-74,-13)"/>
<path style="fill-rule:nonzero;fill:rgb(84.999084%,84.999084%,84.999084%);fill-opacity:0.6;stroke-width:1;stroke-linecap:square;stroke-linejoin:miter;stroke:rgb(50%,50%,50%);stroke-opacity:1;stroke-miterlimit:3.25;" d="M 283.4375 244.234375 L 335.191406 342.0625 L 358.234375 300.550781 Z M 283.4375 244.234375 " transform="matrix(1,0,0,1,-74,-13)"/>
<path style=" stroke:none;fill-rule:evenodd;fill:rgb(99.998474%,0%,0%);fill-opacity:0.6;" d="M 262.789063 329 C 262.789063 328.523438 262.601563 328.070313 262.265625 327.734375 C 261.929688 327.398438 261.476563 327.210938 261 327.210938 C 260.523438 327.210938 260.070313 327.398438 259.734375 327.734375 C 259.398438 328.070313 259.210938 328.523438 259.210938 329 C 259.210938 329.476563 259.398438 329.929688 259.734375 330.265625 C 260.070313 330.601563 260.523438 330.789063 261 330.789063 C 261.476563 330.789063 261.929688 330.601563 262.265625 330.265625 C 262.601563 329.929688 262.789063 329.476563 262.789063 329 Z M 262.789063 329 "/>
<path style=" stroke:none;fill-rule:evenodd;fill:rgb(99.998474%,0%,0%);fill-opacity:0.6;" d="M 265.789063 328 C 265.789063 327.523438 265.601563 327.070313 265.265625 326.734375 C 264.929688 326.398438 264.476563 326.210938 264 326.210938 C 263.523438 326.210938 263.070313 326.398438 262.734375 326.734375 C 262.398438 327.070313 262.210938 327.523438 262.210938 328 C 262.210938 328.476563 262.398438 328.929688 262.734375 329.265625 C 263.070313 329.601563 263.523438 329.789063 264 329.789063 C 264.476563 329.789063 264.929688 329.601563 265.265625 329.265625 C 265.601563 328.929688 265.789063 328.476563 265.789063 328 Z M 265.789063 328 "/>
<path style=" stroke:none;fill-rule:evenodd;fill:rgb(99.998474%,0%,0%);fill-opacity:0.6;" d="M 265.789063 328 C 265.789063 327.523438 265.601563 327.070313 265.265625 326.734375 C 264.929688 326.398438 264.476563 326.210938 264 326.210938 C 263.523438 326.210938 263.070313 326.398438 262.734375 326.734375 C 262.398438 327.070313 262.210938 327.523438 262.210938 328 C 262.210938 328.476563 262.398438 328.929688 262.734375 329.265625 C 263.070313 329.601563 263.523438 329.789063 264 329.789063 C 264.476563 329.789063 264.929688 329.601563 265.265625 329.265625 C 265.601563 328.929688 265.789063 328.476563 265.789063 328 Z M 265.789063 328 "/>
<path style=" stroke:none;fill-rule:evenodd;fill:rgb(99.998474%,0%,0%);fill-opacity:0.6;" d="M 112.789063 316 C 112.789063 315.523438 112.601563 315.070313 112.265625 314.734375 C 111.929688 314.398438 111.476563 314.210938 111 314.210938 C 110.523438 314.210938 110.070313 314.398438 109.734375 314.734375 C 109.398438 315.070313 109.210938 315.523438 109.210938 316 C 109.210938 316.476563 109.398438 316.929688 109.734375 317.265625 C 110.070313 317.601563 110.523438 317.789063 111 317.789063 C 111.476563 317.789063 111.929688 317.601563 112.265625 317.265625 C 112.601563 316.929688 112.789063 316.476563 112.789063 316 Z M 112.789063 316 "/>
<path style=" stroke:none;fill-rule:evenodd;fill:rgb(99.998474%,0%,0%);fill-opacity:0.6;" d="M 288.789063 290 C 288.789063 289.523438 288.601563 289.070313 288.265625 288.734375 C 287.929688 288.398438 287.476563 288.210938 287 288.210938 C 286.523438 288.210938 286.070313 288.398438 285.734375 288.734375 C 285.398438 289.070313 285.210938 289.523438 285.210938 290 C 285.210938 290.476563 285.398438 290.929688 285.734375 291.265625 C 286.070313 291.601563 286.523438 291.789063 287 291.789063 C 287.476563 291.789063 287.929688 291.601563 288.265625 291.265625 C 288.601563 290.929688 288.789063 290.476563 288.789063 290 Z M 288.789063 290 "/>
<path style=" stroke:none;fill-rule:evenodd;fill:rgb(99.998474%,0%,0%);fill-opacity:0.6;" d="M 285.789063 288 C 285.789063 287.523438 285.601563 287.070313 285.265625 286.734375 C 284.929688 286.398438 284.476563 286.210938 284 286.210938 C 283.523438 286.210938 283.070313 286.398438 282.734375 286.734375 C 282.398438 287.070313 282.210938 287.523438 282.210938 288 C 282.210938 288.476563 282.398438 288.929688 282.734375 289.265625 C 283.070313 289.601563 283.523438 289.789063 284 289.789063 C 284.476563 289.789063 284.929688 289.601563 285.265625 289.265625 C 285.601563 288.929688 285.789063 288.476563 285.789063 288 Z M 285.789063 288 "/>
<path style=" stroke:none;fill-rule:evenodd;fill:rgb(99.998474%,0%,0%);fill-opacity:0.6;" d="M 286.789063 287 C 286.789063 286.523438 286.601563 286.070313 286.265625 285.734375 C 285.929688 285.398438 285.476563 285.210938 285 285.210938 C 284.523438 285.210938 284.070313 285.398438 283.734375 285.734375 C 283.398438 286.070313 283.210938 286.523438 283.210938 287 C 283.210938 287.476563 283.398438 287.929688 283.734375 288.265625 C 284.070313 288.601563 284.523438 288.789063 285 288.789063 C 285.476563 288.789063 285.929688 288.601563 286.265625 288.265625 C 286.601563 287.929688 286.789063 287.476563 286.789063 287 Z M 286.789063 287 "/>
<path style=" stroke:none;fill-rule:evenodd;fill:rgb(99.998474%,0%,0%);fill-opacity:0.6;" d="M 185.789063 248 C 185.789063 247.523438 185.601563 247.070313 185.265625 246.734375 C 184.929688 246.398438 184.476563 246.210938 184 246.210938 C 183.523438 246.210938 183.070313 246.398438 182.734375 246.734375 C 182.398438 247.070313 182.210938 247.523438 182.210938 248 C 182.210938 248.476563 182.398438 248.929688 182.734375 249.265625 C 183.070313 249.601563 183.523438 249.789063 184 249.789063 C 184.476563 249.789063 184.929688 249.601563 185.265625 249.265625 C 185.601563 248.929688 185.789063 248.476563 185.789063 248 Z M 185.789063 248 "/>
<path style=" stroke:none;fill-rule:evenodd;fill:rgb(99.998474%,0%,0%);fill-opacity:0.6;" d="M 210.789063 231 C 210.789063 230.523438 210.601563 230.070313 210.265625 229.734375 C 209.929688 229.398438 209.476563 229.210938 209 229.210938 C 208.523438 229.210938 208.070313 229.398438 207.734375 229.734375 C 207.398438 230.070313 207.210938 230.523438 207.210938 231 C 207.210938 231.476563 207.398438 231.929688 207.734375 232.265625 C 208.070313 232.601563 208.523438 232.789063 209 232.789063 C 209.476563 232.789063 209.929688 232.601563 210.265625 232.265625 C 210.601563 231.929688 210.789063 231.476563 210.789063 231 Z M 210.789063 231 "/>
<path style=" stroke:none;fill-rule:evenodd;fill:rgb(99.998474%,0%,0%);fill-opacity:0.6;" d="M 97.789063 215 C 97.789063 214.523438 97.601563 214.070313 97.265625 213.734375 C 96.929688 213.398438 96.476563 213.210938 96 213.210938 C 95.523438 213.210938 95.070313 213.398438 94.734375 213.734375 C 94.398438 214.070313 94.210938 214.523438 94.210938 215 C 94.210938 215.476563 94.398438 215.929688 94.734375 216.265625 C 95.070313 216.601563 95.523438 216.789063 96 216.789063 C 96.476563 216.789063 96.929688 216.601563 97.265625 216.265625 C 97.601563 215.929688 97.789063 215.476563 97.789063 215 Z M 97.789063 215 "/>
<path style=" stroke:none;fill-rule:evenodd;fill:rgb(99.998474%,0%,0%);fill-opacity:0.6;" d="M 302.789063 210 C 302.789063 209.523438 302.601563 209.070313 302.265625 208.734375 C 301.929688 208.398438 301.476563 208.210938 301 208.210938 C 300.523438 208.210938 300.070313 208.398438 299.734375 208.734375 C 299.398438 209.070313 299.210938 209.523438 299.210938 210 C 299.210938 210.476563 299.398438 210.929688 299.734375 211.265625 C 300.070313 211.601563 300.523438 211.789063 301 211.789063 C 301.476563 211.789063 301.929688 211.601563 302.265625 211.265625 C 302.601563 210.929688 302.789063 210.476563 302.789063 210 Z M 302.789063 210 "/>
<path style=" stroke:none;fill-rule:evenodd;fill:rgb(99.998474%,0%,0%);fill-opacity:0.6;" d="M 224.789063 206 C 224.789063 205.523438 224.601563 205.070313 224.265625 204.734375 C 223.929688 204.398438 223.476563 204.210938 223 204.210938 C 222.523438 204.210938 222.070313 204.398438 221.734375 204.734375 C 221.398438 205.070313 221.210938 205.523438 221.210938 206 C 221.210938 206.476563 221.398438 206.929688 221.734375 207.265625 C 222.070313 207.601563 222.523438 207.789063 223 207.789063 C 223.476563 207.789063 223.929688 207.601563 224.265625 207.265625 C 224.601563 206.929688 224.789063 206.476563 224.789063 206 Z M 224.789063 206 "/>
<path style=" stroke:none;fill-rule:evenodd;fill:rgb(99.998474%,0%,0%);fill-opacity:0.6;" d="M 223.789063 205 C 223.789063 204.523438 223.601563 204.070313 223.265625 203.734375 C 222.929688 203.398438 222.476563 203.210938 222 203.210938 C 221.523438 203.210938 221.070313 203.398438 220.734375 203.734375 C 220.398438 204.070313 220.210938 204.523438 220.210938 205 C 220.210938 205.476563 220.398438 205.929688 220.734375 206.265625 C 221.070313 206.601563 221.523438 206.789063 222 206.789063 C 222.476563 206.789063 222.929688 206.601563 223.265625 206.265625 C 223.601563 205.929688 223.789063 205.476563 223.789063 205 Z M 223.789063 205 "/>
<path style=" stroke:none;fill-rule:evenodd;fill:rgb(99.998474%,0%,0%);fill-opacity:0.6;" d="M 9.789063 186 C 9.789063 185.523438 9.601563 185.070313 9.265625 184.734375 C 8.929688 184.398438 8.476563 184.210938 8 184.210938 C 7.523438 184.210938 7.070313 184.398438 6.734375 184.734375 C 6.398438 185.070313 6.210938 185.523438 6.210938 186 C 6.210938 186.476563 6.398438 186.929688 6.734375 187.265625 C 7.070313 187.601563 7.523438 187.789063 8 187.789063 C 8.476563 187.789063 8.929688 187.601563 9.265625 187.265625 C 9.601563 186.929688 9.789063 186.476563 9.789063 186 Z M 9.789063 186 "/>
<path style=" stroke:none;fill-rule:evenodd;fill:rgb(99.998474%,0%,0%);fill-opacity:0.6;" d="M 195.789063 180 C 195.789063 179.523438 195.601563 179.070313 195.265625 178.734375 C 194.929688 178.398438 194.476563 178.210938 194 178.210938 C 193.523438 178.210938 193.070313 178.398438 192.734375 178.734375 C 192.398438 179.070313 192.210938 179.523438 192.210938 180 C 192.210938 180.476563 192.398438 180.929688 192.734375 181.265625 C 193.070313 181.601563 193.523438 181.789063 194 181.789063 C 194.476563 181.789063 194.929688 181.601563 195.265625 181.265625 C 195.601563 180.929688 195.789063 180.476563 195.789063 180 Z M 195.789063 180 "/>
<path style=" stroke:none;fill-rule:evenodd;fill:rgb(99.998474%,0%,0%);fill-opacity:0.6;" d="M 312.789063 179 C 312.789063 178.523438 312.601563 178.070313 312.265625 177.734375 C 311.929688 177.398438 311.476563 177.210938 311 177.210938 C 310.523438 177.210938 310.070313 177.398438 309.734375 177.734375 C 309.398438 178.070313 309.210938 178.523438 309.210938 179 C 309.210938 179.476563 309.398438 179.929688 309.734375 180.265625 C 310.070313 180.601563 310.523438 180.789063 311 180.789063 C 311.476563 180.789063 311.929688 180.601563 312.265625 180.265625 C 312.601563 179.929688 312.789063 179.476563 312.789063 179 Z M 312.789063 179 "/>
<path style=" stroke:none;fill-rule:evenodd;fill:rgb(99.998474%,0%,0%);fill-opacity:0.6;" d="M 140.789063 166 C 140.789063 165.523438 140.601563 165.070313 140.265625 164.734375 C 139.929688 164.398438 139.476563 164.210938 139 164.210938 C 138.523438 164.210938 138.070313 164.398438 137.734375 164.734375 C 137.398438 165.070313 137.210938 165.523438 137.210938 166 C 137.210938 166.476563 137.398438 166.929688 137.734375 167.265625 C 138.070313 167.601563 138.523438 167.789063 139 167.789063 C 139.476563 167.789063 139.929688 167.601563 140.265625 167.265625 C 140.601563 166.929688 140.789063 166.476563 140.789063 166 Z M 140.789063 166 "/>
<path style=" stroke:none;fill-rule:evenodd;fill:rgb(99.998474%,0%,0%);fill-opacity:0.6;" d="M 76.789063 139 C 76.789063 138.523438 76.601563 138.070313 76.265625 137.734375 C 75.929688 137.398438 75.476563 137.210938 75 137.210938 C 74.523438 137.210938 74.070313 137.398438 73.734375 137.734375 C 73.398438 138.070313 73.210938 138.523438 73.210938 139 C 73.210938 139.476563 73.398438 139.929688 73.734375 140.265625 C 74.070313 140.601563 74.523438 140.789063 75 140.789063 C 75.476563 140.789063 75.929688 140.601563 76.265625 140.265625 C 76.601563 139.929688 76.789063 139.476563 76.789063 139 Z M 76.789063 139 "/>
<path style=" stroke:none;fill-rule:evenodd;fill:rgb(99.998474%,0%,0%);fill-opacity:0.6;" d="M 221.789063 127 C 221.789063 126.523438 221.601563 126.070313 221.265625 125.734375 C 220.929688 125.398438 220.476563 125.210938 220 125.210938 C 219.523438 125.210938 219.070313 125.398438 218.734375 125.734375 C 218.398438 126.070313 218.210938 126.523438 218.210938 127 C 218.210938 127.476563 218.398438 127.929688 218.734375 128.265625 C 219.070313 128.601563 219.523438 128.789063 220 128.789063 C 220.476563 128.789063 220.929688 128.601563 221.265625 128.265625 C 221.601563 127.929688 221.789063 127.476563 221.789063 127 Z M 221.789063 127 "/>
<path style=" stroke:none;fill-rule:evenodd;fill:rgb(99.998474%,0%,0%);fill-opacity:0.6;" d="M 220.789063 126 C 220.789063 125.523438 220.601563 125.070313 220.265625 124.734375 C 219.929688 124.398438 219.476563 124.210938 219 124.210938 C 218.523438 124.210938 218.070313 124.398438 217.734375 124.734375 C 217.398438 125.070313 217.210938 125.523438 217.210938 126 C 217.210938 126.476563 217.398438 126.929688 217.734375 127.265625 C 218.070313 127.601563 218.523438 127.789063 219 127.789063 C 219.476563 127.789063 219.929688 127.601563 220.265625 127.265625 C 220.601563 126.929688 220.789063 126.476563 220.789063 126 Z M 220.789063 126 "/>
<path style=" stroke:none;fill-rule:evenodd;fill:rgb(99.998474%,0%,0%);fill-opacity:0.6;" d="M 119.789063 125 C 119.789063 124.523438 119.601563 124.070313 119.265625 123.734375 C 118.929688 123.398438 118.476563 123.210938 118 123.210938 C 117.523438 123.210938 117.070313 123.398438 116.734375 123.734375 C 116.398438 124.070313 116.210938 124.523438 116.210938 125 C 116.210938 125.476563 116.398438 125.929688 116.734375 126.265625 C 117.070313 126.601563 117.523438 126.789063 118 126.789063 C 118.476563 126.789063 118.929688 126.601563 119.265625 126.265625 C 119.601563 125.929688 119.789063 125.476563 119.789063 125 Z M 119.789063 125 "/>
<path style=" stroke:none;fill-rule:evenodd;fill:rgb(99.998474%,0%,0%);fill-opacity:0.6;" d="M 106.789063 120 C 106.789063 119.523438 106.601563 119.070313 106.265625 118.734375 C 105.929688 118.398438 105.476563 118.210938 105 118.210938 C 104.523438 118.210938 104.070313 118.398438 103.734375 118.734375 C 103.398438 119.070313 103.210938 119.523438 103.210938 120 C 103.210938 120.476563 103.398438 120.929688 103.734375 121.265625 C 104.070313 121.601563 104.523438 121.789063 105 121.789063 C 105.476563 121.789063 105.929688 121.601563 106.265625 121.265625 C 106.601563 120.929688 106.789063 120.476563 106.789063 120 Z M 106.789063 120 "/>
<path style=" stroke:none;fill-rule:evenodd;fill:rgb(99.998474%,0%,0%);fill-opacity:0.6;" d="M 59.789063 118 C 59.789063 117.523438 59.601563 117.070313 59.265625 116.734375 C 58.929688 116.398438 58.476563 116.210938 58 116.210938 C 57.523438 116.210938 57.070313 116.398438 56.734375 116.734375 C 56.398438 117.070313 56.210938 117.523438 56.210938 118 C 56.210938 118.476563 56.398438 118.929688 56.734375 119.265625 C 57.070313 119.601563 57.523438 119.789063 58 119.789063 C 58.476563 119.789063 58.929688 119.601563 59.265625 119.265625 C 59.601563 118.929688 59.789063 118.476563 59.789063 118 Z M 59.789063 118 "/>
<path style=" stroke:none;fill-rule:evenodd;fill:rgb(99.998474%,0%,0%);fill-opacity:0.6;" d="M 188.789063 117 C 188.789063 116.523438 188.601563 116.070313 188.265625 115.734375 C 187.929688 115.398438 187.476563 115.210938 187 115.210938 C 186.523438 115.210938 186.070313 115.398438 185.734375 115.734375 C 185.398438 116.070313 185.210938 116.523438 185.210938 117 C 185.210938 117.476563 185.398438 117.929688 185.734375 118.265625 C 186.070313 118.601563 186.523438 118.789063 187 118.789063 C 187.476563 118.789063 187.929688 118.601563 188.265625 118.265625 C 188.601563 117.929688 188.789063 117.476563 188.789063 117 Z M 188.789063 117 "/>
<path style=" stroke:none;fill-rule:evenodd;fill:rgb(99.998474%,0%,0%);fill-opacity:0.6;" d="M 121.789063 86 C 121.789063 85.523438 121.601563 85.070313 121.265625 84.734375 C 120.929688 84.398438 120.476563 84.210938 120 84.210938 C 119.523438 84.210938 119.070313 84.398438 118.734375 84.734375 C 118.398438 85.070313 118.210938 85.523438 118.210938 86 C 118.210938 86.476563 118.398438 86.929688 118.734375 87.265625 C 119.070313 87.601563 119.523438 87.789063 120 87.789063 C 120.476563 87.789063 120.929688 87.601563 121.265625 87.265625 C 121.601563 86.929688 121.789063 86.476563 121.789063 86 Z M 121.789063 86 "/>
<path style=" stroke:none;fill-rule:evenodd;fill:rgb(99.998474%,0%,0%);fill-opacity:0.6;" d="M 118.789063 85 C 118.789063 84.523438 118.601563 84.070313 118.265625 83.734375 C 117.929688 83.398438 117.476563 83.210938 117 83.210938 C 116.523438 83.210938 116.070313 83.398438 115.734375 83.734375 C 115.398438 84.070313 115.210938 84.523438 115.210938 85 C 115.210938 85.476563 115.398438 85.929688 115.734375 86.265625 C 116.070313 86.601563 116.523438 86.789063 117 86.789063 C 117.476563 86.789063 117.929688 86.601563 118.265625 86.265625 C 118.601563 85.929688 118.789063 85.476563 118.789063 85 Z M 118.789063 85 "/>
<path style=" stroke:none;fill-rule:evenodd;fill:rgb(99.998474%,0%,0%);fill-opacity:0.6;" d="M 102.789063 64 C 102.789063 63.523438 102.601563 63.070313 102.265625 62.734375 C 101.929688 62.398438 101.476563 62.210938 101 62.210938 C 100.523438 62.210938 100.070313 62.398438 99.734375 62.734375 C 99.398438 63.070313 99.210938 63.523438 99.210938 64 C 99.210938 64.476563 99.398438 64.929688 99.734375 65.265625 C 100.070313 65.601563 100.523438 65.789063 101 65.789063 C 101.476563 65.789063 101.929688 65.601563 102.265625 65.265625 C 102.601563 64.929688 102.789063 64.476563 102.789063 64 Z M 102.789063 64 "/>
<path style=" stroke:none;fill-rule:evenodd;fill:rgb(99.998474%,0%,0%);fill-opacity:0.6;" d="M 120.789063 44 C 120.789063 43.523438 120.601563 43.070313 120.265625 42.734375 C 119.929688 42.398438 119.476563 42.210938 119 42.210938 C 118.523438 42.210938 118.070313 42.398438 117.734375 42.734375 C 117.398438 43.070313 117.210938 43.523438 117.210938 44 C 117.210938 44.476563 117.398438 44.929688 117.734375 45.265625 C 118.070313 45.601563 118.523438 45.789063 119 45.789063 C 119.476563 45.789063 119.929688 45.601563 120.265625 45.265625 C 120.601563 44.929688 120.789063 44.476563 120.789063 44 Z M 120.789063 44 "/>
<path style=" stroke:none;fill-rule:evenodd;fill:rgb(99.998474%,0%,0%);fill-opacity:0.6;" d="M 215.789063 29 C 215.789063 28.523438 215.601563 28.070313 215.265625 27.734375 C 214.929688 27.398438 214.476563 27.210938 214 27.210938 C 213.523438 27.210938 213.070313 27.398438 212.734375 27.734375 C 212.398438 28.070313 212.210938 28.523438 212.210938 29 C 212.210938 29.476563 212.398438 29.929688 212.734375 30.265625 C 213.070313 30.601563 213.523438 30.789063 214 30.789063 C 214.476563 30.789063 214.929688 30.601563 215.265625 30.265625 C 215.601563 29.929688 215.789063 29.476563 215.789063 29 Z M 215.789063 29 "/>
<path style=" stroke:none;fill-rule:evenodd;fill:rgb(99.998474%,0%,0%);fill-opacity:0.6;" d="M 258.789063 15 C 258.789063 14.523438 258.601563 14.070313 258.265625 13.734375 C 257.929688 13.398438 257.476563 13.210938 257 13.210938 C 256.523438 13.210938 256.070313 13.398438 255.734375 13.734375 C 255.398438 14.070313 255.210938 14.523438 255.210938 15 C 255.210938 15.476563 255.398438 15.929688 255.734375 16.265625 C 256.070313 16.601563 256.523438 16.789063 257 16.789063 C 257.476563 16.789063 257.929688 16.601563 258.265625 16.265625 C 258.601563 15.929688 258.789063 15.476563 258.789063 15 Z M 258.789063 15 "/>
<path style=" stroke:none;fill-rule:evenodd;fill:rgb(99.998474%,0%,0%);fill-opacity:0.6;" d="M 261.789063 13 C 261.789063 12.523438 261.601563 12.070313 261.265625 11.734375 C 260.929688 11.398438 260.476563 11.210938 260 11.210938 C 259.523438 11.210938 259.070313 11.398438 258.734375 11.734375 C 258.398438 12.070313 258.210938 12.523438 258.210938 13 C 258.210938 13.476563 258.398438 13.929688 258.734375 14.265625 C 259.070313 14.601563 259.523438 14.789063 260 14.789063 C 260.476563 14.789063 260.929688 14.601563 261.265625 14.265625 C 261.601563 13.929688 261.789063 13.476563 261.789063 13 Z M 261.789063 13 "/>
<path style=" stroke:none;fill-rule:evenodd;fill:rgb(99.998474%,0%,0%);fill-opacity:0.6;" d="M 264.789063 13 C 264.789063 12.523438 264.601563 12.070313 264.265625 11.734375 C 263.929688 11.398438 263.476563 11.210938 263 11.210938 C 262.523438 11.210938 262.070313 11.398438 261.734375 11.734375 C 261.398438 12.070313 261.210938 12.523438 261.210938 13 C 261.210938 13.476563 261.398438 13.929688 261.734375 14.265625 C 262.070313 14.601563 262.523438 14.789063 263 14.789063 C 263.476563 14.789063 263.929688 14.601563 264.265625 14.265625 C 264.601563 13.929688 264.789063 13.476563 264.789063 13 Z M 264.789063 13 "/>
<path style=" stroke:none;fill-rule:evenodd;fill:rgb(99.998474%,0%,0%);fill-opacity:0.6;" d="M 261.789063 13 C 261.789063 12.523438 261.601563 12.070313 261.265625 11.734375 C 260.929688 11.398438 260.476563 11.210938 260 11.210938 C 259.523438 11.210938 259.070313 11.398438 258.734375 11.734375 C 258.398438 12.070313 258.210938 12.523438 258.210938 13 C 258.210938 13.476563 258.398438 13.929688 258.734375 14.265625 C 259.070313 14.601563 259.523438 14.789063 260 14.789063 C 260.476563 14.789063 260.929688 14.601563 261.265625 14.265625 C 261.601563 13.929688 261.789063 13.476563 261.789063 13 Z M 261.789063 13 "/>
<path style=" stroke:none;fill-rule:evenodd;fill:rgb(99.998474%,0%,0%);fill-opacity:0.6;" d="M 260.789063 13 C 260.789063 12.523438 260.601563 12.070313 260.265625 11.734375 C 259.929688 11.398438 259.476563 11.210938 259 11.210938 C 258.523438 11.210938 258.070313 11.398438 257.734375 11.734375 C 257.398438 12.070313 257.210938 12.523438 257.210938 13 C 257.210938 13.476563 257.398438 13.929688 257.734375 14.265625 C 258.070313 14.601563 258.523438 14.789063 259 14.789063 C 259.476563 14.789063 259.929688 14.601563 260.265625 14.265625 C 260.601563 13.929688 260.789063 13.476563 260.789063 13 Z M 260.789063 13 "/>
<path style=" stroke:none;fill-rule:evenodd;fill:rgb(99.998474%,0%,0%);fill-opacity:1;" d="M 262.5 329 C 262.5 328.601563 262.34375 328.21875 262.0625 327.9375 C 261.78125 327.65625 261.398438 327.5 261 327.5 C 260.601563 327.5 260.21875 327.65625 259.9375 327.9375 C 259.65625 328.21875 259.5 328.601563 259.5 329 C 259.5 329.398438 259.65625 329.78125 259.9375 330.0625 C 260.21875 330.34375 260.601563 330.5 261 330.5 C 261.398438 330.5 261.78125 330.34375 262.0625 330.0625 C 262.34375 329.78125 262.5 329.398438 262.5 329 Z M 262.5 329 "/>
<path style=" stroke:none;fill-rule:evenodd;fill:rgb(99.998474%,0%,0%);fill-opacity:1;" d="M 265.5 328 C 265.5 327.601563 265.34375 327.21875 265.0625 326.9375 C 264.78125 326.65625 264.398438 326.5 264 326.5 C 263.601563 326.5 263.21875 326.65625 262.9375 326.9375 C 262.65625 327.21875 262.5 327.601563 262.5 328 C 262.5 328.398438 262.65625 328.78125 262.9375 329.0625 C 263.21875 329.34375 263.601563 329.5 264 329.5 C 264.398438 329.5 264.78125 329.34375 265.0625 329.0625 C 265.34375 328.78125 265.5 328.398438 265.5 328 Z M 265.5 328 "/>
<path style=" stroke:none;fill-rule:evenodd;fill:rgb(99.998474%,0%,0%);fill-opacity:1;" d="M 265.5 328 C 265.5 327.601563 265.34375 327.21875 265.0625 326.9375 C 264.78125 326.65625 264.398438 326.5 264 326.5 C 263.601563 326.5 263.21875 326.65625 262.9375 326.9375 C 262.65625 327.21875 262.5 327.601563 262.5 328 C 262.5 328.398438 262.65625 328.78125 262.9375 329.0625 C 263.21875 329.34375 263.601563 329.5 264 329.5 C 264.398438 329.5 264.78125 329.34375 265.0625 329.0625 C 265.34375 328.78125 265.5 328.398438 265.5 328 Z M 265.5 328 "/>
<path style=" stroke:none;fill-rule:evenodd;fill:rgb(99.998474%,0%,0%);fill-opacity:1;" d="M 112.5 316 C 112.5 315.601563 112.34375 315.21875 112.0625 314.9375 C 111.78125 314.65625 111.398438 314.5 111 314.5 C 110.601563 314.5 110.21875 314.65625 109.9375 314.9375 C 109.65625 315.21875 109.5 315.601563 109.5 316 C 109.5 316.398438 109.65625 316.78125 109.9375 317.0625 C 110.21875 317.34375 110.601563 317.5 111 317.5 C 111.398438 317.5 111.78125 317.34375 112.0625 317.0625 C 112.34375 316.78125 112.5 316.398438 112.5 316 Z M 112.5 316 "/>
<path style=" stroke:none;fill-rule:evenodd;fill:rgb(99.998474%,0%,0%);fill-opacity:1;" d="M 288.5 290 C 288.5 289.601563 288.34375 289.21875 288.0625 288.9375 C 287.78125 288.65625 287.398438 288.5 287 288.5 C 286.601563 288.5 286.21875 288.65625 285.9375 288.9375 C 285.65625 289.21875 285.5 289.601563 285.5 290 C 285.5 290.398438 285.65625 290.78125 285.9375 291.0625 C 286.21875 291.34375 286.601563 291.5 287 291.5 C 287.398438 291.5 287.78125 291.34375 288.0625 291.0625 C 288.34375 290.78125 288.5 290.398438 288.5 290 Z M 288.5 290 "/>
<path style=" stroke:none;fill-rule:evenodd;fill:rgb(99.998474%,0%,0%);fill-opacity:1;" d="M 285.5 288 C 285.5 287.601563 285.34375 287.21875 285.0625 286.9375 C 284.78125 286.65625 284.398438 286.5 284 286.5 C 283.601563 286.5 283.21875 286.65625 282.9375 286.9375 C 282.65625 287.21875 282.5 287.601563 282.5 288 C 282.5 288.398438 282.65625 288.78125 282.9375 289.0625 C 283.21875 289.34375 283.601563 289.5 284 289.5 C 284.398438 289.5 284.78125 289.34375 285.0625 289.0625 C 285.34375 288.78125 285.5 288.398438 285.5 288 Z M 285.5 288 "/>
<path style=" stroke:none;fill-rule:evenodd;fill:rgb(99.998474%,0%,0%);fill-opacity:1;" d="M 286.5 287 C 286.5 286.601563 286.34375 286.21875 286.0625 285.9375 C 285.78125 285.65625 285.398438 285.5 285 285.5 C 284.601563 285.5 284.21875 285.65625 283.9375 285.9375 C 283.65625 286.21875 283.5 286.601563 283.5 287 C 283.5 287.398438 283.65625 287.78125 283.9375 288.0625 C 284.21875 288.34375 284.601563 288.5 285 288.5 C 285.398438 288.5 285.78125 288.34375 286.0625 288.0625 C 286.34375 287.78125 286.5 287.398438 286.5 287 Z M 286.5 287 "/>
<path style=" stroke:none;fill-rule:evenodd;fill:rgb(99.998474%,0%,0%);fill-opacity:1;" d="M 185.5 248 C 185.5 247.601563 185.34375 247.21875 185.0625 246.9375 C 184.78125 246.65625 184.398438 246.5 184 246.5 C 183.601563 246.5 183.21875 246.65625 182.9375 246.9375 C 182.65625 247.21875 182.5 247.601563 182.5 248 C 182.5 248.398438 182.65625 248.78125 182.9375 249.0625 C 183.21875 249.34375 183.601563 249.5 184 249.5 C 184.398438 249.5 184.78125 249.34375 185.0625 249.0625 C 185.34375 248.78125 185.5 248.398438 185.5 248 Z M 185.5 248 "/>
<path style=" stroke:none;fill-rule:evenodd;fill:rgb(99.998474%,0%,0%);fill-opacity:1;" d="M 210.5 231 C 210.5 230.601563 210.34375 230.21875 210.0625 229.9375 C 209.78125 229.65625 209.398438 229.5 209 229.5 C 208.601563 229.5 208.21875 229.65625 207.9375 229.9375 C 207.65625 230.21875 207.5 230.601563 207.5 231 C 207.5 231.398438 207.65625 231.78125 207.9375 232.0625 C 208.21875 232.34375 208.601563 232.5 209 232.5 C 209.398438 232.5 209.78125 232.34375 210.0625 232.0625 C 210.34375 231.78125 210.5 231.398438 210.5 231 Z M 210.5 231 "/>
<path style=" stroke:none;fill-rule:evenodd;fill:rgb(99.998474%,0%,0%);fill-opacity:1;" d="M 97.5 215 C 97.5 214.601563 97.34375 214.21875 97.0625 213.9375 C 96.78125 213.65625 96.398438 213.5 96 213.5 C 95.601563 213.5 95.21875 213.65625 94.9375 213.9375 C 94.65625 214.21875 94.5 214.601563 94.5 215 C 94.5 215.398438 94.65625 215.78125 94.9375 216.0625 C 95.21875 216.34375 95.601563 216.5 96 216.5 C 96.398438 216.5 96.78125 216.34375 97.0625 216.0625 C 97.34375 215.78125 97.5 215.398438 97.5 215 Z M 97.5 215 "/>
<path style=" stroke:none;fill-rule:evenodd;fill:rgb(99.998474%,0%,0%);fill-opacity:1;" d="M 302.5 210 C 302.5 209.601563 302.34375 209.21875 302.0625 208.9375 C 301.78125 208.65625 301.398438 208.5 301 208.5 C 300.601563 208.5 300.21875 208.65625 299.9375 208.9375 C 299.65625 209.21875 299.5 209.601563 299.5 210 C 299.5 210.398438 299.65625 210.78125 299.9375 211.0625 C 300.21875 211.34375 300.601563 211.5 301 211.5 C 301.398438 211.5 301.78125 211.34375 302.0625 211.0625 C 302.34375 210.78125 302.5 210.398438 302.5 210 Z M 302.5 210 "/>
<path style=" stroke:none;fill-rule:evenodd;fill:rgb(99.998474%,0%,0%);fill-opacity:1;" d="M 224.5 206 C 224.5 205.601563 224.34375 205.21875 224.0625 204.9375 C 223.78125 204.65625 223.398438 204.5 223 204.5 C 222.601563 204.5 222.21875 204.65625 221.9375 204.9375 C 221.65625 205.21875 221.5 205.601563 221.5 206 C 221.5 206.398438 221.65625 206.78125 221.9375 207.0625 C 222.21875 207.34375 222.601563 207.5 223 207.5 C 223.398438 207.5 223.78125 207.34375 224.0625 207.0625 C 224.34375 206.78125 224.5 206.398438 224.5 206 Z M 224.5 206 "/>
<path style=" stroke:none;fill-rule:evenodd;fill:rgb(99.998474%,0%,0%);fill-opacity:1;" d="M 223.5 205 C 223.5 204.601563 223.34375 204.21875 223.0625 203.9375 C 222.78125 203.65625 222.398438 203.5 222 203.5 C 221.601563 203.5 221.21875 203.65625 220.9375 203.9375 C 220.65625 204.21875 220.5 204.601563 220.5 205 C 220.5 205.398438 220.65625 205.78125 220.9375 206.0625 C 221.21875 206.34375 221.601563 206.5 222 206.5 C 222.398438 206.5 222.78125 206.34375 223.0625 206.0625 C 223.34375 205.78125 223.5 205.398438 223.5 205 Z M 223.5 205 "/>
<path style=" stroke:none;fill-rule:evenodd;fill:rgb(99.998474%,0%,0%);fill-opacity:1;" d="M 9.5 186 C 9.5 185.601563 9.34375 185.21875 9.0625 184.9375 C 8.78125 184.65625 8.398438 184.5 8 184.5 C 7.601563 184.5 7.21875 184.65625 6.9375 184.9375 C 6.65625 185.21875 6.5 185.601563 6.5 186 C 6.5 186.398438 6.65625 186.78125 6.9375 187.0625 C 7.21875 187.34375 7.601563 187.5 8 187.5 C 8.398438 187.5 8.78125 187.34375 9.0625 187.0625 C 9.34375 186.78125 9.5 186.398438 9.5 186 Z M 9.5 186 "/>
<path style=" stroke:none;fill-rule:evenodd;fill:rgb(99.998474%,0%,0%);fill-opacity:1;" d="M 195.5 180 C 195.5 179.601563 195.34375 179.21875 195.0625 178.9375 C 194.78125 178.65625 194.398438 178.5 194 178.5 C 193.601563 178.5 193.21875 178.65625 192.9375 178.9375 C 192.65625 179.21875 192.5 179.601563 192.5 180 C 192.5 180.398438 192.65625 180.78125 192.9375 181.0625 C 193.21875 181.34375 193.601563 181.5 194 181.5 C 194.398438 181.5 194.78125 181.34375 195.0625 181.0625 C 195.34375 180.78125 195.5 180.398438 195.5 180 Z M 195.5 180 "/>
<path style=" stroke:none;fill-rule:evenodd;fill:rgb(99.998474%,0%,0%);fill-opacity:1;" d="M 312.5 179 C 312.5 178.601563 312.34375 178.21875 312.0625 177.9375 C 311.78125 177.65625 311.398438 177.5 311 177.5 C 310.601563 177.5 310.21875 177.65625 309.9375 177.9375 C 309.65625 178.21875 309.5 178.601563 309.5 179 C 309.5 179.398438 309.65625 179.78125 309.9375 180.0625 C 310.21875 180.34375 310.601563 180.5 311 180.5 C 311.398438 180.5 311.78125 180.34375 312.0625 180.0625 C 312.34375 179.78125 312.5 179.398438 312.5 179 Z M 312.5 179 "/>
<path style=" stroke:none;fill-rule:evenodd;fill:rgb(99.998474%,0%,0%);fill-opacity:1;" d="M 140.5 166 C 140.5 165.601563 140.34375 165.21875 140.0625 164.9375 C 139.78125 164.65625 139.398438 164.5 139 164.5 C 138.601563 164.5 138.21875 164.65625 137.9375 164.9375 C 137.65625 165.21875 137.5 165.601563 137.5 166 C 137.5 166.398438 137.65625 166.78125 137.9375 167.0625 C 138.21875 167.34375 138.601563 167.5 139 167.5 C 139.398438 167.5 139.78125 167.34375 140.0625 167.0625 C 140.34375 166.78125 140.5 166.398438 140.5 166 Z M 140.5 166 "/>
<path style=" stroke:none;fill-rule:evenodd;fill:rgb(99.998474%,0%,0%);fill-opacity:1;" d="M 76.5 139 C 76.5 138.601563 76.34375 138.21875 76.0625 137.9375 C 75.78125 137.65625 75.398438 137.5 75 137.5 C 74.601563 137.5 74.21875 137.65625 73.9375 137.9375 C 73.65625 138.21875 73.5 138.601563 73.5 139 C 73.5 139.398438 73.65625 139.78125 73.9375 140.0625 C 74.21875 140.34375 74.601563 140.5 75 140.5 C 75.398438 140.5 75.78125 140.34375 76.0625 140.0625 C 76.34375 139.78125 76.5 139.398438 76.5 139 Z M 76.5 139 "/>
<path style=" stroke:none;fill-rule:evenodd;fill:rgb(99.998474%,0%,0%);fill-opacity:1;" d="M 221.5 127 C 221.5 126.601563 221.34375 126.21875 221.0625 125.9375 C 220.78125 125.65625 220.398438 125.5 220 125.5 C 219.601563 125.5 219.21875 125.65625 218.9375 125.9375 C 218.65625 126.21875 218.5 126.601563 218.5 127 C 218.5 127.398438 218.65625 127.78125 218.9375 128.0625 C 219.21875 128.34375 219.601563 128.5 220 128.5 C 220.398438 128.5 220.78125 128.34375 221.0625 128.0625 C 221.34375 127.78125 221.5 127.398438 221.5 127 Z M 221.5 127 "/>
<path style=" stroke:none;fill-rule:evenodd;fill:rgb(99.998474%,0%,0%);fill-opacity:1;" d="M 220.5 126 C 220.5 125.601563 220.34375 125.21875 220.0625 124.9375 C 219.78125 124.65625 219.398438 124.5 219 124.5 C 218.601563 124.5 218.21875 124.65625 217.9375 124.9375 C 217.65625 125.21875 217.5 125.601563 217.5 126 C 217.5 126.398438 217.65625 126.78125 217.9375 127.0625 C 218.21875 127.34375 218.601563 127.5 219 127.5 C 219.398438 127.5 219.78125 127.34375 220.0625 127.0625 C 220.34375 126.78125 220.5 126.398438 220.5 126 Z M 220.5 126 "/>
<path style=" stroke:none;fill-rule:evenodd;fill:rgb(99.998474%,0%,0%);fill-opacity:1;" d="M 119.5 125 C 119.5 124.601563 119.34375 124.21875 119.0625 123.9375 C 118.78125 123.65625 118.398438 123.5 118 123.5 C 117.601563 123.5 117.21875 123.65625 116.9375 123.9375 C 116.65625 124.21875 116.5 124.601563 116.5 125 C 116.5 125.398438 116.65625 125.78125 116.9375 126.0625 C 117.21875 126.34375 117.601563 126.5 118 126.5 C 118.398438 126.5 118.78125 126.34375 119.0625 126.0625 C 119.34375 125.78125 119.5 125.398438 119.5 125 Z M 119.5 125 "/>
<path style=" stroke:none;fill-rule:evenodd;fill:rgb(99.998474%,0%,0%);fill-opacity:1;" d="M 106.5 120 C 106.5 119.601563 106.34375 119.21875 106.0625 118.9375 C 105.78125 118.65625 105.398438 118.5 105 118.5 C 104.601563 118.5 104.21875 118.65625 103.9375 118.9375 C 103.65625 119.21875 103.5 119.601563 103.5 120 C 103.5 120.398438 103.65625 120.78125 103.9375 121.0625 C 104.21875 121.34375 104.601563 121.5 105 121.5 C 105.398438 121.5 105.78125 121.34375 106.0625 121.0625 C 106.34375 120.78125 106.5 120.398438 106.5 120 Z M 106.5 120 "/>
<path style=" stroke:none;fill-rule:evenodd;fill:rgb(99.998474%,0%,0%);fill-opacity:1;" d="M 59.5 118 C 59.5 117.601563 59.34375 117.21875 59.0625 116.9375 C 58.78125 116.65625 58.398438 116.5 58 116.5 C 57.601563 116.5 57.21875 116.65625 56.9375 116.9375 C 56.65625 117.21875 56.5 117.601563 56.5 118 C 56.5 118.398438 56.65625 118.78125 56.9375 119.0625 C 57.21875 119.34375 57.601563 119.5 58 119.5 C 58.398438 119.5 58.78125 119.34375 59.0625 119.0625 C 59.34375 118.78125 59.5 118.398438 59.5 118 Z M 59.5 118 "/>
<path style=" stroke:none;fill-rule:evenodd;fill:rgb(99.998474%,0%,0%);fill-opacity:1;" d="M 188.5 117 C 188.5 116.601563 188.34375 116.21875 188.0625 115.9375 C 187.78125 115.65625 187.398438 115.5 187 115.5 C 186.601563 115.5 186.21875 115.65625 185.9375 115.9375 C 185.65625 116.21875 185.5 116.601563 185.5 117 C 185.5 117.398438 185.65625 117.78125 185.9375 118.0625 C 186.21875 118.34375 186.601563 118.5 187 118.5 C 187.398438 118.5 187.78125 118.34375 188.0625 118.0625 C 188.34375 117.78125 188.5 117.398438 188.5 117 Z M 188.5 117 "/>
<path style=" stroke:none;fill-rule:evenodd;fill:rgb(99.998474%,0%,0%);fill-opacity:1;" d="M 121.5 86 C 121.5 85.601563 121.34375 85.21875 121.0625 84.9375 C 120.78125 84.65625 120.398438 84.5 120 84.5 C 119.601563 84.5 119.21875 84.65625 118.9375 84.9375 C 118.65625 85.21875 118.5 85.601563 118.5 86 C 118.5 86.398438 118.65625 86.78125 118.9375 87.0625 C 119.21875 87.34375 119.601563 87.5 120 87.5 C 120.398438 87.5 120.78125 87.34375 121.0625 87.0625 C 121.34375 86.78125 121.5 86.398438 121.5 86 Z M 121.5 86 "/>
<path style=" stroke:none;fill-rule:evenodd;fill:rgb(99.998474%,0%,0%);fill-opacity:1;" d="M 118.5 85 C 118.5 84.601563 118.34375 84.21875 118.0625 83.9375 C 117.78125 83.65625 117.398438 83.5 117 83.5 C 116.601563 83.5 116.21875 83.65625 115.9375 83.9375 C 115.65625 84.21875 115.5 84.601563 115.5 85 C 115.5 85.398438 115.65625 85.78125 115.9375 86.0625 C 116.21875 86.34375 116.601563 86.5 117 86.5 C 117.398438 86.5 117.78125 86.34375 118.0625 86.0625 C 118.34375 85.78125 118.5 85.398438 118.5 85 Z M 118.5 85 "/>
<path style=" stroke:none;fill-rule:evenodd;fill:rgb(99.998474%,0%,0%);fill-opacity:1;" d="M 102.5 64 C 102.5 63.601563 102.34375 63.21875 102.0625 62.9375 C 101.78125 62.65625 101.398438 62.5 101 62.5 C 100.601563 62.5 100.21875 62.65625 99.9375 62.9375 C 99.65625 63.21875 99.5 63.601563 99.5 64 C 99.5 64.398438 99.65625 64.78125 99.9375 65.0625 C 100.21875 65.34375 100.601563 65.5 101 65.5 C 101.398438 65.5 101.78125 65.34375 102.0625 65.0625 C 102.34375 64.78125 102.5 64.398438 102.5 64 Z M 102.5 64 "/>
<path style=" stroke:none;fill-rule:evenodd;fill:rgb(99.998474%,0%,0%);fill-opacity:1;" d="M 120.5 44 C 120.5 43.601563 120.34375 43.21875 120.0625 42.9375 C 119.78125 42.65625 119.398438 42.5 119 42.5 C 118.601563 42.5 118.21875 42.65625 117.9375 42.9375 C 117.65625 43.21875 117.5 43.601563 117.5 44 C 117.5 44.398438 117.65625 44.78125 117.9375 45.0625 C 118.21875 45.34375 118.601563 45.5 119 45.5 C 119.398438 45.5 119.78125 45.34375 120.0625 45.0625 C 120.34375 44.78125 120.5 44.398438 120.5 44 Z M 120.5 44 "/>
<path style=" stroke:none;fill-rule:evenodd;fill:rgb(99.998474%,0%,0%);fill-opacity:1;" d="M 215.5 29 C 215.5 28.601563 215.34375 28.21875 215.0625 27.9375 C 214.78125 27.65625 214.398438 27.5 214 27.5 C 213.601563 27.5 213.21875 27.65625 212.9375 27.9375 C 212.65625 28.21875 212.5 28.601563 212.5 29 C 212.5 29.398438 212.65625 29.78125 212.9375 30.0625 C 213.21875 30.34375 213.601563 30.5 214 30.5 C 214.398438 30.5 214.78125 30.34375 215.0625 30.0625 C 215.34375 29.78125 215.5 29.398438 215.5 29 Z M 215.5 29 "/>
<path style=" stroke:none;fill-rule:evenodd;fill:rgb(99.998474%,0%,0%);fill-opacity:1;" d="M 258.5 15 C 258.5 14.601563 258.34375 14.21875 258.0625 13.9375 C 257.78125 13.65625 257.398438 13.5 257 13.5 C 256.601563 13.5 256.21875 13.65625 255.9375 13.9375 C 255.65625 14.21875 255.5 14.601563 255.5 15 C 255.5 15.398438 255.65625 15.78125 255.9375 16.0625 C 256.21875 16.34375 256.601563 16.5 257 16.5 C 257.398438 16.5 257.78125 16.34375 258.0625 16.0625 C 258.34375 15.78125 258.5 15.398438 258.5 15 Z M 258.5 15 "/>
<path style=" stroke:none;fill-rule:evenodd;fill:rgb(99.998474%,0%,0%);fill-opacity:1;" d="M 261.5 13 C 261.5 12.601563 261.34375 12.21875 261.0625 11.9375 C 260.78125 11.65625 260.398438 11.5 260 11.5 C 259.601563 11.5 259.21875 11.65625 258.9375 11.9375 C 258.65625 12.21875 258.5 12.601563 258.5 13 C 258.5 13.398438 258.65625 13.78125 258.9375 14.0625 C 259.21875 14.34375 259.601563 14.5 260 14.5 C 260.398438 14.5 260.78125 14.34375 261.0625 14.0625 C 261.34375 13.78125 261.5 13.398438 261.5 13 Z M 261.5 13 "/>
<path style=" stroke:none;fill-rule:evenodd;fill:rgb(99.998474%,0%,0%);fill-opacity:1;" d="M 264.5 13 C 264.5 12.601563 264.34375 12.21875 264.0625 11.9375 C 263.78125 11.65625 263.398438 11.5 263 11.5 C 262.601563 11.5 262.21875 11.65625 261.9375 11.9375 C 261.65625 12.21875 261.5 12.601563 261.5 13 C 261.5 13.398438 261.65625 13.78125 261.9375 14.0625 C 262.21875 14.34375 262.601563 14.5 263 14.5 C 263.398438 14.5 263.78125 14.34375 264.0625 14.0625 C 264.34375 13.78125 264.5 13.398438 264.5 13 Z M 264.5 13 "/>
<path style=" stroke:none;fill-rule:evenodd;fill:rgb(99.998474%,0%,0%);fill-opacity:1;" d="M 261.5 13 C 261.5 12.601563 261.34375 12.21875 261.0625 11.9375 C 260.78125 11.65625 260.398438 11.5 260 11.5 C 259.601563 11.5 259.21875 11.65625 258.9375 11.9375 C 258.65625 12.21875 258.5 12.601563 258.5 13 C 258.5 13.398438 258.65625 13.78125 258.9375 14.0625 C 259.21875 14.34375 259.601563 14.5 260 14.5 C 260.398438 14.5 260.78125 14.34375 261.0625 14.0625 C 261.34375 13.78125 261.5 13.398438 261.5 13 Z M 261.5 13 "/>
<path style=" stroke:none;fill-rule:evenodd;fill:rgb(99.998474%,0%,0%);fill-opacity:1;" d="M 260.5 13 C 260.5 12.601563 260.34375 12.21875 260.0625 11.9375 C 259.78125 11.65625 259.398438 11.5 259 11.5 C 258.601563 11.5 258.21875 11.65625 257.9375 11.9375 C 257.65625 12.21875 257.5 12.601563 257.5 13 C 257.5 13.398438 257.65625 13.78125 257.9375 14.0625 C 258.21875 14.34375 258.601563 14.5 259 14.5 C 259.398438 14.5 259.78125 14.34375 260.0625 14.0625 C 260.34375 13.78125 260.5 13.398438 260.5 13 Z M 260.5 13 "/>
</g>
</svg>
