<?xml version="1.0" encoding="UTF-8"?>
<svg xmlns="http://www.w3.org/2000/svg" xmlns:xlink="http://www.w3.org/1999/xlink" width="351pt" height="327pt" viewBox="0 0 351 327" version="1.1">
<g id="surface683">
<path style="fill-rule:nonzero;fill:rgb(84.999084%,84.999084%,84.999084%);fill-opacity:0.6;stroke-width:1;stroke-linecap:square;stroke-linejoin:miter;stroke:rgb(50%,50%,50%);stroke-opacity:1;stroke-miterlimit:3.25;" d="M 179.246094 183.117188 L 206.828125 204.722656 L 209.066406 199.535156 Z M 179.246094 183.117188 " transform="matrix(1,0,0,1,-74,-13)"/>
<path style="fill-rule:nonzero;fill:rgb(84.999084%,84.999084%,84.999084%);fill-opacity:0.6;stroke-width:1;stroke-linecap:square;stroke-linejoin:miter;stroke:rgb(50%,50%,50%);stroke-opacity:1;stroke-miterlimit:3.25;" d="M 209.066406 199.535156 L 304.832031 264.863281 L 254.957031 123.933594 Z M 209.066406 199.535156 " transform="matrix(1,0,0,1,-74,-13)"/>
<path style="fill-rule:nonzero;fill:rgb(84.999084%,84.999084%,84.999084%);fill-opacity:0.6;stroke-width:1;stroke-linecap:square;stroke-linejoin:miter;stroke:rgb(50%,50%,50%);stroke-opacity:1;stroke-miterlimit:3.25;" d="M 304.832031 264.863281 L 209.066406 199.535156 L 206.828125 204.722656 Z M 304.832031 264.863281 " transform="matrix(1,0,0,1,-74,-13)"/>
<path style="fill-rule:nonzero;fill:rgb(84.999084%,84.999084%,84.999084%);fill-opacity:0.6;stroke-width:1;stroke-linecap:square;stroke-linejoin:miter;stroke:rgb(50%,50%,50%);stroke-opacity:1;stroke-miterlimit:3.25;" d="M 206.828125 204.722656 L 357.796875 318.617188 L 304.832031 264.863281 Z M 206.828125 204.722656 " transform="matrix(1,0,0,1,-74,-13)"/>
<path style="fill-rule:nonzero;fill:rgb(84.999084%,84.999084%,84.999084%);fill-opacity:0.6;stroke-width:1;stroke-linecap:square;stroke-linejoin:miter;stroke:rgb(50%,50%,50%);stroke-opacity:1;stroke-miterlimit:3.25;" d="M 179.246094 183.117188 L 209.066406 199.535156 L 254.957031 123.933594 Z M 179.246094 183.117188 " transform="matrix(1,0,0,1,-74,-13)"/>
<path style="fill-rule:nonzero;fill:rgb(84.999084%,84.999084%,84.999084%);fill-opacity:0.6;stroke-width:1;stroke-linecap:square;stroke-linejoin:miter;stroke:rgb(50%,50%,50%);stroke-opacity:1;stroke-miterlimit:3.25;" d="M 83.617188 92.484375 L 86.347656 99.105469 L 254.957031 123.933594 Z M 83.617188 92.484375 " transform="matrix(1,0,0,1,-74,-13)"/>
<path style="fill-rule:nonzero;fill:rgb(84.999084%,84.999084%,84.999084%);fill-opacity:0.6;stroke-width:1;stroke-linecap:square;stroke-linejoin:miter;stroke:rgb(50%,50%,50%);stroke-opacity:1;stroke-miterlimit:3.25;" d="M 254.957031 123.933594 L 304.0625 56.171875 L 83.617188 92.484375 Z M 254.957031 123.933594 " transform="matrix(1,0,0,1,-74,-13)"/>
<path style="fill-rule:nonzero;fill:rgb(84.999084%,84.999084%,84.999084%);fill-opacity:0.6;stroke-width:1;stroke-linecap:square;stroke-linejoin:miter;stroke:rgb(50%,50%,50%);stroke-opacity:1;stroke-miterlimit:3.25;" d="M 327.039063 54.515625 L 304.0625 56.171875 L 254.957031 123.933594 Z M 327.039063 54.515625 " transform="matrix(1,0,0,1,-74,-13)"/>
<path style="fill-rule:nonzero;fill:rgb(84.999084%,84.999084%,84.999084%);fill-opacity:0.6;stroke-width:1;stroke-linecap:square;stroke-linejoin:miter;stroke:rgb(50%,50%,50%);stroke-opacity:1;stroke-miterlimit:3.25;" d="M 86.347656 99.105469 L 179.246094 183.117188 L 254.957031 123.933594 Z M 86.347656 99.105469 " transform="matrix(1,0,0,1,-74,-13)"/>
<path style="fill-rule:nonzero;fill:rgb(84.999084%,84.999084%,84.999084%);fill-opacity:0.6;stroke-width:1;stroke-linecap:square;stroke-linejoin:miter;stroke:rgb(50%,50%,50%);stroke-opacity:1;stroke-miterlimit:3.25;" d="M 254.957031 123.933594 L 304.832031 264.863281 L 393.441406 186.296875 Z M 254.957031 123.933594 " transform="matrix(1,0,0,1,-74,-13)"/>
<path style="fill-rule:nonzero;fill:rgb(84.999084%,84.999084%,84.999084%);fill-opacity:0.6;stroke-width:1;stroke-linecap:square;stroke-linejoin:miter;stroke:rgb(50%,50%,50%);stroke-opacity:1;stroke-miterlimit:3.25;" d="M 357.796875 318.617188 L 360.621094 322.082031 L 422.957031 269.199219 Z M 357.796875 318.617188 " transform="matrix(1,0,0,1,-74,-13)"/>
<path style="fill-rule:nonzero;fill:rgb(84.999084%,84.999084%,84.999084%);fill-opacity:0.6;stroke-width:1;stroke-linecap:square;stroke-linejoin:miter;stroke:rgb(50%,50%,50%);stroke-opacity:1;stroke-miterlimit:3.25;" d="M 360.621094 322.082031 L 357.796875 318.617188 L 206.828125 204.722656 Z M 360.621094 322.082031 " transform="matrix(1,0,0,1,-74,-13)"/>
<path style="fill-rule:nonzero;fill:rgb(84.999084%,84.999084%,84.999084%);fill-opacity:0.6;stroke-width:1;stroke-linecap:square;stroke-linejoin:miter;stroke:rgb(50%,50%,50%);stroke-opacity:1;stroke-miterlimit:3.25;" d="M 399.660156 338.445313 L 422.957031 269.199219 L 360.621094 322.082031 Z M 399.660156 338.445313 " transform="matrix(1,0,0,1,-74,-13)"/>
<path style="fill-rule:nonzero;fill:rgb(84.999084%,84.999084%,84.999084%);fill-opacity:0.6;stroke-width:1;stroke-linecap:square;stroke-linejoin:miter;stroke:rgb(50%,50%,50%);stroke-opacity:1;stroke-miterlimit:3.25;" d="M 357.796875 318.617188 L 422.957031 269.199219 L 420.785156 262.925781 Z M 357.796875 318.617188 " transform="matrix(1,0,0,1,-74,-13)"/>
<path style="fill-rule:nonzero;fill:rgb(84.999084%,84.999084%,84.999084%);fill-opacity:0.6;stroke-width:1;stroke-linecap:square;stroke-linejoin:miter;stroke:rgb(50%,50%,50%);stroke-opacity:1;stroke-miterlimit:3.25;" d="M 327.039063 54.515625 L 393.441406 186.296875 L 405.289063 170.421875 Z M 327.039063 54.515625 " transform="matrix(1,0,0,1,-74,-13)"/>
<path style="fill-rule:nonzero;fill:rgb(84.999084%,84.999084%,84.999084%);fill-opacity:0.6;stroke-width:1;stroke-linecap:square;stroke-linejoin:miter;stroke:rgb(50%,50%,50%);stroke-opacity:1;stroke-miterlimit:3.25;" d="M 254.957031 123.933594 L 393.441406 186.296875 L 327.039063 54.515625 Z M 254.957031 123.933594 " transform="matrix(1,0,0,1,-74,-13)"/>
<path style="fill-rule:nonzero;fill:rgb(84.999084%,84.999084%,84.999084%);fill-opacity:0.6;stroke-width:1;stroke-linecap:square;stroke-linejoin:miter;stroke:rgb(50%,50%,50%);stroke-opacity:1;stroke-miterlimit:3.25;" d="M 393.441406 186.296875 L 407.394531 174.8125 L 405.289063 170.421875 Z M 393.441406 186.296875 " transform="matrix(1,0,0,1,-74,-13)"/>
<path style="fill-rule:nonzero;fill:rgb(84.999084%,84.999084%,84.999084%);fill-opacity:0.6;stroke-width:1;stroke-linecap:square;stroke-linejoin:miter;stroke:rgb(50%,50%,50%);stroke-opacity:1;stroke-miterlimit:3.25;" d="M 407.394531 174.8125 L 393.441406 186.296875 L 420.785156 262.925781 Z M 407.394531 174.8125 " transform="matrix(1,0,0,1,-74,-13)"/>
<path style="fill-rule:nonzero;fill:rgb(84.999084%,84.999084%,84.999084%);fill-opacity:0.6;stroke-width:1;stroke-linecap:square;stroke-linejoin:miter;stroke:rgb(50%,50%,50%);stroke-opacity:1;stroke-miterlimit:3.25;" d="M 407.394531 174.8125 L 420.785156 262.925781 L 422.957031 269.199219 Z M 407.394531 174.8125 " transform="matrix(1,0,0,1,-74,-13)"/>
<path style="fill-rule:nonzero;fill:rgb(84.999084%,84.999084%,84.999084%);fill-opacity:0.6;stroke-width:1;stroke-linecap:square;stroke-linejoin:miter;stroke:rgb(50%,50%,50%);stroke-opacity:1;stroke-miterlimit:3.25;" d="M 420.785156 262.925781 L 393.441406 186.296875 L 304.832031 264.863281 Z M 420.785156 262.925781 " transform="matrix(1,0,0,1,-74,-13)"/>
<path style="fill-rule:nonzero;fill:rgb(84.999084%,84.999084%,84.999084%);fill-opacity:0.6;stroke-width:1;stroke-linecap:square;stroke-linejoin:miter;stroke:rgb(50%,50%,50%);stroke-opacity:1;stroke-miterlimit:3.25;" d="M 304.832031 264.863281 L 357.796875 318.617188 L 420.785156 262.925781 Z M 304.832031 264.863281 " transform="matrix(1,0,0,1,-74,-13)"/>
<path style=" stroke:none;fill-rule:evenodd;fill:rgb(99.998474%,0%,0%);fill-opacity:0.6;" d="M 327.789063 325 C 327.789063 324.523438 327.601563 324.070313 327.265625 323.734375 C 326.929688 323.398438 326.476563 323.210938 326 323.210938 C 325.523438 323.210938 325.070313 323.398438 324.734375 323.734375 C 324.398438 324.070313 324.210938 324.523438 324.210938 325 C 324.210938 325.476563 324.398438 325.929688 324.734375 326.265625 C 325.070313 326.601563 325.523438 326.789063 326 326.789063 C 326.476563 326.789063 326.929688 326.601563 327.265625 326.265625 C 327.601563 325.929688 327.789063 325.476563 327.789063 325 Z M 327.789063 325 "/>
<path style=" stroke:none;fill-rule:evenodd;fill:rgb(99.998474%,0%,0%);fill-opacity:0.6;" d="M 288.789063 309 C 288.789063 308.523438 288.601563 308.070313 288.265625 307.734375 C 287.929688 307.398438 287.476563 307.210938 287 307.210938 C 286.523438 307.210938 286.070313 307.398438 285.734375 307.734375 C 285.398438 308.070313 285.210938 308.523438 285.210938 309 C 285.210938 309.476563 285.398438 309.929688 285.734375 310.265625 C 286.070313 310.601563 286.523438 310.789063 287 310.789063 C 287.476563 310.789063 287.929688 310.601563 288.265625 310.265625 C 288.601563 309.929688 288.789063 309.476563 288.789063 309 Z M 288.789063 309 "/>
<path style=" stroke:none;fill-rule:evenodd;fill:rgb(99.998474%,0%,0%);fill-opacity:0.6;" d="M 285.789063 306 C 285.789063 305.523438 285.601563 305.070313 285.265625 304.734375 C 284.929688 304.398438 284.476563 304.210938 284 304.210938 C 283.523438 304.210938 283.070313 304.398438 282.734375 304.734375 C 282.398438 305.070313 282.210938 305.523438 282.210938 306 C 282.210938 306.476563 282.398438 306.929688 282.734375 307.265625 C 283.070313 307.601563 283.523438 307.789063 284 307.789063 C 284.476563 307.789063 284.929688 307.601563 285.265625 307.265625 C 285.601563 306.929688 285.789063 306.476563 285.789063 306 Z M 285.789063 306 "/>
<path style=" stroke:none;fill-rule:evenodd;fill:rgb(99.998474%,0%,0%);fill-opacity:0.6;" d="M 350.789063 256 C 350.789063 255.523438 350.601563 255.070313 350.265625 254.734375 C 349.929688 254.398438 349.476563 254.210938 349 254.210938 C 348.523438 254.210938 348.070313 254.398438 347.734375 254.734375 C 347.398438 255.070313 347.210938 255.523438 347.210938 256 C 347.210938 256.476563 347.398438 256.929688 347.734375 257.265625 C 348.070313 257.601563 348.523438 257.789063 349 257.789063 C 349.476563 257.789063 349.929688 257.601563 350.265625 257.265625 C 350.601563 256.929688 350.789063 256.476563 350.789063 256 Z M 350.789063 256 "/>
<path style=" stroke:none;fill-rule:evenodd;fill:rgb(99.998474%,0%,0%);fill-opacity:0.6;" d="M 232.789063 252 C 232.789063 251.523438 232.601563 251.070313 232.265625 250.734375 C 231.929688 250.398438 231.476563 250.210938 231 250.210938 C 230.523438 250.210938 230.070313 250.398438 229.734375 250.734375 C 229.398438 251.070313 229.210938 251.523438 229.210938 252 C 229.210938 252.476563 229.398438 252.929688 229.734375 253.265625 C 230.070313 253.601563 230.523438 253.789063 231 253.789063 C 231.476563 253.789063 231.929688 253.601563 232.265625 253.265625 C 232.601563 252.929688 232.789063 252.476563 232.789063 252 Z M 232.789063 252 "/>
<path style=" stroke:none;fill-rule:evenodd;fill:rgb(99.998474%,0%,0%);fill-opacity:0.6;" d="M 348.789063 250 C 348.789063 249.523438 348.601563 249.070313 348.265625 248.734375 C 347.929688 248.398438 347.476563 248.210938 347 248.210938 C 346.523438 248.210938 346.070313 248.398438 345.734375 248.734375 C 345.398438 249.070313 345.210938 249.523438 345.210938 250 C 345.210938 250.476563 345.398438 250.929688 345.734375 251.265625 C 346.070313 251.601563 346.523438 251.789063 347 251.789063 C 347.476563 251.789063 347.929688 251.601563 348.265625 251.265625 C 348.601563 250.929688 348.789063 250.476563 348.789063 250 Z M 348.789063 250 "/>
<path style=" stroke:none;fill-rule:evenodd;fill:rgb(99.998474%,0%,0%);fill-opacity:0.6;" d="M 134.789063 192 C 134.789063 191.523438 134.601563 191.070313 134.265625 190.734375 C 133.929688 190.398438 133.476563 190.210938 133 190.210938 C 132.523438 190.210938 132.070313 190.398438 131.734375 190.734375 C 131.398438 191.070313 131.210938 191.523438 131.210938 192 C 131.210938 192.476563 131.398438 192.929688 131.734375 193.265625 C 132.070313 193.601563 132.523438 193.789063 133 193.789063 C 133.476563 193.789063 133.929688 193.601563 134.265625 193.265625 C 134.601563 192.929688 134.789063 192.476563 134.789063 192 Z M 134.789063 192 "/>
<path style=" stroke:none;fill-rule:evenodd;fill:rgb(99.998474%,0%,0%);fill-opacity:0.6;" d="M 136.789063 187 C 136.789063 186.523438 136.601563 186.070313 136.265625 185.734375 C 135.929688 185.398438 135.476563 185.210938 135 185.210938 C 134.523438 185.210938 134.070313 185.398438 133.734375 185.734375 C 133.398438 186.070313 133.210938 186.523438 133.210938 187 C 133.210938 187.476563 133.398438 187.929688 133.734375 188.265625 C 134.070313 188.601563 134.523438 188.789063 135 188.789063 C 135.476563 188.789063 135.929688 188.601563 136.265625 188.265625 C 136.601563 187.929688 136.789063 187.476563 136.789063 187 Z M 136.789063 187 "/>
<path style=" stroke:none;fill-rule:evenodd;fill:rgb(99.998474%,0%,0%);fill-opacity:0.6;" d="M 320.789063 173 C 320.789063 172.523438 320.601563 172.070313 320.265625 171.734375 C 319.929688 171.398438 319.476563 171.210938 319 171.210938 C 318.523438 171.210938 318.070313 171.398438 317.734375 171.734375 C 317.398438 172.070313 317.210938 172.523438 317.210938 173 C 317.210938 173.476563 317.398438 173.929688 317.734375 174.265625 C 318.070313 174.601563 318.523438 174.789063 319 174.789063 C 319.476563 174.789063 319.929688 174.601563 320.265625 174.265625 C 320.601563 173.929688 320.789063 173.476563 320.789063 173 Z M 320.789063 173 "/>
<path style=" stroke:none;fill-rule:evenodd;fill:rgb(99.998474%,0%,0%);fill-opacity:0.6;" d="M 106.789063 170 C 106.789063 169.523438 106.601563 169.070313 106.265625 168.734375 C 105.929688 168.398438 105.476563 168.210938 105 168.210938 C 104.523438 168.210938 104.070313 168.398438 103.734375 168.734375 C 103.398438 169.070313 103.210938 169.523438 103.210938 170 C 103.210938 170.476563 103.398438 170.929688 103.734375 171.265625 C 104.070313 171.601563 104.523438 171.789063 105 171.789063 C 105.476563 171.789063 105.929688 171.601563 106.265625 171.265625 C 106.601563 170.929688 106.789063 170.476563 106.789063 170 Z M 106.789063 170 "/>
<path style=" stroke:none;fill-rule:evenodd;fill:rgb(99.998474%,0%,0%);fill-opacity:0.6;" d="M 334.789063 162 C 334.789063 161.523438 334.601563 161.070313 334.265625 160.734375 C 333.929688 160.398438 333.476563 160.210938 333 160.210938 C 332.523438 160.210938 332.070313 160.398438 331.734375 160.734375 C 331.398438 161.070313 331.210938 161.523438 331.210938 162 C 331.210938 162.476563 331.398438 162.929688 331.734375 163.265625 C 332.070313 163.601563 332.523438 163.789063 333 163.789063 C 333.476563 163.789063 333.929688 163.601563 334.265625 163.265625 C 334.601563 162.929688 334.789063 162.476563 334.789063 162 Z M 334.789063 162 "/>
<path style=" stroke:none;fill-rule:evenodd;fill:rgb(99.998474%,0%,0%);fill-opacity:0.6;" d="M 332.789063 157 C 332.789063 156.523438 332.601563 156.070313 332.265625 155.734375 C 331.929688 155.398438 331.476563 155.210938 331 155.210938 C 330.523438 155.210938 330.070313 155.398438 329.734375 155.734375 C 329.398438 156.070313 329.210938 156.523438 329.210938 157 C 329.210938 157.476563 329.398438 157.929688 329.734375 158.265625 C 330.070313 158.601563 330.523438 158.789063 331 158.789063 C 331.476563 158.789063 331.929688 158.601563 332.265625 158.265625 C 332.601563 157.929688 332.789063 157.476563 332.789063 157 Z M 332.789063 157 "/>
<path style=" stroke:none;fill-rule:evenodd;fill:rgb(99.998474%,0%,0%);fill-opacity:0.6;" d="M 182.789063 111 C 182.789063 110.523438 182.601563 110.070313 182.265625 109.734375 C 181.929688 109.398438 181.476563 109.210938 181 109.210938 C 180.523438 109.210938 180.070313 109.398438 179.734375 109.734375 C 179.398438 110.070313 179.210938 110.523438 179.210938 111 C 179.210938 111.476563 179.398438 111.929688 179.734375 112.265625 C 180.070313 112.601563 180.523438 112.789063 181 112.789063 C 181.476563 112.789063 181.929688 112.601563 182.265625 112.265625 C 182.601563 111.929688 182.789063 111.476563 182.789063 111 Z M 182.789063 111 "/>
<path style=" stroke:none;fill-rule:evenodd;fill:rgb(99.998474%,0%,0%);fill-opacity:0.6;" d="M 13.789063 86 C 13.789063 85.523438 13.601563 85.070313 13.265625 84.734375 C 12.929688 84.398438 12.476563 84.210938 12 84.210938 C 11.523438 84.210938 11.070313 84.398438 10.734375 84.734375 C 10.398438 85.070313 10.210938 85.523438 10.210938 86 C 10.210938 86.476563 10.398438 86.929688 10.734375 87.265625 C 11.070313 87.601563 11.523438 87.789063 12 87.789063 C 12.476563 87.789063 12.929688 87.601563 13.265625 87.265625 C 13.601563 86.929688 13.789063 86.476563 13.789063 86 Z M 13.789063 86 "/>
<path style=" stroke:none;fill-rule:evenodd;fill:rgb(99.998474%,0%,0%);fill-opacity:0.6;" d="M 11.789063 79 C 11.789063 78.523438 11.601563 78.070313 11.265625 77.734375 C 10.929688 77.398438 10.476563 77.210938 10 77.210938 C 9.523438 77.210938 9.070313 77.398438 8.734375 77.734375 C 8.398438 78.070313 8.210938 78.523438 8.210938 79 C 8.210938 79.476563 8.398438 79.929688 8.734375 80.265625 C 9.070313 80.601563 9.523438 80.789063 10 80.789063 C 10.476563 80.789063 10.929688 80.601563 11.265625 80.265625 C 11.601563 79.929688 11.789063 79.476563 11.789063 79 Z M 11.789063 79 "/>
<path style=" stroke:none;fill-rule:evenodd;fill:rgb(99.998474%,0%,0%);fill-opacity:0.6;" d="M 231.789063 43 C 231.789063 42.523438 231.601563 42.070313 231.265625 41.734375 C 230.929688 41.398438 230.476563 41.210938 230 41.210938 C 229.523438 41.210938 229.070313 41.398438 228.734375 41.734375 C 228.398438 42.070313 228.210938 42.523438 228.210938 43 C 228.210938 43.476563 228.398438 43.929688 228.734375 44.265625 C 229.070313 44.601563 229.523438 44.789063 230 44.789063 C 230.476563 44.789063 230.929688 44.601563 231.265625 44.265625 C 231.601563 43.929688 231.789063 43.476563 231.789063 43 Z M 231.789063 43 "/>
<path style=" stroke:none;fill-rule:evenodd;fill:rgb(99.998474%,0%,0%);fill-opacity:0.6;" d="M 254.789063 42 C 254.789063 41.523438 254.601563 41.070313 254.265625 40.734375 C 253.929688 40.398438 253.476563 40.210938 253 40.210938 C 252.523438 40.210938 252.070313 40.398438 251.734375 40.734375 C 251.398438 41.070313 251.210938 41.523438 251.210938 42 C 251.210938 42.476563 251.398438 42.929688 251.734375 43.265625 C 252.070313 43.601563 252.523438 43.789063 253 43.789063 C 253.476563 43.789063 253.929688 43.601563 254.265625 43.265625 C 254.601563 42.929688 254.789063 42.476563 254.789063 42 Z M 254.789063 42 "/>
<path style=" stroke:none;fill-rule:evenodd;fill:rgb(99.998474%,0%,0%);fill-opacity:1;" d="M 327.5 325 C 327.5 324.601563 327.34375 324.21875 327.0625 323.9375 C 326.78125 323.65625 326.398438 323.5 326 323.5 C 325.601563 323.5 325.21875 323.65625 324.9375 323.9375 C 324.65625 324.21875 324.5 324.601563 324.5 325 C 324.5 325.398438 324.65625 325.78125 324.9375 326.0625 C 325.21875 326.34375 325.601563 326.5 326 326.5 C 326.398438 326.5 326.78125 326.34375 327.0625 326.0625 C 327.34375 325.78125 327.5 325.398438 327.5 325 Z M 327.5 325 "/>
<path style=" stroke:none;fill-rule:evenodd;fill:rgb(99.998474%,0%,0%);fill-opacity:1;" d="M 288.5 309 C 288.5 308.601563 288.34375 308.21875 288.0625 307.9375 C 287.78125 307.65625 287.398438 307.5 287 307.5 C 286.601563 307.5 286.21875 307.65625 285.9375 307.9375 C 285.65625 308.21875 285.5 308.601563 285.5 309 C 285.5 309.398438 285.65625 309.78125 285.9375 310.0625 C 286.21875 310.34375 286.601563 310.5 287 310.5 C 287.398438 310.5 287.78125 310.34375 288.0625 310.0625 C 288.34375 309.78125 288.5 309.398438 288.5 309 Z M 288.5 309 "/>
<path style=" stroke:none;fill-rule:evenodd;fill:rgb(99.998474%,0%,0%);fill-opacity:1;" d="M 285.5 306 C 285.5 305.601563 285.34375 305.21875 285.0625 304.9375 C 284.78125 304.65625 284.398438 304.5 284 304.5 C 283.601563 304.5 283.21875 304.65625 282.9375 304.9375 C 282.65625 305.21875 282.5 305.601563 282.5 306 C 282.5 306.398438 282.65625 306.78125 282.9375 307.0625 C 283.21875 307.34375 283.601563 307.5 284 307.5 C 284.398438 307.5 284.78125 307.34375 285.0625 307.0625 C 285.34375 306.78125 285.5 306.398438 285.5 306 Z M 285.5 306 "/>
<path style=" stroke:none;fill-rule:evenodd;fill:rgb(99.998474%,0%,0%);fill-opacity:1;" d="M 350.5 256 C 350.5 255.601563 350.34375 255.21875 350.0625 254.9375 C 349.78125 254.65625 349.398438 254.5 349 254.5 C 348.601563 254.5 348.21875 254.65625 347.9375 254.9375 C 347.65625 255.21875 347.5 255.601563 347.5 256 C 347.5 256.398438 347.65625 256.78125 347.9375 257.0625 C 348.21875 257.34375 348.601563 257.5 349 257.5 C 349.398438 257.5 349.78125 257.34375 350.0625 257.0625 C 350.34375 256.78125 350.5 256.398438 350.5 256 Z M 350.5 256 "/>
<path style=" stroke:none;fill-rule:evenodd;fill:rgb(99.998474%,0%,0%);fill-opacity:1;" d="M 232.5 252 C 232.5 251.601563 232.34375 251.21875 232.0625 250.9375 C 231.78125 250.65625 231.398438 250.5 231 250.5 C 230.601563 250.5 230.21875 250.65625 229.9375 250.9375 C 229.65625 251.21875 229.5 251.601563 229.5 252 C 229.5 252.398438 229.65625 252.78125 229.9375 253.0625 C 230.21875 253.34375 230.601563 253.5 231 253.5 C 231.398438 253.5 231.78125 253.34375 232.0625 253.0625 C 232.34375 252.78125 232.5 252.398438 232.5 252 Z M 232.5 252 "/>
<path style=" stroke:none;fill-rule:evenodd;fill:rgb(99.998474%,0%,0%);fill-opacity:1;" d="M 348.5 250 C 348.5 249.601563 348.34375 249.21875 348.0625 248.9375 C 347.78125 248.65625 347.398438 248.5 347 248.5 C 346.601563 248.5 346.21875 248.65625 345.9375 248.9375 C 345.65625 249.21875 345.5 249.601563 345.5 250 C 345.5 250.398438 345.65625 250.78125 345.9375 251.0625 C 346.21875 251.34375 346.601563 251.5 347 251.5 C 347.398438 251.5 347.78125 251.34375 348.0625 251.0625 C 348.34375 250.78125 348.5 250.398438 348.5 250 Z M 348.5 250 "/>
<path style=" stroke:none;fill-rule:evenodd;fill:rgb(99.998474%,0%,0%);fill-opacity:1;" d="M 134.5 192 C 134.5 191.601563 134.34375 191.21875 134.0625 190.9375 C 133.78125 190.65625 133.398438 190.5 133 190.5 C 132.601563 190.5 132.21875 190.65625 131.9375 190.9375 C 131.65625 191.21875 131.5 191.601563 131.5 192 C 131.5 192.398438 131.65625 192.78125 131.9375 193.0625 C 132.21875 193.34375 132.601563 193.5 133 193.5 C 133.398438 193.5 133.78125 193.34375 134.0625 193.0625 C 134.34375 192.78125 134.5 192.398438 134.5 192 Z M 134.5 192 "/>
<path style=" stroke:none;fill-rule:evenodd;fill:rgb(99.998474%,0%,0%);fill-opacity:1;" d="M 136.5 187 C 136.5 186.601563 136.34375 186.21875 136.0625 185.9375 C 135.78125 185.65625 135.398438 185.5 135 185.5 C 134.601563 185.5 134.21875 185.65625 133.9375 185.9375 C 133.65625 186.21875 133.5 186.601563 133.5 187 C 133.5 187.398438 133.65625 187.78125 133.9375 188.0625 C 134.21875 188.34375 134.601563 188.5 135 188.5 C 135.398438 188.5 135.78125 188.34375 136.0625 188.0625 C 136.34375 187.78125 136.5 187.398438 136.5 187 Z M 136.5 187 "/>
<path style=" stroke:none;fill-rule:evenodd;fill:rgb(99.998474%,0%,0%);fill-opacity:1;" d="M 320.5 173 C 320.5 172.601563 320.34375 172.21875 320.0625 171.9375 C 319.78125 171.65625 319.398438 171.5 319 171.5 C 318.601563 171.5 318.21875 171.65625 317.9375 171.9375 C 317.65625 172.21875 317.5 172.601563 317.5 173 C 317.5 173.398438 317.65625 173.78125 317.9375 174.0625 C 318.21875 174.34375 318.601563 174.5 319 174.5 C 319.398438 174.5 319.78125 174.34375 320.0625 174.0625 C 320.34375 173.78125 320.5 173.398438 320.5 173 Z M 320.5 173 "/>
<path style=" stroke:none;fill-rule:evenodd;fill:rgb(99.998474%,0%,0%);fill-opacity:1;" d="M 106.5 170 C 106.5 169.601563 106.34375 169.21875 106.0625 168.9375 C 105.78125 168.65625 105.398438 168.5 105 168.5 C 104.601563 168.5 104.21875 168.65625 103.9375 168.9375 C 103.65625 169.21875 103.5 169.601563 103.5 170 C 103.5 170.398438 103.65625 170.78125 103.9375 171.0625 C 104.21875 171.34375 104.601563 171.5 105 171.5 C 105.398438 171.5 105.78125 171.34375 106.0625 171.0625 C 106.34375 170.78125 106.5 170.398438 106.5 170 Z M 106.5 170 "/>
<path style=" stroke:none;fill-rule:evenodd;fill:rgb(99.998474%,0%,0%);fill-opacity:1;" d="M 334.5 162 C 334.5 161.601563 334.34375 161.21875 334.0625 160.9375 C 333.78125 160.65625 333.398438 160.5 333 160.5 C 332.601563 160.5 332.21875 160.65625 331.9375 160.9375 C 331.65625 161.21875 331.5 161.601563 331.5 162 C 331.5 162.398438 331.65625 162.78125 331.9375 163.0625 C 332.21875 163.34375 332.601563 163.5 333 163.5 C 333.398438 163.5 333.78125 163.34375 334.0625 163.0625 C 334.34375 162.78125 334.5 162.398438 334.5 162 Z M 334.5 162 "/>
<path style=" stroke:none;fill-rule:evenodd;fill:rgb(99.998474%,0%,0%);fill-opacity:1;" d="M 332.5 157 C 332.5 156.601563 332.34375 156.21875 332.0625 155.9375 C 331.78125 155.65625 331.398438 155.5 331 155.5 C 330.601563 155.5 330.21875 155.65625 329.9375 155.9375 C 329.65625 156.21875 329.5 156.601563 329.5 157 C 329.5 157.398438 329.65625 157.78125 329.9375 158.0625 C 330.21875 158.34375 330.601563 158.5 331 158.5 C 331.398438 158.5 331.78125 158.34375 332.0625 158.0625 C 332.34375 157.78125 332.5 157.398438 332.5 157 Z M 332.5 157 "/>
<path style=" stroke:none;fill-rule:evenodd;fill:rgb(99.998474%,0%,0%);fill-opacity:1;" d="M 182.5 111 C 182.5 110.601563 182.34375 110.21875 182.0625 109.9375 C 181.78125 109.65625 181.398438 109.5 181 109.5 C 180.601563 109.5 180.21875 109.65625 179.9375 109.9375 C 179.65625 110.21875 179.5 110.601563 179.5 111 C 179.5 111.398438 179.65625 111.78125 179.9375 112.0625 C 180.21875 112.34375 180.601563 112.5 181 112.5 C 181.398438 112.5 181.78125 112.34375 182.0625 112.0625 C 182.34375 111.78125 182.5 111.398438 182.5 111 Z M 182.5 111 "/>
<path style=" stroke:none;fill-rule:evenodd;fill:rgb(99.998474%,0%,0%);fill-opacity:1;" d="M 13.5 86 C 13.5 85.601563 13.34375 85.21875 13.0625 84.9375 C 12.78125 84.65625 12.398438 84.5 12 84.5 C 11.601563 84.5 11.21875 84.65625 10.9375 84.9375 C 10.65625 85.21875 10.5 85.601563 10.5 86 C 10.5 86.398438 10.65625 86.78125 10.9375 87.0625 C 11.21875 87.34375 11.601563 87.5 12 87.5 C 12.398438 87.5 12.78125 87.34375 13.0625 87.0625 C 13.34375 86.78125 13.5 86.398438 13.5 86 Z M 13.5 86 "/>
<path style=" stroke:none;fill-rule:evenodd;fill:rgb(99.998474%,0%,0%);fill-opacity:1;" d="M 11.5 79 C 11.5 78.601563 11.34375 78.21875 11.0625 77.9375 C 10.78125 77.65625 10.398438 77.5 10 77.5 C 9.601563 77.5 9.21875 77.65625 8.9375 77.9375 C 8.65625 78.21875 8.5 78.601563 8.5 79 C 8.5 79.398438 8.65625 79.78125 8.9375 80.0625 C 9.21875 80.34375 9.601563 80.5 10 80.5 C 10.398438 80.5 10.78125 80.34375 11.0625 80.0625 C 11.34375 79.78125 11.5 79.398438 11.5 79 Z M 11.5 79 "/>
<path style=" stroke:none;fill-rule:evenodd;fill:rgb(99.998474%,0%,0%);fill-opacity:1;" d="M 231.5 43 C 231.5 42.601563 231.34375 42.21875 231.0625 41.9375 C 230.78125 41.65625 230.398438 41.5 230 41.5 C 229.601563 41.5 229.21875 41.65625 228.9375 41.9375 C 228.65625 42.21875 228.5 42.601563 228.5 43 C 228.5 43.398438 228.65625 43.78125 228.9375 44.0625 C 229.21875 44.34375 229.601563 44.5 230 44.5 C 230.398438 44.5 230.78125 44.34375 231.0625 44.0625 C 231.34375 43.78125 231.5 43.398438 231.5 43 Z M 231.5 43 "/>
<path style=" stroke:none;fill-rule:evenodd;fill:rgb(99.998474%,0%,0%);fill-opacity:1;" d="M 254.5 42 C 254.5 41.601563 254.34375 41.21875 254.0625 40.9375 C 253.78125 40.65625 253.398438 40.5 253 40.5 C 252.601563 40.5 252.21875 40.65625 251.9375 40.9375 C 251.65625 41.21875 251.5 41.601563 251.5 42 C 251.5 42.398438 251.65625 42.78125 251.9375 43.0625 C 252.21875 43.34375 252.601563 43.5 253 43.5 C 253.398438 43.5 253.78125 43.34375 254.0625 43.0625 C 254.34375 42.78125 254.5 42.398438 254.5 42 Z M 254.5 42 "/>
</g>
</svg>
