<?xml version="1.0" encoding="UTF-8"?>
<svg xmlns="http://www.w3.org/2000/svg" xmlns:xlink="http://www.w3.org/1999/xlink" width="344pt" height="348pt" viewBox="0 0 344 348" version="1.1">
<g id="surface2162">
<path style=" stroke:none;fill-rule:evenodd;fill:rgb(99.998474%,0%,0%);fill-opacity:1;" d="M 96.894531 347 C 96.894531 346.761719 96.800781 346.535156 96.632813 346.367188 C 96.464844 346.199219 96.238281 346.105469 96 346.105469 C 95.761719 346.105469 95.535156 346.199219 95.367188 346.367188 C 95.199219 346.535156 95.105469 346.761719 95.105469 347 C 95.105469 347.238281 95.199219 347.464844 95.367188 347.632813 C 95.535156 347.800781 95.761719 347.894531 96 347.894531 C 96.238281 347.894531 96.464844 347.800781 96.632813 347.632813 C 96.800781 347.464844 96.894531 347.238281 96.894531 347 Z M 96.894531 347 "/>
<path style=" stroke:none;fill-rule:evenodd;fill:rgb(99.998474%,0%,0%);fill-opacity:1;" d="M 324.894531 346 C 324.894531 345.761719 324.800781 345.535156 324.632813 345.367188 C 324.464844 345.199219 324.238281 345.105469 324 345.105469 C 323.761719 345.105469 323.535156 345.199219 323.367188 345.367188 C 323.199219 345.535156 323.105469 345.761719 323.105469 346 C 323.105469 346.238281 323.199219 346.464844 323.367188 346.632813 C 323.535156 346.800781 323.761719 346.894531 324 346.894531 C 324.238281 346.894531 324.464844 346.800781 324.632813 346.632813 C 324.800781 346.464844 324.894531 346.238281 324.894531 346 Z M 324.894531 346 "/>
<path style=" stroke:none;fill-rule:evenodd;fill:rgb(99.998474%,0%,0%);fill-opacity:1;" d="M 240.894531 345 C 240.894531 344.761719 240.800781 344.535156 240.632813 344.367188 C 240.464844 344.199219 240.238281 344.105469 240 344.105469 C 239.761719 344.105469 239.535156 344.199219 239.367188 344.367188 C 239.199219 344.535156 239.105469 344.761719 239.105469 345 C 239.105469 345.238281 239.199219 345.464844 239.367188 345.632813 C 239.535156 345.800781 239.761719 345.894531 240 345.894531 C 240.238281 345.894531 240.464844 345.800781 240.632813 345.632813 C 240.800781 345.464844 240.894531 345.238281 240.894531 345 Z M 240.894531 345 "/>
<path style=" stroke:none;fill-rule:evenodd;fill:rgb(99.998474%,0%,0%);fill-opacity:1;" d="M 332.894531 343 C 332.894531 342.761719 332.800781 342.535156 332.632813 342.367188 C 332.464844 342.199219 332.238281 342.105469 332 342.105469 C 331.761719 342.105469 331.535156 342.199219 331.367188 342.367188 C 331.199219 342.535156 331.105469 342.761719 331.105469 343 C 331.105469 343.238281 331.199219 343.464844 331.367188 343.632813 C 331.535156 343.800781 331.761719 343.894531 332 343.894531 C 332.238281 343.894531 332.464844 343.800781 332.632813 343.632813 C 332.800781 343.464844 332.894531 343.238281 332.894531 343 Z M 332.894531 343 "/>
<path style=" stroke:none;fill-rule:evenodd;fill:rgb(99.998474%,0%,0%);fill-opacity:1;" d="M 88.894531 338 C 88.894531 337.761719 88.800781 337.535156 88.632813 337.367188 C 88.464844 337.199219 88.238281 337.105469 88 337.105469 C 87.761719 337.105469 87.535156 337.199219 87.367188 337.367188 C 87.199219 337.535156 87.105469 337.761719 87.105469 338 C 87.105469 338.238281 87.199219 338.464844 87.367188 338.632813 C 87.535156 338.800781 87.761719 338.894531 88 338.894531 C 88.238281 338.894531 88.464844 338.800781 88.632813 338.632813 C 88.800781 338.464844 88.894531 338.238281 88.894531 338 Z M 88.894531 338 "/>
<path style=" stroke:none;fill-rule:evenodd;fill:rgb(99.998474%,0%,0%);fill-opacity:1;" d="M 205.894531 330 C 205.894531 329.761719 205.800781 329.535156 205.632813 329.367188 C 205.464844 329.199219 205.238281 329.105469 205 329.105469 C 204.761719 329.105469 204.535156 329.199219 204.367188 329.367188 C 204.199219 329.535156 204.105469 329.761719 204.105469 330 C 204.105469 330.238281 204.199219 330.464844 204.367188 330.632813 C 204.535156 330.800781 204.761719 330.894531 205 330.894531 C 205.238281 330.894531 205.464844 330.800781 205.632813 330.632813 C 205.800781 330.464844 205.894531 330.238281 205.894531 330 Z M 205.894531 330 "/>
<path style=" stroke:none;fill-rule:evenodd;fill:rgb(99.998474%,0%,0%);fill-opacity:1;" d="M 13.894531 329 C 13.894531 328.761719 13.800781 328.535156 13.632813 328.367188 C 13.464844 328.199219 13.238281 328.105469 13 328.105469 C 12.761719 328.105469 12.535156 328.199219 12.367188 328.367188 C 12.199219 328.535156 12.105469 328.761719 12.105469 329 C 12.105469 329.238281 12.199219 329.464844 12.367188 329.632813 C 12.535156 329.800781 12.761719 329.894531 13 329.894531 C 13.238281 329.894531 13.464844 329.800781 13.632813 329.632813 C 13.800781 329.464844 13.894531 329.238281 13.894531 329 Z M 13.894531 329 "/>
<path style=" stroke:none;fill-rule:evenodd;fill:rgb(99.998474%,0%,0%);fill-opacity:1;" d="M 103.894531 325 C 103.894531 324.761719 103.800781 324.535156 103.632813 324.367188 C 103.464844 324.199219 103.238281 324.105469 103 324.105469 C 102.761719 324.105469 102.535156 324.199219 102.367188 324.367188 C 102.199219 324.535156 102.105469 324.761719 102.105469 325 C 102.105469 325.238281 102.199219 325.464844 102.367188 325.632813 C 102.535156 325.800781 102.761719 325.894531 103 325.894531 C 103.238281 325.894531 103.464844 325.800781 103.632813 325.632813 C 103.800781 325.464844 103.894531 325.238281 103.894531 325 Z M 103.894531 325 "/>
<path style=" stroke:none;fill-rule:evenodd;fill:rgb(99.998474%,0%,0%);fill-opacity:1;" d="M 270.894531 311 C 270.894531 310.761719 270.800781 310.535156 270.632813 310.367188 C 270.464844 310.199219 270.238281 310.105469 270 310.105469 C 269.761719 310.105469 269.535156 310.199219 269.367188 310.367188 C 269.199219 310.535156 269.105469 310.761719 269.105469 311 C 269.105469 311.238281 269.199219 311.464844 269.367188 311.632813 C 269.535156 311.800781 269.761719 311.894531 270 311.894531 C 270.238281 311.894531 270.464844 311.800781 270.632813 311.632813 C 270.800781 311.464844 270.894531 311.238281 270.894531 311 Z M 270.894531 311 "/>
<path style=" stroke:none;fill-rule:evenodd;fill:rgb(99.998474%,0%,0%);fill-opacity:1;" d="M 45.894531 284 C 45.894531 283.761719 45.800781 283.535156 45.632813 283.367188 C 45.464844 283.199219 45.238281 283.105469 45 283.105469 C 44.761719 283.105469 44.535156 283.199219 44.367188 283.367188 C 44.199219 283.535156 44.105469 283.761719 44.105469 284 C 44.105469 284.238281 44.199219 284.464844 44.367188 284.632813 C 44.535156 284.800781 44.761719 284.894531 45 284.894531 C 45.238281 284.894531 45.464844 284.800781 45.632813 284.632813 C 45.800781 284.464844 45.894531 284.238281 45.894531 284 Z M 45.894531 284 "/>
<path style=" stroke:none;fill-rule:evenodd;fill:rgb(99.998474%,0%,0%);fill-opacity:1;" d="M 198.894531 281 C 198.894531 280.761719 198.800781 280.535156 198.632813 280.367188 C 198.464844 280.199219 198.238281 280.105469 198 280.105469 C 197.761719 280.105469 197.535156 280.199219 197.367188 280.367188 C 197.199219 280.535156 197.105469 280.761719 197.105469 281 C 197.105469 281.238281 197.199219 281.464844 197.367188 281.632813 C 197.535156 281.800781 197.761719 281.894531 198 281.894531 C 198.238281 281.894531 198.464844 281.800781 198.632813 281.632813 C 198.800781 281.464844 198.894531 281.238281 198.894531 281 Z M 198.894531 281 "/>
<path style=" stroke:none;fill-rule:evenodd;fill:rgb(99.998474%,0%,0%);fill-opacity:1;" d="M 65.894531 255 C 65.894531 254.761719 65.800781 254.535156 65.632813 254.367188 C 65.464844 254.199219 65.238281 254.105469 65 254.105469 C 64.761719 254.105469 64.535156 254.199219 64.367188 254.367188 C 64.199219 254.535156 64.105469 254.761719 64.105469 255 C 64.105469 255.238281 64.199219 255.464844 64.367188 255.632813 C 64.535156 255.800781 64.761719 255.894531 65 255.894531 C 65.238281 255.894531 65.464844 255.800781 65.632813 255.632813 C 65.800781 255.464844 65.894531 255.238281 65.894531 255 Z M 65.894531 255 "/>
<path style=" stroke:none;fill-rule:evenodd;fill:rgb(99.998474%,0%,0%);fill-opacity:1;" d="M 104.894531 252 C 104.894531 251.761719 104.800781 251.535156 104.632813 251.367188 C 104.464844 251.199219 104.238281 251.105469 104 251.105469 C 103.761719 251.105469 103.535156 251.199219 103.367188 251.367188 C 103.199219 251.535156 103.105469 251.761719 103.105469 252 C 103.105469 252.238281 103.199219 252.464844 103.367188 252.632813 C 103.535156 252.800781 103.761719 252.894531 104 252.894531 C 104.238281 252.894531 104.464844 252.800781 104.632813 252.632813 C 104.800781 252.464844 104.894531 252.238281 104.894531 252 Z M 104.894531 252 "/>
<path style=" stroke:none;fill-rule:evenodd;fill:rgb(99.998474%,0%,0%);fill-opacity:1;" d="M 109.894531 247 C 109.894531 246.761719 109.800781 246.535156 109.632813 246.367188 C 109.464844 246.199219 109.238281 246.105469 109 246.105469 C 108.761719 246.105469 108.535156 246.199219 108.367188 246.367188 C 108.199219 246.535156 108.105469 246.761719 108.105469 247 C 108.105469 247.238281 108.199219 247.464844 108.367188 247.632813 C 108.535156 247.800781 108.761719 247.894531 109 247.894531 C 109.238281 247.894531 109.464844 247.800781 109.632813 247.632813 C 109.800781 247.464844 109.894531 247.238281 109.894531 247 Z M 109.894531 247 "/>
<path style=" stroke:none;fill-rule:evenodd;fill:rgb(99.998474%,0%,0%);fill-opacity:1;" d="M 55.894531 239 C 55.894531 238.761719 55.800781 238.535156 55.632813 238.367188 C 55.464844 238.199219 55.238281 238.105469 55 238.105469 C 54.761719 238.105469 54.535156 238.199219 54.367188 238.367188 C 54.199219 238.535156 54.105469 238.761719 54.105469 239 C 54.105469 239.238281 54.199219 239.464844 54.367188 239.632813 C 54.535156 239.800781 54.761719 239.894531 55 239.894531 C 55.238281 239.894531 55.464844 239.800781 55.632813 239.632813 C 55.800781 239.464844 55.894531 239.238281 55.894531 239 Z M 55.894531 239 "/>
<path style=" stroke:none;fill-rule:evenodd;fill:rgb(99.998474%,0%,0%);fill-opacity:1;" d="M 135.894531 228 C 135.894531 227.761719 135.800781 227.535156 135.632813 227.367188 C 135.464844 227.199219 135.238281 227.105469 135 227.105469 C 134.761719 227.105469 134.535156 227.199219 134.367188 227.367188 C 134.199219 227.535156 134.105469 227.761719 134.105469 228 C 134.105469 228.238281 134.199219 228.464844 134.367188 228.632813 C 134.535156 228.800781 134.761719 228.894531 135 228.894531 C 135.238281 228.894531 135.464844 228.800781 135.632813 228.632813 C 135.800781 228.464844 135.894531 228.238281 135.894531 228 Z M 135.894531 228 "/>
<path style=" stroke:none;fill-rule:evenodd;fill:rgb(99.998474%,0%,0%);fill-opacity:1;" d="M 73.894531 228 C 73.894531 227.761719 73.800781 227.535156 73.632813 227.367188 C 73.464844 227.199219 73.238281 227.105469 73 227.105469 C 72.761719 227.105469 72.535156 227.199219 72.367188 227.367188 C 72.199219 227.535156 72.105469 227.761719 72.105469 228 C 72.105469 228.238281 72.199219 228.464844 72.367188 228.632813 C 72.535156 228.800781 72.761719 228.894531 73 228.894531 C 73.238281 228.894531 73.464844 228.800781 73.632813 228.632813 C 73.800781 228.464844 73.894531 228.238281 73.894531 228 Z M 73.894531 228 "/>
<path style=" stroke:none;fill-rule:evenodd;fill:rgb(99.998474%,0%,0%);fill-opacity:1;" d="M 141.894531 213 C 141.894531 212.761719 141.800781 212.535156 141.632813 212.367188 C 141.464844 212.199219 141.238281 212.105469 141 212.105469 C 140.761719 212.105469 140.535156 212.199219 140.367188 212.367188 C 140.199219 212.535156 140.105469 212.761719 140.105469 213 C 140.105469 213.238281 140.199219 213.464844 140.367188 213.632813 C 140.535156 213.800781 140.761719 213.894531 141 213.894531 C 141.238281 213.894531 141.464844 213.800781 141.632813 213.632813 C 141.800781 213.464844 141.894531 213.238281 141.894531 213 Z M 141.894531 213 "/>
<path style=" stroke:none;fill-rule:evenodd;fill:rgb(99.998474%,0%,0%);fill-opacity:1;" d="M 141.894531 213 C 141.894531 212.761719 141.800781 212.535156 141.632813 212.367188 C 141.464844 212.199219 141.238281 212.105469 141 212.105469 C 140.761719 212.105469 140.535156 212.199219 140.367188 212.367188 C 140.199219 212.535156 140.105469 212.761719 140.105469 213 C 140.105469 213.238281 140.199219 213.464844 140.367188 213.632813 C 140.535156 213.800781 140.761719 213.894531 141 213.894531 C 141.238281 213.894531 141.464844 213.800781 141.632813 213.632813 C 141.800781 213.464844 141.894531 213.238281 141.894531 213 Z M 141.894531 213 "/>
<path style=" stroke:none;fill-rule:evenodd;fill:rgb(99.998474%,0%,0%);fill-opacity:1;" d="M 141.894531 213 C 141.894531 212.761719 141.800781 212.535156 141.632813 212.367188 C 141.464844 212.199219 141.238281 212.105469 141 212.105469 C 140.761719 212.105469 140.535156 212.199219 140.367188 212.367188 C 140.199219 212.535156 140.105469 212.761719 140.105469 213 C 140.105469 213.238281 140.199219 213.464844 140.367188 213.632813 C 140.535156 213.800781 140.761719 213.894531 141 213.894531 C 141.238281 213.894531 141.464844 213.800781 141.632813 213.632813 C 141.800781 213.464844 141.894531 213.238281 141.894531 213 Z M 141.894531 213 "/>
<path style=" stroke:none;fill-rule:evenodd;fill:rgb(99.998474%,0%,0%);fill-opacity:1;" d="M 141.894531 213 C 141.894531 212.761719 141.800781 212.535156 141.632813 212.367188 C 141.464844 212.199219 141.238281 212.105469 141 212.105469 C 140.761719 212.105469 140.535156 212.199219 140.367188 212.367188 C 140.199219 212.535156 140.105469 212.761719 140.105469 213 C 140.105469 213.238281 140.199219 213.464844 140.367188 213.632813 C 140.535156 213.800781 140.761719 213.894531 141 213.894531 C 141.238281 213.894531 141.464844 213.800781 141.632813 213.632813 C 141.800781 213.464844 141.894531 213.238281 141.894531 213 Z M 141.894531 213 "/>
<path style=" stroke:none;fill-rule:evenodd;fill:rgb(99.998474%,0%,0%);fill-opacity:1;" d="M 141.894531 213 C 141.894531 212.761719 141.800781 212.535156 141.632813 212.367188 C 141.464844 212.199219 141.238281 212.105469 141 212.105469 C 140.761719 212.105469 140.535156 212.199219 140.367188 212.367188 C 140.199219 212.535156 140.105469 212.761719 140.105469 213 C 140.105469 213.238281 140.199219 213.464844 140.367188 213.632813 C 140.535156 213.800781 140.761719 213.894531 141 213.894531 C 141.238281 213.894531 141.464844 213.800781 141.632813 213.632813 C 141.800781 213.464844 141.894531 213.238281 141.894531 213 Z M 141.894531 213 "/>
<path style=" stroke:none;fill-rule:evenodd;fill:rgb(99.998474%,0%,0%);fill-opacity:1;" d="M 141.894531 213 C 141.894531 212.761719 141.800781 212.535156 141.632813 212.367188 C 141.464844 212.199219 141.238281 212.105469 141 212.105469 C 140.761719 212.105469 140.535156 212.199219 140.367188 212.367188 C 140.199219 212.535156 140.105469 212.761719 140.105469 213 C 140.105469 213.238281 140.199219 213.464844 140.367188 213.632813 C 140.535156 213.800781 140.761719 213.894531 141 213.894531 C 141.238281 213.894531 141.464844 213.800781 141.632813 213.632813 C 141.800781 213.464844 141.894531 213.238281 141.894531 213 Z M 141.894531 213 "/>
<path style=" stroke:none;fill-rule:evenodd;fill:rgb(99.998474%,0%,0%);fill-opacity:1;" d="M 141.894531 213 C 141.894531 212.761719 141.800781 212.535156 141.632813 212.367188 C 141.464844 212.199219 141.238281 212.105469 141 212.105469 C 140.761719 212.105469 140.535156 212.199219 140.367188 212.367188 C 140.199219 212.535156 140.105469 212.761719 140.105469 213 C 140.105469 213.238281 140.199219 213.464844 140.367188 213.632813 C 140.535156 213.800781 140.761719 213.894531 141 213.894531 C 141.238281 213.894531 141.464844 213.800781 141.632813 213.632813 C 141.800781 213.464844 141.894531 213.238281 141.894531 213 Z M 141.894531 213 "/>
<path style=" stroke:none;fill-rule:evenodd;fill:rgb(99.998474%,0%,0%);fill-opacity:1;" d="M 139.894531 213 C 139.894531 212.761719 139.800781 212.535156 139.632813 212.367188 C 139.464844 212.199219 139.238281 212.105469 139 212.105469 C 138.761719 212.105469 138.535156 212.199219 138.367188 212.367188 C 138.199219 212.535156 138.105469 212.761719 138.105469 213 C 138.105469 213.238281 138.199219 213.464844 138.367188 213.632813 C 138.535156 213.800781 138.761719 213.894531 139 213.894531 C 139.238281 213.894531 139.464844 213.800781 139.632813 213.632813 C 139.800781 213.464844 139.894531 213.238281 139.894531 213 Z M 139.894531 213 "/>
<path style=" stroke:none;fill-rule:evenodd;fill:rgb(99.998474%,0%,0%);fill-opacity:1;" d="M 139.894531 213 C 139.894531 212.761719 139.800781 212.535156 139.632813 212.367188 C 139.464844 212.199219 139.238281 212.105469 139 212.105469 C 138.761719 212.105469 138.535156 212.199219 138.367188 212.367188 C 138.199219 212.535156 138.105469 212.761719 138.105469 213 C 138.105469 213.238281 138.199219 213.464844 138.367188 213.632813 C 138.535156 213.800781 138.761719 213.894531 139 213.894531 C 139.238281 213.894531 139.464844 213.800781 139.632813 213.632813 C 139.800781 213.464844 139.894531 213.238281 139.894531 213 Z M 139.894531 213 "/>
<path style=" stroke:none;fill-rule:evenodd;fill:rgb(99.998474%,0%,0%);fill-opacity:1;" d="M 140.894531 213 C 140.894531 212.761719 140.800781 212.535156 140.632813 212.367188 C 140.464844 212.199219 140.238281 212.105469 140 212.105469 C 139.761719 212.105469 139.535156 212.199219 139.367188 212.367188 C 139.199219 212.535156 139.105469 212.761719 139.105469 213 C 139.105469 213.238281 139.199219 213.464844 139.367188 213.632813 C 139.535156 213.800781 139.761719 213.894531 140 213.894531 C 140.238281 213.894531 140.464844 213.800781 140.632813 213.632813 C 140.800781 213.464844 140.894531 213.238281 140.894531 213 Z M 140.894531 213 "/>
<path style=" stroke:none;fill-rule:evenodd;fill:rgb(99.998474%,0%,0%);fill-opacity:1;" d="M 139.894531 213 C 139.894531 212.761719 139.800781 212.535156 139.632813 212.367188 C 139.464844 212.199219 139.238281 212.105469 139 212.105469 C 138.761719 212.105469 138.535156 212.199219 138.367188 212.367188 C 138.199219 212.535156 138.105469 212.761719 138.105469 213 C 138.105469 213.238281 138.199219 213.464844 138.367188 213.632813 C 138.535156 213.800781 138.761719 213.894531 139 213.894531 C 139.238281 213.894531 139.464844 213.800781 139.632813 213.632813 C 139.800781 213.464844 139.894531 213.238281 139.894531 213 Z M 139.894531 213 "/>
<path style=" stroke:none;fill-rule:evenodd;fill:rgb(99.998474%,0%,0%);fill-opacity:1;" d="M 141.894531 212 C 141.894531 211.761719 141.800781 211.535156 141.632813 211.367188 C 141.464844 211.199219 141.238281 211.105469 141 211.105469 C 140.761719 211.105469 140.535156 211.199219 140.367188 211.367188 C 140.199219 211.535156 140.105469 211.761719 140.105469 212 C 140.105469 212.238281 140.199219 212.464844 140.367188 212.632813 C 140.535156 212.800781 140.761719 212.894531 141 212.894531 C 141.238281 212.894531 141.464844 212.800781 141.632813 212.632813 C 141.800781 212.464844 141.894531 212.238281 141.894531 212 Z M 141.894531 212 "/>
<path style=" stroke:none;fill-rule:evenodd;fill:rgb(99.998474%,0%,0%);fill-opacity:1;" d="M 141.894531 212 C 141.894531 211.761719 141.800781 211.535156 141.632813 211.367188 C 141.464844 211.199219 141.238281 211.105469 141 211.105469 C 140.761719 211.105469 140.535156 211.199219 140.367188 211.367188 C 140.199219 211.535156 140.105469 211.761719 140.105469 212 C 140.105469 212.238281 140.199219 212.464844 140.367188 212.632813 C 140.535156 212.800781 140.761719 212.894531 141 212.894531 C 141.238281 212.894531 141.464844 212.800781 141.632813 212.632813 C 141.800781 212.464844 141.894531 212.238281 141.894531 212 Z M 141.894531 212 "/>
<path style=" stroke:none;fill-rule:evenodd;fill:rgb(99.998474%,0%,0%);fill-opacity:1;" d="M 43.894531 192 C 43.894531 191.761719 43.800781 191.535156 43.632813 191.367188 C 43.464844 191.199219 43.238281 191.105469 43 191.105469 C 42.761719 191.105469 42.535156 191.199219 42.367188 191.367188 C 42.199219 191.535156 42.105469 191.761719 42.105469 192 C 42.105469 192.238281 42.199219 192.464844 42.367188 192.632813 C 42.535156 192.800781 42.761719 192.894531 43 192.894531 C 43.238281 192.894531 43.464844 192.800781 43.632813 192.632813 C 43.800781 192.464844 43.894531 192.238281 43.894531 192 Z M 43.894531 192 "/>
<path style=" stroke:none;fill-rule:evenodd;fill:rgb(99.998474%,0%,0%);fill-opacity:1;" d="M 142.894531 188 C 142.894531 187.761719 142.800781 187.535156 142.632813 187.367188 C 142.464844 187.199219 142.238281 187.105469 142 187.105469 C 141.761719 187.105469 141.535156 187.199219 141.367188 187.367188 C 141.199219 187.535156 141.105469 187.761719 141.105469 188 C 141.105469 188.238281 141.199219 188.464844 141.367188 188.632813 C 141.535156 188.800781 141.761719 188.894531 142 188.894531 C 142.238281 188.894531 142.464844 188.800781 142.632813 188.632813 C 142.800781 188.464844 142.894531 188.238281 142.894531 188 Z M 142.894531 188 "/>
<path style=" stroke:none;fill-rule:evenodd;fill:rgb(99.998474%,0%,0%);fill-opacity:1;" d="M 142.894531 188 C 142.894531 187.761719 142.800781 187.535156 142.632813 187.367188 C 142.464844 187.199219 142.238281 187.105469 142 187.105469 C 141.761719 187.105469 141.535156 187.199219 141.367188 187.367188 C 141.199219 187.535156 141.105469 187.761719 141.105469 188 C 141.105469 188.238281 141.199219 188.464844 141.367188 188.632813 C 141.535156 188.800781 141.761719 188.894531 142 188.894531 C 142.238281 188.894531 142.464844 188.800781 142.632813 188.632813 C 142.800781 188.464844 142.894531 188.238281 142.894531 188 Z M 142.894531 188 "/>
<path style=" stroke:none;fill-rule:evenodd;fill:rgb(99.998474%,0%,0%);fill-opacity:1;" d="M 279.894531 181 C 279.894531 180.761719 279.800781 180.535156 279.632813 180.367188 C 279.464844 180.199219 279.238281 180.105469 279 180.105469 C 278.761719 180.105469 278.535156 180.199219 278.367188 180.367188 C 278.199219 180.535156 278.105469 180.761719 278.105469 181 C 278.105469 181.238281 278.199219 181.464844 278.367188 181.632813 C 278.535156 181.800781 278.761719 181.894531 279 181.894531 C 279.238281 181.894531 279.464844 181.800781 279.632813 181.632813 C 279.800781 181.464844 279.894531 181.238281 279.894531 181 Z M 279.894531 181 "/>
<path style=" stroke:none;fill-rule:evenodd;fill:rgb(99.998474%,0%,0%);fill-opacity:1;" d="M 151.894531 155 C 151.894531 154.761719 151.800781 154.535156 151.632813 154.367188 C 151.464844 154.199219 151.238281 154.105469 151 154.105469 C 150.761719 154.105469 150.535156 154.199219 150.367188 154.367188 C 150.199219 154.535156 150.105469 154.761719 150.105469 155 C 150.105469 155.238281 150.199219 155.464844 150.367188 155.632813 C 150.535156 155.800781 150.761719 155.894531 151 155.894531 C 151.238281 155.894531 151.464844 155.800781 151.632813 155.632813 C 151.800781 155.464844 151.894531 155.238281 151.894531 155 Z M 151.894531 155 "/>
<path style=" stroke:none;fill-rule:evenodd;fill:rgb(99.998474%,0%,0%);fill-opacity:1;" d="M 180.894531 134 C 180.894531 133.761719 180.800781 133.535156 180.632813 133.367188 C 180.464844 133.199219 180.238281 133.105469 180 133.105469 C 179.761719 133.105469 179.535156 133.199219 179.367188 133.367188 C 179.199219 133.535156 179.105469 133.761719 179.105469 134 C 179.105469 134.238281 179.199219 134.464844 179.367188 134.632813 C 179.535156 134.800781 179.761719 134.894531 180 134.894531 C 180.238281 134.894531 180.464844 134.800781 180.632813 134.632813 C 180.800781 134.464844 180.894531 134.238281 180.894531 134 Z M 180.894531 134 "/>
<path style=" stroke:none;fill-rule:evenodd;fill:rgb(99.998474%,0%,0%);fill-opacity:1;" d="M 23.894531 130 C 23.894531 129.761719 23.800781 129.535156 23.632813 129.367188 C 23.464844 129.199219 23.238281 129.105469 23 129.105469 C 22.761719 129.105469 22.535156 129.199219 22.367188 129.367188 C 22.199219 129.535156 22.105469 129.761719 22.105469 130 C 22.105469 130.238281 22.199219 130.464844 22.367188 130.632813 C 22.535156 130.800781 22.761719 130.894531 23 130.894531 C 23.238281 130.894531 23.464844 130.800781 23.632813 130.632813 C 23.800781 130.464844 23.894531 130.238281 23.894531 130 Z M 23.894531 130 "/>
<path style=" stroke:none;fill-rule:evenodd;fill:rgb(99.998474%,0%,0%);fill-opacity:1;" d="M 114.894531 121 C 114.894531 120.761719 114.800781 120.535156 114.632813 120.367188 C 114.464844 120.199219 114.238281 120.105469 114 120.105469 C 113.761719 120.105469 113.535156 120.199219 113.367188 120.367188 C 113.199219 120.535156 113.105469 120.761719 113.105469 121 C 113.105469 121.238281 113.199219 121.464844 113.367188 121.632813 C 113.535156 121.800781 113.761719 121.894531 114 121.894531 C 114.238281 121.894531 114.464844 121.800781 114.632813 121.632813 C 114.800781 121.464844 114.894531 121.238281 114.894531 121 Z M 114.894531 121 "/>
<path style=" stroke:none;fill-rule:evenodd;fill:rgb(99.998474%,0%,0%);fill-opacity:1;" d="M 101.894531 116 C 101.894531 115.761719 101.800781 115.535156 101.632813 115.367188 C 101.464844 115.199219 101.238281 115.105469 101 115.105469 C 100.761719 115.105469 100.535156 115.199219 100.367188 115.367188 C 100.199219 115.535156 100.105469 115.761719 100.105469 116 C 100.105469 116.238281 100.199219 116.464844 100.367188 116.632813 C 100.535156 116.800781 100.761719 116.894531 101 116.894531 C 101.238281 116.894531 101.464844 116.800781 101.632813 116.632813 C 101.800781 116.464844 101.894531 116.238281 101.894531 116 Z M 101.894531 116 "/>
<path style=" stroke:none;fill-rule:evenodd;fill:rgb(99.998474%,0%,0%);fill-opacity:1;" d="M 100.894531 114 C 100.894531 113.761719 100.800781 113.535156 100.632813 113.367188 C 100.464844 113.199219 100.238281 113.105469 100 113.105469 C 99.761719 113.105469 99.535156 113.199219 99.367188 113.367188 C 99.199219 113.535156 99.105469 113.761719 99.105469 114 C 99.105469 114.238281 99.199219 114.464844 99.367188 114.632813 C 99.535156 114.800781 99.761719 114.894531 100 114.894531 C 100.238281 114.894531 100.464844 114.800781 100.632813 114.632813 C 100.800781 114.464844 100.894531 114.238281 100.894531 114 Z M 100.894531 114 "/>
<path style=" stroke:none;fill-rule:evenodd;fill:rgb(99.998474%,0%,0%);fill-opacity:1;" d="M 100.894531 114 C 100.894531 113.761719 100.800781 113.535156 100.632813 113.367188 C 100.464844 113.199219 100.238281 113.105469 100 113.105469 C 99.761719 113.105469 99.535156 113.199219 99.367188 113.367188 C 99.199219 113.535156 99.105469 113.761719 99.105469 114 C 99.105469 114.238281 99.199219 114.464844 99.367188 114.632813 C 99.535156 114.800781 99.761719 114.894531 100 114.894531 C 100.238281 114.894531 100.464844 114.800781 100.632813 114.632813 C 100.800781 114.464844 100.894531 114.238281 100.894531 114 Z M 100.894531 114 "/>
<path style=" stroke:none;fill-rule:evenodd;fill:rgb(99.998474%,0%,0%);fill-opacity:1;" d="M 99.894531 114 C 99.894531 113.761719 99.800781 113.535156 99.632813 113.367188 C 99.464844 113.199219 99.238281 113.105469 99 113.105469 C 98.761719 113.105469 98.535156 113.199219 98.367188 113.367188 C 98.199219 113.535156 98.105469 113.761719 98.105469 114 C 98.105469 114.238281 98.199219 114.464844 98.367188 114.632813 C 98.535156 114.800781 98.761719 114.894531 99 114.894531 C 99.238281 114.894531 99.464844 114.800781 99.632813 114.632813 C 99.800781 114.464844 99.894531 114.238281 99.894531 114 Z M 99.894531 114 "/>
<path style=" stroke:none;fill-rule:evenodd;fill:rgb(99.998474%,0%,0%);fill-opacity:1;" d="M 91.894531 112 C 91.894531 111.761719 91.800781 111.535156 91.632813 111.367188 C 91.464844 111.199219 91.238281 111.105469 91 111.105469 C 90.761719 111.105469 90.535156 111.199219 90.367188 111.367188 C 90.199219 111.535156 90.105469 111.761719 90.105469 112 C 90.105469 112.238281 90.199219 112.464844 90.367188 112.632813 C 90.535156 112.800781 90.761719 112.894531 91 112.894531 C 91.238281 112.894531 91.464844 112.800781 91.632813 112.632813 C 91.800781 112.464844 91.894531 112.238281 91.894531 112 Z M 91.894531 112 "/>
<path style=" stroke:none;fill-rule:evenodd;fill:rgb(99.998474%,0%,0%);fill-opacity:1;" d="M 260.894531 99 C 260.894531 98.761719 260.800781 98.535156 260.632813 98.367188 C 260.464844 98.199219 260.238281 98.105469 260 98.105469 C 259.761719 98.105469 259.535156 98.199219 259.367188 98.367188 C 259.199219 98.535156 259.105469 98.761719 259.105469 99 C 259.105469 99.238281 259.199219 99.464844 259.367188 99.632813 C 259.535156 99.800781 259.761719 99.894531 260 99.894531 C 260.238281 99.894531 260.464844 99.800781 260.632813 99.632813 C 260.800781 99.464844 260.894531 99.238281 260.894531 99 Z M 260.894531 99 "/>
<path style=" stroke:none;fill-rule:evenodd;fill:rgb(99.998474%,0%,0%);fill-opacity:1;" d="M 122.894531 94 C 122.894531 93.761719 122.800781 93.535156 122.632813 93.367188 C 122.464844 93.199219 122.238281 93.105469 122 93.105469 C 121.761719 93.105469 121.535156 93.199219 121.367188 93.367188 C 121.199219 93.535156 121.105469 93.761719 121.105469 94 C 121.105469 94.238281 121.199219 94.464844 121.367188 94.632813 C 121.535156 94.800781 121.761719 94.894531 122 94.894531 C 122.238281 94.894531 122.464844 94.800781 122.632813 94.632813 C 122.800781 94.464844 122.894531 94.238281 122.894531 94 Z M 122.894531 94 "/>
<path style=" stroke:none;fill-rule:evenodd;fill:rgb(99.998474%,0%,0%);fill-opacity:1;" d="M 258.894531 82 C 258.894531 81.761719 258.800781 81.535156 258.632813 81.367188 C 258.464844 81.199219 258.238281 81.105469 258 81.105469 C 257.761719 81.105469 257.535156 81.199219 257.367188 81.367188 C 257.199219 81.535156 257.105469 81.761719 257.105469 82 C 257.105469 82.238281 257.199219 82.464844 257.367188 82.632813 C 257.535156 82.800781 257.761719 82.894531 258 82.894531 C 258.238281 82.894531 258.464844 82.800781 258.632813 82.632813 C 258.800781 82.464844 258.894531 82.238281 258.894531 82 Z M 258.894531 82 "/>
<path style=" stroke:none;fill-rule:evenodd;fill:rgb(99.998474%,0%,0%);fill-opacity:1;" d="M 290.894531 78 C 290.894531 77.761719 290.800781 77.535156 290.632813 77.367188 C 290.464844 77.199219 290.238281 77.105469 290 77.105469 C 289.761719 77.105469 289.535156 77.199219 289.367188 77.367188 C 289.199219 77.535156 289.105469 77.761719 289.105469 78 C 289.105469 78.238281 289.199219 78.464844 289.367188 78.632813 C 289.535156 78.800781 289.761719 78.894531 290 78.894531 C 290.238281 78.894531 290.464844 78.800781 290.632813 78.632813 C 290.800781 78.464844 290.894531 78.238281 290.894531 78 Z M 290.894531 78 "/>
<path style=" stroke:none;fill-rule:evenodd;fill:rgb(99.998474%,0%,0%);fill-opacity:1;" d="M 174.894531 72 C 174.894531 71.761719 174.800781 71.535156 174.632813 71.367188 C 174.464844 71.199219 174.238281 71.105469 174 71.105469 C 173.761719 71.105469 173.535156 71.199219 173.367188 71.367188 C 173.199219 71.535156 173.105469 71.761719 173.105469 72 C 173.105469 72.238281 173.199219 72.464844 173.367188 72.632813 C 173.535156 72.800781 173.761719 72.894531 174 72.894531 C 174.238281 72.894531 174.464844 72.800781 174.632813 72.632813 C 174.800781 72.464844 174.894531 72.238281 174.894531 72 Z M 174.894531 72 "/>
<path style=" stroke:none;fill-rule:evenodd;fill:rgb(99.998474%,0%,0%);fill-opacity:1;" d="M 174.894531 72 C 174.894531 71.761719 174.800781 71.535156 174.632813 71.367188 C 174.464844 71.199219 174.238281 71.105469 174 71.105469 C 173.761719 71.105469 173.535156 71.199219 173.367188 71.367188 C 173.199219 71.535156 173.105469 71.761719 173.105469 72 C 173.105469 72.238281 173.199219 72.464844 173.367188 72.632813 C 173.535156 72.800781 173.761719 72.894531 174 72.894531 C 174.238281 72.894531 174.464844 72.800781 174.632813 72.632813 C 174.800781 72.464844 174.894531 72.238281 174.894531 72 Z M 174.894531 72 "/>
<path style=" stroke:none;fill-rule:evenodd;fill:rgb(99.998474%,0%,0%);fill-opacity:1;" d="M 266.894531 60 C 266.894531 59.761719 266.800781 59.535156 266.632813 59.367188 C 266.464844 59.199219 266.238281 59.105469 266 59.105469 C 265.761719 59.105469 265.535156 59.199219 265.367188 59.367188 C 265.199219 59.535156 265.105469 59.761719 265.105469 60 C 265.105469 60.238281 265.199219 60.464844 265.367188 60.632813 C 265.535156 60.800781 265.761719 60.894531 266 60.894531 C 266.238281 60.894531 266.464844 60.800781 266.632813 60.632813 C 266.800781 60.464844 266.894531 60.238281 266.894531 60 Z M 266.894531 60 "/>
<path style=" stroke:none;fill-rule:evenodd;fill:rgb(99.998474%,0%,0%);fill-opacity:1;" d="M 22.894531 49 C 22.894531 48.761719 22.800781 48.535156 22.632813 48.367188 C 22.464844 48.199219 22.238281 48.105469 22 48.105469 C 21.761719 48.105469 21.535156 48.199219 21.367188 48.367188 C 21.199219 48.535156 21.105469 48.761719 21.105469 49 C 21.105469 49.238281 21.199219 49.464844 21.367188 49.632813 C 21.535156 49.800781 21.761719 49.894531 22 49.894531 C 22.238281 49.894531 22.464844 49.800781 22.632813 49.632813 C 22.800781 49.464844 22.894531 49.238281 22.894531 49 Z M 22.894531 49 "/>
<path style=" stroke:none;fill-rule:evenodd;fill:rgb(99.998474%,0%,0%);fill-opacity:1;" d="M 61.894531 41 C 61.894531 40.761719 61.800781 40.535156 61.632813 40.367188 C 61.464844 40.199219 61.238281 40.105469 61 40.105469 C 60.761719 40.105469 60.535156 40.199219 60.367188 40.367188 C 60.199219 40.535156 60.105469 40.761719 60.105469 41 C 60.105469 41.238281 60.199219 41.464844 60.367188 41.632813 C 60.535156 41.800781 60.761719 41.894531 61 41.894531 C 61.238281 41.894531 61.464844 41.800781 61.632813 41.632813 C 61.800781 41.464844 61.894531 41.238281 61.894531 41 Z M 61.894531 41 "/>
<path style=" stroke:none;fill-rule:evenodd;fill:rgb(99.998474%,0%,0%);fill-opacity:1;" d="M 91.894531 31 C 91.894531 30.761719 91.800781 30.535156 91.632813 30.367188 C 91.464844 30.199219 91.238281 30.105469 91 30.105469 C 90.761719 30.105469 90.535156 30.199219 90.367188 30.367188 C 90.199219 30.535156 90.105469 30.761719 90.105469 31 C 90.105469 31.238281 90.199219 31.464844 90.367188 31.632813 C 90.535156 31.800781 90.761719 31.894531 91 31.894531 C 91.238281 31.894531 91.464844 31.800781 91.632813 31.632813 C 91.800781 31.464844 91.894531 31.238281 91.894531 31 Z M 91.894531 31 "/>
<path style=" stroke:none;fill-rule:evenodd;fill:rgb(99.998474%,0%,0%);fill-opacity:1;" d="M 93.894531 31 C 93.894531 30.761719 93.800781 30.535156 93.632813 30.367188 C 93.464844 30.199219 93.238281 30.105469 93 30.105469 C 92.761719 30.105469 92.535156 30.199219 92.367188 30.367188 C 92.199219 30.535156 92.105469 30.761719 92.105469 31 C 92.105469 31.238281 92.199219 31.464844 92.367188 31.632813 C 92.535156 31.800781 92.761719 31.894531 93 31.894531 C 93.238281 31.894531 93.464844 31.800781 93.632813 31.632813 C 93.800781 31.464844 93.894531 31.238281 93.894531 31 Z M 93.894531 31 "/>
<path style=" stroke:none;fill-rule:evenodd;fill:rgb(99.998474%,0%,0%);fill-opacity:1;" d="M 233.894531 24 C 233.894531 23.761719 233.800781 23.535156 233.632813 23.367188 C 233.464844 23.199219 233.238281 23.105469 233 23.105469 C 232.761719 23.105469 232.535156 23.199219 232.367188 23.367188 C 232.199219 23.535156 232.105469 23.761719 232.105469 24 C 232.105469 24.238281 232.199219 24.464844 232.367188 24.632813 C 232.535156 24.800781 232.761719 24.894531 233 24.894531 C 233.238281 24.894531 233.464844 24.800781 233.632813 24.632813 C 233.800781 24.464844 233.894531 24.238281 233.894531 24 Z M 233.894531 24 "/>
<path style=" stroke:none;fill-rule:evenodd;fill:rgb(10.00061%,89.99939%,39.99939%);fill-opacity:1;" d="M 246.894531 340 C 246.894531 339.761719 246.800781 339.535156 246.632813 339.367188 C 246.464844 339.199219 246.238281 339.105469 246 339.105469 C 245.761719 339.105469 245.535156 339.199219 245.367188 339.367188 C 245.199219 339.535156 245.105469 339.761719 245.105469 340 C 245.105469 340.238281 245.199219 340.464844 245.367188 340.632813 C 245.535156 340.800781 245.761719 340.894531 246 340.894531 C 246.238281 340.894531 246.464844 340.800781 246.632813 340.632813 C 246.800781 340.464844 246.894531 340.238281 246.894531 340 Z M 246.894531 340 "/>
<path style=" stroke:none;fill-rule:evenodd;fill:rgb(10.00061%,89.99939%,39.99939%);fill-opacity:1;" d="M 133.894531 321 C 133.894531 320.761719 133.800781 320.535156 133.632813 320.367188 C 133.464844 320.199219 133.238281 320.105469 133 320.105469 C 132.761719 320.105469 132.535156 320.199219 132.367188 320.367188 C 132.199219 320.535156 132.105469 320.761719 132.105469 321 C 132.105469 321.238281 132.199219 321.464844 132.367188 321.632813 C 132.535156 321.800781 132.761719 321.894531 133 321.894531 C 133.238281 321.894531 133.464844 321.800781 133.632813 321.632813 C 133.800781 321.464844 133.894531 321.238281 133.894531 321 Z M 133.894531 321 "/>
<path style=" stroke:none;fill-rule:evenodd;fill:rgb(10.00061%,89.99939%,39.99939%);fill-opacity:1;" d="M 40.894531 315 C 40.894531 314.761719 40.800781 314.535156 40.632813 314.367188 C 40.464844 314.199219 40.238281 314.105469 40 314.105469 C 39.761719 314.105469 39.535156 314.199219 39.367188 314.367188 C 39.199219 314.535156 39.105469 314.761719 39.105469 315 C 39.105469 315.238281 39.199219 315.464844 39.367188 315.632813 C 39.535156 315.800781 39.761719 315.894531 40 315.894531 C 40.238281 315.894531 40.464844 315.800781 40.632813 315.632813 C 40.800781 315.464844 40.894531 315.238281 40.894531 315 Z M 40.894531 315 "/>
<path style=" stroke:none;fill-rule:evenodd;fill:rgb(10.00061%,89.99939%,39.99939%);fill-opacity:1;" d="M 151.894531 279 C 151.894531 278.761719 151.800781 278.535156 151.632813 278.367188 C 151.464844 278.199219 151.238281 278.105469 151 278.105469 C 150.761719 278.105469 150.535156 278.199219 150.367188 278.367188 C 150.199219 278.535156 150.105469 278.761719 150.105469 279 C 150.105469 279.238281 150.199219 279.464844 150.367188 279.632813 C 150.535156 279.800781 150.761719 279.894531 151 279.894531 C 151.238281 279.894531 151.464844 279.800781 151.632813 279.632813 C 151.800781 279.464844 151.894531 279.238281 151.894531 279 Z M 151.894531 279 "/>
<path style=" stroke:none;fill-rule:evenodd;fill:rgb(10.00061%,89.99939%,39.99939%);fill-opacity:1;" d="M 151.894531 279 C 151.894531 278.761719 151.800781 278.535156 151.632813 278.367188 C 151.464844 278.199219 151.238281 278.105469 151 278.105469 C 150.761719 278.105469 150.535156 278.199219 150.367188 278.367188 C 150.199219 278.535156 150.105469 278.761719 150.105469 279 C 150.105469 279.238281 150.199219 279.464844 150.367188 279.632813 C 150.535156 279.800781 150.761719 279.894531 151 279.894531 C 151.238281 279.894531 151.464844 279.800781 151.632813 279.632813 C 151.800781 279.464844 151.894531 279.238281 151.894531 279 Z M 151.894531 279 "/>
<path style=" stroke:none;fill-rule:evenodd;fill:rgb(10.00061%,89.99939%,39.99939%);fill-opacity:1;" d="M 114.894531 265 C 114.894531 264.761719 114.800781 264.535156 114.632813 264.367188 C 114.464844 264.199219 114.238281 264.105469 114 264.105469 C 113.761719 264.105469 113.535156 264.199219 113.367188 264.367188 C 113.199219 264.535156 113.105469 264.761719 113.105469 265 C 113.105469 265.238281 113.199219 265.464844 113.367188 265.632813 C 113.535156 265.800781 113.761719 265.894531 114 265.894531 C 114.238281 265.894531 114.464844 265.800781 114.632813 265.632813 C 114.800781 265.464844 114.894531 265.238281 114.894531 265 Z M 114.894531 265 "/>
<path style=" stroke:none;fill-rule:evenodd;fill:rgb(10.00061%,89.99939%,39.99939%);fill-opacity:1;" d="M 314.894531 260 C 314.894531 259.761719 314.800781 259.535156 314.632813 259.367188 C 314.464844 259.199219 314.238281 259.105469 314 259.105469 C 313.761719 259.105469 313.535156 259.199219 313.367188 259.367188 C 313.199219 259.535156 313.105469 259.761719 313.105469 260 C 313.105469 260.238281 313.199219 260.464844 313.367188 260.632813 C 313.535156 260.800781 313.761719 260.894531 314 260.894531 C 314.238281 260.894531 314.464844 260.800781 314.632813 260.632813 C 314.800781 260.464844 314.894531 260.238281 314.894531 260 Z M 314.894531 260 "/>
<path style=" stroke:none;fill-rule:evenodd;fill:rgb(10.00061%,89.99939%,39.99939%);fill-opacity:1;" d="M 220.894531 256 C 220.894531 255.761719 220.800781 255.535156 220.632813 255.367188 C 220.464844 255.199219 220.238281 255.105469 220 255.105469 C 219.761719 255.105469 219.535156 255.199219 219.367188 255.367188 C 219.199219 255.535156 219.105469 255.761719 219.105469 256 C 219.105469 256.238281 219.199219 256.464844 219.367188 256.632813 C 219.535156 256.800781 219.761719 256.894531 220 256.894531 C 220.238281 256.894531 220.464844 256.800781 220.632813 256.632813 C 220.800781 256.464844 220.894531 256.238281 220.894531 256 Z M 220.894531 256 "/>
<path style=" stroke:none;fill-rule:evenodd;fill:rgb(10.00061%,89.99939%,39.99939%);fill-opacity:1;" d="M 255.894531 236 C 255.894531 235.761719 255.800781 235.535156 255.632813 235.367188 C 255.464844 235.199219 255.238281 235.105469 255 235.105469 C 254.761719 235.105469 254.535156 235.199219 254.367188 235.367188 C 254.199219 235.535156 254.105469 235.761719 254.105469 236 C 254.105469 236.238281 254.199219 236.464844 254.367188 236.632813 C 254.535156 236.800781 254.761719 236.894531 255 236.894531 C 255.238281 236.894531 255.464844 236.800781 255.632813 236.632813 C 255.800781 236.464844 255.894531 236.238281 255.894531 236 Z M 255.894531 236 "/>
<path style=" stroke:none;fill-rule:evenodd;fill:rgb(10.00061%,89.99939%,39.99939%);fill-opacity:1;" d="M 91.894531 223 C 91.894531 222.761719 91.800781 222.535156 91.632813 222.367188 C 91.464844 222.199219 91.238281 222.105469 91 222.105469 C 90.761719 222.105469 90.535156 222.199219 90.367188 222.367188 C 90.199219 222.535156 90.105469 222.761719 90.105469 223 C 90.105469 223.238281 90.199219 223.464844 90.367188 223.632813 C 90.535156 223.800781 90.761719 223.894531 91 223.894531 C 91.238281 223.894531 91.464844 223.800781 91.632813 223.632813 C 91.800781 223.464844 91.894531 223.238281 91.894531 223 Z M 91.894531 223 "/>
<path style=" stroke:none;fill-rule:evenodd;fill:rgb(10.00061%,89.99939%,39.99939%);fill-opacity:1;" d="M 202.894531 215 C 202.894531 214.761719 202.800781 214.535156 202.632813 214.367188 C 202.464844 214.199219 202.238281 214.105469 202 214.105469 C 201.761719 214.105469 201.535156 214.199219 201.367188 214.367188 C 201.199219 214.535156 201.105469 214.761719 201.105469 215 C 201.105469 215.238281 201.199219 215.464844 201.367188 215.632813 C 201.535156 215.800781 201.761719 215.894531 202 215.894531 C 202.238281 215.894531 202.464844 215.800781 202.632813 215.632813 C 202.800781 215.464844 202.894531 215.238281 202.894531 215 Z M 202.894531 215 "/>
<path style=" stroke:none;fill-rule:evenodd;fill:rgb(10.00061%,89.99939%,39.99939%);fill-opacity:1;" d="M 139.894531 213 C 139.894531 212.761719 139.800781 212.535156 139.632813 212.367188 C 139.464844 212.199219 139.238281 212.105469 139 212.105469 C 138.761719 212.105469 138.535156 212.199219 138.367188 212.367188 C 138.199219 212.535156 138.105469 212.761719 138.105469 213 C 138.105469 213.238281 138.199219 213.464844 138.367188 213.632813 C 138.535156 213.800781 138.761719 213.894531 139 213.894531 C 139.238281 213.894531 139.464844 213.800781 139.632813 213.632813 C 139.800781 213.464844 139.894531 213.238281 139.894531 213 Z M 139.894531 213 "/>
<path style=" stroke:none;fill-rule:evenodd;fill:rgb(10.00061%,89.99939%,39.99939%);fill-opacity:1;" d="M 139.894531 212 C 139.894531 211.761719 139.800781 211.535156 139.632813 211.367188 C 139.464844 211.199219 139.238281 211.105469 139 211.105469 C 138.761719 211.105469 138.535156 211.199219 138.367188 211.367188 C 138.199219 211.535156 138.105469 211.761719 138.105469 212 C 138.105469 212.238281 138.199219 212.464844 138.367188 212.632813 C 138.535156 212.800781 138.761719 212.894531 139 212.894531 C 139.238281 212.894531 139.464844 212.800781 139.632813 212.632813 C 139.800781 212.464844 139.894531 212.238281 139.894531 212 Z M 139.894531 212 "/>
<path style=" stroke:none;fill-rule:evenodd;fill:rgb(10.00061%,89.99939%,39.99939%);fill-opacity:1;" d="M 343.894531 200 C 343.894531 199.761719 343.800781 199.535156 343.632813 199.367188 C 343.464844 199.199219 343.238281 199.105469 343 199.105469 C 342.761719 199.105469 342.535156 199.199219 342.367188 199.367188 C 342.199219 199.535156 342.105469 199.761719 342.105469 200 C 342.105469 200.238281 342.199219 200.464844 342.367188 200.632813 C 342.535156 200.800781 342.761719 200.894531 343 200.894531 C 343.238281 200.894531 343.464844 200.800781 343.632813 200.632813 C 343.800781 200.464844 343.894531 200.238281 343.894531 200 Z M 343.894531 200 "/>
<path style=" stroke:none;fill-rule:evenodd;fill:rgb(10.00061%,89.99939%,39.99939%);fill-opacity:1;" d="M 35.894531 179 C 35.894531 178.761719 35.800781 178.535156 35.632813 178.367188 C 35.464844 178.199219 35.238281 178.105469 35 178.105469 C 34.761719 178.105469 34.535156 178.199219 34.367188 178.367188 C 34.199219 178.535156 34.105469 178.761719 34.105469 179 C 34.105469 179.238281 34.199219 179.464844 34.367188 179.632813 C 34.535156 179.800781 34.761719 179.894531 35 179.894531 C 35.238281 179.894531 35.464844 179.800781 35.632813 179.632813 C 35.800781 179.464844 35.894531 179.238281 35.894531 179 Z M 35.894531 179 "/>
<path style=" stroke:none;fill-rule:evenodd;fill:rgb(10.00061%,89.99939%,39.99939%);fill-opacity:1;" d="M 152.894531 142 C 152.894531 141.761719 152.800781 141.535156 152.632813 141.367188 C 152.464844 141.199219 152.238281 141.105469 152 141.105469 C 151.761719 141.105469 151.535156 141.199219 151.367188 141.367188 C 151.199219 141.535156 151.105469 141.761719 151.105469 142 C 151.105469 142.238281 151.199219 142.464844 151.367188 142.632813 C 151.535156 142.800781 151.761719 142.894531 152 142.894531 C 152.238281 142.894531 152.464844 142.800781 152.632813 142.632813 C 152.800781 142.464844 152.894531 142.238281 152.894531 142 Z M 152.894531 142 "/>
<path style=" stroke:none;fill-rule:evenodd;fill:rgb(10.00061%,89.99939%,39.99939%);fill-opacity:1;" d="M 152.894531 142 C 152.894531 141.761719 152.800781 141.535156 152.632813 141.367188 C 152.464844 141.199219 152.238281 141.105469 152 141.105469 C 151.761719 141.105469 151.535156 141.199219 151.367188 141.367188 C 151.199219 141.535156 151.105469 141.761719 151.105469 142 C 151.105469 142.238281 151.199219 142.464844 151.367188 142.632813 C 151.535156 142.800781 151.761719 142.894531 152 142.894531 C 152.238281 142.894531 152.464844 142.800781 152.632813 142.632813 C 152.800781 142.464844 152.894531 142.238281 152.894531 142 Z M 152.894531 142 "/>
<path style=" stroke:none;fill-rule:evenodd;fill:rgb(10.00061%,89.99939%,39.99939%);fill-opacity:1;" d="M 118.894531 129 C 118.894531 128.761719 118.800781 128.535156 118.632813 128.367188 C 118.464844 128.199219 118.238281 128.105469 118 128.105469 C 117.761719 128.105469 117.535156 128.199219 117.367188 128.367188 C 117.199219 128.535156 117.105469 128.761719 117.105469 129 C 117.105469 129.238281 117.199219 129.464844 117.367188 129.632813 C 117.535156 129.800781 117.761719 129.894531 118 129.894531 C 118.238281 129.894531 118.464844 129.800781 118.632813 129.632813 C 118.800781 129.464844 118.894531 129.238281 118.894531 129 Z M 118.894531 129 "/>
<path style=" stroke:none;fill-rule:evenodd;fill:rgb(10.00061%,89.99939%,39.99939%);fill-opacity:1;" d="M 30.894531 120 C 30.894531 119.761719 30.800781 119.535156 30.632813 119.367188 C 30.464844 119.199219 30.238281 119.105469 30 119.105469 C 29.761719 119.105469 29.535156 119.199219 29.367188 119.367188 C 29.199219 119.535156 29.105469 119.761719 29.105469 120 C 29.105469 120.238281 29.199219 120.464844 29.367188 120.632813 C 29.535156 120.800781 29.761719 120.894531 30 120.894531 C 30.238281 120.894531 30.464844 120.800781 30.632813 120.632813 C 30.800781 120.464844 30.894531 120.238281 30.894531 120 Z M 30.894531 120 "/>
<path style=" stroke:none;fill-rule:evenodd;fill:rgb(10.00061%,89.99939%,39.99939%);fill-opacity:1;" d="M 91.894531 111 C 91.894531 110.761719 91.800781 110.535156 91.632813 110.367188 C 91.464844 110.199219 91.238281 110.105469 91 110.105469 C 90.761719 110.105469 90.535156 110.199219 90.367188 110.367188 C 90.199219 110.535156 90.105469 110.761719 90.105469 111 C 90.105469 111.238281 90.199219 111.464844 90.367188 111.632813 C 90.535156 111.800781 90.761719 111.894531 91 111.894531 C 91.238281 111.894531 91.464844 111.800781 91.632813 111.632813 C 91.800781 111.464844 91.894531 111.238281 91.894531 111 Z M 91.894531 111 "/>
<path style=" stroke:none;fill-rule:evenodd;fill:rgb(10.00061%,89.99939%,39.99939%);fill-opacity:1;" d="M 219.894531 104 C 219.894531 103.761719 219.800781 103.535156 219.632813 103.367188 C 219.464844 103.199219 219.238281 103.105469 219 103.105469 C 218.761719 103.105469 218.535156 103.199219 218.367188 103.367188 C 218.199219 103.535156 218.105469 103.761719 218.105469 104 C 218.105469 104.238281 218.199219 104.464844 218.367188 104.632813 C 218.535156 104.800781 218.761719 104.894531 219 104.894531 C 219.238281 104.894531 219.464844 104.800781 219.632813 104.632813 C 219.800781 104.464844 219.894531 104.238281 219.894531 104 Z M 219.894531 104 "/>
<path style=" stroke:none;fill-rule:evenodd;fill:rgb(10.00061%,89.99939%,39.99939%);fill-opacity:1;" d="M 219.894531 104 C 219.894531 103.761719 219.800781 103.535156 219.632813 103.367188 C 219.464844 103.199219 219.238281 103.105469 219 103.105469 C 218.761719 103.105469 218.535156 103.199219 218.367188 103.367188 C 218.199219 103.535156 218.105469 103.761719 218.105469 104 C 218.105469 104.238281 218.199219 104.464844 218.367188 104.632813 C 218.535156 104.800781 218.761719 104.894531 219 104.894531 C 219.238281 104.894531 219.464844 104.800781 219.632813 104.632813 C 219.800781 104.464844 219.894531 104.238281 219.894531 104 Z M 219.894531 104 "/>
<path style=" stroke:none;fill-rule:evenodd;fill:rgb(10.00061%,89.99939%,39.99939%);fill-opacity:1;" d="M 115.894531 103 C 115.894531 102.761719 115.800781 102.535156 115.632813 102.367188 C 115.464844 102.199219 115.238281 102.105469 115 102.105469 C 114.761719 102.105469 114.535156 102.199219 114.367188 102.367188 C 114.199219 102.535156 114.105469 102.761719 114.105469 103 C 114.105469 103.238281 114.199219 103.464844 114.367188 103.632813 C 114.535156 103.800781 114.761719 103.894531 115 103.894531 C 115.238281 103.894531 115.464844 103.800781 115.632813 103.632813 C 115.800781 103.464844 115.894531 103.238281 115.894531 103 Z M 115.894531 103 "/>
<path style=" stroke:none;fill-rule:evenodd;fill:rgb(10.00061%,89.99939%,39.99939%);fill-opacity:1;" d="M 109.894531 65 C 109.894531 64.761719 109.800781 64.535156 109.632813 64.367188 C 109.464844 64.199219 109.238281 64.105469 109 64.105469 C 108.761719 64.105469 108.535156 64.199219 108.367188 64.367188 C 108.199219 64.535156 108.105469 64.761719 108.105469 65 C 108.105469 65.238281 108.199219 65.464844 108.367188 65.632813 C 108.535156 65.800781 108.761719 65.894531 109 65.894531 C 109.238281 65.894531 109.464844 65.800781 109.632813 65.632813 C 109.800781 65.464844 109.894531 65.238281 109.894531 65 Z M 109.894531 65 "/>
<path style=" stroke:none;fill-rule:evenodd;fill:rgb(10.00061%,89.99939%,39.99939%);fill-opacity:1;" d="M 87.894531 60 C 87.894531 59.761719 87.800781 59.535156 87.632813 59.367188 C 87.464844 59.199219 87.238281 59.105469 87 59.105469 C 86.761719 59.105469 86.535156 59.199219 86.367188 59.367188 C 86.199219 59.535156 86.105469 59.761719 86.105469 60 C 86.105469 60.238281 86.199219 60.464844 86.367188 60.632813 C 86.535156 60.800781 86.761719 60.894531 87 60.894531 C 87.238281 60.894531 87.464844 60.800781 87.632813 60.632813 C 87.800781 60.464844 87.894531 60.238281 87.894531 60 Z M 87.894531 60 "/>
<path style=" stroke:none;fill-rule:evenodd;fill:rgb(10.00061%,89.99939%,39.99939%);fill-opacity:1;" d="M 128.894531 53 C 128.894531 52.761719 128.800781 52.535156 128.632813 52.367188 C 128.464844 52.199219 128.238281 52.105469 128 52.105469 C 127.761719 52.105469 127.535156 52.199219 127.367188 52.367188 C 127.199219 52.535156 127.105469 52.761719 127.105469 53 C 127.105469 53.238281 127.199219 53.464844 127.367188 53.632813 C 127.535156 53.800781 127.761719 53.894531 128 53.894531 C 128.238281 53.894531 128.464844 53.800781 128.632813 53.632813 C 128.800781 53.464844 128.894531 53.238281 128.894531 53 Z M 128.894531 53 "/>
<path style=" stroke:none;fill-rule:evenodd;fill:rgb(10.00061%,89.99939%,39.99939%);fill-opacity:1;" d="M 164.894531 43 C 164.894531 42.761719 164.800781 42.535156 164.632813 42.367188 C 164.464844 42.199219 164.238281 42.105469 164 42.105469 C 163.761719 42.105469 163.535156 42.199219 163.367188 42.367188 C 163.199219 42.535156 163.105469 42.761719 163.105469 43 C 163.105469 43.238281 163.199219 43.464844 163.367188 43.632813 C 163.535156 43.800781 163.761719 43.894531 164 43.894531 C 164.238281 43.894531 164.464844 43.800781 164.632813 43.632813 C 164.800781 43.464844 164.894531 43.238281 164.894531 43 Z M 164.894531 43 "/>
<path style=" stroke:none;fill-rule:evenodd;fill:rgb(10.00061%,89.99939%,39.99939%);fill-opacity:1;" d="M 98.894531 43 C 98.894531 42.761719 98.800781 42.535156 98.632813 42.367188 C 98.464844 42.199219 98.238281 42.105469 98 42.105469 C 97.761719 42.105469 97.535156 42.199219 97.367188 42.367188 C 97.199219 42.535156 97.105469 42.761719 97.105469 43 C 97.105469 43.238281 97.199219 43.464844 97.367188 43.632813 C 97.535156 43.800781 97.761719 43.894531 98 43.894531 C 98.238281 43.894531 98.464844 43.800781 98.632813 43.632813 C 98.800781 43.464844 98.894531 43.238281 98.894531 43 Z M 98.894531 43 "/>
<path style=" stroke:none;fill-rule:evenodd;fill:rgb(10.00061%,89.99939%,39.99939%);fill-opacity:1;" d="M 126.894531 43 C 126.894531 42.761719 126.800781 42.535156 126.632813 42.367188 C 126.464844 42.199219 126.238281 42.105469 126 42.105469 C 125.761719 42.105469 125.535156 42.199219 125.367188 42.367188 C 125.199219 42.535156 125.105469 42.761719 125.105469 43 C 125.105469 43.238281 125.199219 43.464844 125.367188 43.632813 C 125.535156 43.800781 125.761719 43.894531 126 43.894531 C 126.238281 43.894531 126.464844 43.800781 126.632813 43.632813 C 126.800781 43.464844 126.894531 43.238281 126.894531 43 Z M 126.894531 43 "/>
<path style=" stroke:none;fill-rule:evenodd;fill:rgb(10.00061%,89.99939%,39.99939%);fill-opacity:1;" d="M 101.894531 42 C 101.894531 41.761719 101.800781 41.535156 101.632813 41.367188 C 101.464844 41.199219 101.238281 41.105469 101 41.105469 C 100.761719 41.105469 100.535156 41.199219 100.367188 41.367188 C 100.199219 41.535156 100.105469 41.761719 100.105469 42 C 100.105469 42.238281 100.199219 42.464844 100.367188 42.632813 C 100.535156 42.800781 100.761719 42.894531 101 42.894531 C 101.238281 42.894531 101.464844 42.800781 101.632813 42.632813 C 101.800781 42.464844 101.894531 42.238281 101.894531 42 Z M 101.894531 42 "/>
<path style=" stroke:none;fill-rule:evenodd;fill:rgb(10.00061%,89.99939%,39.99939%);fill-opacity:1;" d="M 209.894531 42 C 209.894531 41.761719 209.800781 41.535156 209.632813 41.367188 C 209.464844 41.199219 209.238281 41.105469 209 41.105469 C 208.761719 41.105469 208.535156 41.199219 208.367188 41.367188 C 208.199219 41.535156 208.105469 41.761719 208.105469 42 C 208.105469 42.238281 208.199219 42.464844 208.367188 42.632813 C 208.535156 42.800781 208.761719 42.894531 209 42.894531 C 209.238281 42.894531 209.464844 42.800781 209.632813 42.632813 C 209.800781 42.464844 209.894531 42.238281 209.894531 42 Z M 209.894531 42 "/>
<path style=" stroke:none;fill-rule:evenodd;fill:rgb(10.00061%,89.99939%,39.99939%);fill-opacity:1;" d="M 74.894531 39 C 74.894531 38.761719 74.800781 38.535156 74.632813 38.367188 C 74.464844 38.199219 74.238281 38.105469 74 38.105469 C 73.761719 38.105469 73.535156 38.199219 73.367188 38.367188 C 73.199219 38.535156 73.105469 38.761719 73.105469 39 C 73.105469 39.238281 73.199219 39.464844 73.367188 39.632813 C 73.535156 39.800781 73.761719 39.894531 74 39.894531 C 74.238281 39.894531 74.464844 39.800781 74.632813 39.632813 C 74.800781 39.464844 74.894531 39.238281 74.894531 39 Z M 74.894531 39 "/>
<path style=" stroke:none;fill-rule:evenodd;fill:rgb(10.00061%,89.99939%,39.99939%);fill-opacity:1;" d="M 128.894531 37 C 128.894531 36.761719 128.800781 36.535156 128.632813 36.367188 C 128.464844 36.199219 128.238281 36.105469 128 36.105469 C 127.761719 36.105469 127.535156 36.199219 127.367188 36.367188 C 127.199219 36.535156 127.105469 36.761719 127.105469 37 C 127.105469 37.238281 127.199219 37.464844 127.367188 37.632813 C 127.535156 37.800781 127.761719 37.894531 128 37.894531 C 128.238281 37.894531 128.464844 37.800781 128.632813 37.632813 C 128.800781 37.464844 128.894531 37.238281 128.894531 37 Z M 128.894531 37 "/>
<path style=" stroke:none;fill-rule:evenodd;fill:rgb(10.00061%,89.99939%,39.99939%);fill-opacity:1;" d="M 74.894531 37 C 74.894531 36.761719 74.800781 36.535156 74.632813 36.367188 C 74.464844 36.199219 74.238281 36.105469 74 36.105469 C 73.761719 36.105469 73.535156 36.199219 73.367188 36.367188 C 73.199219 36.535156 73.105469 36.761719 73.105469 37 C 73.105469 37.238281 73.199219 37.464844 73.367188 37.632813 C 73.535156 37.800781 73.761719 37.894531 74 37.894531 C 74.238281 37.894531 74.464844 37.800781 74.632813 37.632813 C 74.800781 37.464844 74.894531 37.238281 74.894531 37 Z M 74.894531 37 "/>
<path style=" stroke:none;fill-rule:evenodd;fill:rgb(10.00061%,89.99939%,39.99939%);fill-opacity:1;" d="M 70.894531 19 C 70.894531 18.761719 70.800781 18.535156 70.632813 18.367188 C 70.464844 18.199219 70.238281 18.105469 70 18.105469 C 69.761719 18.105469 69.535156 18.199219 69.367188 18.367188 C 69.199219 18.535156 69.105469 18.761719 69.105469 19 C 69.105469 19.238281 69.199219 19.464844 69.367188 19.632813 C 69.535156 19.800781 69.761719 19.894531 70 19.894531 C 70.238281 19.894531 70.464844 19.800781 70.632813 19.632813 C 70.800781 19.464844 70.894531 19.238281 70.894531 19 Z M 70.894531 19 "/>
<path style=" stroke:none;fill-rule:evenodd;fill:rgb(10.00061%,89.99939%,39.99939%);fill-opacity:1;" d="M 81.894531 14 C 81.894531 13.761719 81.800781 13.535156 81.632813 13.367188 C 81.464844 13.199219 81.238281 13.105469 81 13.105469 C 80.761719 13.105469 80.535156 13.199219 80.367188 13.367188 C 80.199219 13.535156 80.105469 13.761719 80.105469 14 C 80.105469 14.238281 80.199219 14.464844 80.367188 14.632813 C 80.535156 14.800781 80.761719 14.894531 81 14.894531 C 81.238281 14.894531 81.464844 14.800781 81.632813 14.632813 C 81.800781 14.464844 81.894531 14.238281 81.894531 14 Z M 81.894531 14 "/>
<path style=" stroke:none;fill-rule:evenodd;fill:rgb(10.00061%,89.99939%,39.99939%);fill-opacity:1;" d="M 83.894531 10 C 83.894531 9.761719 83.800781 9.535156 83.632813 9.367188 C 83.464844 9.199219 83.238281 9.105469 83 9.105469 C 82.761719 9.105469 82.535156 9.199219 82.367188 9.367188 C 82.199219 9.535156 82.105469 9.761719 82.105469 10 C 82.105469 10.238281 82.199219 10.464844 82.367188 10.632813 C 82.535156 10.800781 82.761719 10.894531 83 10.894531 C 83.238281 10.894531 83.464844 10.800781 83.632813 10.632813 C 83.800781 10.464844 83.894531 10.238281 83.894531 10 Z M 83.894531 10 "/>
</g>
</svg>
