<?xml version="1.0" encoding="UTF-8"?>
<svg xmlns="http://www.w3.org/2000/svg" xmlns:xlink="http://www.w3.org/1999/xlink" width="350pt" height="254pt" viewBox="0 0 350 254" version="1.1">
<g id="surface2281">
<path style="fill-rule:nonzero;fill:rgb(84.999084%,84.999084%,84.999084%);fill-opacity:0.6;stroke-width:1;stroke-linecap:square;stroke-linejoin:miter;stroke:rgb(50%,50%,50%);stroke-opacity:1;stroke-miterlimit:3.25;" d="M 105.203125 140.03125 L 158.71875 174.972656 L 109.039063 138.753906 Z M 105.203125 140.03125 " transform="matrix(1,0,0,1,-74,-13)"/>
<path style="fill-rule:nonzero;fill:rgb(84.999084%,84.999084%,84.999084%);fill-opacity:0.6;stroke-width:1;stroke-linecap:square;stroke-linejoin:miter;stroke:rgb(50%,50%,50%);stroke-opacity:1;stroke-miterlimit:3.25;" d="M 158.71875 174.972656 L 105.203125 140.03125 L 158.816406 175.398438 Z M 158.71875 174.972656 " transform="matrix(1,0,0,1,-74,-13)"/>
<path style="fill-rule:nonzero;fill:rgb(84.999084%,84.999084%,84.999084%);fill-opacity:0.6;stroke-width:1;stroke-linecap:square;stroke-linejoin:miter;stroke:rgb(50%,50%,50%);stroke-opacity:1;stroke-miterlimit:3.25;" d="M 158.816406 175.398438 L 203.691406 210.234375 L 167.808594 181.753906 Z M 158.816406 175.398438 " transform="matrix(1,0,0,1,-74,-13)"/>
<path style="fill-rule:nonzero;fill:rgb(84.999084%,84.999084%,84.999084%);fill-opacity:0.6;stroke-width:1;stroke-linecap:square;stroke-linejoin:miter;stroke:rgb(50%,50%,50%);stroke-opacity:1;stroke-miterlimit:3.25;" d="M 97.25 137.507813 L 203.691406 210.234375 L 158.816406 175.398438 Z M 97.25 137.507813 " transform="matrix(1,0,0,1,-74,-13)"/>
<path style="fill-rule:nonzero;fill:rgb(84.999084%,84.999084%,84.999084%);fill-opacity:0.6;stroke-width:1;stroke-linecap:square;stroke-linejoin:miter;stroke:rgb(50%,50%,50%);stroke-opacity:1;stroke-miterlimit:3.25;" d="M 135.566406 91.574219 L 167.808594 181.753906 L 257.617188 38.125 Z M 135.566406 91.574219 " transform="matrix(1,0,0,1,-74,-13)"/>
<path style="fill-rule:nonzero;fill:rgb(84.999084%,84.999084%,84.999084%);fill-opacity:0.6;stroke-width:1;stroke-linecap:square;stroke-linejoin:miter;stroke:rgb(50%,50%,50%);stroke-opacity:1;stroke-miterlimit:3.25;" d="M 158.816406 175.398438 L 167.808594 181.753906 L 158.71875 174.972656 Z M 158.816406 175.398438 " transform="matrix(1,0,0,1,-74,-13)"/>
<path style="fill-rule:nonzero;fill:rgb(84.999084%,84.999084%,84.999084%);fill-opacity:0.6;stroke-width:1;stroke-linecap:square;stroke-linejoin:miter;stroke:rgb(50%,50%,50%);stroke-opacity:1;stroke-miterlimit:3.25;" d="M 158.816406 175.398438 L 105.203125 140.03125 L 98.320313 138.058594 Z M 158.816406 175.398438 " transform="matrix(1,0,0,1,-74,-13)"/>
<path style="fill-rule:nonzero;fill:rgb(84.999084%,84.999084%,84.999084%);fill-opacity:0.6;stroke-width:1;stroke-linecap:square;stroke-linejoin:miter;stroke:rgb(50%,50%,50%);stroke-opacity:1;stroke-miterlimit:3.25;" d="M 158.71875 174.972656 L 167.808594 181.753906 L 135.566406 91.574219 Z M 158.71875 174.972656 " transform="matrix(1,0,0,1,-74,-13)"/>
<path style="fill-rule:nonzero;fill:rgb(84.999084%,84.999084%,84.999084%);fill-opacity:0.6;stroke-width:1;stroke-linecap:square;stroke-linejoin:miter;stroke:rgb(50%,50%,50%);stroke-opacity:1;stroke-miterlimit:3.25;" d="M 97.25 137.507813 L 98.320313 138.058594 L 109.039063 138.753906 Z M 97.25 137.507813 " transform="matrix(1,0,0,1,-74,-13)"/>
<path style="fill-rule:nonzero;fill:rgb(84.999084%,84.999084%,84.999084%);fill-opacity:0.6;stroke-width:1;stroke-linecap:square;stroke-linejoin:miter;stroke:rgb(50%,50%,50%);stroke-opacity:1;stroke-miterlimit:3.25;" d="M 98.320313 138.058594 L 97.25 137.507813 L 158.816406 175.398438 Z M 98.320313 138.058594 " transform="matrix(1,0,0,1,-74,-13)"/>
<path style="fill-rule:nonzero;fill:rgb(84.999084%,84.999084%,84.999084%);fill-opacity:0.6;stroke-width:1;stroke-linecap:square;stroke-linejoin:miter;stroke:rgb(50%,50%,50%);stroke-opacity:1;stroke-miterlimit:3.25;" d="M 109.039063 138.753906 L 135.566406 91.574219 L 135.304688 91.640625 Z M 109.039063 138.753906 " transform="matrix(1,0,0,1,-74,-13)"/>
<path style="fill-rule:nonzero;fill:rgb(84.999084%,84.999084%,84.999084%);fill-opacity:0.6;stroke-width:1;stroke-linecap:square;stroke-linejoin:miter;stroke:rgb(50%,50%,50%);stroke-opacity:1;stroke-miterlimit:3.25;" d="M 135.566406 91.574219 L 109.039063 138.753906 L 158.71875 174.972656 Z M 135.566406 91.574219 " transform="matrix(1,0,0,1,-74,-13)"/>
<path style="fill-rule:nonzero;fill:rgb(84.999084%,84.999084%,84.999084%);fill-opacity:0.6;stroke-width:1;stroke-linecap:square;stroke-linejoin:miter;stroke:rgb(50%,50%,50%);stroke-opacity:1;stroke-miterlimit:3.25;" d="M 135.304688 91.640625 L 135.566406 91.574219 L 257.617188 38.125 Z M 135.304688 91.640625 " transform="matrix(1,0,0,1,-74,-13)"/>
<path style="fill-rule:nonzero;fill:rgb(84.999084%,84.999084%,84.999084%);fill-opacity:0.6;stroke-width:1;stroke-linecap:square;stroke-linejoin:miter;stroke:rgb(50%,50%,50%);stroke-opacity:1;stroke-miterlimit:3.25;" d="M 109.039063 138.753906 L 135.304688 91.640625 L 97.25 137.507813 Z M 109.039063 138.753906 " transform="matrix(1,0,0,1,-74,-13)"/>
<path style="fill-rule:nonzero;fill:rgb(84.999084%,84.999084%,84.999084%);fill-opacity:0.6;stroke-width:1;stroke-linecap:square;stroke-linejoin:miter;stroke:rgb(50%,50%,50%);stroke-opacity:1;stroke-miterlimit:3.25;" d="M 98.320313 138.058594 L 105.203125 140.03125 L 109.039063 138.753906 Z M 98.320313 138.058594 " transform="matrix(1,0,0,1,-74,-13)"/>
<path style="fill-rule:nonzero;fill:rgb(84.999084%,84.999084%,84.999084%);fill-opacity:0.6;stroke-width:1;stroke-linecap:square;stroke-linejoin:miter;stroke:rgb(50%,50%,50%);stroke-opacity:1;stroke-miterlimit:3.25;" d="M 167.808594 181.753906 L 203.691406 210.234375 L 204.179688 209.835938 Z M 167.808594 181.753906 " transform="matrix(1,0,0,1,-74,-13)"/>
<path style="fill-rule:nonzero;fill:rgb(84.999084%,84.999084%,84.999084%);fill-opacity:0.6;stroke-width:1;stroke-linecap:square;stroke-linejoin:miter;stroke:rgb(50%,50%,50%);stroke-opacity:1;stroke-miterlimit:3.25;" d="M 354.734375 265.246094 L 355.246094 264.0625 L 204.179688 209.835938 Z M 354.734375 265.246094 " transform="matrix(1,0,0,1,-74,-13)"/>
<path style="fill-rule:nonzero;fill:rgb(84.999084%,84.999084%,84.999084%);fill-opacity:0.6;stroke-width:1;stroke-linecap:square;stroke-linejoin:miter;stroke:rgb(50%,50%,50%);stroke-opacity:1;stroke-miterlimit:3.25;" d="M 355.246094 264.0625 L 354.734375 265.246094 L 357.152344 263.066406 Z M 355.246094 264.0625 " transform="matrix(1,0,0,1,-74,-13)"/>
<path style="fill-rule:nonzero;fill:rgb(84.999084%,84.999084%,84.999084%);fill-opacity:0.6;stroke-width:1;stroke-linecap:square;stroke-linejoin:miter;stroke:rgb(50%,50%,50%);stroke-opacity:1;stroke-miterlimit:3.25;" d="M 354.734375 265.246094 L 359.613281 262.402344 L 357.152344 263.066406 Z M 354.734375 265.246094 " transform="matrix(1,0,0,1,-74,-13)"/>
<path style="fill-rule:nonzero;fill:rgb(84.999084%,84.999084%,84.999084%);fill-opacity:0.6;stroke-width:1;stroke-linecap:square;stroke-linejoin:miter;stroke:rgb(50%,50%,50%);stroke-opacity:1;stroke-miterlimit:3.25;" d="M 359.613281 262.402344 L 354.734375 265.246094 L 422.042969 263.511719 Z M 359.613281 262.402344 " transform="matrix(1,0,0,1,-74,-13)"/>
<path style="fill-rule:nonzero;fill:rgb(84.999084%,84.999084%,84.999084%);fill-opacity:0.6;stroke-width:1;stroke-linecap:square;stroke-linejoin:miter;stroke:rgb(50%,50%,50%);stroke-opacity:1;stroke-miterlimit:3.25;" d="M 359.613281 262.402344 L 422.042969 263.511719 L 372.933594 186.09375 Z M 359.613281 262.402344 " transform="matrix(1,0,0,1,-74,-13)"/>
<path style="fill-rule:nonzero;fill:rgb(84.999084%,84.999084%,84.999084%);fill-opacity:0.6;stroke-width:1;stroke-linecap:square;stroke-linejoin:miter;stroke:rgb(50%,50%,50%);stroke-opacity:1;stroke-miterlimit:3.25;" d="M 357.152344 263.066406 L 359.613281 262.402344 L 372.933594 186.09375 Z M 357.152344 263.066406 " transform="matrix(1,0,0,1,-74,-13)"/>
<path style="fill-rule:nonzero;fill:rgb(84.999084%,84.999084%,84.999084%);fill-opacity:0.6;stroke-width:1;stroke-linecap:square;stroke-linejoin:miter;stroke:rgb(50%,50%,50%);stroke-opacity:1;stroke-miterlimit:3.25;" d="M 355.246094 264.0625 L 357.152344 263.066406 L 372.933594 186.09375 Z M 355.246094 264.0625 " transform="matrix(1,0,0,1,-74,-13)"/>
<path style="fill-rule:nonzero;fill:rgb(84.999084%,84.999084%,84.999084%);fill-opacity:0.6;stroke-width:1;stroke-linecap:square;stroke-linejoin:miter;stroke:rgb(50%,50%,50%);stroke-opacity:1;stroke-miterlimit:3.25;" d="M 304.257813 98.644531 L 257.617188 38.125 L 167.808594 181.753906 Z M 304.257813 98.644531 " transform="matrix(1,0,0,1,-74,-13)"/>
<path style="fill-rule:nonzero;fill:rgb(84.999084%,84.999084%,84.999084%);fill-opacity:0.6;stroke-width:1;stroke-linecap:square;stroke-linejoin:miter;stroke:rgb(50%,50%,50%);stroke-opacity:1;stroke-miterlimit:3.25;" d="M 304.257813 98.644531 L 204.179688 209.835938 L 372.933594 186.09375 Z M 304.257813 98.644531 " transform="matrix(1,0,0,1,-74,-13)"/>
<path style="fill-rule:nonzero;fill:rgb(84.999084%,84.999084%,84.999084%);fill-opacity:0.6;stroke-width:1;stroke-linecap:square;stroke-linejoin:miter;stroke:rgb(50%,50%,50%);stroke-opacity:1;stroke-miterlimit:3.25;" d="M 257.617188 38.125 L 304.257813 98.644531 L 364.597656 143.242188 Z M 257.617188 38.125 " transform="matrix(1,0,0,1,-74,-13)"/>
<path style="fill-rule:nonzero;fill:rgb(84.999084%,84.999084%,84.999084%);fill-opacity:0.6;stroke-width:1;stroke-linecap:square;stroke-linejoin:miter;stroke:rgb(50%,50%,50%);stroke-opacity:1;stroke-miterlimit:3.25;" d="M 304.257813 98.644531 L 167.808594 181.753906 L 204.179688 209.835938 Z M 304.257813 98.644531 " transform="matrix(1,0,0,1,-74,-13)"/>
<path style="fill-rule:nonzero;fill:rgb(84.999084%,84.999084%,84.999084%);fill-opacity:0.6;stroke-width:1;stroke-linecap:square;stroke-linejoin:miter;stroke:rgb(50%,50%,50%);stroke-opacity:1;stroke-miterlimit:3.25;" d="M 364.464844 144.308594 L 372.933594 186.09375 L 364.597656 143.242188 Z M 364.464844 144.308594 " transform="matrix(1,0,0,1,-74,-13)"/>
<path style="fill-rule:nonzero;fill:rgb(84.999084%,84.999084%,84.999084%);fill-opacity:0.6;stroke-width:1;stroke-linecap:square;stroke-linejoin:miter;stroke:rgb(50%,50%,50%);stroke-opacity:1;stroke-miterlimit:3.25;" d="M 372.933594 186.09375 L 364.464844 144.308594 L 304.257813 98.644531 Z M 372.933594 186.09375 " transform="matrix(1,0,0,1,-74,-13)"/>
<path style="fill-rule:nonzero;fill:rgb(84.999084%,84.999084%,84.999084%);fill-opacity:0.6;stroke-width:1;stroke-linecap:square;stroke-linejoin:miter;stroke:rgb(50%,50%,50%);stroke-opacity:1;stroke-miterlimit:3.25;" d="M 364.597656 143.242188 L 372.933594 186.09375 L 422.042969 263.511719 Z M 364.597656 143.242188 " transform="matrix(1,0,0,1,-74,-13)"/>
<path style="fill-rule:nonzero;fill:rgb(84.999084%,84.999084%,84.999084%);fill-opacity:0.6;stroke-width:1;stroke-linecap:square;stroke-linejoin:miter;stroke:rgb(50%,50%,50%);stroke-opacity:1;stroke-miterlimit:3.25;" d="M 364.464844 144.308594 L 364.597656 143.242188 L 304.257813 98.644531 Z M 364.464844 144.308594 " transform="matrix(1,0,0,1,-74,-13)"/>
<path style="fill-rule:nonzero;fill:rgb(84.999084%,84.999084%,84.999084%);fill-opacity:0.6;stroke-width:1;stroke-linecap:square;stroke-linejoin:miter;stroke:rgb(50%,50%,50%);stroke-opacity:1;stroke-miterlimit:3.25;" d="M 204.179688 209.835938 L 355.246094 264.0625 L 372.933594 186.09375 Z M 204.179688 209.835938 " transform="matrix(1,0,0,1,-74,-13)"/>
<path style="fill-rule:nonzero;fill:rgb(84.999084%,84.999084%,84.999084%);fill-opacity:0.6;stroke-width:1;stroke-linecap:square;stroke-linejoin:miter;stroke:rgb(50%,50%,50%);stroke-opacity:1;stroke-miterlimit:3.25;" d="M 354.734375 265.246094 L 204.179688 209.835938 L 203.691406 210.234375 Z M 354.734375 265.246094 " transform="matrix(1,0,0,1,-74,-13)"/>
<path style=" stroke:none;fill-rule:evenodd;fill:rgb(99.998474%,0%,0%);fill-opacity:0.6;" d="M 282.789063 252 C 282.789063 251.523438 282.601563 251.070313 282.265625 250.734375 C 281.929688 250.398438 281.476563 250.210938 281 250.210938 C 280.523438 250.210938 280.070313 250.398438 279.734375 250.734375 C 279.398438 251.070313 279.210938 251.523438 279.210938 252 C 279.210938 252.476563 279.398438 252.929688 279.734375 253.265625 C 280.070313 253.601563 280.523438 253.789063 281 253.789063 C 281.476563 253.789063 281.929688 253.601563 282.265625 253.265625 C 282.601563 252.929688 282.789063 252.476563 282.789063 252 Z M 282.789063 252 "/>
<path style=" stroke:none;fill-rule:evenodd;fill:rgb(99.998474%,0%,0%);fill-opacity:0.6;" d="M 282.789063 251 C 282.789063 250.523438 282.601563 250.070313 282.265625 249.734375 C 281.929688 249.398438 281.476563 249.210938 281 249.210938 C 280.523438 249.210938 280.070313 249.398438 279.734375 249.734375 C 279.398438 250.070313 279.210938 250.523438 279.210938 251 C 279.210938 251.476563 279.398438 251.929688 279.734375 252.265625 C 280.070313 252.601563 280.523438 252.789063 281 252.789063 C 281.476563 252.789063 281.929688 252.601563 282.265625 252.265625 C 282.601563 251.929688 282.789063 251.476563 282.789063 251 Z M 282.789063 251 "/>
<path style=" stroke:none;fill-rule:evenodd;fill:rgb(99.998474%,0%,0%);fill-opacity:0.6;" d="M 349.789063 251 C 349.789063 250.523438 349.601563 250.070313 349.265625 249.734375 C 348.929688 249.398438 348.476563 249.210938 348 249.210938 C 347.523438 249.210938 347.070313 249.398438 346.734375 249.734375 C 346.398438 250.070313 346.210938 250.523438 346.210938 251 C 346.210938 251.476563 346.398438 251.929688 346.734375 252.265625 C 347.070313 252.601563 347.523438 252.789063 348 252.789063 C 348.476563 252.789063 348.929688 252.601563 349.265625 252.265625 C 349.601563 251.929688 349.789063 251.476563 349.789063 251 Z M 349.789063 251 "/>
<path style=" stroke:none;fill-rule:evenodd;fill:rgb(99.998474%,0%,0%);fill-opacity:0.6;" d="M 284.789063 250 C 284.789063 249.523438 284.601563 249.070313 284.265625 248.734375 C 283.929688 248.398438 283.476563 248.210938 283 248.210938 C 282.523438 248.210938 282.070313 248.398438 281.734375 248.734375 C 281.398438 249.070313 281.210938 249.523438 281.210938 250 C 281.210938 250.476563 281.398438 250.929688 281.734375 251.265625 C 282.070313 251.601563 282.523438 251.789063 283 251.789063 C 283.476563 251.789063 283.929688 251.601563 284.265625 251.265625 C 284.601563 250.929688 284.789063 250.476563 284.789063 250 Z M 284.789063 250 "/>
<path style=" stroke:none;fill-rule:evenodd;fill:rgb(99.998474%,0%,0%);fill-opacity:0.6;" d="M 287.789063 249 C 287.789063 248.523438 287.601563 248.070313 287.265625 247.734375 C 286.929688 247.398438 286.476563 247.210938 286 247.210938 C 285.523438 247.210938 285.070313 247.398438 284.734375 247.734375 C 284.398438 248.070313 284.210938 248.523438 284.210938 249 C 284.210938 249.476563 284.398438 249.929688 284.734375 250.265625 C 285.070313 250.601563 285.523438 250.789063 286 250.789063 C 286.476563 250.789063 286.929688 250.601563 287.265625 250.265625 C 287.601563 249.929688 287.789063 249.476563 287.789063 249 Z M 287.789063 249 "/>
<path style=" stroke:none;fill-rule:evenodd;fill:rgb(99.998474%,0%,0%);fill-opacity:0.6;" d="M 131.789063 197 C 131.789063 196.523438 131.601563 196.070313 131.265625 195.734375 C 130.929688 195.398438 130.476563 195.210938 130 195.210938 C 129.523438 195.210938 129.070313 195.398438 128.734375 195.734375 C 128.398438 196.070313 128.210938 196.523438 128.210938 197 C 128.210938 197.476563 128.398438 197.929688 128.734375 198.265625 C 129.070313 198.601563 129.523438 198.789063 130 198.789063 C 130.476563 198.789063 130.929688 198.601563 131.265625 198.265625 C 131.601563 197.929688 131.789063 197.476563 131.789063 197 Z M 131.789063 197 "/>
<path style=" stroke:none;fill-rule:evenodd;fill:rgb(99.998474%,0%,0%);fill-opacity:0.6;" d="M 131.789063 197 C 131.789063 196.523438 131.601563 196.070313 131.265625 195.734375 C 130.929688 195.398438 130.476563 195.210938 130 195.210938 C 129.523438 195.210938 129.070313 195.398438 128.734375 195.734375 C 128.398438 196.070313 128.210938 196.523438 128.210938 197 C 128.210938 197.476563 128.398438 197.929688 128.734375 198.265625 C 129.070313 198.601563 129.523438 198.789063 130 198.789063 C 130.476563 198.789063 130.929688 198.601563 131.265625 198.265625 C 131.601563 197.929688 131.789063 197.476563 131.789063 197 Z M 131.789063 197 "/>
<path style=" stroke:none;fill-rule:evenodd;fill:rgb(99.998474%,0%,0%);fill-opacity:0.6;" d="M 300.789063 173 C 300.789063 172.523438 300.601563 172.070313 300.265625 171.734375 C 299.929688 171.398438 299.476563 171.210938 299 171.210938 C 298.523438 171.210938 298.070313 171.398438 297.734375 171.734375 C 297.398438 172.070313 297.210938 172.523438 297.210938 173 C 297.210938 173.476563 297.398438 173.929688 297.734375 174.265625 C 298.070313 174.601563 298.523438 174.789063 299 174.789063 C 299.476563 174.789063 299.929688 174.601563 300.265625 174.265625 C 300.601563 173.929688 300.789063 173.476563 300.789063 173 Z M 300.789063 173 "/>
<path style=" stroke:none;fill-rule:evenodd;fill:rgb(99.998474%,0%,0%);fill-opacity:0.6;" d="M 95.789063 169 C 95.789063 168.523438 95.601563 168.070313 95.265625 167.734375 C 94.929688 167.398438 94.476563 167.210938 94 167.210938 C 93.523438 167.210938 93.070313 167.398438 92.734375 167.734375 C 92.398438 168.070313 92.210938 168.523438 92.210938 169 C 92.210938 169.476563 92.398438 169.929688 92.734375 170.265625 C 93.070313 170.601563 93.523438 170.789063 94 170.789063 C 94.476563 170.789063 94.929688 170.601563 95.265625 170.265625 C 95.601563 169.929688 95.789063 169.476563 95.789063 169 Z M 95.789063 169 "/>
<path style=" stroke:none;fill-rule:evenodd;fill:rgb(99.998474%,0%,0%);fill-opacity:0.6;" d="M 86.789063 162 C 86.789063 161.523438 86.601563 161.070313 86.265625 160.734375 C 85.929688 160.398438 85.476563 160.210938 85 160.210938 C 84.523438 160.210938 84.070313 160.398438 83.734375 160.734375 C 83.398438 161.070313 83.210938 161.523438 83.210938 162 C 83.210938 162.476563 83.398438 162.929688 83.734375 163.265625 C 84.070313 163.601563 84.523438 163.789063 85 163.789063 C 85.476563 163.789063 85.929688 163.601563 86.265625 163.265625 C 86.601563 162.929688 86.789063 162.476563 86.789063 162 Z M 86.789063 162 "/>
<path style=" stroke:none;fill-rule:evenodd;fill:rgb(99.998474%,0%,0%);fill-opacity:0.6;" d="M 86.789063 162 C 86.789063 161.523438 86.601563 161.070313 86.265625 160.734375 C 85.929688 160.398438 85.476563 160.210938 85 160.210938 C 84.523438 160.210938 84.070313 160.398438 83.734375 160.734375 C 83.398438 161.070313 83.210938 161.523438 83.210938 162 C 83.210938 162.476563 83.398438 162.929688 83.734375 163.265625 C 84.070313 163.601563 84.523438 163.789063 85 163.789063 C 85.476563 163.789063 85.929688 163.601563 86.265625 163.265625 C 86.601563 162.929688 86.789063 162.476563 86.789063 162 Z M 86.789063 162 "/>
<path style=" stroke:none;fill-rule:evenodd;fill:rgb(99.998474%,0%,0%);fill-opacity:0.6;" d="M 291.789063 131 C 291.789063 130.523438 291.601563 130.070313 291.265625 129.734375 C 290.929688 129.398438 290.476563 129.210938 290 129.210938 C 289.523438 129.210938 289.070313 129.398438 288.734375 129.734375 C 288.398438 130.070313 288.210938 130.523438 288.210938 131 C 288.210938 131.476563 288.398438 131.929688 288.734375 132.265625 C 289.070313 132.601563 289.523438 132.789063 290 132.789063 C 290.476563 132.789063 290.929688 132.601563 291.265625 132.265625 C 291.601563 131.929688 291.789063 131.476563 291.789063 131 Z M 291.789063 131 "/>
<path style=" stroke:none;fill-rule:evenodd;fill:rgb(99.998474%,0%,0%);fill-opacity:0.6;" d="M 292.789063 130 C 292.789063 129.523438 292.601563 129.070313 292.265625 128.734375 C 291.929688 128.398438 291.476563 128.210938 291 128.210938 C 290.523438 128.210938 290.070313 128.398438 289.734375 128.734375 C 289.398438 129.070313 289.210938 129.523438 289.210938 130 C 289.210938 130.476563 289.398438 130.929688 289.734375 131.265625 C 290.070313 131.601563 290.523438 131.789063 291 131.789063 C 291.476563 131.789063 291.929688 131.601563 292.265625 131.265625 C 292.601563 130.929688 292.789063 130.476563 292.789063 130 Z M 292.789063 130 "/>
<path style=" stroke:none;fill-rule:evenodd;fill:rgb(99.998474%,0%,0%);fill-opacity:0.6;" d="M 32.789063 127 C 32.789063 126.523438 32.601563 126.070313 32.265625 125.734375 C 31.929688 125.398438 31.476563 125.210938 31 125.210938 C 30.523438 125.210938 30.070313 125.398438 29.734375 125.734375 C 29.398438 126.070313 29.210938 126.523438 29.210938 127 C 29.210938 127.476563 29.398438 127.929688 29.734375 128.265625 C 30.070313 128.601563 30.523438 128.789063 31 128.789063 C 31.476563 128.789063 31.929688 128.601563 32.265625 128.265625 C 32.601563 127.929688 32.789063 127.476563 32.789063 127 Z M 32.789063 127 "/>
<path style=" stroke:none;fill-rule:evenodd;fill:rgb(99.998474%,0%,0%);fill-opacity:0.6;" d="M 36.789063 126 C 36.789063 125.523438 36.601563 125.070313 36.265625 124.734375 C 35.929688 124.398438 35.476563 124.210938 35 124.210938 C 34.523438 124.210938 34.070313 124.398438 33.734375 124.734375 C 33.398438 125.070313 33.210938 125.523438 33.210938 126 C 33.210938 126.476563 33.398438 126.929688 33.734375 127.265625 C 34.070313 127.601563 34.523438 127.789063 35 127.789063 C 35.476563 127.789063 35.929688 127.601563 36.265625 127.265625 C 36.601563 126.929688 36.789063 126.476563 36.789063 126 Z M 36.789063 126 "/>
<path style=" stroke:none;fill-rule:evenodd;fill:rgb(99.998474%,0%,0%);fill-opacity:0.6;" d="M 25.789063 125 C 25.789063 124.523438 25.601563 124.070313 25.265625 123.734375 C 24.929688 123.398438 24.476563 123.210938 24 123.210938 C 23.523438 123.210938 23.070313 123.398438 22.734375 123.734375 C 22.398438 124.070313 22.210938 124.523438 22.210938 125 C 22.210938 125.476563 22.398438 125.929688 22.734375 126.265625 C 23.070313 126.601563 23.523438 126.789063 24 126.789063 C 24.476563 126.789063 24.929688 126.601563 25.265625 126.265625 C 25.601563 125.929688 25.789063 125.476563 25.789063 125 Z M 25.789063 125 "/>
<path style=" stroke:none;fill-rule:evenodd;fill:rgb(99.998474%,0%,0%);fill-opacity:0.6;" d="M 24.789063 125 C 24.789063 124.523438 24.601563 124.070313 24.265625 123.734375 C 23.929688 123.398438 23.476563 123.210938 23 123.210938 C 22.523438 123.210938 22.070313 123.398438 21.734375 123.734375 C 21.398438 124.070313 21.210938 124.523438 21.210938 125 C 21.210938 125.476563 21.398438 125.929688 21.734375 126.265625 C 22.070313 126.601563 22.523438 126.789063 23 126.789063 C 23.476563 126.789063 23.929688 126.601563 24.265625 126.265625 C 24.601563 125.929688 24.789063 125.476563 24.789063 125 Z M 24.789063 125 "/>
<path style=" stroke:none;fill-rule:evenodd;fill:rgb(99.998474%,0%,0%);fill-opacity:0.6;" d="M 231.789063 86 C 231.789063 85.523438 231.601563 85.070313 231.265625 84.734375 C 230.929688 84.398438 230.476563 84.210938 230 84.210938 C 229.523438 84.210938 229.070313 84.398438 228.734375 84.734375 C 228.398438 85.070313 228.210938 85.523438 228.210938 86 C 228.210938 86.476563 228.398438 86.929688 228.734375 87.265625 C 229.070313 87.601563 229.523438 87.789063 230 87.789063 C 230.476563 87.789063 230.929688 87.601563 231.265625 87.265625 C 231.601563 86.929688 231.789063 86.476563 231.789063 86 Z M 231.789063 86 "/>
<path style=" stroke:none;fill-rule:evenodd;fill:rgb(99.998474%,0%,0%);fill-opacity:0.6;" d="M 62.789063 79 C 62.789063 78.523438 62.601563 78.070313 62.265625 77.734375 C 61.929688 77.398438 61.476563 77.210938 61 77.210938 C 60.523438 77.210938 60.070313 77.398438 59.734375 77.734375 C 59.398438 78.070313 59.210938 78.523438 59.210938 79 C 59.210938 79.476563 59.398438 79.929688 59.734375 80.265625 C 60.070313 80.601563 60.523438 80.789063 61 80.789063 C 61.476563 80.789063 61.929688 80.601563 62.265625 80.265625 C 62.601563 79.929688 62.789063 79.476563 62.789063 79 Z M 62.789063 79 "/>
<path style=" stroke:none;fill-rule:evenodd;fill:rgb(99.998474%,0%,0%);fill-opacity:0.6;" d="M 63.789063 79 C 63.789063 78.523438 63.601563 78.070313 63.265625 77.734375 C 62.929688 77.398438 62.476563 77.210938 62 77.210938 C 61.523438 77.210938 61.070313 77.398438 60.734375 77.734375 C 60.398438 78.070313 60.210938 78.523438 60.210938 79 C 60.210938 79.476563 60.398438 79.929688 60.734375 80.265625 C 61.070313 80.601563 61.523438 80.789063 62 80.789063 C 62.476563 80.789063 62.929688 80.601563 63.265625 80.265625 C 63.601563 79.929688 63.789063 79.476563 63.789063 79 Z M 63.789063 79 "/>
<path style=" stroke:none;fill-rule:evenodd;fill:rgb(99.998474%,0%,0%);fill-opacity:0.6;" d="M 185.789063 25 C 185.789063 24.523438 185.601563 24.070313 185.265625 23.734375 C 184.929688 23.398438 184.476563 23.210938 184 23.210938 C 183.523438 23.210938 183.070313 23.398438 182.734375 23.734375 C 182.398438 24.070313 182.210938 24.523438 182.210938 25 C 182.210938 25.476563 182.398438 25.929688 182.734375 26.265625 C 183.070313 26.601563 183.523438 26.789063 184 26.789063 C 184.476563 26.789063 184.929688 26.601563 185.265625 26.265625 C 185.601563 25.929688 185.789063 25.476563 185.789063 25 Z M 185.789063 25 "/>
<path style=" stroke:none;fill-rule:evenodd;fill:rgb(99.998474%,0%,0%);fill-opacity:1;" d="M 282.5 252 C 282.5 251.601563 282.34375 251.21875 282.0625 250.9375 C 281.78125 250.65625 281.398438 250.5 281 250.5 C 280.601563 250.5 280.21875 250.65625 279.9375 250.9375 C 279.65625 251.21875 279.5 251.601563 279.5 252 C 279.5 252.398438 279.65625 252.78125 279.9375 253.0625 C 280.21875 253.34375 280.601563 253.5 281 253.5 C 281.398438 253.5 281.78125 253.34375 282.0625 253.0625 C 282.34375 252.78125 282.5 252.398438 282.5 252 Z M 282.5 252 "/>
<path style=" stroke:none;fill-rule:evenodd;fill:rgb(99.998474%,0%,0%);fill-opacity:1;" d="M 282.5 251 C 282.5 250.601563 282.34375 250.21875 282.0625 249.9375 C 281.78125 249.65625 281.398438 249.5 281 249.5 C 280.601563 249.5 280.21875 249.65625 279.9375 249.9375 C 279.65625 250.21875 279.5 250.601563 279.5 251 C 279.5 251.398438 279.65625 251.78125 279.9375 252.0625 C 280.21875 252.34375 280.601563 252.5 281 252.5 C 281.398438 252.5 281.78125 252.34375 282.0625 252.0625 C 282.34375 251.78125 282.5 251.398438 282.5 251 Z M 282.5 251 "/>
<path style=" stroke:none;fill-rule:evenodd;fill:rgb(99.998474%,0%,0%);fill-opacity:1;" d="M 349.5 251 C 349.5 250.601563 349.34375 250.21875 349.0625 249.9375 C 348.78125 249.65625 348.398438 249.5 348 249.5 C 347.601563 249.5 347.21875 249.65625 346.9375 249.9375 C 346.65625 250.21875 346.5 250.601563 346.5 251 C 346.5 251.398438 346.65625 251.78125 346.9375 252.0625 C 347.21875 252.34375 347.601563 252.5 348 252.5 C 348.398438 252.5 348.78125 252.34375 349.0625 252.0625 C 349.34375 251.78125 349.5 251.398438 349.5 251 Z M 349.5 251 "/>
<path style=" stroke:none;fill-rule:evenodd;fill:rgb(99.998474%,0%,0%);fill-opacity:1;" d="M 284.5 250 C 284.5 249.601563 284.34375 249.21875 284.0625 248.9375 C 283.78125 248.65625 283.398438 248.5 283 248.5 C 282.601563 248.5 282.21875 248.65625 281.9375 248.9375 C 281.65625 249.21875 281.5 249.601563 281.5 250 C 281.5 250.398438 281.65625 250.78125 281.9375 251.0625 C 282.21875 251.34375 282.601563 251.5 283 251.5 C 283.398438 251.5 283.78125 251.34375 284.0625 251.0625 C 284.34375 250.78125 284.5 250.398438 284.5 250 Z M 284.5 250 "/>
<path style=" stroke:none;fill-rule:evenodd;fill:rgb(99.998474%,0%,0%);fill-opacity:1;" d="M 287.5 249 C 287.5 248.601563 287.34375 248.21875 287.0625 247.9375 C 286.78125 247.65625 286.398438 247.5 286 247.5 C 285.601563 247.5 285.21875 247.65625 284.9375 247.9375 C 284.65625 248.21875 284.5 248.601563 284.5 249 C 284.5 249.398438 284.65625 249.78125 284.9375 250.0625 C 285.21875 250.34375 285.601563 250.5 286 250.5 C 286.398438 250.5 286.78125 250.34375 287.0625 250.0625 C 287.34375 249.78125 287.5 249.398438 287.5 249 Z M 287.5 249 "/>
<path style=" stroke:none;fill-rule:evenodd;fill:rgb(99.998474%,0%,0%);fill-opacity:1;" d="M 131.5 197 C 131.5 196.601563 131.34375 196.21875 131.0625 195.9375 C 130.78125 195.65625 130.398438 195.5 130 195.5 C 129.601563 195.5 129.21875 195.65625 128.9375 195.9375 C 128.65625 196.21875 128.5 196.601563 128.5 197 C 128.5 197.398438 128.65625 197.78125 128.9375 198.0625 C 129.21875 198.34375 129.601563 198.5 130 198.5 C 130.398438 198.5 130.78125 198.34375 131.0625 198.0625 C 131.34375 197.78125 131.5 197.398438 131.5 197 Z M 131.5 197 "/>
<path style=" stroke:none;fill-rule:evenodd;fill:rgb(99.998474%,0%,0%);fill-opacity:1;" d="M 131.5 197 C 131.5 196.601563 131.34375 196.21875 131.0625 195.9375 C 130.78125 195.65625 130.398438 195.5 130 195.5 C 129.601563 195.5 129.21875 195.65625 128.9375 195.9375 C 128.65625 196.21875 128.5 196.601563 128.5 197 C 128.5 197.398438 128.65625 197.78125 128.9375 198.0625 C 129.21875 198.34375 129.601563 198.5 130 198.5 C 130.398438 198.5 130.78125 198.34375 131.0625 198.0625 C 131.34375 197.78125 131.5 197.398438 131.5 197 Z M 131.5 197 "/>
<path style=" stroke:none;fill-rule:evenodd;fill:rgb(99.998474%,0%,0%);fill-opacity:1;" d="M 300.5 173 C 300.5 172.601563 300.34375 172.21875 300.0625 171.9375 C 299.78125 171.65625 299.398438 171.5 299 171.5 C 298.601563 171.5 298.21875 171.65625 297.9375 171.9375 C 297.65625 172.21875 297.5 172.601563 297.5 173 C 297.5 173.398438 297.65625 173.78125 297.9375 174.0625 C 298.21875 174.34375 298.601563 174.5 299 174.5 C 299.398438 174.5 299.78125 174.34375 300.0625 174.0625 C 300.34375 173.78125 300.5 173.398438 300.5 173 Z M 300.5 173 "/>
<path style=" stroke:none;fill-rule:evenodd;fill:rgb(99.998474%,0%,0%);fill-opacity:1;" d="M 95.5 169 C 95.5 168.601563 95.34375 168.21875 95.0625 167.9375 C 94.78125 167.65625 94.398438 167.5 94 167.5 C 93.601563 167.5 93.21875 167.65625 92.9375 167.9375 C 92.65625 168.21875 92.5 168.601563 92.5 169 C 92.5 169.398438 92.65625 169.78125 92.9375 170.0625 C 93.21875 170.34375 93.601563 170.5 94 170.5 C 94.398438 170.5 94.78125 170.34375 95.0625 170.0625 C 95.34375 169.78125 95.5 169.398438 95.5 169 Z M 95.5 169 "/>
<path style=" stroke:none;fill-rule:evenodd;fill:rgb(99.998474%,0%,0%);fill-opacity:1;" d="M 86.5 162 C 86.5 161.601563 86.34375 161.21875 86.0625 160.9375 C 85.78125 160.65625 85.398438 160.5 85 160.5 C 84.601563 160.5 84.21875 160.65625 83.9375 160.9375 C 83.65625 161.21875 83.5 161.601563 83.5 162 C 83.5 162.398438 83.65625 162.78125 83.9375 163.0625 C 84.21875 163.34375 84.601563 163.5 85 163.5 C 85.398438 163.5 85.78125 163.34375 86.0625 163.0625 C 86.34375 162.78125 86.5 162.398438 86.5 162 Z M 86.5 162 "/>
<path style=" stroke:none;fill-rule:evenodd;fill:rgb(99.998474%,0%,0%);fill-opacity:1;" d="M 86.5 162 C 86.5 161.601563 86.34375 161.21875 86.0625 160.9375 C 85.78125 160.65625 85.398438 160.5 85 160.5 C 84.601563 160.5 84.21875 160.65625 83.9375 160.9375 C 83.65625 161.21875 83.5 161.601563 83.5 162 C 83.5 162.398438 83.65625 162.78125 83.9375 163.0625 C 84.21875 163.34375 84.601563 163.5 85 163.5 C 85.398438 163.5 85.78125 163.34375 86.0625 163.0625 C 86.34375 162.78125 86.5 162.398438 86.5 162 Z M 86.5 162 "/>
<path style=" stroke:none;fill-rule:evenodd;fill:rgb(99.998474%,0%,0%);fill-opacity:1;" d="M 291.5 131 C 291.5 130.601563 291.34375 130.21875 291.0625 129.9375 C 290.78125 129.65625 290.398438 129.5 290 129.5 C 289.601563 129.5 289.21875 129.65625 288.9375 129.9375 C 288.65625 130.21875 288.5 130.601563 288.5 131 C 288.5 131.398438 288.65625 131.78125 288.9375 132.0625 C 289.21875 132.34375 289.601563 132.5 290 132.5 C 290.398438 132.5 290.78125 132.34375 291.0625 132.0625 C 291.34375 131.78125 291.5 131.398438 291.5 131 Z M 291.5 131 "/>
<path style=" stroke:none;fill-rule:evenodd;fill:rgb(99.998474%,0%,0%);fill-opacity:1;" d="M 292.5 130 C 292.5 129.601563 292.34375 129.21875 292.0625 128.9375 C 291.78125 128.65625 291.398438 128.5 291 128.5 C 290.601563 128.5 290.21875 128.65625 289.9375 128.9375 C 289.65625 129.21875 289.5 129.601563 289.5 130 C 289.5 130.398438 289.65625 130.78125 289.9375 131.0625 C 290.21875 131.34375 290.601563 131.5 291 131.5 C 291.398438 131.5 291.78125 131.34375 292.0625 131.0625 C 292.34375 130.78125 292.5 130.398438 292.5 130 Z M 292.5 130 "/>
<path style=" stroke:none;fill-rule:evenodd;fill:rgb(99.998474%,0%,0%);fill-opacity:1;" d="M 32.5 127 C 32.5 126.601563 32.34375 126.21875 32.0625 125.9375 C 31.78125 125.65625 31.398438 125.5 31 125.5 C 30.601563 125.5 30.21875 125.65625 29.9375 125.9375 C 29.65625 126.21875 29.5 126.601563 29.5 127 C 29.5 127.398438 29.65625 127.78125 29.9375 128.0625 C 30.21875 128.34375 30.601563 128.5 31 128.5 C 31.398438 128.5 31.78125 128.34375 32.0625 128.0625 C 32.34375 127.78125 32.5 127.398438 32.5 127 Z M 32.5 127 "/>
<path style=" stroke:none;fill-rule:evenodd;fill:rgb(99.998474%,0%,0%);fill-opacity:1;" d="M 36.5 126 C 36.5 125.601563 36.34375 125.21875 36.0625 124.9375 C 35.78125 124.65625 35.398438 124.5 35 124.5 C 34.601563 124.5 34.21875 124.65625 33.9375 124.9375 C 33.65625 125.21875 33.5 125.601563 33.5 126 C 33.5 126.398438 33.65625 126.78125 33.9375 127.0625 C 34.21875 127.34375 34.601563 127.5 35 127.5 C 35.398438 127.5 35.78125 127.34375 36.0625 127.0625 C 36.34375 126.78125 36.5 126.398438 36.5 126 Z M 36.5 126 "/>
<path style=" stroke:none;fill-rule:evenodd;fill:rgb(99.998474%,0%,0%);fill-opacity:1;" d="M 25.5 125 C 25.5 124.601563 25.34375 124.21875 25.0625 123.9375 C 24.78125 123.65625 24.398438 123.5 24 123.5 C 23.601563 123.5 23.21875 123.65625 22.9375 123.9375 C 22.65625 124.21875 22.5 124.601563 22.5 125 C 22.5 125.398438 22.65625 125.78125 22.9375 126.0625 C 23.21875 126.34375 23.601563 126.5 24 126.5 C 24.398438 126.5 24.78125 126.34375 25.0625 126.0625 C 25.34375 125.78125 25.5 125.398438 25.5 125 Z M 25.5 125 "/>
<path style=" stroke:none;fill-rule:evenodd;fill:rgb(99.998474%,0%,0%);fill-opacity:1;" d="M 24.5 125 C 24.5 124.601563 24.34375 124.21875 24.0625 123.9375 C 23.78125 123.65625 23.398438 123.5 23 123.5 C 22.601563 123.5 22.21875 123.65625 21.9375 123.9375 C 21.65625 124.21875 21.5 124.601563 21.5 125 C 21.5 125.398438 21.65625 125.78125 21.9375 126.0625 C 22.21875 126.34375 22.601563 126.5 23 126.5 C 23.398438 126.5 23.78125 126.34375 24.0625 126.0625 C 24.34375 125.78125 24.5 125.398438 24.5 125 Z M 24.5 125 "/>
<path style=" stroke:none;fill-rule:evenodd;fill:rgb(99.998474%,0%,0%);fill-opacity:1;" d="M 231.5 86 C 231.5 85.601563 231.34375 85.21875 231.0625 84.9375 C 230.78125 84.65625 230.398438 84.5 230 84.5 C 229.601563 84.5 229.21875 84.65625 228.9375 84.9375 C 228.65625 85.21875 228.5 85.601563 228.5 86 C 228.5 86.398438 228.65625 86.78125 228.9375 87.0625 C 229.21875 87.34375 229.601563 87.5 230 87.5 C 230.398438 87.5 230.78125 87.34375 231.0625 87.0625 C 231.34375 86.78125 231.5 86.398438 231.5 86 Z M 231.5 86 "/>
<path style=" stroke:none;fill-rule:evenodd;fill:rgb(99.998474%,0%,0%);fill-opacity:1;" d="M 62.5 79 C 62.5 78.601563 62.34375 78.21875 62.0625 77.9375 C 61.78125 77.65625 61.398438 77.5 61 77.5 C 60.601563 77.5 60.21875 77.65625 59.9375 77.9375 C 59.65625 78.21875 59.5 78.601563 59.5 79 C 59.5 79.398438 59.65625 79.78125 59.9375 80.0625 C 60.21875 80.34375 60.601563 80.5 61 80.5 C 61.398438 80.5 61.78125 80.34375 62.0625 80.0625 C 62.34375 79.78125 62.5 79.398438 62.5 79 Z M 62.5 79 "/>
<path style=" stroke:none;fill-rule:evenodd;fill:rgb(99.998474%,0%,0%);fill-opacity:1;" d="M 63.5 79 C 63.5 78.601563 63.34375 78.21875 63.0625 77.9375 C 62.78125 77.65625 62.398438 77.5 62 77.5 C 61.601563 77.5 61.21875 77.65625 60.9375 77.9375 C 60.65625 78.21875 60.5 78.601563 60.5 79 C 60.5 79.398438 60.65625 79.78125 60.9375 80.0625 C 61.21875 80.34375 61.601563 80.5 62 80.5 C 62.398438 80.5 62.78125 80.34375 63.0625 80.0625 C 63.34375 79.78125 63.5 79.398438 63.5 79 Z M 63.5 79 "/>
<path style=" stroke:none;fill-rule:evenodd;fill:rgb(99.998474%,0%,0%);fill-opacity:1;" d="M 185.5 25 C 185.5 24.601563 185.34375 24.21875 185.0625 23.9375 C 184.78125 23.65625 184.398438 23.5 184 23.5 C 183.601563 23.5 183.21875 23.65625 182.9375 23.9375 C 182.65625 24.21875 182.5 24.601563 182.5 25 C 182.5 25.398438 182.65625 25.78125 182.9375 26.0625 C 183.21875 26.34375 183.601563 26.5 184 26.5 C 184.398438 26.5 184.78125 26.34375 185.0625 26.0625 C 185.34375 25.78125 185.5 25.398438 185.5 25 Z M 185.5 25 "/>
</g>
</svg>
