<?xml version="1.0" encoding="UTF-8"?>
<svg xmlns="http://www.w3.org/2000/svg" xmlns:xlink="http://www.w3.org/1999/xlink" width="317pt" height="341pt" viewBox="0 0 317 341" version="1.1">
<g id="surface2204">
<path style=" stroke:none;fill-rule:evenodd;fill:rgb(99.998474%,0%,0%);fill-opacity:1;" d="M 83.894531 288 C 83.894531 287.761719 83.800781 287.535156 83.632813 287.367188 C 83.464844 287.199219 83.238281 287.105469 83 287.105469 C 82.761719 287.105469 82.535156 287.199219 82.367188 287.367188 C 82.199219 287.535156 82.105469 287.761719 82.105469 288 C 82.105469 288.238281 82.199219 288.464844 82.367188 288.632813 C 82.535156 288.800781 82.761719 288.894531 83 288.894531 C 83.238281 288.894531 83.464844 288.800781 83.632813 288.632813 C 83.800781 288.464844 83.894531 288.238281 83.894531 288 Z M 83.894531 288 "/>
<path style=" stroke:none;fill-rule:evenodd;fill:rgb(99.998474%,0%,0%);fill-opacity:1;" d="M 185.894531 268 C 185.894531 267.761719 185.800781 267.535156 185.632813 267.367188 C 185.464844 267.199219 185.238281 267.105469 185 267.105469 C 184.761719 267.105469 184.535156 267.199219 184.367188 267.367188 C 184.199219 267.535156 184.105469 267.761719 184.105469 268 C 184.105469 268.238281 184.199219 268.464844 184.367188 268.632813 C 184.535156 268.800781 184.761719 268.894531 185 268.894531 C 185.238281 268.894531 185.464844 268.800781 185.632813 268.632813 C 185.800781 268.464844 185.894531 268.238281 185.894531 268 Z M 185.894531 268 "/>
<path style=" stroke:none;fill-rule:evenodd;fill:rgb(99.998474%,0%,0%);fill-opacity:1;" d="M 185.894531 268 C 185.894531 267.761719 185.800781 267.535156 185.632813 267.367188 C 185.464844 267.199219 185.238281 267.105469 185 267.105469 C 184.761719 267.105469 184.535156 267.199219 184.367188 267.367188 C 184.199219 267.535156 184.105469 267.761719 184.105469 268 C 184.105469 268.238281 184.199219 268.464844 184.367188 268.632813 C 184.535156 268.800781 184.761719 268.894531 185 268.894531 C 185.238281 268.894531 185.464844 268.800781 185.632813 268.632813 C 185.800781 268.464844 185.894531 268.238281 185.894531 268 Z M 185.894531 268 "/>
<path style=" stroke:none;fill-rule:evenodd;fill:rgb(99.998474%,0%,0%);fill-opacity:1;" d="M 283.894531 261 C 283.894531 260.761719 283.800781 260.535156 283.632813 260.367188 C 283.464844 260.199219 283.238281 260.105469 283 260.105469 C 282.761719 260.105469 282.535156 260.199219 282.367188 260.367188 C 282.199219 260.535156 282.105469 260.761719 282.105469 261 C 282.105469 261.238281 282.199219 261.464844 282.367188 261.632813 C 282.535156 261.800781 282.761719 261.894531 283 261.894531 C 283.238281 261.894531 283.464844 261.800781 283.632813 261.632813 C 283.800781 261.464844 283.894531 261.238281 283.894531 261 Z M 283.894531 261 "/>
<path style=" stroke:none;fill-rule:evenodd;fill:rgb(99.998474%,0%,0%);fill-opacity:1;" d="M 286.894531 260 C 286.894531 259.761719 286.800781 259.535156 286.632813 259.367188 C 286.464844 259.199219 286.238281 259.105469 286 259.105469 C 285.761719 259.105469 285.535156 259.199219 285.367188 259.367188 C 285.199219 259.535156 285.105469 259.761719 285.105469 260 C 285.105469 260.238281 285.199219 260.464844 285.367188 260.632813 C 285.535156 260.800781 285.761719 260.894531 286 260.894531 C 286.238281 260.894531 286.464844 260.800781 286.632813 260.632813 C 286.800781 260.464844 286.894531 260.238281 286.894531 260 Z M 286.894531 260 "/>
<path style=" stroke:none;fill-rule:evenodd;fill:rgb(99.998474%,0%,0%);fill-opacity:1;" d="M 287.894531 258 C 287.894531 257.761719 287.800781 257.535156 287.632813 257.367188 C 287.464844 257.199219 287.238281 257.105469 287 257.105469 C 286.761719 257.105469 286.535156 257.199219 286.367188 257.367188 C 286.199219 257.535156 286.105469 257.761719 286.105469 258 C 286.105469 258.238281 286.199219 258.464844 286.367188 258.632813 C 286.535156 258.800781 286.761719 258.894531 287 258.894531 C 287.238281 258.894531 287.464844 258.800781 287.632813 258.632813 C 287.800781 258.464844 287.894531 258.238281 287.894531 258 Z M 287.894531 258 "/>
<path style=" stroke:none;fill-rule:evenodd;fill:rgb(99.998474%,0%,0%);fill-opacity:1;" d="M 283.894531 258 C 283.894531 257.761719 283.800781 257.535156 283.632813 257.367188 C 283.464844 257.199219 283.238281 257.105469 283 257.105469 C 282.761719 257.105469 282.535156 257.199219 282.367188 257.367188 C 282.199219 257.535156 282.105469 257.761719 282.105469 258 C 282.105469 258.238281 282.199219 258.464844 282.367188 258.632813 C 282.535156 258.800781 282.761719 258.894531 283 258.894531 C 283.238281 258.894531 283.464844 258.800781 283.632813 258.632813 C 283.800781 258.464844 283.894531 258.238281 283.894531 258 Z M 283.894531 258 "/>
<path style=" stroke:none;fill-rule:evenodd;fill:rgb(99.998474%,0%,0%);fill-opacity:1;" d="M 284.894531 258 C 284.894531 257.761719 284.800781 257.535156 284.632813 257.367188 C 284.464844 257.199219 284.238281 257.105469 284 257.105469 C 283.761719 257.105469 283.535156 257.199219 283.367188 257.367188 C 283.199219 257.535156 283.105469 257.761719 283.105469 258 C 283.105469 258.238281 283.199219 258.464844 283.367188 258.632813 C 283.535156 258.800781 283.761719 258.894531 284 258.894531 C 284.238281 258.894531 284.464844 258.800781 284.632813 258.632813 C 284.800781 258.464844 284.894531 258.238281 284.894531 258 Z M 284.894531 258 "/>
<path style=" stroke:none;fill-rule:evenodd;fill:rgb(99.998474%,0%,0%);fill-opacity:1;" d="M 284.894531 258 C 284.894531 257.761719 284.800781 257.535156 284.632813 257.367188 C 284.464844 257.199219 284.238281 257.105469 284 257.105469 C 283.761719 257.105469 283.535156 257.199219 283.367188 257.367188 C 283.199219 257.535156 283.105469 257.761719 283.105469 258 C 283.105469 258.238281 283.199219 258.464844 283.367188 258.632813 C 283.535156 258.800781 283.761719 258.894531 284 258.894531 C 284.238281 258.894531 284.464844 258.800781 284.632813 258.632813 C 284.800781 258.464844 284.894531 258.238281 284.894531 258 Z M 284.894531 258 "/>
<path style=" stroke:none;fill-rule:evenodd;fill:rgb(99.998474%,0%,0%);fill-opacity:1;" d="M 282.894531 258 C 282.894531 257.761719 282.800781 257.535156 282.632813 257.367188 C 282.464844 257.199219 282.238281 257.105469 282 257.105469 C 281.761719 257.105469 281.535156 257.199219 281.367188 257.367188 C 281.199219 257.535156 281.105469 257.761719 281.105469 258 C 281.105469 258.238281 281.199219 258.464844 281.367188 258.632813 C 281.535156 258.800781 281.761719 258.894531 282 258.894531 C 282.238281 258.894531 282.464844 258.800781 282.632813 258.632813 C 282.800781 258.464844 282.894531 258.238281 282.894531 258 Z M 282.894531 258 "/>
<path style=" stroke:none;fill-rule:evenodd;fill:rgb(99.998474%,0%,0%);fill-opacity:1;" d="M 279.894531 257 C 279.894531 256.761719 279.800781 256.535156 279.632813 256.367188 C 279.464844 256.199219 279.238281 256.105469 279 256.105469 C 278.761719 256.105469 278.535156 256.199219 278.367188 256.367188 C 278.199219 256.535156 278.105469 256.761719 278.105469 257 C 278.105469 257.238281 278.199219 257.464844 278.367188 257.632813 C 278.535156 257.800781 278.761719 257.894531 279 257.894531 C 279.238281 257.894531 279.464844 257.800781 279.632813 257.632813 C 279.800781 257.464844 279.894531 257.238281 279.894531 257 Z M 279.894531 257 "/>
<path style=" stroke:none;fill-rule:evenodd;fill:rgb(99.998474%,0%,0%);fill-opacity:1;" d="M 277.894531 256 C 277.894531 255.761719 277.800781 255.535156 277.632813 255.367188 C 277.464844 255.199219 277.238281 255.105469 277 255.105469 C 276.761719 255.105469 276.535156 255.199219 276.367188 255.367188 C 276.199219 255.535156 276.105469 255.761719 276.105469 256 C 276.105469 256.238281 276.199219 256.464844 276.367188 256.632813 C 276.535156 256.800781 276.761719 256.894531 277 256.894531 C 277.238281 256.894531 277.464844 256.800781 277.632813 256.632813 C 277.800781 256.464844 277.894531 256.238281 277.894531 256 Z M 277.894531 256 "/>
<path style=" stroke:none;fill-rule:evenodd;fill:rgb(99.998474%,0%,0%);fill-opacity:1;" d="M 282.894531 256 C 282.894531 255.761719 282.800781 255.535156 282.632813 255.367188 C 282.464844 255.199219 282.238281 255.105469 282 255.105469 C 281.761719 255.105469 281.535156 255.199219 281.367188 255.367188 C 281.199219 255.535156 281.105469 255.761719 281.105469 256 C 281.105469 256.238281 281.199219 256.464844 281.367188 256.632813 C 281.535156 256.800781 281.761719 256.894531 282 256.894531 C 282.238281 256.894531 282.464844 256.800781 282.632813 256.632813 C 282.800781 256.464844 282.894531 256.238281 282.894531 256 Z M 282.894531 256 "/>
<path style=" stroke:none;fill-rule:evenodd;fill:rgb(99.998474%,0%,0%);fill-opacity:1;" d="M 279.894531 256 C 279.894531 255.761719 279.800781 255.535156 279.632813 255.367188 C 279.464844 255.199219 279.238281 255.105469 279 255.105469 C 278.761719 255.105469 278.535156 255.199219 278.367188 255.367188 C 278.199219 255.535156 278.105469 255.761719 278.105469 256 C 278.105469 256.238281 278.199219 256.464844 278.367188 256.632813 C 278.535156 256.800781 278.761719 256.894531 279 256.894531 C 279.238281 256.894531 279.464844 256.800781 279.632813 256.632813 C 279.800781 256.464844 279.894531 256.238281 279.894531 256 Z M 279.894531 256 "/>
<path style=" stroke:none;fill-rule:evenodd;fill:rgb(99.998474%,0%,0%);fill-opacity:1;" d="M 284.894531 255 C 284.894531 254.761719 284.800781 254.535156 284.632813 254.367188 C 284.464844 254.199219 284.238281 254.105469 284 254.105469 C 283.761719 254.105469 283.535156 254.199219 283.367188 254.367188 C 283.199219 254.535156 283.105469 254.761719 283.105469 255 C 283.105469 255.238281 283.199219 255.464844 283.367188 255.632813 C 283.535156 255.800781 283.761719 255.894531 284 255.894531 C 284.238281 255.894531 284.464844 255.800781 284.632813 255.632813 C 284.800781 255.464844 284.894531 255.238281 284.894531 255 Z M 284.894531 255 "/>
<path style=" stroke:none;fill-rule:evenodd;fill:rgb(99.998474%,0%,0%);fill-opacity:1;" d="M 280.894531 255 C 280.894531 254.761719 280.800781 254.535156 280.632813 254.367188 C 280.464844 254.199219 280.238281 254.105469 280 254.105469 C 279.761719 254.105469 279.535156 254.199219 279.367188 254.367188 C 279.199219 254.535156 279.105469 254.761719 279.105469 255 C 279.105469 255.238281 279.199219 255.464844 279.367188 255.632813 C 279.535156 255.800781 279.761719 255.894531 280 255.894531 C 280.238281 255.894531 280.464844 255.800781 280.632813 255.632813 C 280.800781 255.464844 280.894531 255.238281 280.894531 255 Z M 280.894531 255 "/>
<path style=" stroke:none;fill-rule:evenodd;fill:rgb(99.998474%,0%,0%);fill-opacity:1;" d="M 285.894531 254 C 285.894531 253.761719 285.800781 253.535156 285.632813 253.367188 C 285.464844 253.199219 285.238281 253.105469 285 253.105469 C 284.761719 253.105469 284.535156 253.199219 284.367188 253.367188 C 284.199219 253.535156 284.105469 253.761719 284.105469 254 C 284.105469 254.238281 284.199219 254.464844 284.367188 254.632813 C 284.535156 254.800781 284.761719 254.894531 285 254.894531 C 285.238281 254.894531 285.464844 254.800781 285.632813 254.632813 C 285.800781 254.464844 285.894531 254.238281 285.894531 254 Z M 285.894531 254 "/>
<path style=" stroke:none;fill-rule:evenodd;fill:rgb(99.998474%,0%,0%);fill-opacity:1;" d="M 285.894531 253 C 285.894531 252.761719 285.800781 252.535156 285.632813 252.367188 C 285.464844 252.199219 285.238281 252.105469 285 252.105469 C 284.761719 252.105469 284.535156 252.199219 284.367188 252.367188 C 284.199219 252.535156 284.105469 252.761719 284.105469 253 C 284.105469 253.238281 284.199219 253.464844 284.367188 253.632813 C 284.535156 253.800781 284.761719 253.894531 285 253.894531 C 285.238281 253.894531 285.464844 253.800781 285.632813 253.632813 C 285.800781 253.464844 285.894531 253.238281 285.894531 253 Z M 285.894531 253 "/>
<path style=" stroke:none;fill-rule:evenodd;fill:rgb(99.998474%,0%,0%);fill-opacity:1;" d="M 282.894531 251 C 282.894531 250.761719 282.800781 250.535156 282.632813 250.367188 C 282.464844 250.199219 282.238281 250.105469 282 250.105469 C 281.761719 250.105469 281.535156 250.199219 281.367188 250.367188 C 281.199219 250.535156 281.105469 250.761719 281.105469 251 C 281.105469 251.238281 281.199219 251.464844 281.367188 251.632813 C 281.535156 251.800781 281.761719 251.894531 282 251.894531 C 282.238281 251.894531 282.464844 251.800781 282.632813 251.632813 C 282.800781 251.464844 282.894531 251.238281 282.894531 251 Z M 282.894531 251 "/>
<path style=" stroke:none;fill-rule:evenodd;fill:rgb(99.998474%,0%,0%);fill-opacity:1;" d="M 282.894531 250 C 282.894531 249.761719 282.800781 249.535156 282.632813 249.367188 C 282.464844 249.199219 282.238281 249.105469 282 249.105469 C 281.761719 249.105469 281.535156 249.199219 281.367188 249.367188 C 281.199219 249.535156 281.105469 249.761719 281.105469 250 C 281.105469 250.238281 281.199219 250.464844 281.367188 250.632813 C 281.535156 250.800781 281.761719 250.894531 282 250.894531 C 282.238281 250.894531 282.464844 250.800781 282.632813 250.632813 C 282.800781 250.464844 282.894531 250.238281 282.894531 250 Z M 282.894531 250 "/>
<path style=" stroke:none;fill-rule:evenodd;fill:rgb(99.998474%,0%,0%);fill-opacity:1;" d="M 248.894531 238 C 248.894531 237.761719 248.800781 237.535156 248.632813 237.367188 C 248.464844 237.199219 248.238281 237.105469 248 237.105469 C 247.761719 237.105469 247.535156 237.199219 247.367188 237.367188 C 247.199219 237.535156 247.105469 237.761719 247.105469 238 C 247.105469 238.238281 247.199219 238.464844 247.367188 238.632813 C 247.535156 238.800781 247.761719 238.894531 248 238.894531 C 248.238281 238.894531 248.464844 238.800781 248.632813 238.632813 C 248.800781 238.464844 248.894531 238.238281 248.894531 238 Z M 248.894531 238 "/>
<path style=" stroke:none;fill-rule:evenodd;fill:rgb(99.998474%,0%,0%);fill-opacity:1;" d="M 248.894531 238 C 248.894531 237.761719 248.800781 237.535156 248.632813 237.367188 C 248.464844 237.199219 248.238281 237.105469 248 237.105469 C 247.761719 237.105469 247.535156 237.199219 247.367188 237.367188 C 247.199219 237.535156 247.105469 237.761719 247.105469 238 C 247.105469 238.238281 247.199219 238.464844 247.367188 238.632813 C 247.535156 238.800781 247.761719 238.894531 248 238.894531 C 248.238281 238.894531 248.464844 238.800781 248.632813 238.632813 C 248.800781 238.464844 248.894531 238.238281 248.894531 238 Z M 248.894531 238 "/>
<path style=" stroke:none;fill-rule:evenodd;fill:rgb(99.998474%,0%,0%);fill-opacity:1;" d="M 249.894531 235 C 249.894531 234.761719 249.800781 234.535156 249.632813 234.367188 C 249.464844 234.199219 249.238281 234.105469 249 234.105469 C 248.761719 234.105469 248.535156 234.199219 248.367188 234.367188 C 248.199219 234.535156 248.105469 234.761719 248.105469 235 C 248.105469 235.238281 248.199219 235.464844 248.367188 235.632813 C 248.535156 235.800781 248.761719 235.894531 249 235.894531 C 249.238281 235.894531 249.464844 235.800781 249.632813 235.632813 C 249.800781 235.464844 249.894531 235.238281 249.894531 235 Z M 249.894531 235 "/>
<path style=" stroke:none;fill-rule:evenodd;fill:rgb(99.998474%,0%,0%);fill-opacity:1;" d="M 249.894531 235 C 249.894531 234.761719 249.800781 234.535156 249.632813 234.367188 C 249.464844 234.199219 249.238281 234.105469 249 234.105469 C 248.761719 234.105469 248.535156 234.199219 248.367188 234.367188 C 248.199219 234.535156 248.105469 234.761719 248.105469 235 C 248.105469 235.238281 248.199219 235.464844 248.367188 235.632813 C 248.535156 235.800781 248.761719 235.894531 249 235.894531 C 249.238281 235.894531 249.464844 235.800781 249.632813 235.632813 C 249.800781 235.464844 249.894531 235.238281 249.894531 235 Z M 249.894531 235 "/>
<path style=" stroke:none;fill-rule:evenodd;fill:rgb(99.998474%,0%,0%);fill-opacity:1;" d="M 254.894531 223 C 254.894531 222.761719 254.800781 222.535156 254.632813 222.367188 C 254.464844 222.199219 254.238281 222.105469 254 222.105469 C 253.761719 222.105469 253.535156 222.199219 253.367188 222.367188 C 253.199219 222.535156 253.105469 222.761719 253.105469 223 C 253.105469 223.238281 253.199219 223.464844 253.367188 223.632813 C 253.535156 223.800781 253.761719 223.894531 254 223.894531 C 254.238281 223.894531 254.464844 223.800781 254.632813 223.632813 C 254.800781 223.464844 254.894531 223.238281 254.894531 223 Z M 254.894531 223 "/>
<path style=" stroke:none;fill-rule:evenodd;fill:rgb(99.998474%,0%,0%);fill-opacity:1;" d="M 254.894531 222 C 254.894531 221.761719 254.800781 221.535156 254.632813 221.367188 C 254.464844 221.199219 254.238281 221.105469 254 221.105469 C 253.761719 221.105469 253.535156 221.199219 253.367188 221.367188 C 253.199219 221.535156 253.105469 221.761719 253.105469 222 C 253.105469 222.238281 253.199219 222.464844 253.367188 222.632813 C 253.535156 222.800781 253.761719 222.894531 254 222.894531 C 254.238281 222.894531 254.464844 222.800781 254.632813 222.632813 C 254.800781 222.464844 254.894531 222.238281 254.894531 222 Z M 254.894531 222 "/>
<path style=" stroke:none;fill-rule:evenodd;fill:rgb(99.998474%,0%,0%);fill-opacity:1;" d="M 256.894531 219 C 256.894531 218.761719 256.800781 218.535156 256.632813 218.367188 C 256.464844 218.199219 256.238281 218.105469 256 218.105469 C 255.761719 218.105469 255.535156 218.199219 255.367188 218.367188 C 255.199219 218.535156 255.105469 218.761719 255.105469 219 C 255.105469 219.238281 255.199219 219.464844 255.367188 219.632813 C 255.535156 219.800781 255.761719 219.894531 256 219.894531 C 256.238281 219.894531 256.464844 219.800781 256.632813 219.632813 C 256.800781 219.464844 256.894531 219.238281 256.894531 219 Z M 256.894531 219 "/>
<path style=" stroke:none;fill-rule:evenodd;fill:rgb(99.998474%,0%,0%);fill-opacity:1;" d="M 255.894531 219 C 255.894531 218.761719 255.800781 218.535156 255.632813 218.367188 C 255.464844 218.199219 255.238281 218.105469 255 218.105469 C 254.761719 218.105469 254.535156 218.199219 254.367188 218.367188 C 254.199219 218.535156 254.105469 218.761719 254.105469 219 C 254.105469 219.238281 254.199219 219.464844 254.367188 219.632813 C 254.535156 219.800781 254.761719 219.894531 255 219.894531 C 255.238281 219.894531 255.464844 219.800781 255.632813 219.632813 C 255.800781 219.464844 255.894531 219.238281 255.894531 219 Z M 255.894531 219 "/>
<path style=" stroke:none;fill-rule:evenodd;fill:rgb(99.998474%,0%,0%);fill-opacity:1;" d="M 292.894531 213 C 292.894531 212.761719 292.800781 212.535156 292.632813 212.367188 C 292.464844 212.199219 292.238281 212.105469 292 212.105469 C 291.761719 212.105469 291.535156 212.199219 291.367188 212.367188 C 291.199219 212.535156 291.105469 212.761719 291.105469 213 C 291.105469 213.238281 291.199219 213.464844 291.367188 213.632813 C 291.535156 213.800781 291.761719 213.894531 292 213.894531 C 292.238281 213.894531 292.464844 213.800781 292.632813 213.632813 C 292.800781 213.464844 292.894531 213.238281 292.894531 213 Z M 292.894531 213 "/>
<path style=" stroke:none;fill-rule:evenodd;fill:rgb(99.998474%,0%,0%);fill-opacity:1;" d="M 289.894531 212 C 289.894531 211.761719 289.800781 211.535156 289.632813 211.367188 C 289.464844 211.199219 289.238281 211.105469 289 211.105469 C 288.761719 211.105469 288.535156 211.199219 288.367188 211.367188 C 288.199219 211.535156 288.105469 211.761719 288.105469 212 C 288.105469 212.238281 288.199219 212.464844 288.367188 212.632813 C 288.535156 212.800781 288.761719 212.894531 289 212.894531 C 289.238281 212.894531 289.464844 212.800781 289.632813 212.632813 C 289.800781 212.464844 289.894531 212.238281 289.894531 212 Z M 289.894531 212 "/>
<path style=" stroke:none;fill-rule:evenodd;fill:rgb(99.998474%,0%,0%);fill-opacity:1;" d="M 289.894531 208 C 289.894531 207.761719 289.800781 207.535156 289.632813 207.367188 C 289.464844 207.199219 289.238281 207.105469 289 207.105469 C 288.761719 207.105469 288.535156 207.199219 288.367188 207.367188 C 288.199219 207.535156 288.105469 207.761719 288.105469 208 C 288.105469 208.238281 288.199219 208.464844 288.367188 208.632813 C 288.535156 208.800781 288.761719 208.894531 289 208.894531 C 289.238281 208.894531 289.464844 208.800781 289.632813 208.632813 C 289.800781 208.464844 289.894531 208.238281 289.894531 208 Z M 289.894531 208 "/>
<path style=" stroke:none;fill-rule:evenodd;fill:rgb(99.998474%,0%,0%);fill-opacity:1;" d="M 293.894531 207 C 293.894531 206.761719 293.800781 206.535156 293.632813 206.367188 C 293.464844 206.199219 293.238281 206.105469 293 206.105469 C 292.761719 206.105469 292.535156 206.199219 292.367188 206.367188 C 292.199219 206.535156 292.105469 206.761719 292.105469 207 C 292.105469 207.238281 292.199219 207.464844 292.367188 207.632813 C 292.535156 207.800781 292.761719 207.894531 293 207.894531 C 293.238281 207.894531 293.464844 207.800781 293.632813 207.632813 C 293.800781 207.464844 293.894531 207.238281 293.894531 207 Z M 293.894531 207 "/>
<path style=" stroke:none;fill-rule:evenodd;fill:rgb(99.998474%,0%,0%);fill-opacity:1;" d="M 296.894531 206 C 296.894531 205.761719 296.800781 205.535156 296.632813 205.367188 C 296.464844 205.199219 296.238281 205.105469 296 205.105469 C 295.761719 205.105469 295.535156 205.199219 295.367188 205.367188 C 295.199219 205.535156 295.105469 205.761719 295.105469 206 C 295.105469 206.238281 295.199219 206.464844 295.367188 206.632813 C 295.535156 206.800781 295.761719 206.894531 296 206.894531 C 296.238281 206.894531 296.464844 206.800781 296.632813 206.632813 C 296.800781 206.464844 296.894531 206.238281 296.894531 206 Z M 296.894531 206 "/>
<path style=" stroke:none;fill-rule:evenodd;fill:rgb(99.998474%,0%,0%);fill-opacity:1;" d="M 299.894531 206 C 299.894531 205.761719 299.800781 205.535156 299.632813 205.367188 C 299.464844 205.199219 299.238281 205.105469 299 205.105469 C 298.761719 205.105469 298.535156 205.199219 298.367188 205.367188 C 298.199219 205.535156 298.105469 205.761719 298.105469 206 C 298.105469 206.238281 298.199219 206.464844 298.367188 206.632813 C 298.535156 206.800781 298.761719 206.894531 299 206.894531 C 299.238281 206.894531 299.464844 206.800781 299.632813 206.632813 C 299.800781 206.464844 299.894531 206.238281 299.894531 206 Z M 299.894531 206 "/>
<path style=" stroke:none;fill-rule:evenodd;fill:rgb(99.998474%,0%,0%);fill-opacity:1;" d="M 296.894531 205 C 296.894531 204.761719 296.800781 204.535156 296.632813 204.367188 C 296.464844 204.199219 296.238281 204.105469 296 204.105469 C 295.761719 204.105469 295.535156 204.199219 295.367188 204.367188 C 295.199219 204.535156 295.105469 204.761719 295.105469 205 C 295.105469 205.238281 295.199219 205.464844 295.367188 205.632813 C 295.535156 205.800781 295.761719 205.894531 296 205.894531 C 296.238281 205.894531 296.464844 205.800781 296.632813 205.632813 C 296.800781 205.464844 296.894531 205.238281 296.894531 205 Z M 296.894531 205 "/>
<path style=" stroke:none;fill-rule:evenodd;fill:rgb(99.998474%,0%,0%);fill-opacity:1;" d="M 291.894531 204 C 291.894531 203.761719 291.800781 203.535156 291.632813 203.367188 C 291.464844 203.199219 291.238281 203.105469 291 203.105469 C 290.761719 203.105469 290.535156 203.199219 290.367188 203.367188 C 290.199219 203.535156 290.105469 203.761719 290.105469 204 C 290.105469 204.238281 290.199219 204.464844 290.367188 204.632813 C 290.535156 204.800781 290.761719 204.894531 291 204.894531 C 291.238281 204.894531 291.464844 204.800781 291.632813 204.632813 C 291.800781 204.464844 291.894531 204.238281 291.894531 204 Z M 291.894531 204 "/>
<path style=" stroke:none;fill-rule:evenodd;fill:rgb(99.998474%,0%,0%);fill-opacity:1;" d="M 298.894531 203 C 298.894531 202.761719 298.800781 202.535156 298.632813 202.367188 C 298.464844 202.199219 298.238281 202.105469 298 202.105469 C 297.761719 202.105469 297.535156 202.199219 297.367188 202.367188 C 297.199219 202.535156 297.105469 202.761719 297.105469 203 C 297.105469 203.238281 297.199219 203.464844 297.367188 203.632813 C 297.535156 203.800781 297.761719 203.894531 298 203.894531 C 298.238281 203.894531 298.464844 203.800781 298.632813 203.632813 C 298.800781 203.464844 298.894531 203.238281 298.894531 203 Z M 298.894531 203 "/>
<path style=" stroke:none;fill-rule:evenodd;fill:rgb(99.998474%,0%,0%);fill-opacity:1;" d="M 288.894531 202 C 288.894531 201.761719 288.800781 201.535156 288.632813 201.367188 C 288.464844 201.199219 288.238281 201.105469 288 201.105469 C 287.761719 201.105469 287.535156 201.199219 287.367188 201.367188 C 287.199219 201.535156 287.105469 201.761719 287.105469 202 C 287.105469 202.238281 287.199219 202.464844 287.367188 202.632813 C 287.535156 202.800781 287.761719 202.894531 288 202.894531 C 288.238281 202.894531 288.464844 202.800781 288.632813 202.632813 C 288.800781 202.464844 288.894531 202.238281 288.894531 202 Z M 288.894531 202 "/>
<path style=" stroke:none;fill-rule:evenodd;fill:rgb(99.998474%,0%,0%);fill-opacity:1;" d="M 290.894531 201 C 290.894531 200.761719 290.800781 200.535156 290.632813 200.367188 C 290.464844 200.199219 290.238281 200.105469 290 200.105469 C 289.761719 200.105469 289.535156 200.199219 289.367188 200.367188 C 289.199219 200.535156 289.105469 200.761719 289.105469 201 C 289.105469 201.238281 289.199219 201.464844 289.367188 201.632813 C 289.535156 201.800781 289.761719 201.894531 290 201.894531 C 290.238281 201.894531 290.464844 201.800781 290.632813 201.632813 C 290.800781 201.464844 290.894531 201.238281 290.894531 201 Z M 290.894531 201 "/>
<path style=" stroke:none;fill-rule:evenodd;fill:rgb(99.998474%,0%,0%);fill-opacity:1;" d="M 292.894531 197 C 292.894531 196.761719 292.800781 196.535156 292.632813 196.367188 C 292.464844 196.199219 292.238281 196.105469 292 196.105469 C 291.761719 196.105469 291.535156 196.199219 291.367188 196.367188 C 291.199219 196.535156 291.105469 196.761719 291.105469 197 C 291.105469 197.238281 291.199219 197.464844 291.367188 197.632813 C 291.535156 197.800781 291.761719 197.894531 292 197.894531 C 292.238281 197.894531 292.464844 197.800781 292.632813 197.632813 C 292.800781 197.464844 292.894531 197.238281 292.894531 197 Z M 292.894531 197 "/>
<path style=" stroke:none;fill-rule:evenodd;fill:rgb(99.998474%,0%,0%);fill-opacity:1;" d="M 299.894531 198 C 299.894531 197.761719 299.800781 197.535156 299.632813 197.367188 C 299.464844 197.199219 299.238281 197.105469 299 197.105469 C 298.761719 197.105469 298.535156 197.199219 298.367188 197.367188 C 298.199219 197.535156 298.105469 197.761719 298.105469 198 C 298.105469 198.238281 298.199219 198.464844 298.367188 198.632813 C 298.535156 198.800781 298.761719 198.894531 299 198.894531 C 299.238281 198.894531 299.464844 198.800781 299.632813 198.632813 C 299.800781 198.464844 299.894531 198.238281 299.894531 198 Z M 299.894531 198 "/>
<path style=" stroke:none;fill-rule:evenodd;fill:rgb(99.998474%,0%,0%);fill-opacity:1;" d="M 295.894531 198 C 295.894531 197.761719 295.800781 197.535156 295.632813 197.367188 C 295.464844 197.199219 295.238281 197.105469 295 197.105469 C 294.761719 197.105469 294.535156 197.199219 294.367188 197.367188 C 294.199219 197.535156 294.105469 197.761719 294.105469 198 C 294.105469 198.238281 294.199219 198.464844 294.367188 198.632813 C 294.535156 198.800781 294.761719 198.894531 295 198.894531 C 295.238281 198.894531 295.464844 198.800781 295.632813 198.632813 C 295.800781 198.464844 295.894531 198.238281 295.894531 198 Z M 295.894531 198 "/>
<path style=" stroke:none;fill-rule:evenodd;fill:rgb(99.998474%,0%,0%);fill-opacity:1;" d="M 242.894531 187 C 242.894531 186.761719 242.800781 186.535156 242.632813 186.367188 C 242.464844 186.199219 242.238281 186.105469 242 186.105469 C 241.761719 186.105469 241.535156 186.199219 241.367188 186.367188 C 241.199219 186.535156 241.105469 186.761719 241.105469 187 C 241.105469 187.238281 241.199219 187.464844 241.367188 187.632813 C 241.535156 187.800781 241.761719 187.894531 242 187.894531 C 242.238281 187.894531 242.464844 187.800781 242.632813 187.632813 C 242.800781 187.464844 242.894531 187.238281 242.894531 187 Z M 242.894531 187 "/>
<path style=" stroke:none;fill-rule:evenodd;fill:rgb(99.998474%,0%,0%);fill-opacity:1;" d="M 242.894531 186 C 242.894531 185.761719 242.800781 185.535156 242.632813 185.367188 C 242.464844 185.199219 242.238281 185.105469 242 185.105469 C 241.761719 185.105469 241.535156 185.199219 241.367188 185.367188 C 241.199219 185.535156 241.105469 185.761719 241.105469 186 C 241.105469 186.238281 241.199219 186.464844 241.367188 186.632813 C 241.535156 186.800781 241.761719 186.894531 242 186.894531 C 242.238281 186.894531 242.464844 186.800781 242.632813 186.632813 C 242.800781 186.464844 242.894531 186.238281 242.894531 186 Z M 242.894531 186 "/>
<path style=" stroke:none;fill-rule:evenodd;fill:rgb(99.998474%,0%,0%);fill-opacity:1;" d="M 242.894531 186 C 242.894531 185.761719 242.800781 185.535156 242.632813 185.367188 C 242.464844 185.199219 242.238281 185.105469 242 185.105469 C 241.761719 185.105469 241.535156 185.199219 241.367188 185.367188 C 241.199219 185.535156 241.105469 185.761719 241.105469 186 C 241.105469 186.238281 241.199219 186.464844 241.367188 186.632813 C 241.535156 186.800781 241.761719 186.894531 242 186.894531 C 242.238281 186.894531 242.464844 186.800781 242.632813 186.632813 C 242.800781 186.464844 242.894531 186.238281 242.894531 186 Z M 242.894531 186 "/>
<path style=" stroke:none;fill-rule:evenodd;fill:rgb(99.998474%,0%,0%);fill-opacity:1;" d="M 242.894531 185 C 242.894531 184.761719 242.800781 184.535156 242.632813 184.367188 C 242.464844 184.199219 242.238281 184.105469 242 184.105469 C 241.761719 184.105469 241.535156 184.199219 241.367188 184.367188 C 241.199219 184.535156 241.105469 184.761719 241.105469 185 C 241.105469 185.238281 241.199219 185.464844 241.367188 185.632813 C 241.535156 185.800781 241.761719 185.894531 242 185.894531 C 242.238281 185.894531 242.464844 185.800781 242.632813 185.632813 C 242.800781 185.464844 242.894531 185.238281 242.894531 185 Z M 242.894531 185 "/>
<path style=" stroke:none;fill-rule:evenodd;fill:rgb(99.998474%,0%,0%);fill-opacity:1;" d="M 244.894531 184 C 244.894531 183.761719 244.800781 183.535156 244.632813 183.367188 C 244.464844 183.199219 244.238281 183.105469 244 183.105469 C 243.761719 183.105469 243.535156 183.199219 243.367188 183.367188 C 243.199219 183.535156 243.105469 183.761719 243.105469 184 C 243.105469 184.238281 243.199219 184.464844 243.367188 184.632813 C 243.535156 184.800781 243.761719 184.894531 244 184.894531 C 244.238281 184.894531 244.464844 184.800781 244.632813 184.632813 C 244.800781 184.464844 244.894531 184.238281 244.894531 184 Z M 244.894531 184 "/>
<path style=" stroke:none;fill-rule:evenodd;fill:rgb(99.998474%,0%,0%);fill-opacity:1;" d="M 244.894531 183 C 244.894531 182.761719 244.800781 182.535156 244.632813 182.367188 C 244.464844 182.199219 244.238281 182.105469 244 182.105469 C 243.761719 182.105469 243.535156 182.199219 243.367188 182.367188 C 243.199219 182.535156 243.105469 182.761719 243.105469 183 C 243.105469 183.238281 243.199219 183.464844 243.367188 183.632813 C 243.535156 183.800781 243.761719 183.894531 244 183.894531 C 244.238281 183.894531 244.464844 183.800781 244.632813 183.632813 C 244.800781 183.464844 244.894531 183.238281 244.894531 183 Z M 244.894531 183 "/>
<path style=" stroke:none;fill-rule:evenodd;fill:rgb(99.998474%,0%,0%);fill-opacity:1;" d="M 255.894531 182 C 255.894531 181.761719 255.800781 181.535156 255.632813 181.367188 C 255.464844 181.199219 255.238281 181.105469 255 181.105469 C 254.761719 181.105469 254.535156 181.199219 254.367188 181.367188 C 254.199219 181.535156 254.105469 181.761719 254.105469 182 C 254.105469 182.238281 254.199219 182.464844 254.367188 182.632813 C 254.535156 182.800781 254.761719 182.894531 255 182.894531 C 255.238281 182.894531 255.464844 182.800781 255.632813 182.632813 C 255.800781 182.464844 255.894531 182.238281 255.894531 182 Z M 255.894531 182 "/>
<path style=" stroke:none;fill-rule:evenodd;fill:rgb(99.998474%,0%,0%);fill-opacity:1;" d="M 251.894531 181 C 251.894531 180.761719 251.800781 180.535156 251.632813 180.367188 C 251.464844 180.199219 251.238281 180.105469 251 180.105469 C 250.761719 180.105469 250.535156 180.199219 250.367188 180.367188 C 250.199219 180.535156 250.105469 180.761719 250.105469 181 C 250.105469 181.238281 250.199219 181.464844 250.367188 181.632813 C 250.535156 181.800781 250.761719 181.894531 251 181.894531 C 251.238281 181.894531 251.464844 181.800781 251.632813 181.632813 C 251.800781 181.464844 251.894531 181.238281 251.894531 181 Z M 251.894531 181 "/>
<path style=" stroke:none;fill-rule:evenodd;fill:rgb(99.998474%,0%,0%);fill-opacity:1;" d="M 242.894531 181 C 242.894531 180.761719 242.800781 180.535156 242.632813 180.367188 C 242.464844 180.199219 242.238281 180.105469 242 180.105469 C 241.761719 180.105469 241.535156 180.199219 241.367188 180.367188 C 241.199219 180.535156 241.105469 180.761719 241.105469 181 C 241.105469 181.238281 241.199219 181.464844 241.367188 181.632813 C 241.535156 181.800781 241.761719 181.894531 242 181.894531 C 242.238281 181.894531 242.464844 181.800781 242.632813 181.632813 C 242.800781 181.464844 242.894531 181.238281 242.894531 181 Z M 242.894531 181 "/>
<path style=" stroke:none;fill-rule:evenodd;fill:rgb(99.998474%,0%,0%);fill-opacity:1;" d="M 253.894531 180 C 253.894531 179.761719 253.800781 179.535156 253.632813 179.367188 C 253.464844 179.199219 253.238281 179.105469 253 179.105469 C 252.761719 179.105469 252.535156 179.199219 252.367188 179.367188 C 252.199219 179.535156 252.105469 179.761719 252.105469 180 C 252.105469 180.238281 252.199219 180.464844 252.367188 180.632813 C 252.535156 180.800781 252.761719 180.894531 253 180.894531 C 253.238281 180.894531 253.464844 180.800781 253.632813 180.632813 C 253.800781 180.464844 253.894531 180.238281 253.894531 180 Z M 253.894531 180 "/>
<path style=" stroke:none;fill-rule:evenodd;fill:rgb(99.998474%,0%,0%);fill-opacity:1;" d="M 258.894531 180 C 258.894531 179.761719 258.800781 179.535156 258.632813 179.367188 C 258.464844 179.199219 258.238281 179.105469 258 179.105469 C 257.761719 179.105469 257.535156 179.199219 257.367188 179.367188 C 257.199219 179.535156 257.105469 179.761719 257.105469 180 C 257.105469 180.238281 257.199219 180.464844 257.367188 180.632813 C 257.535156 180.800781 257.761719 180.894531 258 180.894531 C 258.238281 180.894531 258.464844 180.800781 258.632813 180.632813 C 258.800781 180.464844 258.894531 180.238281 258.894531 180 Z M 258.894531 180 "/>
<path style=" stroke:none;fill-rule:evenodd;fill:rgb(99.998474%,0%,0%);fill-opacity:1;" d="M 254.894531 176 C 254.894531 175.761719 254.800781 175.535156 254.632813 175.367188 C 254.464844 175.199219 254.238281 175.105469 254 175.105469 C 253.761719 175.105469 253.535156 175.199219 253.367188 175.367188 C 253.199219 175.535156 253.105469 175.761719 253.105469 176 C 253.105469 176.238281 253.199219 176.464844 253.367188 176.632813 C 253.535156 176.800781 253.761719 176.894531 254 176.894531 C 254.238281 176.894531 254.464844 176.800781 254.632813 176.632813 C 254.800781 176.464844 254.894531 176.238281 254.894531 176 Z M 254.894531 176 "/>
<path style=" stroke:none;fill-rule:evenodd;fill:rgb(99.998474%,0%,0%);fill-opacity:1;" d="M 256.894531 175 C 256.894531 174.761719 256.800781 174.535156 256.632813 174.367188 C 256.464844 174.199219 256.238281 174.105469 256 174.105469 C 255.761719 174.105469 255.535156 174.199219 255.367188 174.367188 C 255.199219 174.535156 255.105469 174.761719 255.105469 175 C 255.105469 175.238281 255.199219 175.464844 255.367188 175.632813 C 255.535156 175.800781 255.761719 175.894531 256 175.894531 C 256.238281 175.894531 256.464844 175.800781 256.632813 175.632813 C 256.800781 175.464844 256.894531 175.238281 256.894531 175 Z M 256.894531 175 "/>
<path style=" stroke:none;fill-rule:evenodd;fill:rgb(99.998474%,0%,0%);fill-opacity:1;" d="M 56.894531 139 C 56.894531 138.761719 56.800781 138.535156 56.632813 138.367188 C 56.464844 138.199219 56.238281 138.105469 56 138.105469 C 55.761719 138.105469 55.535156 138.199219 55.367188 138.367188 C 55.199219 138.535156 55.105469 138.761719 55.105469 139 C 55.105469 139.238281 55.199219 139.464844 55.367188 139.632813 C 55.535156 139.800781 55.761719 139.894531 56 139.894531 C 56.238281 139.894531 56.464844 139.800781 56.632813 139.632813 C 56.800781 139.464844 56.894531 139.238281 56.894531 139 Z M 56.894531 139 "/>
<path style=" stroke:none;fill-rule:evenodd;fill:rgb(99.998474%,0%,0%);fill-opacity:1;" d="M 59.894531 137 C 59.894531 136.761719 59.800781 136.535156 59.632813 136.367188 C 59.464844 136.199219 59.238281 136.105469 59 136.105469 C 58.761719 136.105469 58.535156 136.199219 58.367188 136.367188 C 58.199219 136.535156 58.105469 136.761719 58.105469 137 C 58.105469 137.238281 58.199219 137.464844 58.367188 137.632813 C 58.535156 137.800781 58.761719 137.894531 59 137.894531 C 59.238281 137.894531 59.464844 137.800781 59.632813 137.632813 C 59.800781 137.464844 59.894531 137.238281 59.894531 137 Z M 59.894531 137 "/>
<path style=" stroke:none;fill-rule:evenodd;fill:rgb(99.998474%,0%,0%);fill-opacity:1;" d="M 52.894531 135 C 52.894531 134.761719 52.800781 134.535156 52.632813 134.367188 C 52.464844 134.199219 52.238281 134.105469 52 134.105469 C 51.761719 134.105469 51.535156 134.199219 51.367188 134.367188 C 51.199219 134.535156 51.105469 134.761719 51.105469 135 C 51.105469 135.238281 51.199219 135.464844 51.367188 135.632813 C 51.535156 135.800781 51.761719 135.894531 52 135.894531 C 52.238281 135.894531 52.464844 135.800781 52.632813 135.632813 C 52.800781 135.464844 52.894531 135.238281 52.894531 135 Z M 52.894531 135 "/>
<path style=" stroke:none;fill-rule:evenodd;fill:rgb(99.998474%,0%,0%);fill-opacity:1;" d="M 56.894531 134 C 56.894531 133.761719 56.800781 133.535156 56.632813 133.367188 C 56.464844 133.199219 56.238281 133.105469 56 133.105469 C 55.761719 133.105469 55.535156 133.199219 55.367188 133.367188 C 55.199219 133.535156 55.105469 133.761719 55.105469 134 C 55.105469 134.238281 55.199219 134.464844 55.367188 134.632813 C 55.535156 134.800781 55.761719 134.894531 56 134.894531 C 56.238281 134.894531 56.464844 134.800781 56.632813 134.632813 C 56.800781 134.464844 56.894531 134.238281 56.894531 134 Z M 56.894531 134 "/>
<path style=" stroke:none;fill-rule:evenodd;fill:rgb(99.998474%,0%,0%);fill-opacity:1;" d="M 50.894531 133 C 50.894531 132.761719 50.800781 132.535156 50.632813 132.367188 C 50.464844 132.199219 50.238281 132.105469 50 132.105469 C 49.761719 132.105469 49.535156 132.199219 49.367188 132.367188 C 49.199219 132.535156 49.105469 132.761719 49.105469 133 C 49.105469 133.238281 49.199219 133.464844 49.367188 133.632813 C 49.535156 133.800781 49.761719 133.894531 50 133.894531 C 50.238281 133.894531 50.464844 133.800781 50.632813 133.632813 C 50.800781 133.464844 50.894531 133.238281 50.894531 133 Z M 50.894531 133 "/>
<path style=" stroke:none;fill-rule:evenodd;fill:rgb(99.998474%,0%,0%);fill-opacity:1;" d="M 56.894531 131 C 56.894531 130.761719 56.800781 130.535156 56.632813 130.367188 C 56.464844 130.199219 56.238281 130.105469 56 130.105469 C 55.761719 130.105469 55.535156 130.199219 55.367188 130.367188 C 55.199219 130.535156 55.105469 130.761719 55.105469 131 C 55.105469 131.238281 55.199219 131.464844 55.367188 131.632813 C 55.535156 131.800781 55.761719 131.894531 56 131.894531 C 56.238281 131.894531 56.464844 131.800781 56.632813 131.632813 C 56.800781 131.464844 56.894531 131.238281 56.894531 131 Z M 56.894531 131 "/>
<path style=" stroke:none;fill-rule:evenodd;fill:rgb(99.998474%,0%,0%);fill-opacity:1;" d="M 43.894531 131 C 43.894531 130.761719 43.800781 130.535156 43.632813 130.367188 C 43.464844 130.199219 43.238281 130.105469 43 130.105469 C 42.761719 130.105469 42.535156 130.199219 42.367188 130.367188 C 42.199219 130.535156 42.105469 130.761719 42.105469 131 C 42.105469 131.238281 42.199219 131.464844 42.367188 131.632813 C 42.535156 131.800781 42.761719 131.894531 43 131.894531 C 43.238281 131.894531 43.464844 131.800781 43.632813 131.632813 C 43.800781 131.464844 43.894531 131.238281 43.894531 131 Z M 43.894531 131 "/>
<path style=" stroke:none;fill-rule:evenodd;fill:rgb(99.998474%,0%,0%);fill-opacity:1;" d="M 45.894531 131 C 45.894531 130.761719 45.800781 130.535156 45.632813 130.367188 C 45.464844 130.199219 45.238281 130.105469 45 130.105469 C 44.761719 130.105469 44.535156 130.199219 44.367188 130.367188 C 44.199219 130.535156 44.105469 130.761719 44.105469 131 C 44.105469 131.238281 44.199219 131.464844 44.367188 131.632813 C 44.535156 131.800781 44.761719 131.894531 45 131.894531 C 45.238281 131.894531 45.464844 131.800781 45.632813 131.632813 C 45.800781 131.464844 45.894531 131.238281 45.894531 131 Z M 45.894531 131 "/>
<path style=" stroke:none;fill-rule:evenodd;fill:rgb(99.998474%,0%,0%);fill-opacity:1;" d="M 99.894531 66 C 99.894531 65.761719 99.800781 65.535156 99.632813 65.367188 C 99.464844 65.199219 99.238281 65.105469 99 65.105469 C 98.761719 65.105469 98.535156 65.199219 98.367188 65.367188 C 98.199219 65.535156 98.105469 65.761719 98.105469 66 C 98.105469 66.238281 98.199219 66.464844 98.367188 66.632813 C 98.535156 66.800781 98.761719 66.894531 99 66.894531 C 99.238281 66.894531 99.464844 66.800781 99.632813 66.632813 C 99.800781 66.464844 99.894531 66.238281 99.894531 66 Z M 99.894531 66 "/>
<path style=" stroke:none;fill-rule:evenodd;fill:rgb(99.998474%,0%,0%);fill-opacity:1;" d="M 94.894531 64 C 94.894531 63.761719 94.800781 63.535156 94.632813 63.367188 C 94.464844 63.199219 94.238281 63.105469 94 63.105469 C 93.761719 63.105469 93.535156 63.199219 93.367188 63.367188 C 93.199219 63.535156 93.105469 63.761719 93.105469 64 C 93.105469 64.238281 93.199219 64.464844 93.367188 64.632813 C 93.535156 64.800781 93.761719 64.894531 94 64.894531 C 94.238281 64.894531 94.464844 64.800781 94.632813 64.632813 C 94.800781 64.464844 94.894531 64.238281 94.894531 64 Z M 94.894531 64 "/>
<path style=" stroke:none;fill-rule:evenodd;fill:rgb(99.998474%,0%,0%);fill-opacity:1;" d="M 97.894531 64 C 97.894531 63.761719 97.800781 63.535156 97.632813 63.367188 C 97.464844 63.199219 97.238281 63.105469 97 63.105469 C 96.761719 63.105469 96.535156 63.199219 96.367188 63.367188 C 96.199219 63.535156 96.105469 63.761719 96.105469 64 C 96.105469 64.238281 96.199219 64.464844 96.367188 64.632813 C 96.535156 64.800781 96.761719 64.894531 97 64.894531 C 97.238281 64.894531 97.464844 64.800781 97.632813 64.632813 C 97.800781 64.464844 97.894531 64.238281 97.894531 64 Z M 97.894531 64 "/>
<path style=" stroke:none;fill-rule:evenodd;fill:rgb(99.998474%,0%,0%);fill-opacity:1;" d="M 98.894531 63 C 98.894531 62.761719 98.800781 62.535156 98.632813 62.367188 C 98.464844 62.199219 98.238281 62.105469 98 62.105469 C 97.761719 62.105469 97.535156 62.199219 97.367188 62.367188 C 97.199219 62.535156 97.105469 62.761719 97.105469 63 C 97.105469 63.238281 97.199219 63.464844 97.367188 63.632813 C 97.535156 63.800781 97.761719 63.894531 98 63.894531 C 98.238281 63.894531 98.464844 63.800781 98.632813 63.632813 C 98.800781 63.464844 98.894531 63.238281 98.894531 63 Z M 98.894531 63 "/>
<path style=" stroke:none;fill-rule:evenodd;fill:rgb(99.998474%,0%,0%);fill-opacity:1;" d="M 96.894531 62 C 96.894531 61.761719 96.800781 61.535156 96.632813 61.367188 C 96.464844 61.199219 96.238281 61.105469 96 61.105469 C 95.761719 61.105469 95.535156 61.199219 95.367188 61.367188 C 95.199219 61.535156 95.105469 61.761719 95.105469 62 C 95.105469 62.238281 95.199219 62.464844 95.367188 62.632813 C 95.535156 62.800781 95.761719 62.894531 96 62.894531 C 96.238281 62.894531 96.464844 62.800781 96.632813 62.632813 C 96.800781 62.464844 96.894531 62.238281 96.894531 62 Z M 96.894531 62 "/>
<path style=" stroke:none;fill-rule:evenodd;fill:rgb(99.998474%,0%,0%);fill-opacity:1;" d="M 96.894531 62 C 96.894531 61.761719 96.800781 61.535156 96.632813 61.367188 C 96.464844 61.199219 96.238281 61.105469 96 61.105469 C 95.761719 61.105469 95.535156 61.199219 95.367188 61.367188 C 95.199219 61.535156 95.105469 61.761719 95.105469 62 C 95.105469 62.238281 95.199219 62.464844 95.367188 62.632813 C 95.535156 62.800781 95.761719 62.894531 96 62.894531 C 96.238281 62.894531 96.464844 62.800781 96.632813 62.632813 C 96.800781 62.464844 96.894531 62.238281 96.894531 62 Z M 96.894531 62 "/>
<path style=" stroke:none;fill-rule:evenodd;fill:rgb(99.998474%,0%,0%);fill-opacity:1;" d="M 98.894531 61 C 98.894531 60.761719 98.800781 60.535156 98.632813 60.367188 C 98.464844 60.199219 98.238281 60.105469 98 60.105469 C 97.761719 60.105469 97.535156 60.199219 97.367188 60.367188 C 97.199219 60.535156 97.105469 60.761719 97.105469 61 C 97.105469 61.238281 97.199219 61.464844 97.367188 61.632813 C 97.535156 61.800781 97.761719 61.894531 98 61.894531 C 98.238281 61.894531 98.464844 61.800781 98.632813 61.632813 C 98.800781 61.464844 98.894531 61.238281 98.894531 61 Z M 98.894531 61 "/>
<path style=" stroke:none;fill-rule:evenodd;fill:rgb(99.998474%,0%,0%);fill-opacity:1;" d="M 94.894531 62 C 94.894531 61.761719 94.800781 61.535156 94.632813 61.367188 C 94.464844 61.199219 94.238281 61.105469 94 61.105469 C 93.761719 61.105469 93.535156 61.199219 93.367188 61.367188 C 93.199219 61.535156 93.105469 61.761719 93.105469 62 C 93.105469 62.238281 93.199219 62.464844 93.367188 62.632813 C 93.535156 62.800781 93.761719 62.894531 94 62.894531 C 94.238281 62.894531 94.464844 62.800781 94.632813 62.632813 C 94.800781 62.464844 94.894531 62.238281 94.894531 62 Z M 94.894531 62 "/>
<path style=" stroke:none;fill-rule:evenodd;fill:rgb(99.998474%,0%,0%);fill-opacity:1;" d="M 99.894531 60 C 99.894531 59.761719 99.800781 59.535156 99.632813 59.367188 C 99.464844 59.199219 99.238281 59.105469 99 59.105469 C 98.761719 59.105469 98.535156 59.199219 98.367188 59.367188 C 98.199219 59.535156 98.105469 59.761719 98.105469 60 C 98.105469 60.238281 98.199219 60.464844 98.367188 60.632813 C 98.535156 60.800781 98.761719 60.894531 99 60.894531 C 99.238281 60.894531 99.464844 60.800781 99.632813 60.632813 C 99.800781 60.464844 99.894531 60.238281 99.894531 60 Z M 99.894531 60 "/>
<path style=" stroke:none;fill-rule:evenodd;fill:rgb(10.00061%,89.99939%,39.99939%);fill-opacity:1;" d="M 24.894531 340 C 24.894531 339.761719 24.800781 339.535156 24.632813 339.367188 C 24.464844 339.199219 24.238281 339.105469 24 339.105469 C 23.761719 339.105469 23.535156 339.199219 23.367188 339.367188 C 23.199219 339.535156 23.105469 339.761719 23.105469 340 C 23.105469 340.238281 23.199219 340.464844 23.367188 340.632813 C 23.535156 340.800781 23.761719 340.894531 24 340.894531 C 24.238281 340.894531 24.464844 340.800781 24.632813 340.632813 C 24.800781 340.464844 24.894531 340.238281 24.894531 340 Z M 24.894531 340 "/>
<path style=" stroke:none;fill-rule:evenodd;fill:rgb(10.00061%,89.99939%,39.99939%);fill-opacity:1;" d="M 15.894531 302 C 15.894531 301.761719 15.800781 301.535156 15.632813 301.367188 C 15.464844 301.199219 15.238281 301.105469 15 301.105469 C 14.761719 301.105469 14.535156 301.199219 14.367188 301.367188 C 14.199219 301.535156 14.105469 301.761719 14.105469 302 C 14.105469 302.238281 14.199219 302.464844 14.367188 302.632813 C 14.535156 302.800781 14.761719 302.894531 15 302.894531 C 15.238281 302.894531 15.464844 302.800781 15.632813 302.632813 C 15.800781 302.464844 15.894531 302.238281 15.894531 302 Z M 15.894531 302 "/>
<path style=" stroke:none;fill-rule:evenodd;fill:rgb(10.00061%,89.99939%,39.99939%);fill-opacity:1;" d="M 14.894531 302 C 14.894531 301.761719 14.800781 301.535156 14.632813 301.367188 C 14.464844 301.199219 14.238281 301.105469 14 301.105469 C 13.761719 301.105469 13.535156 301.199219 13.367188 301.367188 C 13.199219 301.535156 13.105469 301.761719 13.105469 302 C 13.105469 302.238281 13.199219 302.464844 13.367188 302.632813 C 13.535156 302.800781 13.761719 302.894531 14 302.894531 C 14.238281 302.894531 14.464844 302.800781 14.632813 302.632813 C 14.800781 302.464844 14.894531 302.238281 14.894531 302 Z M 14.894531 302 "/>
<path style=" stroke:none;fill-rule:evenodd;fill:rgb(10.00061%,89.99939%,39.99939%);fill-opacity:1;" d="M 13.894531 300 C 13.894531 299.761719 13.800781 299.535156 13.632813 299.367188 C 13.464844 299.199219 13.238281 299.105469 13 299.105469 C 12.761719 299.105469 12.535156 299.199219 12.367188 299.367188 C 12.199219 299.535156 12.105469 299.761719 12.105469 300 C 12.105469 300.238281 12.199219 300.464844 12.367188 300.632813 C 12.535156 300.800781 12.761719 300.894531 13 300.894531 C 13.238281 300.894531 13.464844 300.800781 13.632813 300.632813 C 13.800781 300.464844 13.894531 300.238281 13.894531 300 Z M 13.894531 300 "/>
<path style=" stroke:none;fill-rule:evenodd;fill:rgb(10.00061%,89.99939%,39.99939%);fill-opacity:1;" d="M 19.894531 298 C 19.894531 297.761719 19.800781 297.535156 19.632813 297.367188 C 19.464844 297.199219 19.238281 297.105469 19 297.105469 C 18.761719 297.105469 18.535156 297.199219 18.367188 297.367188 C 18.199219 297.535156 18.105469 297.761719 18.105469 298 C 18.105469 298.238281 18.199219 298.464844 18.367188 298.632813 C 18.535156 298.800781 18.761719 298.894531 19 298.894531 C 19.238281 298.894531 19.464844 298.800781 19.632813 298.632813 C 19.800781 298.464844 19.894531 298.238281 19.894531 298 Z M 19.894531 298 "/>
<path style=" stroke:none;fill-rule:evenodd;fill:rgb(10.00061%,89.99939%,39.99939%);fill-opacity:1;" d="M 316.894531 262 C 316.894531 261.761719 316.800781 261.535156 316.632813 261.367188 C 316.464844 261.199219 316.238281 261.105469 316 261.105469 C 315.761719 261.105469 315.535156 261.199219 315.367188 261.367188 C 315.199219 261.535156 315.105469 261.761719 315.105469 262 C 315.105469 262.238281 315.199219 262.464844 315.367188 262.632813 C 315.535156 262.800781 315.761719 262.894531 316 262.894531 C 316.238281 262.894531 316.464844 262.800781 316.632813 262.632813 C 316.800781 262.464844 316.894531 262.238281 316.894531 262 Z M 316.894531 262 "/>
<path style=" stroke:none;fill-rule:evenodd;fill:rgb(10.00061%,89.99939%,39.99939%);fill-opacity:1;" d="M 316.894531 256 C 316.894531 255.761719 316.800781 255.535156 316.632813 255.367188 C 316.464844 255.199219 316.238281 255.105469 316 255.105469 C 315.761719 255.105469 315.535156 255.199219 315.367188 255.367188 C 315.199219 255.535156 315.105469 255.761719 315.105469 256 C 315.105469 256.238281 315.199219 256.464844 315.367188 256.632813 C 315.535156 256.800781 315.761719 256.894531 316 256.894531 C 316.238281 256.894531 316.464844 256.800781 316.632813 256.632813 C 316.800781 256.464844 316.894531 256.238281 316.894531 256 Z M 316.894531 256 "/>
<path style=" stroke:none;fill-rule:evenodd;fill:rgb(10.00061%,89.99939%,39.99939%);fill-opacity:1;" d="M 87.894531 156 C 87.894531 155.761719 87.800781 155.535156 87.632813 155.367188 C 87.464844 155.199219 87.238281 155.105469 87 155.105469 C 86.761719 155.105469 86.535156 155.199219 86.367188 155.367188 C 86.199219 155.535156 86.105469 155.761719 86.105469 156 C 86.105469 156.238281 86.199219 156.464844 86.367188 156.632813 C 86.535156 156.800781 86.761719 156.894531 87 156.894531 C 87.238281 156.894531 87.464844 156.800781 87.632813 156.632813 C 87.800781 156.464844 87.894531 156.238281 87.894531 156 Z M 87.894531 156 "/>
<path style=" stroke:none;fill-rule:evenodd;fill:rgb(10.00061%,89.99939%,39.99939%);fill-opacity:1;" d="M 127.894531 145 C 127.894531 144.761719 127.800781 144.535156 127.632813 144.367188 C 127.464844 144.199219 127.238281 144.105469 127 144.105469 C 126.761719 144.105469 126.535156 144.199219 126.367188 144.367188 C 126.199219 144.535156 126.105469 144.761719 126.105469 145 C 126.105469 145.238281 126.199219 145.464844 126.367188 145.632813 C 126.535156 145.800781 126.761719 145.894531 127 145.894531 C 127.238281 145.894531 127.464844 145.800781 127.632813 145.632813 C 127.800781 145.464844 127.894531 145.238281 127.894531 145 Z M 127.894531 145 "/>
<path style=" stroke:none;fill-rule:evenodd;fill:rgb(10.00061%,89.99939%,39.99939%);fill-opacity:1;" d="M 127.894531 145 C 127.894531 144.761719 127.800781 144.535156 127.632813 144.367188 C 127.464844 144.199219 127.238281 144.105469 127 144.105469 C 126.761719 144.105469 126.535156 144.199219 126.367188 144.367188 C 126.199219 144.535156 126.105469 144.761719 126.105469 145 C 126.105469 145.238281 126.199219 145.464844 126.367188 145.632813 C 126.535156 145.800781 126.761719 145.894531 127 145.894531 C 127.238281 145.894531 127.464844 145.800781 127.632813 145.632813 C 127.800781 145.464844 127.894531 145.238281 127.894531 145 Z M 127.894531 145 "/>
<path style=" stroke:none;fill-rule:evenodd;fill:rgb(10.00061%,89.99939%,39.99939%);fill-opacity:1;" d="M 127.894531 143 C 127.894531 142.761719 127.800781 142.535156 127.632813 142.367188 C 127.464844 142.199219 127.238281 142.105469 127 142.105469 C 126.761719 142.105469 126.535156 142.199219 126.367188 142.367188 C 126.199219 142.535156 126.105469 142.761719 126.105469 143 C 126.105469 143.238281 126.199219 143.464844 126.367188 143.632813 C 126.535156 143.800781 126.761719 143.894531 127 143.894531 C 127.238281 143.894531 127.464844 143.800781 127.632813 143.632813 C 127.800781 143.464844 127.894531 143.238281 127.894531 143 Z M 127.894531 143 "/>
<path style=" stroke:none;fill-rule:evenodd;fill:rgb(10.00061%,89.99939%,39.99939%);fill-opacity:1;" d="M 170.894531 142 C 170.894531 141.761719 170.800781 141.535156 170.632813 141.367188 C 170.464844 141.199219 170.238281 141.105469 170 141.105469 C 169.761719 141.105469 169.535156 141.199219 169.367188 141.367188 C 169.199219 141.535156 169.105469 141.761719 169.105469 142 C 169.105469 142.238281 169.199219 142.464844 169.367188 142.632813 C 169.535156 142.800781 169.761719 142.894531 170 142.894531 C 170.238281 142.894531 170.464844 142.800781 170.632813 142.632813 C 170.800781 142.464844 170.894531 142.238281 170.894531 142 Z M 170.894531 142 "/>
<path style=" stroke:none;fill-rule:evenodd;fill:rgb(10.00061%,89.99939%,39.99939%);fill-opacity:1;" d="M 125.894531 141 C 125.894531 140.761719 125.800781 140.535156 125.632813 140.367188 C 125.464844 140.199219 125.238281 140.105469 125 140.105469 C 124.761719 140.105469 124.535156 140.199219 124.367188 140.367188 C 124.199219 140.535156 124.105469 140.761719 124.105469 141 C 124.105469 141.238281 124.199219 141.464844 124.367188 141.632813 C 124.535156 141.800781 124.761719 141.894531 125 141.894531 C 125.238281 141.894531 125.464844 141.800781 125.632813 141.632813 C 125.800781 141.464844 125.894531 141.238281 125.894531 141 Z M 125.894531 141 "/>
<path style=" stroke:none;fill-rule:evenodd;fill:rgb(10.00061%,89.99939%,39.99939%);fill-opacity:1;" d="M 184.894531 114 C 184.894531 113.761719 184.800781 113.535156 184.632813 113.367188 C 184.464844 113.199219 184.238281 113.105469 184 113.105469 C 183.761719 113.105469 183.535156 113.199219 183.367188 113.367188 C 183.199219 113.535156 183.105469 113.761719 183.105469 114 C 183.105469 114.238281 183.199219 114.464844 183.367188 114.632813 C 183.535156 114.800781 183.761719 114.894531 184 114.894531 C 184.238281 114.894531 184.464844 114.800781 184.632813 114.632813 C 184.800781 114.464844 184.894531 114.238281 184.894531 114 Z M 184.894531 114 "/>
<path style=" stroke:none;fill-rule:evenodd;fill:rgb(10.00061%,89.99939%,39.99939%);fill-opacity:1;" d="M 186.894531 113 C 186.894531 112.761719 186.800781 112.535156 186.632813 112.367188 C 186.464844 112.199219 186.238281 112.105469 186 112.105469 C 185.761719 112.105469 185.535156 112.199219 185.367188 112.367188 C 185.199219 112.535156 185.105469 112.761719 185.105469 113 C 185.105469 113.238281 185.199219 113.464844 185.367188 113.632813 C 185.535156 113.800781 185.761719 113.894531 186 113.894531 C 186.238281 113.894531 186.464844 113.800781 186.632813 113.632813 C 186.800781 113.464844 186.894531 113.238281 186.894531 113 Z M 186.894531 113 "/>
<path style=" stroke:none;fill-rule:evenodd;fill:rgb(10.00061%,89.99939%,39.99939%);fill-opacity:1;" d="M 186.894531 112 C 186.894531 111.761719 186.800781 111.535156 186.632813 111.367188 C 186.464844 111.199219 186.238281 111.105469 186 111.105469 C 185.761719 111.105469 185.535156 111.199219 185.367188 111.367188 C 185.199219 111.535156 185.105469 111.761719 185.105469 112 C 185.105469 112.238281 185.199219 112.464844 185.367188 112.632813 C 185.535156 112.800781 185.761719 112.894531 186 112.894531 C 186.238281 112.894531 186.464844 112.800781 186.632813 112.632813 C 186.800781 112.464844 186.894531 112.238281 186.894531 112 Z M 186.894531 112 "/>
<path style=" stroke:none;fill-rule:evenodd;fill:rgb(10.00061%,89.99939%,39.99939%);fill-opacity:1;" d="M 188.894531 109 C 188.894531 108.761719 188.800781 108.535156 188.632813 108.367188 C 188.464844 108.199219 188.238281 108.105469 188 108.105469 C 187.761719 108.105469 187.535156 108.199219 187.367188 108.367188 C 187.199219 108.535156 187.105469 108.761719 187.105469 109 C 187.105469 109.238281 187.199219 109.464844 187.367188 109.632813 C 187.535156 109.800781 187.761719 109.894531 188 109.894531 C 188.238281 109.894531 188.464844 109.800781 188.632813 109.632813 C 188.800781 109.464844 188.894531 109.238281 188.894531 109 Z M 188.894531 109 "/>
<path style=" stroke:none;fill-rule:evenodd;fill:rgb(10.00061%,89.99939%,39.99939%);fill-opacity:1;" d="M 174.894531 76 C 174.894531 75.761719 174.800781 75.535156 174.632813 75.367188 C 174.464844 75.199219 174.238281 75.105469 174 75.105469 C 173.761719 75.105469 173.535156 75.199219 173.367188 75.367188 C 173.199219 75.535156 173.105469 75.761719 173.105469 76 C 173.105469 76.238281 173.199219 76.464844 173.367188 76.632813 C 173.535156 76.800781 173.761719 76.894531 174 76.894531 C 174.238281 76.894531 174.464844 76.800781 174.632813 76.632813 C 174.800781 76.464844 174.894531 76.238281 174.894531 76 Z M 174.894531 76 "/>
<path style=" stroke:none;fill-rule:evenodd;fill:rgb(10.00061%,89.99939%,39.99939%);fill-opacity:1;" d="M 17.894531 59 C 17.894531 58.761719 17.800781 58.535156 17.632813 58.367188 C 17.464844 58.199219 17.238281 58.105469 17 58.105469 C 16.761719 58.105469 16.535156 58.199219 16.367188 58.367188 C 16.199219 58.535156 16.105469 58.761719 16.105469 59 C 16.105469 59.238281 16.199219 59.464844 16.367188 59.632813 C 16.535156 59.800781 16.761719 59.894531 17 59.894531 C 17.238281 59.894531 17.464844 59.800781 17.632813 59.632813 C 17.800781 59.464844 17.894531 59.238281 17.894531 59 Z M 17.894531 59 "/>
<path style=" stroke:none;fill-rule:evenodd;fill:rgb(10.00061%,89.99939%,39.99939%);fill-opacity:1;" d="M 12.894531 57 C 12.894531 56.761719 12.800781 56.535156 12.632813 56.367188 C 12.464844 56.199219 12.238281 56.105469 12 56.105469 C 11.761719 56.105469 11.535156 56.199219 11.367188 56.367188 C 11.199219 56.535156 11.105469 56.761719 11.105469 57 C 11.105469 57.238281 11.199219 57.464844 11.367188 57.632813 C 11.535156 57.800781 11.761719 57.894531 12 57.894531 C 12.238281 57.894531 12.464844 57.800781 12.632813 57.632813 C 12.800781 57.464844 12.894531 57.238281 12.894531 57 Z M 12.894531 57 "/>
<path style=" stroke:none;fill-rule:evenodd;fill:rgb(10.00061%,89.99939%,39.99939%);fill-opacity:1;" d="M 35.894531 57 C 35.894531 56.761719 35.800781 56.535156 35.632813 56.367188 C 35.464844 56.199219 35.238281 56.105469 35 56.105469 C 34.761719 56.105469 34.535156 56.199219 34.367188 56.367188 C 34.199219 56.535156 34.105469 56.761719 34.105469 57 C 34.105469 57.238281 34.199219 57.464844 34.367188 57.632813 C 34.535156 57.800781 34.761719 57.894531 35 57.894531 C 35.238281 57.894531 35.464844 57.800781 35.632813 57.632813 C 35.800781 57.464844 35.894531 57.238281 35.894531 57 Z M 35.894531 57 "/>
<path style=" stroke:none;fill-rule:evenodd;fill:rgb(10.00061%,89.99939%,39.99939%);fill-opacity:1;" d="M 34.894531 56 C 34.894531 55.761719 34.800781 55.535156 34.632813 55.367188 C 34.464844 55.199219 34.238281 55.105469 34 55.105469 C 33.761719 55.105469 33.535156 55.199219 33.367188 55.367188 C 33.199219 55.535156 33.105469 55.761719 33.105469 56 C 33.105469 56.238281 33.199219 56.464844 33.367188 56.632813 C 33.535156 56.800781 33.761719 56.894531 34 56.894531 C 34.238281 56.894531 34.464844 56.800781 34.632813 56.632813 C 34.800781 56.464844 34.894531 56.238281 34.894531 56 Z M 34.894531 56 "/>
<path style=" stroke:none;fill-rule:evenodd;fill:rgb(10.00061%,89.99939%,39.99939%);fill-opacity:1;" d="M 9.894531 55 C 9.894531 54.761719 9.800781 54.535156 9.632813 54.367188 C 9.464844 54.199219 9.238281 54.105469 9 54.105469 C 8.761719 54.105469 8.535156 54.199219 8.367188 54.367188 C 8.199219 54.535156 8.105469 54.761719 8.105469 55 C 8.105469 55.238281 8.199219 55.464844 8.367188 55.632813 C 8.535156 55.800781 8.761719 55.894531 9 55.894531 C 9.238281 55.894531 9.464844 55.800781 9.632813 55.632813 C 9.800781 55.464844 9.894531 55.238281 9.894531 55 Z M 9.894531 55 "/>
<path style=" stroke:none;fill-rule:evenodd;fill:rgb(10.00061%,89.99939%,39.99939%);fill-opacity:1;" d="M 10.894531 55 C 10.894531 54.761719 10.800781 54.535156 10.632813 54.367188 C 10.464844 54.199219 10.238281 54.105469 10 54.105469 C 9.761719 54.105469 9.535156 54.199219 9.367188 54.367188 C 9.199219 54.535156 9.105469 54.761719 9.105469 55 C 9.105469 55.238281 9.199219 55.464844 9.367188 55.632813 C 9.535156 55.800781 9.761719 55.894531 10 55.894531 C 10.238281 55.894531 10.464844 55.800781 10.632813 55.632813 C 10.800781 55.464844 10.894531 55.238281 10.894531 55 Z M 10.894531 55 "/>
<path style=" stroke:none;fill-rule:evenodd;fill:rgb(10.00061%,89.99939%,39.99939%);fill-opacity:1;" d="M 42.894531 54 C 42.894531 53.761719 42.800781 53.535156 42.632813 53.367188 C 42.464844 53.199219 42.238281 53.105469 42 53.105469 C 41.761719 53.105469 41.535156 53.199219 41.367188 53.367188 C 41.199219 53.535156 41.105469 53.761719 41.105469 54 C 41.105469 54.238281 41.199219 54.464844 41.367188 54.632813 C 41.535156 54.800781 41.761719 54.894531 42 54.894531 C 42.238281 54.894531 42.464844 54.800781 42.632813 54.632813 C 42.800781 54.464844 42.894531 54.238281 42.894531 54 Z M 42.894531 54 "/>
<path style=" stroke:none;fill-rule:evenodd;fill:rgb(10.00061%,89.99939%,39.99939%);fill-opacity:1;" d="M 16.894531 47 C 16.894531 46.761719 16.800781 46.535156 16.632813 46.367188 C 16.464844 46.199219 16.238281 46.105469 16 46.105469 C 15.761719 46.105469 15.535156 46.199219 15.367188 46.367188 C 15.199219 46.535156 15.105469 46.761719 15.105469 47 C 15.105469 47.238281 15.199219 47.464844 15.367188 47.632813 C 15.535156 47.800781 15.761719 47.894531 16 47.894531 C 16.238281 47.894531 16.464844 47.800781 16.632813 47.632813 C 16.800781 47.464844 16.894531 47.238281 16.894531 47 Z M 16.894531 47 "/>
<path style=" stroke:none;fill-rule:evenodd;fill:rgb(10.00061%,89.99939%,39.99939%);fill-opacity:1;" d="M 24.894531 46 C 24.894531 45.761719 24.800781 45.535156 24.632813 45.367188 C 24.464844 45.199219 24.238281 45.105469 24 45.105469 C 23.761719 45.105469 23.535156 45.199219 23.367188 45.367188 C 23.199219 45.535156 23.105469 45.761719 23.105469 46 C 23.105469 46.238281 23.199219 46.464844 23.367188 46.632813 C 23.535156 46.800781 23.761719 46.894531 24 46.894531 C 24.238281 46.894531 24.464844 46.800781 24.632813 46.632813 C 24.800781 46.464844 24.894531 46.238281 24.894531 46 Z M 24.894531 46 "/>
<path style=" stroke:none;fill-rule:evenodd;fill:rgb(10.00061%,89.99939%,39.99939%);fill-opacity:1;" d="M 24.894531 46 C 24.894531 45.761719 24.800781 45.535156 24.632813 45.367188 C 24.464844 45.199219 24.238281 45.105469 24 45.105469 C 23.761719 45.105469 23.535156 45.199219 23.367188 45.367188 C 23.199219 45.535156 23.105469 45.761719 23.105469 46 C 23.105469 46.238281 23.199219 46.464844 23.367188 46.632813 C 23.535156 46.800781 23.761719 46.894531 24 46.894531 C 24.238281 46.894531 24.464844 46.800781 24.632813 46.632813 C 24.800781 46.464844 24.894531 46.238281 24.894531 46 Z M 24.894531 46 "/>
<path style=" stroke:none;fill-rule:evenodd;fill:rgb(10.00061%,89.99939%,39.99939%);fill-opacity:1;" d="M 25.894531 46 C 25.894531 45.761719 25.800781 45.535156 25.632813 45.367188 C 25.464844 45.199219 25.238281 45.105469 25 45.105469 C 24.761719 45.105469 24.535156 45.199219 24.367188 45.367188 C 24.199219 45.535156 24.105469 45.761719 24.105469 46 C 24.105469 46.238281 24.199219 46.464844 24.367188 46.632813 C 24.535156 46.800781 24.761719 46.894531 25 46.894531 C 25.238281 46.894531 25.464844 46.800781 25.632813 46.632813 C 25.800781 46.464844 25.894531 46.238281 25.894531 46 Z M 25.894531 46 "/>
<path style=" stroke:none;fill-rule:evenodd;fill:rgb(10.00061%,89.99939%,39.99939%);fill-opacity:1;" d="M 36.894531 44 C 36.894531 43.761719 36.800781 43.535156 36.632813 43.367188 C 36.464844 43.199219 36.238281 43.105469 36 43.105469 C 35.761719 43.105469 35.535156 43.199219 35.367188 43.367188 C 35.199219 43.535156 35.105469 43.761719 35.105469 44 C 35.105469 44.238281 35.199219 44.464844 35.367188 44.632813 C 35.535156 44.800781 35.761719 44.894531 36 44.894531 C 36.238281 44.894531 36.464844 44.800781 36.632813 44.632813 C 36.800781 44.464844 36.894531 44.238281 36.894531 44 Z M 36.894531 44 "/>
<path style=" stroke:none;fill-rule:evenodd;fill:rgb(10.00061%,89.99939%,39.99939%);fill-opacity:1;" d="M 15.894531 43 C 15.894531 42.761719 15.800781 42.535156 15.632813 42.367188 C 15.464844 42.199219 15.238281 42.105469 15 42.105469 C 14.761719 42.105469 14.535156 42.199219 14.367188 42.367188 C 14.199219 42.535156 14.105469 42.761719 14.105469 43 C 14.105469 43.238281 14.199219 43.464844 14.367188 43.632813 C 14.535156 43.800781 14.761719 43.894531 15 43.894531 C 15.238281 43.894531 15.464844 43.800781 15.632813 43.632813 C 15.800781 43.464844 15.894531 43.238281 15.894531 43 Z M 15.894531 43 "/>
<path style=" stroke:none;fill-rule:evenodd;fill:rgb(10.00061%,89.99939%,39.99939%);fill-opacity:1;" d="M 36.894531 39 C 36.894531 38.761719 36.800781 38.535156 36.632813 38.367188 C 36.464844 38.199219 36.238281 38.105469 36 38.105469 C 35.761719 38.105469 35.535156 38.199219 35.367188 38.367188 C 35.199219 38.535156 35.105469 38.761719 35.105469 39 C 35.105469 39.238281 35.199219 39.464844 35.367188 39.632813 C 35.535156 39.800781 35.761719 39.894531 36 39.894531 C 36.238281 39.894531 36.464844 39.800781 36.632813 39.632813 C 36.800781 39.464844 36.894531 39.238281 36.894531 39 Z M 36.894531 39 "/>
<path style=" stroke:none;fill-rule:evenodd;fill:rgb(10.00061%,89.99939%,39.99939%);fill-opacity:1;" d="M 37.894531 39 C 37.894531 38.761719 37.800781 38.535156 37.632813 38.367188 C 37.464844 38.199219 37.238281 38.105469 37 38.105469 C 36.761719 38.105469 36.535156 38.199219 36.367188 38.367188 C 36.199219 38.535156 36.105469 38.761719 36.105469 39 C 36.105469 39.238281 36.199219 39.464844 36.367188 39.632813 C 36.535156 39.800781 36.761719 39.894531 37 39.894531 C 37.238281 39.894531 37.464844 39.800781 37.632813 39.632813 C 37.800781 39.464844 37.894531 39.238281 37.894531 39 Z M 37.894531 39 "/>
<path style=" stroke:none;fill-rule:evenodd;fill:rgb(10.00061%,89.99939%,39.99939%);fill-opacity:1;" d="M 31.894531 35 C 31.894531 34.761719 31.800781 34.535156 31.632813 34.367188 C 31.464844 34.199219 31.238281 34.105469 31 34.105469 C 30.761719 34.105469 30.535156 34.199219 30.367188 34.367188 C 30.199219 34.535156 30.105469 34.761719 30.105469 35 C 30.105469 35.238281 30.199219 35.464844 30.367188 35.632813 C 30.535156 35.800781 30.761719 35.894531 31 35.894531 C 31.238281 35.894531 31.464844 35.800781 31.632813 35.632813 C 31.800781 35.464844 31.894531 35.238281 31.894531 35 Z M 31.894531 35 "/>
<path style=" stroke:none;fill-rule:evenodd;fill:rgb(10.00061%,89.99939%,39.99939%);fill-opacity:1;" d="M 30.894531 34 C 30.894531 33.761719 30.800781 33.535156 30.632813 33.367188 C 30.464844 33.199219 30.238281 33.105469 30 33.105469 C 29.761719 33.105469 29.535156 33.199219 29.367188 33.367188 C 29.199219 33.535156 29.105469 33.761719 29.105469 34 C 29.105469 34.238281 29.199219 34.464844 29.367188 34.632813 C 29.535156 34.800781 29.761719 34.894531 30 34.894531 C 30.238281 34.894531 30.464844 34.800781 30.632813 34.632813 C 30.800781 34.464844 30.894531 34.238281 30.894531 34 Z M 30.894531 34 "/>
<path style=" stroke:none;fill-rule:evenodd;fill:rgb(10.00061%,89.99939%,39.99939%);fill-opacity:1;" d="M 35.894531 34 C 35.894531 33.761719 35.800781 33.535156 35.632813 33.367188 C 35.464844 33.199219 35.238281 33.105469 35 33.105469 C 34.761719 33.105469 34.535156 33.199219 34.367188 33.367188 C 34.199219 33.535156 34.105469 33.761719 34.105469 34 C 34.105469 34.238281 34.199219 34.464844 34.367188 34.632813 C 34.535156 34.800781 34.761719 34.894531 35 34.894531 C 35.238281 34.894531 35.464844 34.800781 35.632813 34.632813 C 35.800781 34.464844 35.894531 34.238281 35.894531 34 Z M 35.894531 34 "/>
<path style=" stroke:none;fill-rule:evenodd;fill:rgb(10.00061%,89.99939%,39.99939%);fill-opacity:1;" d="M 34.894531 29 C 34.894531 28.761719 34.800781 28.535156 34.632813 28.367188 C 34.464844 28.199219 34.238281 28.105469 34 28.105469 C 33.761719 28.105469 33.535156 28.199219 33.367188 28.367188 C 33.199219 28.535156 33.105469 28.761719 33.105469 29 C 33.105469 29.238281 33.199219 29.464844 33.367188 29.632813 C 33.535156 29.800781 33.761719 29.894531 34 29.894531 C 34.238281 29.894531 34.464844 29.800781 34.632813 29.632813 C 34.800781 29.464844 34.894531 29.238281 34.894531 29 Z M 34.894531 29 "/>
<path style=" stroke:none;fill-rule:evenodd;fill:rgb(10.00061%,89.99939%,39.99939%);fill-opacity:1;" d="M 305.894531 28 C 305.894531 27.761719 305.800781 27.535156 305.632813 27.367188 C 305.464844 27.199219 305.238281 27.105469 305 27.105469 C 304.761719 27.105469 304.535156 27.199219 304.367188 27.367188 C 304.199219 27.535156 304.105469 27.761719 304.105469 28 C 304.105469 28.238281 304.199219 28.464844 304.367188 28.632813 C 304.535156 28.800781 304.761719 28.894531 305 28.894531 C 305.238281 28.894531 305.464844 28.800781 305.632813 28.632813 C 305.800781 28.464844 305.894531 28.238281 305.894531 28 Z M 305.894531 28 "/>
<path style=" stroke:none;fill-rule:evenodd;fill:rgb(10.00061%,89.99939%,39.99939%);fill-opacity:1;" d="M 252.894531 27 C 252.894531 26.761719 252.800781 26.535156 252.632813 26.367188 C 252.464844 26.199219 252.238281 26.105469 252 26.105469 C 251.761719 26.105469 251.535156 26.199219 251.367188 26.367188 C 251.199219 26.535156 251.105469 26.761719 251.105469 27 C 251.105469 27.238281 251.199219 27.464844 251.367188 27.632813 C 251.535156 27.800781 251.761719 27.894531 252 27.894531 C 252.238281 27.894531 252.464844 27.800781 252.632813 27.632813 C 252.800781 27.464844 252.894531 27.238281 252.894531 27 Z M 252.894531 27 "/>
<path style=" stroke:none;fill-rule:evenodd;fill:rgb(10.00061%,89.99939%,39.99939%);fill-opacity:1;" d="M 245.894531 27 C 245.894531 26.761719 245.800781 26.535156 245.632813 26.367188 C 245.464844 26.199219 245.238281 26.105469 245 26.105469 C 244.761719 26.105469 244.535156 26.199219 244.367188 26.367188 C 244.199219 26.535156 244.105469 26.761719 244.105469 27 C 244.105469 27.238281 244.199219 27.464844 244.367188 27.632813 C 244.535156 27.800781 244.761719 27.894531 245 27.894531 C 245.238281 27.894531 245.464844 27.800781 245.632813 27.632813 C 245.800781 27.464844 245.894531 27.238281 245.894531 27 Z M 245.894531 27 "/>
<path style=" stroke:none;fill-rule:evenodd;fill:rgb(10.00061%,89.99939%,39.99939%);fill-opacity:1;" d="M 247.894531 26 C 247.894531 25.761719 247.800781 25.535156 247.632813 25.367188 C 247.464844 25.199219 247.238281 25.105469 247 25.105469 C 246.761719 25.105469 246.535156 25.199219 246.367188 25.367188 C 246.199219 25.535156 246.105469 25.761719 246.105469 26 C 246.105469 26.238281 246.199219 26.464844 246.367188 26.632813 C 246.535156 26.800781 246.761719 26.894531 247 26.894531 C 247.238281 26.894531 247.464844 26.800781 247.632813 26.632813 C 247.800781 26.464844 247.894531 26.238281 247.894531 26 Z M 247.894531 26 "/>
<path style=" stroke:none;fill-rule:evenodd;fill:rgb(10.00061%,89.99939%,39.99939%);fill-opacity:1;" d="M 250.894531 26 C 250.894531 25.761719 250.800781 25.535156 250.632813 25.367188 C 250.464844 25.199219 250.238281 25.105469 250 25.105469 C 249.761719 25.105469 249.535156 25.199219 249.367188 25.367188 C 249.199219 25.535156 249.105469 25.761719 249.105469 26 C 249.105469 26.238281 249.199219 26.464844 249.367188 26.632813 C 249.535156 26.800781 249.761719 26.894531 250 26.894531 C 250.238281 26.894531 250.464844 26.800781 250.632813 26.632813 C 250.800781 26.464844 250.894531 26.238281 250.894531 26 Z M 250.894531 26 "/>
<path style=" stroke:none;fill-rule:evenodd;fill:rgb(10.00061%,89.99939%,39.99939%);fill-opacity:1;" d="M 250.894531 25 C 250.894531 24.761719 250.800781 24.535156 250.632813 24.367188 C 250.464844 24.199219 250.238281 24.105469 250 24.105469 C 249.761719 24.105469 249.535156 24.199219 249.367188 24.367188 C 249.199219 24.535156 249.105469 24.761719 249.105469 25 C 249.105469 25.238281 249.199219 25.464844 249.367188 25.632813 C 249.535156 25.800781 249.761719 25.894531 250 25.894531 C 250.238281 25.894531 250.464844 25.800781 250.632813 25.632813 C 250.800781 25.464844 250.894531 25.238281 250.894531 25 Z M 250.894531 25 "/>
<path style=" stroke:none;fill-rule:evenodd;fill:rgb(10.00061%,89.99939%,39.99939%);fill-opacity:1;" d="M 247.894531 25 C 247.894531 24.761719 247.800781 24.535156 247.632813 24.367188 C 247.464844 24.199219 247.238281 24.105469 247 24.105469 C 246.761719 24.105469 246.535156 24.199219 246.367188 24.367188 C 246.199219 24.535156 246.105469 24.761719 246.105469 25 C 246.105469 25.238281 246.199219 25.464844 246.367188 25.632813 C 246.535156 25.800781 246.761719 25.894531 247 25.894531 C 247.238281 25.894531 247.464844 25.800781 247.632813 25.632813 C 247.800781 25.464844 247.894531 25.238281 247.894531 25 Z M 247.894531 25 "/>
<path style=" stroke:none;fill-rule:evenodd;fill:rgb(10.00061%,89.99939%,39.99939%);fill-opacity:1;" d="M 301.894531 25 C 301.894531 24.761719 301.800781 24.535156 301.632813 24.367188 C 301.464844 24.199219 301.238281 24.105469 301 24.105469 C 300.761719 24.105469 300.535156 24.199219 300.367188 24.367188 C 300.199219 24.535156 300.105469 24.761719 300.105469 25 C 300.105469 25.238281 300.199219 25.464844 300.367188 25.632813 C 300.535156 25.800781 300.761719 25.894531 301 25.894531 C 301.238281 25.894531 301.464844 25.800781 301.632813 25.632813 C 301.800781 25.464844 301.894531 25.238281 301.894531 25 Z M 301.894531 25 "/>
<path style=" stroke:none;fill-rule:evenodd;fill:rgb(10.00061%,89.99939%,39.99939%);fill-opacity:1;" d="M 244.894531 24 C 244.894531 23.761719 244.800781 23.535156 244.632813 23.367188 C 244.464844 23.199219 244.238281 23.105469 244 23.105469 C 243.761719 23.105469 243.535156 23.199219 243.367188 23.367188 C 243.199219 23.535156 243.105469 23.761719 243.105469 24 C 243.105469 24.238281 243.199219 24.464844 243.367188 24.632813 C 243.535156 24.800781 243.761719 24.894531 244 24.894531 C 244.238281 24.894531 244.464844 24.800781 244.632813 24.632813 C 244.800781 24.464844 244.894531 24.238281 244.894531 24 Z M 244.894531 24 "/>
<path style=" stroke:none;fill-rule:evenodd;fill:rgb(10.00061%,89.99939%,39.99939%);fill-opacity:1;" d="M 315.894531 22 C 315.894531 21.761719 315.800781 21.535156 315.632813 21.367188 C 315.464844 21.199219 315.238281 21.105469 315 21.105469 C 314.761719 21.105469 314.535156 21.199219 314.367188 21.367188 C 314.199219 21.535156 314.105469 21.761719 314.105469 22 C 314.105469 22.238281 314.199219 22.464844 314.367188 22.632813 C 314.535156 22.800781 314.761719 22.894531 315 22.894531 C 315.238281 22.894531 315.464844 22.800781 315.632813 22.632813 C 315.800781 22.464844 315.894531 22.238281 315.894531 22 Z M 315.894531 22 "/>
<path style=" stroke:none;fill-rule:evenodd;fill:rgb(10.00061%,89.99939%,39.99939%);fill-opacity:1;" d="M 246.894531 21 C 246.894531 20.761719 246.800781 20.535156 246.632813 20.367188 C 246.464844 20.199219 246.238281 20.105469 246 20.105469 C 245.761719 20.105469 245.535156 20.199219 245.367188 20.367188 C 245.199219 20.535156 245.105469 20.761719 245.105469 21 C 245.105469 21.238281 245.199219 21.464844 245.367188 21.632813 C 245.535156 21.800781 245.761719 21.894531 246 21.894531 C 246.238281 21.894531 246.464844 21.800781 246.632813 21.632813 C 246.800781 21.464844 246.894531 21.238281 246.894531 21 Z M 246.894531 21 "/>
<path style=" stroke:none;fill-rule:evenodd;fill:rgb(10.00061%,89.99939%,39.99939%);fill-opacity:1;" d="M 313.894531 20 C 313.894531 19.761719 313.800781 19.535156 313.632813 19.367188 C 313.464844 19.199219 313.238281 19.105469 313 19.105469 C 312.761719 19.105469 312.535156 19.199219 312.367188 19.367188 C 312.199219 19.535156 312.105469 19.761719 312.105469 20 C 312.105469 20.238281 312.199219 20.464844 312.367188 20.632813 C 312.535156 20.800781 312.761719 20.894531 313 20.894531 C 313.238281 20.894531 313.464844 20.800781 313.632813 20.632813 C 313.800781 20.464844 313.894531 20.238281 313.894531 20 Z M 313.894531 20 "/>
</g>
</svg>
