<?xml version="1.0" encoding="UTF-8"?>
<svg xmlns="http://www.w3.org/2000/svg" xmlns:xlink="http://www.w3.org/1999/xlink" width="341pt" height="238pt" viewBox="0 0 341 238" version="1.1">
<g id="surface599">
<path style="fill-rule:nonzero;fill:rgb(84.999084%,84.999084%,84.999084%);fill-opacity:0.6;stroke-width:1;stroke-linecap:square;stroke-linejoin:miter;stroke:rgb(50%,50%,50%);stroke-opacity:1;stroke-miterlimit:3.25;" d="M 104.613281 222.03125 L 114.378906 152.328125 L 94.332031 124.617188 Z M 104.613281 222.03125 " transform="matrix(1,0,0,1,-74,-13)"/>
<path style="fill-rule:nonzero;fill:rgb(84.999084%,84.999084%,84.999084%);fill-opacity:0.6;stroke-width:1;stroke-linecap:square;stroke-linejoin:miter;stroke:rgb(50%,50%,50%);stroke-opacity:1;stroke-miterlimit:3.25;" d="M 158.320313 86.429688 L 114.378906 152.328125 L 271.449219 199.632813 Z M 158.320313 86.429688 " transform="matrix(1,0,0,1,-74,-13)"/>
<path style="fill-rule:nonzero;fill:rgb(84.999084%,84.999084%,84.999084%);fill-opacity:0.6;stroke-width:1;stroke-linecap:square;stroke-linejoin:miter;stroke:rgb(50%,50%,50%);stroke-opacity:1;stroke-miterlimit:3.25;" d="M 114.378906 152.328125 L 94.355469 123.957031 L 94.332031 124.617188 Z M 114.378906 152.328125 " transform="matrix(1,0,0,1,-74,-13)"/>
<path style="fill-rule:nonzero;fill:rgb(84.999084%,84.999084%,84.999084%);fill-opacity:0.6;stroke-width:1;stroke-linecap:square;stroke-linejoin:miter;stroke:rgb(50%,50%,50%);stroke-opacity:1;stroke-miterlimit:3.25;" d="M 94.355469 123.957031 L 114.378906 152.328125 L 158.320313 86.429688 Z M 94.355469 123.957031 " transform="matrix(1,0,0,1,-74,-13)"/>
<path style="fill-rule:nonzero;fill:rgb(84.999084%,84.999084%,84.999084%);fill-opacity:0.6;stroke-width:1;stroke-linecap:square;stroke-linejoin:miter;stroke:rgb(50%,50%,50%);stroke-opacity:1;stroke-miterlimit:3.25;" d="M 94.355469 123.957031 L 158.320313 86.429688 L 226.355469 31.605469 Z M 94.355469 123.957031 " transform="matrix(1,0,0,1,-74,-13)"/>
<path style="fill-rule:nonzero;fill:rgb(84.999084%,84.999084%,84.999084%);fill-opacity:0.6;stroke-width:1;stroke-linecap:square;stroke-linejoin:miter;stroke:rgb(50%,50%,50%);stroke-opacity:1;stroke-miterlimit:3.25;" d="M 114.378906 152.328125 L 104.613281 222.03125 L 271.449219 199.632813 Z M 114.378906 152.328125 " transform="matrix(1,0,0,1,-74,-13)"/>
<path style="fill-rule:nonzero;fill:rgb(84.999084%,84.999084%,84.999084%);fill-opacity:0.6;stroke-width:1;stroke-linecap:square;stroke-linejoin:miter;stroke:rgb(50%,50%,50%);stroke-opacity:1;stroke-miterlimit:3.25;" d="M 271.449219 199.632813 L 404.328125 249.496094 L 298.277344 128.328125 Z M 271.449219 199.632813 " transform="matrix(1,0,0,1,-74,-13)"/>
<path style="fill-rule:nonzero;fill:rgb(84.999084%,84.999084%,84.999084%);fill-opacity:0.6;stroke-width:1;stroke-linecap:square;stroke-linejoin:miter;stroke:rgb(50%,50%,50%);stroke-opacity:1;stroke-miterlimit:3.25;" d="M 404.328125 249.496094 L 271.449219 199.632813 L 104.613281 222.03125 Z M 404.328125 249.496094 " transform="matrix(1,0,0,1,-74,-13)"/>
<path style="fill-rule:nonzero;fill:rgb(84.999084%,84.999084%,84.999084%);fill-opacity:0.6;stroke-width:1;stroke-linecap:square;stroke-linejoin:miter;stroke:rgb(50%,50%,50%);stroke-opacity:1;stroke-miterlimit:3.25;" d="M 298.277344 128.328125 L 404.328125 249.496094 L 412.621094 36.589844 Z M 298.277344 128.328125 " transform="matrix(1,0,0,1,-74,-13)"/>
<path style="fill-rule:nonzero;fill:rgb(84.999084%,84.999084%,84.999084%);fill-opacity:0.6;stroke-width:1;stroke-linecap:square;stroke-linejoin:miter;stroke:rgb(50%,50%,50%);stroke-opacity:1;stroke-miterlimit:3.25;" d="M 298.277344 128.328125 L 226.355469 31.605469 L 158.320313 86.429688 Z M 298.277344 128.328125 " transform="matrix(1,0,0,1,-74,-13)"/>
<path style="fill-rule:nonzero;fill:rgb(84.999084%,84.999084%,84.999084%);fill-opacity:0.6;stroke-width:1;stroke-linecap:square;stroke-linejoin:miter;stroke:rgb(50%,50%,50%);stroke-opacity:1;stroke-miterlimit:3.25;" d="M 298.277344 128.328125 L 406.230469 31.800781 L 226.355469 31.605469 Z M 298.277344 128.328125 " transform="matrix(1,0,0,1,-74,-13)"/>
<path style="fill-rule:nonzero;fill:rgb(84.999084%,84.999084%,84.999084%);fill-opacity:0.6;stroke-width:1;stroke-linecap:square;stroke-linejoin:miter;stroke:rgb(50%,50%,50%);stroke-opacity:1;stroke-miterlimit:3.25;" d="M 406.230469 31.800781 L 298.277344 128.328125 L 412.621094 36.589844 Z M 406.230469 31.800781 " transform="matrix(1,0,0,1,-74,-13)"/>
<path style="fill-rule:nonzero;fill:rgb(84.999084%,84.999084%,84.999084%);fill-opacity:0.6;stroke-width:1;stroke-linecap:square;stroke-linejoin:miter;stroke:rgb(50%,50%,50%);stroke-opacity:1;stroke-miterlimit:3.25;" d="M 298.277344 128.328125 L 158.320313 86.429688 L 271.449219 199.632813 Z M 298.277344 128.328125 " transform="matrix(1,0,0,1,-74,-13)"/>
<path style=" stroke:none;fill-rule:evenodd;fill:rgb(99.998474%,0%,0%);fill-opacity:0.6;" d="M 331.789063 236 C 331.789063 235.523438 331.601563 235.070313 331.265625 234.734375 C 330.929688 234.398438 330.476563 234.210938 330 234.210938 C 329.523438 234.210938 329.070313 234.398438 328.734375 234.734375 C 328.398438 235.070313 328.210938 235.523438 328.210938 236 C 328.210938 236.476563 328.398438 236.929688 328.734375 237.265625 C 329.070313 237.601563 329.523438 237.789063 330 237.789063 C 330.476563 237.789063 330.929688 237.601563 331.265625 237.265625 C 331.601563 236.929688 331.789063 236.476563 331.789063 236 Z M 331.789063 236 "/>
<path style=" stroke:none;fill-rule:evenodd;fill:rgb(99.998474%,0%,0%);fill-opacity:0.6;" d="M 32.789063 209 C 32.789063 208.523438 32.601563 208.070313 32.265625 207.734375 C 31.929688 207.398438 31.476563 207.210938 31 207.210938 C 30.523438 207.210938 30.070313 207.398438 29.734375 207.734375 C 29.398438 208.070313 29.210938 208.523438 29.210938 209 C 29.210938 209.476563 29.398438 209.929688 29.734375 210.265625 C 30.070313 210.601563 30.523438 210.789063 31 210.789063 C 31.476563 210.789063 31.929688 210.601563 32.265625 210.265625 C 32.601563 209.929688 32.789063 209.476563 32.789063 209 Z M 32.789063 209 "/>
<path style=" stroke:none;fill-rule:evenodd;fill:rgb(99.998474%,0%,0%);fill-opacity:0.6;" d="M 198.789063 187 C 198.789063 186.523438 198.601563 186.070313 198.265625 185.734375 C 197.929688 185.398438 197.476563 185.210938 197 185.210938 C 196.523438 185.210938 196.070313 185.398438 195.734375 185.734375 C 195.398438 186.070313 195.210938 186.523438 195.210938 187 C 195.210938 187.476563 195.398438 187.929688 195.734375 188.265625 C 196.070313 188.601563 196.523438 188.789063 197 188.789063 C 197.476563 188.789063 197.929688 188.601563 198.265625 188.265625 C 198.601563 187.929688 198.789063 187.476563 198.789063 187 Z M 198.789063 187 "/>
<path style=" stroke:none;fill-rule:evenodd;fill:rgb(99.998474%,0%,0%);fill-opacity:0.6;" d="M 41.789063 139 C 41.789063 138.523438 41.601563 138.070313 41.265625 137.734375 C 40.929688 137.398438 40.476563 137.210938 40 137.210938 C 39.523438 137.210938 39.070313 137.398438 38.734375 137.734375 C 38.398438 138.070313 38.210938 138.523438 38.210938 139 C 38.210938 139.476563 38.398438 139.929688 38.734375 140.265625 C 39.070313 140.601563 39.523438 140.789063 40 140.789063 C 40.476563 140.789063 40.929688 140.601563 41.265625 140.265625 C 41.601563 139.929688 41.789063 139.476563 41.789063 139 Z M 41.789063 139 "/>
<path style=" stroke:none;fill-rule:evenodd;fill:rgb(99.998474%,0%,0%);fill-opacity:0.6;" d="M 225.789063 115 C 225.789063 114.523438 225.601563 114.070313 225.265625 113.734375 C 224.929688 113.398438 224.476563 113.210938 224 113.210938 C 223.523438 113.210938 223.070313 113.398438 222.734375 113.734375 C 222.398438 114.070313 222.210938 114.523438 222.210938 115 C 222.210938 115.476563 222.398438 115.929688 222.734375 116.265625 C 223.070313 116.601563 223.523438 116.789063 224 116.789063 C 224.476563 116.789063 224.929688 116.601563 225.265625 116.265625 C 225.601563 115.929688 225.789063 115.476563 225.789063 115 Z M 225.789063 115 "/>
<path style=" stroke:none;fill-rule:evenodd;fill:rgb(99.998474%,0%,0%);fill-opacity:0.6;" d="M 21.789063 112 C 21.789063 111.523438 21.601563 111.070313 21.265625 110.734375 C 20.929688 110.398438 20.476563 110.210938 20 110.210938 C 19.523438 110.210938 19.070313 110.398438 18.734375 110.734375 C 18.398438 111.070313 18.210938 111.523438 18.210938 112 C 18.210938 112.476563 18.398438 112.929688 18.734375 113.265625 C 19.070313 113.601563 19.523438 113.789063 20 113.789063 C 20.476563 113.789063 20.929688 113.601563 21.265625 113.265625 C 21.601563 112.929688 21.789063 112.476563 21.789063 112 Z M 21.789063 112 "/>
<path style=" stroke:none;fill-rule:evenodd;fill:rgb(99.998474%,0%,0%);fill-opacity:0.6;" d="M 21.789063 111 C 21.789063 110.523438 21.601563 110.070313 21.265625 109.734375 C 20.929688 109.398438 20.476563 109.210938 20 109.210938 C 19.523438 109.210938 19.070313 109.398438 18.734375 109.734375 C 18.398438 110.070313 18.210938 110.523438 18.210938 111 C 18.210938 111.476563 18.398438 111.929688 18.734375 112.265625 C 19.070313 112.601563 19.523438 112.789063 20 112.789063 C 20.476563 112.789063 20.929688 112.601563 21.265625 112.265625 C 21.601563 111.929688 21.789063 111.476563 21.789063 111 Z M 21.789063 111 "/>
<path style=" stroke:none;fill-rule:evenodd;fill:rgb(99.998474%,0%,0%);fill-opacity:0.6;" d="M 85.789063 73 C 85.789063 72.523438 85.601563 72.070313 85.265625 71.734375 C 84.929688 71.398438 84.476563 71.210938 84 71.210938 C 83.523438 71.210938 83.070313 71.398438 82.734375 71.734375 C 82.398438 72.070313 82.210938 72.523438 82.210938 73 C 82.210938 73.476563 82.398438 73.929688 82.734375 74.265625 C 83.070313 74.601563 83.523438 74.789063 84 74.789063 C 84.476563 74.789063 84.929688 74.601563 85.265625 74.265625 C 85.601563 73.929688 85.789063 73.476563 85.789063 73 Z M 85.789063 73 "/>
<path style=" stroke:none;fill-rule:evenodd;fill:rgb(99.998474%,0%,0%);fill-opacity:0.6;" d="M 340.789063 24 C 340.789063 23.523438 340.601563 23.070313 340.265625 22.734375 C 339.929688 22.398438 339.476563 22.210938 339 22.210938 C 338.523438 22.210938 338.070313 22.398438 337.734375 22.734375 C 337.398438 23.070313 337.210938 23.523438 337.210938 24 C 337.210938 24.476563 337.398438 24.929688 337.734375 25.265625 C 338.070313 25.601563 338.523438 25.789063 339 25.789063 C 339.476563 25.789063 339.929688 25.601563 340.265625 25.265625 C 340.601563 24.929688 340.789063 24.476563 340.789063 24 Z M 340.789063 24 "/>
<path style=" stroke:none;fill-rule:evenodd;fill:rgb(99.998474%,0%,0%);fill-opacity:0.6;" d="M 333.789063 19 C 333.789063 18.523438 333.601563 18.070313 333.265625 17.734375 C 332.929688 17.398438 332.476563 17.210938 332 17.210938 C 331.523438 17.210938 331.070313 17.398438 330.734375 17.734375 C 330.398438 18.070313 330.210938 18.523438 330.210938 19 C 330.210938 19.476563 330.398438 19.929688 330.734375 20.265625 C 331.070313 20.601563 331.523438 20.789063 332 20.789063 C 332.476563 20.789063 332.929688 20.601563 333.265625 20.265625 C 333.601563 19.929688 333.789063 19.476563 333.789063 19 Z M 333.789063 19 "/>
<path style=" stroke:none;fill-rule:evenodd;fill:rgb(99.998474%,0%,0%);fill-opacity:0.6;" d="M 153.789063 19 C 153.789063 18.523438 153.601563 18.070313 153.265625 17.734375 C 152.929688 17.398438 152.476563 17.210938 152 17.210938 C 151.523438 17.210938 151.070313 17.398438 150.734375 17.734375 C 150.398438 18.070313 150.210938 18.523438 150.210938 19 C 150.210938 19.476563 150.398438 19.929688 150.734375 20.265625 C 151.070313 20.601563 151.523438 20.789063 152 20.789063 C 152.476563 20.789063 152.929688 20.601563 153.265625 20.265625 C 153.601563 19.929688 153.789063 19.476563 153.789063 19 Z M 153.789063 19 "/>
<path style=" stroke:none;fill-rule:evenodd;fill:rgb(99.998474%,0%,0%);fill-opacity:1;" d="M 331.5 236 C 331.5 235.601563 331.34375 235.21875 331.0625 234.9375 C 330.78125 234.65625 330.398438 234.5 330 234.5 C 329.601563 234.5 329.21875 234.65625 328.9375 234.9375 C 328.65625 235.21875 328.5 235.601563 328.5 236 C 328.5 236.398438 328.65625 236.78125 328.9375 237.0625 C 329.21875 237.34375 329.601563 237.5 330 237.5 C 330.398438 237.5 330.78125 237.34375 331.0625 237.0625 C 331.34375 236.78125 331.5 236.398438 331.5 236 Z M 331.5 236 "/>
<path style=" stroke:none;fill-rule:evenodd;fill:rgb(99.998474%,0%,0%);fill-opacity:1;" d="M 32.5 209 C 32.5 208.601563 32.34375 208.21875 32.0625 207.9375 C 31.78125 207.65625 31.398438 207.5 31 207.5 C 30.601563 207.5 30.21875 207.65625 29.9375 207.9375 C 29.65625 208.21875 29.5 208.601563 29.5 209 C 29.5 209.398438 29.65625 209.78125 29.9375 210.0625 C 30.21875 210.34375 30.601563 210.5 31 210.5 C 31.398438 210.5 31.78125 210.34375 32.0625 210.0625 C 32.34375 209.78125 32.5 209.398438 32.5 209 Z M 32.5 209 "/>
<path style=" stroke:none;fill-rule:evenodd;fill:rgb(99.998474%,0%,0%);fill-opacity:1;" d="M 198.5 187 C 198.5 186.601563 198.34375 186.21875 198.0625 185.9375 C 197.78125 185.65625 197.398438 185.5 197 185.5 C 196.601563 185.5 196.21875 185.65625 195.9375 185.9375 C 195.65625 186.21875 195.5 186.601563 195.5 187 C 195.5 187.398438 195.65625 187.78125 195.9375 188.0625 C 196.21875 188.34375 196.601563 188.5 197 188.5 C 197.398438 188.5 197.78125 188.34375 198.0625 188.0625 C 198.34375 187.78125 198.5 187.398438 198.5 187 Z M 198.5 187 "/>
<path style=" stroke:none;fill-rule:evenodd;fill:rgb(99.998474%,0%,0%);fill-opacity:1;" d="M 41.5 139 C 41.5 138.601563 41.34375 138.21875 41.0625 137.9375 C 40.78125 137.65625 40.398438 137.5 40 137.5 C 39.601563 137.5 39.21875 137.65625 38.9375 137.9375 C 38.65625 138.21875 38.5 138.601563 38.5 139 C 38.5 139.398438 38.65625 139.78125 38.9375 140.0625 C 39.21875 140.34375 39.601563 140.5 40 140.5 C 40.398438 140.5 40.78125 140.34375 41.0625 140.0625 C 41.34375 139.78125 41.5 139.398438 41.5 139 Z M 41.5 139 "/>
<path style=" stroke:none;fill-rule:evenodd;fill:rgb(99.998474%,0%,0%);fill-opacity:1;" d="M 225.5 115 C 225.5 114.601563 225.34375 114.21875 225.0625 113.9375 C 224.78125 113.65625 224.398438 113.5 224 113.5 C 223.601563 113.5 223.21875 113.65625 222.9375 113.9375 C 222.65625 114.21875 222.5 114.601563 222.5 115 C 222.5 115.398438 222.65625 115.78125 222.9375 116.0625 C 223.21875 116.34375 223.601563 116.5 224 116.5 C 224.398438 116.5 224.78125 116.34375 225.0625 116.0625 C 225.34375 115.78125 225.5 115.398438 225.5 115 Z M 225.5 115 "/>
<path style=" stroke:none;fill-rule:evenodd;fill:rgb(99.998474%,0%,0%);fill-opacity:1;" d="M 21.5 112 C 21.5 111.601563 21.34375 111.21875 21.0625 110.9375 C 20.78125 110.65625 20.398438 110.5 20 110.5 C 19.601563 110.5 19.21875 110.65625 18.9375 110.9375 C 18.65625 111.21875 18.5 111.601563 18.5 112 C 18.5 112.398438 18.65625 112.78125 18.9375 113.0625 C 19.21875 113.34375 19.601563 113.5 20 113.5 C 20.398438 113.5 20.78125 113.34375 21.0625 113.0625 C 21.34375 112.78125 21.5 112.398438 21.5 112 Z M 21.5 112 "/>
<path style=" stroke:none;fill-rule:evenodd;fill:rgb(99.998474%,0%,0%);fill-opacity:1;" d="M 21.5 111 C 21.5 110.601563 21.34375 110.21875 21.0625 109.9375 C 20.78125 109.65625 20.398438 109.5 20 109.5 C 19.601563 109.5 19.21875 109.65625 18.9375 109.9375 C 18.65625 110.21875 18.5 110.601563 18.5 111 C 18.5 111.398438 18.65625 111.78125 18.9375 112.0625 C 19.21875 112.34375 19.601563 112.5 20 112.5 C 20.398438 112.5 20.78125 112.34375 21.0625 112.0625 C 21.34375 111.78125 21.5 111.398438 21.5 111 Z M 21.5 111 "/>
<path style=" stroke:none;fill-rule:evenodd;fill:rgb(99.998474%,0%,0%);fill-opacity:1;" d="M 85.5 73 C 85.5 72.601563 85.34375 72.21875 85.0625 71.9375 C 84.78125 71.65625 84.398438 71.5 84 71.5 C 83.601563 71.5 83.21875 71.65625 82.9375 71.9375 C 82.65625 72.21875 82.5 72.601563 82.5 73 C 82.5 73.398438 82.65625 73.78125 82.9375 74.0625 C 83.21875 74.34375 83.601563 74.5 84 74.5 C 84.398438 74.5 84.78125 74.34375 85.0625 74.0625 C 85.34375 73.78125 85.5 73.398438 85.5 73 Z M 85.5 73 "/>
<path style=" stroke:none;fill-rule:evenodd;fill:rgb(99.998474%,0%,0%);fill-opacity:1;" d="M 340.5 24 C 340.5 23.601563 340.34375 23.21875 340.0625 22.9375 C 339.78125 22.65625 339.398438 22.5 339 22.5 C 338.601563 22.5 338.21875 22.65625 337.9375 22.9375 C 337.65625 23.21875 337.5 23.601563 337.5 24 C 337.5 24.398438 337.65625 24.78125 337.9375 25.0625 C 338.21875 25.34375 338.601563 25.5 339 25.5 C 339.398438 25.5 339.78125 25.34375 340.0625 25.0625 C 340.34375 24.78125 340.5 24.398438 340.5 24 Z M 340.5 24 "/>
<path style=" stroke:none;fill-rule:evenodd;fill:rgb(99.998474%,0%,0%);fill-opacity:1;" d="M 333.5 19 C 333.5 18.601563 333.34375 18.21875 333.0625 17.9375 C 332.78125 17.65625 332.398438 17.5 332 17.5 C 331.601563 17.5 331.21875 17.65625 330.9375 17.9375 C 330.65625 18.21875 330.5 18.601563 330.5 19 C 330.5 19.398438 330.65625 19.78125 330.9375 20.0625 C 331.21875 20.34375 331.601563 20.5 332 20.5 C 332.398438 20.5 332.78125 20.34375 333.0625 20.0625 C 333.34375 19.78125 333.5 19.398438 333.5 19 Z M 333.5 19 "/>
<path style=" stroke:none;fill-rule:evenodd;fill:rgb(99.998474%,0%,0%);fill-opacity:1;" d="M 153.5 19 C 153.5 18.601563 153.34375 18.21875 153.0625 17.9375 C 152.78125 17.65625 152.398438 17.5 152 17.5 C 151.601563 17.5 151.21875 17.65625 150.9375 17.9375 C 150.65625 18.21875 150.5 18.601563 150.5 19 C 150.5 19.398438 150.65625 19.78125 150.9375 20.0625 C 151.21875 20.34375 151.601563 20.5 152 20.5 C 152.398438 20.5 152.78125 20.34375 153.0625 20.0625 C 153.34375 19.78125 153.5 19.398438 153.5 19 Z M 153.5 19 "/>
</g>
</svg>
