<?xml version="1.0" encoding="UTF-8"?>
<svg xmlns="http://www.w3.org/2000/svg" xmlns:xlink="http://www.w3.org/1999/xlink" width="340pt" height="304pt" viewBox="0 0 340 304" version="1.1">
<g id="surface606">
<path style="fill-rule:nonzero;fill:rgb(84.999084%,84.999084%,84.999084%);fill-opacity:0.6;stroke-width:1;stroke-linecap:square;stroke-linejoin:miter;stroke:rgb(50%,50%,50%);stroke-opacity:1;stroke-miterlimit:3.25;" d="M 150 309.804688 L 150.175781 309.574219 L 125.285156 209.929688 Z M 150 309.804688 " transform="matrix(1,0,0,1,-74,-13)"/>
<path style="fill-rule:nonzero;fill:rgb(84.999084%,84.999084%,84.999084%);fill-opacity:0.6;stroke-width:1;stroke-linecap:square;stroke-linejoin:miter;stroke:rgb(50%,50%,50%);stroke-opacity:1;stroke-miterlimit:3.25;" d="M 150.175781 309.574219 L 150 309.804688 L 194.246094 299.027344 Z M 150.175781 309.574219 " transform="matrix(1,0,0,1,-74,-13)"/>
<path style="fill-rule:nonzero;fill:rgb(84.999084%,84.999084%,84.999084%);fill-opacity:0.6;stroke-width:1;stroke-linecap:square;stroke-linejoin:miter;stroke:rgb(50%,50%,50%);stroke-opacity:1;stroke-miterlimit:3.25;" d="M 165.238281 205.195313 L 125.285156 209.929688 L 179.433594 243.546875 Z M 165.238281 205.195313 " transform="matrix(1,0,0,1,-74,-13)"/>
<path style="fill-rule:nonzero;fill:rgb(84.999084%,84.999084%,84.999084%);fill-opacity:0.6;stroke-width:1;stroke-linecap:square;stroke-linejoin:miter;stroke:rgb(50%,50%,50%);stroke-opacity:1;stroke-miterlimit:3.25;" d="M 163.929688 284.210938 L 125.285156 209.929688 L 150.175781 309.574219 Z M 163.929688 284.210938 " transform="matrix(1,0,0,1,-74,-13)"/>
<path style="fill-rule:nonzero;fill:rgb(84.999084%,84.999084%,84.999084%);fill-opacity:0.6;stroke-width:1;stroke-linecap:square;stroke-linejoin:miter;stroke:rgb(50%,50%,50%);stroke-opacity:1;stroke-miterlimit:3.25;" d="M 179.433594 243.546875 L 125.285156 209.929688 L 163.929688 284.210938 Z M 179.433594 243.546875 " transform="matrix(1,0,0,1,-74,-13)"/>
<path style="fill-rule:nonzero;fill:rgb(84.999084%,84.999084%,84.999084%);fill-opacity:0.6;stroke-width:1;stroke-linecap:square;stroke-linejoin:miter;stroke:rgb(50%,50%,50%);stroke-opacity:1;stroke-miterlimit:3.25;" d="M 125.285156 209.929688 L 165.238281 205.195313 L 137.960938 185.070313 Z M 125.285156 209.929688 " transform="matrix(1,0,0,1,-74,-13)"/>
<path style="fill-rule:nonzero;fill:rgb(84.999084%,84.999084%,84.999084%);fill-opacity:0.6;stroke-width:1;stroke-linecap:square;stroke-linejoin:miter;stroke:rgb(50%,50%,50%);stroke-opacity:1;stroke-miterlimit:3.25;" d="M 150.175781 309.574219 L 194.246094 299.027344 L 163.929688 284.210938 Z M 150.175781 309.574219 " transform="matrix(1,0,0,1,-74,-13)"/>
<path style="fill-rule:nonzero;fill:rgb(84.999084%,84.999084%,84.999084%);fill-opacity:0.6;stroke-width:1;stroke-linecap:square;stroke-linejoin:miter;stroke:rgb(50%,50%,50%);stroke-opacity:1;stroke-miterlimit:3.25;" d="M 150 309.804688 L 125.285156 209.929688 L 95.757813 190.8125 Z M 150 309.804688 " transform="matrix(1,0,0,1,-74,-13)"/>
<path style="fill-rule:nonzero;fill:rgb(84.999084%,84.999084%,84.999084%);fill-opacity:0.6;stroke-width:1;stroke-linecap:square;stroke-linejoin:miter;stroke:rgb(50%,50%,50%);stroke-opacity:1;stroke-miterlimit:3.25;" d="M 194.246094 299.027344 L 246.59375 302.023438 L 221.417969 294.402344 Z M 194.246094 299.027344 " transform="matrix(1,0,0,1,-74,-13)"/>
<path style="fill-rule:nonzero;fill:rgb(84.999084%,84.999084%,84.999084%);fill-opacity:0.6;stroke-width:1;stroke-linecap:square;stroke-linejoin:miter;stroke:rgb(50%,50%,50%);stroke-opacity:1;stroke-miterlimit:3.25;" d="M 246.59375 302.023438 L 194.246094 299.027344 L 150 309.804688 Z M 246.59375 302.023438 " transform="matrix(1,0,0,1,-74,-13)"/>
<path style="fill-rule:nonzero;fill:rgb(84.999084%,84.999084%,84.999084%);fill-opacity:0.6;stroke-width:1;stroke-linecap:square;stroke-linejoin:miter;stroke:rgb(50%,50%,50%);stroke-opacity:1;stroke-miterlimit:3.25;" d="M 221.417969 294.402344 L 246.59375 302.023438 L 231.257813 291.984375 Z M 221.417969 294.402344 " transform="matrix(1,0,0,1,-74,-13)"/>
<path style="fill-rule:nonzero;fill:rgb(84.999084%,84.999084%,84.999084%);fill-opacity:0.6;stroke-width:1;stroke-linecap:square;stroke-linejoin:miter;stroke:rgb(50%,50%,50%);stroke-opacity:1;stroke-miterlimit:3.25;" d="M 194.246094 299.027344 L 221.417969 294.402344 L 221.5 294.070313 Z M 194.246094 299.027344 " transform="matrix(1,0,0,1,-74,-13)"/>
<path style="fill-rule:nonzero;fill:rgb(84.999084%,84.999084%,84.999084%);fill-opacity:0.6;stroke-width:1;stroke-linecap:square;stroke-linejoin:miter;stroke:rgb(50%,50%,50%);stroke-opacity:1;stroke-miterlimit:3.25;" d="M 179.433594 243.546875 L 221.5 294.070313 L 231.257813 291.984375 Z M 179.433594 243.546875 " transform="matrix(1,0,0,1,-74,-13)"/>
<path style="fill-rule:nonzero;fill:rgb(84.999084%,84.999084%,84.999084%);fill-opacity:0.6;stroke-width:1;stroke-linecap:square;stroke-linejoin:miter;stroke:rgb(50%,50%,50%);stroke-opacity:1;stroke-miterlimit:3.25;" d="M 221.5 294.070313 L 179.433594 243.546875 L 194.246094 299.027344 Z M 221.5 294.070313 " transform="matrix(1,0,0,1,-74,-13)"/>
<path style="fill-rule:nonzero;fill:rgb(84.999084%,84.999084%,84.999084%);fill-opacity:0.6;stroke-width:1;stroke-linecap:square;stroke-linejoin:miter;stroke:rgb(50%,50%,50%);stroke-opacity:1;stroke-miterlimit:3.25;" d="M 231.257813 291.984375 L 221.5 294.070313 L 221.417969 294.402344 Z M 231.257813 291.984375 " transform="matrix(1,0,0,1,-74,-13)"/>
<path style="fill-rule:nonzero;fill:rgb(84.999084%,84.999084%,84.999084%);fill-opacity:0.6;stroke-width:1;stroke-linecap:square;stroke-linejoin:miter;stroke:rgb(50%,50%,50%);stroke-opacity:1;stroke-miterlimit:3.25;" d="M 179.433594 243.546875 L 272.996094 198.875 L 167.613281 203.9375 Z M 179.433594 243.546875 " transform="matrix(1,0,0,1,-74,-13)"/>
<path style="fill-rule:nonzero;fill:rgb(84.999084%,84.999084%,84.999084%);fill-opacity:0.6;stroke-width:1;stroke-linecap:square;stroke-linejoin:miter;stroke:rgb(50%,50%,50%);stroke-opacity:1;stroke-miterlimit:3.25;" d="M 167.613281 203.9375 L 165.238281 205.195313 L 179.433594 243.546875 Z M 167.613281 203.9375 " transform="matrix(1,0,0,1,-74,-13)"/>
<path style="fill-rule:nonzero;fill:rgb(84.999084%,84.999084%,84.999084%);fill-opacity:0.6;stroke-width:1;stroke-linecap:square;stroke-linejoin:miter;stroke:rgb(50%,50%,50%);stroke-opacity:1;stroke-miterlimit:3.25;" d="M 194.246094 299.027344 L 179.433594 243.546875 L 163.929688 284.210938 Z M 194.246094 299.027344 " transform="matrix(1,0,0,1,-74,-13)"/>
<path style="fill-rule:nonzero;fill:rgb(84.999084%,84.999084%,84.999084%);fill-opacity:0.6;stroke-width:1;stroke-linecap:square;stroke-linejoin:miter;stroke:rgb(50%,50%,50%);stroke-opacity:1;stroke-miterlimit:3.25;" d="M 150 309.804688 L 298.855469 314.890625 L 246.59375 302.023438 Z M 150 309.804688 " transform="matrix(1,0,0,1,-74,-13)"/>
<path style="fill-rule:nonzero;fill:rgb(84.999084%,84.999084%,84.999084%);fill-opacity:0.6;stroke-width:1;stroke-linecap:square;stroke-linejoin:miter;stroke:rgb(50%,50%,50%);stroke-opacity:1;stroke-miterlimit:3.25;" d="M 231.257813 291.984375 L 272.996094 198.875 L 179.433594 243.546875 Z M 231.257813 291.984375 " transform="matrix(1,0,0,1,-74,-13)"/>
<path style="fill-rule:nonzero;fill:rgb(84.999084%,84.999084%,84.999084%);fill-opacity:0.6;stroke-width:1;stroke-linecap:square;stroke-linejoin:miter;stroke:rgb(50%,50%,50%);stroke-opacity:1;stroke-miterlimit:3.25;" d="M 125.285156 209.929688 L 122.410156 170.972656 L 95.757813 190.8125 Z M 125.285156 209.929688 " transform="matrix(1,0,0,1,-74,-13)"/>
<path style="fill-rule:nonzero;fill:rgb(84.999084%,84.999084%,84.999084%);fill-opacity:0.6;stroke-width:1;stroke-linecap:square;stroke-linejoin:miter;stroke:rgb(50%,50%,50%);stroke-opacity:1;stroke-miterlimit:3.25;" d="M 125.285156 209.929688 L 137.960938 185.070313 L 122.410156 170.972656 Z M 125.285156 209.929688 " transform="matrix(1,0,0,1,-74,-13)"/>
<path style="fill-rule:nonzero;fill:rgb(84.999084%,84.999084%,84.999084%);fill-opacity:0.6;stroke-width:1;stroke-linecap:square;stroke-linejoin:miter;stroke:rgb(50%,50%,50%);stroke-opacity:1;stroke-miterlimit:3.25;" d="M 153.203125 109.734375 L 122.410156 170.972656 L 169.660156 130.371094 Z M 153.203125 109.734375 " transform="matrix(1,0,0,1,-74,-13)"/>
<path style="fill-rule:nonzero;fill:rgb(84.999084%,84.999084%,84.999084%);fill-opacity:0.6;stroke-width:1;stroke-linecap:square;stroke-linejoin:miter;stroke:rgb(50%,50%,50%);stroke-opacity:1;stroke-miterlimit:3.25;" d="M 95.757813 190.8125 L 122.410156 170.972656 L 94.976563 124.917969 Z M 95.757813 190.8125 " transform="matrix(1,0,0,1,-74,-13)"/>
<path style="fill-rule:nonzero;fill:rgb(84.999084%,84.999084%,84.999084%);fill-opacity:0.6;stroke-width:1;stroke-linecap:square;stroke-linejoin:miter;stroke:rgb(50%,50%,50%);stroke-opacity:1;stroke-miterlimit:3.25;" d="M 122.410156 170.972656 L 96.316406 123.535156 L 94.976563 124.917969 Z M 122.410156 170.972656 " transform="matrix(1,0,0,1,-74,-13)"/>
<path style="fill-rule:nonzero;fill:rgb(84.999084%,84.999084%,84.999084%);fill-opacity:0.6;stroke-width:1;stroke-linecap:square;stroke-linejoin:miter;stroke:rgb(50%,50%,50%);stroke-opacity:1;stroke-miterlimit:3.25;" d="M 96.316406 123.535156 L 122.410156 170.972656 L 153.203125 109.734375 Z M 96.316406 123.535156 " transform="matrix(1,0,0,1,-74,-13)"/>
<path style="fill-rule:nonzero;fill:rgb(84.999084%,84.999084%,84.999084%);fill-opacity:0.6;stroke-width:1;stroke-linecap:square;stroke-linejoin:miter;stroke:rgb(50%,50%,50%);stroke-opacity:1;stroke-miterlimit:3.25;" d="M 96.316406 123.535156 L 153.203125 109.734375 L 158.304688 86.421875 Z M 96.316406 123.535156 " transform="matrix(1,0,0,1,-74,-13)"/>
<path style="fill-rule:nonzero;fill:rgb(84.999084%,84.999084%,84.999084%);fill-opacity:0.6;stroke-width:1;stroke-linecap:square;stroke-linejoin:miter;stroke:rgb(50%,50%,50%);stroke-opacity:1;stroke-miterlimit:3.25;" d="M 122.410156 170.972656 L 137.960938 185.070313 L 169.660156 130.371094 Z M 122.410156 170.972656 " transform="matrix(1,0,0,1,-74,-13)"/>
<path style="fill-rule:nonzero;fill:rgb(84.999084%,84.999084%,84.999084%);fill-opacity:0.6;stroke-width:1;stroke-linecap:square;stroke-linejoin:miter;stroke:rgb(50%,50%,50%);stroke-opacity:1;stroke-miterlimit:3.25;" d="M 169.289063 193.082031 L 169.660156 130.371094 L 137.960938 185.070313 Z M 169.289063 193.082031 " transform="matrix(1,0,0,1,-74,-13)"/>
<path style="fill-rule:nonzero;fill:rgb(84.999084%,84.999084%,84.999084%);fill-opacity:0.6;stroke-width:1;stroke-linecap:square;stroke-linejoin:miter;stroke:rgb(50%,50%,50%);stroke-opacity:1;stroke-miterlimit:3.25;" d="M 169.289063 193.082031 L 167.613281 203.9375 L 272.996094 198.875 Z M 169.289063 193.082031 " transform="matrix(1,0,0,1,-74,-13)"/>
<path style="fill-rule:nonzero;fill:rgb(84.999084%,84.999084%,84.999084%);fill-opacity:0.6;stroke-width:1;stroke-linecap:square;stroke-linejoin:miter;stroke:rgb(50%,50%,50%);stroke-opacity:1;stroke-miterlimit:3.25;" d="M 169.660156 130.371094 L 169.289063 193.082031 L 253.652344 115.632813 Z M 169.660156 130.371094 " transform="matrix(1,0,0,1,-74,-13)"/>
<path style="fill-rule:nonzero;fill:rgb(84.999084%,84.999084%,84.999084%);fill-opacity:0.6;stroke-width:1;stroke-linecap:square;stroke-linejoin:miter;stroke:rgb(50%,50%,50%);stroke-opacity:1;stroke-miterlimit:3.25;" d="M 153.203125 109.734375 L 169.660156 130.371094 L 158.304688 86.421875 Z M 153.203125 109.734375 " transform="matrix(1,0,0,1,-74,-13)"/>
<path style="fill-rule:nonzero;fill:rgb(84.999084%,84.999084%,84.999084%);fill-opacity:0.6;stroke-width:1;stroke-linecap:square;stroke-linejoin:miter;stroke:rgb(50%,50%,50%);stroke-opacity:1;stroke-miterlimit:3.25;" d="M 158.304688 86.421875 L 226.972656 31.492188 L 225.441406 30.605469 Z M 158.304688 86.421875 " transform="matrix(1,0,0,1,-74,-13)"/>
<path style="fill-rule:nonzero;fill:rgb(84.999084%,84.999084%,84.999084%);fill-opacity:0.6;stroke-width:1;stroke-linecap:square;stroke-linejoin:miter;stroke:rgb(50%,50%,50%);stroke-opacity:1;stroke-miterlimit:3.25;" d="M 253.652344 115.632813 L 226.972656 31.492188 L 158.304688 86.421875 Z M 253.652344 115.632813 " transform="matrix(1,0,0,1,-74,-13)"/>
<path style="fill-rule:nonzero;fill:rgb(84.999084%,84.999084%,84.999084%);fill-opacity:0.6;stroke-width:1;stroke-linecap:square;stroke-linejoin:miter;stroke:rgb(50%,50%,50%);stroke-opacity:1;stroke-miterlimit:3.25;" d="M 225.441406 30.605469 L 226.972656 31.492188 L 300.410156 29.613281 Z M 225.441406 30.605469 " transform="matrix(1,0,0,1,-74,-13)"/>
<path style="fill-rule:nonzero;fill:rgb(84.999084%,84.999084%,84.999084%);fill-opacity:0.6;stroke-width:1;stroke-linecap:square;stroke-linejoin:miter;stroke:rgb(50%,50%,50%);stroke-opacity:1;stroke-miterlimit:3.25;" d="M 158.304688 86.421875 L 225.441406 30.605469 L 96.316406 123.535156 Z M 158.304688 86.421875 " transform="matrix(1,0,0,1,-74,-13)"/>
<path style="fill-rule:nonzero;fill:rgb(84.999084%,84.999084%,84.999084%);fill-opacity:0.6;stroke-width:1;stroke-linecap:square;stroke-linejoin:miter;stroke:rgb(50%,50%,50%);stroke-opacity:1;stroke-miterlimit:3.25;" d="M 169.660156 130.371094 L 253.652344 115.632813 L 158.304688 86.421875 Z M 169.660156 130.371094 " transform="matrix(1,0,0,1,-74,-13)"/>
<path style="fill-rule:nonzero;fill:rgb(84.999084%,84.999084%,84.999084%);fill-opacity:0.6;stroke-width:1;stroke-linecap:square;stroke-linejoin:miter;stroke:rgb(50%,50%,50%);stroke-opacity:1;stroke-miterlimit:3.25;" d="M 137.960938 185.070313 L 165.238281 205.195313 L 169.289063 193.082031 Z M 137.960938 185.070313 " transform="matrix(1,0,0,1,-74,-13)"/>
<path style="fill-rule:nonzero;fill:rgb(84.999084%,84.999084%,84.999084%);fill-opacity:0.6;stroke-width:1;stroke-linecap:square;stroke-linejoin:miter;stroke:rgb(50%,50%,50%);stroke-opacity:1;stroke-miterlimit:3.25;" d="M 167.613281 203.9375 L 169.289063 193.082031 L 165.238281 205.195313 Z M 167.613281 203.9375 " transform="matrix(1,0,0,1,-74,-13)"/>
<path style="fill-rule:nonzero;fill:rgb(84.999084%,84.999084%,84.999084%);fill-opacity:0.6;stroke-width:1;stroke-linecap:square;stroke-linejoin:miter;stroke:rgb(50%,50%,50%);stroke-opacity:1;stroke-miterlimit:3.25;" d="M 246.59375 302.023438 L 271.980469 293.121094 L 231.257813 291.984375 Z M 246.59375 302.023438 " transform="matrix(1,0,0,1,-74,-13)"/>
<path style="fill-rule:nonzero;fill:rgb(84.999084%,84.999084%,84.999084%);fill-opacity:0.6;stroke-width:1;stroke-linecap:square;stroke-linejoin:miter;stroke:rgb(50%,50%,50%);stroke-opacity:1;stroke-miterlimit:3.25;" d="M 329.886719 179.003906 L 272.996094 198.875 L 366.910156 258.667969 Z M 329.886719 179.003906 " transform="matrix(1,0,0,1,-74,-13)"/>
<path style="fill-rule:nonzero;fill:rgb(84.999084%,84.999084%,84.999084%);fill-opacity:0.6;stroke-width:1;stroke-linecap:square;stroke-linejoin:miter;stroke:rgb(50%,50%,50%);stroke-opacity:1;stroke-miterlimit:3.25;" d="M 298.855469 314.890625 L 271.980469 293.121094 L 246.59375 302.023438 Z M 298.855469 314.890625 " transform="matrix(1,0,0,1,-74,-13)"/>
<path style="fill-rule:nonzero;fill:rgb(84.999084%,84.999084%,84.999084%);fill-opacity:0.6;stroke-width:1;stroke-linecap:square;stroke-linejoin:miter;stroke:rgb(50%,50%,50%);stroke-opacity:1;stroke-miterlimit:3.25;" d="M 271.980469 293.121094 L 366.910156 258.667969 L 272.996094 198.875 Z M 271.980469 293.121094 " transform="matrix(1,0,0,1,-74,-13)"/>
<path style="fill-rule:nonzero;fill:rgb(84.999084%,84.999084%,84.999084%);fill-opacity:0.6;stroke-width:1;stroke-linecap:square;stroke-linejoin:miter;stroke:rgb(50%,50%,50%);stroke-opacity:1;stroke-miterlimit:3.25;" d="M 272.996094 198.875 L 253.652344 115.632813 L 169.289063 193.082031 Z M 272.996094 198.875 " transform="matrix(1,0,0,1,-74,-13)"/>
<path style="fill-rule:nonzero;fill:rgb(84.999084%,84.999084%,84.999084%);fill-opacity:0.6;stroke-width:1;stroke-linecap:square;stroke-linejoin:miter;stroke:rgb(50%,50%,50%);stroke-opacity:1;stroke-miterlimit:3.25;" d="M 329.886719 179.003906 L 352.617188 159.433594 L 352.652344 158.914063 Z M 329.886719 179.003906 " transform="matrix(1,0,0,1,-74,-13)"/>
<path style="fill-rule:nonzero;fill:rgb(84.999084%,84.999084%,84.999084%);fill-opacity:0.6;stroke-width:1;stroke-linecap:square;stroke-linejoin:miter;stroke:rgb(50%,50%,50%);stroke-opacity:1;stroke-miterlimit:3.25;" d="M 393.242188 206.519531 L 352.617188 159.433594 L 329.886719 179.003906 Z M 393.242188 206.519531 " transform="matrix(1,0,0,1,-74,-13)"/>
<path style="fill-rule:nonzero;fill:rgb(84.999084%,84.999084%,84.999084%);fill-opacity:0.6;stroke-width:1;stroke-linecap:square;stroke-linejoin:miter;stroke:rgb(50%,50%,50%);stroke-opacity:1;stroke-miterlimit:3.25;" d="M 407.851563 134.695313 L 352.652344 158.914063 L 352.617188 159.433594 Z M 407.851563 134.695313 " transform="matrix(1,0,0,1,-74,-13)"/>
<path style="fill-rule:nonzero;fill:rgb(84.999084%,84.999084%,84.999084%);fill-opacity:0.6;stroke-width:1;stroke-linecap:square;stroke-linejoin:miter;stroke:rgb(50%,50%,50%);stroke-opacity:1;stroke-miterlimit:3.25;" d="M 272.996094 198.875 L 329.886719 179.003906 L 296.605469 132.800781 Z M 272.996094 198.875 " transform="matrix(1,0,0,1,-74,-13)"/>
<path style="fill-rule:nonzero;fill:rgb(84.999084%,84.999084%,84.999084%);fill-opacity:0.6;stroke-width:1;stroke-linecap:square;stroke-linejoin:miter;stroke:rgb(50%,50%,50%);stroke-opacity:1;stroke-miterlimit:3.25;" d="M 366.910156 258.667969 L 271.980469 293.121094 L 298.855469 314.890625 Z M 366.910156 258.667969 " transform="matrix(1,0,0,1,-74,-13)"/>
<path style="fill-rule:nonzero;fill:rgb(84.999084%,84.999084%,84.999084%);fill-opacity:0.6;stroke-width:1;stroke-linecap:square;stroke-linejoin:miter;stroke:rgb(50%,50%,50%);stroke-opacity:1;stroke-miterlimit:3.25;" d="M 296.605469 132.800781 L 329.886719 179.003906 L 352.652344 158.914063 Z M 296.605469 132.800781 " transform="matrix(1,0,0,1,-74,-13)"/>
<path style="fill-rule:nonzero;fill:rgb(84.999084%,84.999084%,84.999084%);fill-opacity:0.6;stroke-width:1;stroke-linecap:square;stroke-linejoin:miter;stroke:rgb(50%,50%,50%);stroke-opacity:1;stroke-miterlimit:3.25;" d="M 298.855469 314.890625 L 369.207031 263.515625 L 366.910156 258.667969 Z M 298.855469 314.890625 " transform="matrix(1,0,0,1,-74,-13)"/>
<path style="fill-rule:nonzero;fill:rgb(84.999084%,84.999084%,84.999084%);fill-opacity:0.6;stroke-width:1;stroke-linecap:square;stroke-linejoin:miter;stroke:rgb(50%,50%,50%);stroke-opacity:1;stroke-miterlimit:3.25;" d="M 369.207031 263.515625 L 298.855469 314.890625 L 371.976563 288.167969 Z M 369.207031 263.515625 " transform="matrix(1,0,0,1,-74,-13)"/>
<path style="fill-rule:nonzero;fill:rgb(84.999084%,84.999084%,84.999084%);fill-opacity:0.6;stroke-width:1;stroke-linecap:square;stroke-linejoin:miter;stroke:rgb(50%,50%,50%);stroke-opacity:1;stroke-miterlimit:3.25;" d="M 369.207031 263.515625 L 371.976563 288.167969 L 399.949219 253.457031 Z M 369.207031 263.515625 " transform="matrix(1,0,0,1,-74,-13)"/>
<path style="fill-rule:nonzero;fill:rgb(84.999084%,84.999084%,84.999084%);fill-opacity:0.6;stroke-width:1;stroke-linecap:square;stroke-linejoin:miter;stroke:rgb(50%,50%,50%);stroke-opacity:1;stroke-miterlimit:3.25;" d="M 366.910156 258.667969 L 369.207031 263.515625 L 399.949219 253.457031 Z M 366.910156 258.667969 " transform="matrix(1,0,0,1,-74,-13)"/>
<path style="fill-rule:nonzero;fill:rgb(84.999084%,84.999084%,84.999084%);fill-opacity:0.6;stroke-width:1;stroke-linecap:square;stroke-linejoin:miter;stroke:rgb(50%,50%,50%);stroke-opacity:1;stroke-miterlimit:3.25;" d="M 393.242188 206.519531 L 399.949219 253.457031 L 407.609375 247.945313 Z M 393.242188 206.519531 " transform="matrix(1,0,0,1,-74,-13)"/>
<path style="fill-rule:nonzero;fill:rgb(84.999084%,84.999084%,84.999084%);fill-opacity:0.6;stroke-width:1;stroke-linecap:square;stroke-linejoin:miter;stroke:rgb(50%,50%,50%);stroke-opacity:1;stroke-miterlimit:3.25;" d="M 399.949219 253.457031 L 393.242188 206.519531 L 366.910156 258.667969 Z M 399.949219 253.457031 " transform="matrix(1,0,0,1,-74,-13)"/>
<path style="fill-rule:nonzero;fill:rgb(84.999084%,84.999084%,84.999084%);fill-opacity:0.6;stroke-width:1;stroke-linecap:square;stroke-linejoin:miter;stroke:rgb(50%,50%,50%);stroke-opacity:1;stroke-miterlimit:3.25;" d="M 407.609375 247.945313 L 399.949219 253.457031 L 371.976563 288.167969 Z M 407.609375 247.945313 " transform="matrix(1,0,0,1,-74,-13)"/>
<path style="fill-rule:nonzero;fill:rgb(84.999084%,84.999084%,84.999084%);fill-opacity:0.6;stroke-width:1;stroke-linecap:square;stroke-linejoin:miter;stroke:rgb(50%,50%,50%);stroke-opacity:1;stroke-miterlimit:3.25;" d="M 393.242188 206.519531 L 407.609375 247.945313 L 407.851563 134.695313 Z M 393.242188 206.519531 " transform="matrix(1,0,0,1,-74,-13)"/>
<path style="fill-rule:nonzero;fill:rgb(84.999084%,84.999084%,84.999084%);fill-opacity:0.6;stroke-width:1;stroke-linecap:square;stroke-linejoin:miter;stroke:rgb(50%,50%,50%);stroke-opacity:1;stroke-miterlimit:3.25;" d="M 366.910156 258.667969 L 393.242188 206.519531 L 329.886719 179.003906 Z M 366.910156 258.667969 " transform="matrix(1,0,0,1,-74,-13)"/>
<path style="fill-rule:nonzero;fill:rgb(84.999084%,84.999084%,84.999084%);fill-opacity:0.6;stroke-width:1;stroke-linecap:square;stroke-linejoin:miter;stroke:rgb(50%,50%,50%);stroke-opacity:1;stroke-miterlimit:3.25;" d="M 407.851563 134.695313 L 352.617188 159.433594 L 393.242188 206.519531 Z M 407.851563 134.695313 " transform="matrix(1,0,0,1,-74,-13)"/>
<path style="fill-rule:nonzero;fill:rgb(84.999084%,84.999084%,84.999084%);fill-opacity:0.6;stroke-width:1;stroke-linecap:square;stroke-linejoin:miter;stroke:rgb(50%,50%,50%);stroke-opacity:1;stroke-miterlimit:3.25;" d="M 253.652344 115.632813 L 296.605469 132.800781 L 279.683594 107.625 Z M 253.652344 115.632813 " transform="matrix(1,0,0,1,-74,-13)"/>
<path style="fill-rule:nonzero;fill:rgb(84.999084%,84.999084%,84.999084%);fill-opacity:0.6;stroke-width:1;stroke-linecap:square;stroke-linejoin:miter;stroke:rgb(50%,50%,50%);stroke-opacity:1;stroke-miterlimit:3.25;" d="M 296.605469 132.800781 L 253.652344 115.632813 L 272.996094 198.875 Z M 296.605469 132.800781 " transform="matrix(1,0,0,1,-74,-13)"/>
<path style="fill-rule:nonzero;fill:rgb(84.999084%,84.999084%,84.999084%);fill-opacity:0.6;stroke-width:1;stroke-linecap:square;stroke-linejoin:miter;stroke:rgb(50%,50%,50%);stroke-opacity:1;stroke-miterlimit:3.25;" d="M 279.683594 107.625 L 296.605469 132.800781 L 284.28125 104.371094 Z M 279.683594 107.625 " transform="matrix(1,0,0,1,-74,-13)"/>
<path style="fill-rule:nonzero;fill:rgb(84.999084%,84.999084%,84.999084%);fill-opacity:0.6;stroke-width:1;stroke-linecap:square;stroke-linejoin:miter;stroke:rgb(50%,50%,50%);stroke-opacity:1;stroke-miterlimit:3.25;" d="M 279.683594 107.625 L 284.28125 104.371094 L 226.972656 31.492188 Z M 279.683594 107.625 " transform="matrix(1,0,0,1,-74,-13)"/>
<path style="fill-rule:nonzero;fill:rgb(84.999084%,84.999084%,84.999084%);fill-opacity:0.6;stroke-width:1;stroke-linecap:square;stroke-linejoin:miter;stroke:rgb(50%,50%,50%);stroke-opacity:1;stroke-miterlimit:3.25;" d="M 284.28125 104.371094 L 340.542969 46.046875 L 299.386719 32.167969 Z M 284.28125 104.371094 " transform="matrix(1,0,0,1,-74,-13)"/>
<path style="fill-rule:nonzero;fill:rgb(84.999084%,84.999084%,84.999084%);fill-opacity:0.6;stroke-width:1;stroke-linecap:square;stroke-linejoin:miter;stroke:rgb(50%,50%,50%);stroke-opacity:1;stroke-miterlimit:3.25;" d="M 300.410156 29.613281 L 299.386719 32.167969 L 340.542969 46.046875 Z M 300.410156 29.613281 " transform="matrix(1,0,0,1,-74,-13)"/>
<path style="fill-rule:nonzero;fill:rgb(84.999084%,84.999084%,84.999084%);fill-opacity:0.6;stroke-width:1;stroke-linecap:square;stroke-linejoin:miter;stroke:rgb(50%,50%,50%);stroke-opacity:1;stroke-miterlimit:3.25;" d="M 300.410156 29.613281 L 226.972656 31.492188 L 299.386719 32.167969 Z M 300.410156 29.613281 " transform="matrix(1,0,0,1,-74,-13)"/>
<path style="fill-rule:nonzero;fill:rgb(84.999084%,84.999084%,84.999084%);fill-opacity:0.6;stroke-width:1;stroke-linecap:square;stroke-linejoin:miter;stroke:rgb(50%,50%,50%);stroke-opacity:1;stroke-miterlimit:3.25;" d="M 299.386719 32.167969 L 226.972656 31.492188 L 284.28125 104.371094 Z M 299.386719 32.167969 " transform="matrix(1,0,0,1,-74,-13)"/>
<path style="fill-rule:nonzero;fill:rgb(84.999084%,84.999084%,84.999084%);fill-opacity:0.6;stroke-width:1;stroke-linecap:square;stroke-linejoin:miter;stroke:rgb(50%,50%,50%);stroke-opacity:1;stroke-miterlimit:3.25;" d="M 331.910156 113.871094 L 284.28125 104.371094 L 296.605469 132.800781 Z M 331.910156 113.871094 " transform="matrix(1,0,0,1,-74,-13)"/>
<path style="fill-rule:nonzero;fill:rgb(84.999084%,84.999084%,84.999084%);fill-opacity:0.6;stroke-width:1;stroke-linecap:square;stroke-linejoin:miter;stroke:rgb(50%,50%,50%);stroke-opacity:1;stroke-miterlimit:3.25;" d="M 253.652344 115.632813 L 279.683594 107.625 L 226.972656 31.492188 Z M 253.652344 115.632813 " transform="matrix(1,0,0,1,-74,-13)"/>
<path style="fill-rule:nonzero;fill:rgb(84.999084%,84.999084%,84.999084%);fill-opacity:0.6;stroke-width:1;stroke-linecap:square;stroke-linejoin:miter;stroke:rgb(50%,50%,50%);stroke-opacity:1;stroke-miterlimit:3.25;" d="M 340.542969 46.046875 L 331.910156 113.871094 L 379.261719 42.492188 Z M 340.542969 46.046875 " transform="matrix(1,0,0,1,-74,-13)"/>
<path style="fill-rule:nonzero;fill:rgb(84.999084%,84.999084%,84.999084%);fill-opacity:0.6;stroke-width:1;stroke-linecap:square;stroke-linejoin:miter;stroke:rgb(50%,50%,50%);stroke-opacity:1;stroke-miterlimit:3.25;" d="M 331.910156 113.871094 L 296.605469 132.800781 L 352.652344 158.914063 Z M 331.910156 113.871094 " transform="matrix(1,0,0,1,-74,-13)"/>
<path style="fill-rule:nonzero;fill:rgb(84.999084%,84.999084%,84.999084%);fill-opacity:0.6;stroke-width:1;stroke-linecap:square;stroke-linejoin:miter;stroke:rgb(50%,50%,50%);stroke-opacity:1;stroke-miterlimit:3.25;" d="M 379.261719 42.492188 L 331.910156 113.871094 L 407.851563 134.695313 Z M 379.261719 42.492188 " transform="matrix(1,0,0,1,-74,-13)"/>
<path style="fill-rule:nonzero;fill:rgb(84.999084%,84.999084%,84.999084%);fill-opacity:0.6;stroke-width:1;stroke-linecap:square;stroke-linejoin:miter;stroke:rgb(50%,50%,50%);stroke-opacity:1;stroke-miterlimit:3.25;" d="M 331.910156 113.871094 L 340.542969 46.046875 L 284.28125 104.371094 Z M 331.910156 113.871094 " transform="matrix(1,0,0,1,-74,-13)"/>
<path style="fill-rule:nonzero;fill:rgb(84.999084%,84.999084%,84.999084%);fill-opacity:0.6;stroke-width:1;stroke-linecap:square;stroke-linejoin:miter;stroke:rgb(50%,50%,50%);stroke-opacity:1;stroke-miterlimit:3.25;" d="M 379.261719 42.492188 L 411.894531 32.496094 L 411.671875 31.828125 Z M 379.261719 42.492188 " transform="matrix(1,0,0,1,-74,-13)"/>
<path style="fill-rule:nonzero;fill:rgb(84.999084%,84.999084%,84.999084%);fill-opacity:0.6;stroke-width:1;stroke-linecap:square;stroke-linejoin:miter;stroke:rgb(50%,50%,50%);stroke-opacity:1;stroke-miterlimit:3.25;" d="M 411.894531 32.496094 L 379.261719 42.492188 L 407.851563 134.695313 Z M 411.894531 32.496094 " transform="matrix(1,0,0,1,-74,-13)"/>
<path style="fill-rule:nonzero;fill:rgb(84.999084%,84.999084%,84.999084%);fill-opacity:0.6;stroke-width:1;stroke-linecap:square;stroke-linejoin:miter;stroke:rgb(50%,50%,50%);stroke-opacity:1;stroke-miterlimit:3.25;" d="M 411.671875 31.828125 L 300.410156 29.613281 L 379.261719 42.492188 Z M 411.671875 31.828125 " transform="matrix(1,0,0,1,-74,-13)"/>
<path style="fill-rule:nonzero;fill:rgb(84.999084%,84.999084%,84.999084%);fill-opacity:0.6;stroke-width:1;stroke-linecap:square;stroke-linejoin:miter;stroke:rgb(50%,50%,50%);stroke-opacity:1;stroke-miterlimit:3.25;" d="M 407.851563 134.695313 L 407.609375 247.945313 L 411.894531 32.496094 Z M 407.851563 134.695313 " transform="matrix(1,0,0,1,-74,-13)"/>
<path style="fill-rule:nonzero;fill:rgb(84.999084%,84.999084%,84.999084%);fill-opacity:0.6;stroke-width:1;stroke-linecap:square;stroke-linejoin:miter;stroke:rgb(50%,50%,50%);stroke-opacity:1;stroke-miterlimit:3.25;" d="M 379.261719 42.492188 L 300.410156 29.613281 L 340.542969 46.046875 Z M 379.261719 42.492188 " transform="matrix(1,0,0,1,-74,-13)"/>
<path style="fill-rule:nonzero;fill:rgb(84.999084%,84.999084%,84.999084%);fill-opacity:0.6;stroke-width:1;stroke-linecap:square;stroke-linejoin:miter;stroke:rgb(50%,50%,50%);stroke-opacity:1;stroke-miterlimit:3.25;" d="M 352.652344 158.914063 L 407.851563 134.695313 L 331.910156 113.871094 Z M 352.652344 158.914063 " transform="matrix(1,0,0,1,-74,-13)"/>
<path style="fill-rule:nonzero;fill:rgb(84.999084%,84.999084%,84.999084%);fill-opacity:0.6;stroke-width:1;stroke-linecap:square;stroke-linejoin:miter;stroke:rgb(50%,50%,50%);stroke-opacity:1;stroke-miterlimit:3.25;" d="M 272.996094 198.875 L 231.257813 291.984375 L 271.980469 293.121094 Z M 272.996094 198.875 " transform="matrix(1,0,0,1,-74,-13)"/>
<path style=" stroke:none;fill-rule:evenodd;fill:rgb(99.998474%,0%,0%);fill-opacity:0.6;" d="M 226.789063 302 C 226.789063 301.523438 226.601563 301.070313 226.265625 300.734375 C 225.929688 300.398438 225.476563 300.210938 225 300.210938 C 224.523438 300.210938 224.070313 300.398438 223.734375 300.734375 C 223.398438 301.070313 223.210938 301.523438 223.210938 302 C 223.210938 302.476563 223.398438 302.929688 223.734375 303.265625 C 224.070313 303.601563 224.523438 303.789063 225 303.789063 C 225.476563 303.789063 225.929688 303.601563 226.265625 303.265625 C 226.601563 302.929688 226.789063 302.476563 226.789063 302 Z M 226.789063 302 "/>
<path style=" stroke:none;fill-rule:evenodd;fill:rgb(99.998474%,0%,0%);fill-opacity:0.6;" d="M 77.789063 297 C 77.789063 296.523438 77.601563 296.070313 77.265625 295.734375 C 76.929688 295.398438 76.476563 295.210938 76 295.210938 C 75.523438 295.210938 75.070313 295.398438 74.734375 295.734375 C 74.398438 296.070313 74.210938 296.523438 74.210938 297 C 74.210938 297.476563 74.398438 297.929688 74.734375 298.265625 C 75.070313 298.601563 75.523438 298.789063 76 298.789063 C 76.476563 298.789063 76.929688 298.601563 77.265625 298.265625 C 77.601563 297.929688 77.789063 297.476563 77.789063 297 Z M 77.789063 297 "/>
<path style=" stroke:none;fill-rule:evenodd;fill:rgb(99.998474%,0%,0%);fill-opacity:0.6;" d="M 77.789063 297 C 77.789063 296.523438 77.601563 296.070313 77.265625 295.734375 C 76.929688 295.398438 76.476563 295.210938 76 295.210938 C 75.523438 295.210938 75.070313 295.398438 74.734375 295.734375 C 74.398438 296.070313 74.210938 296.523438 74.210938 297 C 74.210938 297.476563 74.398438 297.929688 74.734375 298.265625 C 75.070313 298.601563 75.523438 298.789063 76 298.789063 C 76.476563 298.789063 76.929688 298.601563 77.265625 298.265625 C 77.601563 297.929688 77.789063 297.476563 77.789063 297 Z M 77.789063 297 "/>
<path style=" stroke:none;fill-rule:evenodd;fill:rgb(99.998474%,0%,0%);fill-opacity:0.6;" d="M 174.789063 289 C 174.789063 288.523438 174.601563 288.070313 174.265625 287.734375 C 173.929688 287.398438 173.476563 287.210938 173 287.210938 C 172.523438 287.210938 172.070313 287.398438 171.734375 287.734375 C 171.398438 288.070313 171.210938 288.523438 171.210938 289 C 171.210938 289.476563 171.398438 289.929688 171.734375 290.265625 C 172.070313 290.601563 172.523438 290.789063 173 290.789063 C 173.476563 290.789063 173.929688 290.601563 174.265625 290.265625 C 174.601563 289.929688 174.789063 289.476563 174.789063 289 Z M 174.789063 289 "/>
<path style=" stroke:none;fill-rule:evenodd;fill:rgb(99.998474%,0%,0%);fill-opacity:0.6;" d="M 121.789063 286 C 121.789063 285.523438 121.601563 285.070313 121.265625 284.734375 C 120.929688 284.398438 120.476563 284.210938 120 284.210938 C 119.523438 284.210938 119.070313 284.398438 118.734375 284.734375 C 118.398438 285.070313 118.210938 285.523438 118.210938 286 C 118.210938 286.476563 118.398438 286.929688 118.734375 287.265625 C 119.070313 287.601563 119.523438 287.789063 120 287.789063 C 120.476563 287.789063 120.929688 287.601563 121.265625 287.265625 C 121.601563 286.929688 121.789063 286.476563 121.789063 286 Z M 121.789063 286 "/>
<path style=" stroke:none;fill-rule:evenodd;fill:rgb(99.998474%,0%,0%);fill-opacity:0.6;" d="M 148.789063 281 C 148.789063 280.523438 148.601563 280.070313 148.265625 279.734375 C 147.929688 279.398438 147.476563 279.210938 147 279.210938 C 146.523438 279.210938 146.070313 279.398438 145.734375 279.734375 C 145.398438 280.070313 145.210938 280.523438 145.210938 281 C 145.210938 281.476563 145.398438 281.929688 145.734375 282.265625 C 146.070313 282.601563 146.523438 282.789063 147 282.789063 C 147.476563 282.789063 147.929688 282.601563 148.265625 282.265625 C 148.601563 281.929688 148.789063 281.476563 148.789063 281 Z M 148.789063 281 "/>
<path style=" stroke:none;fill-rule:evenodd;fill:rgb(99.998474%,0%,0%);fill-opacity:0.6;" d="M 149.789063 281 C 149.789063 280.523438 149.601563 280.070313 149.265625 279.734375 C 148.929688 279.398438 148.476563 279.210938 148 279.210938 C 147.523438 279.210938 147.070313 279.398438 146.734375 279.734375 C 146.398438 280.070313 146.210938 280.523438 146.210938 281 C 146.210938 281.476563 146.398438 281.929688 146.734375 282.265625 C 147.070313 282.601563 147.523438 282.789063 148 282.789063 C 148.476563 282.789063 148.929688 282.601563 149.265625 282.265625 C 149.601563 281.929688 149.789063 281.476563 149.789063 281 Z M 149.789063 281 "/>
<path style=" stroke:none;fill-rule:evenodd;fill:rgb(99.998474%,0%,0%);fill-opacity:0.6;" d="M 199.789063 280 C 199.789063 279.523438 199.601563 279.070313 199.265625 278.734375 C 198.929688 278.398438 198.476563 278.210938 198 278.210938 C 197.523438 278.210938 197.070313 278.398438 196.734375 278.734375 C 196.398438 279.070313 196.210938 279.523438 196.210938 280 C 196.210938 280.476563 196.398438 280.929688 196.734375 281.265625 C 197.070313 281.601563 197.523438 281.789063 198 281.789063 C 198.476563 281.789063 198.929688 281.601563 199.265625 281.265625 C 199.601563 280.929688 199.789063 280.476563 199.789063 280 Z M 199.789063 280 "/>
<path style=" stroke:none;fill-rule:evenodd;fill:rgb(99.998474%,0%,0%);fill-opacity:0.6;" d="M 158.789063 279 C 158.789063 278.523438 158.601563 278.070313 158.265625 277.734375 C 157.929688 277.398438 157.476563 277.210938 157 277.210938 C 156.523438 277.210938 156.070313 277.398438 155.734375 277.734375 C 155.398438 278.070313 155.210938 278.523438 155.210938 279 C 155.210938 279.476563 155.398438 279.929688 155.734375 280.265625 C 156.070313 280.601563 156.523438 280.789063 157 280.789063 C 157.476563 280.789063 157.929688 280.601563 158.265625 280.265625 C 158.601563 279.929688 158.789063 279.476563 158.789063 279 Z M 158.789063 279 "/>
<path style=" stroke:none;fill-rule:evenodd;fill:rgb(99.998474%,0%,0%);fill-opacity:0.6;" d="M 299.789063 275 C 299.789063 274.523438 299.601563 274.070313 299.265625 273.734375 C 298.929688 273.398438 298.476563 273.210938 298 273.210938 C 297.523438 273.210938 297.070313 273.398438 296.734375 273.734375 C 296.398438 274.070313 296.210938 274.523438 296.210938 275 C 296.210938 275.476563 296.398438 275.929688 296.734375 276.265625 C 297.070313 276.601563 297.523438 276.789063 298 276.789063 C 298.476563 276.789063 298.929688 276.601563 299.265625 276.265625 C 299.601563 275.929688 299.789063 275.476563 299.789063 275 Z M 299.789063 275 "/>
<path style=" stroke:none;fill-rule:evenodd;fill:rgb(99.998474%,0%,0%);fill-opacity:0.6;" d="M 91.789063 271 C 91.789063 270.523438 91.601563 270.070313 91.265625 269.734375 C 90.929688 269.398438 90.476563 269.210938 90 269.210938 C 89.523438 269.210938 89.070313 269.398438 88.734375 269.734375 C 88.398438 270.070313 88.210938 270.523438 88.210938 271 C 88.210938 271.476563 88.398438 271.929688 88.734375 272.265625 C 89.070313 272.601563 89.523438 272.789063 90 272.789063 C 90.476563 272.789063 90.929688 272.601563 91.265625 272.265625 C 91.601563 271.929688 91.789063 271.476563 91.789063 271 Z M 91.789063 271 "/>
<path style=" stroke:none;fill-rule:evenodd;fill:rgb(99.998474%,0%,0%);fill-opacity:0.6;" d="M 296.789063 251 C 296.789063 250.523438 296.601563 250.070313 296.265625 249.734375 C 295.929688 249.398438 295.476563 249.210938 295 249.210938 C 294.523438 249.210938 294.070313 249.398438 293.734375 249.734375 C 293.398438 250.070313 293.210938 250.523438 293.210938 251 C 293.210938 251.476563 293.398438 251.929688 293.734375 252.265625 C 294.070313 252.601563 294.523438 252.789063 295 252.789063 C 295.476563 252.789063 295.929688 252.601563 296.265625 252.265625 C 296.601563 251.929688 296.789063 251.476563 296.789063 251 Z M 296.789063 251 "/>
<path style=" stroke:none;fill-rule:evenodd;fill:rgb(99.998474%,0%,0%);fill-opacity:0.6;" d="M 294.789063 246 C 294.789063 245.523438 294.601563 245.070313 294.265625 244.734375 C 293.929688 244.398438 293.476563 244.210938 293 244.210938 C 292.523438 244.210938 292.070313 244.398438 291.734375 244.734375 C 291.398438 245.070313 291.210938 245.523438 291.210938 246 C 291.210938 246.476563 291.398438 246.929688 291.734375 247.265625 C 292.070313 247.601563 292.523438 247.789063 293 247.789063 C 293.476563 247.789063 293.929688 247.601563 294.265625 247.265625 C 294.601563 246.929688 294.789063 246.476563 294.789063 246 Z M 294.789063 246 "/>
<path style=" stroke:none;fill-rule:evenodd;fill:rgb(99.998474%,0%,0%);fill-opacity:0.6;" d="M 327.789063 240 C 327.789063 239.523438 327.601563 239.070313 327.265625 238.734375 C 326.929688 238.398438 326.476563 238.210938 326 238.210938 C 325.523438 238.210938 325.070313 238.398438 324.734375 238.734375 C 324.398438 239.070313 324.210938 239.523438 324.210938 240 C 324.210938 240.476563 324.398438 240.929688 324.734375 241.265625 C 325.070313 241.601563 325.523438 241.789063 326 241.789063 C 326.476563 241.789063 326.929688 241.601563 327.265625 241.265625 C 327.601563 240.929688 327.789063 240.476563 327.789063 240 Z M 327.789063 240 "/>
<path style=" stroke:none;fill-rule:evenodd;fill:rgb(99.998474%,0%,0%);fill-opacity:0.6;" d="M 335.789063 235 C 335.789063 234.523438 335.601563 234.070313 335.265625 233.734375 C 334.929688 233.398438 334.476563 233.210938 334 233.210938 C 333.523438 233.210938 333.070313 233.398438 332.734375 233.734375 C 332.398438 234.070313 332.210938 234.523438 332.210938 235 C 332.210938 235.476563 332.398438 235.929688 332.734375 236.265625 C 333.070313 236.601563 333.523438 236.789063 334 236.789063 C 334.476563 236.789063 334.929688 236.601563 335.265625 236.265625 C 335.601563 235.929688 335.789063 235.476563 335.789063 235 Z M 335.789063 235 "/>
<path style=" stroke:none;fill-rule:evenodd;fill:rgb(99.998474%,0%,0%);fill-opacity:0.6;" d="M 106.789063 231 C 106.789063 230.523438 106.601563 230.070313 106.265625 229.734375 C 105.929688 229.398438 105.476563 229.210938 105 229.210938 C 104.523438 229.210938 104.070313 229.398438 103.734375 229.734375 C 103.398438 230.070313 103.210938 230.523438 103.210938 231 C 103.210938 231.476563 103.398438 231.929688 103.734375 232.265625 C 104.070313 232.601563 104.523438 232.789063 105 232.789063 C 105.476563 232.789063 105.929688 232.601563 106.265625 232.265625 C 106.601563 231.929688 106.789063 231.476563 106.789063 231 Z M 106.789063 231 "/>
<path style=" stroke:none;fill-rule:evenodd;fill:rgb(99.998474%,0%,0%);fill-opacity:0.6;" d="M 52.789063 197 C 52.789063 196.523438 52.601563 196.070313 52.265625 195.734375 C 51.929688 195.398438 51.476563 195.210938 51 195.210938 C 50.523438 195.210938 50.070313 195.398438 49.734375 195.734375 C 49.398438 196.070313 49.210938 196.523438 49.210938 197 C 49.210938 197.476563 49.398438 197.929688 49.734375 198.265625 C 50.070313 198.601563 50.523438 198.789063 51 198.789063 C 51.476563 198.789063 51.929688 198.601563 52.265625 198.265625 C 52.601563 197.929688 52.789063 197.476563 52.789063 197 Z M 52.789063 197 "/>
<path style=" stroke:none;fill-rule:evenodd;fill:rgb(99.998474%,0%,0%);fill-opacity:0.6;" d="M 320.789063 194 C 320.789063 193.523438 320.601563 193.070313 320.265625 192.734375 C 319.929688 192.398438 319.476563 192.210938 319 192.210938 C 318.523438 192.210938 318.070313 192.398438 317.734375 192.734375 C 317.398438 193.070313 317.210938 193.523438 317.210938 194 C 317.210938 194.476563 317.398438 194.929688 317.734375 195.265625 C 318.070313 195.601563 318.523438 195.789063 319 195.789063 C 319.476563 195.789063 319.929688 195.601563 320.265625 195.265625 C 320.601563 194.929688 320.789063 194.476563 320.789063 194 Z M 320.789063 194 "/>
<path style=" stroke:none;fill-rule:evenodd;fill:rgb(99.998474%,0%,0%);fill-opacity:0.6;" d="M 92.789063 192 C 92.789063 191.523438 92.601563 191.070313 92.265625 190.734375 C 91.929688 190.398438 91.476563 190.210938 91 190.210938 C 90.523438 190.210938 90.070313 190.398438 89.734375 190.734375 C 89.398438 191.070313 89.210938 191.523438 89.210938 192 C 89.210938 192.476563 89.398438 192.929688 89.734375 193.265625 C 90.070313 193.601563 90.523438 193.789063 91 193.789063 C 91.476563 193.789063 91.929688 193.601563 92.265625 193.265625 C 92.601563 192.929688 92.789063 192.476563 92.789063 192 Z M 92.789063 192 "/>
<path style=" stroke:none;fill-rule:evenodd;fill:rgb(99.998474%,0%,0%);fill-opacity:0.6;" d="M 95.789063 191 C 95.789063 190.523438 95.601563 190.070313 95.265625 189.734375 C 94.929688 189.398438 94.476563 189.210938 94 189.210938 C 93.523438 189.210938 93.070313 189.398438 92.734375 189.734375 C 92.398438 190.070313 92.210938 190.523438 92.210938 191 C 92.210938 191.476563 92.398438 191.929688 92.734375 192.265625 C 93.070313 192.601563 93.523438 192.789063 94 192.789063 C 94.476563 192.789063 94.929688 192.601563 95.265625 192.265625 C 95.601563 191.929688 95.789063 191.476563 95.789063 191 Z M 95.789063 191 "/>
<path style=" stroke:none;fill-rule:evenodd;fill:rgb(99.998474%,0%,0%);fill-opacity:0.6;" d="M 200.789063 186 C 200.789063 185.523438 200.601563 185.070313 200.265625 184.734375 C 199.929688 184.398438 199.476563 184.210938 199 184.210938 C 198.523438 184.210938 198.070313 184.398438 197.734375 184.734375 C 197.398438 185.070313 197.210938 185.523438 197.210938 186 C 197.210938 186.476563 197.398438 186.929688 197.734375 187.265625 C 198.070313 187.601563 198.523438 187.789063 199 187.789063 C 199.476563 187.789063 199.929688 187.601563 200.265625 187.265625 C 200.601563 186.929688 200.789063 186.476563 200.789063 186 Z M 200.789063 186 "/>
<path style=" stroke:none;fill-rule:evenodd;fill:rgb(99.998474%,0%,0%);fill-opacity:0.6;" d="M 96.789063 180 C 96.789063 179.523438 96.601563 179.070313 96.265625 178.734375 C 95.929688 178.398438 95.476563 178.210938 95 178.210938 C 94.523438 178.210938 94.070313 178.398438 93.734375 178.734375 C 93.398438 179.070313 93.210938 179.523438 93.210938 180 C 93.210938 180.476563 93.398438 180.929688 93.734375 181.265625 C 94.070313 181.601563 94.523438 181.789063 95 181.789063 C 95.476563 181.789063 95.929688 181.601563 96.265625 181.265625 C 96.601563 180.929688 96.789063 180.476563 96.789063 180 Z M 96.789063 180 "/>
<path style=" stroke:none;fill-rule:evenodd;fill:rgb(99.998474%,0%,0%);fill-opacity:0.6;" d="M 23.789063 178 C 23.789063 177.523438 23.601563 177.070313 23.265625 176.734375 C 22.929688 176.398438 22.476563 176.210938 22 176.210938 C 21.523438 176.210938 21.070313 176.398438 20.734375 176.734375 C 20.398438 177.070313 20.210938 177.523438 20.210938 178 C 20.210938 178.476563 20.398438 178.929688 20.734375 179.265625 C 21.070313 179.601563 21.523438 179.789063 22 179.789063 C 22.476563 179.789063 22.929688 179.601563 23.265625 179.265625 C 23.601563 178.929688 23.789063 178.476563 23.789063 178 Z M 23.789063 178 "/>
<path style=" stroke:none;fill-rule:evenodd;fill:rgb(99.998474%,0%,0%);fill-opacity:0.6;" d="M 65.789063 172 C 65.789063 171.523438 65.601563 171.070313 65.265625 170.734375 C 64.929688 170.398438 64.476563 170.210938 64 170.210938 C 63.523438 170.210938 63.070313 170.398438 62.734375 170.734375 C 62.398438 171.070313 62.210938 171.523438 62.210938 172 C 62.210938 172.476563 62.398438 172.929688 62.734375 173.265625 C 63.070313 173.601563 63.523438 173.789063 64 173.789063 C 64.476563 173.789063 64.929688 173.601563 65.265625 173.265625 C 65.601563 172.929688 65.789063 172.476563 65.789063 172 Z M 65.789063 172 "/>
<path style=" stroke:none;fill-rule:evenodd;fill:rgb(99.998474%,0%,0%);fill-opacity:0.6;" d="M 257.789063 166 C 257.789063 165.523438 257.601563 165.070313 257.265625 164.734375 C 256.929688 164.398438 256.476563 164.210938 256 164.210938 C 255.523438 164.210938 255.070313 164.398438 254.734375 164.734375 C 254.398438 165.070313 254.210938 165.523438 254.210938 166 C 254.210938 166.476563 254.398438 166.929688 254.734375 167.265625 C 255.070313 167.601563 255.523438 167.789063 256 167.789063 C 256.476563 167.789063 256.929688 167.601563 257.265625 167.265625 C 257.601563 166.929688 257.789063 166.476563 257.789063 166 Z M 257.789063 166 "/>
<path style=" stroke:none;fill-rule:evenodd;fill:rgb(99.998474%,0%,0%);fill-opacity:0.6;" d="M 49.789063 158 C 49.789063 157.523438 49.601563 157.070313 49.265625 156.734375 C 48.929688 156.398438 48.476563 156.210938 48 156.210938 C 47.523438 156.210938 47.070313 156.398438 46.734375 156.734375 C 46.398438 157.070313 46.210938 157.523438 46.210938 158 C 46.210938 158.476563 46.398438 158.929688 46.734375 159.265625 C 47.070313 159.601563 47.523438 159.789063 48 159.789063 C 48.476563 159.789063 48.929688 159.601563 49.265625 159.265625 C 49.601563 158.929688 49.789063 158.476563 49.789063 158 Z M 49.789063 158 "/>
<path style=" stroke:none;fill-rule:evenodd;fill:rgb(99.998474%,0%,0%);fill-opacity:0.6;" d="M 280.789063 146 C 280.789063 145.523438 280.601563 145.070313 280.265625 144.734375 C 279.929688 144.398438 279.476563 144.210938 279 144.210938 C 278.523438 144.210938 278.070313 144.398438 277.734375 144.734375 C 277.398438 145.070313 277.210938 145.523438 277.210938 146 C 277.210938 146.476563 277.398438 146.929688 277.734375 147.265625 C 278.070313 147.601563 278.523438 147.789063 279 147.789063 C 279.476563 147.789063 279.929688 147.601563 280.265625 147.265625 C 280.601563 146.929688 280.789063 146.476563 280.789063 146 Z M 280.789063 146 "/>
<path style=" stroke:none;fill-rule:evenodd;fill:rgb(99.998474%,0%,0%);fill-opacity:0.6;" d="M 280.789063 146 C 280.789063 145.523438 280.601563 145.070313 280.265625 144.734375 C 279.929688 144.398438 279.476563 144.210938 279 144.210938 C 278.523438 144.210938 278.070313 144.398438 277.734375 144.734375 C 277.398438 145.070313 277.210938 145.523438 277.210938 146 C 277.210938 146.476563 277.398438 146.929688 277.734375 147.265625 C 278.070313 147.601563 278.523438 147.789063 279 147.789063 C 279.476563 147.789063 279.929688 147.601563 280.265625 147.265625 C 280.601563 146.929688 280.789063 146.476563 280.789063 146 Z M 280.789063 146 "/>
<path style=" stroke:none;fill-rule:evenodd;fill:rgb(99.998474%,0%,0%);fill-opacity:0.6;" d="M 335.789063 122 C 335.789063 121.523438 335.601563 121.070313 335.265625 120.734375 C 334.929688 120.398438 334.476563 120.210938 334 120.210938 C 333.523438 120.210938 333.070313 120.398438 332.734375 120.734375 C 332.398438 121.070313 332.210938 121.523438 332.210938 122 C 332.210938 122.476563 332.398438 122.929688 332.734375 123.265625 C 333.070313 123.601563 333.523438 123.789063 334 123.789063 C 334.476563 123.789063 334.929688 123.601563 335.265625 123.265625 C 335.601563 122.929688 335.789063 122.476563 335.789063 122 Z M 335.789063 122 "/>
<path style=" stroke:none;fill-rule:evenodd;fill:rgb(99.998474%,0%,0%);fill-opacity:0.6;" d="M 224.789063 120 C 224.789063 119.523438 224.601563 119.070313 224.265625 118.734375 C 223.929688 118.398438 223.476563 118.210938 223 118.210938 C 222.523438 118.210938 222.070313 118.398438 221.734375 118.734375 C 221.398438 119.070313 221.210938 119.523438 221.210938 120 C 221.210938 120.476563 221.398438 120.929688 221.734375 121.265625 C 222.070313 121.601563 222.523438 121.789063 223 121.789063 C 223.476563 121.789063 223.929688 121.601563 224.265625 121.265625 C 224.601563 120.929688 224.789063 120.476563 224.789063 120 Z M 224.789063 120 "/>
<path style=" stroke:none;fill-rule:evenodd;fill:rgb(99.998474%,0%,0%);fill-opacity:0.6;" d="M 97.789063 117 C 97.789063 116.523438 97.601563 116.070313 97.265625 115.734375 C 96.929688 115.398438 96.476563 115.210938 96 115.210938 C 95.523438 115.210938 95.070313 115.398438 94.734375 115.734375 C 94.398438 116.070313 94.210938 116.523438 94.210938 117 C 94.210938 117.476563 94.398438 117.929688 94.734375 118.265625 C 95.070313 118.601563 95.523438 118.789063 96 118.789063 C 96.476563 118.789063 96.929688 118.601563 97.265625 118.265625 C 97.601563 117.929688 97.789063 117.476563 97.789063 117 Z M 97.789063 117 "/>
<path style=" stroke:none;fill-rule:evenodd;fill:rgb(99.998474%,0%,0%);fill-opacity:0.6;" d="M 22.789063 112 C 22.789063 111.523438 22.601563 111.070313 22.265625 110.734375 C 21.929688 110.398438 21.476563 110.210938 21 110.210938 C 20.523438 110.210938 20.070313 110.398438 19.734375 110.734375 C 19.398438 111.070313 19.210938 111.523438 19.210938 112 C 19.210938 112.476563 19.398438 112.929688 19.734375 113.265625 C 20.070313 113.601563 20.523438 113.789063 21 113.789063 C 21.476563 113.789063 21.929688 113.601563 22.265625 113.265625 C 22.601563 112.929688 22.789063 112.476563 22.789063 112 Z M 22.789063 112 "/>
<path style=" stroke:none;fill-rule:evenodd;fill:rgb(99.998474%,0%,0%);fill-opacity:0.6;" d="M 23.789063 111 C 23.789063 110.523438 23.601563 110.070313 23.265625 109.734375 C 22.929688 109.398438 22.476563 109.210938 22 109.210938 C 21.523438 109.210938 21.070313 109.398438 20.734375 109.734375 C 20.398438 110.070313 20.210938 110.523438 20.210938 111 C 20.210938 111.476563 20.398438 111.929688 20.734375 112.265625 C 21.070313 112.601563 21.523438 112.789063 22 112.789063 C 22.476563 112.789063 22.929688 112.601563 23.265625 112.265625 C 23.601563 111.929688 23.789063 111.476563 23.789063 111 Z M 23.789063 111 "/>
<path style=" stroke:none;fill-rule:evenodd;fill:rgb(99.998474%,0%,0%);fill-opacity:0.6;" d="M 181.789063 103 C 181.789063 102.523438 181.601563 102.070313 181.265625 101.734375 C 180.929688 101.398438 180.476563 101.210938 180 101.210938 C 179.523438 101.210938 179.070313 101.398438 178.734375 101.734375 C 178.398438 102.070313 178.210938 102.523438 178.210938 103 C 178.210938 103.476563 178.398438 103.929688 178.734375 104.265625 C 179.070313 104.601563 179.523438 104.789063 180 104.789063 C 180.476563 104.789063 180.929688 104.601563 181.265625 104.265625 C 181.601563 103.929688 181.789063 103.476563 181.789063 103 Z M 181.789063 103 "/>
<path style=" stroke:none;fill-rule:evenodd;fill:rgb(99.998474%,0%,0%);fill-opacity:0.6;" d="M 259.789063 101 C 259.789063 100.523438 259.601563 100.070313 259.265625 99.734375 C 258.929688 99.398438 258.476563 99.210938 258 99.210938 C 257.523438 99.210938 257.070313 99.398438 256.734375 99.734375 C 256.398438 100.070313 256.210938 100.523438 256.210938 101 C 256.210938 101.476563 256.398438 101.929688 256.734375 102.265625 C 257.070313 102.601563 257.523438 102.789063 258 102.789063 C 258.476563 102.789063 258.929688 102.601563 259.265625 102.265625 C 259.601563 101.929688 259.789063 101.476563 259.789063 101 Z M 259.789063 101 "/>
<path style=" stroke:none;fill-rule:evenodd;fill:rgb(99.998474%,0%,0%);fill-opacity:0.6;" d="M 80.789063 97 C 80.789063 96.523438 80.601563 96.070313 80.265625 95.734375 C 79.929688 95.398438 79.476563 95.210938 79 95.210938 C 78.523438 95.210938 78.070313 95.398438 77.734375 95.734375 C 77.398438 96.070313 77.210938 96.523438 77.210938 97 C 77.210938 97.476563 77.398438 97.929688 77.734375 98.265625 C 78.070313 98.601563 78.523438 98.789063 79 98.789063 C 79.476563 98.789063 79.929688 98.601563 80.265625 98.265625 C 80.601563 97.929688 80.789063 97.476563 80.789063 97 Z M 80.789063 97 "/>
<path style=" stroke:none;fill-rule:evenodd;fill:rgb(99.998474%,0%,0%);fill-opacity:0.6;" d="M 207.789063 95 C 207.789063 94.523438 207.601563 94.070313 207.265625 93.734375 C 206.929688 93.398438 206.476563 93.210938 206 93.210938 C 205.523438 93.210938 205.070313 93.398438 204.734375 93.734375 C 204.398438 94.070313 204.210938 94.523438 204.210938 95 C 204.210938 95.476563 204.398438 95.929688 204.734375 96.265625 C 205.070313 96.601563 205.523438 96.789063 206 96.789063 C 206.476563 96.789063 206.929688 96.601563 207.265625 96.265625 C 207.601563 95.929688 207.789063 95.476563 207.789063 95 Z M 207.789063 95 "/>
<path style=" stroke:none;fill-rule:evenodd;fill:rgb(99.998474%,0%,0%);fill-opacity:0.6;" d="M 211.789063 91 C 211.789063 90.523438 211.601563 90.070313 211.265625 89.734375 C 210.929688 89.398438 210.476563 89.210938 210 89.210938 C 209.523438 89.210938 209.070313 89.398438 208.734375 89.734375 C 208.398438 90.070313 208.210938 90.523438 208.210938 91 C 208.210938 91.476563 208.398438 91.929688 208.734375 92.265625 C 209.070313 92.601563 209.523438 92.789063 210 92.789063 C 210.476563 92.789063 210.929688 92.601563 211.265625 92.265625 C 211.601563 91.929688 211.789063 91.476563 211.789063 91 Z M 211.789063 91 "/>
<path style=" stroke:none;fill-rule:evenodd;fill:rgb(99.998474%,0%,0%);fill-opacity:0.6;" d="M 85.789063 73 C 85.789063 72.523438 85.601563 72.070313 85.265625 71.734375 C 84.929688 71.398438 84.476563 71.210938 84 71.210938 C 83.523438 71.210938 83.070313 71.398438 82.734375 71.734375 C 82.398438 72.070313 82.210938 72.523438 82.210938 73 C 82.210938 73.476563 82.398438 73.929688 82.734375 74.265625 C 83.070313 74.601563 83.523438 74.789063 84 74.789063 C 84.476563 74.789063 84.929688 74.601563 85.265625 74.265625 C 85.601563 73.929688 85.789063 73.476563 85.789063 73 Z M 85.789063 73 "/>
<path style=" stroke:none;fill-rule:evenodd;fill:rgb(99.998474%,0%,0%);fill-opacity:0.6;" d="M 268.789063 33 C 268.789063 32.523438 268.601563 32.070313 268.265625 31.734375 C 267.929688 31.398438 267.476563 31.210938 267 31.210938 C 266.523438 31.210938 266.070313 31.398438 265.734375 31.734375 C 265.398438 32.070313 265.210938 32.523438 265.210938 33 C 265.210938 33.476563 265.398438 33.929688 265.734375 34.265625 C 266.070313 34.601563 266.523438 34.789063 267 34.789063 C 267.476563 34.789063 267.929688 34.601563 268.265625 34.265625 C 268.601563 33.929688 268.789063 33.476563 268.789063 33 Z M 268.789063 33 "/>
<path style=" stroke:none;fill-rule:evenodd;fill:rgb(99.998474%,0%,0%);fill-opacity:0.6;" d="M 306.789063 29 C 306.789063 28.523438 306.601563 28.070313 306.265625 27.734375 C 305.929688 27.398438 305.476563 27.210938 305 27.210938 C 304.523438 27.210938 304.070313 27.398438 303.734375 27.734375 C 303.398438 28.070313 303.210938 28.523438 303.210938 29 C 303.210938 29.476563 303.398438 29.929688 303.734375 30.265625 C 304.070313 30.601563 304.523438 30.789063 305 30.789063 C 305.476563 30.789063 305.929688 30.601563 306.265625 30.265625 C 306.601563 29.929688 306.789063 29.476563 306.789063 29 Z M 306.789063 29 "/>
<path style=" stroke:none;fill-rule:evenodd;fill:rgb(99.998474%,0%,0%);fill-opacity:0.6;" d="M 339.789063 19 C 339.789063 18.523438 339.601563 18.070313 339.265625 17.734375 C 338.929688 17.398438 338.476563 17.210938 338 17.210938 C 337.523438 17.210938 337.070313 17.398438 336.734375 17.734375 C 336.398438 18.070313 336.210938 18.523438 336.210938 19 C 336.210938 19.476563 336.398438 19.929688 336.734375 20.265625 C 337.070313 20.601563 337.523438 20.789063 338 20.789063 C 338.476563 20.789063 338.929688 20.601563 339.265625 20.265625 C 339.601563 19.929688 339.789063 19.476563 339.789063 19 Z M 339.789063 19 "/>
<path style=" stroke:none;fill-rule:evenodd;fill:rgb(99.998474%,0%,0%);fill-opacity:0.6;" d="M 226.789063 19 C 226.789063 18.523438 226.601563 18.070313 226.265625 17.734375 C 225.929688 17.398438 225.476563 17.210938 225 17.210938 C 224.523438 17.210938 224.070313 17.398438 223.734375 17.734375 C 223.398438 18.070313 223.210938 18.523438 223.210938 19 C 223.210938 19.476563 223.398438 19.929688 223.734375 20.265625 C 224.070313 20.601563 224.523438 20.789063 225 20.789063 C 225.476563 20.789063 225.929688 20.601563 226.265625 20.265625 C 226.601563 19.929688 226.789063 19.476563 226.789063 19 Z M 226.789063 19 "/>
<path style=" stroke:none;fill-rule:evenodd;fill:rgb(99.998474%,0%,0%);fill-opacity:0.6;" d="M 339.789063 19 C 339.789063 18.523438 339.601563 18.070313 339.265625 17.734375 C 338.929688 17.398438 338.476563 17.210938 338 17.210938 C 337.523438 17.210938 337.070313 17.398438 336.734375 17.734375 C 336.398438 18.070313 336.210938 18.523438 336.210938 19 C 336.210938 19.476563 336.398438 19.929688 336.734375 20.265625 C 337.070313 20.601563 337.523438 20.789063 338 20.789063 C 338.476563 20.789063 338.929688 20.601563 339.265625 20.265625 C 339.601563 19.929688 339.789063 19.476563 339.789063 19 Z M 339.789063 19 "/>
<path style=" stroke:none;fill-rule:evenodd;fill:rgb(99.998474%,0%,0%);fill-opacity:0.6;" d="M 154.789063 18 C 154.789063 17.523438 154.601563 17.070313 154.265625 16.734375 C 153.929688 16.398438 153.476563 16.210938 153 16.210938 C 152.523438 16.210938 152.070313 16.398438 151.734375 16.734375 C 151.398438 17.070313 151.210938 17.523438 151.210938 18 C 151.210938 18.476563 151.398438 18.929688 151.734375 19.265625 C 152.070313 19.601563 152.523438 19.789063 153 19.789063 C 153.476563 19.789063 153.929688 19.601563 154.265625 19.265625 C 154.601563 18.929688 154.789063 18.476563 154.789063 18 Z M 154.789063 18 "/>
<path style=" stroke:none;fill-rule:evenodd;fill:rgb(99.998474%,0%,0%);fill-opacity:0.6;" d="M 152.789063 18 C 152.789063 17.523438 152.601563 17.070313 152.265625 16.734375 C 151.929688 16.398438 151.476563 16.210938 151 16.210938 C 150.523438 16.210938 150.070313 16.398438 149.734375 16.734375 C 149.398438 17.070313 149.210938 17.523438 149.210938 18 C 149.210938 18.476563 149.398438 18.929688 149.734375 19.265625 C 150.070313 19.601563 150.523438 19.789063 151 19.789063 C 151.476563 19.789063 151.929688 19.601563 152.265625 19.265625 C 152.601563 18.929688 152.789063 18.476563 152.789063 18 Z M 152.789063 18 "/>
<path style=" stroke:none;fill-rule:evenodd;fill:rgb(99.998474%,0%,0%);fill-opacity:0.6;" d="M 227.789063 17 C 227.789063 16.523438 227.601563 16.070313 227.265625 15.734375 C 226.929688 15.398438 226.476563 15.210938 226 15.210938 C 225.523438 15.210938 225.070313 15.398438 224.734375 15.734375 C 224.398438 16.070313 224.210938 16.523438 224.210938 17 C 224.210938 17.476563 224.398438 17.929688 224.734375 18.265625 C 225.070313 18.601563 225.523438 18.789063 226 18.789063 C 226.476563 18.789063 226.929688 18.601563 227.265625 18.265625 C 227.601563 17.929688 227.789063 17.476563 227.789063 17 Z M 227.789063 17 "/>
<path style=" stroke:none;fill-rule:evenodd;fill:rgb(99.998474%,0%,0%);fill-opacity:1;" d="M 226.5 302 C 226.5 301.601563 226.34375 301.21875 226.0625 300.9375 C 225.78125 300.65625 225.398438 300.5 225 300.5 C 224.601563 300.5 224.21875 300.65625 223.9375 300.9375 C 223.65625 301.21875 223.5 301.601563 223.5 302 C 223.5 302.398438 223.65625 302.78125 223.9375 303.0625 C 224.21875 303.34375 224.601563 303.5 225 303.5 C 225.398438 303.5 225.78125 303.34375 226.0625 303.0625 C 226.34375 302.78125 226.5 302.398438 226.5 302 Z M 226.5 302 "/>
<path style=" stroke:none;fill-rule:evenodd;fill:rgb(99.998474%,0%,0%);fill-opacity:1;" d="M 77.5 297 C 77.5 296.601563 77.34375 296.21875 77.0625 295.9375 C 76.78125 295.65625 76.398438 295.5 76 295.5 C 75.601563 295.5 75.21875 295.65625 74.9375 295.9375 C 74.65625 296.21875 74.5 296.601563 74.5 297 C 74.5 297.398438 74.65625 297.78125 74.9375 298.0625 C 75.21875 298.34375 75.601563 298.5 76 298.5 C 76.398438 298.5 76.78125 298.34375 77.0625 298.0625 C 77.34375 297.78125 77.5 297.398438 77.5 297 Z M 77.5 297 "/>
<path style=" stroke:none;fill-rule:evenodd;fill:rgb(99.998474%,0%,0%);fill-opacity:1;" d="M 77.5 297 C 77.5 296.601563 77.34375 296.21875 77.0625 295.9375 C 76.78125 295.65625 76.398438 295.5 76 295.5 C 75.601563 295.5 75.21875 295.65625 74.9375 295.9375 C 74.65625 296.21875 74.5 296.601563 74.5 297 C 74.5 297.398438 74.65625 297.78125 74.9375 298.0625 C 75.21875 298.34375 75.601563 298.5 76 298.5 C 76.398438 298.5 76.78125 298.34375 77.0625 298.0625 C 77.34375 297.78125 77.5 297.398438 77.5 297 Z M 77.5 297 "/>
<path style=" stroke:none;fill-rule:evenodd;fill:rgb(99.998474%,0%,0%);fill-opacity:1;" d="M 174.5 289 C 174.5 288.601563 174.34375 288.21875 174.0625 287.9375 C 173.78125 287.65625 173.398438 287.5 173 287.5 C 172.601563 287.5 172.21875 287.65625 171.9375 287.9375 C 171.65625 288.21875 171.5 288.601563 171.5 289 C 171.5 289.398438 171.65625 289.78125 171.9375 290.0625 C 172.21875 290.34375 172.601563 290.5 173 290.5 C 173.398438 290.5 173.78125 290.34375 174.0625 290.0625 C 174.34375 289.78125 174.5 289.398438 174.5 289 Z M 174.5 289 "/>
<path style=" stroke:none;fill-rule:evenodd;fill:rgb(99.998474%,0%,0%);fill-opacity:1;" d="M 121.5 286 C 121.5 285.601563 121.34375 285.21875 121.0625 284.9375 C 120.78125 284.65625 120.398438 284.5 120 284.5 C 119.601563 284.5 119.21875 284.65625 118.9375 284.9375 C 118.65625 285.21875 118.5 285.601563 118.5 286 C 118.5 286.398438 118.65625 286.78125 118.9375 287.0625 C 119.21875 287.34375 119.601563 287.5 120 287.5 C 120.398438 287.5 120.78125 287.34375 121.0625 287.0625 C 121.34375 286.78125 121.5 286.398438 121.5 286 Z M 121.5 286 "/>
<path style=" stroke:none;fill-rule:evenodd;fill:rgb(99.998474%,0%,0%);fill-opacity:1;" d="M 148.5 281 C 148.5 280.601563 148.34375 280.21875 148.0625 279.9375 C 147.78125 279.65625 147.398438 279.5 147 279.5 C 146.601563 279.5 146.21875 279.65625 145.9375 279.9375 C 145.65625 280.21875 145.5 280.601563 145.5 281 C 145.5 281.398438 145.65625 281.78125 145.9375 282.0625 C 146.21875 282.34375 146.601563 282.5 147 282.5 C 147.398438 282.5 147.78125 282.34375 148.0625 282.0625 C 148.34375 281.78125 148.5 281.398438 148.5 281 Z M 148.5 281 "/>
<path style=" stroke:none;fill-rule:evenodd;fill:rgb(99.998474%,0%,0%);fill-opacity:1;" d="M 149.5 281 C 149.5 280.601563 149.34375 280.21875 149.0625 279.9375 C 148.78125 279.65625 148.398438 279.5 148 279.5 C 147.601563 279.5 147.21875 279.65625 146.9375 279.9375 C 146.65625 280.21875 146.5 280.601563 146.5 281 C 146.5 281.398438 146.65625 281.78125 146.9375 282.0625 C 147.21875 282.34375 147.601563 282.5 148 282.5 C 148.398438 282.5 148.78125 282.34375 149.0625 282.0625 C 149.34375 281.78125 149.5 281.398438 149.5 281 Z M 149.5 281 "/>
<path style=" stroke:none;fill-rule:evenodd;fill:rgb(99.998474%,0%,0%);fill-opacity:1;" d="M 199.5 280 C 199.5 279.601563 199.34375 279.21875 199.0625 278.9375 C 198.78125 278.65625 198.398438 278.5 198 278.5 C 197.601563 278.5 197.21875 278.65625 196.9375 278.9375 C 196.65625 279.21875 196.5 279.601563 196.5 280 C 196.5 280.398438 196.65625 280.78125 196.9375 281.0625 C 197.21875 281.34375 197.601563 281.5 198 281.5 C 198.398438 281.5 198.78125 281.34375 199.0625 281.0625 C 199.34375 280.78125 199.5 280.398438 199.5 280 Z M 199.5 280 "/>
<path style=" stroke:none;fill-rule:evenodd;fill:rgb(99.998474%,0%,0%);fill-opacity:1;" d="M 158.5 279 C 158.5 278.601563 158.34375 278.21875 158.0625 277.9375 C 157.78125 277.65625 157.398438 277.5 157 277.5 C 156.601563 277.5 156.21875 277.65625 155.9375 277.9375 C 155.65625 278.21875 155.5 278.601563 155.5 279 C 155.5 279.398438 155.65625 279.78125 155.9375 280.0625 C 156.21875 280.34375 156.601563 280.5 157 280.5 C 157.398438 280.5 157.78125 280.34375 158.0625 280.0625 C 158.34375 279.78125 158.5 279.398438 158.5 279 Z M 158.5 279 "/>
<path style=" stroke:none;fill-rule:evenodd;fill:rgb(99.998474%,0%,0%);fill-opacity:1;" d="M 299.5 275 C 299.5 274.601563 299.34375 274.21875 299.0625 273.9375 C 298.78125 273.65625 298.398438 273.5 298 273.5 C 297.601563 273.5 297.21875 273.65625 296.9375 273.9375 C 296.65625 274.21875 296.5 274.601563 296.5 275 C 296.5 275.398438 296.65625 275.78125 296.9375 276.0625 C 297.21875 276.34375 297.601563 276.5 298 276.5 C 298.398438 276.5 298.78125 276.34375 299.0625 276.0625 C 299.34375 275.78125 299.5 275.398438 299.5 275 Z M 299.5 275 "/>
<path style=" stroke:none;fill-rule:evenodd;fill:rgb(99.998474%,0%,0%);fill-opacity:1;" d="M 91.5 271 C 91.5 270.601563 91.34375 270.21875 91.0625 269.9375 C 90.78125 269.65625 90.398438 269.5 90 269.5 C 89.601563 269.5 89.21875 269.65625 88.9375 269.9375 C 88.65625 270.21875 88.5 270.601563 88.5 271 C 88.5 271.398438 88.65625 271.78125 88.9375 272.0625 C 89.21875 272.34375 89.601563 272.5 90 272.5 C 90.398438 272.5 90.78125 272.34375 91.0625 272.0625 C 91.34375 271.78125 91.5 271.398438 91.5 271 Z M 91.5 271 "/>
<path style=" stroke:none;fill-rule:evenodd;fill:rgb(99.998474%,0%,0%);fill-opacity:1;" d="M 296.5 251 C 296.5 250.601563 296.34375 250.21875 296.0625 249.9375 C 295.78125 249.65625 295.398438 249.5 295 249.5 C 294.601563 249.5 294.21875 249.65625 293.9375 249.9375 C 293.65625 250.21875 293.5 250.601563 293.5 251 C 293.5 251.398438 293.65625 251.78125 293.9375 252.0625 C 294.21875 252.34375 294.601563 252.5 295 252.5 C 295.398438 252.5 295.78125 252.34375 296.0625 252.0625 C 296.34375 251.78125 296.5 251.398438 296.5 251 Z M 296.5 251 "/>
<path style=" stroke:none;fill-rule:evenodd;fill:rgb(99.998474%,0%,0%);fill-opacity:1;" d="M 294.5 246 C 294.5 245.601563 294.34375 245.21875 294.0625 244.9375 C 293.78125 244.65625 293.398438 244.5 293 244.5 C 292.601563 244.5 292.21875 244.65625 291.9375 244.9375 C 291.65625 245.21875 291.5 245.601563 291.5 246 C 291.5 246.398438 291.65625 246.78125 291.9375 247.0625 C 292.21875 247.34375 292.601563 247.5 293 247.5 C 293.398438 247.5 293.78125 247.34375 294.0625 247.0625 C 294.34375 246.78125 294.5 246.398438 294.5 246 Z M 294.5 246 "/>
<path style=" stroke:none;fill-rule:evenodd;fill:rgb(99.998474%,0%,0%);fill-opacity:1;" d="M 327.5 240 C 327.5 239.601563 327.34375 239.21875 327.0625 238.9375 C 326.78125 238.65625 326.398438 238.5 326 238.5 C 325.601563 238.5 325.21875 238.65625 324.9375 238.9375 C 324.65625 239.21875 324.5 239.601563 324.5 240 C 324.5 240.398438 324.65625 240.78125 324.9375 241.0625 C 325.21875 241.34375 325.601563 241.5 326 241.5 C 326.398438 241.5 326.78125 241.34375 327.0625 241.0625 C 327.34375 240.78125 327.5 240.398438 327.5 240 Z M 327.5 240 "/>
<path style=" stroke:none;fill-rule:evenodd;fill:rgb(99.998474%,0%,0%);fill-opacity:1;" d="M 335.5 235 C 335.5 234.601563 335.34375 234.21875 335.0625 233.9375 C 334.78125 233.65625 334.398438 233.5 334 233.5 C 333.601563 233.5 333.21875 233.65625 332.9375 233.9375 C 332.65625 234.21875 332.5 234.601563 332.5 235 C 332.5 235.398438 332.65625 235.78125 332.9375 236.0625 C 333.21875 236.34375 333.601563 236.5 334 236.5 C 334.398438 236.5 334.78125 236.34375 335.0625 236.0625 C 335.34375 235.78125 335.5 235.398438 335.5 235 Z M 335.5 235 "/>
<path style=" stroke:none;fill-rule:evenodd;fill:rgb(99.998474%,0%,0%);fill-opacity:1;" d="M 106.5 231 C 106.5 230.601563 106.34375 230.21875 106.0625 229.9375 C 105.78125 229.65625 105.398438 229.5 105 229.5 C 104.601563 229.5 104.21875 229.65625 103.9375 229.9375 C 103.65625 230.21875 103.5 230.601563 103.5 231 C 103.5 231.398438 103.65625 231.78125 103.9375 232.0625 C 104.21875 232.34375 104.601563 232.5 105 232.5 C 105.398438 232.5 105.78125 232.34375 106.0625 232.0625 C 106.34375 231.78125 106.5 231.398438 106.5 231 Z M 106.5 231 "/>
<path style=" stroke:none;fill-rule:evenodd;fill:rgb(99.998474%,0%,0%);fill-opacity:1;" d="M 52.5 197 C 52.5 196.601563 52.34375 196.21875 52.0625 195.9375 C 51.78125 195.65625 51.398438 195.5 51 195.5 C 50.601563 195.5 50.21875 195.65625 49.9375 195.9375 C 49.65625 196.21875 49.5 196.601563 49.5 197 C 49.5 197.398438 49.65625 197.78125 49.9375 198.0625 C 50.21875 198.34375 50.601563 198.5 51 198.5 C 51.398438 198.5 51.78125 198.34375 52.0625 198.0625 C 52.34375 197.78125 52.5 197.398438 52.5 197 Z M 52.5 197 "/>
<path style=" stroke:none;fill-rule:evenodd;fill:rgb(99.998474%,0%,0%);fill-opacity:1;" d="M 320.5 194 C 320.5 193.601563 320.34375 193.21875 320.0625 192.9375 C 319.78125 192.65625 319.398438 192.5 319 192.5 C 318.601563 192.5 318.21875 192.65625 317.9375 192.9375 C 317.65625 193.21875 317.5 193.601563 317.5 194 C 317.5 194.398438 317.65625 194.78125 317.9375 195.0625 C 318.21875 195.34375 318.601563 195.5 319 195.5 C 319.398438 195.5 319.78125 195.34375 320.0625 195.0625 C 320.34375 194.78125 320.5 194.398438 320.5 194 Z M 320.5 194 "/>
<path style=" stroke:none;fill-rule:evenodd;fill:rgb(99.998474%,0%,0%);fill-opacity:1;" d="M 92.5 192 C 92.5 191.601563 92.34375 191.21875 92.0625 190.9375 C 91.78125 190.65625 91.398438 190.5 91 190.5 C 90.601563 190.5 90.21875 190.65625 89.9375 190.9375 C 89.65625 191.21875 89.5 191.601563 89.5 192 C 89.5 192.398438 89.65625 192.78125 89.9375 193.0625 C 90.21875 193.34375 90.601563 193.5 91 193.5 C 91.398438 193.5 91.78125 193.34375 92.0625 193.0625 C 92.34375 192.78125 92.5 192.398438 92.5 192 Z M 92.5 192 "/>
<path style=" stroke:none;fill-rule:evenodd;fill:rgb(99.998474%,0%,0%);fill-opacity:1;" d="M 95.5 191 C 95.5 190.601563 95.34375 190.21875 95.0625 189.9375 C 94.78125 189.65625 94.398438 189.5 94 189.5 C 93.601563 189.5 93.21875 189.65625 92.9375 189.9375 C 92.65625 190.21875 92.5 190.601563 92.5 191 C 92.5 191.398438 92.65625 191.78125 92.9375 192.0625 C 93.21875 192.34375 93.601563 192.5 94 192.5 C 94.398438 192.5 94.78125 192.34375 95.0625 192.0625 C 95.34375 191.78125 95.5 191.398438 95.5 191 Z M 95.5 191 "/>
<path style=" stroke:none;fill-rule:evenodd;fill:rgb(99.998474%,0%,0%);fill-opacity:1;" d="M 200.5 186 C 200.5 185.601563 200.34375 185.21875 200.0625 184.9375 C 199.78125 184.65625 199.398438 184.5 199 184.5 C 198.601563 184.5 198.21875 184.65625 197.9375 184.9375 C 197.65625 185.21875 197.5 185.601563 197.5 186 C 197.5 186.398438 197.65625 186.78125 197.9375 187.0625 C 198.21875 187.34375 198.601563 187.5 199 187.5 C 199.398438 187.5 199.78125 187.34375 200.0625 187.0625 C 200.34375 186.78125 200.5 186.398438 200.5 186 Z M 200.5 186 "/>
<path style=" stroke:none;fill-rule:evenodd;fill:rgb(99.998474%,0%,0%);fill-opacity:1;" d="M 96.5 180 C 96.5 179.601563 96.34375 179.21875 96.0625 178.9375 C 95.78125 178.65625 95.398438 178.5 95 178.5 C 94.601563 178.5 94.21875 178.65625 93.9375 178.9375 C 93.65625 179.21875 93.5 179.601563 93.5 180 C 93.5 180.398438 93.65625 180.78125 93.9375 181.0625 C 94.21875 181.34375 94.601563 181.5 95 181.5 C 95.398438 181.5 95.78125 181.34375 96.0625 181.0625 C 96.34375 180.78125 96.5 180.398438 96.5 180 Z M 96.5 180 "/>
<path style=" stroke:none;fill-rule:evenodd;fill:rgb(99.998474%,0%,0%);fill-opacity:1;" d="M 23.5 178 C 23.5 177.601563 23.34375 177.21875 23.0625 176.9375 C 22.78125 176.65625 22.398438 176.5 22 176.5 C 21.601563 176.5 21.21875 176.65625 20.9375 176.9375 C 20.65625 177.21875 20.5 177.601563 20.5 178 C 20.5 178.398438 20.65625 178.78125 20.9375 179.0625 C 21.21875 179.34375 21.601563 179.5 22 179.5 C 22.398438 179.5 22.78125 179.34375 23.0625 179.0625 C 23.34375 178.78125 23.5 178.398438 23.5 178 Z M 23.5 178 "/>
<path style=" stroke:none;fill-rule:evenodd;fill:rgb(99.998474%,0%,0%);fill-opacity:1;" d="M 65.5 172 C 65.5 171.601563 65.34375 171.21875 65.0625 170.9375 C 64.78125 170.65625 64.398438 170.5 64 170.5 C 63.601563 170.5 63.21875 170.65625 62.9375 170.9375 C 62.65625 171.21875 62.5 171.601563 62.5 172 C 62.5 172.398438 62.65625 172.78125 62.9375 173.0625 C 63.21875 173.34375 63.601563 173.5 64 173.5 C 64.398438 173.5 64.78125 173.34375 65.0625 173.0625 C 65.34375 172.78125 65.5 172.398438 65.5 172 Z M 65.5 172 "/>
<path style=" stroke:none;fill-rule:evenodd;fill:rgb(99.998474%,0%,0%);fill-opacity:1;" d="M 257.5 166 C 257.5 165.601563 257.34375 165.21875 257.0625 164.9375 C 256.78125 164.65625 256.398438 164.5 256 164.5 C 255.601563 164.5 255.21875 164.65625 254.9375 164.9375 C 254.65625 165.21875 254.5 165.601563 254.5 166 C 254.5 166.398438 254.65625 166.78125 254.9375 167.0625 C 255.21875 167.34375 255.601563 167.5 256 167.5 C 256.398438 167.5 256.78125 167.34375 257.0625 167.0625 C 257.34375 166.78125 257.5 166.398438 257.5 166 Z M 257.5 166 "/>
<path style=" stroke:none;fill-rule:evenodd;fill:rgb(99.998474%,0%,0%);fill-opacity:1;" d="M 49.5 158 C 49.5 157.601563 49.34375 157.21875 49.0625 156.9375 C 48.78125 156.65625 48.398438 156.5 48 156.5 C 47.601563 156.5 47.21875 156.65625 46.9375 156.9375 C 46.65625 157.21875 46.5 157.601563 46.5 158 C 46.5 158.398438 46.65625 158.78125 46.9375 159.0625 C 47.21875 159.34375 47.601563 159.5 48 159.5 C 48.398438 159.5 48.78125 159.34375 49.0625 159.0625 C 49.34375 158.78125 49.5 158.398438 49.5 158 Z M 49.5 158 "/>
<path style=" stroke:none;fill-rule:evenodd;fill:rgb(99.998474%,0%,0%);fill-opacity:1;" d="M 280.5 146 C 280.5 145.601563 280.34375 145.21875 280.0625 144.9375 C 279.78125 144.65625 279.398438 144.5 279 144.5 C 278.601563 144.5 278.21875 144.65625 277.9375 144.9375 C 277.65625 145.21875 277.5 145.601563 277.5 146 C 277.5 146.398438 277.65625 146.78125 277.9375 147.0625 C 278.21875 147.34375 278.601563 147.5 279 147.5 C 279.398438 147.5 279.78125 147.34375 280.0625 147.0625 C 280.34375 146.78125 280.5 146.398438 280.5 146 Z M 280.5 146 "/>
<path style=" stroke:none;fill-rule:evenodd;fill:rgb(99.998474%,0%,0%);fill-opacity:1;" d="M 280.5 146 C 280.5 145.601563 280.34375 145.21875 280.0625 144.9375 C 279.78125 144.65625 279.398438 144.5 279 144.5 C 278.601563 144.5 278.21875 144.65625 277.9375 144.9375 C 277.65625 145.21875 277.5 145.601563 277.5 146 C 277.5 146.398438 277.65625 146.78125 277.9375 147.0625 C 278.21875 147.34375 278.601563 147.5 279 147.5 C 279.398438 147.5 279.78125 147.34375 280.0625 147.0625 C 280.34375 146.78125 280.5 146.398438 280.5 146 Z M 280.5 146 "/>
<path style=" stroke:none;fill-rule:evenodd;fill:rgb(99.998474%,0%,0%);fill-opacity:1;" d="M 335.5 122 C 335.5 121.601563 335.34375 121.21875 335.0625 120.9375 C 334.78125 120.65625 334.398438 120.5 334 120.5 C 333.601563 120.5 333.21875 120.65625 332.9375 120.9375 C 332.65625 121.21875 332.5 121.601563 332.5 122 C 332.5 122.398438 332.65625 122.78125 332.9375 123.0625 C 333.21875 123.34375 333.601563 123.5 334 123.5 C 334.398438 123.5 334.78125 123.34375 335.0625 123.0625 C 335.34375 122.78125 335.5 122.398438 335.5 122 Z M 335.5 122 "/>
<path style=" stroke:none;fill-rule:evenodd;fill:rgb(99.998474%,0%,0%);fill-opacity:1;" d="M 224.5 120 C 224.5 119.601563 224.34375 119.21875 224.0625 118.9375 C 223.78125 118.65625 223.398438 118.5 223 118.5 C 222.601563 118.5 222.21875 118.65625 221.9375 118.9375 C 221.65625 119.21875 221.5 119.601563 221.5 120 C 221.5 120.398438 221.65625 120.78125 221.9375 121.0625 C 222.21875 121.34375 222.601563 121.5 223 121.5 C 223.398438 121.5 223.78125 121.34375 224.0625 121.0625 C 224.34375 120.78125 224.5 120.398438 224.5 120 Z M 224.5 120 "/>
<path style=" stroke:none;fill-rule:evenodd;fill:rgb(99.998474%,0%,0%);fill-opacity:1;" d="M 97.5 117 C 97.5 116.601563 97.34375 116.21875 97.0625 115.9375 C 96.78125 115.65625 96.398438 115.5 96 115.5 C 95.601563 115.5 95.21875 115.65625 94.9375 115.9375 C 94.65625 116.21875 94.5 116.601563 94.5 117 C 94.5 117.398438 94.65625 117.78125 94.9375 118.0625 C 95.21875 118.34375 95.601563 118.5 96 118.5 C 96.398438 118.5 96.78125 118.34375 97.0625 118.0625 C 97.34375 117.78125 97.5 117.398438 97.5 117 Z M 97.5 117 "/>
<path style=" stroke:none;fill-rule:evenodd;fill:rgb(99.998474%,0%,0%);fill-opacity:1;" d="M 22.5 112 C 22.5 111.601563 22.34375 111.21875 22.0625 110.9375 C 21.78125 110.65625 21.398438 110.5 21 110.5 C 20.601563 110.5 20.21875 110.65625 19.9375 110.9375 C 19.65625 111.21875 19.5 111.601563 19.5 112 C 19.5 112.398438 19.65625 112.78125 19.9375 113.0625 C 20.21875 113.34375 20.601563 113.5 21 113.5 C 21.398438 113.5 21.78125 113.34375 22.0625 113.0625 C 22.34375 112.78125 22.5 112.398438 22.5 112 Z M 22.5 112 "/>
<path style=" stroke:none;fill-rule:evenodd;fill:rgb(99.998474%,0%,0%);fill-opacity:1;" d="M 23.5 111 C 23.5 110.601563 23.34375 110.21875 23.0625 109.9375 C 22.78125 109.65625 22.398438 109.5 22 109.5 C 21.601563 109.5 21.21875 109.65625 20.9375 109.9375 C 20.65625 110.21875 20.5 110.601563 20.5 111 C 20.5 111.398438 20.65625 111.78125 20.9375 112.0625 C 21.21875 112.34375 21.601563 112.5 22 112.5 C 22.398438 112.5 22.78125 112.34375 23.0625 112.0625 C 23.34375 111.78125 23.5 111.398438 23.5 111 Z M 23.5 111 "/>
<path style=" stroke:none;fill-rule:evenodd;fill:rgb(99.998474%,0%,0%);fill-opacity:1;" d="M 181.5 103 C 181.5 102.601563 181.34375 102.21875 181.0625 101.9375 C 180.78125 101.65625 180.398438 101.5 180 101.5 C 179.601563 101.5 179.21875 101.65625 178.9375 101.9375 C 178.65625 102.21875 178.5 102.601563 178.5 103 C 178.5 103.398438 178.65625 103.78125 178.9375 104.0625 C 179.21875 104.34375 179.601563 104.5 180 104.5 C 180.398438 104.5 180.78125 104.34375 181.0625 104.0625 C 181.34375 103.78125 181.5 103.398438 181.5 103 Z M 181.5 103 "/>
<path style=" stroke:none;fill-rule:evenodd;fill:rgb(99.998474%,0%,0%);fill-opacity:1;" d="M 259.5 101 C 259.5 100.601563 259.34375 100.21875 259.0625 99.9375 C 258.78125 99.65625 258.398438 99.5 258 99.5 C 257.601563 99.5 257.21875 99.65625 256.9375 99.9375 C 256.65625 100.21875 256.5 100.601563 256.5 101 C 256.5 101.398438 256.65625 101.78125 256.9375 102.0625 C 257.21875 102.34375 257.601563 102.5 258 102.5 C 258.398438 102.5 258.78125 102.34375 259.0625 102.0625 C 259.34375 101.78125 259.5 101.398438 259.5 101 Z M 259.5 101 "/>
<path style=" stroke:none;fill-rule:evenodd;fill:rgb(99.998474%,0%,0%);fill-opacity:1;" d="M 80.5 97 C 80.5 96.601563 80.34375 96.21875 80.0625 95.9375 C 79.78125 95.65625 79.398438 95.5 79 95.5 C 78.601563 95.5 78.21875 95.65625 77.9375 95.9375 C 77.65625 96.21875 77.5 96.601563 77.5 97 C 77.5 97.398438 77.65625 97.78125 77.9375 98.0625 C 78.21875 98.34375 78.601563 98.5 79 98.5 C 79.398438 98.5 79.78125 98.34375 80.0625 98.0625 C 80.34375 97.78125 80.5 97.398438 80.5 97 Z M 80.5 97 "/>
<path style=" stroke:none;fill-rule:evenodd;fill:rgb(99.998474%,0%,0%);fill-opacity:1;" d="M 207.5 95 C 207.5 94.601563 207.34375 94.21875 207.0625 93.9375 C 206.78125 93.65625 206.398438 93.5 206 93.5 C 205.601563 93.5 205.21875 93.65625 204.9375 93.9375 C 204.65625 94.21875 204.5 94.601563 204.5 95 C 204.5 95.398438 204.65625 95.78125 204.9375 96.0625 C 205.21875 96.34375 205.601563 96.5 206 96.5 C 206.398438 96.5 206.78125 96.34375 207.0625 96.0625 C 207.34375 95.78125 207.5 95.398438 207.5 95 Z M 207.5 95 "/>
<path style=" stroke:none;fill-rule:evenodd;fill:rgb(99.998474%,0%,0%);fill-opacity:1;" d="M 211.5 91 C 211.5 90.601563 211.34375 90.21875 211.0625 89.9375 C 210.78125 89.65625 210.398438 89.5 210 89.5 C 209.601563 89.5 209.21875 89.65625 208.9375 89.9375 C 208.65625 90.21875 208.5 90.601563 208.5 91 C 208.5 91.398438 208.65625 91.78125 208.9375 92.0625 C 209.21875 92.34375 209.601563 92.5 210 92.5 C 210.398438 92.5 210.78125 92.34375 211.0625 92.0625 C 211.34375 91.78125 211.5 91.398438 211.5 91 Z M 211.5 91 "/>
<path style=" stroke:none;fill-rule:evenodd;fill:rgb(99.998474%,0%,0%);fill-opacity:1;" d="M 85.5 73 C 85.5 72.601563 85.34375 72.21875 85.0625 71.9375 C 84.78125 71.65625 84.398438 71.5 84 71.5 C 83.601563 71.5 83.21875 71.65625 82.9375 71.9375 C 82.65625 72.21875 82.5 72.601563 82.5 73 C 82.5 73.398438 82.65625 73.78125 82.9375 74.0625 C 83.21875 74.34375 83.601563 74.5 84 74.5 C 84.398438 74.5 84.78125 74.34375 85.0625 74.0625 C 85.34375 73.78125 85.5 73.398438 85.5 73 Z M 85.5 73 "/>
<path style=" stroke:none;fill-rule:evenodd;fill:rgb(99.998474%,0%,0%);fill-opacity:1;" d="M 268.5 33 C 268.5 32.601563 268.34375 32.21875 268.0625 31.9375 C 267.78125 31.65625 267.398438 31.5 267 31.5 C 266.601563 31.5 266.21875 31.65625 265.9375 31.9375 C 265.65625 32.21875 265.5 32.601563 265.5 33 C 265.5 33.398438 265.65625 33.78125 265.9375 34.0625 C 266.21875 34.34375 266.601563 34.5 267 34.5 C 267.398438 34.5 267.78125 34.34375 268.0625 34.0625 C 268.34375 33.78125 268.5 33.398438 268.5 33 Z M 268.5 33 "/>
<path style=" stroke:none;fill-rule:evenodd;fill:rgb(99.998474%,0%,0%);fill-opacity:1;" d="M 306.5 29 C 306.5 28.601563 306.34375 28.21875 306.0625 27.9375 C 305.78125 27.65625 305.398438 27.5 305 27.5 C 304.601563 27.5 304.21875 27.65625 303.9375 27.9375 C 303.65625 28.21875 303.5 28.601563 303.5 29 C 303.5 29.398438 303.65625 29.78125 303.9375 30.0625 C 304.21875 30.34375 304.601563 30.5 305 30.5 C 305.398438 30.5 305.78125 30.34375 306.0625 30.0625 C 306.34375 29.78125 306.5 29.398438 306.5 29 Z M 306.5 29 "/>
<path style=" stroke:none;fill-rule:evenodd;fill:rgb(99.998474%,0%,0%);fill-opacity:1;" d="M 339.5 19 C 339.5 18.601563 339.34375 18.21875 339.0625 17.9375 C 338.78125 17.65625 338.398438 17.5 338 17.5 C 337.601563 17.5 337.21875 17.65625 336.9375 17.9375 C 336.65625 18.21875 336.5 18.601563 336.5 19 C 336.5 19.398438 336.65625 19.78125 336.9375 20.0625 C 337.21875 20.34375 337.601563 20.5 338 20.5 C 338.398438 20.5 338.78125 20.34375 339.0625 20.0625 C 339.34375 19.78125 339.5 19.398438 339.5 19 Z M 339.5 19 "/>
<path style=" stroke:none;fill-rule:evenodd;fill:rgb(99.998474%,0%,0%);fill-opacity:1;" d="M 226.5 19 C 226.5 18.601563 226.34375 18.21875 226.0625 17.9375 C 225.78125 17.65625 225.398438 17.5 225 17.5 C 224.601563 17.5 224.21875 17.65625 223.9375 17.9375 C 223.65625 18.21875 223.5 18.601563 223.5 19 C 223.5 19.398438 223.65625 19.78125 223.9375 20.0625 C 224.21875 20.34375 224.601563 20.5 225 20.5 C 225.398438 20.5 225.78125 20.34375 226.0625 20.0625 C 226.34375 19.78125 226.5 19.398438 226.5 19 Z M 226.5 19 "/>
<path style=" stroke:none;fill-rule:evenodd;fill:rgb(99.998474%,0%,0%);fill-opacity:1;" d="M 339.5 19 C 339.5 18.601563 339.34375 18.21875 339.0625 17.9375 C 338.78125 17.65625 338.398438 17.5 338 17.5 C 337.601563 17.5 337.21875 17.65625 336.9375 17.9375 C 336.65625 18.21875 336.5 18.601563 336.5 19 C 336.5 19.398438 336.65625 19.78125 336.9375 20.0625 C 337.21875 20.34375 337.601563 20.5 338 20.5 C 338.398438 20.5 338.78125 20.34375 339.0625 20.0625 C 339.34375 19.78125 339.5 19.398438 339.5 19 Z M 339.5 19 "/>
<path style=" stroke:none;fill-rule:evenodd;fill:rgb(99.998474%,0%,0%);fill-opacity:1;" d="M 154.5 18 C 154.5 17.601563 154.34375 17.21875 154.0625 16.9375 C 153.78125 16.65625 153.398438 16.5 153 16.5 C 152.601563 16.5 152.21875 16.65625 151.9375 16.9375 C 151.65625 17.21875 151.5 17.601563 151.5 18 C 151.5 18.398438 151.65625 18.78125 151.9375 19.0625 C 152.21875 19.34375 152.601563 19.5 153 19.5 C 153.398438 19.5 153.78125 19.34375 154.0625 19.0625 C 154.34375 18.78125 154.5 18.398438 154.5 18 Z M 154.5 18 "/>
<path style=" stroke:none;fill-rule:evenodd;fill:rgb(99.998474%,0%,0%);fill-opacity:1;" d="M 152.5 18 C 152.5 17.601563 152.34375 17.21875 152.0625 16.9375 C 151.78125 16.65625 151.398438 16.5 151 16.5 C 150.601563 16.5 150.21875 16.65625 149.9375 16.9375 C 149.65625 17.21875 149.5 17.601563 149.5 18 C 149.5 18.398438 149.65625 18.78125 149.9375 19.0625 C 150.21875 19.34375 150.601563 19.5 151 19.5 C 151.398438 19.5 151.78125 19.34375 152.0625 19.0625 C 152.34375 18.78125 152.5 18.398438 152.5 18 Z M 152.5 18 "/>
<path style=" stroke:none;fill-rule:evenodd;fill:rgb(99.998474%,0%,0%);fill-opacity:1;" d="M 227.5 17 C 227.5 16.601563 227.34375 16.21875 227.0625 15.9375 C 226.78125 15.65625 226.398438 15.5 226 15.5 C 225.601563 15.5 225.21875 15.65625 224.9375 15.9375 C 224.65625 16.21875 224.5 16.601563 224.5 17 C 224.5 17.398438 224.65625 17.78125 224.9375 18.0625 C 225.21875 18.34375 225.601563 18.5 226 18.5 C 226.398438 18.5 226.78125 18.34375 227.0625 18.0625 C 227.34375 17.78125 227.5 17.398438 227.5 17 Z M 227.5 17 "/>
</g>
</svg>
