<?xml version="1.0" encoding="UTF-8"?>
<svg xmlns="http://www.w3.org/2000/svg" xmlns:xlink="http://www.w3.org/1999/xlink" width="360pt" height="359pt" viewBox="0 0 360 359" version="1.1">
<g id="surface196">
<path style="fill-rule:nonzero;fill:rgb(84.999084%,84.999084%,84.999084%);fill-opacity:0.6;stroke-width:1;stroke-linecap:square;stroke-linejoin:miter;stroke:rgb(50%,50%,50%);stroke-opacity:1;stroke-miterlimit:3.25;" d="M 88.761719 304.210938 L 277.371094 209.550781 L 277.230469 207.976562 Z M 88.761719 304.210938 " transform="matrix(1,0,0,1,-74,-13)"/>
<path style="fill-rule:nonzero;fill:rgb(84.999084%,84.999084%,84.999084%);fill-opacity:0.6;stroke-width:1;stroke-linecap:square;stroke-linejoin:miter;stroke:rgb(50%,50%,50%);stroke-opacity:1;stroke-miterlimit:3.25;" d="M 277.371094 209.550781 L 88.761719 304.210938 L 291.433594 261.15625 Z M 277.371094 209.550781 " transform="matrix(1,0,0,1,-74,-13)"/>
<path style="fill-rule:nonzero;fill:rgb(84.999084%,84.999084%,84.999084%);fill-opacity:0.6;stroke-width:1;stroke-linecap:square;stroke-linejoin:miter;stroke:rgb(50%,50%,50%);stroke-opacity:1;stroke-miterlimit:3.25;" d="M 88.761719 304.210938 L 152.917969 99.835938 L 118.675781 82.535156 Z M 88.761719 304.210938 " transform="matrix(1,0,0,1,-74,-13)"/>
<path style="fill-rule:nonzero;fill:rgb(84.999084%,84.999084%,84.999084%);fill-opacity:0.6;stroke-width:1;stroke-linecap:square;stroke-linejoin:miter;stroke:rgb(50%,50%,50%);stroke-opacity:1;stroke-miterlimit:3.25;" d="M 152.917969 99.835938 L 88.761719 304.210938 L 277.230469 207.976562 Z M 152.917969 99.835938 " transform="matrix(1,0,0,1,-74,-13)"/>
<path style="fill-rule:nonzero;fill:rgb(84.999084%,84.999084%,84.999084%);fill-opacity:0.6;stroke-width:1;stroke-linecap:square;stroke-linejoin:miter;stroke:rgb(50%,50%,50%);stroke-opacity:1;stroke-miterlimit:3.25;" d="M 277.371094 209.550781 L 368.257812 321.753906 L 277.230469 207.976562 Z M 277.371094 209.550781 " transform="matrix(1,0,0,1,-74,-13)"/>
<path style="fill-rule:nonzero;fill:rgb(84.999084%,84.999084%,84.999084%);fill-opacity:0.6;stroke-width:1;stroke-linecap:square;stroke-linejoin:miter;stroke:rgb(50%,50%,50%);stroke-opacity:1;stroke-miterlimit:3.25;" d="M 367.804688 322.871094 L 367.875 323.101562 L 368.257812 321.753906 Z M 367.804688 322.871094 " transform="matrix(1,0,0,1,-74,-13)"/>
<path style="fill-rule:nonzero;fill:rgb(84.999084%,84.999084%,84.999084%);fill-opacity:0.6;stroke-width:1;stroke-linecap:square;stroke-linejoin:miter;stroke:rgb(50%,50%,50%);stroke-opacity:1;stroke-miterlimit:3.25;" d="M 367.875 323.101562 L 367.804688 322.871094 L 291.433594 261.15625 Z M 367.875 323.101562 " transform="matrix(1,0,0,1,-74,-13)"/>
<path style="fill-rule:nonzero;fill:rgb(84.999084%,84.999084%,84.999084%);fill-opacity:0.6;stroke-width:1;stroke-linecap:square;stroke-linejoin:miter;stroke:rgb(50%,50%,50%);stroke-opacity:1;stroke-miterlimit:3.25;" d="M 367.804688 322.871094 L 292.632812 260.992188 L 291.433594 261.15625 Z M 367.804688 322.871094 " transform="matrix(1,0,0,1,-74,-13)"/>
<path style="fill-rule:nonzero;fill:rgb(84.999084%,84.999084%,84.999084%);fill-opacity:0.6;stroke-width:1;stroke-linecap:square;stroke-linejoin:miter;stroke:rgb(50%,50%,50%);stroke-opacity:1;stroke-miterlimit:3.25;" d="M 292.632812 260.992188 L 367.804688 322.871094 L 368.257812 321.753906 Z M 292.632812 260.992188 " transform="matrix(1,0,0,1,-74,-13)"/>
<path style="fill-rule:nonzero;fill:rgb(84.999084%,84.999084%,84.999084%);fill-opacity:0.6;stroke-width:1;stroke-linecap:square;stroke-linejoin:miter;stroke:rgb(50%,50%,50%);stroke-opacity:1;stroke-miterlimit:3.25;" d="M 292.632812 260.992188 L 368.257812 321.753906 L 277.371094 209.550781 Z M 292.632812 260.992188 " transform="matrix(1,0,0,1,-74,-13)"/>
<path style="fill-rule:nonzero;fill:rgb(84.999084%,84.999084%,84.999084%);fill-opacity:0.6;stroke-width:1;stroke-linecap:square;stroke-linejoin:miter;stroke:rgb(50%,50%,50%);stroke-opacity:1;stroke-miterlimit:3.25;" d="M 291.433594 261.15625 L 292.632812 260.992188 L 277.371094 209.550781 Z M 291.433594 261.15625 " transform="matrix(1,0,0,1,-74,-13)"/>
<path style="fill-rule:nonzero;fill:rgb(84.999084%,84.999084%,84.999084%);fill-opacity:0.6;stroke-width:1;stroke-linecap:square;stroke-linejoin:miter;stroke:rgb(50%,50%,50%);stroke-opacity:1;stroke-miterlimit:3.25;" d="M 367.875 323.101562 L 291.433594 261.15625 L 88.761719 304.210938 Z M 367.875 323.101562 " transform="matrix(1,0,0,1,-74,-13)"/>
<path style=" stroke:none;fill-rule:evenodd;fill:rgb(99.998474%,0%,0%);fill-opacity:1;" d="M 295.789062 310 C 295.789062 309.523438 295.601562 309.070312 295.265625 308.734375 C 294.929688 308.398438 294.476562 308.210938 294 308.210938 C 293.523438 308.210938 293.070312 308.398438 292.734375 308.734375 C 292.398438 309.070312 292.210938 309.523438 292.210938 310 C 292.210938 310.476562 292.398438 310.929688 292.734375 311.265625 C 293.070312 311.601562 293.523438 311.789062 294 311.789062 C 294.476562 311.789062 294.929688 311.601562 295.265625 311.265625 C 295.601562 310.929688 295.789062 310.476562 295.789062 310 Z M 295.789062 310 "/>
<path style=" stroke:none;fill-rule:evenodd;fill:rgb(99.998474%,0%,0%);fill-opacity:1;" d="M 295.789062 310 C 295.789062 309.523438 295.601562 309.070312 295.265625 308.734375 C 294.929688 308.398438 294.476562 308.210938 294 308.210938 C 293.523438 308.210938 293.070312 308.398438 292.734375 308.734375 C 292.398438 309.070312 292.210938 309.523438 292.210938 310 C 292.210938 310.476562 292.398438 310.929688 292.734375 311.265625 C 293.070312 311.601562 293.523438 311.789062 294 311.789062 C 294.476562 311.789062 294.929688 311.601562 295.265625 311.265625 C 295.601562 310.929688 295.789062 310.476562 295.789062 310 Z M 295.789062 310 "/>
<path style=" stroke:none;fill-rule:evenodd;fill:rgb(99.998474%,0%,0%);fill-opacity:1;" d="M 295.789062 309 C 295.789062 308.523438 295.601562 308.070312 295.265625 307.734375 C 294.929688 307.398438 294.476562 307.210938 294 307.210938 C 293.523438 307.210938 293.070312 307.398438 292.734375 307.734375 C 292.398438 308.070312 292.210938 308.523438 292.210938 309 C 292.210938 309.476562 292.398438 309.929688 292.734375 310.265625 C 293.070312 310.601562 293.523438 310.789062 294 310.789062 C 294.476562 310.789062 294.929688 310.601562 295.265625 310.265625 C 295.601562 309.929688 295.789062 309.476562 295.789062 309 Z M 295.789062 309 "/>
<path style=" stroke:none;fill-rule:evenodd;fill:rgb(99.998474%,0%,0%);fill-opacity:1;" d="M 16.789062 291 C 16.789062 290.523438 16.601562 290.070312 16.265625 289.734375 C 15.929688 289.398438 15.476562 289.210938 15 289.210938 C 14.523438 289.210938 14.070312 289.398438 13.734375 289.734375 C 13.398438 290.070312 13.210938 290.523438 13.210938 291 C 13.210938 291.476562 13.398438 291.929688 13.734375 292.265625 C 14.070312 292.601562 14.523438 292.789062 15 292.789062 C 15.476562 292.789062 15.929688 292.601562 16.265625 292.265625 C 16.601562 291.929688 16.789062 291.476562 16.789062 291 Z M 16.789062 291 "/>
<path style=" stroke:none;fill-rule:evenodd;fill:rgb(99.998474%,0%,0%);fill-opacity:1;" d="M 218.789062 248 C 218.789062 247.523438 218.601562 247.070312 218.265625 246.734375 C 217.929688 246.398438 217.476562 246.210938 217 246.210938 C 216.523438 246.210938 216.070312 246.398438 215.734375 246.734375 C 215.398438 247.070312 215.210938 247.523438 215.210938 248 C 215.210938 248.476562 215.398438 248.929688 215.734375 249.265625 C 216.070312 249.601562 216.523438 249.789062 217 249.789062 C 217.476562 249.789062 217.929688 249.601562 218.265625 249.265625 C 218.601562 248.929688 218.789062 248.476562 218.789062 248 Z M 218.789062 248 "/>
<path style=" stroke:none;fill-rule:evenodd;fill:rgb(99.998474%,0%,0%);fill-opacity:1;" d="M 220.789062 248 C 220.789062 247.523438 220.601562 247.070312 220.265625 246.734375 C 219.929688 246.398438 219.476562 246.210938 219 246.210938 C 218.523438 246.210938 218.070312 246.398438 217.734375 246.734375 C 217.398438 247.070312 217.210938 247.523438 217.210938 248 C 217.210938 248.476562 217.398438 248.929688 217.734375 249.265625 C 218.070312 249.601562 218.523438 249.789062 219 249.789062 C 219.476562 249.789062 219.929688 249.601562 220.265625 249.265625 C 220.601562 248.929688 220.789062 248.476562 220.789062 248 Z M 220.789062 248 "/>
<path style=" stroke:none;fill-rule:evenodd;fill:rgb(99.998474%,0%,0%);fill-opacity:1;" d="M 204.789062 197 C 204.789062 196.523438 204.601562 196.070312 204.265625 195.734375 C 203.929688 195.398438 203.476562 195.210938 203 195.210938 C 202.523438 195.210938 202.070312 195.398438 201.734375 195.734375 C 201.398438 196.070312 201.210938 196.523438 201.210938 197 C 201.210938 197.476562 201.398438 197.929688 201.734375 198.265625 C 202.070312 198.601562 202.523438 198.789062 203 198.789062 C 203.476562 198.789062 203.929688 198.601562 204.265625 198.265625 C 204.601562 197.929688 204.789062 197.476562 204.789062 197 Z M 204.789062 197 "/>
<path style=" stroke:none;fill-rule:evenodd;fill:rgb(99.998474%,0%,0%);fill-opacity:1;" d="M 204.789062 195 C 204.789062 194.523438 204.601562 194.070312 204.265625 193.734375 C 203.929688 193.398438 203.476562 193.210938 203 193.210938 C 202.523438 193.210938 202.070312 193.398438 201.734375 193.734375 C 201.398438 194.070312 201.210938 194.523438 201.210938 195 C 201.210938 195.476562 201.398438 195.929688 201.734375 196.265625 C 202.070312 196.601562 202.523438 196.789062 203 196.789062 C 203.476562 196.789062 203.929688 196.601562 204.265625 196.265625 C 204.601562 195.929688 204.789062 195.476562 204.789062 195 Z M 204.789062 195 "/>
<path style=" stroke:none;fill-rule:evenodd;fill:rgb(99.998474%,0%,0%);fill-opacity:1;" d="M 80.789062 87 C 80.789062 86.523438 80.601562 86.070312 80.265625 85.734375 C 79.929688 85.398438 79.476562 85.210938 79 85.210938 C 78.523438 85.210938 78.070312 85.398438 77.734375 85.734375 C 77.398438 86.070312 77.210938 86.523438 77.210938 87 C 77.210938 87.476562 77.398438 87.929688 77.734375 88.265625 C 78.070312 88.601562 78.523438 88.789062 79 88.789062 C 79.476562 88.789062 79.929688 88.601562 80.265625 88.265625 C 80.601562 87.929688 80.789062 87.476562 80.789062 87 Z M 80.789062 87 "/>
<path style=" stroke:none;fill-rule:evenodd;fill:rgb(99.998474%,0%,0%);fill-opacity:1;" d="M 46.789062 70 C 46.789062 69.523438 46.601562 69.070312 46.265625 68.734375 C 45.929688 68.398438 45.476562 68.210938 45 68.210938 C 44.523438 68.210938 44.070312 68.398438 43.734375 68.734375 C 43.398438 69.070312 43.210938 69.523438 43.210938 70 C 43.210938 70.476562 43.398438 70.929688 43.734375 71.265625 C 44.070312 71.601562 44.523438 71.789062 45 71.789062 C 45.476562 71.789062 45.929688 71.601562 46.265625 71.265625 C 46.601562 70.929688 46.789062 70.476562 46.789062 70 Z M 46.789062 70 "/>
<path style=" stroke:none;fill-rule:evenodd;fill:rgb(99.998474%,0%,0%);fill-opacity:1;" d="M 295.5 310 C 295.5 309.601562 295.34375 309.21875 295.0625 308.9375 C 294.78125 308.65625 294.398438 308.5 294 308.5 C 293.601562 308.5 293.21875 308.65625 292.9375 308.9375 C 292.65625 309.21875 292.5 309.601562 292.5 310 C 292.5 310.398438 292.65625 310.78125 292.9375 311.0625 C 293.21875 311.34375 293.601562 311.5 294 311.5 C 294.398438 311.5 294.78125 311.34375 295.0625 311.0625 C 295.34375 310.78125 295.5 310.398438 295.5 310 Z M 295.5 310 "/>
<path style=" stroke:none;fill-rule:evenodd;fill:rgb(99.998474%,0%,0%);fill-opacity:1;" d="M 295.5 310 C 295.5 309.601562 295.34375 309.21875 295.0625 308.9375 C 294.78125 308.65625 294.398438 308.5 294 308.5 C 293.601562 308.5 293.21875 308.65625 292.9375 308.9375 C 292.65625 309.21875 292.5 309.601562 292.5 310 C 292.5 310.398438 292.65625 310.78125 292.9375 311.0625 C 293.21875 311.34375 293.601562 311.5 294 311.5 C 294.398438 311.5 294.78125 311.34375 295.0625 311.0625 C 295.34375 310.78125 295.5 310.398438 295.5 310 Z M 295.5 310 "/>
<path style=" stroke:none;fill-rule:evenodd;fill:rgb(99.998474%,0%,0%);fill-opacity:1;" d="M 295.5 309 C 295.5 308.601562 295.34375 308.21875 295.0625 307.9375 C 294.78125 307.65625 294.398438 307.5 294 307.5 C 293.601562 307.5 293.21875 307.65625 292.9375 307.9375 C 292.65625 308.21875 292.5 308.601562 292.5 309 C 292.5 309.398438 292.65625 309.78125 292.9375 310.0625 C 293.21875 310.34375 293.601562 310.5 294 310.5 C 294.398438 310.5 294.78125 310.34375 295.0625 310.0625 C 295.34375 309.78125 295.5 309.398438 295.5 309 Z M 295.5 309 "/>
<path style=" stroke:none;fill-rule:evenodd;fill:rgb(99.998474%,0%,0%);fill-opacity:1;" d="M 16.5 291 C 16.5 290.601562 16.34375 290.21875 16.0625 289.9375 C 15.78125 289.65625 15.398438 289.5 15 289.5 C 14.601562 289.5 14.21875 289.65625 13.9375 289.9375 C 13.65625 290.21875 13.5 290.601562 13.5 291 C 13.5 291.398438 13.65625 291.78125 13.9375 292.0625 C 14.21875 292.34375 14.601562 292.5 15 292.5 C 15.398438 292.5 15.78125 292.34375 16.0625 292.0625 C 16.34375 291.78125 16.5 291.398438 16.5 291 Z M 16.5 291 "/>
<path style=" stroke:none;fill-rule:evenodd;fill:rgb(99.998474%,0%,0%);fill-opacity:1;" d="M 218.5 248 C 218.5 247.601562 218.34375 247.21875 218.0625 246.9375 C 217.78125 246.65625 217.398438 246.5 217 246.5 C 216.601562 246.5 216.21875 246.65625 215.9375 246.9375 C 215.65625 247.21875 215.5 247.601562 215.5 248 C 215.5 248.398438 215.65625 248.78125 215.9375 249.0625 C 216.21875 249.34375 216.601562 249.5 217 249.5 C 217.398438 249.5 217.78125 249.34375 218.0625 249.0625 C 218.34375 248.78125 218.5 248.398438 218.5 248 Z M 218.5 248 "/>
<path style=" stroke:none;fill-rule:evenodd;fill:rgb(99.998474%,0%,0%);fill-opacity:1;" d="M 220.5 248 C 220.5 247.601562 220.34375 247.21875 220.0625 246.9375 C 219.78125 246.65625 219.398438 246.5 219 246.5 C 218.601562 246.5 218.21875 246.65625 217.9375 246.9375 C 217.65625 247.21875 217.5 247.601562 217.5 248 C 217.5 248.398438 217.65625 248.78125 217.9375 249.0625 C 218.21875 249.34375 218.601562 249.5 219 249.5 C 219.398438 249.5 219.78125 249.34375 220.0625 249.0625 C 220.34375 248.78125 220.5 248.398438 220.5 248 Z M 220.5 248 "/>
<path style=" stroke:none;fill-rule:evenodd;fill:rgb(99.998474%,0%,0%);fill-opacity:1;" d="M 204.5 197 C 204.5 196.601562 204.34375 196.21875 204.0625 195.9375 C 203.78125 195.65625 203.398438 195.5 203 195.5 C 202.601562 195.5 202.21875 195.65625 201.9375 195.9375 C 201.65625 196.21875 201.5 196.601562 201.5 197 C 201.5 197.398438 201.65625 197.78125 201.9375 198.0625 C 202.21875 198.34375 202.601562 198.5 203 198.5 C 203.398438 198.5 203.78125 198.34375 204.0625 198.0625 C 204.34375 197.78125 204.5 197.398438 204.5 197 Z M 204.5 197 "/>
<path style=" stroke:none;fill-rule:evenodd;fill:rgb(99.998474%,0%,0%);fill-opacity:1;" d="M 204.5 195 C 204.5 194.601562 204.34375 194.21875 204.0625 193.9375 C 203.78125 193.65625 203.398438 193.5 203 193.5 C 202.601562 193.5 202.21875 193.65625 201.9375 193.9375 C 201.65625 194.21875 201.5 194.601562 201.5 195 C 201.5 195.398438 201.65625 195.78125 201.9375 196.0625 C 202.21875 196.34375 202.601562 196.5 203 196.5 C 203.398438 196.5 203.78125 196.34375 204.0625 196.0625 C 204.34375 195.78125 204.5 195.398438 204.5 195 Z M 204.5 195 "/>
<path style=" stroke:none;fill-rule:evenodd;fill:rgb(99.998474%,0%,0%);fill-opacity:1;" d="M 80.5 87 C 80.5 86.601562 80.34375 86.21875 80.0625 85.9375 C 79.78125 85.65625 79.398438 85.5 79 85.5 C 78.601562 85.5 78.21875 85.65625 77.9375 85.9375 C 77.65625 86.21875 77.5 86.601562 77.5 87 C 77.5 87.398438 77.65625 87.78125 77.9375 88.0625 C 78.21875 88.34375 78.601562 88.5 79 88.5 C 79.398438 88.5 79.78125 88.34375 80.0625 88.0625 C 80.34375 87.78125 80.5 87.398438 80.5 87 Z M 80.5 87 "/>
<path style=" stroke:none;fill-rule:evenodd;fill:rgb(99.998474%,0%,0%);fill-opacity:1;" d="M 46.5 70 C 46.5 69.601562 46.34375 69.21875 46.0625 68.9375 C 45.78125 68.65625 45.398438 68.5 45 68.5 C 44.601562 68.5 44.21875 68.65625 43.9375 68.9375 C 43.65625 69.21875 43.5 69.601562 43.5 70 C 43.5 70.398438 43.65625 70.78125 43.9375 71.0625 C 44.21875 71.34375 44.601562 71.5 45 71.5 C 45.398438 71.5 45.78125 71.34375 46.0625 71.0625 C 46.34375 70.78125 46.5 70.398438 46.5 70 Z M 46.5 70 "/>
</g>
</svg>
