<?xml version="1.0" encoding="UTF-8"?>
<svg xmlns="http://www.w3.org/2000/svg" xmlns:xlink="http://www.w3.org/1999/xlink" width="360pt" height="359pt" viewBox="0 0 360 359" version="1.1">
<g id="surface200">
<path style="fill-rule:nonzero;fill:rgb(84.999084%,84.999084%,84.999084%);fill-opacity:0.6;stroke-width:1;stroke-linecap:square;stroke-linejoin:miter;stroke:rgb(50%,50%,50%);stroke-opacity:1;stroke-miterlimit:3.25;" d="M 86.003906 307.089844 L 86.679688 305.117188 L 96.246094 221.21875 Z M 86.003906 307.089844 " transform="matrix(1,0,0,1,-74,-13)"/>
<path style="fill-rule:nonzero;fill:rgb(84.999084%,84.999084%,84.999084%);fill-opacity:0.6;stroke-width:1;stroke-linecap:square;stroke-linejoin:miter;stroke:rgb(50%,50%,50%);stroke-opacity:1;stroke-miterlimit:3.25;" d="M 86.679688 305.117188 L 86.003906 307.089844 L 88.507812 304.605469 Z M 86.679688 305.117188 " transform="matrix(1,0,0,1,-74,-13)"/>
<path style="fill-rule:nonzero;fill:rgb(84.999084%,84.999084%,84.999084%);fill-opacity:0.6;stroke-width:1;stroke-linecap:square;stroke-linejoin:miter;stroke:rgb(50%,50%,50%);stroke-opacity:1;stroke-miterlimit:3.25;" d="M 88.507812 304.605469 L 89.445312 305.015625 L 96.246094 221.21875 Z M 88.507812 304.605469 " transform="matrix(1,0,0,1,-74,-13)"/>
<path style="fill-rule:nonzero;fill:rgb(84.999084%,84.999084%,84.999084%);fill-opacity:0.6;stroke-width:1;stroke-linecap:square;stroke-linejoin:miter;stroke:rgb(50%,50%,50%);stroke-opacity:1;stroke-miterlimit:3.25;" d="M 89.445312 305.015625 L 88.507812 304.605469 L 86.003906 307.089844 Z M 89.445312 305.015625 " transform="matrix(1,0,0,1,-74,-13)"/>
<path style="fill-rule:nonzero;fill:rgb(84.999084%,84.999084%,84.999084%);fill-opacity:0.6;stroke-width:1;stroke-linecap:square;stroke-linejoin:miter;stroke:rgb(50%,50%,50%);stroke-opacity:1;stroke-miterlimit:3.25;" d="M 289.355469 262.59375 L 96.78125 220.773438 L 89.445312 305.015625 Z M 289.355469 262.59375 " transform="matrix(1,0,0,1,-74,-13)"/>
<path style="fill-rule:nonzero;fill:rgb(84.999084%,84.999084%,84.999084%);fill-opacity:0.6;stroke-width:1;stroke-linecap:square;stroke-linejoin:miter;stroke:rgb(50%,50%,50%);stroke-opacity:1;stroke-miterlimit:3.25;" d="M 86.679688 305.117188 L 88.507812 304.605469 L 96.246094 221.21875 Z M 86.679688 305.117188 " transform="matrix(1,0,0,1,-74,-13)"/>
<path style="fill-rule:nonzero;fill:rgb(84.999084%,84.999084%,84.999084%);fill-opacity:0.6;stroke-width:1;stroke-linecap:square;stroke-linejoin:miter;stroke:rgb(50%,50%,50%);stroke-opacity:1;stroke-miterlimit:3.25;" d="M 96.246094 221.21875 L 96.78125 220.773438 L 114.226562 88.660156 Z M 96.246094 221.21875 " transform="matrix(1,0,0,1,-74,-13)"/>
<path style="fill-rule:nonzero;fill:rgb(84.999084%,84.999084%,84.999084%);fill-opacity:0.6;stroke-width:1;stroke-linecap:square;stroke-linejoin:miter;stroke:rgb(50%,50%,50%);stroke-opacity:1;stroke-miterlimit:3.25;" d="M 96.246094 221.21875 L 89.445312 305.015625 L 96.78125 220.773438 Z M 96.246094 221.21875 " transform="matrix(1,0,0,1,-74,-13)"/>
<path style="fill-rule:nonzero;fill:rgb(84.999084%,84.999084%,84.999084%);fill-opacity:0.6;stroke-width:1;stroke-linecap:square;stroke-linejoin:miter;stroke:rgb(50%,50%,50%);stroke-opacity:1;stroke-miterlimit:3.25;" d="M 273.332031 209.894531 L 282.089844 213.824219 L 281.050781 211.804688 Z M 273.332031 209.894531 " transform="matrix(1,0,0,1,-74,-13)"/>
<path style="fill-rule:nonzero;fill:rgb(84.999084%,84.999084%,84.999084%);fill-opacity:0.6;stroke-width:1;stroke-linecap:square;stroke-linejoin:miter;stroke:rgb(50%,50%,50%);stroke-opacity:1;stroke-miterlimit:3.25;" d="M 273.332031 209.894531 L 96.78125 220.773438 L 289.355469 262.59375 Z M 273.332031 209.894531 " transform="matrix(1,0,0,1,-74,-13)"/>
<path style="fill-rule:nonzero;fill:rgb(84.999084%,84.999084%,84.999084%);fill-opacity:0.6;stroke-width:1;stroke-linecap:square;stroke-linejoin:miter;stroke:rgb(50%,50%,50%);stroke-opacity:1;stroke-miterlimit:3.25;" d="M 281.050781 211.804688 L 282.089844 213.824219 L 281.519531 205.199219 Z M 281.050781 211.804688 " transform="matrix(1,0,0,1,-74,-13)"/>
<path style="fill-rule:nonzero;fill:rgb(84.999084%,84.999084%,84.999084%);fill-opacity:0.6;stroke-width:1;stroke-linecap:square;stroke-linejoin:miter;stroke:rgb(50%,50%,50%);stroke-opacity:1;stroke-miterlimit:3.25;" d="M 273.332031 209.894531 L 281.050781 211.804688 L 278.289062 206.671875 Z M 273.332031 209.894531 " transform="matrix(1,0,0,1,-74,-13)"/>
<path style="fill-rule:nonzero;fill:rgb(84.999084%,84.999084%,84.999084%);fill-opacity:0.6;stroke-width:1;stroke-linecap:square;stroke-linejoin:miter;stroke:rgb(50%,50%,50%);stroke-opacity:1;stroke-miterlimit:3.25;" d="M 273.332031 209.894531 L 290.535156 259.792969 L 282.089844 213.824219 Z M 273.332031 209.894531 " transform="matrix(1,0,0,1,-74,-13)"/>
<path style="fill-rule:nonzero;fill:rgb(84.999084%,84.999084%,84.999084%);fill-opacity:0.6;stroke-width:1;stroke-linecap:square;stroke-linejoin:miter;stroke:rgb(50%,50%,50%);stroke-opacity:1;stroke-miterlimit:3.25;" d="M 96.78125 220.773438 L 273.332031 209.894531 L 272.355469 205.300781 Z M 96.78125 220.773438 " transform="matrix(1,0,0,1,-74,-13)"/>
<path style="fill-rule:nonzero;fill:rgb(84.999084%,84.999084%,84.999084%);fill-opacity:0.6;stroke-width:1;stroke-linecap:square;stroke-linejoin:miter;stroke:rgb(50%,50%,50%);stroke-opacity:1;stroke-miterlimit:3.25;" d="M 89.445312 305.015625 L 86.003906 307.089844 L 369.21875 325.90625 Z M 89.445312 305.015625 " transform="matrix(1,0,0,1,-74,-13)"/>
<path style="fill-rule:nonzero;fill:rgb(84.999084%,84.999084%,84.999084%);fill-opacity:0.6;stroke-width:1;stroke-linecap:square;stroke-linejoin:miter;stroke:rgb(50%,50%,50%);stroke-opacity:1;stroke-miterlimit:3.25;" d="M 114.226562 88.660156 L 152.898438 99.777344 L 117.460938 86.128906 Z M 114.226562 88.660156 " transform="matrix(1,0,0,1,-74,-13)"/>
<path style="fill-rule:nonzero;fill:rgb(84.999084%,84.999084%,84.999084%);fill-opacity:0.6;stroke-width:1;stroke-linecap:square;stroke-linejoin:miter;stroke:rgb(50%,50%,50%);stroke-opacity:1;stroke-miterlimit:3.25;" d="M 114.226562 88.660156 L 96.78125 220.773438 L 152.898438 99.777344 Z M 114.226562 88.660156 " transform="matrix(1,0,0,1,-74,-13)"/>
<path style="fill-rule:nonzero;fill:rgb(84.999084%,84.999084%,84.999084%);fill-opacity:0.6;stroke-width:1;stroke-linecap:square;stroke-linejoin:miter;stroke:rgb(50%,50%,50%);stroke-opacity:1;stroke-miterlimit:3.25;" d="M 114.226562 88.660156 L 117.058594 84.714844 L 116.320312 83.09375 Z M 114.226562 88.660156 " transform="matrix(1,0,0,1,-74,-13)"/>
<path style="fill-rule:nonzero;fill:rgb(84.999084%,84.999084%,84.999084%);fill-opacity:0.6;stroke-width:1;stroke-linecap:square;stroke-linejoin:miter;stroke:rgb(50%,50%,50%);stroke-opacity:1;stroke-miterlimit:3.25;" d="M 117.058594 84.714844 L 114.226562 88.660156 L 117.460938 86.128906 Z M 117.058594 84.714844 " transform="matrix(1,0,0,1,-74,-13)"/>
<path style="fill-rule:nonzero;fill:rgb(84.999084%,84.999084%,84.999084%);fill-opacity:0.6;stroke-width:1;stroke-linecap:square;stroke-linejoin:miter;stroke:rgb(50%,50%,50%);stroke-opacity:1;stroke-miterlimit:3.25;" d="M 117.058594 84.714844 L 117.460938 86.128906 L 152.898438 99.777344 Z M 117.058594 84.714844 " transform="matrix(1,0,0,1,-74,-13)"/>
<path style="fill-rule:nonzero;fill:rgb(84.999084%,84.999084%,84.999084%);fill-opacity:0.6;stroke-width:1;stroke-linecap:square;stroke-linejoin:miter;stroke:rgb(50%,50%,50%);stroke-opacity:1;stroke-miterlimit:3.25;" d="M 116.320312 83.09375 L 117.058594 84.714844 L 152.898438 99.777344 Z M 116.320312 83.09375 " transform="matrix(1,0,0,1,-74,-13)"/>
<path style="fill-rule:nonzero;fill:rgb(84.999084%,84.999084%,84.999084%);fill-opacity:0.6;stroke-width:1;stroke-linecap:square;stroke-linejoin:miter;stroke:rgb(50%,50%,50%);stroke-opacity:1;stroke-miterlimit:3.25;" d="M 152.898438 99.777344 L 349.230469 32.726562 L 116.320312 83.09375 Z M 152.898438 99.777344 " transform="matrix(1,0,0,1,-74,-13)"/>
<path style="fill-rule:nonzero;fill:rgb(84.999084%,84.999084%,84.999084%);fill-opacity:0.6;stroke-width:1;stroke-linecap:square;stroke-linejoin:miter;stroke:rgb(50%,50%,50%);stroke-opacity:1;stroke-miterlimit:3.25;" d="M 275.1875 206.867188 L 278.289062 206.671875 L 275.429688 204.421875 Z M 275.1875 206.867188 " transform="matrix(1,0,0,1,-74,-13)"/>
<path style="fill-rule:nonzero;fill:rgb(84.999084%,84.999084%,84.999084%);fill-opacity:0.6;stroke-width:1;stroke-linecap:square;stroke-linejoin:miter;stroke:rgb(50%,50%,50%);stroke-opacity:1;stroke-miterlimit:3.25;" d="M 278.289062 206.671875 L 275.1875 206.867188 L 273.332031 209.894531 Z M 278.289062 206.671875 " transform="matrix(1,0,0,1,-74,-13)"/>
<path style="fill-rule:nonzero;fill:rgb(84.999084%,84.999084%,84.999084%);fill-opacity:0.6;stroke-width:1;stroke-linecap:square;stroke-linejoin:miter;stroke:rgb(50%,50%,50%);stroke-opacity:1;stroke-miterlimit:3.25;" d="M 275.1875 206.867188 L 275.429688 204.421875 L 272.355469 205.300781 Z M 275.1875 206.867188 " transform="matrix(1,0,0,1,-74,-13)"/>
<path style="fill-rule:nonzero;fill:rgb(84.999084%,84.999084%,84.999084%);fill-opacity:0.6;stroke-width:1;stroke-linecap:square;stroke-linejoin:miter;stroke:rgb(50%,50%,50%);stroke-opacity:1;stroke-miterlimit:3.25;" d="M 275.429688 204.421875 L 278.289062 206.671875 L 281.519531 205.199219 Z M 275.429688 204.421875 " transform="matrix(1,0,0,1,-74,-13)"/>
<path style="fill-rule:nonzero;fill:rgb(84.999084%,84.999084%,84.999084%);fill-opacity:0.6;stroke-width:1;stroke-linecap:square;stroke-linejoin:miter;stroke:rgb(50%,50%,50%);stroke-opacity:1;stroke-miterlimit:3.25;" d="M 152.898438 99.777344 L 275.429688 204.421875 L 349.230469 32.726562 Z M 152.898438 99.777344 " transform="matrix(1,0,0,1,-74,-13)"/>
<path style="fill-rule:nonzero;fill:rgb(84.999084%,84.999084%,84.999084%);fill-opacity:0.6;stroke-width:1;stroke-linecap:square;stroke-linejoin:miter;stroke:rgb(50%,50%,50%);stroke-opacity:1;stroke-miterlimit:3.25;" d="M 272.355469 205.300781 L 275.429688 204.421875 L 152.898438 99.777344 Z M 272.355469 205.300781 " transform="matrix(1,0,0,1,-74,-13)"/>
<path style="fill-rule:nonzero;fill:rgb(84.999084%,84.999084%,84.999084%);fill-opacity:0.6;stroke-width:1;stroke-linecap:square;stroke-linejoin:miter;stroke:rgb(50%,50%,50%);stroke-opacity:1;stroke-miterlimit:3.25;" d="M 278.289062 206.671875 L 281.050781 211.804688 L 281.519531 205.199219 Z M 278.289062 206.671875 " transform="matrix(1,0,0,1,-74,-13)"/>
<path style="fill-rule:nonzero;fill:rgb(84.999084%,84.999084%,84.999084%);fill-opacity:0.6;stroke-width:1;stroke-linecap:square;stroke-linejoin:miter;stroke:rgb(50%,50%,50%);stroke-opacity:1;stroke-miterlimit:3.25;" d="M 275.1875 206.867188 L 272.355469 205.300781 L 273.332031 209.894531 Z M 275.1875 206.867188 " transform="matrix(1,0,0,1,-74,-13)"/>
<path style="fill-rule:nonzero;fill:rgb(84.999084%,84.999084%,84.999084%);fill-opacity:0.6;stroke-width:1;stroke-linecap:square;stroke-linejoin:miter;stroke:rgb(50%,50%,50%);stroke-opacity:1;stroke-miterlimit:3.25;" d="M 96.78125 220.773438 L 272.355469 205.300781 L 152.898438 99.777344 Z M 96.78125 220.773438 " transform="matrix(1,0,0,1,-74,-13)"/>
<path style="fill-rule:nonzero;fill:rgb(84.999084%,84.999084%,84.999084%);fill-opacity:0.6;stroke-width:1;stroke-linecap:square;stroke-linejoin:miter;stroke:rgb(50%,50%,50%);stroke-opacity:1;stroke-miterlimit:3.25;" d="M 376.253906 113.105469 L 275.429688 204.421875 L 281.519531 205.199219 Z M 376.253906 113.105469 " transform="matrix(1,0,0,1,-74,-13)"/>
<path style="fill-rule:nonzero;fill:rgb(84.999084%,84.999084%,84.999084%);fill-opacity:0.6;stroke-width:1;stroke-linecap:square;stroke-linejoin:miter;stroke:rgb(50%,50%,50%);stroke-opacity:1;stroke-miterlimit:3.25;" d="M 282.089844 213.824219 L 387.773438 125.777344 L 281.519531 205.199219 Z M 282.089844 213.824219 " transform="matrix(1,0,0,1,-74,-13)"/>
<path style="fill-rule:nonzero;fill:rgb(84.999084%,84.999084%,84.999084%);fill-opacity:0.6;stroke-width:1;stroke-linecap:square;stroke-linejoin:miter;stroke:rgb(50%,50%,50%);stroke-opacity:1;stroke-miterlimit:3.25;" d="M 366.171875 321.726562 L 368.648438 320.382812 L 297 267.445312 Z M 366.171875 321.726562 " transform="matrix(1,0,0,1,-74,-13)"/>
<path style="fill-rule:nonzero;fill:rgb(84.999084%,84.999084%,84.999084%);fill-opacity:0.6;stroke-width:1;stroke-linecap:square;stroke-linejoin:miter;stroke:rgb(50%,50%,50%);stroke-opacity:1;stroke-miterlimit:3.25;" d="M 368.648438 320.382812 L 366.171875 321.726562 L 368.753906 320.90625 Z M 368.648438 320.382812 " transform="matrix(1,0,0,1,-74,-13)"/>
<path style="fill-rule:nonzero;fill:rgb(84.999084%,84.999084%,84.999084%);fill-opacity:0.6;stroke-width:1;stroke-linecap:square;stroke-linejoin:miter;stroke:rgb(50%,50%,50%);stroke-opacity:1;stroke-miterlimit:3.25;" d="M 289.355469 262.59375 L 296.675781 267.757812 L 297 267.445312 Z M 289.355469 262.59375 " transform="matrix(1,0,0,1,-74,-13)"/>
<path style="fill-rule:nonzero;fill:rgb(84.999084%,84.999084%,84.999084%);fill-opacity:0.6;stroke-width:1;stroke-linecap:square;stroke-linejoin:miter;stroke:rgb(50%,50%,50%);stroke-opacity:1;stroke-miterlimit:3.25;" d="M 366.171875 321.726562 L 296.675781 267.757812 L 369.21875 325.90625 Z M 366.171875 321.726562 " transform="matrix(1,0,0,1,-74,-13)"/>
<path style="fill-rule:nonzero;fill:rgb(84.999084%,84.999084%,84.999084%);fill-opacity:0.6;stroke-width:1;stroke-linecap:square;stroke-linejoin:miter;stroke:rgb(50%,50%,50%);stroke-opacity:1;stroke-miterlimit:3.25;" d="M 297 267.445312 L 296.675781 267.757812 L 366.171875 321.726562 Z M 297 267.445312 " transform="matrix(1,0,0,1,-74,-13)"/>
<path style="fill-rule:nonzero;fill:rgb(84.999084%,84.999084%,84.999084%);fill-opacity:0.6;stroke-width:1;stroke-linecap:square;stroke-linejoin:miter;stroke:rgb(50%,50%,50%);stroke-opacity:1;stroke-miterlimit:3.25;" d="M 289.355469 262.59375 L 297 267.445312 L 290.535156 259.792969 Z M 289.355469 262.59375 " transform="matrix(1,0,0,1,-74,-13)"/>
<path style="fill-rule:nonzero;fill:rgb(84.999084%,84.999084%,84.999084%);fill-opacity:0.6;stroke-width:1;stroke-linecap:square;stroke-linejoin:miter;stroke:rgb(50%,50%,50%);stroke-opacity:1;stroke-miterlimit:3.25;" d="M 368.648438 320.382812 L 370.726562 319.105469 L 297 267.445312 Z M 368.648438 320.382812 " transform="matrix(1,0,0,1,-74,-13)"/>
<path style="fill-rule:nonzero;fill:rgb(84.999084%,84.999084%,84.999084%);fill-opacity:0.6;stroke-width:1;stroke-linecap:square;stroke-linejoin:miter;stroke:rgb(50%,50%,50%);stroke-opacity:1;stroke-miterlimit:3.25;" d="M 296.675781 267.757812 L 289.355469 262.59375 L 89.445312 305.015625 Z M 296.675781 267.757812 " transform="matrix(1,0,0,1,-74,-13)"/>
<path style="fill-rule:nonzero;fill:rgb(84.999084%,84.999084%,84.999084%);fill-opacity:0.6;stroke-width:1;stroke-linecap:square;stroke-linejoin:miter;stroke:rgb(50%,50%,50%);stroke-opacity:1;stroke-miterlimit:3.25;" d="M 369.273438 322.4375 L 368.753906 320.90625 L 366.171875 321.726562 Z M 369.273438 322.4375 " transform="matrix(1,0,0,1,-74,-13)"/>
<path style="fill-rule:nonzero;fill:rgb(84.999084%,84.999084%,84.999084%);fill-opacity:0.6;stroke-width:1;stroke-linecap:square;stroke-linejoin:miter;stroke:rgb(50%,50%,50%);stroke-opacity:1;stroke-miterlimit:3.25;" d="M 369.273438 322.4375 L 369.21875 325.90625 L 370.269531 320.746094 Z M 369.273438 322.4375 " transform="matrix(1,0,0,1,-74,-13)"/>
<path style="fill-rule:nonzero;fill:rgb(84.999084%,84.999084%,84.999084%);fill-opacity:0.6;stroke-width:1;stroke-linecap:square;stroke-linejoin:miter;stroke:rgb(50%,50%,50%);stroke-opacity:1;stroke-miterlimit:3.25;" d="M 370.269531 320.746094 L 370.726562 319.105469 L 368.648438 320.382812 Z M 370.269531 320.746094 " transform="matrix(1,0,0,1,-74,-13)"/>
<path style="fill-rule:nonzero;fill:rgb(84.999084%,84.999084%,84.999084%);fill-opacity:0.6;stroke-width:1;stroke-linecap:square;stroke-linejoin:miter;stroke:rgb(50%,50%,50%);stroke-opacity:1;stroke-miterlimit:3.25;" d="M 370.269531 320.746094 L 368.753906 320.90625 L 369.273438 322.4375 Z M 370.269531 320.746094 " transform="matrix(1,0,0,1,-74,-13)"/>
<path style="fill-rule:nonzero;fill:rgb(84.999084%,84.999084%,84.999084%);fill-opacity:0.6;stroke-width:1;stroke-linecap:square;stroke-linejoin:miter;stroke:rgb(50%,50%,50%);stroke-opacity:1;stroke-miterlimit:3.25;" d="M 370.726562 319.105469 L 370.269531 320.746094 L 369.21875 325.90625 Z M 370.726562 319.105469 " transform="matrix(1,0,0,1,-74,-13)"/>
<path style="fill-rule:nonzero;fill:rgb(84.999084%,84.999084%,84.999084%);fill-opacity:0.6;stroke-width:1;stroke-linecap:square;stroke-linejoin:miter;stroke:rgb(50%,50%,50%);stroke-opacity:1;stroke-miterlimit:3.25;" d="M 370.269531 320.746094 L 368.648438 320.382812 L 368.753906 320.90625 Z M 370.269531 320.746094 " transform="matrix(1,0,0,1,-74,-13)"/>
<path style="fill-rule:nonzero;fill:rgb(84.999084%,84.999084%,84.999084%);fill-opacity:0.6;stroke-width:1;stroke-linecap:square;stroke-linejoin:miter;stroke:rgb(50%,50%,50%);stroke-opacity:1;stroke-miterlimit:3.25;" d="M 369.273438 322.4375 L 366.171875 321.726562 L 369.21875 325.90625 Z M 369.273438 322.4375 " transform="matrix(1,0,0,1,-74,-13)"/>
<path style="fill-rule:nonzero;fill:rgb(84.999084%,84.999084%,84.999084%);fill-opacity:0.6;stroke-width:1;stroke-linecap:square;stroke-linejoin:miter;stroke:rgb(50%,50%,50%);stroke-opacity:1;stroke-miterlimit:3.25;" d="M 89.445312 305.015625 L 369.21875 325.90625 L 296.675781 267.757812 Z M 89.445312 305.015625 " transform="matrix(1,0,0,1,-74,-13)"/>
<path style="fill-rule:nonzero;fill:rgb(84.999084%,84.999084%,84.999084%);fill-opacity:0.6;stroke-width:1;stroke-linecap:square;stroke-linejoin:miter;stroke:rgb(50%,50%,50%);stroke-opacity:1;stroke-miterlimit:3.25;" d="M 297 267.445312 L 370.726562 319.105469 L 387.773438 125.777344 Z M 297 267.445312 " transform="matrix(1,0,0,1,-74,-13)"/>
<path style="fill-rule:nonzero;fill:rgb(84.999084%,84.999084%,84.999084%);fill-opacity:0.6;stroke-width:1;stroke-linecap:square;stroke-linejoin:miter;stroke:rgb(50%,50%,50%);stroke-opacity:1;stroke-miterlimit:3.25;" d="M 376.253906 113.105469 L 385.339844 121.136719 L 378.28125 113.746094 Z M 376.253906 113.105469 " transform="matrix(1,0,0,1,-74,-13)"/>
<path style="fill-rule:nonzero;fill:rgb(84.999084%,84.999084%,84.999084%);fill-opacity:0.6;stroke-width:1;stroke-linecap:square;stroke-linejoin:miter;stroke:rgb(50%,50%,50%);stroke-opacity:1;stroke-miterlimit:3.25;" d="M 376.253906 113.105469 L 281.519531 205.199219 L 387.773438 125.777344 Z M 376.253906 113.105469 " transform="matrix(1,0,0,1,-74,-13)"/>
<path style="fill-rule:nonzero;fill:rgb(84.999084%,84.999084%,84.999084%);fill-opacity:0.6;stroke-width:1;stroke-linecap:square;stroke-linejoin:miter;stroke:rgb(50%,50%,50%);stroke-opacity:1;stroke-miterlimit:3.25;" d="M 349.230469 32.726562 L 376.253906 113.105469 L 352.289062 30.648438 Z M 349.230469 32.726562 " transform="matrix(1,0,0,1,-74,-13)"/>
<path style="fill-rule:nonzero;fill:rgb(84.999084%,84.999084%,84.999084%);fill-opacity:0.6;stroke-width:1;stroke-linecap:square;stroke-linejoin:miter;stroke:rgb(50%,50%,50%);stroke-opacity:1;stroke-miterlimit:3.25;" d="M 349.230469 32.726562 L 275.429688 204.421875 L 376.253906 113.105469 Z M 349.230469 32.726562 " transform="matrix(1,0,0,1,-74,-13)"/>
<path style="fill-rule:nonzero;fill:rgb(84.999084%,84.999084%,84.999084%);fill-opacity:0.6;stroke-width:1;stroke-linecap:square;stroke-linejoin:miter;stroke:rgb(50%,50%,50%);stroke-opacity:1;stroke-miterlimit:3.25;" d="M 419.105469 22.367188 L 352.289062 30.648438 L 376.253906 113.105469 Z M 419.105469 22.367188 " transform="matrix(1,0,0,1,-74,-13)"/>
<path style="fill-rule:nonzero;fill:rgb(84.999084%,84.999084%,84.999084%);fill-opacity:0.6;stroke-width:1;stroke-linecap:square;stroke-linejoin:miter;stroke:rgb(50%,50%,50%);stroke-opacity:1;stroke-miterlimit:3.25;" d="M 349.230469 32.726562 L 352.289062 30.648438 L 116.320312 83.09375 Z M 349.230469 32.726562 " transform="matrix(1,0,0,1,-74,-13)"/>
<path style="fill-rule:nonzero;fill:rgb(84.999084%,84.999084%,84.999084%);fill-opacity:0.6;stroke-width:1;stroke-linecap:square;stroke-linejoin:miter;stroke:rgb(50%,50%,50%);stroke-opacity:1;stroke-miterlimit:3.25;" d="M 376.253906 113.105469 L 378.28125 113.746094 L 419.105469 22.367188 Z M 376.253906 113.105469 " transform="matrix(1,0,0,1,-74,-13)"/>
<path style="fill-rule:nonzero;fill:rgb(84.999084%,84.999084%,84.999084%);fill-opacity:0.6;stroke-width:1;stroke-linecap:square;stroke-linejoin:miter;stroke:rgb(50%,50%,50%);stroke-opacity:1;stroke-miterlimit:3.25;" d="M 297 267.445312 L 282.089844 213.824219 L 290.535156 259.792969 Z M 297 267.445312 " transform="matrix(1,0,0,1,-74,-13)"/>
<path style="fill-rule:nonzero;fill:rgb(84.999084%,84.999084%,84.999084%);fill-opacity:0.6;stroke-width:1;stroke-linecap:square;stroke-linejoin:miter;stroke:rgb(50%,50%,50%);stroke-opacity:1;stroke-miterlimit:3.25;" d="M 385.339844 121.136719 L 387.773438 125.777344 L 422.015625 23.320312 Z M 385.339844 121.136719 " transform="matrix(1,0,0,1,-74,-13)"/>
<path style="fill-rule:nonzero;fill:rgb(84.999084%,84.999084%,84.999084%);fill-opacity:0.6;stroke-width:1;stroke-linecap:square;stroke-linejoin:miter;stroke:rgb(50%,50%,50%);stroke-opacity:1;stroke-miterlimit:3.25;" d="M 387.773438 125.777344 L 385.339844 121.136719 L 376.253906 113.105469 Z M 387.773438 125.777344 " transform="matrix(1,0,0,1,-74,-13)"/>
<path style="fill-rule:nonzero;fill:rgb(84.999084%,84.999084%,84.999084%);fill-opacity:0.6;stroke-width:1;stroke-linecap:square;stroke-linejoin:miter;stroke:rgb(50%,50%,50%);stroke-opacity:1;stroke-miterlimit:3.25;" d="M 419.105469 22.367188 L 422.015625 23.320312 L 421.425781 22.191406 Z M 419.105469 22.367188 " transform="matrix(1,0,0,1,-74,-13)"/>
<path style="fill-rule:nonzero;fill:rgb(84.999084%,84.999084%,84.999084%);fill-opacity:0.6;stroke-width:1;stroke-linecap:square;stroke-linejoin:miter;stroke:rgb(50%,50%,50%);stroke-opacity:1;stroke-miterlimit:3.25;" d="M 419.105469 22.367188 L 378.28125 113.746094 L 422.015625 23.320312 Z M 419.105469 22.367188 " transform="matrix(1,0,0,1,-74,-13)"/>
<path style="fill-rule:nonzero;fill:rgb(84.999084%,84.999084%,84.999084%);fill-opacity:0.6;stroke-width:1;stroke-linecap:square;stroke-linejoin:miter;stroke:rgb(50%,50%,50%);stroke-opacity:1;stroke-miterlimit:3.25;" d="M 387.773438 125.777344 L 370.726562 319.105469 L 422.015625 23.320312 Z M 387.773438 125.777344 " transform="matrix(1,0,0,1,-74,-13)"/>
<path style="fill-rule:nonzero;fill:rgb(84.999084%,84.999084%,84.999084%);fill-opacity:0.6;stroke-width:1;stroke-linecap:square;stroke-linejoin:miter;stroke:rgb(50%,50%,50%);stroke-opacity:1;stroke-miterlimit:3.25;" d="M 422.015625 23.320312 L 378.28125 113.746094 L 385.339844 121.136719 Z M 422.015625 23.320312 " transform="matrix(1,0,0,1,-74,-13)"/>
<path style="fill-rule:nonzero;fill:rgb(84.999084%,84.999084%,84.999084%);fill-opacity:0.6;stroke-width:1;stroke-linecap:square;stroke-linejoin:miter;stroke:rgb(50%,50%,50%);stroke-opacity:1;stroke-miterlimit:3.25;" d="M 297 267.445312 L 387.773438 125.777344 L 282.089844 213.824219 Z M 297 267.445312 " transform="matrix(1,0,0,1,-74,-13)"/>
<path style="fill-rule:nonzero;fill:rgb(84.999084%,84.999084%,84.999084%);fill-opacity:0.6;stroke-width:1;stroke-linecap:square;stroke-linejoin:miter;stroke:rgb(50%,50%,50%);stroke-opacity:1;stroke-miterlimit:3.25;" d="M 290.535156 259.792969 L 273.332031 209.894531 L 289.355469 262.59375 Z M 290.535156 259.792969 " transform="matrix(1,0,0,1,-74,-13)"/>
<path style=" stroke:none;fill-rule:evenodd;fill:rgb(99.998474%,0%,0%);fill-opacity:1;" d="M 296.789062 313 C 296.789062 312.523438 296.601562 312.070312 296.265625 311.734375 C 295.929688 311.398438 295.476562 311.210938 295 311.210938 C 294.523438 311.210938 294.070312 311.398438 293.734375 311.734375 C 293.398438 312.070312 293.210938 312.523438 293.210938 313 C 293.210938 313.476562 293.398438 313.929688 293.734375 314.265625 C 294.070312 314.601562 294.523438 314.789062 295 314.789062 C 295.476562 314.789062 295.929688 314.601562 296.265625 314.265625 C 296.601562 313.929688 296.789062 313.476562 296.789062 313 Z M 296.789062 313 "/>
<path style=" stroke:none;fill-rule:evenodd;fill:rgb(99.998474%,0%,0%);fill-opacity:1;" d="M 296.789062 309 C 296.789062 308.523438 296.601562 308.070312 296.265625 307.734375 C 295.929688 307.398438 295.476562 307.210938 295 307.210938 C 294.523438 307.210938 294.070312 307.398438 293.734375 307.734375 C 293.398438 308.070312 293.210938 308.523438 293.210938 309 C 293.210938 309.476562 293.398438 309.929688 293.734375 310.265625 C 294.070312 310.601562 294.523438 310.789062 295 310.789062 C 295.476562 310.789062 295.929688 310.601562 296.265625 310.265625 C 296.601562 309.929688 296.789062 309.476562 296.789062 309 Z M 296.789062 309 "/>
<path style=" stroke:none;fill-rule:evenodd;fill:rgb(99.998474%,0%,0%);fill-opacity:1;" d="M 293.789062 309 C 293.789062 308.523438 293.601562 308.070312 293.265625 307.734375 C 292.929688 307.398438 292.476562 307.210938 292 307.210938 C 291.523438 307.210938 291.070312 307.398438 290.734375 307.734375 C 290.398438 308.070312 290.210938 308.523438 290.210938 309 C 290.210938 309.476562 290.398438 309.929688 290.734375 310.265625 C 291.070312 310.601562 291.523438 310.789062 292 310.789062 C 292.476562 310.789062 292.929688 310.601562 293.265625 310.265625 C 293.601562 309.929688 293.789062 309.476562 293.789062 309 Z M 293.789062 309 "/>
<path style=" stroke:none;fill-rule:evenodd;fill:rgb(99.998474%,0%,0%);fill-opacity:1;" d="M 296.789062 308 C 296.789062 307.523438 296.601562 307.070312 296.265625 306.734375 C 295.929688 306.398438 295.476562 306.210938 295 306.210938 C 294.523438 306.210938 294.070312 306.398438 293.734375 306.734375 C 293.398438 307.070312 293.210938 307.523438 293.210938 308 C 293.210938 308.476562 293.398438 308.929688 293.734375 309.265625 C 294.070312 309.601562 294.523438 309.789062 295 309.789062 C 295.476562 309.789062 295.929688 309.601562 296.265625 309.265625 C 296.601562 308.929688 296.789062 308.476562 296.789062 308 Z M 296.789062 308 "/>
<path style=" stroke:none;fill-rule:evenodd;fill:rgb(99.998474%,0%,0%);fill-opacity:1;" d="M 297.789062 308 C 297.789062 307.523438 297.601562 307.070312 297.265625 306.734375 C 296.929688 306.398438 296.476562 306.210938 296 306.210938 C 295.523438 306.210938 295.070312 306.398438 294.734375 306.734375 C 294.398438 307.070312 294.210938 307.523438 294.210938 308 C 294.210938 308.476562 294.398438 308.929688 294.734375 309.265625 C 295.070312 309.601562 295.523438 309.789062 296 309.789062 C 296.476562 309.789062 296.929688 309.601562 297.265625 309.265625 C 297.601562 308.929688 297.789062 308.476562 297.789062 308 Z M 297.789062 308 "/>
<path style=" stroke:none;fill-rule:evenodd;fill:rgb(99.998474%,0%,0%);fill-opacity:1;" d="M 296.789062 307 C 296.789062 306.523438 296.601562 306.070312 296.265625 305.734375 C 295.929688 305.398438 295.476562 305.210938 295 305.210938 C 294.523438 305.210938 294.070312 305.398438 293.734375 305.734375 C 293.398438 306.070312 293.210938 306.523438 293.210938 307 C 293.210938 307.476562 293.398438 307.929688 293.734375 308.265625 C 294.070312 308.601562 294.523438 308.789062 295 308.789062 C 295.476562 308.789062 295.929688 308.601562 296.265625 308.265625 C 296.601562 307.929688 296.789062 307.476562 296.789062 307 Z M 296.789062 307 "/>
<path style=" stroke:none;fill-rule:evenodd;fill:rgb(99.998474%,0%,0%);fill-opacity:1;" d="M 298.789062 306 C 298.789062 305.523438 298.601562 305.070312 298.265625 304.734375 C 297.929688 304.398438 297.476562 304.210938 297 304.210938 C 296.523438 304.210938 296.070312 304.398438 295.734375 304.734375 C 295.398438 305.070312 295.210938 305.523438 295.210938 306 C 295.210938 306.476562 295.398438 306.929688 295.734375 307.265625 C 296.070312 307.601562 296.523438 307.789062 297 307.789062 C 297.476562 307.789062 297.929688 307.601562 298.265625 307.265625 C 298.601562 306.929688 298.789062 306.476562 298.789062 306 Z M 298.789062 306 "/>
<path style=" stroke:none;fill-rule:evenodd;fill:rgb(99.998474%,0%,0%);fill-opacity:1;" d="M 13.789062 294 C 13.789062 293.523438 13.601562 293.070312 13.265625 292.734375 C 12.929688 292.398438 12.476562 292.210938 12 292.210938 C 11.523438 292.210938 11.070312 292.398438 10.734375 292.734375 C 10.398438 293.070312 10.210938 293.523438 10.210938 294 C 10.210938 294.476562 10.398438 294.929688 10.734375 295.265625 C 11.070312 295.601562 11.523438 295.789062 12 295.789062 C 12.476562 295.789062 12.929688 295.601562 13.265625 295.265625 C 13.601562 294.929688 13.789062 294.476562 13.789062 294 Z M 13.789062 294 "/>
<path style=" stroke:none;fill-rule:evenodd;fill:rgb(99.998474%,0%,0%);fill-opacity:1;" d="M 14.789062 292 C 14.789062 291.523438 14.601562 291.070312 14.265625 290.734375 C 13.929688 290.398438 13.476562 290.210938 13 290.210938 C 12.523438 290.210938 12.070312 290.398438 11.734375 290.734375 C 11.398438 291.070312 11.210938 291.523438 11.210938 292 C 11.210938 292.476562 11.398438 292.929688 11.734375 293.265625 C 12.070312 293.601562 12.523438 293.789062 13 293.789062 C 13.476562 293.789062 13.929688 293.601562 14.265625 293.265625 C 14.601562 292.929688 14.789062 292.476562 14.789062 292 Z M 14.789062 292 "/>
<path style=" stroke:none;fill-rule:evenodd;fill:rgb(99.998474%,0%,0%);fill-opacity:1;" d="M 16.789062 292 C 16.789062 291.523438 16.601562 291.070312 16.265625 290.734375 C 15.929688 290.398438 15.476562 290.210938 15 290.210938 C 14.523438 290.210938 14.070312 290.398438 13.734375 290.734375 C 13.398438 291.070312 13.210938 291.523438 13.210938 292 C 13.210938 292.476562 13.398438 292.929688 13.734375 293.265625 C 14.070312 293.601562 14.523438 293.789062 15 293.789062 C 15.476562 293.789062 15.929688 293.601562 16.265625 293.265625 C 16.601562 292.929688 16.789062 292.476562 16.789062 292 Z M 16.789062 292 "/>
<path style=" stroke:none;fill-rule:evenodd;fill:rgb(99.998474%,0%,0%);fill-opacity:1;" d="M 16.789062 292 C 16.789062 291.523438 16.601562 291.070312 16.265625 290.734375 C 15.929688 290.398438 15.476562 290.210938 15 290.210938 C 14.523438 290.210938 14.070312 290.398438 13.734375 290.734375 C 13.398438 291.070312 13.210938 291.523438 13.210938 292 C 13.210938 292.476562 13.398438 292.929688 13.734375 293.265625 C 14.070312 293.601562 14.523438 293.789062 15 293.789062 C 15.476562 293.789062 15.929688 293.601562 16.265625 293.265625 C 16.601562 292.929688 16.789062 292.476562 16.789062 292 Z M 16.789062 292 "/>
<path style=" stroke:none;fill-rule:evenodd;fill:rgb(99.998474%,0%,0%);fill-opacity:1;" d="M 224.789062 255 C 224.789062 254.523438 224.601562 254.070312 224.265625 253.734375 C 223.929688 253.398438 223.476562 253.210938 223 253.210938 C 222.523438 253.210938 222.070312 253.398438 221.734375 253.734375 C 221.398438 254.070312 221.210938 254.523438 221.210938 255 C 221.210938 255.476562 221.398438 255.929688 221.734375 256.265625 C 222.070312 256.601562 222.523438 256.789062 223 256.789062 C 223.476562 256.789062 223.929688 256.601562 224.265625 256.265625 C 224.601562 255.929688 224.789062 255.476562 224.789062 255 Z M 224.789062 255 "/>
<path style=" stroke:none;fill-rule:evenodd;fill:rgb(99.998474%,0%,0%);fill-opacity:1;" d="M 224.789062 254 C 224.789062 253.523438 224.601562 253.070312 224.265625 252.734375 C 223.929688 252.398438 223.476562 252.210938 223 252.210938 C 222.523438 252.210938 222.070312 252.398438 221.734375 252.734375 C 221.398438 253.070312 221.210938 253.523438 221.210938 254 C 221.210938 254.476562 221.398438 254.929688 221.734375 255.265625 C 222.070312 255.601562 222.523438 255.789062 223 255.789062 C 223.476562 255.789062 223.929688 255.601562 224.265625 255.265625 C 224.601562 254.929688 224.789062 254.476562 224.789062 254 Z M 224.789062 254 "/>
<path style=" stroke:none;fill-rule:evenodd;fill:rgb(99.998474%,0%,0%);fill-opacity:1;" d="M 216.789062 250 C 216.789062 249.523438 216.601562 249.070312 216.265625 248.734375 C 215.929688 248.398438 215.476562 248.210938 215 248.210938 C 214.523438 248.210938 214.070312 248.398438 213.734375 248.734375 C 213.398438 249.070312 213.210938 249.523438 213.210938 250 C 213.210938 250.476562 213.398438 250.929688 213.734375 251.265625 C 214.070312 251.601562 214.523438 251.789062 215 251.789062 C 215.476562 251.789062 215.929688 251.601562 216.265625 251.265625 C 216.601562 250.929688 216.789062 250.476562 216.789062 250 Z M 216.789062 250 "/>
<path style=" stroke:none;fill-rule:evenodd;fill:rgb(99.998474%,0%,0%);fill-opacity:1;" d="M 218.789062 247 C 218.789062 246.523438 218.601562 246.070312 218.265625 245.734375 C 217.929688 245.398438 217.476562 245.210938 217 245.210938 C 216.523438 245.210938 216.070312 245.398438 215.734375 245.734375 C 215.398438 246.070312 215.210938 246.523438 215.210938 247 C 215.210938 247.476562 215.398438 247.929688 215.734375 248.265625 C 216.070312 248.601562 216.523438 248.789062 217 248.789062 C 217.476562 248.789062 217.929688 248.601562 218.265625 248.265625 C 218.601562 247.929688 218.789062 247.476562 218.789062 247 Z M 218.789062 247 "/>
<path style=" stroke:none;fill-rule:evenodd;fill:rgb(99.998474%,0%,0%);fill-opacity:1;" d="M 23.789062 208 C 23.789062 207.523438 23.601562 207.070312 23.265625 206.734375 C 22.929688 206.398438 22.476562 206.210938 22 206.210938 C 21.523438 206.210938 21.070312 206.398438 20.734375 206.734375 C 20.398438 207.070312 20.210938 207.523438 20.210938 208 C 20.210938 208.476562 20.398438 208.929688 20.734375 209.265625 C 21.070312 209.601562 21.523438 209.789062 22 209.789062 C 22.476562 209.789062 22.929688 209.601562 23.265625 209.265625 C 23.601562 208.929688 23.789062 208.476562 23.789062 208 Z M 23.789062 208 "/>
<path style=" stroke:none;fill-rule:evenodd;fill:rgb(99.998474%,0%,0%);fill-opacity:1;" d="M 24.789062 208 C 24.789062 207.523438 24.601562 207.070312 24.265625 206.734375 C 23.929688 206.398438 23.476562 206.210938 23 206.210938 C 22.523438 206.210938 22.070312 206.398438 21.734375 206.734375 C 21.398438 207.070312 21.210938 207.523438 21.210938 208 C 21.210938 208.476562 21.398438 208.929688 21.734375 209.265625 C 22.070312 209.601562 22.523438 209.789062 23 209.789062 C 23.476562 209.789062 23.929688 209.601562 24.265625 209.265625 C 24.601562 208.929688 24.789062 208.476562 24.789062 208 Z M 24.789062 208 "/>
<path style=" stroke:none;fill-rule:evenodd;fill:rgb(99.998474%,0%,0%);fill-opacity:1;" d="M 209.789062 201 C 209.789062 200.523438 209.601562 200.070312 209.265625 199.734375 C 208.929688 199.398438 208.476562 199.210938 208 199.210938 C 207.523438 199.210938 207.070312 199.398438 206.734375 199.734375 C 206.398438 200.070312 206.210938 200.523438 206.210938 201 C 206.210938 201.476562 206.398438 201.929688 206.734375 202.265625 C 207.070312 202.601562 207.523438 202.789062 208 202.789062 C 208.476562 202.789062 208.929688 202.601562 209.265625 202.265625 C 209.601562 201.929688 209.789062 201.476562 209.789062 201 Z M 209.789062 201 "/>
<path style=" stroke:none;fill-rule:evenodd;fill:rgb(99.998474%,0%,0%);fill-opacity:1;" d="M 208.789062 199 C 208.789062 198.523438 208.601562 198.070312 208.265625 197.734375 C 207.929688 197.398438 207.476562 197.210938 207 197.210938 C 206.523438 197.210938 206.070312 197.398438 205.734375 197.734375 C 205.398438 198.070312 205.210938 198.523438 205.210938 199 C 205.210938 199.476562 205.398438 199.929688 205.734375 200.265625 C 206.070312 200.601562 206.523438 200.789062 207 200.789062 C 207.476562 200.789062 207.929688 200.601562 208.265625 200.265625 C 208.601562 199.929688 208.789062 199.476562 208.789062 199 Z M 208.789062 199 "/>
<path style=" stroke:none;fill-rule:evenodd;fill:rgb(99.998474%,0%,0%);fill-opacity:1;" d="M 200.789062 197 C 200.789062 196.523438 200.601562 196.070312 200.265625 195.734375 C 199.929688 195.398438 199.476562 195.210938 199 195.210938 C 198.523438 195.210938 198.070312 195.398438 197.734375 195.734375 C 197.398438 196.070312 197.210938 196.523438 197.210938 197 C 197.210938 197.476562 197.398438 197.929688 197.734375 198.265625 C 198.070312 198.601562 198.523438 198.789062 199 198.789062 C 199.476562 198.789062 199.929688 198.601562 200.265625 198.265625 C 200.601562 197.929688 200.789062 197.476562 200.789062 197 Z M 200.789062 197 "/>
<path style=" stroke:none;fill-rule:evenodd;fill:rgb(99.998474%,0%,0%);fill-opacity:1;" d="M 202.789062 194 C 202.789062 193.523438 202.601562 193.070312 202.265625 192.734375 C 201.929688 192.398438 201.476562 192.210938 201 192.210938 C 200.523438 192.210938 200.070312 192.398438 199.734375 192.734375 C 199.398438 193.070312 199.210938 193.523438 199.210938 194 C 199.210938 194.476562 199.398438 194.929688 199.734375 195.265625 C 200.070312 195.601562 200.523438 195.789062 201 195.789062 C 201.476562 195.789062 201.929688 195.601562 202.265625 195.265625 C 202.601562 194.929688 202.789062 194.476562 202.789062 194 Z M 202.789062 194 "/>
<path style=" stroke:none;fill-rule:evenodd;fill:rgb(99.998474%,0%,0%);fill-opacity:1;" d="M 205.789062 194 C 205.789062 193.523438 205.601562 193.070312 205.265625 192.734375 C 204.929688 192.398438 204.476562 192.210938 204 192.210938 C 203.523438 192.210938 203.070312 192.398438 202.734375 192.734375 C 202.398438 193.070312 202.210938 193.523438 202.210938 194 C 202.210938 194.476562 202.398438 194.929688 202.734375 195.265625 C 203.070312 195.601562 203.523438 195.789062 204 195.789062 C 204.476562 195.789062 204.929688 195.601562 205.265625 195.265625 C 205.601562 194.929688 205.789062 194.476562 205.789062 194 Z M 205.789062 194 "/>
<path style=" stroke:none;fill-rule:evenodd;fill:rgb(99.998474%,0%,0%);fill-opacity:1;" d="M 199.789062 192 C 199.789062 191.523438 199.601562 191.070312 199.265625 190.734375 C 198.929688 190.398438 198.476562 190.210938 198 190.210938 C 197.523438 190.210938 197.070312 190.398438 196.734375 190.734375 C 196.398438 191.070312 196.210938 191.523438 196.210938 192 C 196.210938 192.476562 196.398438 192.929688 196.734375 193.265625 C 197.070312 193.601562 197.523438 193.789062 198 193.789062 C 198.476562 193.789062 198.929688 193.601562 199.265625 193.265625 C 199.601562 192.929688 199.789062 192.476562 199.789062 192 Z M 199.789062 192 "/>
<path style=" stroke:none;fill-rule:evenodd;fill:rgb(99.998474%,0%,0%);fill-opacity:1;" d="M 209.789062 192 C 209.789062 191.523438 209.601562 191.070312 209.265625 190.734375 C 208.929688 190.398438 208.476562 190.210938 208 190.210938 C 207.523438 190.210938 207.070312 190.398438 206.734375 190.734375 C 206.398438 191.070312 206.210938 191.523438 206.210938 192 C 206.210938 192.476562 206.398438 192.929688 206.734375 193.265625 C 207.070312 193.601562 207.523438 193.789062 208 193.789062 C 208.476562 193.789062 208.929688 193.601562 209.265625 193.265625 C 209.601562 192.929688 209.789062 192.476562 209.789062 192 Z M 209.789062 192 "/>
<path style=" stroke:none;fill-rule:evenodd;fill:rgb(99.998474%,0%,0%);fill-opacity:1;" d="M 202.789062 191 C 202.789062 190.523438 202.601562 190.070312 202.265625 189.734375 C 201.929688 189.398438 201.476562 189.210938 201 189.210938 C 200.523438 189.210938 200.070312 189.398438 199.734375 189.734375 C 199.398438 190.070312 199.210938 190.523438 199.210938 191 C 199.210938 191.476562 199.398438 191.929688 199.734375 192.265625 C 200.070312 192.601562 200.523438 192.789062 201 192.789062 C 201.476562 192.789062 201.929688 192.601562 202.265625 192.265625 C 202.601562 191.929688 202.789062 191.476562 202.789062 191 Z M 202.789062 191 "/>
<path style=" stroke:none;fill-rule:evenodd;fill:rgb(99.998474%,0%,0%);fill-opacity:1;" d="M 315.789062 113 C 315.789062 112.523438 315.601562 112.070312 315.265625 111.734375 C 314.929688 111.398438 314.476562 111.210938 314 111.210938 C 313.523438 111.210938 313.070312 111.398438 312.734375 111.734375 C 312.398438 112.070312 312.210938 112.523438 312.210938 113 C 312.210938 113.476562 312.398438 113.929688 312.734375 114.265625 C 313.070312 114.601562 313.523438 114.789062 314 114.789062 C 314.476562 114.789062 314.929688 114.601562 315.265625 114.265625 C 315.601562 113.929688 315.789062 113.476562 315.789062 113 Z M 315.789062 113 "/>
<path style=" stroke:none;fill-rule:evenodd;fill:rgb(99.998474%,0%,0%);fill-opacity:1;" d="M 312.789062 108 C 312.789062 107.523438 312.601562 107.070312 312.265625 106.734375 C 311.929688 106.398438 311.476562 106.210938 311 106.210938 C 310.523438 106.210938 310.070312 106.398438 309.734375 106.734375 C 309.398438 107.070312 309.210938 107.523438 309.210938 108 C 309.210938 108.476562 309.398438 108.929688 309.734375 109.265625 C 310.070312 109.601562 310.523438 109.789062 311 109.789062 C 311.476562 109.789062 311.929688 109.601562 312.265625 109.265625 C 312.601562 108.929688 312.789062 108.476562 312.789062 108 Z M 312.789062 108 "/>
<path style=" stroke:none;fill-rule:evenodd;fill:rgb(99.998474%,0%,0%);fill-opacity:1;" d="M 305.789062 101 C 305.789062 100.523438 305.601562 100.070312 305.265625 99.734375 C 304.929688 99.398438 304.476562 99.210938 304 99.210938 C 303.523438 99.210938 303.070312 99.398438 302.734375 99.734375 C 302.398438 100.070312 302.210938 100.523438 302.210938 101 C 302.210938 101.476562 302.398438 101.929688 302.734375 102.265625 C 303.070312 102.601562 303.523438 102.789062 304 102.789062 C 304.476562 102.789062 304.929688 102.601562 305.265625 102.265625 C 305.601562 101.929688 305.789062 101.476562 305.789062 101 Z M 305.789062 101 "/>
<path style=" stroke:none;fill-rule:evenodd;fill:rgb(99.998474%,0%,0%);fill-opacity:1;" d="M 303.789062 100 C 303.789062 99.523438 303.601562 99.070312 303.265625 98.734375 C 302.929688 98.398438 302.476562 98.210938 302 98.210938 C 301.523438 98.210938 301.070312 98.398438 300.734375 98.734375 C 300.398438 99.070312 300.210938 99.523438 300.210938 100 C 300.210938 100.476562 300.398438 100.929688 300.734375 101.265625 C 301.070312 101.601562 301.523438 101.789062 302 101.789062 C 302.476562 101.789062 302.929688 101.601562 303.265625 101.265625 C 303.601562 100.929688 303.789062 100.476562 303.789062 100 Z M 303.789062 100 "/>
<path style=" stroke:none;fill-rule:evenodd;fill:rgb(99.998474%,0%,0%);fill-opacity:1;" d="M 80.789062 87 C 80.789062 86.523438 80.601562 86.070312 80.265625 85.734375 C 79.929688 85.398438 79.476562 85.210938 79 85.210938 C 78.523438 85.210938 78.070312 85.398438 77.734375 85.734375 C 77.398438 86.070312 77.210938 86.523438 77.210938 87 C 77.210938 87.476562 77.398438 87.929688 77.734375 88.265625 C 78.070312 88.601562 78.523438 88.789062 79 88.789062 C 79.476562 88.789062 79.929688 88.601562 80.265625 88.265625 C 80.601562 87.929688 80.789062 87.476562 80.789062 87 Z M 80.789062 87 "/>
<path style=" stroke:none;fill-rule:evenodd;fill:rgb(99.998474%,0%,0%);fill-opacity:1;" d="M 41.789062 76 C 41.789062 75.523438 41.601562 75.070312 41.265625 74.734375 C 40.929688 74.398438 40.476562 74.210938 40 74.210938 C 39.523438 74.210938 39.070312 74.398438 38.734375 74.734375 C 38.398438 75.070312 38.210938 75.523438 38.210938 76 C 38.210938 76.476562 38.398438 76.929688 38.734375 77.265625 C 39.070312 77.601562 39.523438 77.789062 40 77.789062 C 40.476562 77.789062 40.929688 77.601562 41.265625 77.265625 C 41.601562 76.929688 41.789062 76.476562 41.789062 76 Z M 41.789062 76 "/>
<path style=" stroke:none;fill-rule:evenodd;fill:rgb(99.998474%,0%,0%);fill-opacity:1;" d="M 44.789062 73 C 44.789062 72.523438 44.601562 72.070312 44.265625 71.734375 C 43.929688 71.398438 43.476562 71.210938 43 71.210938 C 42.523438 71.210938 42.070312 71.398438 41.734375 71.734375 C 41.398438 72.070312 41.210938 72.523438 41.210938 73 C 41.210938 73.476562 41.398438 73.929688 41.734375 74.265625 C 42.070312 74.601562 42.523438 74.789062 43 74.789062 C 43.476562 74.789062 43.929688 74.601562 44.265625 74.265625 C 44.601562 73.929688 44.789062 73.476562 44.789062 73 Z M 44.789062 73 "/>
<path style=" stroke:none;fill-rule:evenodd;fill:rgb(99.998474%,0%,0%);fill-opacity:1;" d="M 44.789062 72 C 44.789062 71.523438 44.601562 71.070312 44.265625 70.734375 C 43.929688 70.398438 43.476562 70.210938 43 70.210938 C 42.523438 70.210938 42.070312 70.398438 41.734375 70.734375 C 41.398438 71.070312 41.210938 71.523438 41.210938 72 C 41.210938 72.476562 41.398438 72.929688 41.734375 73.265625 C 42.070312 73.601562 42.523438 73.789062 43 73.789062 C 43.476562 73.789062 43.929688 73.601562 44.265625 73.265625 C 44.601562 72.929688 44.789062 72.476562 44.789062 72 Z M 44.789062 72 "/>
<path style=" stroke:none;fill-rule:evenodd;fill:rgb(99.998474%,0%,0%);fill-opacity:1;" d="M 43.789062 70 C 43.789062 69.523438 43.601562 69.070312 43.265625 68.734375 C 42.929688 68.398438 42.476562 68.210938 42 68.210938 C 41.523438 68.210938 41.070312 68.398438 40.734375 68.734375 C 40.398438 69.070312 40.210938 69.523438 40.210938 70 C 40.210938 70.476562 40.398438 70.929688 40.734375 71.265625 C 41.070312 71.601562 41.523438 71.789062 42 71.789062 C 42.476562 71.789062 42.929688 71.601562 43.265625 71.265625 C 43.601562 70.929688 43.789062 70.476562 43.789062 70 Z M 43.789062 70 "/>
<path style=" stroke:none;fill-rule:evenodd;fill:rgb(99.998474%,0%,0%);fill-opacity:1;" d="M 276.789062 20 C 276.789062 19.523438 276.601562 19.070312 276.265625 18.734375 C 275.929688 18.398438 275.476562 18.210938 275 18.210938 C 274.523438 18.210938 274.070312 18.398438 273.734375 18.734375 C 273.398438 19.070312 273.210938 19.523438 273.210938 20 C 273.210938 20.476562 273.398438 20.929688 273.734375 21.265625 C 274.070312 21.601562 274.523438 21.789062 275 21.789062 C 275.476562 21.789062 275.929688 21.601562 276.265625 21.265625 C 276.601562 20.929688 276.789062 20.476562 276.789062 20 Z M 276.789062 20 "/>
<path style=" stroke:none;fill-rule:evenodd;fill:rgb(99.998474%,0%,0%);fill-opacity:1;" d="M 279.789062 18 C 279.789062 17.523438 279.601562 17.070312 279.265625 16.734375 C 278.929688 16.398438 278.476562 16.210938 278 16.210938 C 277.523438 16.210938 277.070312 16.398438 276.734375 16.734375 C 276.398438 17.070312 276.210938 17.523438 276.210938 18 C 276.210938 18.476562 276.398438 18.929688 276.734375 19.265625 C 277.070312 19.601562 277.523438 19.789062 278 19.789062 C 278.476562 19.789062 278.929688 19.601562 279.265625 19.265625 C 279.601562 18.929688 279.789062 18.476562 279.789062 18 Z M 279.789062 18 "/>
<path style=" stroke:none;fill-rule:evenodd;fill:rgb(99.998474%,0%,0%);fill-opacity:1;" d="M 349.789062 10 C 349.789062 9.523438 349.601562 9.070312 349.265625 8.734375 C 348.929688 8.398438 348.476562 8.210938 348 8.210938 C 347.523438 8.210938 347.070312 8.398438 346.734375 8.734375 C 346.398438 9.070312 346.210938 9.523438 346.210938 10 C 346.210938 10.476562 346.398438 10.929688 346.734375 11.265625 C 347.070312 11.601562 347.523438 11.789062 348 11.789062 C 348.476562 11.789062 348.929688 11.601562 349.265625 11.265625 C 349.601562 10.929688 349.789062 10.476562 349.789062 10 Z M 349.789062 10 "/>
<path style=" stroke:none;fill-rule:evenodd;fill:rgb(99.998474%,0%,0%);fill-opacity:1;" d="M 346.789062 9 C 346.789062 8.523438 346.601562 8.070312 346.265625 7.734375 C 345.929688 7.398438 345.476562 7.210938 345 7.210938 C 344.523438 7.210938 344.070312 7.398438 343.734375 7.734375 C 343.398438 8.070312 343.210938 8.523438 343.210938 9 C 343.210938 9.476562 343.398438 9.929688 343.734375 10.265625 C 344.070312 10.601562 344.523438 10.789062 345 10.789062 C 345.476562 10.789062 345.929688 10.601562 346.265625 10.265625 C 346.601562 9.929688 346.789062 9.476562 346.789062 9 Z M 346.789062 9 "/>
<path style=" stroke:none;fill-rule:evenodd;fill:rgb(99.998474%,0%,0%);fill-opacity:1;" d="M 348.789062 9 C 348.789062 8.523438 348.601562 8.070312 348.265625 7.734375 C 347.929688 7.398438 347.476562 7.210938 347 7.210938 C 346.523438 7.210938 346.070312 7.398438 345.734375 7.734375 C 345.398438 8.070312 345.210938 8.523438 345.210938 9 C 345.210938 9.476562 345.398438 9.929688 345.734375 10.265625 C 346.070312 10.601562 346.523438 10.789062 347 10.789062 C 347.476562 10.789062 347.929688 10.601562 348.265625 10.265625 C 348.601562 9.929688 348.789062 9.476562 348.789062 9 Z M 348.789062 9 "/>
<path style=" stroke:none;fill-rule:evenodd;fill:rgb(99.998474%,0%,0%);fill-opacity:1;" d="M 296.5 313 C 296.5 312.601562 296.34375 312.21875 296.0625 311.9375 C 295.78125 311.65625 295.398438 311.5 295 311.5 C 294.601562 311.5 294.21875 311.65625 293.9375 311.9375 C 293.65625 312.21875 293.5 312.601562 293.5 313 C 293.5 313.398438 293.65625 313.78125 293.9375 314.0625 C 294.21875 314.34375 294.601562 314.5 295 314.5 C 295.398438 314.5 295.78125 314.34375 296.0625 314.0625 C 296.34375 313.78125 296.5 313.398438 296.5 313 Z M 296.5 313 "/>
<path style=" stroke:none;fill-rule:evenodd;fill:rgb(99.998474%,0%,0%);fill-opacity:1;" d="M 296.5 309 C 296.5 308.601562 296.34375 308.21875 296.0625 307.9375 C 295.78125 307.65625 295.398438 307.5 295 307.5 C 294.601562 307.5 294.21875 307.65625 293.9375 307.9375 C 293.65625 308.21875 293.5 308.601562 293.5 309 C 293.5 309.398438 293.65625 309.78125 293.9375 310.0625 C 294.21875 310.34375 294.601562 310.5 295 310.5 C 295.398438 310.5 295.78125 310.34375 296.0625 310.0625 C 296.34375 309.78125 296.5 309.398438 296.5 309 Z M 296.5 309 "/>
<path style=" stroke:none;fill-rule:evenodd;fill:rgb(99.998474%,0%,0%);fill-opacity:1;" d="M 293.5 309 C 293.5 308.601562 293.34375 308.21875 293.0625 307.9375 C 292.78125 307.65625 292.398438 307.5 292 307.5 C 291.601562 307.5 291.21875 307.65625 290.9375 307.9375 C 290.65625 308.21875 290.5 308.601562 290.5 309 C 290.5 309.398438 290.65625 309.78125 290.9375 310.0625 C 291.21875 310.34375 291.601562 310.5 292 310.5 C 292.398438 310.5 292.78125 310.34375 293.0625 310.0625 C 293.34375 309.78125 293.5 309.398438 293.5 309 Z M 293.5 309 "/>
<path style=" stroke:none;fill-rule:evenodd;fill:rgb(99.998474%,0%,0%);fill-opacity:1;" d="M 296.5 308 C 296.5 307.601562 296.34375 307.21875 296.0625 306.9375 C 295.78125 306.65625 295.398438 306.5 295 306.5 C 294.601562 306.5 294.21875 306.65625 293.9375 306.9375 C 293.65625 307.21875 293.5 307.601562 293.5 308 C 293.5 308.398438 293.65625 308.78125 293.9375 309.0625 C 294.21875 309.34375 294.601562 309.5 295 309.5 C 295.398438 309.5 295.78125 309.34375 296.0625 309.0625 C 296.34375 308.78125 296.5 308.398438 296.5 308 Z M 296.5 308 "/>
<path style=" stroke:none;fill-rule:evenodd;fill:rgb(99.998474%,0%,0%);fill-opacity:1;" d="M 297.5 308 C 297.5 307.601562 297.34375 307.21875 297.0625 306.9375 C 296.78125 306.65625 296.398438 306.5 296 306.5 C 295.601562 306.5 295.21875 306.65625 294.9375 306.9375 C 294.65625 307.21875 294.5 307.601562 294.5 308 C 294.5 308.398438 294.65625 308.78125 294.9375 309.0625 C 295.21875 309.34375 295.601562 309.5 296 309.5 C 296.398438 309.5 296.78125 309.34375 297.0625 309.0625 C 297.34375 308.78125 297.5 308.398438 297.5 308 Z M 297.5 308 "/>
<path style=" stroke:none;fill-rule:evenodd;fill:rgb(99.998474%,0%,0%);fill-opacity:1;" d="M 296.5 307 C 296.5 306.601562 296.34375 306.21875 296.0625 305.9375 C 295.78125 305.65625 295.398438 305.5 295 305.5 C 294.601562 305.5 294.21875 305.65625 293.9375 305.9375 C 293.65625 306.21875 293.5 306.601562 293.5 307 C 293.5 307.398438 293.65625 307.78125 293.9375 308.0625 C 294.21875 308.34375 294.601562 308.5 295 308.5 C 295.398438 308.5 295.78125 308.34375 296.0625 308.0625 C 296.34375 307.78125 296.5 307.398438 296.5 307 Z M 296.5 307 "/>
<path style=" stroke:none;fill-rule:evenodd;fill:rgb(99.998474%,0%,0%);fill-opacity:1;" d="M 298.5 306 C 298.5 305.601562 298.34375 305.21875 298.0625 304.9375 C 297.78125 304.65625 297.398438 304.5 297 304.5 C 296.601562 304.5 296.21875 304.65625 295.9375 304.9375 C 295.65625 305.21875 295.5 305.601562 295.5 306 C 295.5 306.398438 295.65625 306.78125 295.9375 307.0625 C 296.21875 307.34375 296.601562 307.5 297 307.5 C 297.398438 307.5 297.78125 307.34375 298.0625 307.0625 C 298.34375 306.78125 298.5 306.398438 298.5 306 Z M 298.5 306 "/>
<path style=" stroke:none;fill-rule:evenodd;fill:rgb(99.998474%,0%,0%);fill-opacity:1;" d="M 13.5 294 C 13.5 293.601562 13.34375 293.21875 13.0625 292.9375 C 12.78125 292.65625 12.398438 292.5 12 292.5 C 11.601562 292.5 11.21875 292.65625 10.9375 292.9375 C 10.65625 293.21875 10.5 293.601562 10.5 294 C 10.5 294.398438 10.65625 294.78125 10.9375 295.0625 C 11.21875 295.34375 11.601562 295.5 12 295.5 C 12.398438 295.5 12.78125 295.34375 13.0625 295.0625 C 13.34375 294.78125 13.5 294.398438 13.5 294 Z M 13.5 294 "/>
<path style=" stroke:none;fill-rule:evenodd;fill:rgb(99.998474%,0%,0%);fill-opacity:1;" d="M 14.5 292 C 14.5 291.601562 14.34375 291.21875 14.0625 290.9375 C 13.78125 290.65625 13.398438 290.5 13 290.5 C 12.601562 290.5 12.21875 290.65625 11.9375 290.9375 C 11.65625 291.21875 11.5 291.601562 11.5 292 C 11.5 292.398438 11.65625 292.78125 11.9375 293.0625 C 12.21875 293.34375 12.601562 293.5 13 293.5 C 13.398438 293.5 13.78125 293.34375 14.0625 293.0625 C 14.34375 292.78125 14.5 292.398438 14.5 292 Z M 14.5 292 "/>
<path style=" stroke:none;fill-rule:evenodd;fill:rgb(99.998474%,0%,0%);fill-opacity:1;" d="M 16.5 292 C 16.5 291.601562 16.34375 291.21875 16.0625 290.9375 C 15.78125 290.65625 15.398438 290.5 15 290.5 C 14.601562 290.5 14.21875 290.65625 13.9375 290.9375 C 13.65625 291.21875 13.5 291.601562 13.5 292 C 13.5 292.398438 13.65625 292.78125 13.9375 293.0625 C 14.21875 293.34375 14.601562 293.5 15 293.5 C 15.398438 293.5 15.78125 293.34375 16.0625 293.0625 C 16.34375 292.78125 16.5 292.398438 16.5 292 Z M 16.5 292 "/>
<path style=" stroke:none;fill-rule:evenodd;fill:rgb(99.998474%,0%,0%);fill-opacity:1;" d="M 16.5 292 C 16.5 291.601562 16.34375 291.21875 16.0625 290.9375 C 15.78125 290.65625 15.398438 290.5 15 290.5 C 14.601562 290.5 14.21875 290.65625 13.9375 290.9375 C 13.65625 291.21875 13.5 291.601562 13.5 292 C 13.5 292.398438 13.65625 292.78125 13.9375 293.0625 C 14.21875 293.34375 14.601562 293.5 15 293.5 C 15.398438 293.5 15.78125 293.34375 16.0625 293.0625 C 16.34375 292.78125 16.5 292.398438 16.5 292 Z M 16.5 292 "/>
<path style=" stroke:none;fill-rule:evenodd;fill:rgb(99.998474%,0%,0%);fill-opacity:1;" d="M 224.5 255 C 224.5 254.601562 224.34375 254.21875 224.0625 253.9375 C 223.78125 253.65625 223.398438 253.5 223 253.5 C 222.601562 253.5 222.21875 253.65625 221.9375 253.9375 C 221.65625 254.21875 221.5 254.601562 221.5 255 C 221.5 255.398438 221.65625 255.78125 221.9375 256.0625 C 222.21875 256.34375 222.601562 256.5 223 256.5 C 223.398438 256.5 223.78125 256.34375 224.0625 256.0625 C 224.34375 255.78125 224.5 255.398438 224.5 255 Z M 224.5 255 "/>
<path style=" stroke:none;fill-rule:evenodd;fill:rgb(99.998474%,0%,0%);fill-opacity:1;" d="M 224.5 254 C 224.5 253.601562 224.34375 253.21875 224.0625 252.9375 C 223.78125 252.65625 223.398438 252.5 223 252.5 C 222.601562 252.5 222.21875 252.65625 221.9375 252.9375 C 221.65625 253.21875 221.5 253.601562 221.5 254 C 221.5 254.398438 221.65625 254.78125 221.9375 255.0625 C 222.21875 255.34375 222.601562 255.5 223 255.5 C 223.398438 255.5 223.78125 255.34375 224.0625 255.0625 C 224.34375 254.78125 224.5 254.398438 224.5 254 Z M 224.5 254 "/>
<path style=" stroke:none;fill-rule:evenodd;fill:rgb(99.998474%,0%,0%);fill-opacity:1;" d="M 216.5 250 C 216.5 249.601562 216.34375 249.21875 216.0625 248.9375 C 215.78125 248.65625 215.398438 248.5 215 248.5 C 214.601562 248.5 214.21875 248.65625 213.9375 248.9375 C 213.65625 249.21875 213.5 249.601562 213.5 250 C 213.5 250.398438 213.65625 250.78125 213.9375 251.0625 C 214.21875 251.34375 214.601562 251.5 215 251.5 C 215.398438 251.5 215.78125 251.34375 216.0625 251.0625 C 216.34375 250.78125 216.5 250.398438 216.5 250 Z M 216.5 250 "/>
<path style=" stroke:none;fill-rule:evenodd;fill:rgb(99.998474%,0%,0%);fill-opacity:1;" d="M 218.5 247 C 218.5 246.601562 218.34375 246.21875 218.0625 245.9375 C 217.78125 245.65625 217.398438 245.5 217 245.5 C 216.601562 245.5 216.21875 245.65625 215.9375 245.9375 C 215.65625 246.21875 215.5 246.601562 215.5 247 C 215.5 247.398438 215.65625 247.78125 215.9375 248.0625 C 216.21875 248.34375 216.601562 248.5 217 248.5 C 217.398438 248.5 217.78125 248.34375 218.0625 248.0625 C 218.34375 247.78125 218.5 247.398438 218.5 247 Z M 218.5 247 "/>
<path style=" stroke:none;fill-rule:evenodd;fill:rgb(99.998474%,0%,0%);fill-opacity:1;" d="M 23.5 208 C 23.5 207.601562 23.34375 207.21875 23.0625 206.9375 C 22.78125 206.65625 22.398438 206.5 22 206.5 C 21.601562 206.5 21.21875 206.65625 20.9375 206.9375 C 20.65625 207.21875 20.5 207.601562 20.5 208 C 20.5 208.398438 20.65625 208.78125 20.9375 209.0625 C 21.21875 209.34375 21.601562 209.5 22 209.5 C 22.398438 209.5 22.78125 209.34375 23.0625 209.0625 C 23.34375 208.78125 23.5 208.398438 23.5 208 Z M 23.5 208 "/>
<path style=" stroke:none;fill-rule:evenodd;fill:rgb(99.998474%,0%,0%);fill-opacity:1;" d="M 24.5 208 C 24.5 207.601562 24.34375 207.21875 24.0625 206.9375 C 23.78125 206.65625 23.398438 206.5 23 206.5 C 22.601562 206.5 22.21875 206.65625 21.9375 206.9375 C 21.65625 207.21875 21.5 207.601562 21.5 208 C 21.5 208.398438 21.65625 208.78125 21.9375 209.0625 C 22.21875 209.34375 22.601562 209.5 23 209.5 C 23.398438 209.5 23.78125 209.34375 24.0625 209.0625 C 24.34375 208.78125 24.5 208.398438 24.5 208 Z M 24.5 208 "/>
<path style=" stroke:none;fill-rule:evenodd;fill:rgb(99.998474%,0%,0%);fill-opacity:1;" d="M 209.5 201 C 209.5 200.601562 209.34375 200.21875 209.0625 199.9375 C 208.78125 199.65625 208.398438 199.5 208 199.5 C 207.601562 199.5 207.21875 199.65625 206.9375 199.9375 C 206.65625 200.21875 206.5 200.601562 206.5 201 C 206.5 201.398438 206.65625 201.78125 206.9375 202.0625 C 207.21875 202.34375 207.601562 202.5 208 202.5 C 208.398438 202.5 208.78125 202.34375 209.0625 202.0625 C 209.34375 201.78125 209.5 201.398438 209.5 201 Z M 209.5 201 "/>
<path style=" stroke:none;fill-rule:evenodd;fill:rgb(99.998474%,0%,0%);fill-opacity:1;" d="M 208.5 199 C 208.5 198.601562 208.34375 198.21875 208.0625 197.9375 C 207.78125 197.65625 207.398438 197.5 207 197.5 C 206.601562 197.5 206.21875 197.65625 205.9375 197.9375 C 205.65625 198.21875 205.5 198.601562 205.5 199 C 205.5 199.398438 205.65625 199.78125 205.9375 200.0625 C 206.21875 200.34375 206.601562 200.5 207 200.5 C 207.398438 200.5 207.78125 200.34375 208.0625 200.0625 C 208.34375 199.78125 208.5 199.398438 208.5 199 Z M 208.5 199 "/>
<path style=" stroke:none;fill-rule:evenodd;fill:rgb(99.998474%,0%,0%);fill-opacity:1;" d="M 200.5 197 C 200.5 196.601562 200.34375 196.21875 200.0625 195.9375 C 199.78125 195.65625 199.398438 195.5 199 195.5 C 198.601562 195.5 198.21875 195.65625 197.9375 195.9375 C 197.65625 196.21875 197.5 196.601562 197.5 197 C 197.5 197.398438 197.65625 197.78125 197.9375 198.0625 C 198.21875 198.34375 198.601562 198.5 199 198.5 C 199.398438 198.5 199.78125 198.34375 200.0625 198.0625 C 200.34375 197.78125 200.5 197.398438 200.5 197 Z M 200.5 197 "/>
<path style=" stroke:none;fill-rule:evenodd;fill:rgb(99.998474%,0%,0%);fill-opacity:1;" d="M 202.5 194 C 202.5 193.601562 202.34375 193.21875 202.0625 192.9375 C 201.78125 192.65625 201.398438 192.5 201 192.5 C 200.601562 192.5 200.21875 192.65625 199.9375 192.9375 C 199.65625 193.21875 199.5 193.601562 199.5 194 C 199.5 194.398438 199.65625 194.78125 199.9375 195.0625 C 200.21875 195.34375 200.601562 195.5 201 195.5 C 201.398438 195.5 201.78125 195.34375 202.0625 195.0625 C 202.34375 194.78125 202.5 194.398438 202.5 194 Z M 202.5 194 "/>
<path style=" stroke:none;fill-rule:evenodd;fill:rgb(99.998474%,0%,0%);fill-opacity:1;" d="M 205.5 194 C 205.5 193.601562 205.34375 193.21875 205.0625 192.9375 C 204.78125 192.65625 204.398438 192.5 204 192.5 C 203.601562 192.5 203.21875 192.65625 202.9375 192.9375 C 202.65625 193.21875 202.5 193.601562 202.5 194 C 202.5 194.398438 202.65625 194.78125 202.9375 195.0625 C 203.21875 195.34375 203.601562 195.5 204 195.5 C 204.398438 195.5 204.78125 195.34375 205.0625 195.0625 C 205.34375 194.78125 205.5 194.398438 205.5 194 Z M 205.5 194 "/>
<path style=" stroke:none;fill-rule:evenodd;fill:rgb(99.998474%,0%,0%);fill-opacity:1;" d="M 199.5 192 C 199.5 191.601562 199.34375 191.21875 199.0625 190.9375 C 198.78125 190.65625 198.398438 190.5 198 190.5 C 197.601562 190.5 197.21875 190.65625 196.9375 190.9375 C 196.65625 191.21875 196.5 191.601562 196.5 192 C 196.5 192.398438 196.65625 192.78125 196.9375 193.0625 C 197.21875 193.34375 197.601562 193.5 198 193.5 C 198.398438 193.5 198.78125 193.34375 199.0625 193.0625 C 199.34375 192.78125 199.5 192.398438 199.5 192 Z M 199.5 192 "/>
<path style=" stroke:none;fill-rule:evenodd;fill:rgb(99.998474%,0%,0%);fill-opacity:1;" d="M 209.5 192 C 209.5 191.601562 209.34375 191.21875 209.0625 190.9375 C 208.78125 190.65625 208.398438 190.5 208 190.5 C 207.601562 190.5 207.21875 190.65625 206.9375 190.9375 C 206.65625 191.21875 206.5 191.601562 206.5 192 C 206.5 192.398438 206.65625 192.78125 206.9375 193.0625 C 207.21875 193.34375 207.601562 193.5 208 193.5 C 208.398438 193.5 208.78125 193.34375 209.0625 193.0625 C 209.34375 192.78125 209.5 192.398438 209.5 192 Z M 209.5 192 "/>
<path style=" stroke:none;fill-rule:evenodd;fill:rgb(99.998474%,0%,0%);fill-opacity:1;" d="M 202.5 191 C 202.5 190.601562 202.34375 190.21875 202.0625 189.9375 C 201.78125 189.65625 201.398438 189.5 201 189.5 C 200.601562 189.5 200.21875 189.65625 199.9375 189.9375 C 199.65625 190.21875 199.5 190.601562 199.5 191 C 199.5 191.398438 199.65625 191.78125 199.9375 192.0625 C 200.21875 192.34375 200.601562 192.5 201 192.5 C 201.398438 192.5 201.78125 192.34375 202.0625 192.0625 C 202.34375 191.78125 202.5 191.398438 202.5 191 Z M 202.5 191 "/>
<path style=" stroke:none;fill-rule:evenodd;fill:rgb(99.998474%,0%,0%);fill-opacity:1;" d="M 315.5 113 C 315.5 112.601562 315.34375 112.21875 315.0625 111.9375 C 314.78125 111.65625 314.398438 111.5 314 111.5 C 313.601562 111.5 313.21875 111.65625 312.9375 111.9375 C 312.65625 112.21875 312.5 112.601562 312.5 113 C 312.5 113.398438 312.65625 113.78125 312.9375 114.0625 C 313.21875 114.34375 313.601562 114.5 314 114.5 C 314.398438 114.5 314.78125 114.34375 315.0625 114.0625 C 315.34375 113.78125 315.5 113.398438 315.5 113 Z M 315.5 113 "/>
<path style=" stroke:none;fill-rule:evenodd;fill:rgb(99.998474%,0%,0%);fill-opacity:1;" d="M 312.5 108 C 312.5 107.601562 312.34375 107.21875 312.0625 106.9375 C 311.78125 106.65625 311.398438 106.5 311 106.5 C 310.601562 106.5 310.21875 106.65625 309.9375 106.9375 C 309.65625 107.21875 309.5 107.601562 309.5 108 C 309.5 108.398438 309.65625 108.78125 309.9375 109.0625 C 310.21875 109.34375 310.601562 109.5 311 109.5 C 311.398438 109.5 311.78125 109.34375 312.0625 109.0625 C 312.34375 108.78125 312.5 108.398438 312.5 108 Z M 312.5 108 "/>
<path style=" stroke:none;fill-rule:evenodd;fill:rgb(99.998474%,0%,0%);fill-opacity:1;" d="M 305.5 101 C 305.5 100.601562 305.34375 100.21875 305.0625 99.9375 C 304.78125 99.65625 304.398438 99.5 304 99.5 C 303.601562 99.5 303.21875 99.65625 302.9375 99.9375 C 302.65625 100.21875 302.5 100.601562 302.5 101 C 302.5 101.398438 302.65625 101.78125 302.9375 102.0625 C 303.21875 102.34375 303.601562 102.5 304 102.5 C 304.398438 102.5 304.78125 102.34375 305.0625 102.0625 C 305.34375 101.78125 305.5 101.398438 305.5 101 Z M 305.5 101 "/>
<path style=" stroke:none;fill-rule:evenodd;fill:rgb(99.998474%,0%,0%);fill-opacity:1;" d="M 303.5 100 C 303.5 99.601562 303.34375 99.21875 303.0625 98.9375 C 302.78125 98.65625 302.398438 98.5 302 98.5 C 301.601562 98.5 301.21875 98.65625 300.9375 98.9375 C 300.65625 99.21875 300.5 99.601562 300.5 100 C 300.5 100.398438 300.65625 100.78125 300.9375 101.0625 C 301.21875 101.34375 301.601562 101.5 302 101.5 C 302.398438 101.5 302.78125 101.34375 303.0625 101.0625 C 303.34375 100.78125 303.5 100.398438 303.5 100 Z M 303.5 100 "/>
<path style=" stroke:none;fill-rule:evenodd;fill:rgb(99.998474%,0%,0%);fill-opacity:1;" d="M 80.5 87 C 80.5 86.601562 80.34375 86.21875 80.0625 85.9375 C 79.78125 85.65625 79.398438 85.5 79 85.5 C 78.601562 85.5 78.21875 85.65625 77.9375 85.9375 C 77.65625 86.21875 77.5 86.601562 77.5 87 C 77.5 87.398438 77.65625 87.78125 77.9375 88.0625 C 78.21875 88.34375 78.601562 88.5 79 88.5 C 79.398438 88.5 79.78125 88.34375 80.0625 88.0625 C 80.34375 87.78125 80.5 87.398438 80.5 87 Z M 80.5 87 "/>
<path style=" stroke:none;fill-rule:evenodd;fill:rgb(99.998474%,0%,0%);fill-opacity:1;" d="M 41.5 76 C 41.5 75.601562 41.34375 75.21875 41.0625 74.9375 C 40.78125 74.65625 40.398438 74.5 40 74.5 C 39.601562 74.5 39.21875 74.65625 38.9375 74.9375 C 38.65625 75.21875 38.5 75.601562 38.5 76 C 38.5 76.398438 38.65625 76.78125 38.9375 77.0625 C 39.21875 77.34375 39.601562 77.5 40 77.5 C 40.398438 77.5 40.78125 77.34375 41.0625 77.0625 C 41.34375 76.78125 41.5 76.398438 41.5 76 Z M 41.5 76 "/>
<path style=" stroke:none;fill-rule:evenodd;fill:rgb(99.998474%,0%,0%);fill-opacity:1;" d="M 44.5 73 C 44.5 72.601562 44.34375 72.21875 44.0625 71.9375 C 43.78125 71.65625 43.398438 71.5 43 71.5 C 42.601562 71.5 42.21875 71.65625 41.9375 71.9375 C 41.65625 72.21875 41.5 72.601562 41.5 73 C 41.5 73.398438 41.65625 73.78125 41.9375 74.0625 C 42.21875 74.34375 42.601562 74.5 43 74.5 C 43.398438 74.5 43.78125 74.34375 44.0625 74.0625 C 44.34375 73.78125 44.5 73.398438 44.5 73 Z M 44.5 73 "/>
<path style=" stroke:none;fill-rule:evenodd;fill:rgb(99.998474%,0%,0%);fill-opacity:1;" d="M 44.5 72 C 44.5 71.601562 44.34375 71.21875 44.0625 70.9375 C 43.78125 70.65625 43.398438 70.5 43 70.5 C 42.601562 70.5 42.21875 70.65625 41.9375 70.9375 C 41.65625 71.21875 41.5 71.601562 41.5 72 C 41.5 72.398438 41.65625 72.78125 41.9375 73.0625 C 42.21875 73.34375 42.601562 73.5 43 73.5 C 43.398438 73.5 43.78125 73.34375 44.0625 73.0625 C 44.34375 72.78125 44.5 72.398438 44.5 72 Z M 44.5 72 "/>
<path style=" stroke:none;fill-rule:evenodd;fill:rgb(99.998474%,0%,0%);fill-opacity:1;" d="M 43.5 70 C 43.5 69.601562 43.34375 69.21875 43.0625 68.9375 C 42.78125 68.65625 42.398438 68.5 42 68.5 C 41.601562 68.5 41.21875 68.65625 40.9375 68.9375 C 40.65625 69.21875 40.5 69.601562 40.5 70 C 40.5 70.398438 40.65625 70.78125 40.9375 71.0625 C 41.21875 71.34375 41.601562 71.5 42 71.5 C 42.398438 71.5 42.78125 71.34375 43.0625 71.0625 C 43.34375 70.78125 43.5 70.398438 43.5 70 Z M 43.5 70 "/>
<path style=" stroke:none;fill-rule:evenodd;fill:rgb(99.998474%,0%,0%);fill-opacity:1;" d="M 276.5 20 C 276.5 19.601562 276.34375 19.21875 276.0625 18.9375 C 275.78125 18.65625 275.398438 18.5 275 18.5 C 274.601562 18.5 274.21875 18.65625 273.9375 18.9375 C 273.65625 19.21875 273.5 19.601562 273.5 20 C 273.5 20.398438 273.65625 20.78125 273.9375 21.0625 C 274.21875 21.34375 274.601562 21.5 275 21.5 C 275.398438 21.5 275.78125 21.34375 276.0625 21.0625 C 276.34375 20.78125 276.5 20.398438 276.5 20 Z M 276.5 20 "/>
<path style=" stroke:none;fill-rule:evenodd;fill:rgb(99.998474%,0%,0%);fill-opacity:1;" d="M 279.5 18 C 279.5 17.601562 279.34375 17.21875 279.0625 16.9375 C 278.78125 16.65625 278.398438 16.5 278 16.5 C 277.601562 16.5 277.21875 16.65625 276.9375 16.9375 C 276.65625 17.21875 276.5 17.601562 276.5 18 C 276.5 18.398438 276.65625 18.78125 276.9375 19.0625 C 277.21875 19.34375 277.601562 19.5 278 19.5 C 278.398438 19.5 278.78125 19.34375 279.0625 19.0625 C 279.34375 18.78125 279.5 18.398438 279.5 18 Z M 279.5 18 "/>
<path style=" stroke:none;fill-rule:evenodd;fill:rgb(99.998474%,0%,0%);fill-opacity:1;" d="M 349.5 10 C 349.5 9.601562 349.34375 9.21875 349.0625 8.9375 C 348.78125 8.65625 348.398438 8.5 348 8.5 C 347.601562 8.5 347.21875 8.65625 346.9375 8.9375 C 346.65625 9.21875 346.5 9.601562 346.5 10 C 346.5 10.398438 346.65625 10.78125 346.9375 11.0625 C 347.21875 11.34375 347.601562 11.5 348 11.5 C 348.398438 11.5 348.78125 11.34375 349.0625 11.0625 C 349.34375 10.78125 349.5 10.398438 349.5 10 Z M 349.5 10 "/>
<path style=" stroke:none;fill-rule:evenodd;fill:rgb(99.998474%,0%,0%);fill-opacity:1;" d="M 346.5 9 C 346.5 8.601562 346.34375 8.21875 346.0625 7.9375 C 345.78125 7.65625 345.398438 7.5 345 7.5 C 344.601562 7.5 344.21875 7.65625 343.9375 7.9375 C 343.65625 8.21875 343.5 8.601562 343.5 9 C 343.5 9.398438 343.65625 9.78125 343.9375 10.0625 C 344.21875 10.34375 344.601562 10.5 345 10.5 C 345.398438 10.5 345.78125 10.34375 346.0625 10.0625 C 346.34375 9.78125 346.5 9.398438 346.5 9 Z M 346.5 9 "/>
<path style=" stroke:none;fill-rule:evenodd;fill:rgb(99.998474%,0%,0%);fill-opacity:1;" d="M 348.5 9 C 348.5 8.601562 348.34375 8.21875 348.0625 7.9375 C 347.78125 7.65625 347.398438 7.5 347 7.5 C 346.601562 7.5 346.21875 7.65625 345.9375 7.9375 C 345.65625 8.21875 345.5 8.601562 345.5 9 C 345.5 9.398438 345.65625 9.78125 345.9375 10.0625 C 346.21875 10.34375 346.601562 10.5 347 10.5 C 347.398438 10.5 347.78125 10.34375 348.0625 10.0625 C 348.34375 9.78125 348.5 9.398438 348.5 9 Z M 348.5 9 "/>
</g>
</svg>
