<?xml version="1.0" encoding="UTF-8"?>
<svg xmlns="http://www.w3.org/2000/svg" xmlns:xlink="http://www.w3.org/1999/xlink" width="346pt" height="311pt" viewBox="0 0 346 311" version="1.1">
<g id="surface812">
<path style="fill-rule:nonzero;fill:rgb(84.999084%,84.999084%,84.999084%);fill-opacity:0.6;stroke-width:1;stroke-linecap:square;stroke-linejoin:miter;stroke:rgb(50%,50%,50%);stroke-opacity:1;stroke-miterlimit:3.25;" d="M 135.789063 309.667969 L 136.351563 303.859375 L 98.421875 256.019531 Z M 135.789063 309.667969 " transform="matrix(1,0,0,1,-74,-13)"/>
<path style="fill-rule:nonzero;fill:rgb(84.999084%,84.999084%,84.999084%);fill-opacity:0.6;stroke-width:1;stroke-linecap:square;stroke-linejoin:miter;stroke:rgb(50%,50%,50%);stroke-opacity:1;stroke-miterlimit:3.25;" d="M 136.351563 303.859375 L 135.789063 309.667969 L 203.679688 292.363281 Z M 136.351563 303.859375 " transform="matrix(1,0,0,1,-74,-13)"/>
<path style="fill-rule:nonzero;fill:rgb(84.999084%,84.999084%,84.999084%);fill-opacity:0.6;stroke-width:1;stroke-linecap:square;stroke-linejoin:miter;stroke:rgb(50%,50%,50%);stroke-opacity:1;stroke-miterlimit:3.25;" d="M 84.355469 72.132813 L 98.421875 256.019531 L 107.277344 254.097656 Z M 84.355469 72.132813 " transform="matrix(1,0,0,1,-74,-13)"/>
<path style="fill-rule:nonzero;fill:rgb(84.999084%,84.999084%,84.999084%);fill-opacity:0.6;stroke-width:1;stroke-linecap:square;stroke-linejoin:miter;stroke:rgb(50%,50%,50%);stroke-opacity:1;stroke-miterlimit:3.25;" d="M 107.277344 254.097656 L 98.421875 256.019531 L 136.351563 303.859375 Z M 107.277344 254.097656 " transform="matrix(1,0,0,1,-74,-13)"/>
<path style="fill-rule:nonzero;fill:rgb(84.999084%,84.999084%,84.999084%);fill-opacity:0.6;stroke-width:1;stroke-linecap:square;stroke-linejoin:miter;stroke:rgb(50%,50%,50%);stroke-opacity:1;stroke-miterlimit:3.25;" d="M 136.351563 303.859375 L 205.199219 289.394531 L 107.277344 254.097656 Z M 136.351563 303.859375 " transform="matrix(1,0,0,1,-74,-13)"/>
<path style="fill-rule:nonzero;fill:rgb(84.999084%,84.999084%,84.999084%);fill-opacity:0.6;stroke-width:1;stroke-linecap:square;stroke-linejoin:miter;stroke:rgb(50%,50%,50%);stroke-opacity:1;stroke-miterlimit:3.25;" d="M 203.679688 292.363281 L 204.253906 292.699219 L 205.199219 289.394531 Z M 203.679688 292.363281 " transform="matrix(1,0,0,1,-74,-13)"/>
<path style="fill-rule:nonzero;fill:rgb(84.999084%,84.999084%,84.999084%);fill-opacity:0.6;stroke-width:1;stroke-linecap:square;stroke-linejoin:miter;stroke:rgb(50%,50%,50%);stroke-opacity:1;stroke-miterlimit:3.25;" d="M 204.253906 292.699219 L 203.679688 292.363281 L 135.789063 309.667969 Z M 204.253906 292.699219 " transform="matrix(1,0,0,1,-74,-13)"/>
<path style="fill-rule:nonzero;fill:rgb(84.999084%,84.999084%,84.999084%);fill-opacity:0.6;stroke-width:1;stroke-linecap:square;stroke-linejoin:miter;stroke:rgb(50%,50%,50%);stroke-opacity:1;stroke-miterlimit:3.25;" d="M 221.054688 214.546875 L 107.277344 254.097656 L 205.199219 289.394531 Z M 221.054688 214.546875 " transform="matrix(1,0,0,1,-74,-13)"/>
<path style="fill-rule:nonzero;fill:rgb(84.999084%,84.999084%,84.999084%);fill-opacity:0.6;stroke-width:1;stroke-linecap:square;stroke-linejoin:miter;stroke:rgb(50%,50%,50%);stroke-opacity:1;stroke-miterlimit:3.25;" d="M 228.253906 204.792969 L 221.054688 214.546875 L 233.226563 201.152344 Z M 228.253906 204.792969 " transform="matrix(1,0,0,1,-74,-13)"/>
<path style="fill-rule:nonzero;fill:rgb(84.999084%,84.999084%,84.999084%);fill-opacity:0.6;stroke-width:1;stroke-linecap:square;stroke-linejoin:miter;stroke:rgb(50%,50%,50%);stroke-opacity:1;stroke-miterlimit:3.25;" d="M 204.253906 292.699219 L 312.578125 276.914063 L 205.199219 289.394531 Z M 204.253906 292.699219 " transform="matrix(1,0,0,1,-74,-13)"/>
<path style="fill-rule:nonzero;fill:rgb(84.999084%,84.999084%,84.999084%);fill-opacity:0.6;stroke-width:1;stroke-linecap:square;stroke-linejoin:miter;stroke:rgb(50%,50%,50%);stroke-opacity:1;stroke-miterlimit:3.25;" d="M 205.199219 289.394531 L 136.351563 303.859375 L 203.679688 292.363281 Z M 205.199219 289.394531 " transform="matrix(1,0,0,1,-74,-13)"/>
<path style="fill-rule:nonzero;fill:rgb(84.999084%,84.999084%,84.999084%);fill-opacity:0.6;stroke-width:1;stroke-linecap:square;stroke-linejoin:miter;stroke:rgb(50%,50%,50%);stroke-opacity:1;stroke-miterlimit:3.25;" d="M 135.789063 309.667969 L 322.710938 322.144531 L 204.253906 292.699219 Z M 135.789063 309.667969 " transform="matrix(1,0,0,1,-74,-13)"/>
<path style="fill-rule:nonzero;fill:rgb(84.999084%,84.999084%,84.999084%);fill-opacity:0.6;stroke-width:1;stroke-linecap:square;stroke-linejoin:miter;stroke:rgb(50%,50%,50%);stroke-opacity:1;stroke-miterlimit:3.25;" d="M 133.894531 63.816406 L 107.277344 254.097656 L 221.054688 214.546875 Z M 133.894531 63.816406 " transform="matrix(1,0,0,1,-74,-13)"/>
<path style="fill-rule:nonzero;fill:rgb(84.999084%,84.999084%,84.999084%);fill-opacity:0.6;stroke-width:1;stroke-linecap:square;stroke-linejoin:miter;stroke:rgb(50%,50%,50%);stroke-opacity:1;stroke-miterlimit:3.25;" d="M 84.351563 71.769531 L 84.355469 72.132813 L 86.289063 66.21875 Z M 84.351563 71.769531 " transform="matrix(1,0,0,1,-74,-13)"/>
<path style="fill-rule:nonzero;fill:rgb(84.999084%,84.999084%,84.999084%);fill-opacity:0.6;stroke-width:1;stroke-linecap:square;stroke-linejoin:miter;stroke:rgb(50%,50%,50%);stroke-opacity:1;stroke-miterlimit:3.25;" d="M 86.289063 66.21875 L 132.277344 60.097656 L 136.394531 56.367188 Z M 86.289063 66.21875 " transform="matrix(1,0,0,1,-74,-13)"/>
<path style="fill-rule:nonzero;fill:rgb(84.999084%,84.999084%,84.999084%);fill-opacity:0.6;stroke-width:1;stroke-linecap:square;stroke-linejoin:miter;stroke:rgb(50%,50%,50%);stroke-opacity:1;stroke-miterlimit:3.25;" d="M 132.769531 61.847656 L 132.277344 60.097656 L 86.289063 66.21875 Z M 132.769531 61.847656 " transform="matrix(1,0,0,1,-74,-13)"/>
<path style="fill-rule:nonzero;fill:rgb(84.999084%,84.999084%,84.999084%);fill-opacity:0.6;stroke-width:1;stroke-linecap:square;stroke-linejoin:miter;stroke:rgb(50%,50%,50%);stroke-opacity:1;stroke-miterlimit:3.25;" d="M 86.289063 66.21875 L 84.355469 72.132813 L 133.894531 63.816406 Z M 86.289063 66.21875 " transform="matrix(1,0,0,1,-74,-13)"/>
<path style="fill-rule:nonzero;fill:rgb(84.999084%,84.999084%,84.999084%);fill-opacity:0.6;stroke-width:1;stroke-linecap:square;stroke-linejoin:miter;stroke:rgb(50%,50%,50%);stroke-opacity:1;stroke-miterlimit:3.25;" d="M 136.394531 56.367188 L 133.894531 63.816406 L 233.226563 201.152344 Z M 136.394531 56.367188 " transform="matrix(1,0,0,1,-74,-13)"/>
<path style="fill-rule:nonzero;fill:rgb(84.999084%,84.999084%,84.999084%);fill-opacity:0.6;stroke-width:1;stroke-linecap:square;stroke-linejoin:miter;stroke:rgb(50%,50%,50%);stroke-opacity:1;stroke-miterlimit:3.25;" d="M 133.894531 63.816406 L 84.355469 72.132813 L 107.277344 254.097656 Z M 133.894531 63.816406 " transform="matrix(1,0,0,1,-74,-13)"/>
<path style="fill-rule:nonzero;fill:rgb(84.999084%,84.999084%,84.999084%);fill-opacity:0.6;stroke-width:1;stroke-linecap:square;stroke-linejoin:miter;stroke:rgb(50%,50%,50%);stroke-opacity:1;stroke-miterlimit:3.25;" d="M 132.769531 61.847656 L 136.394531 56.367188 L 132.277344 60.097656 Z M 132.769531 61.847656 " transform="matrix(1,0,0,1,-74,-13)"/>
<path style="fill-rule:nonzero;fill:rgb(84.999084%,84.999084%,84.999084%);fill-opacity:0.6;stroke-width:1;stroke-linecap:square;stroke-linejoin:miter;stroke:rgb(50%,50%,50%);stroke-opacity:1;stroke-miterlimit:3.25;" d="M 136.394531 56.367188 L 132.769531 61.847656 L 133.894531 63.816406 Z M 136.394531 56.367188 " transform="matrix(1,0,0,1,-74,-13)"/>
<path style="fill-rule:nonzero;fill:rgb(84.999084%,84.999084%,84.999084%);fill-opacity:0.6;stroke-width:1;stroke-linecap:square;stroke-linejoin:miter;stroke:rgb(50%,50%,50%);stroke-opacity:1;stroke-miterlimit:3.25;" d="M 229.316406 202.527344 L 221.054688 214.546875 L 228.253906 204.792969 Z M 229.316406 202.527344 " transform="matrix(1,0,0,1,-74,-13)"/>
<path style="fill-rule:nonzero;fill:rgb(84.999084%,84.999084%,84.999084%);fill-opacity:0.6;stroke-width:1;stroke-linecap:square;stroke-linejoin:miter;stroke:rgb(50%,50%,50%);stroke-opacity:1;stroke-miterlimit:3.25;" d="M 133.894531 63.816406 L 132.769531 61.847656 L 86.289063 66.21875 Z M 133.894531 63.816406 " transform="matrix(1,0,0,1,-74,-13)"/>
<path style="fill-rule:nonzero;fill:rgb(84.999084%,84.999084%,84.999084%);fill-opacity:0.6;stroke-width:1;stroke-linecap:square;stroke-linejoin:miter;stroke:rgb(50%,50%,50%);stroke-opacity:1;stroke-miterlimit:3.25;" d="M 133.894531 63.816406 L 221.054688 214.546875 L 229.316406 202.527344 Z M 133.894531 63.816406 " transform="matrix(1,0,0,1,-74,-13)"/>
<path style="fill-rule:nonzero;fill:rgb(84.999084%,84.999084%,84.999084%);fill-opacity:0.6;stroke-width:1;stroke-linecap:square;stroke-linejoin:miter;stroke:rgb(50%,50%,50%);stroke-opacity:1;stroke-miterlimit:3.25;" d="M 221.054688 214.546875 L 205.199219 289.394531 L 314.128906 268.0625 Z M 221.054688 214.546875 " transform="matrix(1,0,0,1,-74,-13)"/>
<path style="fill-rule:nonzero;fill:rgb(84.999084%,84.999084%,84.999084%);fill-opacity:0.6;stroke-width:1;stroke-linecap:square;stroke-linejoin:miter;stroke:rgb(50%,50%,50%);stroke-opacity:1;stroke-miterlimit:3.25;" d="M 314.359375 267.980469 L 312.578125 276.914063 L 402.34375 285.398438 Z M 314.359375 267.980469 " transform="matrix(1,0,0,1,-74,-13)"/>
<path style="fill-rule:nonzero;fill:rgb(84.999084%,84.999084%,84.999084%);fill-opacity:0.6;stroke-width:1;stroke-linecap:square;stroke-linejoin:miter;stroke:rgb(50%,50%,50%);stroke-opacity:1;stroke-miterlimit:3.25;" d="M 205.199219 289.394531 L 312.578125 276.914063 L 314.128906 268.0625 Z M 205.199219 289.394531 " transform="matrix(1,0,0,1,-74,-13)"/>
<path style="fill-rule:nonzero;fill:rgb(84.999084%,84.999084%,84.999084%);fill-opacity:0.6;stroke-width:1;stroke-linecap:square;stroke-linejoin:miter;stroke:rgb(50%,50%,50%);stroke-opacity:1;stroke-miterlimit:3.25;" d="M 314.128906 268.0625 L 314.359375 267.980469 L 233.226563 201.152344 Z M 314.128906 268.0625 " transform="matrix(1,0,0,1,-74,-13)"/>
<path style="fill-rule:nonzero;fill:rgb(84.999084%,84.999084%,84.999084%);fill-opacity:0.6;stroke-width:1;stroke-linecap:square;stroke-linejoin:miter;stroke:rgb(50%,50%,50%);stroke-opacity:1;stroke-miterlimit:3.25;" d="M 314.359375 267.980469 L 314.128906 268.0625 L 312.578125 276.914063 Z M 314.359375 267.980469 " transform="matrix(1,0,0,1,-74,-13)"/>
<path style="fill-rule:nonzero;fill:rgb(84.999084%,84.999084%,84.999084%);fill-opacity:0.6;stroke-width:1;stroke-linecap:square;stroke-linejoin:miter;stroke:rgb(50%,50%,50%);stroke-opacity:1;stroke-miterlimit:3.25;" d="M 312.578125 276.914063 L 322.710938 322.144531 L 402.34375 285.398438 Z M 312.578125 276.914063 " transform="matrix(1,0,0,1,-74,-13)"/>
<path style="fill-rule:nonzero;fill:rgb(84.999084%,84.999084%,84.999084%);fill-opacity:0.6;stroke-width:1;stroke-linecap:square;stroke-linejoin:miter;stroke:rgb(50%,50%,50%);stroke-opacity:1;stroke-miterlimit:3.25;" d="M 233.226563 201.152344 L 221.054688 214.546875 L 314.128906 268.0625 Z M 233.226563 201.152344 " transform="matrix(1,0,0,1,-74,-13)"/>
<path style="fill-rule:nonzero;fill:rgb(84.999084%,84.999084%,84.999084%);fill-opacity:0.6;stroke-width:1;stroke-linecap:square;stroke-linejoin:miter;stroke:rgb(50%,50%,50%);stroke-opacity:1;stroke-miterlimit:3.25;" d="M 402.34375 285.398438 L 404.023438 289.566406 L 405.933594 278.035156 Z M 402.34375 285.398438 " transform="matrix(1,0,0,1,-74,-13)"/>
<path style="fill-rule:nonzero;fill:rgb(84.999084%,84.999084%,84.999084%);fill-opacity:0.6;stroke-width:1;stroke-linecap:square;stroke-linejoin:miter;stroke:rgb(50%,50%,50%);stroke-opacity:1;stroke-miterlimit:3.25;" d="M 404.023438 289.566406 L 402.34375 285.398438 L 322.710938 322.144531 Z M 404.023438 289.566406 " transform="matrix(1,0,0,1,-74,-13)"/>
<path style="fill-rule:nonzero;fill:rgb(84.999084%,84.999084%,84.999084%);fill-opacity:0.6;stroke-width:1;stroke-linecap:square;stroke-linejoin:miter;stroke:rgb(50%,50%,50%);stroke-opacity:1;stroke-miterlimit:3.25;" d="M 405.933594 278.035156 L 406.113281 277.757813 L 314.359375 267.980469 Z M 405.933594 278.035156 " transform="matrix(1,0,0,1,-74,-13)"/>
<path style="fill-rule:nonzero;fill:rgb(84.999084%,84.999084%,84.999084%);fill-opacity:0.6;stroke-width:1;stroke-linecap:square;stroke-linejoin:miter;stroke:rgb(50%,50%,50%);stroke-opacity:1;stroke-miterlimit:3.25;" d="M 406.113281 277.757813 L 405.933594 278.035156 L 404.023438 289.566406 Z M 406.113281 277.757813 " transform="matrix(1,0,0,1,-74,-13)"/>
<path style="fill-rule:nonzero;fill:rgb(84.999084%,84.999084%,84.999084%);fill-opacity:0.6;stroke-width:1;stroke-linecap:square;stroke-linejoin:miter;stroke:rgb(50%,50%,50%);stroke-opacity:1;stroke-miterlimit:3.25;" d="M 402.34375 285.398438 L 405.933594 278.035156 L 314.359375 267.980469 Z M 402.34375 285.398438 " transform="matrix(1,0,0,1,-74,-13)"/>
<path style="fill-rule:nonzero;fill:rgb(84.999084%,84.999084%,84.999084%);fill-opacity:0.6;stroke-width:1;stroke-linecap:square;stroke-linejoin:miter;stroke:rgb(50%,50%,50%);stroke-opacity:1;stroke-miterlimit:3.25;" d="M 314.359375 267.980469 L 406.113281 277.757813 L 417.746094 75.4375 Z M 314.359375 267.980469 " transform="matrix(1,0,0,1,-74,-13)"/>
<path style="fill-rule:nonzero;fill:rgb(84.999084%,84.999084%,84.999084%);fill-opacity:0.6;stroke-width:1;stroke-linecap:square;stroke-linejoin:miter;stroke:rgb(50%,50%,50%);stroke-opacity:1;stroke-miterlimit:3.25;" d="M 229.316406 202.527344 L 230.621094 202.226563 L 233.226563 201.152344 Z M 229.316406 202.527344 " transform="matrix(1,0,0,1,-74,-13)"/>
<path style="fill-rule:nonzero;fill:rgb(84.999084%,84.999084%,84.999084%);fill-opacity:0.6;stroke-width:1;stroke-linecap:square;stroke-linejoin:miter;stroke:rgb(50%,50%,50%);stroke-opacity:1;stroke-miterlimit:3.25;" d="M 229.316406 202.527344 L 228.253906 204.792969 L 230.621094 202.226563 Z M 229.316406 202.527344 " transform="matrix(1,0,0,1,-74,-13)"/>
<path style="fill-rule:nonzero;fill:rgb(84.999084%,84.999084%,84.999084%);fill-opacity:0.6;stroke-width:1;stroke-linecap:square;stroke-linejoin:miter;stroke:rgb(50%,50%,50%);stroke-opacity:1;stroke-miterlimit:3.25;" d="M 412.816406 69.738281 L 136.394531 56.367188 L 233.226563 201.152344 Z M 412.816406 69.738281 " transform="matrix(1,0,0,1,-74,-13)"/>
<path style="fill-rule:nonzero;fill:rgb(84.999084%,84.999084%,84.999084%);fill-opacity:0.6;stroke-width:1;stroke-linecap:square;stroke-linejoin:miter;stroke:rgb(50%,50%,50%);stroke-opacity:1;stroke-miterlimit:3.25;" d="M 412.816406 69.738281 L 233.226563 201.152344 L 417.746094 75.4375 Z M 412.816406 69.738281 " transform="matrix(1,0,0,1,-74,-13)"/>
<path style="fill-rule:nonzero;fill:rgb(84.999084%,84.999084%,84.999084%);fill-opacity:0.6;stroke-width:1;stroke-linecap:square;stroke-linejoin:miter;stroke:rgb(50%,50%,50%);stroke-opacity:1;stroke-miterlimit:3.25;" d="M 228.253906 204.792969 L 233.226563 201.152344 L 230.621094 202.226563 Z M 228.253906 204.792969 " transform="matrix(1,0,0,1,-74,-13)"/>
<path style="fill-rule:nonzero;fill:rgb(84.999084%,84.999084%,84.999084%);fill-opacity:0.6;stroke-width:1;stroke-linecap:square;stroke-linejoin:miter;stroke:rgb(50%,50%,50%);stroke-opacity:1;stroke-miterlimit:3.25;" d="M 412.816406 69.738281 L 415.316406 66.65625 L 136.394531 56.367188 Z M 412.816406 69.738281 " transform="matrix(1,0,0,1,-74,-13)"/>
<path style="fill-rule:nonzero;fill:rgb(84.999084%,84.999084%,84.999084%);fill-opacity:0.6;stroke-width:1;stroke-linecap:square;stroke-linejoin:miter;stroke:rgb(50%,50%,50%);stroke-opacity:1;stroke-miterlimit:3.25;" d="M 413.683594 69.058594 L 417.746094 75.4375 L 416.578125 67.925781 Z M 413.683594 69.058594 " transform="matrix(1,0,0,1,-74,-13)"/>
<path style="fill-rule:nonzero;fill:rgb(84.999084%,84.999084%,84.999084%);fill-opacity:0.6;stroke-width:1;stroke-linecap:square;stroke-linejoin:miter;stroke:rgb(50%,50%,50%);stroke-opacity:1;stroke-miterlimit:3.25;" d="M 417.746094 75.4375 L 413.683594 69.058594 L 412.816406 69.738281 Z M 417.746094 75.4375 " transform="matrix(1,0,0,1,-74,-13)"/>
<path style="fill-rule:nonzero;fill:rgb(84.999084%,84.999084%,84.999084%);fill-opacity:0.6;stroke-width:1;stroke-linecap:square;stroke-linejoin:miter;stroke:rgb(50%,50%,50%);stroke-opacity:1;stroke-miterlimit:3.25;" d="M 416.578125 67.925781 L 415.316406 66.65625 L 413.683594 69.058594 Z M 416.578125 67.925781 " transform="matrix(1,0,0,1,-74,-13)"/>
<path style="fill-rule:nonzero;fill:rgb(84.999084%,84.999084%,84.999084%);fill-opacity:0.6;stroke-width:1;stroke-linecap:square;stroke-linejoin:miter;stroke:rgb(50%,50%,50%);stroke-opacity:1;stroke-miterlimit:3.25;" d="M 413.683594 69.058594 L 415.316406 66.65625 L 412.816406 69.738281 Z M 413.683594 69.058594 " transform="matrix(1,0,0,1,-74,-13)"/>
<path style="fill-rule:nonzero;fill:rgb(84.999084%,84.999084%,84.999084%);fill-opacity:0.6;stroke-width:1;stroke-linecap:square;stroke-linejoin:miter;stroke:rgb(50%,50%,50%);stroke-opacity:1;stroke-miterlimit:3.25;" d="M 233.226563 201.152344 L 314.359375 267.980469 L 417.746094 75.4375 Z M 233.226563 201.152344 " transform="matrix(1,0,0,1,-74,-13)"/>
<path style="fill-rule:nonzero;fill:rgb(84.999084%,84.999084%,84.999084%);fill-opacity:0.6;stroke-width:1;stroke-linecap:square;stroke-linejoin:miter;stroke:rgb(50%,50%,50%);stroke-opacity:1;stroke-miterlimit:3.25;" d="M 133.894531 63.816406 L 229.316406 202.527344 L 233.226563 201.152344 Z M 133.894531 63.816406 " transform="matrix(1,0,0,1,-74,-13)"/>
<path style="fill-rule:nonzero;fill:rgb(84.999084%,84.999084%,84.999084%);fill-opacity:0.6;stroke-width:1;stroke-linecap:square;stroke-linejoin:miter;stroke:rgb(50%,50%,50%);stroke-opacity:1;stroke-miterlimit:3.25;" d="M 312.578125 276.914063 L 204.253906 292.699219 L 322.710938 322.144531 Z M 312.578125 276.914063 " transform="matrix(1,0,0,1,-74,-13)"/>
<path style=" stroke:none;fill-rule:evenodd;fill:rgb(99.998474%,0%,0%);fill-opacity:0.6;" d="M 250.789063 309 C 250.789063 308.523438 250.601563 308.070313 250.265625 307.734375 C 249.929688 307.398438 249.476563 307.210938 249 307.210938 C 248.523438 307.210938 248.070313 307.398438 247.734375 307.734375 C 247.398438 308.070313 247.210938 308.523438 247.210938 309 C 247.210938 309.476563 247.398438 309.929688 247.734375 310.265625 C 248.070313 310.601563 248.523438 310.789063 249 310.789063 C 249.476563 310.789063 249.929688 310.601563 250.265625 310.265625 C 250.601563 309.929688 250.789063 309.476563 250.789063 309 Z M 250.789063 309 "/>
<path style=" stroke:none;fill-rule:evenodd;fill:rgb(99.998474%,0%,0%);fill-opacity:0.6;" d="M 63.789063 297 C 63.789063 296.523438 63.601563 296.070313 63.265625 295.734375 C 62.929688 295.398438 62.476563 295.210938 62 295.210938 C 61.523438 295.210938 61.070313 295.398438 60.734375 295.734375 C 60.398438 296.070313 60.210938 296.523438 60.210938 297 C 60.210938 297.476563 60.398438 297.929688 60.734375 298.265625 C 61.070313 298.601563 61.523438 298.789063 62 298.789063 C 62.476563 298.789063 62.929688 298.601563 63.265625 298.265625 C 63.601563 297.929688 63.789063 297.476563 63.789063 297 Z M 63.789063 297 "/>
<path style=" stroke:none;fill-rule:evenodd;fill:rgb(99.998474%,0%,0%);fill-opacity:0.6;" d="M 63.789063 291 C 63.789063 290.523438 63.601563 290.070313 63.265625 289.734375 C 62.929688 289.398438 62.476563 289.210938 62 289.210938 C 61.523438 289.210938 61.070313 289.398438 60.734375 289.734375 C 60.398438 290.070313 60.210938 290.523438 60.210938 291 C 60.210938 291.476563 60.398438 291.929688 60.734375 292.265625 C 61.070313 292.601563 61.523438 292.789063 62 292.789063 C 62.476563 292.789063 62.929688 292.601563 63.265625 292.265625 C 63.601563 291.929688 63.789063 291.476563 63.789063 291 Z M 63.789063 291 "/>
<path style=" stroke:none;fill-rule:evenodd;fill:rgb(99.998474%,0%,0%);fill-opacity:0.6;" d="M 131.789063 280 C 131.789063 279.523438 131.601563 279.070313 131.265625 278.734375 C 130.929688 278.398438 130.476563 278.210938 130 278.210938 C 129.523438 278.210938 129.070313 278.398438 128.734375 278.734375 C 128.398438 279.070313 128.210938 279.523438 128.210938 280 C 128.210938 280.476563 128.398438 280.929688 128.734375 281.265625 C 129.070313 281.601563 129.523438 281.789063 130 281.789063 C 130.476563 281.789063 130.929688 281.601563 131.265625 281.265625 C 131.601563 280.929688 131.789063 280.476563 131.789063 280 Z M 131.789063 280 "/>
<path style=" stroke:none;fill-rule:evenodd;fill:rgb(99.998474%,0%,0%);fill-opacity:0.6;" d="M 131.789063 279 C 131.789063 278.523438 131.601563 278.070313 131.265625 277.734375 C 130.929688 277.398438 130.476563 277.210938 130 277.210938 C 129.523438 277.210938 129.070313 277.398438 128.734375 277.734375 C 128.398438 278.070313 128.210938 278.523438 128.210938 279 C 128.210938 279.476563 128.398438 279.929688 128.734375 280.265625 C 129.070313 280.601563 129.523438 280.789063 130 280.789063 C 130.476563 280.789063 130.929688 280.601563 131.265625 280.265625 C 131.601563 279.929688 131.789063 279.476563 131.789063 279 Z M 131.789063 279 "/>
<path style=" stroke:none;fill-rule:evenodd;fill:rgb(99.998474%,0%,0%);fill-opacity:0.6;" d="M 331.789063 277 C 331.789063 276.523438 331.601563 276.070313 331.265625 275.734375 C 330.929688 275.398438 330.476563 275.210938 330 275.210938 C 329.523438 275.210938 329.070313 275.398438 328.734375 275.734375 C 328.398438 276.070313 328.210938 276.523438 328.210938 277 C 328.210938 277.476563 328.398438 277.929688 328.734375 278.265625 C 329.070313 278.601563 329.523438 278.789063 330 278.789063 C 330.476563 278.789063 330.929688 278.601563 331.265625 278.265625 C 331.601563 277.929688 331.789063 277.476563 331.789063 277 Z M 331.789063 277 "/>
<path style=" stroke:none;fill-rule:evenodd;fill:rgb(99.998474%,0%,0%);fill-opacity:0.6;" d="M 132.789063 276 C 132.789063 275.523438 132.601563 275.070313 132.265625 274.734375 C 131.929688 274.398438 131.476563 274.210938 131 274.210938 C 130.523438 274.210938 130.070313 274.398438 129.734375 274.734375 C 129.398438 275.070313 129.210938 275.523438 129.210938 276 C 129.210938 276.476563 129.398438 276.929688 129.734375 277.265625 C 130.070313 277.601563 130.523438 277.789063 131 277.789063 C 131.476563 277.789063 131.929688 277.601563 132.265625 277.265625 C 132.601563 276.929688 132.789063 276.476563 132.789063 276 Z M 132.789063 276 "/>
<path style=" stroke:none;fill-rule:evenodd;fill:rgb(99.998474%,0%,0%);fill-opacity:0.6;" d="M 329.789063 272 C 329.789063 271.523438 329.601563 271.070313 329.265625 270.734375 C 328.929688 270.398438 328.476563 270.210938 328 270.210938 C 327.523438 270.210938 327.070313 270.398438 326.734375 270.734375 C 326.398438 271.070313 326.210938 271.523438 326.210938 272 C 326.210938 272.476563 326.398438 272.929688 326.734375 273.265625 C 327.070313 273.601563 327.523438 273.789063 328 273.789063 C 328.476563 273.789063 328.929688 273.601563 329.265625 273.265625 C 329.601563 272.929688 329.789063 272.476563 329.789063 272 Z M 329.789063 272 "/>
<path style=" stroke:none;fill-rule:evenodd;fill:rgb(99.998474%,0%,0%);fill-opacity:0.6;" d="M 333.789063 265 C 333.789063 264.523438 333.601563 264.070313 333.265625 263.734375 C 332.929688 263.398438 332.476563 263.210938 332 263.210938 C 331.523438 263.210938 331.070313 263.398438 330.734375 263.734375 C 330.398438 264.070313 330.210938 264.523438 330.210938 265 C 330.210938 265.476563 330.398438 265.929688 330.734375 266.265625 C 331.070313 266.601563 331.523438 266.789063 332 266.789063 C 332.476563 266.789063 332.929688 266.601563 333.265625 266.265625 C 333.601563 265.929688 333.789063 265.476563 333.789063 265 Z M 333.789063 265 "/>
<path style=" stroke:none;fill-rule:evenodd;fill:rgb(99.998474%,0%,0%);fill-opacity:0.6;" d="M 333.789063 265 C 333.789063 264.523438 333.601563 264.070313 333.265625 263.734375 C 332.929688 263.398438 332.476563 263.210938 332 263.210938 C 331.523438 263.210938 331.070313 263.398438 330.734375 263.734375 C 330.398438 264.070313 330.210938 264.523438 330.210938 265 C 330.210938 265.476563 330.398438 265.929688 330.734375 266.265625 C 331.070313 266.601563 331.523438 266.789063 332 266.789063 C 332.476563 266.789063 332.929688 266.601563 333.265625 266.265625 C 333.601563 265.929688 333.789063 265.476563 333.789063 265 Z M 333.789063 265 "/>
<path style=" stroke:none;fill-rule:evenodd;fill:rgb(99.998474%,0%,0%);fill-opacity:0.6;" d="M 240.789063 264 C 240.789063 263.523438 240.601563 263.070313 240.265625 262.734375 C 239.929688 262.398438 239.476563 262.210938 239 262.210938 C 238.523438 262.210938 238.070313 262.398438 237.734375 262.734375 C 237.398438 263.070313 237.210938 263.523438 237.210938 264 C 237.210938 264.476563 237.398438 264.929688 237.734375 265.265625 C 238.070313 265.601563 238.523438 265.789063 239 265.789063 C 239.476563 265.789063 239.929688 265.601563 240.265625 265.265625 C 240.601563 264.929688 240.789063 264.476563 240.789063 264 Z M 240.789063 264 "/>
<path style=" stroke:none;fill-rule:evenodd;fill:rgb(99.998474%,0%,0%);fill-opacity:0.6;" d="M 241.789063 255 C 241.789063 254.523438 241.601563 254.070313 241.265625 253.734375 C 240.929688 253.398438 240.476563 253.210938 240 253.210938 C 239.523438 253.210938 239.070313 253.398438 238.734375 253.734375 C 238.398438 254.070313 238.210938 254.523438 238.210938 255 C 238.210938 255.476563 238.398438 255.929688 238.734375 256.265625 C 239.070313 256.601563 239.523438 256.789063 240 256.789063 C 240.476563 256.789063 240.929688 256.601563 241.265625 256.265625 C 241.601563 255.929688 241.789063 255.476563 241.789063 255 Z M 241.789063 255 "/>
<path style=" stroke:none;fill-rule:evenodd;fill:rgb(99.998474%,0%,0%);fill-opacity:0.6;" d="M 241.789063 255 C 241.789063 254.523438 241.601563 254.070313 241.265625 253.734375 C 240.929688 253.398438 240.476563 253.210938 240 253.210938 C 239.523438 253.210938 239.070313 253.398438 238.734375 253.734375 C 238.398438 254.070313 238.210938 254.523438 238.210938 255 C 238.210938 255.476563 238.398438 255.929688 238.734375 256.265625 C 239.070313 256.601563 239.523438 256.789063 240 256.789063 C 240.476563 256.789063 240.929688 256.601563 241.265625 256.265625 C 241.601563 255.929688 241.789063 255.476563 241.789063 255 Z M 241.789063 255 "/>
<path style=" stroke:none;fill-rule:evenodd;fill:rgb(99.998474%,0%,0%);fill-opacity:0.6;" d="M 25.789063 243 C 25.789063 242.523438 25.601563 242.070313 25.265625 241.734375 C 24.929688 241.398438 24.476563 241.210938 24 241.210938 C 23.523438 241.210938 23.070313 241.398438 22.734375 241.734375 C 22.398438 242.070313 22.210938 242.523438 22.210938 243 C 22.210938 243.476563 22.398438 243.929688 22.734375 244.265625 C 23.070313 244.601563 23.523438 244.789063 24 244.789063 C 24.476563 244.789063 24.929688 244.601563 25.265625 244.265625 C 25.601563 243.929688 25.789063 243.476563 25.789063 243 Z M 25.789063 243 "/>
<path style=" stroke:none;fill-rule:evenodd;fill:rgb(99.998474%,0%,0%);fill-opacity:0.6;" d="M 34.789063 241 C 34.789063 240.523438 34.601563 240.070313 34.265625 239.734375 C 33.929688 239.398438 33.476563 239.210938 33 239.210938 C 32.523438 239.210938 32.070313 239.398438 31.734375 239.734375 C 31.398438 240.070313 31.210938 240.523438 31.210938 241 C 31.210938 241.476563 31.398438 241.929688 31.734375 242.265625 C 32.070313 242.601563 32.523438 242.789063 33 242.789063 C 33.476563 242.789063 33.929688 242.601563 34.265625 242.265625 C 34.601563 241.929688 34.789063 241.476563 34.789063 241 Z M 34.789063 241 "/>
<path style=" stroke:none;fill-rule:evenodd;fill:rgb(99.998474%,0%,0%);fill-opacity:0.6;" d="M 148.789063 202 C 148.789063 201.523438 148.601563 201.070313 148.265625 200.734375 C 147.929688 200.398438 147.476563 200.210938 147 200.210938 C 146.523438 200.210938 146.070313 200.398438 145.734375 200.734375 C 145.398438 201.070313 145.210938 201.523438 145.210938 202 C 145.210938 202.476563 145.398438 202.929688 145.734375 203.265625 C 146.070313 203.601563 146.523438 203.789063 147 203.789063 C 147.476563 203.789063 147.929688 203.601563 148.265625 203.265625 C 148.601563 202.929688 148.789063 202.476563 148.789063 202 Z M 148.789063 202 "/>
<path style=" stroke:none;fill-rule:evenodd;fill:rgb(99.998474%,0%,0%);fill-opacity:0.6;" d="M 155.789063 192 C 155.789063 191.523438 155.601563 191.070313 155.265625 190.734375 C 154.929688 190.398438 154.476563 190.210938 154 190.210938 C 153.523438 190.210938 153.070313 190.398438 152.734375 190.734375 C 152.398438 191.070313 152.210938 191.523438 152.210938 192 C 152.210938 192.476563 152.398438 192.929688 152.734375 193.265625 C 153.070313 193.601563 153.523438 193.789063 154 193.789063 C 154.476563 193.789063 154.929688 193.601563 155.265625 193.265625 C 155.601563 192.929688 155.789063 192.476563 155.789063 192 Z M 155.789063 192 "/>
<path style=" stroke:none;fill-rule:evenodd;fill:rgb(99.998474%,0%,0%);fill-opacity:0.6;" d="M 156.789063 190 C 156.789063 189.523438 156.601563 189.070313 156.265625 188.734375 C 155.929688 188.398438 155.476563 188.210938 155 188.210938 C 154.523438 188.210938 154.070313 188.398438 153.734375 188.734375 C 153.398438 189.070313 153.210938 189.523438 153.210938 190 C 153.210938 190.476563 153.398438 190.929688 153.734375 191.265625 C 154.070313 191.601563 154.523438 191.789063 155 191.789063 C 155.476563 191.789063 155.929688 191.601563 156.265625 191.265625 C 156.601563 190.929688 156.789063 190.476563 156.789063 190 Z M 156.789063 190 "/>
<path style=" stroke:none;fill-rule:evenodd;fill:rgb(99.998474%,0%,0%);fill-opacity:0.6;" d="M 158.789063 189 C 158.789063 188.523438 158.601563 188.070313 158.265625 187.734375 C 157.929688 187.398438 157.476563 187.210938 157 187.210938 C 156.523438 187.210938 156.070313 187.398438 155.734375 187.734375 C 155.398438 188.070313 155.210938 188.523438 155.210938 189 C 155.210938 189.476563 155.398438 189.929688 155.734375 190.265625 C 156.070313 190.601563 156.523438 190.789063 157 190.789063 C 157.476563 190.789063 157.929688 190.601563 158.265625 190.265625 C 158.601563 189.929688 158.789063 189.476563 158.789063 189 Z M 158.789063 189 "/>
<path style=" stroke:none;fill-rule:evenodd;fill:rgb(99.998474%,0%,0%);fill-opacity:0.6;" d="M 160.789063 188 C 160.789063 187.523438 160.601563 187.070313 160.265625 186.734375 C 159.929688 186.398438 159.476563 186.210938 159 186.210938 C 158.523438 186.210938 158.070313 186.398438 157.734375 186.734375 C 157.398438 187.070313 157.210938 187.523438 157.210938 188 C 157.210938 188.476563 157.398438 188.929688 157.734375 189.265625 C 158.070313 189.601563 158.523438 189.789063 159 189.789063 C 159.476563 189.789063 159.929688 189.601563 160.265625 189.265625 C 160.601563 188.929688 160.789063 188.476563 160.789063 188 Z M 160.789063 188 "/>
<path style=" stroke:none;fill-rule:evenodd;fill:rgb(99.998474%,0%,0%);fill-opacity:0.6;" d="M 345.789063 62 C 345.789063 61.523438 345.601563 61.070313 345.265625 60.734375 C 344.929688 60.398438 344.476563 60.210938 344 60.210938 C 343.523438 60.210938 343.070313 60.398438 342.734375 60.734375 C 342.398438 61.070313 342.210938 61.523438 342.210938 62 C 342.210938 62.476563 342.398438 62.929688 342.734375 63.265625 C 343.070313 63.601563 343.523438 63.789063 344 63.789063 C 344.476563 63.789063 344.929688 63.601563 345.265625 63.265625 C 345.601563 62.929688 345.789063 62.476563 345.789063 62 Z M 345.789063 62 "/>
<path style=" stroke:none;fill-rule:evenodd;fill:rgb(99.998474%,0%,0%);fill-opacity:0.6;" d="M 11.789063 59 C 11.789063 58.523438 11.601563 58.070313 11.265625 57.734375 C 10.929688 57.398438 10.476563 57.210938 10 57.210938 C 9.523438 57.210938 9.070313 57.398438 8.734375 57.734375 C 8.398438 58.070313 8.210938 58.523438 8.210938 59 C 8.210938 59.476563 8.398438 59.929688 8.734375 60.265625 C 9.070313 60.601563 9.523438 60.789063 10 60.789063 C 10.476563 60.789063 10.929688 60.601563 11.265625 60.265625 C 11.601563 59.929688 11.789063 59.476563 11.789063 59 Z M 11.789063 59 "/>
<path style=" stroke:none;fill-rule:evenodd;fill:rgb(99.998474%,0%,0%);fill-opacity:0.6;" d="M 11.789063 59 C 11.789063 58.523438 11.601563 58.070313 11.265625 57.734375 C 10.929688 57.398438 10.476563 57.210938 10 57.210938 C 9.523438 57.210938 9.070313 57.398438 8.734375 57.734375 C 8.398438 58.070313 8.210938 58.523438 8.210938 59 C 8.210938 59.476563 8.398438 59.929688 8.734375 60.265625 C 9.070313 60.601563 9.523438 60.789063 10 60.789063 C 10.476563 60.789063 10.929688 60.601563 11.265625 60.265625 C 11.601563 59.929688 11.789063 59.476563 11.789063 59 Z M 11.789063 59 "/>
<path style=" stroke:none;fill-rule:evenodd;fill:rgb(99.998474%,0%,0%);fill-opacity:0.6;" d="M 340.789063 57 C 340.789063 56.523438 340.601563 56.070313 340.265625 55.734375 C 339.929688 55.398438 339.476563 55.210938 339 55.210938 C 338.523438 55.210938 338.070313 55.398438 337.734375 55.734375 C 337.398438 56.070313 337.210938 56.523438 337.210938 57 C 337.210938 57.476563 337.398438 57.929688 337.734375 58.265625 C 338.070313 58.601563 338.523438 58.789063 339 58.789063 C 339.476563 58.789063 339.929688 58.601563 340.265625 58.265625 C 340.601563 57.929688 340.789063 57.476563 340.789063 57 Z M 340.789063 57 "/>
<path style=" stroke:none;fill-rule:evenodd;fill:rgb(99.998474%,0%,0%);fill-opacity:0.6;" d="M 341.789063 56 C 341.789063 55.523438 341.601563 55.070313 341.265625 54.734375 C 340.929688 54.398438 340.476563 54.210938 340 54.210938 C 339.523438 54.210938 339.070313 54.398438 338.734375 54.734375 C 338.398438 55.070313 338.210938 55.523438 338.210938 56 C 338.210938 56.476563 338.398438 56.929688 338.734375 57.265625 C 339.070313 57.601563 339.523438 57.789063 340 57.789063 C 340.476563 57.789063 340.929688 57.601563 341.265625 57.265625 C 341.601563 56.929688 341.789063 56.476563 341.789063 56 Z M 341.789063 56 "/>
<path style=" stroke:none;fill-rule:evenodd;fill:rgb(99.998474%,0%,0%);fill-opacity:0.6;" d="M 344.789063 55 C 344.789063 54.523438 344.601563 54.070313 344.265625 53.734375 C 343.929688 53.398438 343.476563 53.210938 343 53.210938 C 342.523438 53.210938 342.070313 53.398438 341.734375 53.734375 C 341.398438 54.070313 341.210938 54.523438 341.210938 55 C 341.210938 55.476563 341.398438 55.929688 341.734375 56.265625 C 342.070313 56.601563 342.523438 56.789063 343 56.789063 C 343.476563 56.789063 343.929688 56.601563 344.265625 56.265625 C 344.601563 55.929688 344.789063 55.476563 344.789063 55 Z M 344.789063 55 "/>
<path style=" stroke:none;fill-rule:evenodd;fill:rgb(99.998474%,0%,0%);fill-opacity:0.6;" d="M 342.789063 54 C 342.789063 53.523438 342.601563 53.070313 342.265625 52.734375 C 341.929688 52.398438 341.476563 52.210938 341 52.210938 C 340.523438 52.210938 340.070313 52.398438 339.734375 52.734375 C 339.398438 53.070313 339.210938 53.523438 339.210938 54 C 339.210938 54.476563 339.398438 54.929688 339.734375 55.265625 C 340.070313 55.601563 340.523438 55.789063 341 55.789063 C 341.476563 55.789063 341.929688 55.601563 342.265625 55.265625 C 342.601563 54.929688 342.789063 54.476563 342.789063 54 Z M 342.789063 54 "/>
<path style=" stroke:none;fill-rule:evenodd;fill:rgb(99.998474%,0%,0%);fill-opacity:0.6;" d="M 13.789063 53 C 13.789063 52.523438 13.601563 52.070313 13.265625 51.734375 C 12.929688 51.398438 12.476563 51.210938 12 51.210938 C 11.523438 51.210938 11.070313 51.398438 10.734375 51.734375 C 10.398438 52.070313 10.210938 52.523438 10.210938 53 C 10.210938 53.476563 10.398438 53.929688 10.734375 54.265625 C 11.070313 54.601563 11.523438 54.789063 12 54.789063 C 12.476563 54.789063 12.929688 54.601563 13.265625 54.265625 C 13.601563 53.929688 13.789063 53.476563 13.789063 53 Z M 13.789063 53 "/>
<path style=" stroke:none;fill-rule:evenodd;fill:rgb(99.998474%,0%,0%);fill-opacity:0.6;" d="M 61.789063 51 C 61.789063 50.523438 61.601563 50.070313 61.265625 49.734375 C 60.929688 49.398438 60.476563 49.210938 60 49.210938 C 59.523438 49.210938 59.070313 49.398438 58.734375 49.734375 C 58.398438 50.070313 58.210938 50.523438 58.210938 51 C 58.210938 51.476563 58.398438 51.929688 58.734375 52.265625 C 59.070313 52.601563 59.523438 52.789063 60 52.789063 C 60.476563 52.789063 60.929688 52.601563 61.265625 52.265625 C 61.601563 51.929688 61.789063 51.476563 61.789063 51 Z M 61.789063 51 "/>
<path style=" stroke:none;fill-rule:evenodd;fill:rgb(99.998474%,0%,0%);fill-opacity:0.6;" d="M 60.789063 49 C 60.789063 48.523438 60.601563 48.070313 60.265625 47.734375 C 59.929688 47.398438 59.476563 47.210938 59 47.210938 C 58.523438 47.210938 58.070313 47.398438 57.734375 47.734375 C 57.398438 48.070313 57.210938 48.523438 57.210938 49 C 57.210938 49.476563 57.398438 49.929688 57.734375 50.265625 C 58.070313 50.601563 58.523438 50.789063 59 50.789063 C 59.476563 50.789063 59.929688 50.601563 60.265625 50.265625 C 60.601563 49.929688 60.789063 49.476563 60.789063 49 Z M 60.789063 49 "/>
<path style=" stroke:none;fill-rule:evenodd;fill:rgb(99.998474%,0%,0%);fill-opacity:0.6;" d="M 59.789063 47 C 59.789063 46.523438 59.601563 46.070313 59.265625 45.734375 C 58.929688 45.398438 58.476563 45.210938 58 45.210938 C 57.523438 45.210938 57.070313 45.398438 56.734375 45.734375 C 56.398438 46.070313 56.210938 46.523438 56.210938 47 C 56.210938 47.476563 56.398438 47.929688 56.734375 48.265625 C 57.070313 48.601563 57.523438 48.789063 58 48.789063 C 58.476563 48.789063 58.929688 48.601563 59.265625 48.265625 C 59.601563 47.929688 59.789063 47.476563 59.789063 47 Z M 59.789063 47 "/>
<path style=" stroke:none;fill-rule:evenodd;fill:rgb(99.998474%,0%,0%);fill-opacity:0.6;" d="M 63.789063 43 C 63.789063 42.523438 63.601563 42.070313 63.265625 41.734375 C 62.929688 41.398438 62.476563 41.210938 62 41.210938 C 61.523438 41.210938 61.070313 41.398438 60.734375 41.734375 C 60.398438 42.070313 60.210938 42.523438 60.210938 43 C 60.210938 43.476563 60.398438 43.929688 60.734375 44.265625 C 61.070313 44.601563 61.523438 44.789063 62 44.789063 C 62.476563 44.789063 62.929688 44.601563 63.265625 44.265625 C 63.601563 43.929688 63.789063 43.476563 63.789063 43 Z M 63.789063 43 "/>
<path style=" stroke:none;fill-rule:evenodd;fill:rgb(99.998474%,0%,0%);fill-opacity:1;" d="M 250.5 309 C 250.5 308.601563 250.34375 308.21875 250.0625 307.9375 C 249.78125 307.65625 249.398438 307.5 249 307.5 C 248.601563 307.5 248.21875 307.65625 247.9375 307.9375 C 247.65625 308.21875 247.5 308.601563 247.5 309 C 247.5 309.398438 247.65625 309.78125 247.9375 310.0625 C 248.21875 310.34375 248.601563 310.5 249 310.5 C 249.398438 310.5 249.78125 310.34375 250.0625 310.0625 C 250.34375 309.78125 250.5 309.398438 250.5 309 Z M 250.5 309 "/>
<path style=" stroke:none;fill-rule:evenodd;fill:rgb(99.998474%,0%,0%);fill-opacity:1;" d="M 63.5 297 C 63.5 296.601563 63.34375 296.21875 63.0625 295.9375 C 62.78125 295.65625 62.398438 295.5 62 295.5 C 61.601563 295.5 61.21875 295.65625 60.9375 295.9375 C 60.65625 296.21875 60.5 296.601563 60.5 297 C 60.5 297.398438 60.65625 297.78125 60.9375 298.0625 C 61.21875 298.34375 61.601563 298.5 62 298.5 C 62.398438 298.5 62.78125 298.34375 63.0625 298.0625 C 63.34375 297.78125 63.5 297.398438 63.5 297 Z M 63.5 297 "/>
<path style=" stroke:none;fill-rule:evenodd;fill:rgb(99.998474%,0%,0%);fill-opacity:1;" d="M 63.5 291 C 63.5 290.601563 63.34375 290.21875 63.0625 289.9375 C 62.78125 289.65625 62.398438 289.5 62 289.5 C 61.601563 289.5 61.21875 289.65625 60.9375 289.9375 C 60.65625 290.21875 60.5 290.601563 60.5 291 C 60.5 291.398438 60.65625 291.78125 60.9375 292.0625 C 61.21875 292.34375 61.601563 292.5 62 292.5 C 62.398438 292.5 62.78125 292.34375 63.0625 292.0625 C 63.34375 291.78125 63.5 291.398438 63.5 291 Z M 63.5 291 "/>
<path style=" stroke:none;fill-rule:evenodd;fill:rgb(99.998474%,0%,0%);fill-opacity:1;" d="M 131.5 280 C 131.5 279.601563 131.34375 279.21875 131.0625 278.9375 C 130.78125 278.65625 130.398438 278.5 130 278.5 C 129.601563 278.5 129.21875 278.65625 128.9375 278.9375 C 128.65625 279.21875 128.5 279.601563 128.5 280 C 128.5 280.398438 128.65625 280.78125 128.9375 281.0625 C 129.21875 281.34375 129.601563 281.5 130 281.5 C 130.398438 281.5 130.78125 281.34375 131.0625 281.0625 C 131.34375 280.78125 131.5 280.398438 131.5 280 Z M 131.5 280 "/>
<path style=" stroke:none;fill-rule:evenodd;fill:rgb(99.998474%,0%,0%);fill-opacity:1;" d="M 131.5 279 C 131.5 278.601563 131.34375 278.21875 131.0625 277.9375 C 130.78125 277.65625 130.398438 277.5 130 277.5 C 129.601563 277.5 129.21875 277.65625 128.9375 277.9375 C 128.65625 278.21875 128.5 278.601563 128.5 279 C 128.5 279.398438 128.65625 279.78125 128.9375 280.0625 C 129.21875 280.34375 129.601563 280.5 130 280.5 C 130.398438 280.5 130.78125 280.34375 131.0625 280.0625 C 131.34375 279.78125 131.5 279.398438 131.5 279 Z M 131.5 279 "/>
<path style=" stroke:none;fill-rule:evenodd;fill:rgb(99.998474%,0%,0%);fill-opacity:1;" d="M 331.5 277 C 331.5 276.601563 331.34375 276.21875 331.0625 275.9375 C 330.78125 275.65625 330.398438 275.5 330 275.5 C 329.601563 275.5 329.21875 275.65625 328.9375 275.9375 C 328.65625 276.21875 328.5 276.601563 328.5 277 C 328.5 277.398438 328.65625 277.78125 328.9375 278.0625 C 329.21875 278.34375 329.601563 278.5 330 278.5 C 330.398438 278.5 330.78125 278.34375 331.0625 278.0625 C 331.34375 277.78125 331.5 277.398438 331.5 277 Z M 331.5 277 "/>
<path style=" stroke:none;fill-rule:evenodd;fill:rgb(99.998474%,0%,0%);fill-opacity:1;" d="M 132.5 276 C 132.5 275.601563 132.34375 275.21875 132.0625 274.9375 C 131.78125 274.65625 131.398438 274.5 131 274.5 C 130.601563 274.5 130.21875 274.65625 129.9375 274.9375 C 129.65625 275.21875 129.5 275.601563 129.5 276 C 129.5 276.398438 129.65625 276.78125 129.9375 277.0625 C 130.21875 277.34375 130.601563 277.5 131 277.5 C 131.398438 277.5 131.78125 277.34375 132.0625 277.0625 C 132.34375 276.78125 132.5 276.398438 132.5 276 Z M 132.5 276 "/>
<path style=" stroke:none;fill-rule:evenodd;fill:rgb(99.998474%,0%,0%);fill-opacity:1;" d="M 329.5 272 C 329.5 271.601563 329.34375 271.21875 329.0625 270.9375 C 328.78125 270.65625 328.398438 270.5 328 270.5 C 327.601563 270.5 327.21875 270.65625 326.9375 270.9375 C 326.65625 271.21875 326.5 271.601563 326.5 272 C 326.5 272.398438 326.65625 272.78125 326.9375 273.0625 C 327.21875 273.34375 327.601563 273.5 328 273.5 C 328.398438 273.5 328.78125 273.34375 329.0625 273.0625 C 329.34375 272.78125 329.5 272.398438 329.5 272 Z M 329.5 272 "/>
<path style=" stroke:none;fill-rule:evenodd;fill:rgb(99.998474%,0%,0%);fill-opacity:1;" d="M 333.5 265 C 333.5 264.601563 333.34375 264.21875 333.0625 263.9375 C 332.78125 263.65625 332.398438 263.5 332 263.5 C 331.601563 263.5 331.21875 263.65625 330.9375 263.9375 C 330.65625 264.21875 330.5 264.601563 330.5 265 C 330.5 265.398438 330.65625 265.78125 330.9375 266.0625 C 331.21875 266.34375 331.601563 266.5 332 266.5 C 332.398438 266.5 332.78125 266.34375 333.0625 266.0625 C 333.34375 265.78125 333.5 265.398438 333.5 265 Z M 333.5 265 "/>
<path style=" stroke:none;fill-rule:evenodd;fill:rgb(99.998474%,0%,0%);fill-opacity:1;" d="M 333.5 265 C 333.5 264.601563 333.34375 264.21875 333.0625 263.9375 C 332.78125 263.65625 332.398438 263.5 332 263.5 C 331.601563 263.5 331.21875 263.65625 330.9375 263.9375 C 330.65625 264.21875 330.5 264.601563 330.5 265 C 330.5 265.398438 330.65625 265.78125 330.9375 266.0625 C 331.21875 266.34375 331.601563 266.5 332 266.5 C 332.398438 266.5 332.78125 266.34375 333.0625 266.0625 C 333.34375 265.78125 333.5 265.398438 333.5 265 Z M 333.5 265 "/>
<path style=" stroke:none;fill-rule:evenodd;fill:rgb(99.998474%,0%,0%);fill-opacity:1;" d="M 240.5 264 C 240.5 263.601563 240.34375 263.21875 240.0625 262.9375 C 239.78125 262.65625 239.398438 262.5 239 262.5 C 238.601563 262.5 238.21875 262.65625 237.9375 262.9375 C 237.65625 263.21875 237.5 263.601563 237.5 264 C 237.5 264.398438 237.65625 264.78125 237.9375 265.0625 C 238.21875 265.34375 238.601563 265.5 239 265.5 C 239.398438 265.5 239.78125 265.34375 240.0625 265.0625 C 240.34375 264.78125 240.5 264.398438 240.5 264 Z M 240.5 264 "/>
<path style=" stroke:none;fill-rule:evenodd;fill:rgb(99.998474%,0%,0%);fill-opacity:1;" d="M 241.5 255 C 241.5 254.601563 241.34375 254.21875 241.0625 253.9375 C 240.78125 253.65625 240.398438 253.5 240 253.5 C 239.601563 253.5 239.21875 253.65625 238.9375 253.9375 C 238.65625 254.21875 238.5 254.601563 238.5 255 C 238.5 255.398438 238.65625 255.78125 238.9375 256.0625 C 239.21875 256.34375 239.601563 256.5 240 256.5 C 240.398438 256.5 240.78125 256.34375 241.0625 256.0625 C 241.34375 255.78125 241.5 255.398438 241.5 255 Z M 241.5 255 "/>
<path style=" stroke:none;fill-rule:evenodd;fill:rgb(99.998474%,0%,0%);fill-opacity:1;" d="M 241.5 255 C 241.5 254.601563 241.34375 254.21875 241.0625 253.9375 C 240.78125 253.65625 240.398438 253.5 240 253.5 C 239.601563 253.5 239.21875 253.65625 238.9375 253.9375 C 238.65625 254.21875 238.5 254.601563 238.5 255 C 238.5 255.398438 238.65625 255.78125 238.9375 256.0625 C 239.21875 256.34375 239.601563 256.5 240 256.5 C 240.398438 256.5 240.78125 256.34375 241.0625 256.0625 C 241.34375 255.78125 241.5 255.398438 241.5 255 Z M 241.5 255 "/>
<path style=" stroke:none;fill-rule:evenodd;fill:rgb(99.998474%,0%,0%);fill-opacity:1;" d="M 25.5 243 C 25.5 242.601563 25.34375 242.21875 25.0625 241.9375 C 24.78125 241.65625 24.398438 241.5 24 241.5 C 23.601563 241.5 23.21875 241.65625 22.9375 241.9375 C 22.65625 242.21875 22.5 242.601563 22.5 243 C 22.5 243.398438 22.65625 243.78125 22.9375 244.0625 C 23.21875 244.34375 23.601563 244.5 24 244.5 C 24.398438 244.5 24.78125 244.34375 25.0625 244.0625 C 25.34375 243.78125 25.5 243.398438 25.5 243 Z M 25.5 243 "/>
<path style=" stroke:none;fill-rule:evenodd;fill:rgb(99.998474%,0%,0%);fill-opacity:1;" d="M 34.5 241 C 34.5 240.601563 34.34375 240.21875 34.0625 239.9375 C 33.78125 239.65625 33.398438 239.5 33 239.5 C 32.601563 239.5 32.21875 239.65625 31.9375 239.9375 C 31.65625 240.21875 31.5 240.601563 31.5 241 C 31.5 241.398438 31.65625 241.78125 31.9375 242.0625 C 32.21875 242.34375 32.601563 242.5 33 242.5 C 33.398438 242.5 33.78125 242.34375 34.0625 242.0625 C 34.34375 241.78125 34.5 241.398438 34.5 241 Z M 34.5 241 "/>
<path style=" stroke:none;fill-rule:evenodd;fill:rgb(99.998474%,0%,0%);fill-opacity:1;" d="M 148.5 202 C 148.5 201.601563 148.34375 201.21875 148.0625 200.9375 C 147.78125 200.65625 147.398438 200.5 147 200.5 C 146.601563 200.5 146.21875 200.65625 145.9375 200.9375 C 145.65625 201.21875 145.5 201.601563 145.5 202 C 145.5 202.398438 145.65625 202.78125 145.9375 203.0625 C 146.21875 203.34375 146.601563 203.5 147 203.5 C 147.398438 203.5 147.78125 203.34375 148.0625 203.0625 C 148.34375 202.78125 148.5 202.398438 148.5 202 Z M 148.5 202 "/>
<path style=" stroke:none;fill-rule:evenodd;fill:rgb(99.998474%,0%,0%);fill-opacity:1;" d="M 155.5 192 C 155.5 191.601563 155.34375 191.21875 155.0625 190.9375 C 154.78125 190.65625 154.398438 190.5 154 190.5 C 153.601563 190.5 153.21875 190.65625 152.9375 190.9375 C 152.65625 191.21875 152.5 191.601563 152.5 192 C 152.5 192.398438 152.65625 192.78125 152.9375 193.0625 C 153.21875 193.34375 153.601563 193.5 154 193.5 C 154.398438 193.5 154.78125 193.34375 155.0625 193.0625 C 155.34375 192.78125 155.5 192.398438 155.5 192 Z M 155.5 192 "/>
<path style=" stroke:none;fill-rule:evenodd;fill:rgb(99.998474%,0%,0%);fill-opacity:1;" d="M 156.5 190 C 156.5 189.601563 156.34375 189.21875 156.0625 188.9375 C 155.78125 188.65625 155.398438 188.5 155 188.5 C 154.601563 188.5 154.21875 188.65625 153.9375 188.9375 C 153.65625 189.21875 153.5 189.601563 153.5 190 C 153.5 190.398438 153.65625 190.78125 153.9375 191.0625 C 154.21875 191.34375 154.601563 191.5 155 191.5 C 155.398438 191.5 155.78125 191.34375 156.0625 191.0625 C 156.34375 190.78125 156.5 190.398438 156.5 190 Z M 156.5 190 "/>
<path style=" stroke:none;fill-rule:evenodd;fill:rgb(99.998474%,0%,0%);fill-opacity:1;" d="M 158.5 189 C 158.5 188.601563 158.34375 188.21875 158.0625 187.9375 C 157.78125 187.65625 157.398438 187.5 157 187.5 C 156.601563 187.5 156.21875 187.65625 155.9375 187.9375 C 155.65625 188.21875 155.5 188.601563 155.5 189 C 155.5 189.398438 155.65625 189.78125 155.9375 190.0625 C 156.21875 190.34375 156.601563 190.5 157 190.5 C 157.398438 190.5 157.78125 190.34375 158.0625 190.0625 C 158.34375 189.78125 158.5 189.398438 158.5 189 Z M 158.5 189 "/>
<path style=" stroke:none;fill-rule:evenodd;fill:rgb(99.998474%,0%,0%);fill-opacity:1;" d="M 160.5 188 C 160.5 187.601563 160.34375 187.21875 160.0625 186.9375 C 159.78125 186.65625 159.398438 186.5 159 186.5 C 158.601563 186.5 158.21875 186.65625 157.9375 186.9375 C 157.65625 187.21875 157.5 187.601563 157.5 188 C 157.5 188.398438 157.65625 188.78125 157.9375 189.0625 C 158.21875 189.34375 158.601563 189.5 159 189.5 C 159.398438 189.5 159.78125 189.34375 160.0625 189.0625 C 160.34375 188.78125 160.5 188.398438 160.5 188 Z M 160.5 188 "/>
<path style=" stroke:none;fill-rule:evenodd;fill:rgb(99.998474%,0%,0%);fill-opacity:1;" d="M 345.5 62 C 345.5 61.601563 345.34375 61.21875 345.0625 60.9375 C 344.78125 60.65625 344.398438 60.5 344 60.5 C 343.601563 60.5 343.21875 60.65625 342.9375 60.9375 C 342.65625 61.21875 342.5 61.601563 342.5 62 C 342.5 62.398438 342.65625 62.78125 342.9375 63.0625 C 343.21875 63.34375 343.601563 63.5 344 63.5 C 344.398438 63.5 344.78125 63.34375 345.0625 63.0625 C 345.34375 62.78125 345.5 62.398438 345.5 62 Z M 345.5 62 "/>
<path style=" stroke:none;fill-rule:evenodd;fill:rgb(99.998474%,0%,0%);fill-opacity:1;" d="M 11.5 59 C 11.5 58.601563 11.34375 58.21875 11.0625 57.9375 C 10.78125 57.65625 10.398438 57.5 10 57.5 C 9.601563 57.5 9.21875 57.65625 8.9375 57.9375 C 8.65625 58.21875 8.5 58.601563 8.5 59 C 8.5 59.398438 8.65625 59.78125 8.9375 60.0625 C 9.21875 60.34375 9.601563 60.5 10 60.5 C 10.398438 60.5 10.78125 60.34375 11.0625 60.0625 C 11.34375 59.78125 11.5 59.398438 11.5 59 Z M 11.5 59 "/>
<path style=" stroke:none;fill-rule:evenodd;fill:rgb(99.998474%,0%,0%);fill-opacity:1;" d="M 11.5 59 C 11.5 58.601563 11.34375 58.21875 11.0625 57.9375 C 10.78125 57.65625 10.398438 57.5 10 57.5 C 9.601563 57.5 9.21875 57.65625 8.9375 57.9375 C 8.65625 58.21875 8.5 58.601563 8.5 59 C 8.5 59.398438 8.65625 59.78125 8.9375 60.0625 C 9.21875 60.34375 9.601563 60.5 10 60.5 C 10.398438 60.5 10.78125 60.34375 11.0625 60.0625 C 11.34375 59.78125 11.5 59.398438 11.5 59 Z M 11.5 59 "/>
<path style=" stroke:none;fill-rule:evenodd;fill:rgb(99.998474%,0%,0%);fill-opacity:1;" d="M 340.5 57 C 340.5 56.601563 340.34375 56.21875 340.0625 55.9375 C 339.78125 55.65625 339.398438 55.5 339 55.5 C 338.601563 55.5 338.21875 55.65625 337.9375 55.9375 C 337.65625 56.21875 337.5 56.601563 337.5 57 C 337.5 57.398438 337.65625 57.78125 337.9375 58.0625 C 338.21875 58.34375 338.601563 58.5 339 58.5 C 339.398438 58.5 339.78125 58.34375 340.0625 58.0625 C 340.34375 57.78125 340.5 57.398438 340.5 57 Z M 340.5 57 "/>
<path style=" stroke:none;fill-rule:evenodd;fill:rgb(99.998474%,0%,0%);fill-opacity:1;" d="M 341.5 56 C 341.5 55.601563 341.34375 55.21875 341.0625 54.9375 C 340.78125 54.65625 340.398438 54.5 340 54.5 C 339.601563 54.5 339.21875 54.65625 338.9375 54.9375 C 338.65625 55.21875 338.5 55.601563 338.5 56 C 338.5 56.398438 338.65625 56.78125 338.9375 57.0625 C 339.21875 57.34375 339.601563 57.5 340 57.5 C 340.398438 57.5 340.78125 57.34375 341.0625 57.0625 C 341.34375 56.78125 341.5 56.398438 341.5 56 Z M 341.5 56 "/>
<path style=" stroke:none;fill-rule:evenodd;fill:rgb(99.998474%,0%,0%);fill-opacity:1;" d="M 344.5 55 C 344.5 54.601563 344.34375 54.21875 344.0625 53.9375 C 343.78125 53.65625 343.398438 53.5 343 53.5 C 342.601563 53.5 342.21875 53.65625 341.9375 53.9375 C 341.65625 54.21875 341.5 54.601563 341.5 55 C 341.5 55.398438 341.65625 55.78125 341.9375 56.0625 C 342.21875 56.34375 342.601563 56.5 343 56.5 C 343.398438 56.5 343.78125 56.34375 344.0625 56.0625 C 344.34375 55.78125 344.5 55.398438 344.5 55 Z M 344.5 55 "/>
<path style=" stroke:none;fill-rule:evenodd;fill:rgb(99.998474%,0%,0%);fill-opacity:1;" d="M 342.5 54 C 342.5 53.601563 342.34375 53.21875 342.0625 52.9375 C 341.78125 52.65625 341.398438 52.5 341 52.5 C 340.601563 52.5 340.21875 52.65625 339.9375 52.9375 C 339.65625 53.21875 339.5 53.601563 339.5 54 C 339.5 54.398438 339.65625 54.78125 339.9375 55.0625 C 340.21875 55.34375 340.601563 55.5 341 55.5 C 341.398438 55.5 341.78125 55.34375 342.0625 55.0625 C 342.34375 54.78125 342.5 54.398438 342.5 54 Z M 342.5 54 "/>
<path style=" stroke:none;fill-rule:evenodd;fill:rgb(99.998474%,0%,0%);fill-opacity:1;" d="M 13.5 53 C 13.5 52.601563 13.34375 52.21875 13.0625 51.9375 C 12.78125 51.65625 12.398438 51.5 12 51.5 C 11.601563 51.5 11.21875 51.65625 10.9375 51.9375 C 10.65625 52.21875 10.5 52.601563 10.5 53 C 10.5 53.398438 10.65625 53.78125 10.9375 54.0625 C 11.21875 54.34375 11.601563 54.5 12 54.5 C 12.398438 54.5 12.78125 54.34375 13.0625 54.0625 C 13.34375 53.78125 13.5 53.398438 13.5 53 Z M 13.5 53 "/>
<path style=" stroke:none;fill-rule:evenodd;fill:rgb(99.998474%,0%,0%);fill-opacity:1;" d="M 61.5 51 C 61.5 50.601563 61.34375 50.21875 61.0625 49.9375 C 60.78125 49.65625 60.398438 49.5 60 49.5 C 59.601563 49.5 59.21875 49.65625 58.9375 49.9375 C 58.65625 50.21875 58.5 50.601563 58.5 51 C 58.5 51.398438 58.65625 51.78125 58.9375 52.0625 C 59.21875 52.34375 59.601563 52.5 60 52.5 C 60.398438 52.5 60.78125 52.34375 61.0625 52.0625 C 61.34375 51.78125 61.5 51.398438 61.5 51 Z M 61.5 51 "/>
<path style=" stroke:none;fill-rule:evenodd;fill:rgb(99.998474%,0%,0%);fill-opacity:1;" d="M 60.5 49 C 60.5 48.601563 60.34375 48.21875 60.0625 47.9375 C 59.78125 47.65625 59.398438 47.5 59 47.5 C 58.601563 47.5 58.21875 47.65625 57.9375 47.9375 C 57.65625 48.21875 57.5 48.601563 57.5 49 C 57.5 49.398438 57.65625 49.78125 57.9375 50.0625 C 58.21875 50.34375 58.601563 50.5 59 50.5 C 59.398438 50.5 59.78125 50.34375 60.0625 50.0625 C 60.34375 49.78125 60.5 49.398438 60.5 49 Z M 60.5 49 "/>
<path style=" stroke:none;fill-rule:evenodd;fill:rgb(99.998474%,0%,0%);fill-opacity:1;" d="M 59.5 47 C 59.5 46.601563 59.34375 46.21875 59.0625 45.9375 C 58.78125 45.65625 58.398438 45.5 58 45.5 C 57.601563 45.5 57.21875 45.65625 56.9375 45.9375 C 56.65625 46.21875 56.5 46.601563 56.5 47 C 56.5 47.398438 56.65625 47.78125 56.9375 48.0625 C 57.21875 48.34375 57.601563 48.5 58 48.5 C 58.398438 48.5 58.78125 48.34375 59.0625 48.0625 C 59.34375 47.78125 59.5 47.398438 59.5 47 Z M 59.5 47 "/>
<path style=" stroke:none;fill-rule:evenodd;fill:rgb(99.998474%,0%,0%);fill-opacity:1;" d="M 63.5 43 C 63.5 42.601563 63.34375 42.21875 63.0625 41.9375 C 62.78125 41.65625 62.398438 41.5 62 41.5 C 61.601563 41.5 61.21875 41.65625 60.9375 41.9375 C 60.65625 42.21875 60.5 42.601563 60.5 43 C 60.5 43.398438 60.65625 43.78125 60.9375 44.0625 C 61.21875 44.34375 61.601563 44.5 62 44.5 C 62.398438 44.5 62.78125 44.34375 63.0625 44.0625 C 63.34375 43.78125 63.5 43.398438 63.5 43 Z M 63.5 43 "/>
</g>
</svg>
