<?xml version="1.0" encoding="UTF-8"?>
<svg xmlns="http://www.w3.org/2000/svg" xmlns:xlink="http://www.w3.org/1999/xlink" width="330pt" height="293pt" viewBox="0 0 330 293" version="1.1">
<g id="surface2239">
<path style="fill-rule:nonzero;fill:rgb(84.999084%,84.999084%,84.999084%);fill-opacity:0.6;stroke-width:1;stroke-linecap:square;stroke-linejoin:miter;stroke:rgb(50%,50%,50%);stroke-opacity:1;stroke-miterlimit:3.25;" d="M 237.351563 93.65625 L 348.972656 202.027344 L 331.742188 140.566406 Z M 237.351563 93.65625 " transform="matrix(1,0,0,1,-74,-13)"/>
<path style="fill-rule:nonzero;fill:rgb(84.999084%,84.999084%,84.999084%);fill-opacity:0.6;stroke-width:1;stroke-linecap:square;stroke-linejoin:miter;stroke:rgb(50%,50%,50%);stroke-opacity:1;stroke-miterlimit:3.25;" d="M 348.972656 202.027344 L 237.351563 93.65625 L 104.875 294.644531 Z M 348.972656 202.027344 " transform="matrix(1,0,0,1,-74,-13)"/>
<path style="fill-rule:nonzero;fill:rgb(84.999084%,84.999084%,84.999084%);fill-opacity:0.6;stroke-width:1;stroke-linecap:square;stroke-linejoin:miter;stroke:rgb(50%,50%,50%);stroke-opacity:1;stroke-miterlimit:3.25;" d="M 165.179688 97.53125 L 237.351563 93.65625 L 249.152344 33.519531 Z M 165.179688 97.53125 " transform="matrix(1,0,0,1,-74,-13)"/>
<path style="fill-rule:nonzero;fill:rgb(84.999084%,84.999084%,84.999084%);fill-opacity:0.6;stroke-width:1;stroke-linecap:square;stroke-linejoin:miter;stroke:rgb(50%,50%,50%);stroke-opacity:1;stroke-miterlimit:3.25;" d="M 237.351563 93.65625 L 165.179688 97.53125 L 104.875 294.644531 Z M 237.351563 93.65625 " transform="matrix(1,0,0,1,-74,-13)"/>
<path style="fill-rule:nonzero;fill:rgb(84.999084%,84.999084%,84.999084%);fill-opacity:0.6;stroke-width:1;stroke-linecap:square;stroke-linejoin:miter;stroke:rgb(50%,50%,50%);stroke-opacity:1;stroke-miterlimit:3.25;" d="M 373.539063 83.507813 L 249.152344 33.519531 L 237.351563 93.65625 Z M 373.539063 83.507813 " transform="matrix(1,0,0,1,-74,-13)"/>
<path style="fill-rule:nonzero;fill:rgb(84.999084%,84.999084%,84.999084%);fill-opacity:0.6;stroke-width:1;stroke-linecap:square;stroke-linejoin:miter;stroke:rgb(50%,50%,50%);stroke-opacity:1;stroke-miterlimit:3.25;" d="M 237.351563 93.65625 L 331.742188 140.566406 L 373.539063 83.507813 Z M 237.351563 93.65625 " transform="matrix(1,0,0,1,-74,-13)"/>
<path style="fill-rule:nonzero;fill:rgb(84.999084%,84.999084%,84.999084%);fill-opacity:0.6;stroke-width:1;stroke-linecap:square;stroke-linejoin:miter;stroke:rgb(50%,50%,50%);stroke-opacity:1;stroke-miterlimit:3.25;" d="M 336.644531 304.160156 L 401.800781 208.628906 L 348.972656 202.027344 Z M 336.644531 304.160156 " transform="matrix(1,0,0,1,-74,-13)"/>
<path style="fill-rule:nonzero;fill:rgb(84.999084%,84.999084%,84.999084%);fill-opacity:0.6;stroke-width:1;stroke-linecap:square;stroke-linejoin:miter;stroke:rgb(50%,50%,50%);stroke-opacity:1;stroke-miterlimit:3.25;" d="M 373.539063 83.507813 L 331.742188 140.566406 L 401.800781 208.628906 Z M 373.539063 83.507813 " transform="matrix(1,0,0,1,-74,-13)"/>
<path style="fill-rule:nonzero;fill:rgb(84.999084%,84.999084%,84.999084%);fill-opacity:0.6;stroke-width:1;stroke-linecap:square;stroke-linejoin:miter;stroke:rgb(50%,50%,50%);stroke-opacity:1;stroke-miterlimit:3.25;" d="M 373.539063 83.507813 L 401.800781 208.628906 L 389.261719 25.898438 Z M 373.539063 83.507813 " transform="matrix(1,0,0,1,-74,-13)"/>
<path style="fill-rule:nonzero;fill:rgb(84.999084%,84.999084%,84.999084%);fill-opacity:0.6;stroke-width:1;stroke-linecap:square;stroke-linejoin:miter;stroke:rgb(50%,50%,50%);stroke-opacity:1;stroke-miterlimit:3.25;" d="M 373.539063 83.507813 L 389.261719 25.898438 L 249.152344 33.519531 Z M 373.539063 83.507813 " transform="matrix(1,0,0,1,-74,-13)"/>
<path style="fill-rule:nonzero;fill:rgb(84.999084%,84.999084%,84.999084%);fill-opacity:0.6;stroke-width:1;stroke-linecap:square;stroke-linejoin:miter;stroke:rgb(50%,50%,50%);stroke-opacity:1;stroke-miterlimit:3.25;" d="M 401.800781 208.628906 L 331.742188 140.566406 L 348.972656 202.027344 Z M 401.800781 208.628906 " transform="matrix(1,0,0,1,-74,-13)"/>
<path style="fill-rule:nonzero;fill:rgb(84.999084%,84.999084%,84.999084%);fill-opacity:0.6;stroke-width:1;stroke-linecap:square;stroke-linejoin:miter;stroke:rgb(50%,50%,50%);stroke-opacity:1;stroke-miterlimit:3.25;" d="M 336.644531 304.160156 L 348.972656 202.027344 L 104.875 294.644531 Z M 336.644531 304.160156 " transform="matrix(1,0,0,1,-74,-13)"/>
<path style=" stroke:none;fill-rule:evenodd;fill:rgb(99.998474%,0%,0%);fill-opacity:0.6;" d="M 264.789063 291 C 264.789063 290.523438 264.601563 290.070313 264.265625 289.734375 C 263.929688 289.398438 263.476563 289.210938 263 289.210938 C 262.523438 289.210938 262.070313 289.398438 261.734375 289.734375 C 261.398438 290.070313 261.210938 290.523438 261.210938 291 C 261.210938 291.476563 261.398438 291.929688 261.734375 292.265625 C 262.070313 292.601563 262.523438 292.789063 263 292.789063 C 263.476563 292.789063 263.929688 292.601563 264.265625 292.265625 C 264.601563 291.929688 264.789063 291.476563 264.789063 291 Z M 264.789063 291 "/>
<path style=" stroke:none;fill-rule:evenodd;fill:rgb(99.998474%,0%,0%);fill-opacity:0.6;" d="M 32.789063 282 C 32.789063 281.523438 32.601563 281.070313 32.265625 280.734375 C 31.929688 280.398438 31.476563 280.210938 31 280.210938 C 30.523438 280.210938 30.070313 280.398438 29.734375 280.734375 C 29.398438 281.070313 29.210938 281.523438 29.210938 282 C 29.210938 282.476563 29.398438 282.929688 29.734375 283.265625 C 30.070313 283.601563 30.523438 283.789063 31 283.789063 C 31.476563 283.789063 31.929688 283.601563 32.265625 283.265625 C 32.601563 282.929688 32.789063 282.476563 32.789063 282 Z M 32.789063 282 "/>
<path style=" stroke:none;fill-rule:evenodd;fill:rgb(99.998474%,0%,0%);fill-opacity:0.6;" d="M 329.789063 196 C 329.789063 195.523438 329.601563 195.070313 329.265625 194.734375 C 328.929688 194.398438 328.476563 194.210938 328 194.210938 C 327.523438 194.210938 327.070313 194.398438 326.734375 194.734375 C 326.398438 195.070313 326.210938 195.523438 326.210938 196 C 326.210938 196.476563 326.398438 196.929688 326.734375 197.265625 C 327.070313 197.601563 327.523438 197.789063 328 197.789063 C 328.476563 197.789063 328.929688 197.601563 329.265625 197.265625 C 329.601563 196.929688 329.789063 196.476563 329.789063 196 Z M 329.789063 196 "/>
<path style=" stroke:none;fill-rule:evenodd;fill:rgb(99.998474%,0%,0%);fill-opacity:0.6;" d="M 276.789063 189 C 276.789063 188.523438 276.601563 188.070313 276.265625 187.734375 C 275.929688 187.398438 275.476563 187.210938 275 187.210938 C 274.523438 187.210938 274.070313 187.398438 273.734375 187.734375 C 273.398438 188.070313 273.210938 188.523438 273.210938 189 C 273.210938 189.476563 273.398438 189.929688 273.734375 190.265625 C 274.070313 190.601563 274.523438 190.789063 275 190.789063 C 275.476563 190.789063 275.929688 190.601563 276.265625 190.265625 C 276.601563 189.929688 276.789063 189.476563 276.789063 189 Z M 276.789063 189 "/>
<path style=" stroke:none;fill-rule:evenodd;fill:rgb(99.998474%,0%,0%);fill-opacity:0.6;" d="M 259.789063 128 C 259.789063 127.523438 259.601563 127.070313 259.265625 126.734375 C 258.929688 126.398438 258.476563 126.210938 258 126.210938 C 257.523438 126.210938 257.070313 126.398438 256.734375 126.734375 C 256.398438 127.070313 256.210938 127.523438 256.210938 128 C 256.210938 128.476563 256.398438 128.929688 256.734375 129.265625 C 257.070313 129.601563 257.523438 129.789063 258 129.789063 C 258.476563 129.789063 258.929688 129.601563 259.265625 129.265625 C 259.601563 128.929688 259.789063 128.476563 259.789063 128 Z M 259.789063 128 "/>
<path style=" stroke:none;fill-rule:evenodd;fill:rgb(99.998474%,0%,0%);fill-opacity:0.6;" d="M 92.789063 85 C 92.789063 84.523438 92.601563 84.070313 92.265625 83.734375 C 91.929688 83.398438 91.476563 83.210938 91 83.210938 C 90.523438 83.210938 90.070313 83.398438 89.734375 83.734375 C 89.398438 84.070313 89.210938 84.523438 89.210938 85 C 89.210938 85.476563 89.398438 85.929688 89.734375 86.265625 C 90.070313 86.601563 90.523438 86.789063 91 86.789063 C 91.476563 86.789063 91.929688 86.601563 92.265625 86.265625 C 92.601563 85.929688 92.789063 85.476563 92.789063 85 Z M 92.789063 85 "/>
<path style=" stroke:none;fill-rule:evenodd;fill:rgb(99.998474%,0%,0%);fill-opacity:0.6;" d="M 164.789063 81 C 164.789063 80.523438 164.601563 80.070313 164.265625 79.734375 C 163.929688 79.398438 163.476563 79.210938 163 79.210938 C 162.523438 79.210938 162.070313 79.398438 161.734375 79.734375 C 161.398438 80.070313 161.210938 80.523438 161.210938 81 C 161.210938 81.476563 161.398438 81.929688 161.734375 82.265625 C 162.070313 82.601563 162.523438 82.789063 163 82.789063 C 163.476563 82.789063 163.929688 82.601563 164.265625 82.265625 C 164.601563 81.929688 164.789063 81.476563 164.789063 81 Z M 164.789063 81 "/>
<path style=" stroke:none;fill-rule:evenodd;fill:rgb(99.998474%,0%,0%);fill-opacity:0.6;" d="M 301.789063 71 C 301.789063 70.523438 301.601563 70.070313 301.265625 69.734375 C 300.929688 69.398438 300.476563 69.210938 300 69.210938 C 299.523438 69.210938 299.070313 69.398438 298.734375 69.734375 C 298.398438 70.070313 298.210938 70.523438 298.210938 71 C 298.210938 71.476563 298.398438 71.929688 298.734375 72.265625 C 299.070313 72.601563 299.523438 72.789063 300 72.789063 C 300.476563 72.789063 300.929688 72.601563 301.265625 72.265625 C 301.601563 71.929688 301.789063 71.476563 301.789063 71 Z M 301.789063 71 "/>
<path style=" stroke:none;fill-rule:evenodd;fill:rgb(99.998474%,0%,0%);fill-opacity:0.6;" d="M 176.789063 21 C 176.789063 20.523438 176.601563 20.070313 176.265625 19.734375 C 175.929688 19.398438 175.476563 19.210938 175 19.210938 C 174.523438 19.210938 174.070313 19.398438 173.734375 19.734375 C 173.398438 20.070313 173.210938 20.523438 173.210938 21 C 173.210938 21.476563 173.398438 21.929688 173.734375 22.265625 C 174.070313 22.601563 174.523438 22.789063 175 22.789063 C 175.476563 22.789063 175.929688 22.601563 176.265625 22.265625 C 176.601563 21.929688 176.789063 21.476563 176.789063 21 Z M 176.789063 21 "/>
<path style=" stroke:none;fill-rule:evenodd;fill:rgb(99.998474%,0%,0%);fill-opacity:0.6;" d="M 316.789063 13 C 316.789063 12.523438 316.601563 12.070313 316.265625 11.734375 C 315.929688 11.398438 315.476563 11.210938 315 11.210938 C 314.523438 11.210938 314.070313 11.398438 313.734375 11.734375 C 313.398438 12.070313 313.210938 12.523438 313.210938 13 C 313.210938 13.476563 313.398438 13.929688 313.734375 14.265625 C 314.070313 14.601563 314.523438 14.789063 315 14.789063 C 315.476563 14.789063 315.929688 14.601563 316.265625 14.265625 C 316.601563 13.929688 316.789063 13.476563 316.789063 13 Z M 316.789063 13 "/>
<path style=" stroke:none;fill-rule:evenodd;fill:rgb(99.998474%,0%,0%);fill-opacity:1;" d="M 264.5 291 C 264.5 290.601563 264.34375 290.21875 264.0625 289.9375 C 263.78125 289.65625 263.398438 289.5 263 289.5 C 262.601563 289.5 262.21875 289.65625 261.9375 289.9375 C 261.65625 290.21875 261.5 290.601563 261.5 291 C 261.5 291.398438 261.65625 291.78125 261.9375 292.0625 C 262.21875 292.34375 262.601563 292.5 263 292.5 C 263.398438 292.5 263.78125 292.34375 264.0625 292.0625 C 264.34375 291.78125 264.5 291.398438 264.5 291 Z M 264.5 291 "/>
<path style=" stroke:none;fill-rule:evenodd;fill:rgb(99.998474%,0%,0%);fill-opacity:1;" d="M 32.5 282 C 32.5 281.601563 32.34375 281.21875 32.0625 280.9375 C 31.78125 280.65625 31.398438 280.5 31 280.5 C 30.601563 280.5 30.21875 280.65625 29.9375 280.9375 C 29.65625 281.21875 29.5 281.601563 29.5 282 C 29.5 282.398438 29.65625 282.78125 29.9375 283.0625 C 30.21875 283.34375 30.601563 283.5 31 283.5 C 31.398438 283.5 31.78125 283.34375 32.0625 283.0625 C 32.34375 282.78125 32.5 282.398438 32.5 282 Z M 32.5 282 "/>
<path style=" stroke:none;fill-rule:evenodd;fill:rgb(99.998474%,0%,0%);fill-opacity:1;" d="M 329.5 196 C 329.5 195.601563 329.34375 195.21875 329.0625 194.9375 C 328.78125 194.65625 328.398438 194.5 328 194.5 C 327.601563 194.5 327.21875 194.65625 326.9375 194.9375 C 326.65625 195.21875 326.5 195.601563 326.5 196 C 326.5 196.398438 326.65625 196.78125 326.9375 197.0625 C 327.21875 197.34375 327.601563 197.5 328 197.5 C 328.398438 197.5 328.78125 197.34375 329.0625 197.0625 C 329.34375 196.78125 329.5 196.398438 329.5 196 Z M 329.5 196 "/>
<path style=" stroke:none;fill-rule:evenodd;fill:rgb(99.998474%,0%,0%);fill-opacity:1;" d="M 276.5 189 C 276.5 188.601563 276.34375 188.21875 276.0625 187.9375 C 275.78125 187.65625 275.398438 187.5 275 187.5 C 274.601563 187.5 274.21875 187.65625 273.9375 187.9375 C 273.65625 188.21875 273.5 188.601563 273.5 189 C 273.5 189.398438 273.65625 189.78125 273.9375 190.0625 C 274.21875 190.34375 274.601563 190.5 275 190.5 C 275.398438 190.5 275.78125 190.34375 276.0625 190.0625 C 276.34375 189.78125 276.5 189.398438 276.5 189 Z M 276.5 189 "/>
<path style=" stroke:none;fill-rule:evenodd;fill:rgb(99.998474%,0%,0%);fill-opacity:1;" d="M 259.5 128 C 259.5 127.601563 259.34375 127.21875 259.0625 126.9375 C 258.78125 126.65625 258.398438 126.5 258 126.5 C 257.601563 126.5 257.21875 126.65625 256.9375 126.9375 C 256.65625 127.21875 256.5 127.601563 256.5 128 C 256.5 128.398438 256.65625 128.78125 256.9375 129.0625 C 257.21875 129.34375 257.601563 129.5 258 129.5 C 258.398438 129.5 258.78125 129.34375 259.0625 129.0625 C 259.34375 128.78125 259.5 128.398438 259.5 128 Z M 259.5 128 "/>
<path style=" stroke:none;fill-rule:evenodd;fill:rgb(99.998474%,0%,0%);fill-opacity:1;" d="M 92.5 85 C 92.5 84.601563 92.34375 84.21875 92.0625 83.9375 C 91.78125 83.65625 91.398438 83.5 91 83.5 C 90.601563 83.5 90.21875 83.65625 89.9375 83.9375 C 89.65625 84.21875 89.5 84.601563 89.5 85 C 89.5 85.398438 89.65625 85.78125 89.9375 86.0625 C 90.21875 86.34375 90.601563 86.5 91 86.5 C 91.398438 86.5 91.78125 86.34375 92.0625 86.0625 C 92.34375 85.78125 92.5 85.398438 92.5 85 Z M 92.5 85 "/>
<path style=" stroke:none;fill-rule:evenodd;fill:rgb(99.998474%,0%,0%);fill-opacity:1;" d="M 164.5 81 C 164.5 80.601563 164.34375 80.21875 164.0625 79.9375 C 163.78125 79.65625 163.398438 79.5 163 79.5 C 162.601563 79.5 162.21875 79.65625 161.9375 79.9375 C 161.65625 80.21875 161.5 80.601563 161.5 81 C 161.5 81.398438 161.65625 81.78125 161.9375 82.0625 C 162.21875 82.34375 162.601563 82.5 163 82.5 C 163.398438 82.5 163.78125 82.34375 164.0625 82.0625 C 164.34375 81.78125 164.5 81.398438 164.5 81 Z M 164.5 81 "/>
<path style=" stroke:none;fill-rule:evenodd;fill:rgb(99.998474%,0%,0%);fill-opacity:1;" d="M 301.5 71 C 301.5 70.601563 301.34375 70.21875 301.0625 69.9375 C 300.78125 69.65625 300.398438 69.5 300 69.5 C 299.601563 69.5 299.21875 69.65625 298.9375 69.9375 C 298.65625 70.21875 298.5 70.601563 298.5 71 C 298.5 71.398438 298.65625 71.78125 298.9375 72.0625 C 299.21875 72.34375 299.601563 72.5 300 72.5 C 300.398438 72.5 300.78125 72.34375 301.0625 72.0625 C 301.34375 71.78125 301.5 71.398438 301.5 71 Z M 301.5 71 "/>
<path style=" stroke:none;fill-rule:evenodd;fill:rgb(99.998474%,0%,0%);fill-opacity:1;" d="M 176.5 21 C 176.5 20.601563 176.34375 20.21875 176.0625 19.9375 C 175.78125 19.65625 175.398438 19.5 175 19.5 C 174.601563 19.5 174.21875 19.65625 173.9375 19.9375 C 173.65625 20.21875 173.5 20.601563 173.5 21 C 173.5 21.398438 173.65625 21.78125 173.9375 22.0625 C 174.21875 22.34375 174.601563 22.5 175 22.5 C 175.398438 22.5 175.78125 22.34375 176.0625 22.0625 C 176.34375 21.78125 176.5 21.398438 176.5 21 Z M 176.5 21 "/>
<path style=" stroke:none;fill-rule:evenodd;fill:rgb(99.998474%,0%,0%);fill-opacity:1;" d="M 316.5 13 C 316.5 12.601563 316.34375 12.21875 316.0625 11.9375 C 315.78125 11.65625 315.398438 11.5 315 11.5 C 314.601563 11.5 314.21875 11.65625 313.9375 11.9375 C 313.65625 12.21875 313.5 12.601563 313.5 13 C 313.5 13.398438 313.65625 13.78125 313.9375 14.0625 C 314.21875 14.34375 314.601563 14.5 315 14.5 C 315.398438 14.5 315.78125 14.34375 316.0625 14.0625 C 316.34375 13.78125 316.5 13.398438 316.5 13 Z M 316.5 13 "/>
</g>
</svg>
