<?xml version="1.0" encoding="UTF-8"?>
<svg xmlns="http://www.w3.org/2000/svg" xmlns:xlink="http://www.w3.org/1999/xlink" width="349pt" height="348pt" viewBox="0 0 349 348" version="1.1">
<g id="surface2246">
<path style="fill-rule:nonzero;fill:rgb(84.999084%,84.999084%,84.999084%);fill-opacity:0.6;stroke-width:1;stroke-linecap:square;stroke-linejoin:miter;stroke:rgb(50%,50%,50%);stroke-opacity:1;stroke-miterlimit:3.25;" d="M 104.484375 295.445313 L 104.773438 294.746094 L 89.6875 288.910156 Z M 104.484375 295.445313 " transform="matrix(1,0,0,1,-74,-13)"/>
<path style="fill-rule:nonzero;fill:rgb(84.999084%,84.999084%,84.999084%);fill-opacity:0.6;stroke-width:1;stroke-linecap:square;stroke-linejoin:miter;stroke:rgb(50%,50%,50%);stroke-opacity:1;stroke-miterlimit:3.25;" d="M 104.773438 294.746094 L 104.484375 295.445313 L 172.058594 345.015625 Z M 104.773438 294.746094 " transform="matrix(1,0,0,1,-74,-13)"/>
<path style="fill-rule:nonzero;fill:rgb(84.999084%,84.999084%,84.999084%);fill-opacity:0.6;stroke-width:1;stroke-linecap:square;stroke-linejoin:miter;stroke:rgb(50%,50%,50%);stroke-opacity:1;stroke-miterlimit:3.25;" d="M 104.484375 295.445313 L 89.6875 288.910156 L 87.65625 291.410156 Z M 104.484375 295.445313 " transform="matrix(1,0,0,1,-74,-13)"/>
<path style="fill-rule:nonzero;fill:rgb(84.999084%,84.999084%,84.999084%);fill-opacity:0.6;stroke-width:1;stroke-linecap:square;stroke-linejoin:miter;stroke:rgb(50%,50%,50%);stroke-opacity:1;stroke-miterlimit:3.25;" d="M 89.6875 288.910156 L 104.773438 294.746094 L 104.609375 287.46875 Z M 89.6875 288.910156 " transform="matrix(1,0,0,1,-74,-13)"/>
<path style="fill-rule:nonzero;fill:rgb(84.999084%,84.999084%,84.999084%);fill-opacity:0.6;stroke-width:1;stroke-linecap:square;stroke-linejoin:miter;stroke:rgb(50%,50%,50%);stroke-opacity:1;stroke-miterlimit:3.25;" d="M 169.636719 138.023438 L 89.6875 288.910156 L 104.609375 287.46875 Z M 169.636719 138.023438 " transform="matrix(1,0,0,1,-74,-13)"/>
<path style="fill-rule:nonzero;fill:rgb(84.999084%,84.999084%,84.999084%);fill-opacity:0.6;stroke-width:1;stroke-linecap:square;stroke-linejoin:miter;stroke:rgb(50%,50%,50%);stroke-opacity:1;stroke-miterlimit:3.25;" d="M 87.65625 291.410156 L 89.6875 288.910156 L 169.636719 138.023438 Z M 87.65625 291.410156 " transform="matrix(1,0,0,1,-74,-13)"/>
<path style="fill-rule:nonzero;fill:rgb(84.999084%,84.999084%,84.999084%);fill-opacity:0.6;stroke-width:1;stroke-linecap:square;stroke-linejoin:miter;stroke:rgb(50%,50%,50%);stroke-opacity:1;stroke-miterlimit:3.25;" d="M 104.773438 294.746094 L 105.628906 289.574219 L 104.609375 287.46875 Z M 104.773438 294.746094 " transform="matrix(1,0,0,1,-74,-13)"/>
<path style="fill-rule:nonzero;fill:rgb(84.999084%,84.999084%,84.999084%);fill-opacity:0.6;stroke-width:1;stroke-linecap:square;stroke-linejoin:miter;stroke:rgb(50%,50%,50%);stroke-opacity:1;stroke-miterlimit:3.25;" d="M 104.484375 295.445313 L 87.65625 291.410156 L 172.058594 345.015625 Z M 104.484375 295.445313 " transform="matrix(1,0,0,1,-74,-13)"/>
<path style="fill-rule:nonzero;fill:rgb(84.999084%,84.999084%,84.999084%);fill-opacity:0.6;stroke-width:1;stroke-linecap:square;stroke-linejoin:miter;stroke:rgb(50%,50%,50%);stroke-opacity:1;stroke-miterlimit:3.25;" d="M 172.058594 345.015625 L 234.601563 316.960938 L 105.628906 289.574219 Z M 172.058594 345.015625 " transform="matrix(1,0,0,1,-74,-13)"/>
<path style="fill-rule:nonzero;fill:rgb(84.999084%,84.999084%,84.999084%);fill-opacity:0.6;stroke-width:1;stroke-linecap:square;stroke-linejoin:miter;stroke:rgb(50%,50%,50%);stroke-opacity:1;stroke-miterlimit:3.25;" d="M 234.601563 316.960938 L 172.058594 345.015625 L 340.066406 359.351563 Z M 234.601563 316.960938 " transform="matrix(1,0,0,1,-74,-13)"/>
<path style="fill-rule:nonzero;fill:rgb(84.999084%,84.999084%,84.999084%);fill-opacity:0.6;stroke-width:1;stroke-linecap:square;stroke-linejoin:miter;stroke:rgb(50%,50%,50%);stroke-opacity:1;stroke-miterlimit:3.25;" d="M 234.601563 316.960938 L 253.046875 264.648438 L 105.628906 289.574219 Z M 234.601563 316.960938 " transform="matrix(1,0,0,1,-74,-13)"/>
<path style="fill-rule:nonzero;fill:rgb(84.999084%,84.999084%,84.999084%);fill-opacity:0.6;stroke-width:1;stroke-linecap:square;stroke-linejoin:miter;stroke:rgb(50%,50%,50%);stroke-opacity:1;stroke-miterlimit:3.25;" d="M 253.046875 264.648438 L 234.601563 316.960938 L 255.058594 269.273438 Z M 253.046875 264.648438 " transform="matrix(1,0,0,1,-74,-13)"/>
<path style="fill-rule:nonzero;fill:rgb(84.999084%,84.999084%,84.999084%);fill-opacity:0.6;stroke-width:1;stroke-linecap:square;stroke-linejoin:miter;stroke:rgb(50%,50%,50%);stroke-opacity:1;stroke-miterlimit:3.25;" d="M 253.046875 264.648438 L 334.910156 251.832031 L 297.890625 171.21875 Z M 253.046875 264.648438 " transform="matrix(1,0,0,1,-74,-13)"/>
<path style="fill-rule:nonzero;fill:rgb(84.999084%,84.999084%,84.999084%);fill-opacity:0.6;stroke-width:1;stroke-linecap:square;stroke-linejoin:miter;stroke:rgb(50%,50%,50%);stroke-opacity:1;stroke-miterlimit:3.25;" d="M 105.628906 289.574219 L 253.046875 264.648438 L 104.609375 287.46875 Z M 105.628906 289.574219 " transform="matrix(1,0,0,1,-74,-13)"/>
<path style="fill-rule:nonzero;fill:rgb(84.999084%,84.999084%,84.999084%);fill-opacity:0.6;stroke-width:1;stroke-linecap:square;stroke-linejoin:miter;stroke:rgb(50%,50%,50%);stroke-opacity:1;stroke-miterlimit:3.25;" d="M 334.910156 251.832031 L 253.046875 264.648438 L 255.058594 269.273438 Z M 334.910156 251.832031 " transform="matrix(1,0,0,1,-74,-13)"/>
<path style="fill-rule:nonzero;fill:rgb(84.999084%,84.999084%,84.999084%);fill-opacity:0.6;stroke-width:1;stroke-linecap:square;stroke-linejoin:miter;stroke:rgb(50%,50%,50%);stroke-opacity:1;stroke-miterlimit:3.25;" d="M 172.058594 345.015625 L 105.628906 289.574219 L 104.773438 294.746094 Z M 172.058594 345.015625 " transform="matrix(1,0,0,1,-74,-13)"/>
<path style="fill-rule:nonzero;fill:rgb(84.999084%,84.999084%,84.999084%);fill-opacity:0.6;stroke-width:1;stroke-linecap:square;stroke-linejoin:miter;stroke:rgb(50%,50%,50%);stroke-opacity:1;stroke-miterlimit:3.25;" d="M 169.636719 138.023438 L 104.609375 287.46875 L 253.046875 264.648438 Z M 169.636719 138.023438 " transform="matrix(1,0,0,1,-74,-13)"/>
<path style="fill-rule:nonzero;fill:rgb(84.999084%,84.999084%,84.999084%);fill-opacity:0.6;stroke-width:1;stroke-linecap:square;stroke-linejoin:miter;stroke:rgb(50%,50%,50%);stroke-opacity:1;stroke-miterlimit:3.25;" d="M 169.636719 138.023438 L 234.527344 93.828125 L 249.253906 33.851563 Z M 169.636719 138.023438 " transform="matrix(1,0,0,1,-74,-13)"/>
<path style="fill-rule:nonzero;fill:rgb(84.999084%,84.999084%,84.999084%);fill-opacity:0.6;stroke-width:1;stroke-linecap:square;stroke-linejoin:miter;stroke:rgb(50%,50%,50%);stroke-opacity:1;stroke-miterlimit:3.25;" d="M 238.75 93.472656 L 234.527344 93.828125 L 297.890625 171.21875 Z M 238.75 93.472656 " transform="matrix(1,0,0,1,-74,-13)"/>
<path style="fill-rule:nonzero;fill:rgb(84.999084%,84.999084%,84.999084%);fill-opacity:0.6;stroke-width:1;stroke-linecap:square;stroke-linejoin:miter;stroke:rgb(50%,50%,50%);stroke-opacity:1;stroke-miterlimit:3.25;" d="M 237.273438 93.410156 L 238.75 93.472656 L 239.171875 92.035156 Z M 237.273438 93.410156 " transform="matrix(1,0,0,1,-74,-13)"/>
<path style="fill-rule:nonzero;fill:rgb(84.999084%,84.999084%,84.999084%);fill-opacity:0.6;stroke-width:1;stroke-linecap:square;stroke-linejoin:miter;stroke:rgb(50%,50%,50%);stroke-opacity:1;stroke-miterlimit:3.25;" d="M 238.75 93.472656 L 237.273438 93.410156 L 234.527344 93.828125 Z M 238.75 93.472656 " transform="matrix(1,0,0,1,-74,-13)"/>
<path style="fill-rule:nonzero;fill:rgb(84.999084%,84.999084%,84.999084%);fill-opacity:0.6;stroke-width:1;stroke-linecap:square;stroke-linejoin:miter;stroke:rgb(50%,50%,50%);stroke-opacity:1;stroke-miterlimit:3.25;" d="M 331.714844 140.558594 L 239.171875 92.035156 L 238.75 93.472656 Z M 331.714844 140.558594 " transform="matrix(1,0,0,1,-74,-13)"/>
<path style="fill-rule:nonzero;fill:rgb(84.999084%,84.999084%,84.999084%);fill-opacity:0.6;stroke-width:1;stroke-linecap:square;stroke-linejoin:miter;stroke:rgb(50%,50%,50%);stroke-opacity:1;stroke-miterlimit:3.25;" d="M 237.273438 93.410156 L 239.171875 92.035156 L 234.527344 93.828125 Z M 237.273438 93.410156 " transform="matrix(1,0,0,1,-74,-13)"/>
<path style="fill-rule:nonzero;fill:rgb(84.999084%,84.999084%,84.999084%);fill-opacity:0.6;stroke-width:1;stroke-linecap:square;stroke-linejoin:miter;stroke:rgb(50%,50%,50%);stroke-opacity:1;stroke-miterlimit:3.25;" d="M 234.527344 93.828125 L 169.636719 138.023438 L 297.890625 171.21875 Z M 234.527344 93.828125 " transform="matrix(1,0,0,1,-74,-13)"/>
<path style="fill-rule:nonzero;fill:rgb(84.999084%,84.999084%,84.999084%);fill-opacity:0.6;stroke-width:1;stroke-linecap:square;stroke-linejoin:miter;stroke:rgb(50%,50%,50%);stroke-opacity:1;stroke-miterlimit:3.25;" d="M 234.527344 93.828125 L 239.171875 92.035156 L 249.253906 33.851563 Z M 234.527344 93.828125 " transform="matrix(1,0,0,1,-74,-13)"/>
<path style="fill-rule:nonzero;fill:rgb(84.999084%,84.999084%,84.999084%);fill-opacity:0.6;stroke-width:1;stroke-linecap:square;stroke-linejoin:miter;stroke:rgb(50%,50%,50%);stroke-opacity:1;stroke-miterlimit:3.25;" d="M 297.890625 171.21875 L 298.605469 171.230469 L 298.921875 171.148438 Z M 297.890625 171.21875 " transform="matrix(1,0,0,1,-74,-13)"/>
<path style="fill-rule:nonzero;fill:rgb(84.999084%,84.999084%,84.999084%);fill-opacity:0.6;stroke-width:1;stroke-linecap:square;stroke-linejoin:miter;stroke:rgb(50%,50%,50%);stroke-opacity:1;stroke-miterlimit:3.25;" d="M 334.910156 251.832031 L 298.605469 171.230469 L 297.890625 171.21875 Z M 334.910156 251.832031 " transform="matrix(1,0,0,1,-74,-13)"/>
<path style="fill-rule:nonzero;fill:rgb(84.999084%,84.999084%,84.999084%);fill-opacity:0.6;stroke-width:1;stroke-linecap:square;stroke-linejoin:miter;stroke:rgb(50%,50%,50%);stroke-opacity:1;stroke-miterlimit:3.25;" d="M 345.945313 204.121094 L 298.921875 171.148438 L 298.605469 171.230469 Z M 345.945313 204.121094 " transform="matrix(1,0,0,1,-74,-13)"/>
<path style="fill-rule:nonzero;fill:rgb(84.999084%,84.999084%,84.999084%);fill-opacity:0.6;stroke-width:1;stroke-linecap:square;stroke-linejoin:miter;stroke:rgb(50%,50%,50%);stroke-opacity:1;stroke-miterlimit:3.25;" d="M 297.890625 171.21875 L 298.921875 171.148438 L 304.066406 168.304688 Z M 297.890625 171.21875 " transform="matrix(1,0,0,1,-74,-13)"/>
<path style="fill-rule:nonzero;fill:rgb(84.999084%,84.999084%,84.999084%);fill-opacity:0.6;stroke-width:1;stroke-linecap:square;stroke-linejoin:miter;stroke:rgb(50%,50%,50%);stroke-opacity:1;stroke-miterlimit:3.25;" d="M 250.328125 30.816406 L 249.253906 33.851563 L 373.535156 83.503906 Z M 250.328125 30.816406 " transform="matrix(1,0,0,1,-74,-13)"/>
<path style="fill-rule:nonzero;fill:rgb(84.999084%,84.999084%,84.999084%);fill-opacity:0.6;stroke-width:1;stroke-linecap:square;stroke-linejoin:miter;stroke:rgb(50%,50%,50%);stroke-opacity:1;stroke-miterlimit:3.25;" d="M 373.535156 83.503906 L 249.253906 33.851563 L 239.171875 92.035156 Z M 373.535156 83.503906 " transform="matrix(1,0,0,1,-74,-13)"/>
<path style="fill-rule:nonzero;fill:rgb(84.999084%,84.999084%,84.999084%);fill-opacity:0.6;stroke-width:1;stroke-linecap:square;stroke-linejoin:miter;stroke:rgb(50%,50%,50%);stroke-opacity:1;stroke-miterlimit:3.25;" d="M 238.75 93.472656 L 304.066406 168.304688 L 331.714844 140.558594 Z M 238.75 93.472656 " transform="matrix(1,0,0,1,-74,-13)"/>
<path style="fill-rule:nonzero;fill:rgb(84.999084%,84.999084%,84.999084%);fill-opacity:0.6;stroke-width:1;stroke-linecap:square;stroke-linejoin:miter;stroke:rgb(50%,50%,50%);stroke-opacity:1;stroke-miterlimit:3.25;" d="M 249.253906 33.851563 L 250.328125 30.816406 L 169.636719 138.023438 Z M 249.253906 33.851563 " transform="matrix(1,0,0,1,-74,-13)"/>
<path style="fill-rule:nonzero;fill:rgb(84.999084%,84.999084%,84.999084%);fill-opacity:0.6;stroke-width:1;stroke-linecap:square;stroke-linejoin:miter;stroke:rgb(50%,50%,50%);stroke-opacity:1;stroke-miterlimit:3.25;" d="M 304.066406 168.304688 L 298.921875 171.148438 L 345.945313 204.121094 Z M 304.066406 168.304688 " transform="matrix(1,0,0,1,-74,-13)"/>
<path style="fill-rule:nonzero;fill:rgb(84.999084%,84.999084%,84.999084%);fill-opacity:0.6;stroke-width:1;stroke-linecap:square;stroke-linejoin:miter;stroke:rgb(50%,50%,50%);stroke-opacity:1;stroke-miterlimit:3.25;" d="M 304.066406 168.304688 L 238.75 93.472656 L 297.890625 171.21875 Z M 304.066406 168.304688 " transform="matrix(1,0,0,1,-74,-13)"/>
<path style="fill-rule:nonzero;fill:rgb(84.999084%,84.999084%,84.999084%);fill-opacity:0.6;stroke-width:1;stroke-linecap:square;stroke-linejoin:miter;stroke:rgb(50%,50%,50%);stroke-opacity:1;stroke-miterlimit:3.25;" d="M 169.636719 138.023438 L 253.046875 264.648438 L 297.890625 171.21875 Z M 169.636719 138.023438 " transform="matrix(1,0,0,1,-74,-13)"/>
<path style="fill-rule:nonzero;fill:rgb(84.999084%,84.999084%,84.999084%);fill-opacity:0.6;stroke-width:1;stroke-linecap:square;stroke-linejoin:miter;stroke:rgb(50%,50%,50%);stroke-opacity:1;stroke-miterlimit:3.25;" d="M 255.058594 269.273438 L 234.601563 316.960938 L 337.191406 303.957031 Z M 255.058594 269.273438 " transform="matrix(1,0,0,1,-74,-13)"/>
<path style="fill-rule:nonzero;fill:rgb(84.999084%,84.999084%,84.999084%);fill-opacity:0.6;stroke-width:1;stroke-linecap:square;stroke-linejoin:miter;stroke:rgb(50%,50%,50%);stroke-opacity:1;stroke-miterlimit:3.25;" d="M 337.191406 303.957031 L 337.613281 304.222656 L 337.574219 302.511719 Z M 337.191406 303.957031 " transform="matrix(1,0,0,1,-74,-13)"/>
<path style="fill-rule:nonzero;fill:rgb(84.999084%,84.999084%,84.999084%);fill-opacity:0.6;stroke-width:1;stroke-linecap:square;stroke-linejoin:miter;stroke:rgb(50%,50%,50%);stroke-opacity:1;stroke-miterlimit:3.25;" d="M 337.613281 304.222656 L 337.191406 303.957031 L 338.015625 354.574219 Z M 337.613281 304.222656 " transform="matrix(1,0,0,1,-74,-13)"/>
<path style="fill-rule:nonzero;fill:rgb(84.999084%,84.999084%,84.999084%);fill-opacity:0.6;stroke-width:1;stroke-linecap:square;stroke-linejoin:miter;stroke:rgb(50%,50%,50%);stroke-opacity:1;stroke-miterlimit:3.25;" d="M 335.527344 252.578125 L 337.28125 302.195313 L 337.574219 302.511719 Z M 335.527344 252.578125 " transform="matrix(1,0,0,1,-74,-13)"/>
<path style="fill-rule:nonzero;fill:rgb(84.999084%,84.999084%,84.999084%);fill-opacity:0.6;stroke-width:1;stroke-linecap:square;stroke-linejoin:miter;stroke:rgb(50%,50%,50%);stroke-opacity:1;stroke-miterlimit:3.25;" d="M 337.28125 302.195313 L 334.910156 251.832031 L 255.058594 269.273438 Z M 337.28125 302.195313 " transform="matrix(1,0,0,1,-74,-13)"/>
<path style="fill-rule:nonzero;fill:rgb(84.999084%,84.999084%,84.999084%);fill-opacity:0.6;stroke-width:1;stroke-linecap:square;stroke-linejoin:miter;stroke:rgb(50%,50%,50%);stroke-opacity:1;stroke-miterlimit:3.25;" d="M 337.574219 302.511719 L 337.28125 302.195313 L 337.191406 303.957031 Z M 337.574219 302.511719 " transform="matrix(1,0,0,1,-74,-13)"/>
<path style="fill-rule:nonzero;fill:rgb(84.999084%,84.999084%,84.999084%);fill-opacity:0.6;stroke-width:1;stroke-linecap:square;stroke-linejoin:miter;stroke:rgb(50%,50%,50%);stroke-opacity:1;stroke-miterlimit:3.25;" d="M 402.175781 211.050781 L 335.527344 252.578125 L 337.574219 302.511719 Z M 402.175781 211.050781 " transform="matrix(1,0,0,1,-74,-13)"/>
<path style="fill-rule:nonzero;fill:rgb(84.999084%,84.999084%,84.999084%);fill-opacity:0.6;stroke-width:1;stroke-linecap:square;stroke-linejoin:miter;stroke:rgb(50%,50%,50%);stroke-opacity:1;stroke-miterlimit:3.25;" d="M 337.574219 302.511719 L 337.613281 304.222656 L 402.175781 211.050781 Z M 337.574219 302.511719 " transform="matrix(1,0,0,1,-74,-13)"/>
<path style="fill-rule:nonzero;fill:rgb(84.999084%,84.999084%,84.999084%);fill-opacity:0.6;stroke-width:1;stroke-linecap:square;stroke-linejoin:miter;stroke:rgb(50%,50%,50%);stroke-opacity:1;stroke-miterlimit:3.25;" d="M 337.28125 302.195313 L 255.058594 269.273438 L 337.191406 303.957031 Z M 337.28125 302.195313 " transform="matrix(1,0,0,1,-74,-13)"/>
<path style="fill-rule:nonzero;fill:rgb(84.999084%,84.999084%,84.999084%);fill-opacity:0.6;stroke-width:1;stroke-linecap:square;stroke-linejoin:miter;stroke:rgb(50%,50%,50%);stroke-opacity:1;stroke-miterlimit:3.25;" d="M 340.066406 359.351563 L 340.070313 359.117188 L 338.015625 354.574219 Z M 340.066406 359.351563 " transform="matrix(1,0,0,1,-74,-13)"/>
<path style="fill-rule:nonzero;fill:rgb(84.999084%,84.999084%,84.999084%);fill-opacity:0.6;stroke-width:1;stroke-linecap:square;stroke-linejoin:miter;stroke:rgb(50%,50%,50%);stroke-opacity:1;stroke-miterlimit:3.25;" d="M 340.070313 359.117188 L 340.066406 359.351563 L 341.386719 359.066406 Z M 340.070313 359.117188 " transform="matrix(1,0,0,1,-74,-13)"/>
<path style="fill-rule:nonzero;fill:rgb(84.999084%,84.999084%,84.999084%);fill-opacity:0.6;stroke-width:1;stroke-linecap:square;stroke-linejoin:miter;stroke:rgb(50%,50%,50%);stroke-opacity:1;stroke-miterlimit:3.25;" d="M 338.015625 354.574219 L 340.058594 358.734375 L 341.386719 359.066406 Z M 338.015625 354.574219 " transform="matrix(1,0,0,1,-74,-13)"/>
<path style="fill-rule:nonzero;fill:rgb(84.999084%,84.999084%,84.999084%);fill-opacity:0.6;stroke-width:1;stroke-linecap:square;stroke-linejoin:miter;stroke:rgb(50%,50%,50%);stroke-opacity:1;stroke-miterlimit:3.25;" d="M 340.058594 358.734375 L 338.015625 354.574219 L 340.070313 359.117188 Z M 340.058594 358.734375 " transform="matrix(1,0,0,1,-74,-13)"/>
<path style="fill-rule:nonzero;fill:rgb(84.999084%,84.999084%,84.999084%);fill-opacity:0.6;stroke-width:1;stroke-linecap:square;stroke-linejoin:miter;stroke:rgb(50%,50%,50%);stroke-opacity:1;stroke-miterlimit:3.25;" d="M 341.386719 359.066406 L 340.058594 358.734375 L 340.070313 359.117188 Z M 341.386719 359.066406 " transform="matrix(1,0,0,1,-74,-13)"/>
<path style="fill-rule:nonzero;fill:rgb(84.999084%,84.999084%,84.999084%);fill-opacity:0.6;stroke-width:1;stroke-linecap:square;stroke-linejoin:miter;stroke:rgb(50%,50%,50%);stroke-opacity:1;stroke-miterlimit:3.25;" d="M 338.015625 354.574219 L 341.386719 359.066406 L 337.613281 304.222656 Z M 338.015625 354.574219 " transform="matrix(1,0,0,1,-74,-13)"/>
<path style="fill-rule:nonzero;fill:rgb(84.999084%,84.999084%,84.999084%);fill-opacity:0.6;stroke-width:1;stroke-linecap:square;stroke-linejoin:miter;stroke:rgb(50%,50%,50%);stroke-opacity:1;stroke-miterlimit:3.25;" d="M 340.066406 359.351563 L 338.015625 354.574219 L 234.601563 316.960938 Z M 340.066406 359.351563 " transform="matrix(1,0,0,1,-74,-13)"/>
<path style="fill-rule:nonzero;fill:rgb(84.999084%,84.999084%,84.999084%);fill-opacity:0.6;stroke-width:1;stroke-linecap:square;stroke-linejoin:miter;stroke:rgb(50%,50%,50%);stroke-opacity:1;stroke-miterlimit:3.25;" d="M 334.910156 251.832031 L 337.28125 302.195313 L 335.527344 252.578125 Z M 334.910156 251.832031 " transform="matrix(1,0,0,1,-74,-13)"/>
<path style="fill-rule:nonzero;fill:rgb(84.999084%,84.999084%,84.999084%);fill-opacity:0.6;stroke-width:1;stroke-linecap:square;stroke-linejoin:miter;stroke:rgb(50%,50%,50%);stroke-opacity:1;stroke-miterlimit:3.25;" d="M 341.386719 359.066406 L 402.175781 211.050781 L 337.613281 304.222656 Z M 341.386719 359.066406 " transform="matrix(1,0,0,1,-74,-13)"/>
<path style="fill-rule:nonzero;fill:rgb(84.999084%,84.999084%,84.999084%);fill-opacity:0.6;stroke-width:1;stroke-linecap:square;stroke-linejoin:miter;stroke:rgb(50%,50%,50%);stroke-opacity:1;stroke-miterlimit:3.25;" d="M 345.945313 204.121094 L 352.871094 208.574219 L 351.496094 204.699219 Z M 345.945313 204.121094 " transform="matrix(1,0,0,1,-74,-13)"/>
<path style="fill-rule:nonzero;fill:rgb(84.999084%,84.999084%,84.999084%);fill-opacity:0.6;stroke-width:1;stroke-linecap:square;stroke-linejoin:miter;stroke:rgb(50%,50%,50%);stroke-opacity:1;stroke-miterlimit:3.25;" d="M 352.871094 208.574219 L 345.945313 204.121094 L 334.910156 251.832031 Z M 352.871094 208.574219 " transform="matrix(1,0,0,1,-74,-13)"/>
<path style="fill-rule:nonzero;fill:rgb(84.999084%,84.999084%,84.999084%);fill-opacity:0.6;stroke-width:1;stroke-linecap:square;stroke-linejoin:miter;stroke:rgb(50%,50%,50%);stroke-opacity:1;stroke-miterlimit:3.25;" d="M 304.066406 168.304688 L 350.160156 201.667969 L 331.714844 140.558594 Z M 304.066406 168.304688 " transform="matrix(1,0,0,1,-74,-13)"/>
<path style="fill-rule:nonzero;fill:rgb(84.999084%,84.999084%,84.999084%);fill-opacity:0.6;stroke-width:1;stroke-linecap:square;stroke-linejoin:miter;stroke:rgb(50%,50%,50%);stroke-opacity:1;stroke-miterlimit:3.25;" d="M 304.066406 168.304688 L 345.945313 204.121094 L 350.160156 201.667969 Z M 304.066406 168.304688 " transform="matrix(1,0,0,1,-74,-13)"/>
<path style="fill-rule:nonzero;fill:rgb(84.999084%,84.999084%,84.999084%);fill-opacity:0.6;stroke-width:1;stroke-linecap:square;stroke-linejoin:miter;stroke:rgb(50%,50%,50%);stroke-opacity:1;stroke-miterlimit:3.25;" d="M 350.160156 201.667969 L 345.945313 204.121094 L 351.496094 204.699219 Z M 350.160156 201.667969 " transform="matrix(1,0,0,1,-74,-13)"/>
<path style="fill-rule:nonzero;fill:rgb(84.999084%,84.999084%,84.999084%);fill-opacity:0.6;stroke-width:1;stroke-linecap:square;stroke-linejoin:miter;stroke:rgb(50%,50%,50%);stroke-opacity:1;stroke-miterlimit:3.25;" d="M 401.285156 208.515625 L 331.714844 140.558594 L 350.160156 201.667969 Z M 401.285156 208.515625 " transform="matrix(1,0,0,1,-74,-13)"/>
<path style="fill-rule:nonzero;fill:rgb(84.999084%,84.999084%,84.999084%);fill-opacity:0.6;stroke-width:1;stroke-linecap:square;stroke-linejoin:miter;stroke:rgb(50%,50%,50%);stroke-opacity:1;stroke-miterlimit:3.25;" d="M 350.160156 201.667969 L 351.496094 204.699219 L 401.285156 208.515625 Z M 350.160156 201.667969 " transform="matrix(1,0,0,1,-74,-13)"/>
<path style="fill-rule:nonzero;fill:rgb(84.999084%,84.999084%,84.999084%);fill-opacity:0.6;stroke-width:1;stroke-linecap:square;stroke-linejoin:miter;stroke:rgb(50%,50%,50%);stroke-opacity:1;stroke-miterlimit:3.25;" d="M 345.945313 204.121094 L 298.605469 171.230469 L 334.910156 251.832031 Z M 345.945313 204.121094 " transform="matrix(1,0,0,1,-74,-13)"/>
<path style="fill-rule:nonzero;fill:rgb(84.999084%,84.999084%,84.999084%);fill-opacity:0.6;stroke-width:1;stroke-linecap:square;stroke-linejoin:miter;stroke:rgb(50%,50%,50%);stroke-opacity:1;stroke-miterlimit:3.25;" d="M 352.871094 208.574219 L 402.175781 211.050781 L 401.285156 208.515625 Z M 352.871094 208.574219 " transform="matrix(1,0,0,1,-74,-13)"/>
<path style="fill-rule:nonzero;fill:rgb(84.999084%,84.999084%,84.999084%);fill-opacity:0.6;stroke-width:1;stroke-linecap:square;stroke-linejoin:miter;stroke:rgb(50%,50%,50%);stroke-opacity:1;stroke-miterlimit:3.25;" d="M 352.871094 208.574219 L 334.910156 251.832031 L 335.527344 252.578125 Z M 352.871094 208.574219 " transform="matrix(1,0,0,1,-74,-13)"/>
<path style="fill-rule:nonzero;fill:rgb(84.999084%,84.999084%,84.999084%);fill-opacity:0.6;stroke-width:1;stroke-linecap:square;stroke-linejoin:miter;stroke:rgb(50%,50%,50%);stroke-opacity:1;stroke-miterlimit:3.25;" d="M 401.285156 208.515625 L 402.175781 211.050781 L 420.8125 89.765625 Z M 401.285156 208.515625 " transform="matrix(1,0,0,1,-74,-13)"/>
<path style="fill-rule:nonzero;fill:rgb(84.999084%,84.999084%,84.999084%);fill-opacity:0.6;stroke-width:1;stroke-linecap:square;stroke-linejoin:miter;stroke:rgb(50%,50%,50%);stroke-opacity:1;stroke-miterlimit:3.25;" d="M 419.601563 89.4375 L 331.714844 140.558594 L 401.285156 208.515625 Z M 419.601563 89.4375 " transform="matrix(1,0,0,1,-74,-13)"/>
<path style="fill-rule:nonzero;fill:rgb(84.999084%,84.999084%,84.999084%);fill-opacity:0.6;stroke-width:1;stroke-linecap:square;stroke-linejoin:miter;stroke:rgb(50%,50%,50%);stroke-opacity:1;stroke-miterlimit:3.25;" d="M 419.601563 89.4375 L 373.535156 83.503906 L 331.714844 140.558594 Z M 419.601563 89.4375 " transform="matrix(1,0,0,1,-74,-13)"/>
<path style="fill-rule:nonzero;fill:rgb(84.999084%,84.999084%,84.999084%);fill-opacity:0.6;stroke-width:1;stroke-linecap:square;stroke-linejoin:miter;stroke:rgb(50%,50%,50%);stroke-opacity:1;stroke-miterlimit:3.25;" d="M 419.601563 89.4375 L 401.285156 208.515625 L 420.8125 89.765625 Z M 419.601563 89.4375 " transform="matrix(1,0,0,1,-74,-13)"/>
<path style="fill-rule:nonzero;fill:rgb(84.999084%,84.999084%,84.999084%);fill-opacity:0.6;stroke-width:1;stroke-linecap:square;stroke-linejoin:miter;stroke:rgb(50%,50%,50%);stroke-opacity:1;stroke-miterlimit:3.25;" d="M 419.601563 89.4375 L 420.8125 89.765625 L 250.328125 30.816406 Z M 419.601563 89.4375 " transform="matrix(1,0,0,1,-74,-13)"/>
<path style="fill-rule:nonzero;fill:rgb(84.999084%,84.999084%,84.999084%);fill-opacity:0.6;stroke-width:1;stroke-linecap:square;stroke-linejoin:miter;stroke:rgb(50%,50%,50%);stroke-opacity:1;stroke-miterlimit:3.25;" d="M 373.535156 83.503906 L 419.601563 89.4375 L 250.328125 30.816406 Z M 373.535156 83.503906 " transform="matrix(1,0,0,1,-74,-13)"/>
<path style="fill-rule:nonzero;fill:rgb(84.999084%,84.999084%,84.999084%);fill-opacity:0.6;stroke-width:1;stroke-linecap:square;stroke-linejoin:miter;stroke:rgb(50%,50%,50%);stroke-opacity:1;stroke-miterlimit:3.25;" d="M 401.285156 208.515625 L 351.496094 204.699219 L 352.871094 208.574219 Z M 401.285156 208.515625 " transform="matrix(1,0,0,1,-74,-13)"/>
<path style="fill-rule:nonzero;fill:rgb(84.999084%,84.999084%,84.999084%);fill-opacity:0.6;stroke-width:1;stroke-linecap:square;stroke-linejoin:miter;stroke:rgb(50%,50%,50%);stroke-opacity:1;stroke-miterlimit:3.25;" d="M 335.527344 252.578125 L 402.175781 211.050781 L 352.871094 208.574219 Z M 335.527344 252.578125 " transform="matrix(1,0,0,1,-74,-13)"/>
<path style="fill-rule:nonzero;fill:rgb(84.999084%,84.999084%,84.999084%);fill-opacity:0.6;stroke-width:1;stroke-linecap:square;stroke-linejoin:miter;stroke:rgb(50%,50%,50%);stroke-opacity:1;stroke-miterlimit:3.25;" d="M 331.714844 140.558594 L 373.535156 83.503906 L 239.171875 92.035156 Z M 331.714844 140.558594 " transform="matrix(1,0,0,1,-74,-13)"/>
<path style="fill-rule:nonzero;fill:rgb(84.999084%,84.999084%,84.999084%);fill-opacity:0.6;stroke-width:1;stroke-linecap:square;stroke-linejoin:miter;stroke:rgb(50%,50%,50%);stroke-opacity:1;stroke-miterlimit:3.25;" d="M 337.191406 303.957031 L 234.601563 316.960938 L 338.015625 354.574219 Z M 337.191406 303.957031 " transform="matrix(1,0,0,1,-74,-13)"/>
<path style=" stroke:none;fill-rule:evenodd;fill:rgb(99.998474%,0%,0%);fill-opacity:0.6;" d="M 267.789063 346 C 267.789063 345.523438 267.601563 345.070313 267.265625 344.734375 C 266.929688 344.398438 266.476563 344.210938 266 344.210938 C 265.523438 344.210938 265.070313 344.398438 264.734375 344.734375 C 264.398438 345.070313 264.210938 345.523438 264.210938 346 C 264.210938 346.476563 264.398438 346.929688 264.734375 347.265625 C 265.070313 347.601563 265.523438 347.789063 266 347.789063 C 266.476563 347.789063 266.929688 347.601563 267.265625 347.265625 C 267.601563 346.929688 267.789063 346.476563 267.789063 346 Z M 267.789063 346 "/>
<path style=" stroke:none;fill-rule:evenodd;fill:rgb(99.998474%,0%,0%);fill-opacity:0.6;" d="M 267.789063 346 C 267.789063 345.523438 267.601563 345.070313 267.265625 344.734375 C 266.929688 344.398438 266.476563 344.210938 266 344.210938 C 265.523438 344.210938 265.070313 344.398438 264.734375 344.734375 C 264.398438 345.070313 264.210938 345.523438 264.210938 346 C 264.210938 346.476563 264.398438 346.929688 264.734375 347.265625 C 265.070313 347.601563 265.523438 347.789063 266 347.789063 C 266.476563 347.789063 266.929688 347.601563 267.265625 347.265625 C 267.601563 346.929688 267.789063 346.476563 267.789063 346 Z M 267.789063 346 "/>
<path style=" stroke:none;fill-rule:evenodd;fill:rgb(99.998474%,0%,0%);fill-opacity:0.6;" d="M 268.789063 346 C 268.789063 345.523438 268.601563 345.070313 268.265625 344.734375 C 267.929688 344.398438 267.476563 344.210938 267 344.210938 C 266.523438 344.210938 266.070313 344.398438 265.734375 344.734375 C 265.398438 345.070313 265.210938 345.523438 265.210938 346 C 265.210938 346.476563 265.398438 346.929688 265.734375 347.265625 C 266.070313 347.601563 266.523438 347.789063 267 347.789063 C 267.476563 347.789063 267.929688 347.601563 268.265625 347.265625 C 268.601563 346.929688 268.789063 346.476563 268.789063 346 Z M 268.789063 346 "/>
<path style=" stroke:none;fill-rule:evenodd;fill:rgb(99.998474%,0%,0%);fill-opacity:0.6;" d="M 267.789063 346 C 267.789063 345.523438 267.601563 345.070313 267.265625 344.734375 C 266.929688 344.398438 266.476563 344.210938 266 344.210938 C 265.523438 344.210938 265.070313 344.398438 264.734375 344.734375 C 264.398438 345.070313 264.210938 345.523438 264.210938 346 C 264.210938 346.476563 264.398438 346.929688 264.734375 347.265625 C 265.070313 347.601563 265.523438 347.789063 266 347.789063 C 266.476563 347.789063 266.929688 347.601563 267.265625 347.265625 C 267.601563 346.929688 267.789063 346.476563 267.789063 346 Z M 267.789063 346 "/>
<path style=" stroke:none;fill-rule:evenodd;fill:rgb(99.998474%,0%,0%);fill-opacity:0.6;" d="M 265.789063 342 C 265.789063 341.523438 265.601563 341.070313 265.265625 340.734375 C 264.929688 340.398438 264.476563 340.210938 264 340.210938 C 263.523438 340.210938 263.070313 340.398438 262.734375 340.734375 C 262.398438 341.070313 262.210938 341.523438 262.210938 342 C 262.210938 342.476563 262.398438 342.929688 262.734375 343.265625 C 263.070313 343.601563 263.523438 343.789063 264 343.789063 C 264.476563 343.789063 264.929688 343.601563 265.265625 343.265625 C 265.601563 342.929688 265.789063 342.476563 265.789063 342 Z M 265.789063 342 "/>
<path style=" stroke:none;fill-rule:evenodd;fill:rgb(99.998474%,0%,0%);fill-opacity:0.6;" d="M 99.789063 332 C 99.789063 331.523438 99.601563 331.070313 99.265625 330.734375 C 98.929688 330.398438 98.476563 330.210938 98 330.210938 C 97.523438 330.210938 97.070313 330.398438 96.734375 330.734375 C 96.398438 331.070313 96.210938 331.523438 96.210938 332 C 96.210938 332.476563 96.398438 332.929688 96.734375 333.265625 C 97.070313 333.601563 97.523438 333.789063 98 333.789063 C 98.476563 333.789063 98.929688 333.601563 99.265625 333.265625 C 99.601563 332.929688 99.789063 332.476563 99.789063 332 Z M 99.789063 332 "/>
<path style=" stroke:none;fill-rule:evenodd;fill:rgb(99.998474%,0%,0%);fill-opacity:0.6;" d="M 162.789063 304 C 162.789063 303.523438 162.601563 303.070313 162.265625 302.734375 C 161.929688 302.398438 161.476563 302.210938 161 302.210938 C 160.523438 302.210938 160.070313 302.398438 159.734375 302.734375 C 159.398438 303.070313 159.210938 303.523438 159.210938 304 C 159.210938 304.476563 159.398438 304.929688 159.734375 305.265625 C 160.070313 305.601563 160.523438 305.789063 161 305.789063 C 161.476563 305.789063 161.929688 305.601563 162.265625 305.265625 C 162.601563 304.929688 162.789063 304.476563 162.789063 304 Z M 162.789063 304 "/>
<path style=" stroke:none;fill-rule:evenodd;fill:rgb(99.998474%,0%,0%);fill-opacity:0.6;" d="M 265.789063 291 C 265.789063 290.523438 265.601563 290.070313 265.265625 289.734375 C 264.929688 289.398438 264.476563 289.210938 264 289.210938 C 263.523438 289.210938 263.070313 289.398438 262.734375 289.734375 C 262.398438 290.070313 262.210938 290.523438 262.210938 291 C 262.210938 291.476563 262.398438 291.929688 262.734375 292.265625 C 263.070313 292.601563 263.523438 292.789063 264 292.789063 C 264.476563 292.789063 264.929688 292.601563 265.265625 292.265625 C 265.601563 291.929688 265.789063 291.476563 265.789063 291 Z M 265.789063 291 "/>
<path style=" stroke:none;fill-rule:evenodd;fill:rgb(99.998474%,0%,0%);fill-opacity:0.6;" d="M 264.789063 291 C 264.789063 290.523438 264.601563 290.070313 264.265625 289.734375 C 263.929688 289.398438 263.476563 289.210938 263 289.210938 C 262.523438 289.210938 262.070313 289.398438 261.734375 289.734375 C 261.398438 290.070313 261.210938 290.523438 261.210938 291 C 261.210938 291.476563 261.398438 291.929688 261.734375 292.265625 C 262.070313 292.601563 262.523438 292.789063 263 292.789063 C 263.476563 292.789063 263.929688 292.601563 264.265625 292.265625 C 264.601563 291.929688 264.789063 291.476563 264.789063 291 Z M 264.789063 291 "/>
<path style=" stroke:none;fill-rule:evenodd;fill:rgb(99.998474%,0%,0%);fill-opacity:0.6;" d="M 265.789063 290 C 265.789063 289.523438 265.601563 289.070313 265.265625 288.734375 C 264.929688 288.398438 264.476563 288.210938 264 288.210938 C 263.523438 288.210938 263.070313 288.398438 262.734375 288.734375 C 262.398438 289.070313 262.210938 289.523438 262.210938 290 C 262.210938 290.476563 262.398438 290.929688 262.734375 291.265625 C 263.070313 291.601563 263.523438 291.789063 264 291.789063 C 264.476563 291.789063 264.929688 291.601563 265.265625 291.265625 C 265.601563 290.929688 265.789063 290.476563 265.789063 290 Z M 265.789063 290 "/>
<path style=" stroke:none;fill-rule:evenodd;fill:rgb(99.998474%,0%,0%);fill-opacity:0.6;" d="M 264.789063 289 C 264.789063 288.523438 264.601563 288.070313 264.265625 287.734375 C 263.929688 287.398438 263.476563 287.210938 263 287.210938 C 262.523438 287.210938 262.070313 287.398438 261.734375 287.734375 C 261.398438 288.070313 261.210938 288.523438 261.210938 289 C 261.210938 289.476563 261.398438 289.929688 261.734375 290.265625 C 262.070313 290.601563 262.523438 290.789063 263 290.789063 C 263.476563 290.789063 263.929688 290.601563 264.265625 290.265625 C 264.601563 289.929688 264.789063 289.476563 264.789063 289 Z M 264.789063 289 "/>
<path style=" stroke:none;fill-rule:evenodd;fill:rgb(99.998474%,0%,0%);fill-opacity:0.6;" d="M 31.789063 282 C 31.789063 281.523438 31.601563 281.070313 31.265625 280.734375 C 30.929688 280.398438 30.476563 280.210938 30 280.210938 C 29.523438 280.210938 29.070313 280.398438 28.734375 280.734375 C 28.398438 281.070313 28.210938 281.523438 28.210938 282 C 28.210938 282.476563 28.398438 282.929688 28.734375 283.265625 C 29.070313 283.601563 29.523438 283.789063 30 283.789063 C 30.476563 283.789063 30.929688 283.601563 31.265625 283.265625 C 31.601563 282.929688 31.789063 282.476563 31.789063 282 Z M 31.789063 282 "/>
<path style=" stroke:none;fill-rule:evenodd;fill:rgb(99.998474%,0%,0%);fill-opacity:0.6;" d="M 32.789063 282 C 32.789063 281.523438 32.601563 281.070313 32.265625 280.734375 C 31.929688 280.398438 31.476563 280.210938 31 280.210938 C 30.523438 280.210938 30.070313 280.398438 29.734375 280.734375 C 29.398438 281.070313 29.210938 281.523438 29.210938 282 C 29.210938 282.476563 29.398438 282.929688 29.734375 283.265625 C 30.070313 283.601563 30.523438 283.789063 31 283.789063 C 31.476563 283.789063 31.929688 283.601563 32.265625 283.265625 C 32.601563 282.929688 32.789063 282.476563 32.789063 282 Z M 32.789063 282 "/>
<path style=" stroke:none;fill-rule:evenodd;fill:rgb(99.998474%,0%,0%);fill-opacity:0.6;" d="M 15.789063 278 C 15.789063 277.523438 15.601563 277.070313 15.265625 276.734375 C 14.929688 276.398438 14.476563 276.210938 14 276.210938 C 13.523438 276.210938 13.070313 276.398438 12.734375 276.734375 C 12.398438 277.070313 12.210938 277.523438 12.210938 278 C 12.210938 278.476563 12.398438 278.929688 12.734375 279.265625 C 13.070313 279.601563 13.523438 279.789063 14 279.789063 C 14.476563 279.789063 14.929688 279.601563 15.265625 279.265625 C 15.601563 278.929688 15.789063 278.476563 15.789063 278 Z M 15.789063 278 "/>
<path style=" stroke:none;fill-rule:evenodd;fill:rgb(99.998474%,0%,0%);fill-opacity:0.6;" d="M 33.789063 277 C 33.789063 276.523438 33.601563 276.070313 33.265625 275.734375 C 32.929688 275.398438 32.476563 275.210938 32 275.210938 C 31.523438 275.210938 31.070313 275.398438 30.734375 275.734375 C 30.398438 276.070313 30.210938 276.523438 30.210938 277 C 30.210938 277.476563 30.398438 277.929688 30.734375 278.265625 C 31.070313 278.601563 31.523438 278.789063 32 278.789063 C 32.476563 278.789063 32.929688 278.601563 33.265625 278.265625 C 33.601563 277.929688 33.789063 277.476563 33.789063 277 Z M 33.789063 277 "/>
<path style=" stroke:none;fill-rule:evenodd;fill:rgb(99.998474%,0%,0%);fill-opacity:0.6;" d="M 17.789063 276 C 17.789063 275.523438 17.601563 275.070313 17.265625 274.734375 C 16.929688 274.398438 16.476563 274.210938 16 274.210938 C 15.523438 274.210938 15.070313 274.398438 14.734375 274.734375 C 14.398438 275.070313 14.210938 275.523438 14.210938 276 C 14.210938 276.476563 14.398438 276.929688 14.734375 277.265625 C 15.070313 277.601563 15.523438 277.789063 16 277.789063 C 16.476563 277.789063 16.929688 277.601563 17.265625 277.265625 C 17.601563 276.929688 17.789063 276.476563 17.789063 276 Z M 17.789063 276 "/>
<path style=" stroke:none;fill-rule:evenodd;fill:rgb(99.998474%,0%,0%);fill-opacity:0.6;" d="M 32.789063 274 C 32.789063 273.523438 32.601563 273.070313 32.265625 272.734375 C 31.929688 272.398438 31.476563 272.210938 31 272.210938 C 30.523438 272.210938 30.070313 272.398438 29.734375 272.734375 C 29.398438 273.070313 29.210938 273.523438 29.210938 274 C 29.210938 274.476563 29.398438 274.929688 29.734375 275.265625 C 30.070313 275.601563 30.523438 275.789063 31 275.789063 C 31.476563 275.789063 31.929688 275.601563 32.265625 275.265625 C 32.601563 274.929688 32.789063 274.476563 32.789063 274 Z M 32.789063 274 "/>
<path style=" stroke:none;fill-rule:evenodd;fill:rgb(99.998474%,0%,0%);fill-opacity:0.6;" d="M 182.789063 256 C 182.789063 255.523438 182.601563 255.070313 182.265625 254.734375 C 181.929688 254.398438 181.476563 254.210938 181 254.210938 C 180.523438 254.210938 180.070313 254.398438 179.734375 254.734375 C 179.398438 255.070313 179.210938 255.523438 179.210938 256 C 179.210938 256.476563 179.398438 256.929688 179.734375 257.265625 C 180.070313 257.601563 180.523438 257.789063 181 257.789063 C 181.476563 257.789063 181.929688 257.601563 182.265625 257.265625 C 182.601563 256.929688 182.789063 256.476563 182.789063 256 Z M 182.789063 256 "/>
<path style=" stroke:none;fill-rule:evenodd;fill:rgb(99.998474%,0%,0%);fill-opacity:0.6;" d="M 180.789063 252 C 180.789063 251.523438 180.601563 251.070313 180.265625 250.734375 C 179.929688 250.398438 179.476563 250.210938 179 250.210938 C 178.523438 250.210938 178.070313 250.398438 177.734375 250.734375 C 177.398438 251.070313 177.210938 251.523438 177.210938 252 C 177.210938 252.476563 177.398438 252.929688 177.734375 253.265625 C 178.070313 253.601563 178.523438 253.789063 179 253.789063 C 179.476563 253.789063 179.929688 253.601563 180.265625 253.265625 C 180.601563 252.929688 180.789063 252.476563 180.789063 252 Z M 180.789063 252 "/>
<path style=" stroke:none;fill-rule:evenodd;fill:rgb(99.998474%,0%,0%);fill-opacity:0.6;" d="M 263.789063 240 C 263.789063 239.523438 263.601563 239.070313 263.265625 238.734375 C 262.929688 238.398438 262.476563 238.210938 262 238.210938 C 261.523438 238.210938 261.070313 238.398438 260.734375 238.734375 C 260.398438 239.070313 260.210938 239.523438 260.210938 240 C 260.210938 240.476563 260.398438 240.929688 260.734375 241.265625 C 261.070313 241.601563 261.523438 241.789063 262 241.789063 C 262.476563 241.789063 262.929688 241.601563 263.265625 241.265625 C 263.601563 240.929688 263.789063 240.476563 263.789063 240 Z M 263.789063 240 "/>
<path style=" stroke:none;fill-rule:evenodd;fill:rgb(99.998474%,0%,0%);fill-opacity:0.6;" d="M 262.789063 239 C 262.789063 238.523438 262.601563 238.070313 262.265625 237.734375 C 261.929688 237.398438 261.476563 237.210938 261 237.210938 C 260.523438 237.210938 260.070313 237.398438 259.734375 237.734375 C 259.398438 238.070313 259.210938 238.523438 259.210938 239 C 259.210938 239.476563 259.398438 239.929688 259.734375 240.265625 C 260.070313 240.601563 260.523438 240.789063 261 240.789063 C 261.476563 240.789063 261.929688 240.601563 262.265625 240.265625 C 262.601563 239.929688 262.789063 239.476563 262.789063 239 Z M 262.789063 239 "/>
<path style=" stroke:none;fill-rule:evenodd;fill:rgb(99.998474%,0%,0%);fill-opacity:0.6;" d="M 329.789063 198 C 329.789063 197.523438 329.601563 197.070313 329.265625 196.734375 C 328.929688 196.398438 328.476563 196.210938 328 196.210938 C 327.523438 196.210938 327.070313 196.398438 326.734375 196.734375 C 326.398438 197.070313 326.210938 197.523438 326.210938 198 C 326.210938 198.476563 326.398438 198.929688 326.734375 199.265625 C 327.070313 199.601563 327.523438 199.789063 328 199.789063 C 328.476563 199.789063 328.929688 199.601563 329.265625 199.265625 C 329.601563 198.929688 329.789063 198.476563 329.789063 198 Z M 329.789063 198 "/>
<path style=" stroke:none;fill-rule:evenodd;fill:rgb(99.998474%,0%,0%);fill-opacity:0.6;" d="M 280.789063 196 C 280.789063 195.523438 280.601563 195.070313 280.265625 194.734375 C 279.929688 194.398438 279.476563 194.210938 279 194.210938 C 278.523438 194.210938 278.070313 194.398438 277.734375 194.734375 C 277.398438 195.070313 277.210938 195.523438 277.210938 196 C 277.210938 196.476563 277.398438 196.929688 277.734375 197.265625 C 278.070313 197.601563 278.523438 197.789063 279 197.789063 C 279.476563 197.789063 279.929688 197.601563 280.265625 197.265625 C 280.601563 196.929688 280.789063 196.476563 280.789063 196 Z M 280.789063 196 "/>
<path style=" stroke:none;fill-rule:evenodd;fill:rgb(99.998474%,0%,0%);fill-opacity:0.6;" d="M 328.789063 196 C 328.789063 195.523438 328.601563 195.070313 328.265625 194.734375 C 327.929688 194.398438 327.476563 194.210938 327 194.210938 C 326.523438 194.210938 326.070313 194.398438 325.734375 194.734375 C 325.398438 195.070313 325.210938 195.523438 325.210938 196 C 325.210938 196.476563 325.398438 196.929688 325.734375 197.265625 C 326.070313 197.601563 326.523438 197.789063 327 197.789063 C 327.476563 197.789063 327.929688 197.601563 328.265625 197.265625 C 328.601563 196.929688 328.789063 196.476563 328.789063 196 Z M 328.789063 196 "/>
<path style=" stroke:none;fill-rule:evenodd;fill:rgb(99.998474%,0%,0%);fill-opacity:0.6;" d="M 278.789063 192 C 278.789063 191.523438 278.601563 191.070313 278.265625 190.734375 C 277.929688 190.398438 277.476563 190.210938 277 190.210938 C 276.523438 190.210938 276.070313 190.398438 275.734375 190.734375 C 275.398438 191.070313 275.210938 191.523438 275.210938 192 C 275.210938 192.476563 275.398438 192.929688 275.734375 193.265625 C 276.070313 193.601563 276.523438 193.789063 277 193.789063 C 277.476563 193.789063 277.929688 193.601563 278.265625 193.265625 C 278.601563 192.929688 278.789063 192.476563 278.789063 192 Z M 278.789063 192 "/>
<path style=" stroke:none;fill-rule:evenodd;fill:rgb(99.998474%,0%,0%);fill-opacity:0.6;" d="M 273.789063 191 C 273.789063 190.523438 273.601563 190.070313 273.265625 189.734375 C 272.929688 189.398438 272.476563 189.210938 272 189.210938 C 271.523438 189.210938 271.070313 189.398438 270.734375 189.734375 C 270.398438 190.070313 270.210938 190.523438 270.210938 191 C 270.210938 191.476563 270.398438 191.929688 270.734375 192.265625 C 271.070313 192.601563 271.523438 192.789063 272 192.789063 C 272.476563 192.789063 272.929688 192.601563 273.265625 192.265625 C 273.601563 191.929688 273.789063 191.476563 273.789063 191 Z M 273.789063 191 "/>
<path style=" stroke:none;fill-rule:evenodd;fill:rgb(99.998474%,0%,0%);fill-opacity:0.6;" d="M 277.789063 189 C 277.789063 188.523438 277.601563 188.070313 277.265625 187.734375 C 276.929688 187.398438 276.476563 187.210938 276 187.210938 C 275.523438 187.210938 275.070313 187.398438 274.734375 187.734375 C 274.398438 188.070313 274.210938 188.523438 274.210938 189 C 274.210938 189.476563 274.398438 189.929688 274.734375 190.265625 C 275.070313 190.601563 275.523438 190.789063 276 190.789063 C 276.476563 190.789063 276.929688 190.601563 277.265625 190.265625 C 277.601563 189.929688 277.789063 189.476563 277.789063 189 Z M 277.789063 189 "/>
<path style=" stroke:none;fill-rule:evenodd;fill:rgb(99.998474%,0%,0%);fill-opacity:0.6;" d="M 225.789063 158 C 225.789063 157.523438 225.601563 157.070313 225.265625 156.734375 C 224.929688 156.398438 224.476563 156.210938 224 156.210938 C 223.523438 156.210938 223.070313 156.398438 222.734375 156.734375 C 222.398438 157.070313 222.210938 157.523438 222.210938 158 C 222.210938 158.476563 222.398438 158.929688 222.734375 159.265625 C 223.070313 159.601563 223.523438 159.789063 224 159.789063 C 224.476563 159.789063 224.929688 159.601563 225.265625 159.265625 C 225.601563 158.929688 225.789063 158.476563 225.789063 158 Z M 225.789063 158 "/>
<path style=" stroke:none;fill-rule:evenodd;fill:rgb(99.998474%,0%,0%);fill-opacity:0.6;" d="M 226.789063 158 C 226.789063 157.523438 226.601563 157.070313 226.265625 156.734375 C 225.929688 156.398438 225.476563 156.210938 225 156.210938 C 224.523438 156.210938 224.070313 156.398438 223.734375 156.734375 C 223.398438 157.070313 223.210938 157.523438 223.210938 158 C 223.210938 158.476563 223.398438 158.929688 223.734375 159.265625 C 224.070313 159.601563 224.523438 159.789063 225 159.789063 C 225.476563 159.789063 225.929688 159.601563 226.265625 159.265625 C 226.601563 158.929688 226.789063 158.476563 226.789063 158 Z M 226.789063 158 "/>
<path style=" stroke:none;fill-rule:evenodd;fill:rgb(99.998474%,0%,0%);fill-opacity:0.6;" d="M 226.789063 158 C 226.789063 157.523438 226.601563 157.070313 226.265625 156.734375 C 225.929688 156.398438 225.476563 156.210938 225 156.210938 C 224.523438 156.210938 224.070313 156.398438 223.734375 156.734375 C 223.398438 157.070313 223.210938 157.523438 223.210938 158 C 223.210938 158.476563 223.398438 158.929688 223.734375 159.265625 C 224.070313 159.601563 224.523438 159.789063 225 159.789063 C 225.476563 159.789063 225.929688 159.601563 226.265625 159.265625 C 226.601563 158.929688 226.789063 158.476563 226.789063 158 Z M 226.789063 158 "/>
<path style=" stroke:none;fill-rule:evenodd;fill:rgb(99.998474%,0%,0%);fill-opacity:0.6;" d="M 231.789063 155 C 231.789063 154.523438 231.601563 154.070313 231.265625 153.734375 C 230.929688 153.398438 230.476563 153.210938 230 153.210938 C 229.523438 153.210938 229.070313 153.398438 228.734375 153.734375 C 228.398438 154.070313 228.210938 154.523438 228.210938 155 C 228.210938 155.476563 228.398438 155.929688 228.734375 156.265625 C 229.070313 156.601563 229.523438 156.789063 230 156.789063 C 230.476563 156.789063 230.929688 156.601563 231.265625 156.265625 C 231.601563 155.929688 231.789063 155.476563 231.789063 155 Z M 231.789063 155 "/>
<path style=" stroke:none;fill-rule:evenodd;fill:rgb(99.998474%,0%,0%);fill-opacity:0.6;" d="M 259.789063 128 C 259.789063 127.523438 259.601563 127.070313 259.265625 126.734375 C 258.929688 126.398438 258.476563 126.210938 258 126.210938 C 257.523438 126.210938 257.070313 126.398438 256.734375 126.734375 C 256.398438 127.070313 256.210938 127.523438 256.210938 128 C 256.210938 128.476563 256.398438 128.929688 256.734375 129.265625 C 257.070313 129.601563 257.523438 129.789063 258 129.789063 C 258.476563 129.789063 258.929688 129.601563 259.265625 129.265625 C 259.601563 128.929688 259.789063 128.476563 259.789063 128 Z M 259.789063 128 "/>
<path style=" stroke:none;fill-rule:evenodd;fill:rgb(99.998474%,0%,0%);fill-opacity:0.6;" d="M 97.789063 125 C 97.789063 124.523438 97.601563 124.070313 97.265625 123.734375 C 96.929688 123.398438 96.476563 123.210938 96 123.210938 C 95.523438 123.210938 95.070313 123.398438 94.734375 123.734375 C 94.398438 124.070313 94.210938 124.523438 94.210938 125 C 94.210938 125.476563 94.398438 125.929688 94.734375 126.265625 C 95.070313 126.601563 95.523438 126.789063 96 126.789063 C 96.476563 126.789063 96.929688 126.601563 97.265625 126.265625 C 97.601563 125.929688 97.789063 125.476563 97.789063 125 Z M 97.789063 125 "/>
<path style=" stroke:none;fill-rule:evenodd;fill:rgb(99.998474%,0%,0%);fill-opacity:0.6;" d="M 162.789063 81 C 162.789063 80.523438 162.601563 80.070313 162.265625 79.734375 C 161.929688 79.398438 161.476563 79.210938 161 79.210938 C 160.523438 79.210938 160.070313 79.398438 159.734375 79.734375 C 159.398438 80.070313 159.210938 80.523438 159.210938 81 C 159.210938 81.476563 159.398438 81.929688 159.734375 82.265625 C 160.070313 82.601563 160.523438 82.789063 161 82.789063 C 161.476563 82.789063 161.929688 82.601563 162.265625 82.265625 C 162.601563 81.929688 162.789063 81.476563 162.789063 81 Z M 162.789063 81 "/>
<path style=" stroke:none;fill-rule:evenodd;fill:rgb(99.998474%,0%,0%);fill-opacity:0.6;" d="M 166.789063 80 C 166.789063 79.523438 166.601563 79.070313 166.265625 78.734375 C 165.929688 78.398438 165.476563 78.210938 165 78.210938 C 164.523438 78.210938 164.070313 78.398438 163.734375 78.734375 C 163.398438 79.070313 163.210938 79.523438 163.210938 80 C 163.210938 80.476563 163.398438 80.929688 163.734375 81.265625 C 164.070313 81.601563 164.523438 81.789063 165 81.789063 C 165.476563 81.789063 165.929688 81.601563 166.265625 81.265625 C 166.601563 80.929688 166.789063 80.476563 166.789063 80 Z M 166.789063 80 "/>
<path style=" stroke:none;fill-rule:evenodd;fill:rgb(99.998474%,0%,0%);fill-opacity:0.6;" d="M 164.789063 80 C 164.789063 79.523438 164.601563 79.070313 164.265625 78.734375 C 163.929688 78.398438 163.476563 78.210938 163 78.210938 C 162.523438 78.210938 162.070313 78.398438 161.734375 78.734375 C 161.398438 79.070313 161.210938 79.523438 161.210938 80 C 161.210938 80.476563 161.398438 80.929688 161.734375 81.265625 C 162.070313 81.601563 162.523438 81.789063 163 81.789063 C 163.476563 81.789063 163.929688 81.601563 164.265625 81.265625 C 164.601563 80.929688 164.789063 80.476563 164.789063 80 Z M 164.789063 80 "/>
<path style=" stroke:none;fill-rule:evenodd;fill:rgb(99.998474%,0%,0%);fill-opacity:0.6;" d="M 166.789063 79 C 166.789063 78.523438 166.601563 78.070313 166.265625 77.734375 C 165.929688 77.398438 165.476563 77.210938 165 77.210938 C 164.523438 77.210938 164.070313 77.398438 163.734375 77.734375 C 163.398438 78.070313 163.210938 78.523438 163.210938 79 C 163.210938 79.476563 163.398438 79.929688 163.734375 80.265625 C 164.070313 80.601563 164.523438 80.789063 165 80.789063 C 165.476563 80.789063 165.929688 80.601563 166.265625 80.265625 C 166.601563 79.929688 166.789063 79.476563 166.789063 79 Z M 166.789063 79 "/>
<path style=" stroke:none;fill-rule:evenodd;fill:rgb(99.998474%,0%,0%);fill-opacity:0.6;" d="M 348.789063 77 C 348.789063 76.523438 348.601563 76.070313 348.265625 75.734375 C 347.929688 75.398438 347.476563 75.210938 347 75.210938 C 346.523438 75.210938 346.070313 75.398438 345.734375 75.734375 C 345.398438 76.070313 345.210938 76.523438 345.210938 77 C 345.210938 77.476563 345.398438 77.929688 345.734375 78.265625 C 346.070313 78.601563 346.523438 78.789063 347 78.789063 C 347.476563 78.789063 347.929688 78.601563 348.265625 78.265625 C 348.601563 77.929688 348.789063 77.476563 348.789063 77 Z M 348.789063 77 "/>
<path style=" stroke:none;fill-rule:evenodd;fill:rgb(99.998474%,0%,0%);fill-opacity:0.6;" d="M 347.789063 76 C 347.789063 75.523438 347.601563 75.070313 347.265625 74.734375 C 346.929688 74.398438 346.476563 74.210938 346 74.210938 C 345.523438 74.210938 345.070313 74.398438 344.734375 74.734375 C 344.398438 75.070313 344.210938 75.523438 344.210938 76 C 344.210938 76.476563 344.398438 76.929688 344.734375 77.265625 C 345.070313 77.601563 345.523438 77.789063 346 77.789063 C 346.476563 77.789063 346.929688 77.601563 347.265625 77.265625 C 347.601563 76.929688 347.789063 76.476563 347.789063 76 Z M 347.789063 76 "/>
<path style=" stroke:none;fill-rule:evenodd;fill:rgb(99.998474%,0%,0%);fill-opacity:0.6;" d="M 301.789063 71 C 301.789063 70.523438 301.601563 70.070313 301.265625 69.734375 C 300.929688 69.398438 300.476563 69.210938 300 69.210938 C 299.523438 69.210938 299.070313 69.398438 298.734375 69.734375 C 298.398438 70.070313 298.210938 70.523438 298.210938 71 C 298.210938 71.476563 298.398438 71.929688 298.734375 72.265625 C 299.070313 72.601563 299.523438 72.789063 300 72.789063 C 300.476563 72.789063 300.929688 72.601563 301.265625 72.265625 C 301.601563 71.929688 301.789063 71.476563 301.789063 71 Z M 301.789063 71 "/>
<path style=" stroke:none;fill-rule:evenodd;fill:rgb(99.998474%,0%,0%);fill-opacity:0.6;" d="M 176.789063 21 C 176.789063 20.523438 176.601563 20.070313 176.265625 19.734375 C 175.929688 19.398438 175.476563 19.210938 175 19.210938 C 174.523438 19.210938 174.070313 19.398438 173.734375 19.734375 C 173.398438 20.070313 173.210938 20.523438 173.210938 21 C 173.210938 21.476563 173.398438 21.929688 173.734375 22.265625 C 174.070313 22.601563 174.523438 22.789063 175 22.789063 C 175.476563 22.789063 175.929688 22.601563 176.265625 22.265625 C 176.601563 21.929688 176.789063 21.476563 176.789063 21 Z M 176.789063 21 "/>
<path style=" stroke:none;fill-rule:evenodd;fill:rgb(99.998474%,0%,0%);fill-opacity:0.6;" d="M 177.789063 18 C 177.789063 17.523438 177.601563 17.070313 177.265625 16.734375 C 176.929688 16.398438 176.476563 16.210938 176 16.210938 C 175.523438 16.210938 175.070313 16.398438 174.734375 16.734375 C 174.398438 17.070313 174.210938 17.523438 174.210938 18 C 174.210938 18.476563 174.398438 18.929688 174.734375 19.265625 C 175.070313 19.601563 175.523438 19.789063 176 19.789063 C 176.476563 19.789063 176.929688 19.601563 177.265625 19.265625 C 177.601563 18.929688 177.789063 18.476563 177.789063 18 Z M 177.789063 18 "/>
<path style=" stroke:none;fill-rule:evenodd;fill:rgb(99.998474%,0%,0%);fill-opacity:1;" d="M 267.5 346 C 267.5 345.601563 267.34375 345.21875 267.0625 344.9375 C 266.78125 344.65625 266.398438 344.5 266 344.5 C 265.601563 344.5 265.21875 344.65625 264.9375 344.9375 C 264.65625 345.21875 264.5 345.601563 264.5 346 C 264.5 346.398438 264.65625 346.78125 264.9375 347.0625 C 265.21875 347.34375 265.601563 347.5 266 347.5 C 266.398438 347.5 266.78125 347.34375 267.0625 347.0625 C 267.34375 346.78125 267.5 346.398438 267.5 346 Z M 267.5 346 "/>
<path style=" stroke:none;fill-rule:evenodd;fill:rgb(99.998474%,0%,0%);fill-opacity:1;" d="M 267.5 346 C 267.5 345.601563 267.34375 345.21875 267.0625 344.9375 C 266.78125 344.65625 266.398438 344.5 266 344.5 C 265.601563 344.5 265.21875 344.65625 264.9375 344.9375 C 264.65625 345.21875 264.5 345.601563 264.5 346 C 264.5 346.398438 264.65625 346.78125 264.9375 347.0625 C 265.21875 347.34375 265.601563 347.5 266 347.5 C 266.398438 347.5 266.78125 347.34375 267.0625 347.0625 C 267.34375 346.78125 267.5 346.398438 267.5 346 Z M 267.5 346 "/>
<path style=" stroke:none;fill-rule:evenodd;fill:rgb(99.998474%,0%,0%);fill-opacity:1;" d="M 268.5 346 C 268.5 345.601563 268.34375 345.21875 268.0625 344.9375 C 267.78125 344.65625 267.398438 344.5 267 344.5 C 266.601563 344.5 266.21875 344.65625 265.9375 344.9375 C 265.65625 345.21875 265.5 345.601563 265.5 346 C 265.5 346.398438 265.65625 346.78125 265.9375 347.0625 C 266.21875 347.34375 266.601563 347.5 267 347.5 C 267.398438 347.5 267.78125 347.34375 268.0625 347.0625 C 268.34375 346.78125 268.5 346.398438 268.5 346 Z M 268.5 346 "/>
<path style=" stroke:none;fill-rule:evenodd;fill:rgb(99.998474%,0%,0%);fill-opacity:1;" d="M 267.5 346 C 267.5 345.601563 267.34375 345.21875 267.0625 344.9375 C 266.78125 344.65625 266.398438 344.5 266 344.5 C 265.601563 344.5 265.21875 344.65625 264.9375 344.9375 C 264.65625 345.21875 264.5 345.601563 264.5 346 C 264.5 346.398438 264.65625 346.78125 264.9375 347.0625 C 265.21875 347.34375 265.601563 347.5 266 347.5 C 266.398438 347.5 266.78125 347.34375 267.0625 347.0625 C 267.34375 346.78125 267.5 346.398438 267.5 346 Z M 267.5 346 "/>
<path style=" stroke:none;fill-rule:evenodd;fill:rgb(99.998474%,0%,0%);fill-opacity:1;" d="M 265.5 342 C 265.5 341.601563 265.34375 341.21875 265.0625 340.9375 C 264.78125 340.65625 264.398438 340.5 264 340.5 C 263.601563 340.5 263.21875 340.65625 262.9375 340.9375 C 262.65625 341.21875 262.5 341.601563 262.5 342 C 262.5 342.398438 262.65625 342.78125 262.9375 343.0625 C 263.21875 343.34375 263.601563 343.5 264 343.5 C 264.398438 343.5 264.78125 343.34375 265.0625 343.0625 C 265.34375 342.78125 265.5 342.398438 265.5 342 Z M 265.5 342 "/>
<path style=" stroke:none;fill-rule:evenodd;fill:rgb(99.998474%,0%,0%);fill-opacity:1;" d="M 99.5 332 C 99.5 331.601563 99.34375 331.21875 99.0625 330.9375 C 98.78125 330.65625 98.398438 330.5 98 330.5 C 97.601563 330.5 97.21875 330.65625 96.9375 330.9375 C 96.65625 331.21875 96.5 331.601563 96.5 332 C 96.5 332.398438 96.65625 332.78125 96.9375 333.0625 C 97.21875 333.34375 97.601563 333.5 98 333.5 C 98.398438 333.5 98.78125 333.34375 99.0625 333.0625 C 99.34375 332.78125 99.5 332.398438 99.5 332 Z M 99.5 332 "/>
<path style=" stroke:none;fill-rule:evenodd;fill:rgb(99.998474%,0%,0%);fill-opacity:1;" d="M 162.5 304 C 162.5 303.601563 162.34375 303.21875 162.0625 302.9375 C 161.78125 302.65625 161.398438 302.5 161 302.5 C 160.601563 302.5 160.21875 302.65625 159.9375 302.9375 C 159.65625 303.21875 159.5 303.601563 159.5 304 C 159.5 304.398438 159.65625 304.78125 159.9375 305.0625 C 160.21875 305.34375 160.601563 305.5 161 305.5 C 161.398438 305.5 161.78125 305.34375 162.0625 305.0625 C 162.34375 304.78125 162.5 304.398438 162.5 304 Z M 162.5 304 "/>
<path style=" stroke:none;fill-rule:evenodd;fill:rgb(99.998474%,0%,0%);fill-opacity:1;" d="M 265.5 291 C 265.5 290.601563 265.34375 290.21875 265.0625 289.9375 C 264.78125 289.65625 264.398438 289.5 264 289.5 C 263.601563 289.5 263.21875 289.65625 262.9375 289.9375 C 262.65625 290.21875 262.5 290.601563 262.5 291 C 262.5 291.398438 262.65625 291.78125 262.9375 292.0625 C 263.21875 292.34375 263.601563 292.5 264 292.5 C 264.398438 292.5 264.78125 292.34375 265.0625 292.0625 C 265.34375 291.78125 265.5 291.398438 265.5 291 Z M 265.5 291 "/>
<path style=" stroke:none;fill-rule:evenodd;fill:rgb(99.998474%,0%,0%);fill-opacity:1;" d="M 264.5 291 C 264.5 290.601563 264.34375 290.21875 264.0625 289.9375 C 263.78125 289.65625 263.398438 289.5 263 289.5 C 262.601563 289.5 262.21875 289.65625 261.9375 289.9375 C 261.65625 290.21875 261.5 290.601563 261.5 291 C 261.5 291.398438 261.65625 291.78125 261.9375 292.0625 C 262.21875 292.34375 262.601563 292.5 263 292.5 C 263.398438 292.5 263.78125 292.34375 264.0625 292.0625 C 264.34375 291.78125 264.5 291.398438 264.5 291 Z M 264.5 291 "/>
<path style=" stroke:none;fill-rule:evenodd;fill:rgb(99.998474%,0%,0%);fill-opacity:1;" d="M 265.5 290 C 265.5 289.601563 265.34375 289.21875 265.0625 288.9375 C 264.78125 288.65625 264.398438 288.5 264 288.5 C 263.601563 288.5 263.21875 288.65625 262.9375 288.9375 C 262.65625 289.21875 262.5 289.601563 262.5 290 C 262.5 290.398438 262.65625 290.78125 262.9375 291.0625 C 263.21875 291.34375 263.601563 291.5 264 291.5 C 264.398438 291.5 264.78125 291.34375 265.0625 291.0625 C 265.34375 290.78125 265.5 290.398438 265.5 290 Z M 265.5 290 "/>
<path style=" stroke:none;fill-rule:evenodd;fill:rgb(99.998474%,0%,0%);fill-opacity:1;" d="M 264.5 289 C 264.5 288.601563 264.34375 288.21875 264.0625 287.9375 C 263.78125 287.65625 263.398438 287.5 263 287.5 C 262.601563 287.5 262.21875 287.65625 261.9375 287.9375 C 261.65625 288.21875 261.5 288.601563 261.5 289 C 261.5 289.398438 261.65625 289.78125 261.9375 290.0625 C 262.21875 290.34375 262.601563 290.5 263 290.5 C 263.398438 290.5 263.78125 290.34375 264.0625 290.0625 C 264.34375 289.78125 264.5 289.398438 264.5 289 Z M 264.5 289 "/>
<path style=" stroke:none;fill-rule:evenodd;fill:rgb(99.998474%,0%,0%);fill-opacity:1;" d="M 31.5 282 C 31.5 281.601563 31.34375 281.21875 31.0625 280.9375 C 30.78125 280.65625 30.398438 280.5 30 280.5 C 29.601563 280.5 29.21875 280.65625 28.9375 280.9375 C 28.65625 281.21875 28.5 281.601563 28.5 282 C 28.5 282.398438 28.65625 282.78125 28.9375 283.0625 C 29.21875 283.34375 29.601563 283.5 30 283.5 C 30.398438 283.5 30.78125 283.34375 31.0625 283.0625 C 31.34375 282.78125 31.5 282.398438 31.5 282 Z M 31.5 282 "/>
<path style=" stroke:none;fill-rule:evenodd;fill:rgb(99.998474%,0%,0%);fill-opacity:1;" d="M 32.5 282 C 32.5 281.601563 32.34375 281.21875 32.0625 280.9375 C 31.78125 280.65625 31.398438 280.5 31 280.5 C 30.601563 280.5 30.21875 280.65625 29.9375 280.9375 C 29.65625 281.21875 29.5 281.601563 29.5 282 C 29.5 282.398438 29.65625 282.78125 29.9375 283.0625 C 30.21875 283.34375 30.601563 283.5 31 283.5 C 31.398438 283.5 31.78125 283.34375 32.0625 283.0625 C 32.34375 282.78125 32.5 282.398438 32.5 282 Z M 32.5 282 "/>
<path style=" stroke:none;fill-rule:evenodd;fill:rgb(99.998474%,0%,0%);fill-opacity:1;" d="M 15.5 278 C 15.5 277.601563 15.34375 277.21875 15.0625 276.9375 C 14.78125 276.65625 14.398438 276.5 14 276.5 C 13.601563 276.5 13.21875 276.65625 12.9375 276.9375 C 12.65625 277.21875 12.5 277.601563 12.5 278 C 12.5 278.398438 12.65625 278.78125 12.9375 279.0625 C 13.21875 279.34375 13.601563 279.5 14 279.5 C 14.398438 279.5 14.78125 279.34375 15.0625 279.0625 C 15.34375 278.78125 15.5 278.398438 15.5 278 Z M 15.5 278 "/>
<path style=" stroke:none;fill-rule:evenodd;fill:rgb(99.998474%,0%,0%);fill-opacity:1;" d="M 33.5 277 C 33.5 276.601563 33.34375 276.21875 33.0625 275.9375 C 32.78125 275.65625 32.398438 275.5 32 275.5 C 31.601563 275.5 31.21875 275.65625 30.9375 275.9375 C 30.65625 276.21875 30.5 276.601563 30.5 277 C 30.5 277.398438 30.65625 277.78125 30.9375 278.0625 C 31.21875 278.34375 31.601563 278.5 32 278.5 C 32.398438 278.5 32.78125 278.34375 33.0625 278.0625 C 33.34375 277.78125 33.5 277.398438 33.5 277 Z M 33.5 277 "/>
<path style=" stroke:none;fill-rule:evenodd;fill:rgb(99.998474%,0%,0%);fill-opacity:1;" d="M 17.5 276 C 17.5 275.601563 17.34375 275.21875 17.0625 274.9375 C 16.78125 274.65625 16.398438 274.5 16 274.5 C 15.601563 274.5 15.21875 274.65625 14.9375 274.9375 C 14.65625 275.21875 14.5 275.601563 14.5 276 C 14.5 276.398438 14.65625 276.78125 14.9375 277.0625 C 15.21875 277.34375 15.601563 277.5 16 277.5 C 16.398438 277.5 16.78125 277.34375 17.0625 277.0625 C 17.34375 276.78125 17.5 276.398438 17.5 276 Z M 17.5 276 "/>
<path style=" stroke:none;fill-rule:evenodd;fill:rgb(99.998474%,0%,0%);fill-opacity:1;" d="M 32.5 274 C 32.5 273.601563 32.34375 273.21875 32.0625 272.9375 C 31.78125 272.65625 31.398438 272.5 31 272.5 C 30.601563 272.5 30.21875 272.65625 29.9375 272.9375 C 29.65625 273.21875 29.5 273.601563 29.5 274 C 29.5 274.398438 29.65625 274.78125 29.9375 275.0625 C 30.21875 275.34375 30.601563 275.5 31 275.5 C 31.398438 275.5 31.78125 275.34375 32.0625 275.0625 C 32.34375 274.78125 32.5 274.398438 32.5 274 Z M 32.5 274 "/>
<path style=" stroke:none;fill-rule:evenodd;fill:rgb(99.998474%,0%,0%);fill-opacity:1;" d="M 182.5 256 C 182.5 255.601563 182.34375 255.21875 182.0625 254.9375 C 181.78125 254.65625 181.398438 254.5 181 254.5 C 180.601563 254.5 180.21875 254.65625 179.9375 254.9375 C 179.65625 255.21875 179.5 255.601563 179.5 256 C 179.5 256.398438 179.65625 256.78125 179.9375 257.0625 C 180.21875 257.34375 180.601563 257.5 181 257.5 C 181.398438 257.5 181.78125 257.34375 182.0625 257.0625 C 182.34375 256.78125 182.5 256.398438 182.5 256 Z M 182.5 256 "/>
<path style=" stroke:none;fill-rule:evenodd;fill:rgb(99.998474%,0%,0%);fill-opacity:1;" d="M 180.5 252 C 180.5 251.601563 180.34375 251.21875 180.0625 250.9375 C 179.78125 250.65625 179.398438 250.5 179 250.5 C 178.601563 250.5 178.21875 250.65625 177.9375 250.9375 C 177.65625 251.21875 177.5 251.601563 177.5 252 C 177.5 252.398438 177.65625 252.78125 177.9375 253.0625 C 178.21875 253.34375 178.601563 253.5 179 253.5 C 179.398438 253.5 179.78125 253.34375 180.0625 253.0625 C 180.34375 252.78125 180.5 252.398438 180.5 252 Z M 180.5 252 "/>
<path style=" stroke:none;fill-rule:evenodd;fill:rgb(99.998474%,0%,0%);fill-opacity:1;" d="M 263.5 240 C 263.5 239.601563 263.34375 239.21875 263.0625 238.9375 C 262.78125 238.65625 262.398438 238.5 262 238.5 C 261.601563 238.5 261.21875 238.65625 260.9375 238.9375 C 260.65625 239.21875 260.5 239.601563 260.5 240 C 260.5 240.398438 260.65625 240.78125 260.9375 241.0625 C 261.21875 241.34375 261.601563 241.5 262 241.5 C 262.398438 241.5 262.78125 241.34375 263.0625 241.0625 C 263.34375 240.78125 263.5 240.398438 263.5 240 Z M 263.5 240 "/>
<path style=" stroke:none;fill-rule:evenodd;fill:rgb(99.998474%,0%,0%);fill-opacity:1;" d="M 262.5 239 C 262.5 238.601563 262.34375 238.21875 262.0625 237.9375 C 261.78125 237.65625 261.398438 237.5 261 237.5 C 260.601563 237.5 260.21875 237.65625 259.9375 237.9375 C 259.65625 238.21875 259.5 238.601563 259.5 239 C 259.5 239.398438 259.65625 239.78125 259.9375 240.0625 C 260.21875 240.34375 260.601563 240.5 261 240.5 C 261.398438 240.5 261.78125 240.34375 262.0625 240.0625 C 262.34375 239.78125 262.5 239.398438 262.5 239 Z M 262.5 239 "/>
<path style=" stroke:none;fill-rule:evenodd;fill:rgb(99.998474%,0%,0%);fill-opacity:1;" d="M 329.5 198 C 329.5 197.601563 329.34375 197.21875 329.0625 196.9375 C 328.78125 196.65625 328.398438 196.5 328 196.5 C 327.601563 196.5 327.21875 196.65625 326.9375 196.9375 C 326.65625 197.21875 326.5 197.601563 326.5 198 C 326.5 198.398438 326.65625 198.78125 326.9375 199.0625 C 327.21875 199.34375 327.601563 199.5 328 199.5 C 328.398438 199.5 328.78125 199.34375 329.0625 199.0625 C 329.34375 198.78125 329.5 198.398438 329.5 198 Z M 329.5 198 "/>
<path style=" stroke:none;fill-rule:evenodd;fill:rgb(99.998474%,0%,0%);fill-opacity:1;" d="M 280.5 196 C 280.5 195.601563 280.34375 195.21875 280.0625 194.9375 C 279.78125 194.65625 279.398438 194.5 279 194.5 C 278.601563 194.5 278.21875 194.65625 277.9375 194.9375 C 277.65625 195.21875 277.5 195.601563 277.5 196 C 277.5 196.398438 277.65625 196.78125 277.9375 197.0625 C 278.21875 197.34375 278.601563 197.5 279 197.5 C 279.398438 197.5 279.78125 197.34375 280.0625 197.0625 C 280.34375 196.78125 280.5 196.398438 280.5 196 Z M 280.5 196 "/>
<path style=" stroke:none;fill-rule:evenodd;fill:rgb(99.998474%,0%,0%);fill-opacity:1;" d="M 328.5 196 C 328.5 195.601563 328.34375 195.21875 328.0625 194.9375 C 327.78125 194.65625 327.398438 194.5 327 194.5 C 326.601563 194.5 326.21875 194.65625 325.9375 194.9375 C 325.65625 195.21875 325.5 195.601563 325.5 196 C 325.5 196.398438 325.65625 196.78125 325.9375 197.0625 C 326.21875 197.34375 326.601563 197.5 327 197.5 C 327.398438 197.5 327.78125 197.34375 328.0625 197.0625 C 328.34375 196.78125 328.5 196.398438 328.5 196 Z M 328.5 196 "/>
<path style=" stroke:none;fill-rule:evenodd;fill:rgb(99.998474%,0%,0%);fill-opacity:1;" d="M 278.5 192 C 278.5 191.601563 278.34375 191.21875 278.0625 190.9375 C 277.78125 190.65625 277.398438 190.5 277 190.5 C 276.601563 190.5 276.21875 190.65625 275.9375 190.9375 C 275.65625 191.21875 275.5 191.601563 275.5 192 C 275.5 192.398438 275.65625 192.78125 275.9375 193.0625 C 276.21875 193.34375 276.601563 193.5 277 193.5 C 277.398438 193.5 277.78125 193.34375 278.0625 193.0625 C 278.34375 192.78125 278.5 192.398438 278.5 192 Z M 278.5 192 "/>
<path style=" stroke:none;fill-rule:evenodd;fill:rgb(99.998474%,0%,0%);fill-opacity:1;" d="M 273.5 191 C 273.5 190.601563 273.34375 190.21875 273.0625 189.9375 C 272.78125 189.65625 272.398438 189.5 272 189.5 C 271.601563 189.5 271.21875 189.65625 270.9375 189.9375 C 270.65625 190.21875 270.5 190.601563 270.5 191 C 270.5 191.398438 270.65625 191.78125 270.9375 192.0625 C 271.21875 192.34375 271.601563 192.5 272 192.5 C 272.398438 192.5 272.78125 192.34375 273.0625 192.0625 C 273.34375 191.78125 273.5 191.398438 273.5 191 Z M 273.5 191 "/>
<path style=" stroke:none;fill-rule:evenodd;fill:rgb(99.998474%,0%,0%);fill-opacity:1;" d="M 277.5 189 C 277.5 188.601563 277.34375 188.21875 277.0625 187.9375 C 276.78125 187.65625 276.398438 187.5 276 187.5 C 275.601563 187.5 275.21875 187.65625 274.9375 187.9375 C 274.65625 188.21875 274.5 188.601563 274.5 189 C 274.5 189.398438 274.65625 189.78125 274.9375 190.0625 C 275.21875 190.34375 275.601563 190.5 276 190.5 C 276.398438 190.5 276.78125 190.34375 277.0625 190.0625 C 277.34375 189.78125 277.5 189.398438 277.5 189 Z M 277.5 189 "/>
<path style=" stroke:none;fill-rule:evenodd;fill:rgb(99.998474%,0%,0%);fill-opacity:1;" d="M 225.5 158 C 225.5 157.601563 225.34375 157.21875 225.0625 156.9375 C 224.78125 156.65625 224.398438 156.5 224 156.5 C 223.601563 156.5 223.21875 156.65625 222.9375 156.9375 C 222.65625 157.21875 222.5 157.601563 222.5 158 C 222.5 158.398438 222.65625 158.78125 222.9375 159.0625 C 223.21875 159.34375 223.601563 159.5 224 159.5 C 224.398438 159.5 224.78125 159.34375 225.0625 159.0625 C 225.34375 158.78125 225.5 158.398438 225.5 158 Z M 225.5 158 "/>
<path style=" stroke:none;fill-rule:evenodd;fill:rgb(99.998474%,0%,0%);fill-opacity:1;" d="M 226.5 158 C 226.5 157.601563 226.34375 157.21875 226.0625 156.9375 C 225.78125 156.65625 225.398438 156.5 225 156.5 C 224.601563 156.5 224.21875 156.65625 223.9375 156.9375 C 223.65625 157.21875 223.5 157.601563 223.5 158 C 223.5 158.398438 223.65625 158.78125 223.9375 159.0625 C 224.21875 159.34375 224.601563 159.5 225 159.5 C 225.398438 159.5 225.78125 159.34375 226.0625 159.0625 C 226.34375 158.78125 226.5 158.398438 226.5 158 Z M 226.5 158 "/>
<path style=" stroke:none;fill-rule:evenodd;fill:rgb(99.998474%,0%,0%);fill-opacity:1;" d="M 226.5 158 C 226.5 157.601563 226.34375 157.21875 226.0625 156.9375 C 225.78125 156.65625 225.398438 156.5 225 156.5 C 224.601563 156.5 224.21875 156.65625 223.9375 156.9375 C 223.65625 157.21875 223.5 157.601563 223.5 158 C 223.5 158.398438 223.65625 158.78125 223.9375 159.0625 C 224.21875 159.34375 224.601563 159.5 225 159.5 C 225.398438 159.5 225.78125 159.34375 226.0625 159.0625 C 226.34375 158.78125 226.5 158.398438 226.5 158 Z M 226.5 158 "/>
<path style=" stroke:none;fill-rule:evenodd;fill:rgb(99.998474%,0%,0%);fill-opacity:1;" d="M 231.5 155 C 231.5 154.601563 231.34375 154.21875 231.0625 153.9375 C 230.78125 153.65625 230.398438 153.5 230 153.5 C 229.601563 153.5 229.21875 153.65625 228.9375 153.9375 C 228.65625 154.21875 228.5 154.601563 228.5 155 C 228.5 155.398438 228.65625 155.78125 228.9375 156.0625 C 229.21875 156.34375 229.601563 156.5 230 156.5 C 230.398438 156.5 230.78125 156.34375 231.0625 156.0625 C 231.34375 155.78125 231.5 155.398438 231.5 155 Z M 231.5 155 "/>
<path style=" stroke:none;fill-rule:evenodd;fill:rgb(99.998474%,0%,0%);fill-opacity:1;" d="M 259.5 128 C 259.5 127.601563 259.34375 127.21875 259.0625 126.9375 C 258.78125 126.65625 258.398438 126.5 258 126.5 C 257.601563 126.5 257.21875 126.65625 256.9375 126.9375 C 256.65625 127.21875 256.5 127.601563 256.5 128 C 256.5 128.398438 256.65625 128.78125 256.9375 129.0625 C 257.21875 129.34375 257.601563 129.5 258 129.5 C 258.398438 129.5 258.78125 129.34375 259.0625 129.0625 C 259.34375 128.78125 259.5 128.398438 259.5 128 Z M 259.5 128 "/>
<path style=" stroke:none;fill-rule:evenodd;fill:rgb(99.998474%,0%,0%);fill-opacity:1;" d="M 97.5 125 C 97.5 124.601563 97.34375 124.21875 97.0625 123.9375 C 96.78125 123.65625 96.398438 123.5 96 123.5 C 95.601563 123.5 95.21875 123.65625 94.9375 123.9375 C 94.65625 124.21875 94.5 124.601563 94.5 125 C 94.5 125.398438 94.65625 125.78125 94.9375 126.0625 C 95.21875 126.34375 95.601563 126.5 96 126.5 C 96.398438 126.5 96.78125 126.34375 97.0625 126.0625 C 97.34375 125.78125 97.5 125.398438 97.5 125 Z M 97.5 125 "/>
<path style=" stroke:none;fill-rule:evenodd;fill:rgb(99.998474%,0%,0%);fill-opacity:1;" d="M 162.5 81 C 162.5 80.601563 162.34375 80.21875 162.0625 79.9375 C 161.78125 79.65625 161.398438 79.5 161 79.5 C 160.601563 79.5 160.21875 79.65625 159.9375 79.9375 C 159.65625 80.21875 159.5 80.601563 159.5 81 C 159.5 81.398438 159.65625 81.78125 159.9375 82.0625 C 160.21875 82.34375 160.601563 82.5 161 82.5 C 161.398438 82.5 161.78125 82.34375 162.0625 82.0625 C 162.34375 81.78125 162.5 81.398438 162.5 81 Z M 162.5 81 "/>
<path style=" stroke:none;fill-rule:evenodd;fill:rgb(99.998474%,0%,0%);fill-opacity:1;" d="M 166.5 80 C 166.5 79.601563 166.34375 79.21875 166.0625 78.9375 C 165.78125 78.65625 165.398438 78.5 165 78.5 C 164.601563 78.5 164.21875 78.65625 163.9375 78.9375 C 163.65625 79.21875 163.5 79.601563 163.5 80 C 163.5 80.398438 163.65625 80.78125 163.9375 81.0625 C 164.21875 81.34375 164.601563 81.5 165 81.5 C 165.398438 81.5 165.78125 81.34375 166.0625 81.0625 C 166.34375 80.78125 166.5 80.398438 166.5 80 Z M 166.5 80 "/>
<path style=" stroke:none;fill-rule:evenodd;fill:rgb(99.998474%,0%,0%);fill-opacity:1;" d="M 164.5 80 C 164.5 79.601563 164.34375 79.21875 164.0625 78.9375 C 163.78125 78.65625 163.398438 78.5 163 78.5 C 162.601563 78.5 162.21875 78.65625 161.9375 78.9375 C 161.65625 79.21875 161.5 79.601563 161.5 80 C 161.5 80.398438 161.65625 80.78125 161.9375 81.0625 C 162.21875 81.34375 162.601563 81.5 163 81.5 C 163.398438 81.5 163.78125 81.34375 164.0625 81.0625 C 164.34375 80.78125 164.5 80.398438 164.5 80 Z M 164.5 80 "/>
<path style=" stroke:none;fill-rule:evenodd;fill:rgb(99.998474%,0%,0%);fill-opacity:1;" d="M 166.5 79 C 166.5 78.601563 166.34375 78.21875 166.0625 77.9375 C 165.78125 77.65625 165.398438 77.5 165 77.5 C 164.601563 77.5 164.21875 77.65625 163.9375 77.9375 C 163.65625 78.21875 163.5 78.601563 163.5 79 C 163.5 79.398438 163.65625 79.78125 163.9375 80.0625 C 164.21875 80.34375 164.601563 80.5 165 80.5 C 165.398438 80.5 165.78125 80.34375 166.0625 80.0625 C 166.34375 79.78125 166.5 79.398438 166.5 79 Z M 166.5 79 "/>
<path style=" stroke:none;fill-rule:evenodd;fill:rgb(99.998474%,0%,0%);fill-opacity:1;" d="M 348.5 77 C 348.5 76.601563 348.34375 76.21875 348.0625 75.9375 C 347.78125 75.65625 347.398438 75.5 347 75.5 C 346.601563 75.5 346.21875 75.65625 345.9375 75.9375 C 345.65625 76.21875 345.5 76.601563 345.5 77 C 345.5 77.398438 345.65625 77.78125 345.9375 78.0625 C 346.21875 78.34375 346.601563 78.5 347 78.5 C 347.398438 78.5 347.78125 78.34375 348.0625 78.0625 C 348.34375 77.78125 348.5 77.398438 348.5 77 Z M 348.5 77 "/>
<path style=" stroke:none;fill-rule:evenodd;fill:rgb(99.998474%,0%,0%);fill-opacity:1;" d="M 347.5 76 C 347.5 75.601563 347.34375 75.21875 347.0625 74.9375 C 346.78125 74.65625 346.398438 74.5 346 74.5 C 345.601563 74.5 345.21875 74.65625 344.9375 74.9375 C 344.65625 75.21875 344.5 75.601563 344.5 76 C 344.5 76.398438 344.65625 76.78125 344.9375 77.0625 C 345.21875 77.34375 345.601563 77.5 346 77.5 C 346.398438 77.5 346.78125 77.34375 347.0625 77.0625 C 347.34375 76.78125 347.5 76.398438 347.5 76 Z M 347.5 76 "/>
<path style=" stroke:none;fill-rule:evenodd;fill:rgb(99.998474%,0%,0%);fill-opacity:1;" d="M 301.5 71 C 301.5 70.601563 301.34375 70.21875 301.0625 69.9375 C 300.78125 69.65625 300.398438 69.5 300 69.5 C 299.601563 69.5 299.21875 69.65625 298.9375 69.9375 C 298.65625 70.21875 298.5 70.601563 298.5 71 C 298.5 71.398438 298.65625 71.78125 298.9375 72.0625 C 299.21875 72.34375 299.601563 72.5 300 72.5 C 300.398438 72.5 300.78125 72.34375 301.0625 72.0625 C 301.34375 71.78125 301.5 71.398438 301.5 71 Z M 301.5 71 "/>
<path style=" stroke:none;fill-rule:evenodd;fill:rgb(99.998474%,0%,0%);fill-opacity:1;" d="M 176.5 21 C 176.5 20.601563 176.34375 20.21875 176.0625 19.9375 C 175.78125 19.65625 175.398438 19.5 175 19.5 C 174.601563 19.5 174.21875 19.65625 173.9375 19.9375 C 173.65625 20.21875 173.5 20.601563 173.5 21 C 173.5 21.398438 173.65625 21.78125 173.9375 22.0625 C 174.21875 22.34375 174.601563 22.5 175 22.5 C 175.398438 22.5 175.78125 22.34375 176.0625 22.0625 C 176.34375 21.78125 176.5 21.398438 176.5 21 Z M 176.5 21 "/>
<path style=" stroke:none;fill-rule:evenodd;fill:rgb(99.998474%,0%,0%);fill-opacity:1;" d="M 177.5 18 C 177.5 17.601563 177.34375 17.21875 177.0625 16.9375 C 176.78125 16.65625 176.398438 16.5 176 16.5 C 175.601563 16.5 175.21875 16.65625 174.9375 16.9375 C 174.65625 17.21875 174.5 17.601563 174.5 18 C 174.5 18.398438 174.65625 18.78125 174.9375 19.0625 C 175.21875 19.34375 175.601563 19.5 176 19.5 C 176.398438 19.5 176.78125 19.34375 177.0625 19.0625 C 177.34375 18.78125 177.5 18.398438 177.5 18 Z M 177.5 18 "/>
</g>
</svg>
