<?xml version="1.0" encoding="UTF-8"?>
<svg xmlns="http://www.w3.org/2000/svg" xmlns:xlink="http://www.w3.org/1999/xlink" width="342pt" height="286pt" viewBox="0 0 342 286" version="1.1">
<g id="surface327">
<path style="fill-rule:nonzero;fill:rgb(84.999084%,84.999084%,84.999084%);fill-opacity:0.6;stroke-width:1;stroke-linecap:square;stroke-linejoin:miter;stroke:rgb(50%,50%,50%);stroke-opacity:1;stroke-miterlimit:3.25;" d="M 209.203125 296.617188 L 212.671875 296.398438 L 209.285156 296.230469 Z M 209.203125 296.617188 " transform="matrix(1,0,0,1,-74,-13)"/>
<path style="fill-rule:nonzero;fill:rgb(84.999084%,84.999084%,84.999084%);fill-opacity:0.6;stroke-width:1;stroke-linecap:square;stroke-linejoin:miter;stroke:rgb(50%,50%,50%);stroke-opacity:1;stroke-miterlimit:3.25;" d="M 281.753906 296.039063 L 212.671875 296.398438 L 281.957031 296.054688 Z M 281.753906 296.039063 " transform="matrix(1,0,0,1,-74,-13)"/>
<path style="fill-rule:nonzero;fill:rgb(84.999084%,84.999084%,84.999084%);fill-opacity:0.6;stroke-width:1;stroke-linecap:square;stroke-linejoin:miter;stroke:rgb(50%,50%,50%);stroke-opacity:1;stroke-miterlimit:3.25;" d="M 178.9375 245.023438 L 209.285156 296.230469 L 212.671875 296.398438 Z M 178.9375 245.023438 " transform="matrix(1,0,0,1,-74,-13)"/>
<path style="fill-rule:nonzero;fill:rgb(84.999084%,84.999084%,84.999084%);fill-opacity:0.6;stroke-width:1;stroke-linecap:square;stroke-linejoin:miter;stroke:rgb(50%,50%,50%);stroke-opacity:1;stroke-miterlimit:3.25;" d="M 209.285156 296.230469 L 178.9375 245.023438 L 209.203125 296.617188 Z M 209.285156 296.230469 " transform="matrix(1,0,0,1,-74,-13)"/>
<path style="fill-rule:nonzero;fill:rgb(84.999084%,84.999084%,84.999084%);fill-opacity:0.6;stroke-width:1;stroke-linecap:square;stroke-linejoin:miter;stroke:rgb(50%,50%,50%);stroke-opacity:1;stroke-miterlimit:3.25;" d="M 212.671875 296.398438 L 215.71875 209.738281 L 178.9375 245.023438 Z M 212.671875 296.398438 " transform="matrix(1,0,0,1,-74,-13)"/>
<path style="fill-rule:nonzero;fill:rgb(84.999084%,84.999084%,84.999084%);fill-opacity:0.6;stroke-width:1;stroke-linecap:square;stroke-linejoin:miter;stroke:rgb(50%,50%,50%);stroke-opacity:1;stroke-miterlimit:3.25;" d="M 281.65625 296.019531 L 281.753906 296.039063 L 281.859375 295.910156 Z M 281.65625 296.019531 " transform="matrix(1,0,0,1,-74,-13)"/>
<path style="fill-rule:nonzero;fill:rgb(84.999084%,84.999084%,84.999084%);fill-opacity:0.6;stroke-width:1;stroke-linecap:square;stroke-linejoin:miter;stroke:rgb(50%,50%,50%);stroke-opacity:1;stroke-miterlimit:3.25;" d="M 281.753906 296.039063 L 281.65625 296.019531 L 212.671875 296.398438 Z M 281.753906 296.039063 " transform="matrix(1,0,0,1,-74,-13)"/>
<path style="fill-rule:nonzero;fill:rgb(84.999084%,84.999084%,84.999084%);fill-opacity:0.6;stroke-width:1;stroke-linecap:square;stroke-linejoin:miter;stroke:rgb(50%,50%,50%);stroke-opacity:1;stroke-miterlimit:3.25;" d="M 216.394531 203.546875 L 215.71875 209.738281 L 275.75 170.339844 Z M 216.394531 203.546875 " transform="matrix(1,0,0,1,-74,-13)"/>
<path style="fill-rule:nonzero;fill:rgb(84.999084%,84.999084%,84.999084%);fill-opacity:0.6;stroke-width:1;stroke-linecap:square;stroke-linejoin:miter;stroke:rgb(50%,50%,50%);stroke-opacity:1;stroke-miterlimit:3.25;" d="M 281.859375 295.910156 L 215.71875 209.738281 L 281.65625 296.019531 Z M 281.859375 295.910156 " transform="matrix(1,0,0,1,-74,-13)"/>
<path style="fill-rule:nonzero;fill:rgb(84.999084%,84.999084%,84.999084%);fill-opacity:0.6;stroke-width:1;stroke-linecap:square;stroke-linejoin:miter;stroke:rgb(50%,50%,50%);stroke-opacity:1;stroke-miterlimit:3.25;" d="M 275.75 170.339844 L 215.71875 209.738281 L 281.859375 295.910156 Z M 275.75 170.339844 " transform="matrix(1,0,0,1,-74,-13)"/>
<path style="fill-rule:nonzero;fill:rgb(84.999084%,84.999084%,84.999084%);fill-opacity:0.6;stroke-width:1;stroke-linecap:square;stroke-linejoin:miter;stroke:rgb(50%,50%,50%);stroke-opacity:1;stroke-miterlimit:3.25;" d="M 215.71875 209.738281 L 216.394531 203.546875 L 178.9375 245.023438 Z M 215.71875 209.738281 " transform="matrix(1,0,0,1,-74,-13)"/>
<path style="fill-rule:nonzero;fill:rgb(84.999084%,84.999084%,84.999084%);fill-opacity:0.6;stroke-width:1;stroke-linecap:square;stroke-linejoin:miter;stroke:rgb(50%,50%,50%);stroke-opacity:1;stroke-miterlimit:3.25;" d="M 281.753906 296.039063 L 281.867188 296 L 281.859375 295.910156 Z M 281.753906 296.039063 " transform="matrix(1,0,0,1,-74,-13)"/>
<path style="fill-rule:nonzero;fill:rgb(84.999084%,84.999084%,84.999084%);fill-opacity:0.6;stroke-width:1;stroke-linecap:square;stroke-linejoin:miter;stroke:rgb(50%,50%,50%);stroke-opacity:1;stroke-miterlimit:3.25;" d="M 281.65625 296.019531 L 215.71875 209.738281 L 212.671875 296.398438 Z M 281.65625 296.019531 " transform="matrix(1,0,0,1,-74,-13)"/>
<path style="fill-rule:nonzero;fill:rgb(84.999084%,84.999084%,84.999084%);fill-opacity:0.6;stroke-width:1;stroke-linecap:square;stroke-linejoin:miter;stroke:rgb(50%,50%,50%);stroke-opacity:1;stroke-miterlimit:3.25;" d="M 212.671875 296.398438 L 209.203125 296.617188 L 281.957031 296.054688 Z M 212.671875 296.398438 " transform="matrix(1,0,0,1,-74,-13)"/>
<path style="fill-rule:nonzero;fill:rgb(84.999084%,84.999084%,84.999084%);fill-opacity:0.6;stroke-width:1;stroke-linecap:square;stroke-linejoin:miter;stroke:rgb(50%,50%,50%);stroke-opacity:1;stroke-miterlimit:3.25;" d="M 178.9375 245.023438 L 216.394531 203.546875 L 121.714844 116.769531 Z M 178.9375 245.023438 " transform="matrix(1,0,0,1,-74,-13)"/>
<path style="fill-rule:nonzero;fill:rgb(84.999084%,84.999084%,84.999084%);fill-opacity:0.6;stroke-width:1;stroke-linecap:square;stroke-linejoin:miter;stroke:rgb(50%,50%,50%);stroke-opacity:1;stroke-miterlimit:3.25;" d="M 87.964844 76.949219 L 121.714844 116.769531 L 138.773438 38.773438 Z M 87.964844 76.949219 " transform="matrix(1,0,0,1,-74,-13)"/>
<path style="fill-rule:nonzero;fill:rgb(84.999084%,84.999084%,84.999084%);fill-opacity:0.6;stroke-width:1;stroke-linecap:square;stroke-linejoin:miter;stroke:rgb(50%,50%,50%);stroke-opacity:1;stroke-miterlimit:3.25;" d="M 121.714844 116.769531 L 87.964844 76.949219 L 178.9375 245.023438 Z M 121.714844 116.769531 " transform="matrix(1,0,0,1,-74,-13)"/>
<path style="fill-rule:nonzero;fill:rgb(84.999084%,84.999084%,84.999084%);fill-opacity:0.6;stroke-width:1;stroke-linecap:square;stroke-linejoin:miter;stroke:rgb(50%,50%,50%);stroke-opacity:1;stroke-miterlimit:3.25;" d="M 138.773438 38.773438 L 87.035156 75.101563 L 87.964844 76.949219 Z M 138.773438 38.773438 " transform="matrix(1,0,0,1,-74,-13)"/>
<path style="fill-rule:nonzero;fill:rgb(84.999084%,84.999084%,84.999084%);fill-opacity:0.6;stroke-width:1;stroke-linecap:square;stroke-linejoin:miter;stroke:rgb(50%,50%,50%);stroke-opacity:1;stroke-miterlimit:3.25;" d="M 121.714844 116.769531 L 195.539063 66.644531 L 138.773438 38.773438 Z M 121.714844 116.769531 " transform="matrix(1,0,0,1,-74,-13)"/>
<path style="fill-rule:nonzero;fill:rgb(84.999084%,84.999084%,84.999084%);fill-opacity:0.6;stroke-width:1;stroke-linecap:square;stroke-linejoin:miter;stroke:rgb(50%,50%,50%);stroke-opacity:1;stroke-miterlimit:3.25;" d="M 283.980469 91.394531 L 195.539063 66.644531 L 199.816406 112.796875 Z M 283.980469 91.394531 " transform="matrix(1,0,0,1,-74,-13)"/>
<path style="fill-rule:nonzero;fill:rgb(84.999084%,84.999084%,84.999084%);fill-opacity:0.6;stroke-width:1;stroke-linecap:square;stroke-linejoin:miter;stroke:rgb(50%,50%,50%);stroke-opacity:1;stroke-miterlimit:3.25;" d="M 199.816406 112.796875 L 121.714844 116.769531 L 216.394531 203.546875 Z M 199.816406 112.796875 " transform="matrix(1,0,0,1,-74,-13)"/>
<path style="fill-rule:nonzero;fill:rgb(84.999084%,84.999084%,84.999084%);fill-opacity:0.6;stroke-width:1;stroke-linecap:square;stroke-linejoin:miter;stroke:rgb(50%,50%,50%);stroke-opacity:1;stroke-miterlimit:3.25;" d="M 195.171875 64.855469 L 195.539063 66.644531 L 196.65625 62.902344 Z M 195.171875 64.855469 " transform="matrix(1,0,0,1,-74,-13)"/>
<path style="fill-rule:nonzero;fill:rgb(84.999084%,84.999084%,84.999084%);fill-opacity:0.6;stroke-width:1;stroke-linecap:square;stroke-linejoin:miter;stroke:rgb(50%,50%,50%);stroke-opacity:1;stroke-miterlimit:3.25;" d="M 195.171875 64.855469 L 138.773438 38.773438 L 195.539063 66.644531 Z M 195.171875 64.855469 " transform="matrix(1,0,0,1,-74,-13)"/>
<path style="fill-rule:nonzero;fill:rgb(84.999084%,84.999084%,84.999084%);fill-opacity:0.6;stroke-width:1;stroke-linecap:square;stroke-linejoin:miter;stroke:rgb(50%,50%,50%);stroke-opacity:1;stroke-miterlimit:3.25;" d="M 283.980469 91.394531 L 196.65625 62.902344 L 195.539063 66.644531 Z M 283.980469 91.394531 " transform="matrix(1,0,0,1,-74,-13)"/>
<path style="fill-rule:nonzero;fill:rgb(84.999084%,84.999084%,84.999084%);fill-opacity:0.6;stroke-width:1;stroke-linecap:square;stroke-linejoin:miter;stroke:rgb(50%,50%,50%);stroke-opacity:1;stroke-miterlimit:3.25;" d="M 195.171875 64.855469 L 196.65625 62.902344 L 138.773438 38.773438 Z M 195.171875 64.855469 " transform="matrix(1,0,0,1,-74,-13)"/>
<path style="fill-rule:nonzero;fill:rgb(84.999084%,84.999084%,84.999084%);fill-opacity:0.6;stroke-width:1;stroke-linecap:square;stroke-linejoin:miter;stroke:rgb(50%,50%,50%);stroke-opacity:1;stroke-miterlimit:3.25;" d="M 199.816406 112.796875 L 275.75 170.339844 L 285.886719 134.636719 Z M 199.816406 112.796875 " transform="matrix(1,0,0,1,-74,-13)"/>
<path style="fill-rule:nonzero;fill:rgb(84.999084%,84.999084%,84.999084%);fill-opacity:0.6;stroke-width:1;stroke-linecap:square;stroke-linejoin:miter;stroke:rgb(50%,50%,50%);stroke-opacity:1;stroke-miterlimit:3.25;" d="M 195.539063 66.644531 L 121.714844 116.769531 L 199.816406 112.796875 Z M 195.539063 66.644531 " transform="matrix(1,0,0,1,-74,-13)"/>
<path style="fill-rule:nonzero;fill:rgb(84.999084%,84.999084%,84.999084%);fill-opacity:0.6;stroke-width:1;stroke-linecap:square;stroke-linejoin:miter;stroke:rgb(50%,50%,50%);stroke-opacity:1;stroke-miterlimit:3.25;" d="M 216.394531 203.546875 L 275.75 170.339844 L 199.816406 112.796875 Z M 216.394531 203.546875 " transform="matrix(1,0,0,1,-74,-13)"/>
<path style="fill-rule:nonzero;fill:rgb(84.999084%,84.999084%,84.999084%);fill-opacity:0.6;stroke-width:1;stroke-linecap:square;stroke-linejoin:miter;stroke:rgb(50%,50%,50%);stroke-opacity:1;stroke-miterlimit:3.25;" d="M 138.773438 38.773438 L 196.65625 62.902344 L 370.589844 52.628906 Z M 138.773438 38.773438 " transform="matrix(1,0,0,1,-74,-13)"/>
<path style="fill-rule:nonzero;fill:rgb(84.999084%,84.999084%,84.999084%);fill-opacity:0.6;stroke-width:1;stroke-linecap:square;stroke-linejoin:miter;stroke:rgb(50%,50%,50%);stroke-opacity:1;stroke-miterlimit:3.25;" d="M 281.859375 295.910156 L 345.65625 271.070313 L 275.75 170.339844 Z M 281.859375 295.910156 " transform="matrix(1,0,0,1,-74,-13)"/>
<path style="fill-rule:nonzero;fill:rgb(84.999084%,84.999084%,84.999084%);fill-opacity:0.6;stroke-width:1;stroke-linecap:square;stroke-linejoin:miter;stroke:rgb(50%,50%,50%);stroke-opacity:1;stroke-miterlimit:3.25;" d="M 281.957031 296.054688 L 282.121094 296.054688 L 282.058594 296.019531 Z M 281.957031 296.054688 " transform="matrix(1,0,0,1,-74,-13)"/>
<path style="fill-rule:nonzero;fill:rgb(84.999084%,84.999084%,84.999084%);fill-opacity:0.6;stroke-width:1;stroke-linecap:square;stroke-linejoin:miter;stroke:rgb(50%,50%,50%);stroke-opacity:1;stroke-miterlimit:3.25;" d="M 282.121094 296.054688 L 281.957031 296.054688 L 209.203125 296.617188 Z M 282.121094 296.054688 " transform="matrix(1,0,0,1,-74,-13)"/>
<path style="fill-rule:nonzero;fill:rgb(84.999084%,84.999084%,84.999084%);fill-opacity:0.6;stroke-width:1;stroke-linecap:square;stroke-linejoin:miter;stroke:rgb(50%,50%,50%);stroke-opacity:1;stroke-miterlimit:3.25;" d="M 282.058594 296.019531 L 282.207031 296.027344 L 281.859375 295.910156 Z M 282.058594 296.019531 " transform="matrix(1,0,0,1,-74,-13)"/>
<path style="fill-rule:nonzero;fill:rgb(84.999084%,84.999084%,84.999084%);fill-opacity:0.6;stroke-width:1;stroke-linecap:square;stroke-linejoin:miter;stroke:rgb(50%,50%,50%);stroke-opacity:1;stroke-miterlimit:3.25;" d="M 281.859375 295.910156 L 281.957031 296.054688 L 282.058594 296.019531 Z M 281.859375 295.910156 " transform="matrix(1,0,0,1,-74,-13)"/>
<path style="fill-rule:nonzero;fill:rgb(84.999084%,84.999084%,84.999084%);fill-opacity:0.6;stroke-width:1;stroke-linecap:square;stroke-linejoin:miter;stroke:rgb(50%,50%,50%);stroke-opacity:1;stroke-miterlimit:3.25;" d="M 282.121094 296.054688 L 282.207031 296.027344 L 282.058594 296.019531 Z M 282.121094 296.054688 " transform="matrix(1,0,0,1,-74,-13)"/>
<path style="fill-rule:nonzero;fill:rgb(84.999084%,84.999084%,84.999084%);fill-opacity:0.6;stroke-width:1;stroke-linecap:square;stroke-linejoin:miter;stroke:rgb(50%,50%,50%);stroke-opacity:1;stroke-miterlimit:3.25;" d="M 281.957031 296.054688 L 281.867188 296 L 281.753906 296.039063 Z M 281.957031 296.054688 " transform="matrix(1,0,0,1,-74,-13)"/>
<path style="fill-rule:nonzero;fill:rgb(84.999084%,84.999084%,84.999084%);fill-opacity:0.6;stroke-width:1;stroke-linecap:square;stroke-linejoin:miter;stroke:rgb(50%,50%,50%);stroke-opacity:1;stroke-miterlimit:3.25;" d="M 282.207031 296.027344 L 347.855469 285.546875 L 345.65625 271.070313 Z M 282.207031 296.027344 " transform="matrix(1,0,0,1,-74,-13)"/>
<path style="fill-rule:nonzero;fill:rgb(84.999084%,84.999084%,84.999084%);fill-opacity:0.6;stroke-width:1;stroke-linecap:square;stroke-linejoin:miter;stroke:rgb(50%,50%,50%);stroke-opacity:1;stroke-miterlimit:3.25;" d="M 347.855469 285.546875 L 282.207031 296.027344 L 282.121094 296.054688 Z M 347.855469 285.546875 " transform="matrix(1,0,0,1,-74,-13)"/>
<path style="fill-rule:nonzero;fill:rgb(84.999084%,84.999084%,84.999084%);fill-opacity:0.6;stroke-width:1;stroke-linecap:square;stroke-linejoin:miter;stroke:rgb(50%,50%,50%);stroke-opacity:1;stroke-miterlimit:3.25;" d="M 398.199219 205.152344 L 345.65625 271.070313 L 346.800781 271.332031 Z M 398.199219 205.152344 " transform="matrix(1,0,0,1,-74,-13)"/>
<path style="fill-rule:nonzero;fill:rgb(84.999084%,84.999084%,84.999084%);fill-opacity:0.6;stroke-width:1;stroke-linecap:square;stroke-linejoin:miter;stroke:rgb(50%,50%,50%);stroke-opacity:1;stroke-miterlimit:3.25;" d="M 346.800781 271.332031 L 345.65625 271.070313 L 347.855469 285.546875 Z M 346.800781 271.332031 " transform="matrix(1,0,0,1,-74,-13)"/>
<path style="fill-rule:nonzero;fill:rgb(84.999084%,84.999084%,84.999084%);fill-opacity:0.6;stroke-width:1;stroke-linecap:square;stroke-linejoin:miter;stroke:rgb(50%,50%,50%);stroke-opacity:1;stroke-miterlimit:3.25;" d="M 411.65625 272.84375 L 346.800781 271.332031 L 347.855469 285.546875 Z M 411.65625 272.84375 " transform="matrix(1,0,0,1,-74,-13)"/>
<path style="fill-rule:nonzero;fill:rgb(84.999084%,84.999084%,84.999084%);fill-opacity:0.6;stroke-width:1;stroke-linecap:square;stroke-linejoin:miter;stroke:rgb(50%,50%,50%);stroke-opacity:1;stroke-miterlimit:3.25;" d="M 398.199219 205.152344 L 346.800781 271.332031 L 411.65625 272.84375 Z M 398.199219 205.152344 " transform="matrix(1,0,0,1,-74,-13)"/>
<path style="fill-rule:nonzero;fill:rgb(84.999084%,84.999084%,84.999084%);fill-opacity:0.6;stroke-width:1;stroke-linecap:square;stroke-linejoin:miter;stroke:rgb(50%,50%,50%);stroke-opacity:1;stroke-miterlimit:3.25;" d="M 345.65625 271.070313 L 281.859375 295.910156 L 282.207031 296.027344 Z M 345.65625 271.070313 " transform="matrix(1,0,0,1,-74,-13)"/>
<path style="fill-rule:nonzero;fill:rgb(84.999084%,84.999084%,84.999084%);fill-opacity:0.6;stroke-width:1;stroke-linecap:square;stroke-linejoin:miter;stroke:rgb(50%,50%,50%);stroke-opacity:1;stroke-miterlimit:3.25;" d="M 398.199219 205.152344 L 275.75 170.339844 L 345.65625 271.070313 Z M 398.199219 205.152344 " transform="matrix(1,0,0,1,-74,-13)"/>
<path style="fill-rule:nonzero;fill:rgb(84.999084%,84.999084%,84.999084%);fill-opacity:0.6;stroke-width:1;stroke-linecap:square;stroke-linejoin:miter;stroke:rgb(50%,50%,50%);stroke-opacity:1;stroke-miterlimit:3.25;" d="M 285.886719 134.636719 L 286.078125 134.367188 L 284.082031 91.664063 Z M 285.886719 134.636719 " transform="matrix(1,0,0,1,-74,-13)"/>
<path style="fill-rule:nonzero;fill:rgb(84.999084%,84.999084%,84.999084%);fill-opacity:0.6;stroke-width:1;stroke-linecap:square;stroke-linejoin:miter;stroke:rgb(50%,50%,50%);stroke-opacity:1;stroke-miterlimit:3.25;" d="M 370.589844 52.628906 L 286.078125 134.367188 L 407.21875 122.214844 Z M 370.589844 52.628906 " transform="matrix(1,0,0,1,-74,-13)"/>
<path style="fill-rule:nonzero;fill:rgb(84.999084%,84.999084%,84.999084%);fill-opacity:0.6;stroke-width:1;stroke-linecap:square;stroke-linejoin:miter;stroke:rgb(50%,50%,50%);stroke-opacity:1;stroke-miterlimit:3.25;" d="M 283.980469 91.394531 L 284.082031 91.664063 L 370.589844 52.628906 Z M 283.980469 91.394531 " transform="matrix(1,0,0,1,-74,-13)"/>
<path style="fill-rule:nonzero;fill:rgb(84.999084%,84.999084%,84.999084%);fill-opacity:0.6;stroke-width:1;stroke-linecap:square;stroke-linejoin:miter;stroke:rgb(50%,50%,50%);stroke-opacity:1;stroke-miterlimit:3.25;" d="M 283.980469 91.394531 L 199.816406 112.796875 L 284.082031 91.664063 Z M 283.980469 91.394531 " transform="matrix(1,0,0,1,-74,-13)"/>
<path style="fill-rule:nonzero;fill:rgb(84.999084%,84.999084%,84.999084%);fill-opacity:0.6;stroke-width:1;stroke-linecap:square;stroke-linejoin:miter;stroke:rgb(50%,50%,50%);stroke-opacity:1;stroke-miterlimit:3.25;" d="M 370.589844 52.628906 L 284.082031 91.664063 L 286.078125 134.367188 Z M 370.589844 52.628906 " transform="matrix(1,0,0,1,-74,-13)"/>
<path style="fill-rule:nonzero;fill:rgb(84.999084%,84.999084%,84.999084%);fill-opacity:0.6;stroke-width:1;stroke-linecap:square;stroke-linejoin:miter;stroke:rgb(50%,50%,50%);stroke-opacity:1;stroke-miterlimit:3.25;" d="M 283.980469 91.394531 L 370.589844 52.628906 L 196.65625 62.902344 Z M 283.980469 91.394531 " transform="matrix(1,0,0,1,-74,-13)"/>
<path style="fill-rule:nonzero;fill:rgb(84.999084%,84.999084%,84.999084%);fill-opacity:0.6;stroke-width:1;stroke-linecap:square;stroke-linejoin:miter;stroke:rgb(50%,50%,50%);stroke-opacity:1;stroke-miterlimit:3.25;" d="M 285.886719 134.636719 L 275.75 170.339844 L 286.078125 134.367188 Z M 285.886719 134.636719 " transform="matrix(1,0,0,1,-74,-13)"/>
<path style="fill-rule:nonzero;fill:rgb(84.999084%,84.999084%,84.999084%);fill-opacity:0.6;stroke-width:1;stroke-linecap:square;stroke-linejoin:miter;stroke:rgb(50%,50%,50%);stroke-opacity:1;stroke-miterlimit:3.25;" d="M 199.816406 112.796875 L 285.886719 134.636719 L 284.082031 91.664063 Z M 199.816406 112.796875 " transform="matrix(1,0,0,1,-74,-13)"/>
<path style="fill-rule:nonzero;fill:rgb(84.999084%,84.999084%,84.999084%);fill-opacity:0.6;stroke-width:1;stroke-linecap:square;stroke-linejoin:miter;stroke:rgb(50%,50%,50%);stroke-opacity:1;stroke-miterlimit:3.25;" d="M 398.199219 205.152344 L 407.21875 122.214844 L 286.078125 134.367188 Z M 398.199219 205.152344 " transform="matrix(1,0,0,1,-74,-13)"/>
<path style="fill-rule:nonzero;fill:rgb(84.999084%,84.999084%,84.999084%);fill-opacity:0.6;stroke-width:1;stroke-linecap:square;stroke-linejoin:miter;stroke:rgb(50%,50%,50%);stroke-opacity:1;stroke-miterlimit:3.25;" d="M 407.21875 122.214844 L 398.199219 205.152344 L 413.824219 118.371094 Z M 407.21875 122.214844 " transform="matrix(1,0,0,1,-74,-13)"/>
<path style="fill-rule:nonzero;fill:rgb(84.999084%,84.999084%,84.999084%);fill-opacity:0.6;stroke-width:1;stroke-linecap:square;stroke-linejoin:miter;stroke:rgb(50%,50%,50%);stroke-opacity:1;stroke-miterlimit:3.25;" d="M 412.523438 112.109375 L 413.425781 118.128906 L 413.824219 118.371094 Z M 412.523438 112.109375 " transform="matrix(1,0,0,1,-74,-13)"/>
<path style="fill-rule:nonzero;fill:rgb(84.999084%,84.999084%,84.999084%);fill-opacity:0.6;stroke-width:1;stroke-linecap:square;stroke-linejoin:miter;stroke:rgb(50%,50%,50%);stroke-opacity:1;stroke-miterlimit:3.25;" d="M 413.425781 118.128906 L 412.523438 112.109375 L 407.21875 122.214844 Z M 413.425781 118.128906 " transform="matrix(1,0,0,1,-74,-13)"/>
<path style="fill-rule:nonzero;fill:rgb(84.999084%,84.999084%,84.999084%);fill-opacity:0.6;stroke-width:1;stroke-linecap:square;stroke-linejoin:miter;stroke:rgb(50%,50%,50%);stroke-opacity:1;stroke-miterlimit:3.25;" d="M 413.824219 118.371094 L 413.425781 118.128906 L 407.21875 122.214844 Z M 413.824219 118.371094 " transform="matrix(1,0,0,1,-74,-13)"/>
<path style="fill-rule:nonzero;fill:rgb(84.999084%,84.999084%,84.999084%);fill-opacity:0.6;stroke-width:1;stroke-linecap:square;stroke-linejoin:miter;stroke:rgb(50%,50%,50%);stroke-opacity:1;stroke-miterlimit:3.25;" d="M 398.199219 205.152344 L 411.65625 272.84375 L 413.824219 118.371094 Z M 398.199219 205.152344 " transform="matrix(1,0,0,1,-74,-13)"/>
<path style="fill-rule:nonzero;fill:rgb(84.999084%,84.999084%,84.999084%);fill-opacity:0.6;stroke-width:1;stroke-linecap:square;stroke-linejoin:miter;stroke:rgb(50%,50%,50%);stroke-opacity:1;stroke-miterlimit:3.25;" d="M 407.21875 122.214844 L 412.523438 112.109375 L 370.589844 52.628906 Z M 407.21875 122.214844 " transform="matrix(1,0,0,1,-74,-13)"/>
<path style="fill-rule:nonzero;fill:rgb(84.999084%,84.999084%,84.999084%);fill-opacity:0.6;stroke-width:1;stroke-linecap:square;stroke-linejoin:miter;stroke:rgb(50%,50%,50%);stroke-opacity:1;stroke-miterlimit:3.25;" d="M 398.199219 205.152344 L 286.078125 134.367188 L 275.75 170.339844 Z M 398.199219 205.152344 " transform="matrix(1,0,0,1,-74,-13)"/>
<path style="fill-rule:nonzero;fill:rgb(84.999084%,84.999084%,84.999084%);fill-opacity:0.6;stroke-width:1;stroke-linecap:square;stroke-linejoin:miter;stroke:rgb(50%,50%,50%);stroke-opacity:1;stroke-miterlimit:3.25;" d="M 281.859375 295.910156 L 281.867188 296 L 281.957031 296.054688 Z M 281.859375 295.910156 " transform="matrix(1,0,0,1,-74,-13)"/>
<path style=" stroke:none;fill-rule:evenodd;fill:rgb(99.998474%,0%,0%);fill-opacity:0.6;" d="M 136.789063 284 C 136.789063 283.523438 136.601563 283.070313 136.265625 282.734375 C 135.929688 282.398438 135.476563 282.210938 135 282.210938 C 134.523438 282.210938 134.070313 282.398438 133.734375 282.734375 C 133.398438 283.070313 133.210938 283.523438 133.210938 284 C 133.210938 284.476563 133.398438 284.929688 133.734375 285.265625 C 134.070313 285.601563 134.523438 285.789063 135 285.789063 C 135.476563 285.789063 135.929688 285.601563 136.265625 285.265625 C 136.601563 284.929688 136.789063 284.476563 136.789063 284 Z M 136.789063 284 "/>
<path style=" stroke:none;fill-rule:evenodd;fill:rgb(99.998474%,0%,0%);fill-opacity:0.6;" d="M 140.789063 283 C 140.789063 282.523438 140.601563 282.070313 140.265625 281.734375 C 139.929688 281.398438 139.476563 281.210938 139 281.210938 C 138.523438 281.210938 138.070313 281.398438 137.734375 281.734375 C 137.398438 282.070313 137.210938 282.523438 137.210938 283 C 137.210938 283.476563 137.398438 283.929688 137.734375 284.265625 C 138.070313 284.601563 138.523438 284.789063 139 284.789063 C 139.476563 284.789063 139.929688 284.601563 140.265625 284.265625 C 140.601563 283.929688 140.789063 283.476563 140.789063 283 Z M 140.789063 283 "/>
<path style=" stroke:none;fill-rule:evenodd;fill:rgb(99.998474%,0%,0%);fill-opacity:0.6;" d="M 136.789063 283 C 136.789063 282.523438 136.601563 282.070313 136.265625 281.734375 C 135.929688 281.398438 135.476563 281.210938 135 281.210938 C 134.523438 281.210938 134.070313 281.398438 133.734375 281.734375 C 133.398438 282.070313 133.210938 282.523438 133.210938 283 C 133.210938 283.476563 133.398438 283.929688 133.734375 284.265625 C 134.070313 284.601563 134.523438 284.789063 135 284.789063 C 135.476563 284.789063 135.929688 284.601563 136.265625 284.265625 C 136.601563 283.929688 136.789063 283.476563 136.789063 283 Z M 136.789063 283 "/>
<path style=" stroke:none;fill-rule:evenodd;fill:rgb(99.998474%,0%,0%);fill-opacity:0.6;" d="M 209.789063 283 C 209.789063 282.523438 209.601563 282.070313 209.265625 281.734375 C 208.929688 281.398438 208.476563 281.210938 208 281.210938 C 207.523438 281.210938 207.070313 281.398438 206.734375 281.734375 C 206.398438 282.070313 206.210938 282.523438 206.210938 283 C 206.210938 283.476563 206.398438 283.929688 206.734375 284.265625 C 207.070313 284.601563 207.523438 284.789063 208 284.789063 C 208.476563 284.789063 208.929688 284.601563 209.265625 284.265625 C 209.601563 283.929688 209.789063 283.476563 209.789063 283 Z M 209.789063 283 "/>
<path style=" stroke:none;fill-rule:evenodd;fill:rgb(99.998474%,0%,0%);fill-opacity:0.6;" d="M 209.789063 283 C 209.789063 282.523438 209.601563 282.070313 209.265625 281.734375 C 208.929688 281.398438 208.476563 281.210938 208 281.210938 C 207.523438 281.210938 207.070313 281.398438 206.734375 281.734375 C 206.398438 282.070313 206.210938 282.523438 206.210938 283 C 206.210938 283.476563 206.398438 283.929688 206.734375 284.265625 C 207.070313 284.601563 207.523438 284.789063 208 284.789063 C 208.476563 284.789063 208.929688 284.601563 209.265625 284.265625 C 209.601563 283.929688 209.789063 283.476563 209.789063 283 Z M 209.789063 283 "/>
<path style=" stroke:none;fill-rule:evenodd;fill:rgb(99.998474%,0%,0%);fill-opacity:0.6;" d="M 209.789063 283 C 209.789063 282.523438 209.601563 282.070313 209.265625 281.734375 C 208.929688 281.398438 208.476563 281.210938 208 281.210938 C 207.523438 281.210938 207.070313 281.398438 206.734375 281.734375 C 206.398438 282.070313 206.210938 282.523438 206.210938 283 C 206.210938 283.476563 206.398438 283.929688 206.734375 284.265625 C 207.070313 284.601563 207.523438 284.789063 208 284.789063 C 208.476563 284.789063 208.929688 284.601563 209.265625 284.265625 C 209.601563 283.929688 209.789063 283.476563 209.789063 283 Z M 209.789063 283 "/>
<path style=" stroke:none;fill-rule:evenodd;fill:rgb(99.998474%,0%,0%);fill-opacity:0.6;" d="M 209.789063 283 C 209.789063 282.523438 209.601563 282.070313 209.265625 281.734375 C 208.929688 281.398438 208.476563 281.210938 208 281.210938 C 207.523438 281.210938 207.070313 281.398438 206.734375 281.734375 C 206.398438 282.070313 206.210938 282.523438 206.210938 283 C 206.210938 283.476563 206.398438 283.929688 206.734375 284.265625 C 207.070313 284.601563 207.523438 284.789063 208 284.789063 C 208.476563 284.789063 208.929688 284.601563 209.265625 284.265625 C 209.601563 283.929688 209.789063 283.476563 209.789063 283 Z M 209.789063 283 "/>
<path style=" stroke:none;fill-rule:evenodd;fill:rgb(99.998474%,0%,0%);fill-opacity:0.6;" d="M 209.789063 283 C 209.789063 282.523438 209.601563 282.070313 209.265625 281.734375 C 208.929688 281.398438 208.476563 281.210938 208 281.210938 C 207.523438 281.210938 207.070313 281.398438 206.734375 281.734375 C 206.398438 282.070313 206.210938 282.523438 206.210938 283 C 206.210938 283.476563 206.398438 283.929688 206.734375 284.265625 C 207.070313 284.601563 207.523438 284.789063 208 284.789063 C 208.476563 284.789063 208.929688 284.601563 209.265625 284.265625 C 209.601563 283.929688 209.789063 283.476563 209.789063 283 Z M 209.789063 283 "/>
<path style=" stroke:none;fill-rule:evenodd;fill:rgb(99.998474%,0%,0%);fill-opacity:0.6;" d="M 209.789063 283 C 209.789063 282.523438 209.601563 282.070313 209.265625 281.734375 C 208.929688 281.398438 208.476563 281.210938 208 281.210938 C 207.523438 281.210938 207.070313 281.398438 206.734375 281.734375 C 206.398438 282.070313 206.210938 282.523438 206.210938 283 C 206.210938 283.476563 206.398438 283.929688 206.734375 284.265625 C 207.070313 284.601563 207.523438 284.789063 208 284.789063 C 208.476563 284.789063 208.929688 284.601563 209.265625 284.265625 C 209.601563 283.929688 209.789063 283.476563 209.789063 283 Z M 209.789063 283 "/>
<path style=" stroke:none;fill-rule:evenodd;fill:rgb(99.998474%,0%,0%);fill-opacity:0.6;" d="M 209.789063 283 C 209.789063 282.523438 209.601563 282.070313 209.265625 281.734375 C 208.929688 281.398438 208.476563 281.210938 208 281.210938 C 207.523438 281.210938 207.070313 281.398438 206.734375 281.734375 C 206.398438 282.070313 206.210938 282.523438 206.210938 283 C 206.210938 283.476563 206.398438 283.929688 206.734375 284.265625 C 207.070313 284.601563 207.523438 284.789063 208 284.789063 C 208.476563 284.789063 208.929688 284.601563 209.265625 284.265625 C 209.601563 283.929688 209.789063 283.476563 209.789063 283 Z M 209.789063 283 "/>
<path style=" stroke:none;fill-rule:evenodd;fill:rgb(99.998474%,0%,0%);fill-opacity:0.6;" d="M 209.789063 283 C 209.789063 282.523438 209.601563 282.070313 209.265625 281.734375 C 208.929688 281.398438 208.476563 281.210938 208 281.210938 C 207.523438 281.210938 207.070313 281.398438 206.734375 281.734375 C 206.398438 282.070313 206.210938 282.523438 206.210938 283 C 206.210938 283.476563 206.398438 283.929688 206.734375 284.265625 C 207.070313 284.601563 207.523438 284.789063 208 284.789063 C 208.476563 284.789063 208.929688 284.601563 209.265625 284.265625 C 209.601563 283.929688 209.789063 283.476563 209.789063 283 Z M 209.789063 283 "/>
<path style=" stroke:none;fill-rule:evenodd;fill:rgb(99.998474%,0%,0%);fill-opacity:0.6;" d="M 275.789063 273 C 275.789063 272.523438 275.601563 272.070313 275.265625 271.734375 C 274.929688 271.398438 274.476563 271.210938 274 271.210938 C 273.523438 271.210938 273.070313 271.398438 272.734375 271.734375 C 272.398438 272.070313 272.210938 272.523438 272.210938 273 C 272.210938 273.476563 272.398438 273.929688 272.734375 274.265625 C 273.070313 274.601563 273.523438 274.789063 274 274.789063 C 274.476563 274.789063 274.929688 274.601563 275.265625 274.265625 C 275.601563 273.929688 275.789063 273.476563 275.789063 273 Z M 275.789063 273 "/>
<path style=" stroke:none;fill-rule:evenodd;fill:rgb(99.998474%,0%,0%);fill-opacity:0.6;" d="M 339.789063 260 C 339.789063 259.523438 339.601563 259.070313 339.265625 258.734375 C 338.929688 258.398438 338.476563 258.210938 338 258.210938 C 337.523438 258.210938 337.070313 258.398438 336.734375 258.734375 C 336.398438 259.070313 336.210938 259.523438 336.210938 260 C 336.210938 260.476563 336.398438 260.929688 336.734375 261.265625 C 337.070313 261.601563 337.523438 261.789063 338 261.789063 C 338.476563 261.789063 338.929688 261.601563 339.265625 261.265625 C 339.601563 260.929688 339.789063 260.476563 339.789063 260 Z M 339.789063 260 "/>
<path style=" stroke:none;fill-rule:evenodd;fill:rgb(99.998474%,0%,0%);fill-opacity:0.6;" d="M 274.789063 258 C 274.789063 257.523438 274.601563 257.070313 274.265625 256.734375 C 273.929688 256.398438 273.476563 256.210938 273 256.210938 C 272.523438 256.210938 272.070313 256.398438 271.734375 256.734375 C 271.398438 257.070313 271.210938 257.523438 271.210938 258 C 271.210938 258.476563 271.398438 258.929688 271.734375 259.265625 C 272.070313 259.601563 272.523438 259.789063 273 259.789063 C 273.476563 259.789063 273.929688 259.601563 274.265625 259.265625 C 274.601563 258.929688 274.789063 258.476563 274.789063 258 Z M 274.789063 258 "/>
<path style=" stroke:none;fill-rule:evenodd;fill:rgb(99.998474%,0%,0%);fill-opacity:0.6;" d="M 273.789063 258 C 273.789063 257.523438 273.601563 257.070313 273.265625 256.734375 C 272.929688 256.398438 272.476563 256.210938 272 256.210938 C 271.523438 256.210938 271.070313 256.398438 270.734375 256.734375 C 270.398438 257.070313 270.210938 257.523438 270.210938 258 C 270.210938 258.476563 270.398438 258.929688 270.734375 259.265625 C 271.070313 259.601563 271.523438 259.789063 272 259.789063 C 272.476563 259.789063 272.929688 259.601563 273.265625 259.265625 C 273.601563 258.929688 273.789063 258.476563 273.789063 258 Z M 273.789063 258 "/>
<path style=" stroke:none;fill-rule:evenodd;fill:rgb(99.998474%,0%,0%);fill-opacity:0.6;" d="M 106.789063 232 C 106.789063 231.523438 106.601563 231.070313 106.265625 230.734375 C 105.929688 230.398438 105.476563 230.210938 105 230.210938 C 104.523438 230.210938 104.070313 230.398438 103.734375 230.734375 C 103.398438 231.070313 103.210938 231.523438 103.210938 232 C 103.210938 232.476563 103.398438 232.929688 103.734375 233.265625 C 104.070313 233.601563 104.523438 233.789063 105 233.789063 C 105.476563 233.789063 105.929688 233.601563 106.265625 233.265625 C 106.601563 232.929688 106.789063 232.476563 106.789063 232 Z M 106.789063 232 "/>
<path style=" stroke:none;fill-rule:evenodd;fill:rgb(99.998474%,0%,0%);fill-opacity:0.6;" d="M 143.789063 197 C 143.789063 196.523438 143.601563 196.070313 143.265625 195.734375 C 142.929688 195.398438 142.476563 195.210938 142 195.210938 C 141.523438 195.210938 141.070313 195.398438 140.734375 195.734375 C 140.398438 196.070313 140.210938 196.523438 140.210938 197 C 140.210938 197.476563 140.398438 197.929688 140.734375 198.265625 C 141.070313 198.601563 141.523438 198.789063 142 198.789063 C 142.476563 198.789063 142.929688 198.601563 143.265625 198.265625 C 143.601563 197.929688 143.789063 197.476563 143.789063 197 Z M 143.789063 197 "/>
<path style=" stroke:none;fill-rule:evenodd;fill:rgb(99.998474%,0%,0%);fill-opacity:0.6;" d="M 325.789063 192 C 325.789063 191.523438 325.601563 191.070313 325.265625 190.734375 C 324.929688 190.398438 324.476563 190.210938 324 190.210938 C 323.523438 190.210938 323.070313 190.398438 322.734375 190.734375 C 322.398438 191.070313 322.210938 191.523438 322.210938 192 C 322.210938 192.476563 322.398438 192.929688 322.734375 193.265625 C 323.070313 193.601563 323.523438 193.789063 324 193.789063 C 324.476563 193.789063 324.929688 193.601563 325.265625 193.265625 C 325.601563 192.929688 325.789063 192.476563 325.789063 192 Z M 325.789063 192 "/>
<path style=" stroke:none;fill-rule:evenodd;fill:rgb(99.998474%,0%,0%);fill-opacity:0.6;" d="M 143.789063 191 C 143.789063 190.523438 143.601563 190.070313 143.265625 189.734375 C 142.929688 189.398438 142.476563 189.210938 142 189.210938 C 141.523438 189.210938 141.070313 189.398438 140.734375 189.734375 C 140.398438 190.070313 140.210938 190.523438 140.210938 191 C 140.210938 191.476563 140.398438 191.929688 140.734375 192.265625 C 141.070313 192.601563 141.523438 192.789063 142 192.789063 C 142.476563 192.789063 142.929688 192.601563 143.265625 192.265625 C 143.601563 191.929688 143.789063 191.476563 143.789063 191 Z M 143.789063 191 "/>
<path style=" stroke:none;fill-rule:evenodd;fill:rgb(99.998474%,0%,0%);fill-opacity:0.6;" d="M 203.789063 157 C 203.789063 156.523438 203.601563 156.070313 203.265625 155.734375 C 202.929688 155.398438 202.476563 155.210938 202 155.210938 C 201.523438 155.210938 201.070313 155.398438 200.734375 155.734375 C 200.398438 156.070313 200.210938 156.523438 200.210938 157 C 200.210938 157.476563 200.398438 157.929688 200.734375 158.265625 C 201.070313 158.601563 201.523438 158.789063 202 158.789063 C 202.476563 158.789063 202.929688 158.601563 203.265625 158.265625 C 203.601563 157.929688 203.789063 157.476563 203.789063 157 Z M 203.789063 157 "/>
<path style=" stroke:none;fill-rule:evenodd;fill:rgb(99.998474%,0%,0%);fill-opacity:0.6;" d="M 213.789063 122 C 213.789063 121.523438 213.601563 121.070313 213.265625 120.734375 C 212.929688 120.398438 212.476563 120.210938 212 120.210938 C 211.523438 120.210938 211.070313 120.398438 210.734375 120.734375 C 210.398438 121.070313 210.210938 121.523438 210.210938 122 C 210.210938 122.476563 210.398438 122.929688 210.734375 123.265625 C 211.070313 123.601563 211.523438 123.789063 212 123.789063 C 212.476563 123.789063 212.929688 123.601563 213.265625 123.265625 C 213.601563 122.929688 213.789063 122.476563 213.789063 122 Z M 213.789063 122 "/>
<path style=" stroke:none;fill-rule:evenodd;fill:rgb(99.998474%,0%,0%);fill-opacity:0.6;" d="M 213.789063 121 C 213.789063 120.523438 213.601563 120.070313 213.265625 119.734375 C 212.929688 119.398438 212.476563 119.210938 212 119.210938 C 211.523438 119.210938 211.070313 119.398438 210.734375 119.734375 C 210.398438 120.070313 210.210938 120.523438 210.210938 121 C 210.210938 121.476563 210.398438 121.929688 210.734375 122.265625 C 211.070313 122.601563 211.523438 122.789063 212 122.789063 C 212.476563 122.789063 212.929688 122.601563 213.265625 122.265625 C 213.601563 121.929688 213.789063 121.476563 213.789063 121 Z M 213.789063 121 "/>
<path style=" stroke:none;fill-rule:evenodd;fill:rgb(99.998474%,0%,0%);fill-opacity:0.6;" d="M 334.789063 109 C 334.789063 108.523438 334.601563 108.070313 334.265625 107.734375 C 333.929688 107.398438 333.476563 107.210938 333 107.210938 C 332.523438 107.210938 332.070313 107.398438 331.734375 107.734375 C 331.398438 108.070313 331.210938 108.523438 331.210938 109 C 331.210938 109.476563 331.398438 109.929688 331.734375 110.265625 C 332.070313 110.601563 332.523438 110.789063 333 110.789063 C 333.476563 110.789063 333.929688 110.601563 334.265625 110.265625 C 334.601563 109.929688 334.789063 109.476563 334.789063 109 Z M 334.789063 109 "/>
<path style=" stroke:none;fill-rule:evenodd;fill:rgb(99.998474%,0%,0%);fill-opacity:0.6;" d="M 341.789063 105 C 341.789063 104.523438 341.601563 104.070313 341.265625 103.734375 C 340.929688 103.398438 340.476563 103.210938 340 103.210938 C 339.523438 103.210938 339.070313 103.398438 338.734375 103.734375 C 338.398438 104.070313 338.210938 104.523438 338.210938 105 C 338.210938 105.476563 338.398438 105.929688 338.734375 106.265625 C 339.070313 106.601563 339.523438 106.789063 340 106.789063 C 340.476563 106.789063 340.929688 106.601563 341.265625 106.265625 C 341.601563 105.929688 341.789063 105.476563 341.789063 105 Z M 341.789063 105 "/>
<path style=" stroke:none;fill-rule:evenodd;fill:rgb(99.998474%,0%,0%);fill-opacity:0.6;" d="M 340.789063 105 C 340.789063 104.523438 340.601563 104.070313 340.265625 103.734375 C 339.929688 103.398438 339.476563 103.210938 339 103.210938 C 338.523438 103.210938 338.070313 103.398438 337.734375 103.734375 C 337.398438 104.070313 337.210938 104.523438 337.210938 105 C 337.210938 105.476563 337.398438 105.929688 337.734375 106.265625 C 338.070313 106.601563 338.523438 106.789063 339 106.789063 C 339.476563 106.789063 339.929688 106.601563 340.265625 106.265625 C 340.601563 105.929688 340.789063 105.476563 340.789063 105 Z M 340.789063 105 "/>
<path style=" stroke:none;fill-rule:evenodd;fill:rgb(99.998474%,0%,0%);fill-opacity:0.6;" d="M 49.789063 104 C 49.789063 103.523438 49.601563 103.070313 49.265625 102.734375 C 48.929688 102.398438 48.476563 102.210938 48 102.210938 C 47.523438 102.210938 47.070313 102.398438 46.734375 102.734375 C 46.398438 103.070313 46.210938 103.523438 46.210938 104 C 46.210938 104.476563 46.398438 104.929688 46.734375 105.265625 C 47.070313 105.601563 47.523438 105.789063 48 105.789063 C 48.476563 105.789063 48.929688 105.601563 49.265625 105.265625 C 49.601563 104.929688 49.789063 104.476563 49.789063 104 Z M 49.789063 104 "/>
<path style=" stroke:none;fill-rule:evenodd;fill:rgb(99.998474%,0%,0%);fill-opacity:0.6;" d="M 127.789063 100 C 127.789063 99.523438 127.601563 99.070313 127.265625 98.734375 C 126.929688 98.398438 126.476563 98.210938 126 98.210938 C 125.523438 98.210938 125.070313 98.398438 124.734375 98.734375 C 124.398438 99.070313 124.210938 99.523438 124.210938 100 C 124.210938 100.476563 124.398438 100.929688 124.734375 101.265625 C 125.070313 101.601563 125.523438 101.789063 126 101.789063 C 126.476563 101.789063 126.929688 101.601563 127.265625 101.265625 C 127.601563 100.929688 127.789063 100.476563 127.789063 100 Z M 127.789063 100 "/>
<path style=" stroke:none;fill-rule:evenodd;fill:rgb(99.998474%,0%,0%);fill-opacity:0.6;" d="M 340.789063 99 C 340.789063 98.523438 340.601563 98.070313 340.265625 97.734375 C 339.929688 97.398438 339.476563 97.210938 339 97.210938 C 338.523438 97.210938 338.070313 97.398438 337.734375 97.734375 C 337.398438 98.070313 337.210938 98.523438 337.210938 99 C 337.210938 99.476563 337.398438 99.929688 337.734375 100.265625 C 338.070313 100.601563 338.523438 100.789063 339 100.789063 C 339.476563 100.789063 339.929688 100.601563 340.265625 100.265625 C 340.601563 99.929688 340.789063 99.476563 340.789063 99 Z M 340.789063 99 "/>
<path style=" stroke:none;fill-rule:evenodd;fill:rgb(99.998474%,0%,0%);fill-opacity:0.6;" d="M 211.789063 79 C 211.789063 78.523438 211.601563 78.070313 211.265625 77.734375 C 210.929688 77.398438 210.476563 77.210938 210 77.210938 C 209.523438 77.210938 209.070313 77.398438 208.734375 77.734375 C 208.398438 78.070313 208.210938 78.523438 208.210938 79 C 208.210938 79.476563 208.398438 79.929688 208.734375 80.265625 C 209.070313 80.601563 209.523438 80.789063 210 80.789063 C 210.476563 80.789063 210.929688 80.601563 211.265625 80.265625 C 211.601563 79.929688 211.789063 79.476563 211.789063 79 Z M 211.789063 79 "/>
<path style=" stroke:none;fill-rule:evenodd;fill:rgb(99.998474%,0%,0%);fill-opacity:0.6;" d="M 211.789063 78 C 211.789063 77.523438 211.601563 77.070313 211.265625 76.734375 C 210.929688 76.398438 210.476563 76.210938 210 76.210938 C 209.523438 76.210938 209.070313 76.398438 208.734375 76.734375 C 208.398438 77.070313 208.210938 77.523438 208.210938 78 C 208.210938 78.476563 208.398438 78.929688 208.734375 79.265625 C 209.070313 79.601563 209.523438 79.789063 210 79.789063 C 210.476563 79.789063 210.929688 79.601563 211.265625 79.265625 C 211.601563 78.929688 211.789063 78.476563 211.789063 78 Z M 211.789063 78 "/>
<path style=" stroke:none;fill-rule:evenodd;fill:rgb(99.998474%,0%,0%);fill-opacity:0.6;" d="M 15.789063 64 C 15.789063 63.523438 15.601563 63.070313 15.265625 62.734375 C 14.929688 62.398438 14.476563 62.210938 14 62.210938 C 13.523438 62.210938 13.070313 62.398438 12.734375 62.734375 C 12.398438 63.070313 12.210938 63.523438 12.210938 64 C 12.210938 64.476563 12.398438 64.929688 12.734375 65.265625 C 13.070313 65.601563 13.523438 65.789063 14 65.789063 C 14.476563 65.789063 14.929688 65.601563 15.265625 65.265625 C 15.601563 64.929688 15.789063 64.476563 15.789063 64 Z M 15.789063 64 "/>
<path style=" stroke:none;fill-rule:evenodd;fill:rgb(99.998474%,0%,0%);fill-opacity:0.6;" d="M 14.789063 62 C 14.789063 61.523438 14.601563 61.070313 14.265625 60.734375 C 13.929688 60.398438 13.476563 60.210938 13 60.210938 C 12.523438 60.210938 12.070313 60.398438 11.734375 60.734375 C 11.398438 61.070313 11.210938 61.523438 11.210938 62 C 11.210938 62.476563 11.398438 62.929688 11.734375 63.265625 C 12.070313 63.601563 12.523438 63.789063 13 63.789063 C 13.476563 63.789063 13.929688 63.601563 14.265625 63.265625 C 14.601563 62.929688 14.789063 62.476563 14.789063 62 Z M 14.789063 62 "/>
<path style=" stroke:none;fill-rule:evenodd;fill:rgb(99.998474%,0%,0%);fill-opacity:0.6;" d="M 123.789063 54 C 123.789063 53.523438 123.601563 53.070313 123.265625 52.734375 C 122.929688 52.398438 122.476563 52.210938 122 52.210938 C 121.523438 52.210938 121.070313 52.398438 120.734375 52.734375 C 120.398438 53.070313 120.210938 53.523438 120.210938 54 C 120.210938 54.476563 120.398438 54.929688 120.734375 55.265625 C 121.070313 55.601563 121.523438 55.789063 122 55.789063 C 122.476563 55.789063 122.929688 55.601563 123.265625 55.265625 C 123.601563 54.929688 123.789063 54.476563 123.789063 54 Z M 123.789063 54 "/>
<path style=" stroke:none;fill-rule:evenodd;fill:rgb(99.998474%,0%,0%);fill-opacity:0.6;" d="M 122.789063 52 C 122.789063 51.523438 122.601563 51.070313 122.265625 50.734375 C 121.929688 50.398438 121.476563 50.210938 121 50.210938 C 120.523438 50.210938 120.070313 50.398438 119.734375 50.734375 C 119.398438 51.070313 119.210938 51.523438 119.210938 52 C 119.210938 52.476563 119.398438 52.929688 119.734375 53.265625 C 120.070313 53.601563 120.523438 53.789063 121 53.789063 C 121.476563 53.789063 121.929688 53.601563 122.265625 53.265625 C 122.601563 52.929688 122.789063 52.476563 122.789063 52 Z M 122.789063 52 "/>
<path style=" stroke:none;fill-rule:evenodd;fill:rgb(99.998474%,0%,0%);fill-opacity:0.6;" d="M 124.789063 50 C 124.789063 49.523438 124.601563 49.070313 124.265625 48.734375 C 123.929688 48.398438 123.476563 48.210938 123 48.210938 C 122.523438 48.210938 122.070313 48.398438 121.734375 48.734375 C 121.398438 49.070313 121.210938 49.523438 121.210938 50 C 121.210938 50.476563 121.398438 50.929688 121.734375 51.265625 C 122.070313 51.601563 122.523438 51.789063 123 51.789063 C 123.476563 51.789063 123.929688 51.601563 124.265625 51.265625 C 124.601563 50.929688 124.789063 50.476563 124.789063 50 Z M 124.789063 50 "/>
<path style=" stroke:none;fill-rule:evenodd;fill:rgb(99.998474%,0%,0%);fill-opacity:0.6;" d="M 298.789063 40 C 298.789063 39.523438 298.601563 39.070313 298.265625 38.734375 C 297.929688 38.398438 297.476563 38.210938 297 38.210938 C 296.523438 38.210938 296.070313 38.398438 295.734375 38.734375 C 295.398438 39.070313 295.210938 39.523438 295.210938 40 C 295.210938 40.476563 295.398438 40.929688 295.734375 41.265625 C 296.070313 41.601563 296.523438 41.789063 297 41.789063 C 297.476563 41.789063 297.929688 41.601563 298.265625 41.265625 C 298.601563 40.929688 298.789063 40.476563 298.789063 40 Z M 298.789063 40 "/>
<path style=" stroke:none;fill-rule:evenodd;fill:rgb(99.998474%,0%,0%);fill-opacity:0.6;" d="M 66.789063 26 C 66.789063 25.523438 66.601563 25.070313 66.265625 24.734375 C 65.929688 24.398438 65.476563 24.210938 65 24.210938 C 64.523438 24.210938 64.070313 24.398438 63.734375 24.734375 C 63.398438 25.070313 63.210938 25.523438 63.210938 26 C 63.210938 26.476563 63.398438 26.929688 63.734375 27.265625 C 64.070313 27.601563 64.523438 27.789063 65 27.789063 C 65.476563 27.789063 65.929688 27.601563 66.265625 27.265625 C 66.601563 26.929688 66.789063 26.476563 66.789063 26 Z M 66.789063 26 "/>
<path style=" stroke:none;fill-rule:evenodd;fill:rgb(99.998474%,0%,0%);fill-opacity:1;" d="M 136.5 284 C 136.5 283.601563 136.34375 283.21875 136.0625 282.9375 C 135.78125 282.65625 135.398438 282.5 135 282.5 C 134.601563 282.5 134.21875 282.65625 133.9375 282.9375 C 133.65625 283.21875 133.5 283.601563 133.5 284 C 133.5 284.398438 133.65625 284.78125 133.9375 285.0625 C 134.21875 285.34375 134.601563 285.5 135 285.5 C 135.398438 285.5 135.78125 285.34375 136.0625 285.0625 C 136.34375 284.78125 136.5 284.398438 136.5 284 Z M 136.5 284 "/>
<path style=" stroke:none;fill-rule:evenodd;fill:rgb(99.998474%,0%,0%);fill-opacity:1;" d="M 140.5 283 C 140.5 282.601563 140.34375 282.21875 140.0625 281.9375 C 139.78125 281.65625 139.398438 281.5 139 281.5 C 138.601563 281.5 138.21875 281.65625 137.9375 281.9375 C 137.65625 282.21875 137.5 282.601563 137.5 283 C 137.5 283.398438 137.65625 283.78125 137.9375 284.0625 C 138.21875 284.34375 138.601563 284.5 139 284.5 C 139.398438 284.5 139.78125 284.34375 140.0625 284.0625 C 140.34375 283.78125 140.5 283.398438 140.5 283 Z M 140.5 283 "/>
<path style=" stroke:none;fill-rule:evenodd;fill:rgb(99.998474%,0%,0%);fill-opacity:1;" d="M 136.5 283 C 136.5 282.601563 136.34375 282.21875 136.0625 281.9375 C 135.78125 281.65625 135.398438 281.5 135 281.5 C 134.601563 281.5 134.21875 281.65625 133.9375 281.9375 C 133.65625 282.21875 133.5 282.601563 133.5 283 C 133.5 283.398438 133.65625 283.78125 133.9375 284.0625 C 134.21875 284.34375 134.601563 284.5 135 284.5 C 135.398438 284.5 135.78125 284.34375 136.0625 284.0625 C 136.34375 283.78125 136.5 283.398438 136.5 283 Z M 136.5 283 "/>
<path style=" stroke:none;fill-rule:evenodd;fill:rgb(99.998474%,0%,0%);fill-opacity:1;" d="M 209.5 283 C 209.5 282.601563 209.34375 282.21875 209.0625 281.9375 C 208.78125 281.65625 208.398438 281.5 208 281.5 C 207.601563 281.5 207.21875 281.65625 206.9375 281.9375 C 206.65625 282.21875 206.5 282.601563 206.5 283 C 206.5 283.398438 206.65625 283.78125 206.9375 284.0625 C 207.21875 284.34375 207.601563 284.5 208 284.5 C 208.398438 284.5 208.78125 284.34375 209.0625 284.0625 C 209.34375 283.78125 209.5 283.398438 209.5 283 Z M 209.5 283 "/>
<path style=" stroke:none;fill-rule:evenodd;fill:rgb(99.998474%,0%,0%);fill-opacity:1;" d="M 209.5 283 C 209.5 282.601563 209.34375 282.21875 209.0625 281.9375 C 208.78125 281.65625 208.398438 281.5 208 281.5 C 207.601563 281.5 207.21875 281.65625 206.9375 281.9375 C 206.65625 282.21875 206.5 282.601563 206.5 283 C 206.5 283.398438 206.65625 283.78125 206.9375 284.0625 C 207.21875 284.34375 207.601563 284.5 208 284.5 C 208.398438 284.5 208.78125 284.34375 209.0625 284.0625 C 209.34375 283.78125 209.5 283.398438 209.5 283 Z M 209.5 283 "/>
<path style=" stroke:none;fill-rule:evenodd;fill:rgb(99.998474%,0%,0%);fill-opacity:1;" d="M 209.5 283 C 209.5 282.601563 209.34375 282.21875 209.0625 281.9375 C 208.78125 281.65625 208.398438 281.5 208 281.5 C 207.601563 281.5 207.21875 281.65625 206.9375 281.9375 C 206.65625 282.21875 206.5 282.601563 206.5 283 C 206.5 283.398438 206.65625 283.78125 206.9375 284.0625 C 207.21875 284.34375 207.601563 284.5 208 284.5 C 208.398438 284.5 208.78125 284.34375 209.0625 284.0625 C 209.34375 283.78125 209.5 283.398438 209.5 283 Z M 209.5 283 "/>
<path style=" stroke:none;fill-rule:evenodd;fill:rgb(99.998474%,0%,0%);fill-opacity:1;" d="M 209.5 283 C 209.5 282.601563 209.34375 282.21875 209.0625 281.9375 C 208.78125 281.65625 208.398438 281.5 208 281.5 C 207.601563 281.5 207.21875 281.65625 206.9375 281.9375 C 206.65625 282.21875 206.5 282.601563 206.5 283 C 206.5 283.398438 206.65625 283.78125 206.9375 284.0625 C 207.21875 284.34375 207.601563 284.5 208 284.5 C 208.398438 284.5 208.78125 284.34375 209.0625 284.0625 C 209.34375 283.78125 209.5 283.398438 209.5 283 Z M 209.5 283 "/>
<path style=" stroke:none;fill-rule:evenodd;fill:rgb(99.998474%,0%,0%);fill-opacity:1;" d="M 209.5 283 C 209.5 282.601563 209.34375 282.21875 209.0625 281.9375 C 208.78125 281.65625 208.398438 281.5 208 281.5 C 207.601563 281.5 207.21875 281.65625 206.9375 281.9375 C 206.65625 282.21875 206.5 282.601563 206.5 283 C 206.5 283.398438 206.65625 283.78125 206.9375 284.0625 C 207.21875 284.34375 207.601563 284.5 208 284.5 C 208.398438 284.5 208.78125 284.34375 209.0625 284.0625 C 209.34375 283.78125 209.5 283.398438 209.5 283 Z M 209.5 283 "/>
<path style=" stroke:none;fill-rule:evenodd;fill:rgb(99.998474%,0%,0%);fill-opacity:1;" d="M 209.5 283 C 209.5 282.601563 209.34375 282.21875 209.0625 281.9375 C 208.78125 281.65625 208.398438 281.5 208 281.5 C 207.601563 281.5 207.21875 281.65625 206.9375 281.9375 C 206.65625 282.21875 206.5 282.601563 206.5 283 C 206.5 283.398438 206.65625 283.78125 206.9375 284.0625 C 207.21875 284.34375 207.601563 284.5 208 284.5 C 208.398438 284.5 208.78125 284.34375 209.0625 284.0625 C 209.34375 283.78125 209.5 283.398438 209.5 283 Z M 209.5 283 "/>
<path style=" stroke:none;fill-rule:evenodd;fill:rgb(99.998474%,0%,0%);fill-opacity:1;" d="M 209.5 283 C 209.5 282.601563 209.34375 282.21875 209.0625 281.9375 C 208.78125 281.65625 208.398438 281.5 208 281.5 C 207.601563 281.5 207.21875 281.65625 206.9375 281.9375 C 206.65625 282.21875 206.5 282.601563 206.5 283 C 206.5 283.398438 206.65625 283.78125 206.9375 284.0625 C 207.21875 284.34375 207.601563 284.5 208 284.5 C 208.398438 284.5 208.78125 284.34375 209.0625 284.0625 C 209.34375 283.78125 209.5 283.398438 209.5 283 Z M 209.5 283 "/>
<path style=" stroke:none;fill-rule:evenodd;fill:rgb(99.998474%,0%,0%);fill-opacity:1;" d="M 209.5 283 C 209.5 282.601563 209.34375 282.21875 209.0625 281.9375 C 208.78125 281.65625 208.398438 281.5 208 281.5 C 207.601563 281.5 207.21875 281.65625 206.9375 281.9375 C 206.65625 282.21875 206.5 282.601563 206.5 283 C 206.5 283.398438 206.65625 283.78125 206.9375 284.0625 C 207.21875 284.34375 207.601563 284.5 208 284.5 C 208.398438 284.5 208.78125 284.34375 209.0625 284.0625 C 209.34375 283.78125 209.5 283.398438 209.5 283 Z M 209.5 283 "/>
<path style=" stroke:none;fill-rule:evenodd;fill:rgb(99.998474%,0%,0%);fill-opacity:1;" d="M 275.5 273 C 275.5 272.601563 275.34375 272.21875 275.0625 271.9375 C 274.78125 271.65625 274.398438 271.5 274 271.5 C 273.601563 271.5 273.21875 271.65625 272.9375 271.9375 C 272.65625 272.21875 272.5 272.601563 272.5 273 C 272.5 273.398438 272.65625 273.78125 272.9375 274.0625 C 273.21875 274.34375 273.601563 274.5 274 274.5 C 274.398438 274.5 274.78125 274.34375 275.0625 274.0625 C 275.34375 273.78125 275.5 273.398438 275.5 273 Z M 275.5 273 "/>
<path style=" stroke:none;fill-rule:evenodd;fill:rgb(99.998474%,0%,0%);fill-opacity:1;" d="M 339.5 260 C 339.5 259.601563 339.34375 259.21875 339.0625 258.9375 C 338.78125 258.65625 338.398438 258.5 338 258.5 C 337.601563 258.5 337.21875 258.65625 336.9375 258.9375 C 336.65625 259.21875 336.5 259.601563 336.5 260 C 336.5 260.398438 336.65625 260.78125 336.9375 261.0625 C 337.21875 261.34375 337.601563 261.5 338 261.5 C 338.398438 261.5 338.78125 261.34375 339.0625 261.0625 C 339.34375 260.78125 339.5 260.398438 339.5 260 Z M 339.5 260 "/>
<path style=" stroke:none;fill-rule:evenodd;fill:rgb(99.998474%,0%,0%);fill-opacity:1;" d="M 274.5 258 C 274.5 257.601563 274.34375 257.21875 274.0625 256.9375 C 273.78125 256.65625 273.398438 256.5 273 256.5 C 272.601563 256.5 272.21875 256.65625 271.9375 256.9375 C 271.65625 257.21875 271.5 257.601563 271.5 258 C 271.5 258.398438 271.65625 258.78125 271.9375 259.0625 C 272.21875 259.34375 272.601563 259.5 273 259.5 C 273.398438 259.5 273.78125 259.34375 274.0625 259.0625 C 274.34375 258.78125 274.5 258.398438 274.5 258 Z M 274.5 258 "/>
<path style=" stroke:none;fill-rule:evenodd;fill:rgb(99.998474%,0%,0%);fill-opacity:1;" d="M 273.5 258 C 273.5 257.601563 273.34375 257.21875 273.0625 256.9375 C 272.78125 256.65625 272.398438 256.5 272 256.5 C 271.601563 256.5 271.21875 256.65625 270.9375 256.9375 C 270.65625 257.21875 270.5 257.601563 270.5 258 C 270.5 258.398438 270.65625 258.78125 270.9375 259.0625 C 271.21875 259.34375 271.601563 259.5 272 259.5 C 272.398438 259.5 272.78125 259.34375 273.0625 259.0625 C 273.34375 258.78125 273.5 258.398438 273.5 258 Z M 273.5 258 "/>
<path style=" stroke:none;fill-rule:evenodd;fill:rgb(99.998474%,0%,0%);fill-opacity:1;" d="M 106.5 232 C 106.5 231.601563 106.34375 231.21875 106.0625 230.9375 C 105.78125 230.65625 105.398438 230.5 105 230.5 C 104.601563 230.5 104.21875 230.65625 103.9375 230.9375 C 103.65625 231.21875 103.5 231.601563 103.5 232 C 103.5 232.398438 103.65625 232.78125 103.9375 233.0625 C 104.21875 233.34375 104.601563 233.5 105 233.5 C 105.398438 233.5 105.78125 233.34375 106.0625 233.0625 C 106.34375 232.78125 106.5 232.398438 106.5 232 Z M 106.5 232 "/>
<path style=" stroke:none;fill-rule:evenodd;fill:rgb(99.998474%,0%,0%);fill-opacity:1;" d="M 143.5 197 C 143.5 196.601563 143.34375 196.21875 143.0625 195.9375 C 142.78125 195.65625 142.398438 195.5 142 195.5 C 141.601563 195.5 141.21875 195.65625 140.9375 195.9375 C 140.65625 196.21875 140.5 196.601563 140.5 197 C 140.5 197.398438 140.65625 197.78125 140.9375 198.0625 C 141.21875 198.34375 141.601563 198.5 142 198.5 C 142.398438 198.5 142.78125 198.34375 143.0625 198.0625 C 143.34375 197.78125 143.5 197.398438 143.5 197 Z M 143.5 197 "/>
<path style=" stroke:none;fill-rule:evenodd;fill:rgb(99.998474%,0%,0%);fill-opacity:1;" d="M 325.5 192 C 325.5 191.601563 325.34375 191.21875 325.0625 190.9375 C 324.78125 190.65625 324.398438 190.5 324 190.5 C 323.601563 190.5 323.21875 190.65625 322.9375 190.9375 C 322.65625 191.21875 322.5 191.601563 322.5 192 C 322.5 192.398438 322.65625 192.78125 322.9375 193.0625 C 323.21875 193.34375 323.601563 193.5 324 193.5 C 324.398438 193.5 324.78125 193.34375 325.0625 193.0625 C 325.34375 192.78125 325.5 192.398438 325.5 192 Z M 325.5 192 "/>
<path style=" stroke:none;fill-rule:evenodd;fill:rgb(99.998474%,0%,0%);fill-opacity:1;" d="M 143.5 191 C 143.5 190.601563 143.34375 190.21875 143.0625 189.9375 C 142.78125 189.65625 142.398438 189.5 142 189.5 C 141.601563 189.5 141.21875 189.65625 140.9375 189.9375 C 140.65625 190.21875 140.5 190.601563 140.5 191 C 140.5 191.398438 140.65625 191.78125 140.9375 192.0625 C 141.21875 192.34375 141.601563 192.5 142 192.5 C 142.398438 192.5 142.78125 192.34375 143.0625 192.0625 C 143.34375 191.78125 143.5 191.398438 143.5 191 Z M 143.5 191 "/>
<path style=" stroke:none;fill-rule:evenodd;fill:rgb(99.998474%,0%,0%);fill-opacity:1;" d="M 203.5 157 C 203.5 156.601563 203.34375 156.21875 203.0625 155.9375 C 202.78125 155.65625 202.398438 155.5 202 155.5 C 201.601563 155.5 201.21875 155.65625 200.9375 155.9375 C 200.65625 156.21875 200.5 156.601563 200.5 157 C 200.5 157.398438 200.65625 157.78125 200.9375 158.0625 C 201.21875 158.34375 201.601563 158.5 202 158.5 C 202.398438 158.5 202.78125 158.34375 203.0625 158.0625 C 203.34375 157.78125 203.5 157.398438 203.5 157 Z M 203.5 157 "/>
<path style=" stroke:none;fill-rule:evenodd;fill:rgb(99.998474%,0%,0%);fill-opacity:1;" d="M 213.5 122 C 213.5 121.601563 213.34375 121.21875 213.0625 120.9375 C 212.78125 120.65625 212.398438 120.5 212 120.5 C 211.601563 120.5 211.21875 120.65625 210.9375 120.9375 C 210.65625 121.21875 210.5 121.601563 210.5 122 C 210.5 122.398438 210.65625 122.78125 210.9375 123.0625 C 211.21875 123.34375 211.601563 123.5 212 123.5 C 212.398438 123.5 212.78125 123.34375 213.0625 123.0625 C 213.34375 122.78125 213.5 122.398438 213.5 122 Z M 213.5 122 "/>
<path style=" stroke:none;fill-rule:evenodd;fill:rgb(99.998474%,0%,0%);fill-opacity:1;" d="M 213.5 121 C 213.5 120.601563 213.34375 120.21875 213.0625 119.9375 C 212.78125 119.65625 212.398438 119.5 212 119.5 C 211.601563 119.5 211.21875 119.65625 210.9375 119.9375 C 210.65625 120.21875 210.5 120.601563 210.5 121 C 210.5 121.398438 210.65625 121.78125 210.9375 122.0625 C 211.21875 122.34375 211.601563 122.5 212 122.5 C 212.398438 122.5 212.78125 122.34375 213.0625 122.0625 C 213.34375 121.78125 213.5 121.398438 213.5 121 Z M 213.5 121 "/>
<path style=" stroke:none;fill-rule:evenodd;fill:rgb(99.998474%,0%,0%);fill-opacity:1;" d="M 334.5 109 C 334.5 108.601563 334.34375 108.21875 334.0625 107.9375 C 333.78125 107.65625 333.398438 107.5 333 107.5 C 332.601563 107.5 332.21875 107.65625 331.9375 107.9375 C 331.65625 108.21875 331.5 108.601563 331.5 109 C 331.5 109.398438 331.65625 109.78125 331.9375 110.0625 C 332.21875 110.34375 332.601563 110.5 333 110.5 C 333.398438 110.5 333.78125 110.34375 334.0625 110.0625 C 334.34375 109.78125 334.5 109.398438 334.5 109 Z M 334.5 109 "/>
<path style=" stroke:none;fill-rule:evenodd;fill:rgb(99.998474%,0%,0%);fill-opacity:1;" d="M 341.5 105 C 341.5 104.601563 341.34375 104.21875 341.0625 103.9375 C 340.78125 103.65625 340.398438 103.5 340 103.5 C 339.601563 103.5 339.21875 103.65625 338.9375 103.9375 C 338.65625 104.21875 338.5 104.601563 338.5 105 C 338.5 105.398438 338.65625 105.78125 338.9375 106.0625 C 339.21875 106.34375 339.601563 106.5 340 106.5 C 340.398438 106.5 340.78125 106.34375 341.0625 106.0625 C 341.34375 105.78125 341.5 105.398438 341.5 105 Z M 341.5 105 "/>
<path style=" stroke:none;fill-rule:evenodd;fill:rgb(99.998474%,0%,0%);fill-opacity:1;" d="M 340.5 105 C 340.5 104.601563 340.34375 104.21875 340.0625 103.9375 C 339.78125 103.65625 339.398438 103.5 339 103.5 C 338.601563 103.5 338.21875 103.65625 337.9375 103.9375 C 337.65625 104.21875 337.5 104.601563 337.5 105 C 337.5 105.398438 337.65625 105.78125 337.9375 106.0625 C 338.21875 106.34375 338.601563 106.5 339 106.5 C 339.398438 106.5 339.78125 106.34375 340.0625 106.0625 C 340.34375 105.78125 340.5 105.398438 340.5 105 Z M 340.5 105 "/>
<path style=" stroke:none;fill-rule:evenodd;fill:rgb(99.998474%,0%,0%);fill-opacity:1;" d="M 49.5 104 C 49.5 103.601563 49.34375 103.21875 49.0625 102.9375 C 48.78125 102.65625 48.398438 102.5 48 102.5 C 47.601563 102.5 47.21875 102.65625 46.9375 102.9375 C 46.65625 103.21875 46.5 103.601563 46.5 104 C 46.5 104.398438 46.65625 104.78125 46.9375 105.0625 C 47.21875 105.34375 47.601563 105.5 48 105.5 C 48.398438 105.5 48.78125 105.34375 49.0625 105.0625 C 49.34375 104.78125 49.5 104.398438 49.5 104 Z M 49.5 104 "/>
<path style=" stroke:none;fill-rule:evenodd;fill:rgb(99.998474%,0%,0%);fill-opacity:1;" d="M 127.5 100 C 127.5 99.601563 127.34375 99.21875 127.0625 98.9375 C 126.78125 98.65625 126.398438 98.5 126 98.5 C 125.601563 98.5 125.21875 98.65625 124.9375 98.9375 C 124.65625 99.21875 124.5 99.601563 124.5 100 C 124.5 100.398438 124.65625 100.78125 124.9375 101.0625 C 125.21875 101.34375 125.601563 101.5 126 101.5 C 126.398438 101.5 126.78125 101.34375 127.0625 101.0625 C 127.34375 100.78125 127.5 100.398438 127.5 100 Z M 127.5 100 "/>
<path style=" stroke:none;fill-rule:evenodd;fill:rgb(99.998474%,0%,0%);fill-opacity:1;" d="M 340.5 99 C 340.5 98.601563 340.34375 98.21875 340.0625 97.9375 C 339.78125 97.65625 339.398438 97.5 339 97.5 C 338.601563 97.5 338.21875 97.65625 337.9375 97.9375 C 337.65625 98.21875 337.5 98.601563 337.5 99 C 337.5 99.398438 337.65625 99.78125 337.9375 100.0625 C 338.21875 100.34375 338.601563 100.5 339 100.5 C 339.398438 100.5 339.78125 100.34375 340.0625 100.0625 C 340.34375 99.78125 340.5 99.398438 340.5 99 Z M 340.5 99 "/>
<path style=" stroke:none;fill-rule:evenodd;fill:rgb(99.998474%,0%,0%);fill-opacity:1;" d="M 211.5 79 C 211.5 78.601563 211.34375 78.21875 211.0625 77.9375 C 210.78125 77.65625 210.398438 77.5 210 77.5 C 209.601563 77.5 209.21875 77.65625 208.9375 77.9375 C 208.65625 78.21875 208.5 78.601563 208.5 79 C 208.5 79.398438 208.65625 79.78125 208.9375 80.0625 C 209.21875 80.34375 209.601563 80.5 210 80.5 C 210.398438 80.5 210.78125 80.34375 211.0625 80.0625 C 211.34375 79.78125 211.5 79.398438 211.5 79 Z M 211.5 79 "/>
<path style=" stroke:none;fill-rule:evenodd;fill:rgb(99.998474%,0%,0%);fill-opacity:1;" d="M 211.5 78 C 211.5 77.601563 211.34375 77.21875 211.0625 76.9375 C 210.78125 76.65625 210.398438 76.5 210 76.5 C 209.601563 76.5 209.21875 76.65625 208.9375 76.9375 C 208.65625 77.21875 208.5 77.601563 208.5 78 C 208.5 78.398438 208.65625 78.78125 208.9375 79.0625 C 209.21875 79.34375 209.601563 79.5 210 79.5 C 210.398438 79.5 210.78125 79.34375 211.0625 79.0625 C 211.34375 78.78125 211.5 78.398438 211.5 78 Z M 211.5 78 "/>
<path style=" stroke:none;fill-rule:evenodd;fill:rgb(99.998474%,0%,0%);fill-opacity:1;" d="M 15.5 64 C 15.5 63.601563 15.34375 63.21875 15.0625 62.9375 C 14.78125 62.65625 14.398438 62.5 14 62.5 C 13.601563 62.5 13.21875 62.65625 12.9375 62.9375 C 12.65625 63.21875 12.5 63.601563 12.5 64 C 12.5 64.398438 12.65625 64.78125 12.9375 65.0625 C 13.21875 65.34375 13.601563 65.5 14 65.5 C 14.398438 65.5 14.78125 65.34375 15.0625 65.0625 C 15.34375 64.78125 15.5 64.398438 15.5 64 Z M 15.5 64 "/>
<path style=" stroke:none;fill-rule:evenodd;fill:rgb(99.998474%,0%,0%);fill-opacity:1;" d="M 14.5 62 C 14.5 61.601563 14.34375 61.21875 14.0625 60.9375 C 13.78125 60.65625 13.398438 60.5 13 60.5 C 12.601563 60.5 12.21875 60.65625 11.9375 60.9375 C 11.65625 61.21875 11.5 61.601563 11.5 62 C 11.5 62.398438 11.65625 62.78125 11.9375 63.0625 C 12.21875 63.34375 12.601563 63.5 13 63.5 C 13.398438 63.5 13.78125 63.34375 14.0625 63.0625 C 14.34375 62.78125 14.5 62.398438 14.5 62 Z M 14.5 62 "/>
<path style=" stroke:none;fill-rule:evenodd;fill:rgb(99.998474%,0%,0%);fill-opacity:1;" d="M 123.5 54 C 123.5 53.601563 123.34375 53.21875 123.0625 52.9375 C 122.78125 52.65625 122.398438 52.5 122 52.5 C 121.601563 52.5 121.21875 52.65625 120.9375 52.9375 C 120.65625 53.21875 120.5 53.601563 120.5 54 C 120.5 54.398438 120.65625 54.78125 120.9375 55.0625 C 121.21875 55.34375 121.601563 55.5 122 55.5 C 122.398438 55.5 122.78125 55.34375 123.0625 55.0625 C 123.34375 54.78125 123.5 54.398438 123.5 54 Z M 123.5 54 "/>
<path style=" stroke:none;fill-rule:evenodd;fill:rgb(99.998474%,0%,0%);fill-opacity:1;" d="M 122.5 52 C 122.5 51.601563 122.34375 51.21875 122.0625 50.9375 C 121.78125 50.65625 121.398438 50.5 121 50.5 C 120.601563 50.5 120.21875 50.65625 119.9375 50.9375 C 119.65625 51.21875 119.5 51.601563 119.5 52 C 119.5 52.398438 119.65625 52.78125 119.9375 53.0625 C 120.21875 53.34375 120.601563 53.5 121 53.5 C 121.398438 53.5 121.78125 53.34375 122.0625 53.0625 C 122.34375 52.78125 122.5 52.398438 122.5 52 Z M 122.5 52 "/>
<path style=" stroke:none;fill-rule:evenodd;fill:rgb(99.998474%,0%,0%);fill-opacity:1;" d="M 124.5 50 C 124.5 49.601563 124.34375 49.21875 124.0625 48.9375 C 123.78125 48.65625 123.398438 48.5 123 48.5 C 122.601563 48.5 122.21875 48.65625 121.9375 48.9375 C 121.65625 49.21875 121.5 49.601563 121.5 50 C 121.5 50.398438 121.65625 50.78125 121.9375 51.0625 C 122.21875 51.34375 122.601563 51.5 123 51.5 C 123.398438 51.5 123.78125 51.34375 124.0625 51.0625 C 124.34375 50.78125 124.5 50.398438 124.5 50 Z M 124.5 50 "/>
<path style=" stroke:none;fill-rule:evenodd;fill:rgb(99.998474%,0%,0%);fill-opacity:1;" d="M 298.5 40 C 298.5 39.601563 298.34375 39.21875 298.0625 38.9375 C 297.78125 38.65625 297.398438 38.5 297 38.5 C 296.601563 38.5 296.21875 38.65625 295.9375 38.9375 C 295.65625 39.21875 295.5 39.601563 295.5 40 C 295.5 40.398438 295.65625 40.78125 295.9375 41.0625 C 296.21875 41.34375 296.601563 41.5 297 41.5 C 297.398438 41.5 297.78125 41.34375 298.0625 41.0625 C 298.34375 40.78125 298.5 40.398438 298.5 40 Z M 298.5 40 "/>
<path style=" stroke:none;fill-rule:evenodd;fill:rgb(99.998474%,0%,0%);fill-opacity:1;" d="M 66.5 26 C 66.5 25.601563 66.34375 25.21875 66.0625 24.9375 C 65.78125 24.65625 65.398438 24.5 65 24.5 C 64.601563 24.5 64.21875 24.65625 63.9375 24.9375 C 63.65625 25.21875 63.5 25.601563 63.5 26 C 63.5 26.398438 63.65625 26.78125 63.9375 27.0625 C 64.21875 27.34375 64.601563 27.5 65 27.5 C 65.398438 27.5 65.78125 27.34375 66.0625 27.0625 C 66.34375 26.78125 66.5 26.398438 66.5 26 Z M 66.5 26 "/>
</g>
</svg>
