<?xml version="1.0" encoding="UTF-8"?>
<svg xmlns="http://www.w3.org/2000/svg" xmlns:xlink="http://www.w3.org/1999/xlink" width="347pt" height="297pt" viewBox="0 0 347 297" version="1.1">
<g id="surface362">
<path style="fill-rule:nonzero;fill:rgb(84.999084%,84.999084%,84.999084%);fill-opacity:0.6;stroke-width:1;stroke-linecap:square;stroke-linejoin:miter;stroke:rgb(50%,50%,50%);stroke-opacity:1;stroke-miterlimit:3.25;" d="M 93.769531 256.398438 L 142.578125 290.648438 L 103.25 251.585938 Z M 93.769531 256.398438 " transform="matrix(1,0,0,1,-74,-13)"/>
<path style="fill-rule:nonzero;fill:rgb(84.999084%,84.999084%,84.999084%);fill-opacity:0.6;stroke-width:1;stroke-linecap:square;stroke-linejoin:miter;stroke:rgb(50%,50%,50%);stroke-opacity:1;stroke-miterlimit:3.25;" d="M 136.867188 57.320313 L 94.441406 255.46875 L 103.25 251.585938 Z M 136.867188 57.320313 " transform="matrix(1,0,0,1,-74,-13)"/>
<path style="fill-rule:nonzero;fill:rgb(84.999084%,84.999084%,84.999084%);fill-opacity:0.6;stroke-width:1;stroke-linecap:square;stroke-linejoin:miter;stroke:rgb(50%,50%,50%);stroke-opacity:1;stroke-miterlimit:3.25;" d="M 103.25 251.585938 L 94.441406 255.46875 L 93.769531 256.398438 Z M 103.25 251.585938 " transform="matrix(1,0,0,1,-74,-13)"/>
<path style="fill-rule:nonzero;fill:rgb(84.999084%,84.999084%,84.999084%);fill-opacity:0.6;stroke-width:1;stroke-linecap:square;stroke-linejoin:miter;stroke:rgb(50%,50%,50%);stroke-opacity:1;stroke-miterlimit:3.25;" d="M 142.578125 290.648438 L 143.546875 288.597656 L 103.25 251.585938 Z M 142.578125 290.648438 " transform="matrix(1,0,0,1,-74,-13)"/>
<path style="fill-rule:nonzero;fill:rgb(84.999084%,84.999084%,84.999084%);fill-opacity:0.6;stroke-width:1;stroke-linecap:square;stroke-linejoin:miter;stroke:rgb(50%,50%,50%);stroke-opacity:1;stroke-miterlimit:3.25;" d="M 93.769531 256.398438 L 94.441406 255.46875 L 136.867188 57.320313 Z M 93.769531 256.398438 " transform="matrix(1,0,0,1,-74,-13)"/>
<path style="fill-rule:nonzero;fill:rgb(84.999084%,84.999084%,84.999084%);fill-opacity:0.6;stroke-width:1;stroke-linecap:square;stroke-linejoin:miter;stroke:rgb(50%,50%,50%);stroke-opacity:1;stroke-miterlimit:3.25;" d="M 143.546875 288.597656 L 267.40625 249.375 L 193.011719 210.488281 Z M 143.546875 288.597656 " transform="matrix(1,0,0,1,-74,-13)"/>
<path style="fill-rule:nonzero;fill:rgb(84.999084%,84.999084%,84.999084%);fill-opacity:0.6;stroke-width:1;stroke-linecap:square;stroke-linejoin:miter;stroke:rgb(50%,50%,50%);stroke-opacity:1;stroke-miterlimit:3.25;" d="M 281.671875 306.160156 L 267.40625 249.375 L 143.546875 288.597656 Z M 281.671875 306.160156 " transform="matrix(1,0,0,1,-74,-13)"/>
<path style="fill-rule:nonzero;fill:rgb(84.999084%,84.999084%,84.999084%);fill-opacity:0.6;stroke-width:1;stroke-linecap:square;stroke-linejoin:miter;stroke:rgb(50%,50%,50%);stroke-opacity:1;stroke-miterlimit:3.25;" d="M 193.011719 210.488281 L 264.207031 236.535156 L 192.949219 209.953125 Z M 193.011719 210.488281 " transform="matrix(1,0,0,1,-74,-13)"/>
<path style="fill-rule:nonzero;fill:rgb(84.999084%,84.999084%,84.999084%);fill-opacity:0.6;stroke-width:1;stroke-linecap:square;stroke-linejoin:miter;stroke:rgb(50%,50%,50%);stroke-opacity:1;stroke-miterlimit:3.25;" d="M 264.207031 236.535156 L 193.011719 210.488281 L 267.40625 249.375 Z M 264.207031 236.535156 " transform="matrix(1,0,0,1,-74,-13)"/>
<path style="fill-rule:nonzero;fill:rgb(84.999084%,84.999084%,84.999084%);fill-opacity:0.6;stroke-width:1;stroke-linecap:square;stroke-linejoin:miter;stroke:rgb(50%,50%,50%);stroke-opacity:1;stroke-miterlimit:3.25;" d="M 214.761719 163.941406 L 264.207031 236.535156 L 302.230469 152.601563 Z M 214.761719 163.941406 " transform="matrix(1,0,0,1,-74,-13)"/>
<path style="fill-rule:nonzero;fill:rgb(84.999084%,84.999084%,84.999084%);fill-opacity:0.6;stroke-width:1;stroke-linecap:square;stroke-linejoin:miter;stroke:rgb(50%,50%,50%);stroke-opacity:1;stroke-miterlimit:3.25;" d="M 103.25 251.585938 L 143.546875 288.597656 L 186.613281 210.15625 Z M 103.25 251.585938 " transform="matrix(1,0,0,1,-74,-13)"/>
<path style="fill-rule:nonzero;fill:rgb(84.999084%,84.999084%,84.999084%);fill-opacity:0.6;stroke-width:1;stroke-linecap:square;stroke-linejoin:miter;stroke:rgb(50%,50%,50%);stroke-opacity:1;stroke-miterlimit:3.25;" d="M 143.546875 288.597656 L 142.578125 290.648438 L 281.671875 306.160156 Z M 143.546875 288.597656 " transform="matrix(1,0,0,1,-74,-13)"/>
<path style="fill-rule:nonzero;fill:rgb(84.999084%,84.999084%,84.999084%);fill-opacity:0.6;stroke-width:1;stroke-linecap:square;stroke-linejoin:miter;stroke:rgb(50%,50%,50%);stroke-opacity:1;stroke-miterlimit:3.25;" d="M 193.011719 210.488281 L 186.613281 210.15625 L 143.546875 288.597656 Z M 193.011719 210.488281 " transform="matrix(1,0,0,1,-74,-13)"/>
<path style="fill-rule:nonzero;fill:rgb(84.999084%,84.999084%,84.999084%);fill-opacity:0.6;stroke-width:1;stroke-linecap:square;stroke-linejoin:miter;stroke:rgb(50%,50%,50%);stroke-opacity:1;stroke-miterlimit:3.25;" d="M 136.867188 57.320313 L 186.613281 210.15625 L 194.585938 92.234375 Z M 136.867188 57.320313 " transform="matrix(1,0,0,1,-74,-13)"/>
<path style="fill-rule:nonzero;fill:rgb(84.999084%,84.999084%,84.999084%);fill-opacity:0.6;stroke-width:1;stroke-linecap:square;stroke-linejoin:miter;stroke:rgb(50%,50%,50%);stroke-opacity:1;stroke-miterlimit:3.25;" d="M 192.949219 209.953125 L 186.613281 210.15625 L 193.011719 210.488281 Z M 192.949219 209.953125 " transform="matrix(1,0,0,1,-74,-13)"/>
<path style="fill-rule:nonzero;fill:rgb(84.999084%,84.999084%,84.999084%);fill-opacity:0.6;stroke-width:1;stroke-linecap:square;stroke-linejoin:miter;stroke:rgb(50%,50%,50%);stroke-opacity:1;stroke-miterlimit:3.25;" d="M 194.113281 89.574219 L 154.402344 37.308594 L 136.867188 57.320313 Z M 194.113281 89.574219 " transform="matrix(1,0,0,1,-74,-13)"/>
<path style="fill-rule:nonzero;fill:rgb(84.999084%,84.999084%,84.999084%);fill-opacity:0.6;stroke-width:1;stroke-linecap:square;stroke-linejoin:miter;stroke:rgb(50%,50%,50%);stroke-opacity:1;stroke-miterlimit:3.25;" d="M 214.761719 163.941406 L 186.613281 210.15625 L 192.949219 209.953125 Z M 214.761719 163.941406 " transform="matrix(1,0,0,1,-74,-13)"/>
<path style="fill-rule:nonzero;fill:rgb(84.999084%,84.999084%,84.999084%);fill-opacity:0.6;stroke-width:1;stroke-linecap:square;stroke-linejoin:miter;stroke:rgb(50%,50%,50%);stroke-opacity:1;stroke-miterlimit:3.25;" d="M 186.613281 210.15625 L 136.867188 57.320313 L 103.25 251.585938 Z M 186.613281 210.15625 " transform="matrix(1,0,0,1,-74,-13)"/>
<path style="fill-rule:nonzero;fill:rgb(84.999084%,84.999084%,84.999084%);fill-opacity:0.6;stroke-width:1;stroke-linecap:square;stroke-linejoin:miter;stroke:rgb(50%,50%,50%);stroke-opacity:1;stroke-miterlimit:3.25;" d="M 269.921875 36.921875 L 194.113281 89.574219 L 194.585938 92.234375 Z M 269.921875 36.921875 " transform="matrix(1,0,0,1,-74,-13)"/>
<path style="fill-rule:nonzero;fill:rgb(84.999084%,84.999084%,84.999084%);fill-opacity:0.6;stroke-width:1;stroke-linecap:square;stroke-linejoin:miter;stroke:rgb(50%,50%,50%);stroke-opacity:1;stroke-miterlimit:3.25;" d="M 214.761719 163.941406 L 194.585938 92.234375 L 186.613281 210.15625 Z M 214.761719 163.941406 " transform="matrix(1,0,0,1,-74,-13)"/>
<path style="fill-rule:nonzero;fill:rgb(84.999084%,84.999084%,84.999084%);fill-opacity:0.6;stroke-width:1;stroke-linecap:square;stroke-linejoin:miter;stroke:rgb(50%,50%,50%);stroke-opacity:1;stroke-miterlimit:3.25;" d="M 194.113281 89.574219 L 243.988281 29.121094 L 154.402344 37.308594 Z M 194.113281 89.574219 " transform="matrix(1,0,0,1,-74,-13)"/>
<path style="fill-rule:nonzero;fill:rgb(84.999084%,84.999084%,84.999084%);fill-opacity:0.6;stroke-width:1;stroke-linecap:square;stroke-linejoin:miter;stroke:rgb(50%,50%,50%);stroke-opacity:1;stroke-miterlimit:3.25;" d="M 269.921875 36.921875 L 243.988281 29.121094 L 194.113281 89.574219 Z M 269.921875 36.921875 " transform="matrix(1,0,0,1,-74,-13)"/>
<path style="fill-rule:nonzero;fill:rgb(84.999084%,84.999084%,84.999084%);fill-opacity:0.6;stroke-width:1;stroke-linecap:square;stroke-linejoin:miter;stroke:rgb(50%,50%,50%);stroke-opacity:1;stroke-miterlimit:3.25;" d="M 300.664063 84.367188 L 194.585938 92.234375 L 214.761719 163.941406 Z M 300.664063 84.367188 " transform="matrix(1,0,0,1,-74,-13)"/>
<path style="fill-rule:nonzero;fill:rgb(84.999084%,84.999084%,84.999084%);fill-opacity:0.6;stroke-width:1;stroke-linecap:square;stroke-linejoin:miter;stroke:rgb(50%,50%,50%);stroke-opacity:1;stroke-miterlimit:3.25;" d="M 194.585938 92.234375 L 194.113281 89.574219 L 136.867188 57.320313 Z M 194.585938 92.234375 " transform="matrix(1,0,0,1,-74,-13)"/>
<path style="fill-rule:nonzero;fill:rgb(84.999084%,84.999084%,84.999084%);fill-opacity:0.6;stroke-width:1;stroke-linecap:square;stroke-linejoin:miter;stroke:rgb(50%,50%,50%);stroke-opacity:1;stroke-miterlimit:3.25;" d="M 192.949219 209.953125 L 264.207031 236.535156 L 214.761719 163.941406 Z M 192.949219 209.953125 " transform="matrix(1,0,0,1,-74,-13)"/>
<path style="fill-rule:nonzero;fill:rgb(84.999084%,84.999084%,84.999084%);fill-opacity:0.6;stroke-width:1;stroke-linecap:square;stroke-linejoin:miter;stroke:rgb(50%,50%,50%);stroke-opacity:1;stroke-miterlimit:3.25;" d="M 264.207031 236.535156 L 267.40625 249.375 L 269.339844 247.632813 Z M 264.207031 236.535156 " transform="matrix(1,0,0,1,-74,-13)"/>
<path style="fill-rule:nonzero;fill:rgb(84.999084%,84.999084%,84.999084%);fill-opacity:0.6;stroke-width:1;stroke-linecap:square;stroke-linejoin:miter;stroke:rgb(50%,50%,50%);stroke-opacity:1;stroke-miterlimit:3.25;" d="M 279.851563 255.214844 L 281.167969 258.441406 L 280.109375 255.058594 Z M 279.851563 255.214844 " transform="matrix(1,0,0,1,-74,-13)"/>
<path style="fill-rule:nonzero;fill:rgb(84.999084%,84.999084%,84.999084%);fill-opacity:0.6;stroke-width:1;stroke-linecap:square;stroke-linejoin:miter;stroke:rgb(50%,50%,50%);stroke-opacity:1;stroke-miterlimit:3.25;" d="M 281.167969 258.441406 L 279.851563 255.214844 L 267.976563 249.578125 Z M 281.167969 258.441406 " transform="matrix(1,0,0,1,-74,-13)"/>
<path style="fill-rule:nonzero;fill:rgb(84.999084%,84.999084%,84.999084%);fill-opacity:0.6;stroke-width:1;stroke-linecap:square;stroke-linejoin:miter;stroke:rgb(50%,50%,50%);stroke-opacity:1;stroke-miterlimit:3.25;" d="M 269.339844 247.632813 L 279.851563 255.214844 L 280.109375 255.058594 Z M 269.339844 247.632813 " transform="matrix(1,0,0,1,-74,-13)"/>
<path style="fill-rule:nonzero;fill:rgb(84.999084%,84.999084%,84.999084%);fill-opacity:0.6;stroke-width:1;stroke-linecap:square;stroke-linejoin:miter;stroke:rgb(50%,50%,50%);stroke-opacity:1;stroke-miterlimit:3.25;" d="M 279.851563 255.214844 L 269.339844 247.632813 L 267.976563 249.578125 Z M 279.851563 255.214844 " transform="matrix(1,0,0,1,-74,-13)"/>
<path style="fill-rule:nonzero;fill:rgb(84.999084%,84.999084%,84.999084%);fill-opacity:0.6;stroke-width:1;stroke-linecap:square;stroke-linejoin:miter;stroke:rgb(50%,50%,50%);stroke-opacity:1;stroke-miterlimit:3.25;" d="M 281.167969 258.441406 L 281.457031 258.402344 L 280.109375 255.058594 Z M 281.167969 258.441406 " transform="matrix(1,0,0,1,-74,-13)"/>
<path style="fill-rule:nonzero;fill:rgb(84.999084%,84.999084%,84.999084%);fill-opacity:0.6;stroke-width:1;stroke-linecap:square;stroke-linejoin:miter;stroke:rgb(50%,50%,50%);stroke-opacity:1;stroke-miterlimit:3.25;" d="M 267.976563 249.578125 L 267.40625 249.375 L 281.167969 258.441406 Z M 267.976563 249.578125 " transform="matrix(1,0,0,1,-74,-13)"/>
<path style="fill-rule:nonzero;fill:rgb(84.999084%,84.999084%,84.999084%);fill-opacity:0.6;stroke-width:1;stroke-linecap:square;stroke-linejoin:miter;stroke:rgb(50%,50%,50%);stroke-opacity:1;stroke-miterlimit:3.25;" d="M 295.46875 307.257813 L 298.816406 307.839844 L 281.457031 258.402344 Z M 295.46875 307.257813 " transform="matrix(1,0,0,1,-74,-13)"/>
<path style="fill-rule:nonzero;fill:rgb(84.999084%,84.999084%,84.999084%);fill-opacity:0.6;stroke-width:1;stroke-linecap:square;stroke-linejoin:miter;stroke:rgb(50%,50%,50%);stroke-opacity:1;stroke-miterlimit:3.25;" d="M 298.816406 307.839844 L 295.46875 307.257813 L 281.671875 306.160156 Z M 298.816406 307.839844 " transform="matrix(1,0,0,1,-74,-13)"/>
<path style="fill-rule:nonzero;fill:rgb(84.999084%,84.999084%,84.999084%);fill-opacity:0.6;stroke-width:1;stroke-linecap:square;stroke-linejoin:miter;stroke:rgb(50%,50%,50%);stroke-opacity:1;stroke-miterlimit:3.25;" d="M 281.457031 258.402344 L 281.671875 306.160156 L 295.46875 307.257813 Z M 281.457031 258.402344 " transform="matrix(1,0,0,1,-74,-13)"/>
<path style="fill-rule:nonzero;fill:rgb(84.999084%,84.999084%,84.999084%);fill-opacity:0.6;stroke-width:1;stroke-linecap:square;stroke-linejoin:miter;stroke:rgb(50%,50%,50%);stroke-opacity:1;stroke-miterlimit:3.25;" d="M 281.671875 306.160156 L 281.457031 258.402344 L 281.167969 258.441406 Z M 281.671875 306.160156 " transform="matrix(1,0,0,1,-74,-13)"/>
<path style="fill-rule:nonzero;fill:rgb(84.999084%,84.999084%,84.999084%);fill-opacity:0.6;stroke-width:1;stroke-linecap:square;stroke-linejoin:miter;stroke:rgb(50%,50%,50%);stroke-opacity:1;stroke-miterlimit:3.25;" d="M 298.816406 307.839844 L 372.5625 232.921875 L 281.457031 258.402344 Z M 298.816406 307.839844 " transform="matrix(1,0,0,1,-74,-13)"/>
<path style="fill-rule:nonzero;fill:rgb(84.999084%,84.999084%,84.999084%);fill-opacity:0.6;stroke-width:1;stroke-linecap:square;stroke-linejoin:miter;stroke:rgb(50%,50%,50%);stroke-opacity:1;stroke-miterlimit:3.25;" d="M 267.40625 249.375 L 281.671875 306.160156 L 281.167969 258.441406 Z M 267.40625 249.375 " transform="matrix(1,0,0,1,-74,-13)"/>
<path style="fill-rule:nonzero;fill:rgb(84.999084%,84.999084%,84.999084%);fill-opacity:0.6;stroke-width:1;stroke-linecap:square;stroke-linejoin:miter;stroke:rgb(50%,50%,50%);stroke-opacity:1;stroke-miterlimit:3.25;" d="M 280.109375 255.058594 L 281.457031 258.402344 L 372.5625 232.921875 Z M 280.109375 255.058594 " transform="matrix(1,0,0,1,-74,-13)"/>
<path style="fill-rule:nonzero;fill:rgb(84.999084%,84.999084%,84.999084%);fill-opacity:0.6;stroke-width:1;stroke-linecap:square;stroke-linejoin:miter;stroke:rgb(50%,50%,50%);stroke-opacity:1;stroke-miterlimit:3.25;" d="M 300.664063 84.367188 L 214.761719 163.941406 L 302.230469 152.601563 Z M 300.664063 84.367188 " transform="matrix(1,0,0,1,-74,-13)"/>
<path style="fill-rule:nonzero;fill:rgb(84.999084%,84.999084%,84.999084%);fill-opacity:0.6;stroke-width:1;stroke-linecap:square;stroke-linejoin:miter;stroke:rgb(50%,50%,50%);stroke-opacity:1;stroke-miterlimit:3.25;" d="M 264.207031 236.535156 L 304.972656 152.660156 L 302.230469 152.601563 Z M 264.207031 236.535156 " transform="matrix(1,0,0,1,-74,-13)"/>
<path style="fill-rule:nonzero;fill:rgb(84.999084%,84.999084%,84.999084%);fill-opacity:0.6;stroke-width:1;stroke-linecap:square;stroke-linejoin:miter;stroke:rgb(50%,50%,50%);stroke-opacity:1;stroke-miterlimit:3.25;" d="M 269.921875 36.921875 L 300.664063 84.367188 L 367.808594 160.335938 Z M 269.921875 36.921875 " transform="matrix(1,0,0,1,-74,-13)"/>
<path style="fill-rule:nonzero;fill:rgb(84.999084%,84.999084%,84.999084%);fill-opacity:0.6;stroke-width:1;stroke-linecap:square;stroke-linejoin:miter;stroke:rgb(50%,50%,50%);stroke-opacity:1;stroke-miterlimit:3.25;" d="M 269.921875 36.921875 L 194.585938 92.234375 L 300.664063 84.367188 Z M 269.921875 36.921875 " transform="matrix(1,0,0,1,-74,-13)"/>
<path style="fill-rule:nonzero;fill:rgb(84.999084%,84.999084%,84.999084%);fill-opacity:0.6;stroke-width:1;stroke-linecap:square;stroke-linejoin:miter;stroke:rgb(50%,50%,50%);stroke-opacity:1;stroke-miterlimit:3.25;" d="M 302.230469 152.601563 L 304.972656 152.660156 L 300.664063 84.367188 Z M 302.230469 152.601563 " transform="matrix(1,0,0,1,-74,-13)"/>
<path style="fill-rule:nonzero;fill:rgb(84.999084%,84.999084%,84.999084%);fill-opacity:0.6;stroke-width:1;stroke-linecap:square;stroke-linejoin:miter;stroke:rgb(50%,50%,50%);stroke-opacity:1;stroke-miterlimit:3.25;" d="M 280.109375 255.058594 L 264.207031 236.535156 L 269.339844 247.632813 Z M 280.109375 255.058594 " transform="matrix(1,0,0,1,-74,-13)"/>
<path style="fill-rule:nonzero;fill:rgb(84.999084%,84.999084%,84.999084%);fill-opacity:0.6;stroke-width:1;stroke-linecap:square;stroke-linejoin:miter;stroke:rgb(50%,50%,50%);stroke-opacity:1;stroke-miterlimit:3.25;" d="M 372.5625 232.921875 L 419.128906 219.152344 L 419.144531 218.949219 Z M 372.5625 232.921875 " transform="matrix(1,0,0,1,-74,-13)"/>
<path style="fill-rule:nonzero;fill:rgb(84.999084%,84.999084%,84.999084%);fill-opacity:0.6;stroke-width:1;stroke-linecap:square;stroke-linejoin:miter;stroke:rgb(50%,50%,50%);stroke-opacity:1;stroke-miterlimit:3.25;" d="M 419.128906 219.152344 L 372.5625 232.921875 L 298.816406 307.839844 Z M 419.128906 219.152344 " transform="matrix(1,0,0,1,-74,-13)"/>
<path style="fill-rule:nonzero;fill:rgb(84.999084%,84.999084%,84.999084%);fill-opacity:0.6;stroke-width:1;stroke-linecap:square;stroke-linejoin:miter;stroke:rgb(50%,50%,50%);stroke-opacity:1;stroke-miterlimit:3.25;" d="M 372.5625 232.921875 L 367.808594 160.335938 L 304.972656 152.660156 Z M 372.5625 232.921875 " transform="matrix(1,0,0,1,-74,-13)"/>
<path style="fill-rule:nonzero;fill:rgb(84.999084%,84.999084%,84.999084%);fill-opacity:0.6;stroke-width:1;stroke-linecap:square;stroke-linejoin:miter;stroke:rgb(50%,50%,50%);stroke-opacity:1;stroke-miterlimit:3.25;" d="M 367.808594 160.335938 L 372.5625 232.921875 L 419.144531 218.949219 Z M 367.808594 160.335938 " transform="matrix(1,0,0,1,-74,-13)"/>
<path style="fill-rule:nonzero;fill:rgb(84.999084%,84.999084%,84.999084%);fill-opacity:0.6;stroke-width:1;stroke-linecap:square;stroke-linejoin:miter;stroke:rgb(50%,50%,50%);stroke-opacity:1;stroke-miterlimit:3.25;" d="M 367.808594 160.335938 L 419.144531 218.949219 L 269.921875 36.921875 Z M 367.808594 160.335938 " transform="matrix(1,0,0,1,-74,-13)"/>
<path style="fill-rule:nonzero;fill:rgb(84.999084%,84.999084%,84.999084%);fill-opacity:0.6;stroke-width:1;stroke-linecap:square;stroke-linejoin:miter;stroke:rgb(50%,50%,50%);stroke-opacity:1;stroke-miterlimit:3.25;" d="M 304.972656 152.660156 L 367.808594 160.335938 L 300.664063 84.367188 Z M 304.972656 152.660156 " transform="matrix(1,0,0,1,-74,-13)"/>
<path style="fill-rule:nonzero;fill:rgb(84.999084%,84.999084%,84.999084%);fill-opacity:0.6;stroke-width:1;stroke-linecap:square;stroke-linejoin:miter;stroke:rgb(50%,50%,50%);stroke-opacity:1;stroke-miterlimit:3.25;" d="M 264.207031 236.535156 L 280.109375 255.058594 L 304.972656 152.660156 Z M 264.207031 236.535156 " transform="matrix(1,0,0,1,-74,-13)"/>
<path style="fill-rule:nonzero;fill:rgb(84.999084%,84.999084%,84.999084%);fill-opacity:0.6;stroke-width:1;stroke-linecap:square;stroke-linejoin:miter;stroke:rgb(50%,50%,50%);stroke-opacity:1;stroke-miterlimit:3.25;" d="M 280.109375 255.058594 L 372.5625 232.921875 L 304.972656 152.660156 Z M 280.109375 255.058594 " transform="matrix(1,0,0,1,-74,-13)"/>
<path style="fill-rule:nonzero;fill:rgb(84.999084%,84.999084%,84.999084%);fill-opacity:0.6;stroke-width:1;stroke-linecap:square;stroke-linejoin:miter;stroke:rgb(50%,50%,50%);stroke-opacity:1;stroke-miterlimit:3.25;" d="M 269.339844 247.632813 L 267.40625 249.375 L 267.976563 249.578125 Z M 269.339844 247.632813 " transform="matrix(1,0,0,1,-74,-13)"/>
<path style=" stroke:none;fill-rule:evenodd;fill:rgb(99.998474%,0%,0%);fill-opacity:0.6;" d="M 226.789063 295 C 226.789063 294.523438 226.601563 294.070313 226.265625 293.734375 C 225.929688 293.398438 225.476563 293.210938 225 293.210938 C 224.523438 293.210938 224.070313 293.398438 223.734375 293.734375 C 223.398438 294.070313 223.210938 294.523438 223.210938 295 C 223.210938 295.476563 223.398438 295.929688 223.734375 296.265625 C 224.070313 296.601563 224.523438 296.789063 225 296.789063 C 225.476563 296.789063 225.929688 296.601563 226.265625 296.265625 C 226.601563 295.929688 226.789063 295.476563 226.789063 295 Z M 226.789063 295 "/>
<path style=" stroke:none;fill-rule:evenodd;fill:rgb(99.998474%,0%,0%);fill-opacity:0.6;" d="M 222.789063 294 C 222.789063 293.523438 222.601563 293.070313 222.265625 292.734375 C 221.929688 292.398438 221.476563 292.210938 221 292.210938 C 220.523438 292.210938 220.070313 292.398438 219.734375 292.734375 C 219.398438 293.070313 219.210938 293.523438 219.210938 294 C 219.210938 294.476563 219.398438 294.929688 219.734375 295.265625 C 220.070313 295.601563 220.523438 295.789063 221 295.789063 C 221.476563 295.789063 221.929688 295.601563 222.265625 295.265625 C 222.601563 294.929688 222.789063 294.476563 222.789063 294 Z M 222.789063 294 "/>
<path style=" stroke:none;fill-rule:evenodd;fill:rgb(99.998474%,0%,0%);fill-opacity:0.6;" d="M 209.789063 293 C 209.789063 292.523438 209.601563 292.070313 209.265625 291.734375 C 208.929688 291.398438 208.476563 291.210938 208 291.210938 C 207.523438 291.210938 207.070313 291.398438 206.734375 291.734375 C 206.398438 292.070313 206.210938 292.523438 206.210938 293 C 206.210938 293.476563 206.398438 293.929688 206.734375 294.265625 C 207.070313 294.601563 207.523438 294.789063 208 294.789063 C 208.476563 294.789063 208.929688 294.601563 209.265625 294.265625 C 209.601563 293.929688 209.789063 293.476563 209.789063 293 Z M 209.789063 293 "/>
<path style=" stroke:none;fill-rule:evenodd;fill:rgb(99.998474%,0%,0%);fill-opacity:0.6;" d="M 70.789063 278 C 70.789063 277.523438 70.601563 277.070313 70.265625 276.734375 C 69.929688 276.398438 69.476563 276.210938 69 276.210938 C 68.523438 276.210938 68.070313 276.398438 67.734375 276.734375 C 67.398438 277.070313 67.210938 277.523438 67.210938 278 C 67.210938 278.476563 67.398438 278.929688 67.734375 279.265625 C 68.070313 279.601563 68.523438 279.789063 69 279.789063 C 69.476563 279.789063 69.929688 279.601563 70.265625 279.265625 C 70.601563 278.929688 70.789063 278.476563 70.789063 278 Z M 70.789063 278 "/>
<path style=" stroke:none;fill-rule:evenodd;fill:rgb(99.998474%,0%,0%);fill-opacity:0.6;" d="M 71.789063 276 C 71.789063 275.523438 71.601563 275.070313 71.265625 274.734375 C 70.929688 274.398438 70.476563 274.210938 70 274.210938 C 69.523438 274.210938 69.070313 274.398438 68.734375 274.734375 C 68.398438 275.070313 68.210938 275.523438 68.210938 276 C 68.210938 276.476563 68.398438 276.929688 68.734375 277.265625 C 69.070313 277.601563 69.523438 277.789063 70 277.789063 C 70.476563 277.789063 70.929688 277.601563 71.265625 277.265625 C 71.601563 276.929688 71.789063 276.476563 71.789063 276 Z M 71.789063 276 "/>
<path style=" stroke:none;fill-rule:evenodd;fill:rgb(99.998474%,0%,0%);fill-opacity:0.6;" d="M 208.789063 245 C 208.789063 244.523438 208.601563 244.070313 208.265625 243.734375 C 207.929688 243.398438 207.476563 243.210938 207 243.210938 C 206.523438 243.210938 206.070313 243.398438 205.734375 243.734375 C 205.398438 244.070313 205.210938 244.523438 205.210938 245 C 205.210938 245.476563 205.398438 245.929688 205.734375 246.265625 C 206.070313 246.601563 206.523438 246.789063 207 246.789063 C 207.476563 246.789063 207.929688 246.601563 208.265625 246.265625 C 208.601563 245.929688 208.789063 245.476563 208.789063 245 Z M 208.789063 245 "/>
<path style=" stroke:none;fill-rule:evenodd;fill:rgb(99.998474%,0%,0%);fill-opacity:0.6;" d="M 208.789063 245 C 208.789063 244.523438 208.601563 244.070313 208.265625 243.734375 C 207.929688 243.398438 207.476563 243.210938 207 243.210938 C 206.523438 243.210938 206.070313 243.398438 205.734375 243.734375 C 205.398438 244.070313 205.210938 244.523438 205.210938 245 C 205.210938 245.476563 205.398438 245.929688 205.734375 246.265625 C 206.070313 246.601563 206.523438 246.789063 207 246.789063 C 207.476563 246.789063 207.929688 246.601563 208.265625 246.265625 C 208.601563 245.929688 208.789063 245.476563 208.789063 245 Z M 208.789063 245 "/>
<path style=" stroke:none;fill-rule:evenodd;fill:rgb(99.998474%,0%,0%);fill-opacity:0.6;" d="M 21.789063 243 C 21.789063 242.523438 21.601563 242.070313 21.265625 241.734375 C 20.929688 241.398438 20.476563 241.210938 20 241.210938 C 19.523438 241.210938 19.070313 241.398438 18.734375 241.734375 C 18.398438 242.070313 18.210938 242.523438 18.210938 243 C 18.210938 243.476563 18.398438 243.929688 18.734375 244.265625 C 19.070313 244.601563 19.523438 244.789063 20 244.789063 C 20.476563 244.789063 20.929688 244.601563 21.265625 244.265625 C 21.601563 243.929688 21.789063 243.476563 21.789063 243 Z M 21.789063 243 "/>
<path style=" stroke:none;fill-rule:evenodd;fill:rgb(99.998474%,0%,0%);fill-opacity:0.6;" d="M 21.789063 242 C 21.789063 241.523438 21.601563 241.070313 21.265625 240.734375 C 20.929688 240.398438 20.476563 240.210938 20 240.210938 C 19.523438 240.210938 19.070313 240.398438 18.734375 240.734375 C 18.398438 241.070313 18.210938 241.523438 18.210938 242 C 18.210938 242.476563 18.398438 242.929688 18.734375 243.265625 C 19.070313 243.601563 19.523438 243.789063 20 243.789063 C 20.476563 243.789063 20.929688 243.601563 21.265625 243.265625 C 21.601563 242.929688 21.789063 242.476563 21.789063 242 Z M 21.789063 242 "/>
<path style=" stroke:none;fill-rule:evenodd;fill:rgb(99.998474%,0%,0%);fill-opacity:0.6;" d="M 207.789063 242 C 207.789063 241.523438 207.601563 241.070313 207.265625 240.734375 C 206.929688 240.398438 206.476563 240.210938 206 240.210938 C 205.523438 240.210938 205.070313 240.398438 204.734375 240.734375 C 204.398438 241.070313 204.210938 241.523438 204.210938 242 C 204.210938 242.476563 204.398438 242.929688 204.734375 243.265625 C 205.070313 243.601563 205.523438 243.789063 206 243.789063 C 206.476563 243.789063 206.929688 243.601563 207.265625 243.265625 C 207.601563 242.929688 207.789063 242.476563 207.789063 242 Z M 207.789063 242 "/>
<path style=" stroke:none;fill-rule:evenodd;fill:rgb(99.998474%,0%,0%);fill-opacity:0.6;" d="M 207.789063 242 C 207.789063 241.523438 207.601563 241.070313 207.265625 240.734375 C 206.929688 240.398438 206.476563 240.210938 206 240.210938 C 205.523438 240.210938 205.070313 240.398438 204.734375 240.734375 C 204.398438 241.070313 204.210938 241.523438 204.210938 242 C 204.210938 242.476563 204.398438 242.929688 204.734375 243.265625 C 205.070313 243.601563 205.523438 243.789063 206 243.789063 C 206.476563 243.789063 206.929688 243.601563 207.265625 243.265625 C 207.601563 242.929688 207.789063 242.476563 207.789063 242 Z M 207.789063 242 "/>
<path style=" stroke:none;fill-rule:evenodd;fill:rgb(99.998474%,0%,0%);fill-opacity:0.6;" d="M 30.789063 239 C 30.789063 238.523438 30.601563 238.070313 30.265625 237.734375 C 29.929688 237.398438 29.476563 237.210938 29 237.210938 C 28.523438 237.210938 28.070313 237.398438 27.734375 237.734375 C 27.398438 238.070313 27.210938 238.523438 27.210938 239 C 27.210938 239.476563 27.398438 239.929688 27.734375 240.265625 C 28.070313 240.601563 28.523438 240.789063 29 240.789063 C 29.476563 240.789063 29.929688 240.601563 30.265625 240.265625 C 30.601563 239.929688 30.789063 239.476563 30.789063 239 Z M 30.789063 239 "/>
<path style=" stroke:none;fill-rule:evenodd;fill:rgb(99.998474%,0%,0%);fill-opacity:0.6;" d="M 195.789063 237 C 195.789063 236.523438 195.601563 236.070313 195.265625 235.734375 C 194.929688 235.398438 194.476563 235.210938 194 235.210938 C 193.523438 235.210938 193.070313 235.398438 192.734375 235.734375 C 192.398438 236.070313 192.210938 236.523438 192.210938 237 C 192.210938 237.476563 192.398438 237.929688 192.734375 238.265625 C 193.070313 238.601563 193.523438 238.789063 194 238.789063 C 194.476563 238.789063 194.929688 238.601563 195.265625 238.265625 C 195.601563 237.929688 195.789063 237.476563 195.789063 237 Z M 195.789063 237 "/>
<path style=" stroke:none;fill-rule:evenodd;fill:rgb(99.998474%,0%,0%);fill-opacity:0.6;" d="M 194.789063 236 C 194.789063 235.523438 194.601563 235.070313 194.265625 234.734375 C 193.929688 234.398438 193.476563 234.210938 193 234.210938 C 192.523438 234.210938 192.070313 234.398438 191.734375 234.734375 C 191.398438 235.070313 191.210938 235.523438 191.210938 236 C 191.210938 236.476563 191.398438 236.929688 191.734375 237.265625 C 192.070313 237.601563 192.523438 237.789063 193 237.789063 C 193.476563 237.789063 193.929688 237.601563 194.265625 237.265625 C 194.601563 236.929688 194.789063 236.476563 194.789063 236 Z M 194.789063 236 "/>
<path style=" stroke:none;fill-rule:evenodd;fill:rgb(99.998474%,0%,0%);fill-opacity:0.6;" d="M 196.789063 235 C 196.789063 234.523438 196.601563 234.070313 196.265625 233.734375 C 195.929688 233.398438 195.476563 233.210938 195 233.210938 C 194.523438 233.210938 194.070313 233.398438 193.734375 233.734375 C 193.398438 234.070313 193.210938 234.523438 193.210938 235 C 193.210938 235.476563 193.398438 235.929688 193.734375 236.265625 C 194.070313 236.601563 194.523438 236.789063 195 236.789063 C 195.476563 236.789063 195.929688 236.601563 196.265625 236.265625 C 196.601563 235.929688 196.789063 235.476563 196.789063 235 Z M 196.789063 235 "/>
<path style=" stroke:none;fill-rule:evenodd;fill:rgb(99.998474%,0%,0%);fill-opacity:0.6;" d="M 191.789063 224 C 191.789063 223.523438 191.601563 223.070313 191.265625 222.734375 C 190.929688 222.398438 190.476563 222.210938 190 222.210938 C 189.523438 222.210938 189.070313 222.398438 188.734375 222.734375 C 188.398438 223.070313 188.210938 223.523438 188.210938 224 C 188.210938 224.476563 188.398438 224.929688 188.734375 225.265625 C 189.070313 225.601563 189.523438 225.789063 190 225.789063 C 190.476563 225.789063 190.929688 225.601563 191.265625 225.265625 C 191.601563 224.929688 191.789063 224.476563 191.789063 224 Z M 191.789063 224 "/>
<path style=" stroke:none;fill-rule:evenodd;fill:rgb(99.998474%,0%,0%);fill-opacity:0.6;" d="M 300.789063 220 C 300.789063 219.523438 300.601563 219.070313 300.265625 218.734375 C 299.929688 218.398438 299.476563 218.210938 299 218.210938 C 298.523438 218.210938 298.070313 218.398438 297.734375 218.734375 C 297.398438 219.070313 297.210938 219.523438 297.210938 220 C 297.210938 220.476563 297.398438 220.929688 297.734375 221.265625 C 298.070313 221.601563 298.523438 221.789063 299 221.789063 C 299.476563 221.789063 299.929688 221.601563 300.265625 221.265625 C 300.601563 220.929688 300.789063 220.476563 300.789063 220 Z M 300.789063 220 "/>
<path style=" stroke:none;fill-rule:evenodd;fill:rgb(99.998474%,0%,0%);fill-opacity:0.6;" d="M 346.789063 206 C 346.789063 205.523438 346.601563 205.070313 346.265625 204.734375 C 345.929688 204.398438 345.476563 204.210938 345 204.210938 C 344.523438 204.210938 344.070313 204.398438 343.734375 204.734375 C 343.398438 205.070313 343.210938 205.523438 343.210938 206 C 343.210938 206.476563 343.398438 206.929688 343.734375 207.265625 C 344.070313 207.601563 344.523438 207.789063 345 207.789063 C 345.476563 207.789063 345.929688 207.601563 346.265625 207.265625 C 346.601563 206.929688 346.789063 206.476563 346.789063 206 Z M 346.789063 206 "/>
<path style=" stroke:none;fill-rule:evenodd;fill:rgb(99.998474%,0%,0%);fill-opacity:0.6;" d="M 346.789063 206 C 346.789063 205.523438 346.601563 205.070313 346.265625 204.734375 C 345.929688 204.398438 345.476563 204.210938 345 204.210938 C 344.523438 204.210938 344.070313 204.398438 343.734375 204.734375 C 343.398438 205.070313 343.210938 205.523438 343.210938 206 C 343.210938 206.476563 343.398438 206.929688 343.734375 207.265625 C 344.070313 207.601563 344.523438 207.789063 345 207.789063 C 345.476563 207.789063 345.929688 207.601563 346.265625 207.265625 C 346.601563 206.929688 346.789063 206.476563 346.789063 206 Z M 346.789063 206 "/>
<path style=" stroke:none;fill-rule:evenodd;fill:rgb(99.998474%,0%,0%);fill-opacity:0.6;" d="M 120.789063 197 C 120.789063 196.523438 120.601563 196.070313 120.265625 195.734375 C 119.929688 195.398438 119.476563 195.210938 119 195.210938 C 118.523438 195.210938 118.070313 195.398438 117.734375 195.734375 C 117.398438 196.070313 117.210938 196.523438 117.210938 197 C 117.210938 197.476563 117.398438 197.929688 117.734375 198.265625 C 118.070313 198.601563 118.523438 198.789063 119 198.789063 C 119.476563 198.789063 119.929688 198.601563 120.265625 198.265625 C 120.601563 197.929688 120.789063 197.476563 120.789063 197 Z M 120.789063 197 "/>
<path style=" stroke:none;fill-rule:evenodd;fill:rgb(99.998474%,0%,0%);fill-opacity:0.6;" d="M 114.789063 197 C 114.789063 196.523438 114.601563 196.070313 114.265625 195.734375 C 113.929688 195.398438 113.476563 195.210938 113 195.210938 C 112.523438 195.210938 112.070313 195.398438 111.734375 195.734375 C 111.398438 196.070313 111.210938 196.523438 111.210938 197 C 111.210938 197.476563 111.398438 197.929688 111.734375 198.265625 C 112.070313 198.601563 112.523438 198.789063 113 198.789063 C 113.476563 198.789063 113.929688 198.601563 114.265625 198.265625 C 114.601563 197.929688 114.789063 197.476563 114.789063 197 Z M 114.789063 197 "/>
<path style=" stroke:none;fill-rule:evenodd;fill:rgb(99.998474%,0%,0%);fill-opacity:0.6;" d="M 120.789063 197 C 120.789063 196.523438 120.601563 196.070313 120.265625 195.734375 C 119.929688 195.398438 119.476563 195.210938 119 195.210938 C 118.523438 195.210938 118.070313 195.398438 117.734375 195.734375 C 117.398438 196.070313 117.210938 196.523438 117.210938 197 C 117.210938 197.476563 117.398438 197.929688 117.734375 198.265625 C 118.070313 198.601563 118.523438 198.789063 119 198.789063 C 119.476563 198.789063 119.929688 198.601563 120.265625 198.265625 C 120.601563 197.929688 120.789063 197.476563 120.789063 197 Z M 120.789063 197 "/>
<path style=" stroke:none;fill-rule:evenodd;fill:rgb(99.998474%,0%,0%);fill-opacity:0.6;" d="M 142.789063 151 C 142.789063 150.523438 142.601563 150.070313 142.265625 149.734375 C 141.929688 149.398438 141.476563 149.210938 141 149.210938 C 140.523438 149.210938 140.070313 149.398438 139.734375 149.734375 C 139.398438 150.070313 139.210938 150.523438 139.210938 151 C 139.210938 151.476563 139.398438 151.929688 139.734375 152.265625 C 140.070313 152.601563 140.523438 152.789063 141 152.789063 C 141.476563 152.789063 141.929688 152.601563 142.265625 152.265625 C 142.601563 151.929688 142.789063 151.476563 142.789063 151 Z M 142.789063 151 "/>
<path style=" stroke:none;fill-rule:evenodd;fill:rgb(99.998474%,0%,0%);fill-opacity:0.6;" d="M 295.789063 147 C 295.789063 146.523438 295.601563 146.070313 295.265625 145.734375 C 294.929688 145.398438 294.476563 145.210938 294 145.210938 C 293.523438 145.210938 293.070313 145.398438 292.734375 145.734375 C 292.398438 146.070313 292.210938 146.523438 292.210938 147 C 292.210938 147.476563 292.398438 147.929688 292.734375 148.265625 C 293.070313 148.601563 293.523438 148.789063 294 148.789063 C 294.476563 148.789063 294.929688 148.601563 295.265625 148.265625 C 295.601563 147.929688 295.789063 147.476563 295.789063 147 Z M 295.789063 147 "/>
<path style=" stroke:none;fill-rule:evenodd;fill:rgb(99.998474%,0%,0%);fill-opacity:0.6;" d="M 232.789063 140 C 232.789063 139.523438 232.601563 139.070313 232.265625 138.734375 C 231.929688 138.398438 231.476563 138.210938 231 138.210938 C 230.523438 138.210938 230.070313 138.398438 229.734375 138.734375 C 229.398438 139.070313 229.210938 139.523438 229.210938 140 C 229.210938 140.476563 229.398438 140.929688 229.734375 141.265625 C 230.070313 141.601563 230.523438 141.789063 231 141.789063 C 231.476563 141.789063 231.929688 141.601563 232.265625 141.265625 C 232.601563 140.929688 232.789063 140.476563 232.789063 140 Z M 232.789063 140 "/>
<path style=" stroke:none;fill-rule:evenodd;fill:rgb(99.998474%,0%,0%);fill-opacity:0.6;" d="M 229.789063 140 C 229.789063 139.523438 229.601563 139.070313 229.265625 138.734375 C 228.929688 138.398438 228.476563 138.210938 228 138.210938 C 227.523438 138.210938 227.070313 138.398438 226.734375 138.734375 C 226.398438 139.070313 226.210938 139.523438 226.210938 140 C 226.210938 140.476563 226.398438 140.929688 226.734375 141.265625 C 227.070313 141.601563 227.523438 141.789063 228 141.789063 C 228.476563 141.789063 228.929688 141.601563 229.265625 141.265625 C 229.601563 140.929688 229.789063 140.476563 229.789063 140 Z M 229.789063 140 "/>
<path style=" stroke:none;fill-rule:evenodd;fill:rgb(99.998474%,0%,0%);fill-opacity:0.6;" d="M 122.789063 79 C 122.789063 78.523438 122.601563 78.070313 122.265625 77.734375 C 121.929688 77.398438 121.476563 77.210938 121 77.210938 C 120.523438 77.210938 120.070313 77.398438 119.734375 77.734375 C 119.398438 78.070313 119.210938 78.523438 119.210938 79 C 119.210938 79.476563 119.398438 79.929688 119.734375 80.265625 C 120.070313 80.601563 120.523438 80.789063 121 80.789063 C 121.476563 80.789063 121.929688 80.601563 122.265625 80.265625 C 122.601563 79.929688 122.789063 79.476563 122.789063 79 Z M 122.789063 79 "/>
<path style=" stroke:none;fill-rule:evenodd;fill:rgb(99.998474%,0%,0%);fill-opacity:0.6;" d="M 121.789063 77 C 121.789063 76.523438 121.601563 76.070313 121.265625 75.734375 C 120.929688 75.398438 120.476563 75.210938 120 75.210938 C 119.523438 75.210938 119.070313 75.398438 118.734375 75.734375 C 118.398438 76.070313 118.210938 76.523438 118.210938 77 C 118.210938 77.476563 118.398438 77.929688 118.734375 78.265625 C 119.070313 78.601563 119.523438 78.789063 120 78.789063 C 120.476563 78.789063 120.929688 78.601563 121.265625 78.265625 C 121.601563 77.929688 121.789063 77.476563 121.789063 77 Z M 121.789063 77 "/>
<path style=" stroke:none;fill-rule:evenodd;fill:rgb(99.998474%,0%,0%);fill-opacity:0.6;" d="M 228.789063 71 C 228.789063 70.523438 228.601563 70.070313 228.265625 69.734375 C 227.929688 69.398438 227.476563 69.210938 227 69.210938 C 226.523438 69.210938 226.070313 69.398438 225.734375 69.734375 C 225.398438 70.070313 225.210938 70.523438 225.210938 71 C 225.210938 71.476563 225.398438 71.929688 225.734375 72.265625 C 226.070313 72.601563 226.523438 72.789063 227 72.789063 C 227.476563 72.789063 227.929688 72.601563 228.265625 72.265625 C 228.601563 71.929688 228.789063 71.476563 228.789063 71 Z M 228.789063 71 "/>
<path style=" stroke:none;fill-rule:evenodd;fill:rgb(99.998474%,0%,0%);fill-opacity:0.6;" d="M 64.789063 44 C 64.789063 43.523438 64.601563 43.070313 64.265625 42.734375 C 63.929688 42.398438 63.476563 42.210938 63 42.210938 C 62.523438 42.210938 62.070313 42.398438 61.734375 42.734375 C 61.398438 43.070313 61.210938 43.523438 61.210938 44 C 61.210938 44.476563 61.398438 44.929688 61.734375 45.265625 C 62.070313 45.601563 62.523438 45.789063 63 45.789063 C 63.476563 45.789063 63.929688 45.601563 64.265625 45.265625 C 64.601563 44.929688 64.789063 44.476563 64.789063 44 Z M 64.789063 44 "/>
<path style=" stroke:none;fill-rule:evenodd;fill:rgb(99.998474%,0%,0%);fill-opacity:0.6;" d="M 81.789063 24 C 81.789063 23.523438 81.601563 23.070313 81.265625 22.734375 C 80.929688 22.398438 80.476563 22.210938 80 22.210938 C 79.523438 22.210938 79.070313 22.398438 78.734375 22.734375 C 78.398438 23.070313 78.210938 23.523438 78.210938 24 C 78.210938 24.476563 78.398438 24.929688 78.734375 25.265625 C 79.070313 25.601563 79.523438 25.789063 80 25.789063 C 80.476563 25.789063 80.929688 25.601563 81.265625 25.265625 C 81.601563 24.929688 81.789063 24.476563 81.789063 24 Z M 81.789063 24 "/>
<path style=" stroke:none;fill-rule:evenodd;fill:rgb(99.998474%,0%,0%);fill-opacity:0.6;" d="M 197.789063 24 C 197.789063 23.523438 197.601563 23.070313 197.265625 22.734375 C 196.929688 22.398438 196.476563 22.210938 196 22.210938 C 195.523438 22.210938 195.070313 22.398438 194.734375 22.734375 C 194.398438 23.070313 194.210938 23.523438 194.210938 24 C 194.210938 24.476563 194.398438 24.929688 194.734375 25.265625 C 195.070313 25.601563 195.523438 25.789063 196 25.789063 C 196.476563 25.789063 196.929688 25.601563 197.265625 25.265625 C 197.601563 24.929688 197.789063 24.476563 197.789063 24 Z M 197.789063 24 "/>
<path style=" stroke:none;fill-rule:evenodd;fill:rgb(99.998474%,0%,0%);fill-opacity:0.6;" d="M 171.789063 16 C 171.789063 15.523438 171.601563 15.070313 171.265625 14.734375 C 170.929688 14.398438 170.476563 14.210938 170 14.210938 C 169.523438 14.210938 169.070313 14.398438 168.734375 14.734375 C 168.398438 15.070313 168.210938 15.523438 168.210938 16 C 168.210938 16.476563 168.398438 16.929688 168.734375 17.265625 C 169.070313 17.601563 169.523438 17.789063 170 17.789063 C 170.476563 17.789063 170.929688 17.601563 171.265625 17.265625 C 171.601563 16.929688 171.789063 16.476563 171.789063 16 Z M 171.789063 16 "/>
<path style=" stroke:none;fill-rule:evenodd;fill:rgb(99.998474%,0%,0%);fill-opacity:1;" d="M 226.5 295 C 226.5 294.601563 226.34375 294.21875 226.0625 293.9375 C 225.78125 293.65625 225.398438 293.5 225 293.5 C 224.601563 293.5 224.21875 293.65625 223.9375 293.9375 C 223.65625 294.21875 223.5 294.601563 223.5 295 C 223.5 295.398438 223.65625 295.78125 223.9375 296.0625 C 224.21875 296.34375 224.601563 296.5 225 296.5 C 225.398438 296.5 225.78125 296.34375 226.0625 296.0625 C 226.34375 295.78125 226.5 295.398438 226.5 295 Z M 226.5 295 "/>
<path style=" stroke:none;fill-rule:evenodd;fill:rgb(99.998474%,0%,0%);fill-opacity:1;" d="M 222.5 294 C 222.5 293.601563 222.34375 293.21875 222.0625 292.9375 C 221.78125 292.65625 221.398438 292.5 221 292.5 C 220.601563 292.5 220.21875 292.65625 219.9375 292.9375 C 219.65625 293.21875 219.5 293.601563 219.5 294 C 219.5 294.398438 219.65625 294.78125 219.9375 295.0625 C 220.21875 295.34375 220.601563 295.5 221 295.5 C 221.398438 295.5 221.78125 295.34375 222.0625 295.0625 C 222.34375 294.78125 222.5 294.398438 222.5 294 Z M 222.5 294 "/>
<path style=" stroke:none;fill-rule:evenodd;fill:rgb(99.998474%,0%,0%);fill-opacity:1;" d="M 209.5 293 C 209.5 292.601563 209.34375 292.21875 209.0625 291.9375 C 208.78125 291.65625 208.398438 291.5 208 291.5 C 207.601563 291.5 207.21875 291.65625 206.9375 291.9375 C 206.65625 292.21875 206.5 292.601563 206.5 293 C 206.5 293.398438 206.65625 293.78125 206.9375 294.0625 C 207.21875 294.34375 207.601563 294.5 208 294.5 C 208.398438 294.5 208.78125 294.34375 209.0625 294.0625 C 209.34375 293.78125 209.5 293.398438 209.5 293 Z M 209.5 293 "/>
<path style=" stroke:none;fill-rule:evenodd;fill:rgb(99.998474%,0%,0%);fill-opacity:1;" d="M 70.5 278 C 70.5 277.601563 70.34375 277.21875 70.0625 276.9375 C 69.78125 276.65625 69.398438 276.5 69 276.5 C 68.601563 276.5 68.21875 276.65625 67.9375 276.9375 C 67.65625 277.21875 67.5 277.601563 67.5 278 C 67.5 278.398438 67.65625 278.78125 67.9375 279.0625 C 68.21875 279.34375 68.601563 279.5 69 279.5 C 69.398438 279.5 69.78125 279.34375 70.0625 279.0625 C 70.34375 278.78125 70.5 278.398438 70.5 278 Z M 70.5 278 "/>
<path style=" stroke:none;fill-rule:evenodd;fill:rgb(99.998474%,0%,0%);fill-opacity:1;" d="M 71.5 276 C 71.5 275.601563 71.34375 275.21875 71.0625 274.9375 C 70.78125 274.65625 70.398438 274.5 70 274.5 C 69.601563 274.5 69.21875 274.65625 68.9375 274.9375 C 68.65625 275.21875 68.5 275.601563 68.5 276 C 68.5 276.398438 68.65625 276.78125 68.9375 277.0625 C 69.21875 277.34375 69.601563 277.5 70 277.5 C 70.398438 277.5 70.78125 277.34375 71.0625 277.0625 C 71.34375 276.78125 71.5 276.398438 71.5 276 Z M 71.5 276 "/>
<path style=" stroke:none;fill-rule:evenodd;fill:rgb(99.998474%,0%,0%);fill-opacity:1;" d="M 208.5 245 C 208.5 244.601563 208.34375 244.21875 208.0625 243.9375 C 207.78125 243.65625 207.398438 243.5 207 243.5 C 206.601563 243.5 206.21875 243.65625 205.9375 243.9375 C 205.65625 244.21875 205.5 244.601563 205.5 245 C 205.5 245.398438 205.65625 245.78125 205.9375 246.0625 C 206.21875 246.34375 206.601563 246.5 207 246.5 C 207.398438 246.5 207.78125 246.34375 208.0625 246.0625 C 208.34375 245.78125 208.5 245.398438 208.5 245 Z M 208.5 245 "/>
<path style=" stroke:none;fill-rule:evenodd;fill:rgb(99.998474%,0%,0%);fill-opacity:1;" d="M 208.5 245 C 208.5 244.601563 208.34375 244.21875 208.0625 243.9375 C 207.78125 243.65625 207.398438 243.5 207 243.5 C 206.601563 243.5 206.21875 243.65625 205.9375 243.9375 C 205.65625 244.21875 205.5 244.601563 205.5 245 C 205.5 245.398438 205.65625 245.78125 205.9375 246.0625 C 206.21875 246.34375 206.601563 246.5 207 246.5 C 207.398438 246.5 207.78125 246.34375 208.0625 246.0625 C 208.34375 245.78125 208.5 245.398438 208.5 245 Z M 208.5 245 "/>
<path style=" stroke:none;fill-rule:evenodd;fill:rgb(99.998474%,0%,0%);fill-opacity:1;" d="M 21.5 243 C 21.5 242.601563 21.34375 242.21875 21.0625 241.9375 C 20.78125 241.65625 20.398438 241.5 20 241.5 C 19.601563 241.5 19.21875 241.65625 18.9375 241.9375 C 18.65625 242.21875 18.5 242.601563 18.5 243 C 18.5 243.398438 18.65625 243.78125 18.9375 244.0625 C 19.21875 244.34375 19.601563 244.5 20 244.5 C 20.398438 244.5 20.78125 244.34375 21.0625 244.0625 C 21.34375 243.78125 21.5 243.398438 21.5 243 Z M 21.5 243 "/>
<path style=" stroke:none;fill-rule:evenodd;fill:rgb(99.998474%,0%,0%);fill-opacity:1;" d="M 21.5 242 C 21.5 241.601563 21.34375 241.21875 21.0625 240.9375 C 20.78125 240.65625 20.398438 240.5 20 240.5 C 19.601563 240.5 19.21875 240.65625 18.9375 240.9375 C 18.65625 241.21875 18.5 241.601563 18.5 242 C 18.5 242.398438 18.65625 242.78125 18.9375 243.0625 C 19.21875 243.34375 19.601563 243.5 20 243.5 C 20.398438 243.5 20.78125 243.34375 21.0625 243.0625 C 21.34375 242.78125 21.5 242.398438 21.5 242 Z M 21.5 242 "/>
<path style=" stroke:none;fill-rule:evenodd;fill:rgb(99.998474%,0%,0%);fill-opacity:1;" d="M 207.5 242 C 207.5 241.601563 207.34375 241.21875 207.0625 240.9375 C 206.78125 240.65625 206.398438 240.5 206 240.5 C 205.601563 240.5 205.21875 240.65625 204.9375 240.9375 C 204.65625 241.21875 204.5 241.601563 204.5 242 C 204.5 242.398438 204.65625 242.78125 204.9375 243.0625 C 205.21875 243.34375 205.601563 243.5 206 243.5 C 206.398438 243.5 206.78125 243.34375 207.0625 243.0625 C 207.34375 242.78125 207.5 242.398438 207.5 242 Z M 207.5 242 "/>
<path style=" stroke:none;fill-rule:evenodd;fill:rgb(99.998474%,0%,0%);fill-opacity:1;" d="M 207.5 242 C 207.5 241.601563 207.34375 241.21875 207.0625 240.9375 C 206.78125 240.65625 206.398438 240.5 206 240.5 C 205.601563 240.5 205.21875 240.65625 204.9375 240.9375 C 204.65625 241.21875 204.5 241.601563 204.5 242 C 204.5 242.398438 204.65625 242.78125 204.9375 243.0625 C 205.21875 243.34375 205.601563 243.5 206 243.5 C 206.398438 243.5 206.78125 243.34375 207.0625 243.0625 C 207.34375 242.78125 207.5 242.398438 207.5 242 Z M 207.5 242 "/>
<path style=" stroke:none;fill-rule:evenodd;fill:rgb(99.998474%,0%,0%);fill-opacity:1;" d="M 30.5 239 C 30.5 238.601563 30.34375 238.21875 30.0625 237.9375 C 29.78125 237.65625 29.398438 237.5 29 237.5 C 28.601563 237.5 28.21875 237.65625 27.9375 237.9375 C 27.65625 238.21875 27.5 238.601563 27.5 239 C 27.5 239.398438 27.65625 239.78125 27.9375 240.0625 C 28.21875 240.34375 28.601563 240.5 29 240.5 C 29.398438 240.5 29.78125 240.34375 30.0625 240.0625 C 30.34375 239.78125 30.5 239.398438 30.5 239 Z M 30.5 239 "/>
<path style=" stroke:none;fill-rule:evenodd;fill:rgb(99.998474%,0%,0%);fill-opacity:1;" d="M 195.5 237 C 195.5 236.601563 195.34375 236.21875 195.0625 235.9375 C 194.78125 235.65625 194.398438 235.5 194 235.5 C 193.601563 235.5 193.21875 235.65625 192.9375 235.9375 C 192.65625 236.21875 192.5 236.601563 192.5 237 C 192.5 237.398438 192.65625 237.78125 192.9375 238.0625 C 193.21875 238.34375 193.601563 238.5 194 238.5 C 194.398438 238.5 194.78125 238.34375 195.0625 238.0625 C 195.34375 237.78125 195.5 237.398438 195.5 237 Z M 195.5 237 "/>
<path style=" stroke:none;fill-rule:evenodd;fill:rgb(99.998474%,0%,0%);fill-opacity:1;" d="M 194.5 236 C 194.5 235.601563 194.34375 235.21875 194.0625 234.9375 C 193.78125 234.65625 193.398438 234.5 193 234.5 C 192.601563 234.5 192.21875 234.65625 191.9375 234.9375 C 191.65625 235.21875 191.5 235.601563 191.5 236 C 191.5 236.398438 191.65625 236.78125 191.9375 237.0625 C 192.21875 237.34375 192.601563 237.5 193 237.5 C 193.398438 237.5 193.78125 237.34375 194.0625 237.0625 C 194.34375 236.78125 194.5 236.398438 194.5 236 Z M 194.5 236 "/>
<path style=" stroke:none;fill-rule:evenodd;fill:rgb(99.998474%,0%,0%);fill-opacity:1;" d="M 196.5 235 C 196.5 234.601563 196.34375 234.21875 196.0625 233.9375 C 195.78125 233.65625 195.398438 233.5 195 233.5 C 194.601563 233.5 194.21875 233.65625 193.9375 233.9375 C 193.65625 234.21875 193.5 234.601563 193.5 235 C 193.5 235.398438 193.65625 235.78125 193.9375 236.0625 C 194.21875 236.34375 194.601563 236.5 195 236.5 C 195.398438 236.5 195.78125 236.34375 196.0625 236.0625 C 196.34375 235.78125 196.5 235.398438 196.5 235 Z M 196.5 235 "/>
<path style=" stroke:none;fill-rule:evenodd;fill:rgb(99.998474%,0%,0%);fill-opacity:1;" d="M 191.5 224 C 191.5 223.601563 191.34375 223.21875 191.0625 222.9375 C 190.78125 222.65625 190.398438 222.5 190 222.5 C 189.601563 222.5 189.21875 222.65625 188.9375 222.9375 C 188.65625 223.21875 188.5 223.601563 188.5 224 C 188.5 224.398438 188.65625 224.78125 188.9375 225.0625 C 189.21875 225.34375 189.601563 225.5 190 225.5 C 190.398438 225.5 190.78125 225.34375 191.0625 225.0625 C 191.34375 224.78125 191.5 224.398438 191.5 224 Z M 191.5 224 "/>
<path style=" stroke:none;fill-rule:evenodd;fill:rgb(99.998474%,0%,0%);fill-opacity:1;" d="M 300.5 220 C 300.5 219.601563 300.34375 219.21875 300.0625 218.9375 C 299.78125 218.65625 299.398438 218.5 299 218.5 C 298.601563 218.5 298.21875 218.65625 297.9375 218.9375 C 297.65625 219.21875 297.5 219.601563 297.5 220 C 297.5 220.398438 297.65625 220.78125 297.9375 221.0625 C 298.21875 221.34375 298.601563 221.5 299 221.5 C 299.398438 221.5 299.78125 221.34375 300.0625 221.0625 C 300.34375 220.78125 300.5 220.398438 300.5 220 Z M 300.5 220 "/>
<path style=" stroke:none;fill-rule:evenodd;fill:rgb(99.998474%,0%,0%);fill-opacity:1;" d="M 346.5 206 C 346.5 205.601563 346.34375 205.21875 346.0625 204.9375 C 345.78125 204.65625 345.398438 204.5 345 204.5 C 344.601563 204.5 344.21875 204.65625 343.9375 204.9375 C 343.65625 205.21875 343.5 205.601563 343.5 206 C 343.5 206.398438 343.65625 206.78125 343.9375 207.0625 C 344.21875 207.34375 344.601563 207.5 345 207.5 C 345.398438 207.5 345.78125 207.34375 346.0625 207.0625 C 346.34375 206.78125 346.5 206.398438 346.5 206 Z M 346.5 206 "/>
<path style=" stroke:none;fill-rule:evenodd;fill:rgb(99.998474%,0%,0%);fill-opacity:1;" d="M 346.5 206 C 346.5 205.601563 346.34375 205.21875 346.0625 204.9375 C 345.78125 204.65625 345.398438 204.5 345 204.5 C 344.601563 204.5 344.21875 204.65625 343.9375 204.9375 C 343.65625 205.21875 343.5 205.601563 343.5 206 C 343.5 206.398438 343.65625 206.78125 343.9375 207.0625 C 344.21875 207.34375 344.601563 207.5 345 207.5 C 345.398438 207.5 345.78125 207.34375 346.0625 207.0625 C 346.34375 206.78125 346.5 206.398438 346.5 206 Z M 346.5 206 "/>
<path style=" stroke:none;fill-rule:evenodd;fill:rgb(99.998474%,0%,0%);fill-opacity:1;" d="M 120.5 197 C 120.5 196.601563 120.34375 196.21875 120.0625 195.9375 C 119.78125 195.65625 119.398438 195.5 119 195.5 C 118.601563 195.5 118.21875 195.65625 117.9375 195.9375 C 117.65625 196.21875 117.5 196.601563 117.5 197 C 117.5 197.398438 117.65625 197.78125 117.9375 198.0625 C 118.21875 198.34375 118.601563 198.5 119 198.5 C 119.398438 198.5 119.78125 198.34375 120.0625 198.0625 C 120.34375 197.78125 120.5 197.398438 120.5 197 Z M 120.5 197 "/>
<path style=" stroke:none;fill-rule:evenodd;fill:rgb(99.998474%,0%,0%);fill-opacity:1;" d="M 114.5 197 C 114.5 196.601563 114.34375 196.21875 114.0625 195.9375 C 113.78125 195.65625 113.398438 195.5 113 195.5 C 112.601563 195.5 112.21875 195.65625 111.9375 195.9375 C 111.65625 196.21875 111.5 196.601563 111.5 197 C 111.5 197.398438 111.65625 197.78125 111.9375 198.0625 C 112.21875 198.34375 112.601563 198.5 113 198.5 C 113.398438 198.5 113.78125 198.34375 114.0625 198.0625 C 114.34375 197.78125 114.5 197.398438 114.5 197 Z M 114.5 197 "/>
<path style=" stroke:none;fill-rule:evenodd;fill:rgb(99.998474%,0%,0%);fill-opacity:1;" d="M 120.5 197 C 120.5 196.601563 120.34375 196.21875 120.0625 195.9375 C 119.78125 195.65625 119.398438 195.5 119 195.5 C 118.601563 195.5 118.21875 195.65625 117.9375 195.9375 C 117.65625 196.21875 117.5 196.601563 117.5 197 C 117.5 197.398438 117.65625 197.78125 117.9375 198.0625 C 118.21875 198.34375 118.601563 198.5 119 198.5 C 119.398438 198.5 119.78125 198.34375 120.0625 198.0625 C 120.34375 197.78125 120.5 197.398438 120.5 197 Z M 120.5 197 "/>
<path style=" stroke:none;fill-rule:evenodd;fill:rgb(99.998474%,0%,0%);fill-opacity:1;" d="M 142.5 151 C 142.5 150.601563 142.34375 150.21875 142.0625 149.9375 C 141.78125 149.65625 141.398438 149.5 141 149.5 C 140.601563 149.5 140.21875 149.65625 139.9375 149.9375 C 139.65625 150.21875 139.5 150.601563 139.5 151 C 139.5 151.398438 139.65625 151.78125 139.9375 152.0625 C 140.21875 152.34375 140.601563 152.5 141 152.5 C 141.398438 152.5 141.78125 152.34375 142.0625 152.0625 C 142.34375 151.78125 142.5 151.398438 142.5 151 Z M 142.5 151 "/>
<path style=" stroke:none;fill-rule:evenodd;fill:rgb(99.998474%,0%,0%);fill-opacity:1;" d="M 295.5 147 C 295.5 146.601563 295.34375 146.21875 295.0625 145.9375 C 294.78125 145.65625 294.398438 145.5 294 145.5 C 293.601563 145.5 293.21875 145.65625 292.9375 145.9375 C 292.65625 146.21875 292.5 146.601563 292.5 147 C 292.5 147.398438 292.65625 147.78125 292.9375 148.0625 C 293.21875 148.34375 293.601563 148.5 294 148.5 C 294.398438 148.5 294.78125 148.34375 295.0625 148.0625 C 295.34375 147.78125 295.5 147.398438 295.5 147 Z M 295.5 147 "/>
<path style=" stroke:none;fill-rule:evenodd;fill:rgb(99.998474%,0%,0%);fill-opacity:1;" d="M 232.5 140 C 232.5 139.601563 232.34375 139.21875 232.0625 138.9375 C 231.78125 138.65625 231.398438 138.5 231 138.5 C 230.601563 138.5 230.21875 138.65625 229.9375 138.9375 C 229.65625 139.21875 229.5 139.601563 229.5 140 C 229.5 140.398438 229.65625 140.78125 229.9375 141.0625 C 230.21875 141.34375 230.601563 141.5 231 141.5 C 231.398438 141.5 231.78125 141.34375 232.0625 141.0625 C 232.34375 140.78125 232.5 140.398438 232.5 140 Z M 232.5 140 "/>
<path style=" stroke:none;fill-rule:evenodd;fill:rgb(99.998474%,0%,0%);fill-opacity:1;" d="M 229.5 140 C 229.5 139.601563 229.34375 139.21875 229.0625 138.9375 C 228.78125 138.65625 228.398438 138.5 228 138.5 C 227.601563 138.5 227.21875 138.65625 226.9375 138.9375 C 226.65625 139.21875 226.5 139.601563 226.5 140 C 226.5 140.398438 226.65625 140.78125 226.9375 141.0625 C 227.21875 141.34375 227.601563 141.5 228 141.5 C 228.398438 141.5 228.78125 141.34375 229.0625 141.0625 C 229.34375 140.78125 229.5 140.398438 229.5 140 Z M 229.5 140 "/>
<path style=" stroke:none;fill-rule:evenodd;fill:rgb(99.998474%,0%,0%);fill-opacity:1;" d="M 122.5 79 C 122.5 78.601563 122.34375 78.21875 122.0625 77.9375 C 121.78125 77.65625 121.398438 77.5 121 77.5 C 120.601563 77.5 120.21875 77.65625 119.9375 77.9375 C 119.65625 78.21875 119.5 78.601563 119.5 79 C 119.5 79.398438 119.65625 79.78125 119.9375 80.0625 C 120.21875 80.34375 120.601563 80.5 121 80.5 C 121.398438 80.5 121.78125 80.34375 122.0625 80.0625 C 122.34375 79.78125 122.5 79.398438 122.5 79 Z M 122.5 79 "/>
<path style=" stroke:none;fill-rule:evenodd;fill:rgb(99.998474%,0%,0%);fill-opacity:1;" d="M 121.5 77 C 121.5 76.601563 121.34375 76.21875 121.0625 75.9375 C 120.78125 75.65625 120.398438 75.5 120 75.5 C 119.601563 75.5 119.21875 75.65625 118.9375 75.9375 C 118.65625 76.21875 118.5 76.601563 118.5 77 C 118.5 77.398438 118.65625 77.78125 118.9375 78.0625 C 119.21875 78.34375 119.601563 78.5 120 78.5 C 120.398438 78.5 120.78125 78.34375 121.0625 78.0625 C 121.34375 77.78125 121.5 77.398438 121.5 77 Z M 121.5 77 "/>
<path style=" stroke:none;fill-rule:evenodd;fill:rgb(99.998474%,0%,0%);fill-opacity:1;" d="M 228.5 71 C 228.5 70.601563 228.34375 70.21875 228.0625 69.9375 C 227.78125 69.65625 227.398438 69.5 227 69.5 C 226.601563 69.5 226.21875 69.65625 225.9375 69.9375 C 225.65625 70.21875 225.5 70.601563 225.5 71 C 225.5 71.398438 225.65625 71.78125 225.9375 72.0625 C 226.21875 72.34375 226.601563 72.5 227 72.5 C 227.398438 72.5 227.78125 72.34375 228.0625 72.0625 C 228.34375 71.78125 228.5 71.398438 228.5 71 Z M 228.5 71 "/>
<path style=" stroke:none;fill-rule:evenodd;fill:rgb(99.998474%,0%,0%);fill-opacity:1;" d="M 64.5 44 C 64.5 43.601563 64.34375 43.21875 64.0625 42.9375 C 63.78125 42.65625 63.398438 42.5 63 42.5 C 62.601563 42.5 62.21875 42.65625 61.9375 42.9375 C 61.65625 43.21875 61.5 43.601563 61.5 44 C 61.5 44.398438 61.65625 44.78125 61.9375 45.0625 C 62.21875 45.34375 62.601563 45.5 63 45.5 C 63.398438 45.5 63.78125 45.34375 64.0625 45.0625 C 64.34375 44.78125 64.5 44.398438 64.5 44 Z M 64.5 44 "/>
<path style=" stroke:none;fill-rule:evenodd;fill:rgb(99.998474%,0%,0%);fill-opacity:1;" d="M 81.5 24 C 81.5 23.601563 81.34375 23.21875 81.0625 22.9375 C 80.78125 22.65625 80.398438 22.5 80 22.5 C 79.601563 22.5 79.21875 22.65625 78.9375 22.9375 C 78.65625 23.21875 78.5 23.601563 78.5 24 C 78.5 24.398438 78.65625 24.78125 78.9375 25.0625 C 79.21875 25.34375 79.601563 25.5 80 25.5 C 80.398438 25.5 80.78125 25.34375 81.0625 25.0625 C 81.34375 24.78125 81.5 24.398438 81.5 24 Z M 81.5 24 "/>
<path style=" stroke:none;fill-rule:evenodd;fill:rgb(99.998474%,0%,0%);fill-opacity:1;" d="M 197.5 24 C 197.5 23.601563 197.34375 23.21875 197.0625 22.9375 C 196.78125 22.65625 196.398438 22.5 196 22.5 C 195.601563 22.5 195.21875 22.65625 194.9375 22.9375 C 194.65625 23.21875 194.5 23.601563 194.5 24 C 194.5 24.398438 194.65625 24.78125 194.9375 25.0625 C 195.21875 25.34375 195.601563 25.5 196 25.5 C 196.398438 25.5 196.78125 25.34375 197.0625 25.0625 C 197.34375 24.78125 197.5 24.398438 197.5 24 Z M 197.5 24 "/>
<path style=" stroke:none;fill-rule:evenodd;fill:rgb(99.998474%,0%,0%);fill-opacity:1;" d="M 171.5 16 C 171.5 15.601563 171.34375 15.21875 171.0625 14.9375 C 170.78125 14.65625 170.398438 14.5 170 14.5 C 169.601563 14.5 169.21875 14.65625 168.9375 14.9375 C 168.65625 15.21875 168.5 15.601563 168.5 16 C 168.5 16.398438 168.65625 16.78125 168.9375 17.0625 C 169.21875 17.34375 169.601563 17.5 170 17.5 C 170.398438 17.5 170.78125 17.34375 171.0625 17.0625 C 171.34375 16.78125 171.5 16.398438 171.5 16 Z M 171.5 16 "/>
</g>
</svg>
