<?xml version="1.0" encoding="UTF-8"?>
<svg xmlns="http://www.w3.org/2000/svg" xmlns:xlink="http://www.w3.org/1999/xlink" width="360pt" height="359pt" viewBox="0 0 360 359" version="1.1">
<g id="surface172">
<path style="fill-rule:nonzero;fill:rgb(84.999084%,84.999084%,84.999084%);fill-opacity:0.6;stroke-width:1;stroke-linecap:square;stroke-linejoin:miter;stroke:rgb(50%,50%,50%);stroke-opacity:1;stroke-miterlimit:3.25;" d="M 105.703125 140.484375 L 159.21875 175.429688 L 109.539062 139.210938 Z M 105.703125 140.484375 " transform="matrix(1,0,0,1,-74,-13)"/>
<path style="fill-rule:nonzero;fill:rgb(84.999084%,84.999084%,84.999084%);fill-opacity:0.6;stroke-width:1;stroke-linecap:square;stroke-linejoin:miter;stroke:rgb(50%,50%,50%);stroke-opacity:1;stroke-miterlimit:3.25;" d="M 159.21875 175.429688 L 105.703125 140.484375 L 159.316406 175.851562 Z M 159.21875 175.429688 " transform="matrix(1,0,0,1,-74,-13)"/>
<path style="fill-rule:nonzero;fill:rgb(84.999084%,84.999084%,84.999084%);fill-opacity:0.6;stroke-width:1;stroke-linecap:square;stroke-linejoin:miter;stroke:rgb(50%,50%,50%);stroke-opacity:1;stroke-miterlimit:3.25;" d="M 159.316406 175.851562 L 204.191406 210.6875 L 168.308594 182.207031 Z M 159.316406 175.851562 " transform="matrix(1,0,0,1,-74,-13)"/>
<path style="fill-rule:nonzero;fill:rgb(84.999084%,84.999084%,84.999084%);fill-opacity:0.6;stroke-width:1;stroke-linecap:square;stroke-linejoin:miter;stroke:rgb(50%,50%,50%);stroke-opacity:1;stroke-miterlimit:3.25;" d="M 97.75 137.960938 L 204.191406 210.6875 L 159.316406 175.851562 Z M 97.75 137.960938 " transform="matrix(1,0,0,1,-74,-13)"/>
<path style="fill-rule:nonzero;fill:rgb(84.999084%,84.999084%,84.999084%);fill-opacity:0.6;stroke-width:1;stroke-linecap:square;stroke-linejoin:miter;stroke:rgb(50%,50%,50%);stroke-opacity:1;stroke-miterlimit:3.25;" d="M 136.066406 92.03125 L 168.308594 182.207031 L 258.117188 38.582031 Z M 136.066406 92.03125 " transform="matrix(1,0,0,1,-74,-13)"/>
<path style="fill-rule:nonzero;fill:rgb(84.999084%,84.999084%,84.999084%);fill-opacity:0.6;stroke-width:1;stroke-linecap:square;stroke-linejoin:miter;stroke:rgb(50%,50%,50%);stroke-opacity:1;stroke-miterlimit:3.25;" d="M 159.316406 175.851562 L 168.308594 182.207031 L 159.21875 175.429688 Z M 159.316406 175.851562 " transform="matrix(1,0,0,1,-74,-13)"/>
<path style="fill-rule:nonzero;fill:rgb(84.999084%,84.999084%,84.999084%);fill-opacity:0.6;stroke-width:1;stroke-linecap:square;stroke-linejoin:miter;stroke:rgb(50%,50%,50%);stroke-opacity:1;stroke-miterlimit:3.25;" d="M 159.316406 175.851562 L 105.703125 140.484375 L 98.820312 138.511719 Z M 159.316406 175.851562 " transform="matrix(1,0,0,1,-74,-13)"/>
<path style="fill-rule:nonzero;fill:rgb(84.999084%,84.999084%,84.999084%);fill-opacity:0.6;stroke-width:1;stroke-linecap:square;stroke-linejoin:miter;stroke:rgb(50%,50%,50%);stroke-opacity:1;stroke-miterlimit:3.25;" d="M 159.21875 175.429688 L 168.308594 182.207031 L 136.066406 92.03125 Z M 159.21875 175.429688 " transform="matrix(1,0,0,1,-74,-13)"/>
<path style="fill-rule:nonzero;fill:rgb(84.999084%,84.999084%,84.999084%);fill-opacity:0.6;stroke-width:1;stroke-linecap:square;stroke-linejoin:miter;stroke:rgb(50%,50%,50%);stroke-opacity:1;stroke-miterlimit:3.25;" d="M 97.75 137.960938 L 98.820312 138.511719 L 109.539062 139.210938 Z M 97.75 137.960938 " transform="matrix(1,0,0,1,-74,-13)"/>
<path style="fill-rule:nonzero;fill:rgb(84.999084%,84.999084%,84.999084%);fill-opacity:0.6;stroke-width:1;stroke-linecap:square;stroke-linejoin:miter;stroke:rgb(50%,50%,50%);stroke-opacity:1;stroke-miterlimit:3.25;" d="M 98.820312 138.511719 L 97.75 137.960938 L 159.316406 175.851562 Z M 98.820312 138.511719 " transform="matrix(1,0,0,1,-74,-13)"/>
<path style="fill-rule:nonzero;fill:rgb(84.999084%,84.999084%,84.999084%);fill-opacity:0.6;stroke-width:1;stroke-linecap:square;stroke-linejoin:miter;stroke:rgb(50%,50%,50%);stroke-opacity:1;stroke-miterlimit:3.25;" d="M 109.539062 139.210938 L 136.066406 92.03125 L 135.804688 92.09375 Z M 109.539062 139.210938 " transform="matrix(1,0,0,1,-74,-13)"/>
<path style="fill-rule:nonzero;fill:rgb(84.999084%,84.999084%,84.999084%);fill-opacity:0.6;stroke-width:1;stroke-linecap:square;stroke-linejoin:miter;stroke:rgb(50%,50%,50%);stroke-opacity:1;stroke-miterlimit:3.25;" d="M 136.066406 92.03125 L 109.539062 139.210938 L 159.21875 175.429688 Z M 136.066406 92.03125 " transform="matrix(1,0,0,1,-74,-13)"/>
<path style="fill-rule:nonzero;fill:rgb(84.999084%,84.999084%,84.999084%);fill-opacity:0.6;stroke-width:1;stroke-linecap:square;stroke-linejoin:miter;stroke:rgb(50%,50%,50%);stroke-opacity:1;stroke-miterlimit:3.25;" d="M 135.804688 92.09375 L 136.066406 92.03125 L 258.117188 38.582031 Z M 135.804688 92.09375 " transform="matrix(1,0,0,1,-74,-13)"/>
<path style="fill-rule:nonzero;fill:rgb(84.999084%,84.999084%,84.999084%);fill-opacity:0.6;stroke-width:1;stroke-linecap:square;stroke-linejoin:miter;stroke:rgb(50%,50%,50%);stroke-opacity:1;stroke-miterlimit:3.25;" d="M 109.539062 139.210938 L 135.804688 92.09375 L 97.75 137.960938 Z M 109.539062 139.210938 " transform="matrix(1,0,0,1,-74,-13)"/>
<path style="fill-rule:nonzero;fill:rgb(84.999084%,84.999084%,84.999084%);fill-opacity:0.6;stroke-width:1;stroke-linecap:square;stroke-linejoin:miter;stroke:rgb(50%,50%,50%);stroke-opacity:1;stroke-miterlimit:3.25;" d="M 98.820312 138.511719 L 105.703125 140.484375 L 109.539062 139.210938 Z M 98.820312 138.511719 " transform="matrix(1,0,0,1,-74,-13)"/>
<path style="fill-rule:nonzero;fill:rgb(84.999084%,84.999084%,84.999084%);fill-opacity:0.6;stroke-width:1;stroke-linecap:square;stroke-linejoin:miter;stroke:rgb(50%,50%,50%);stroke-opacity:1;stroke-miterlimit:3.25;" d="M 168.308594 182.207031 L 204.191406 210.6875 L 204.679688 210.292969 Z M 168.308594 182.207031 " transform="matrix(1,0,0,1,-74,-13)"/>
<path style="fill-rule:nonzero;fill:rgb(84.999084%,84.999084%,84.999084%);fill-opacity:0.6;stroke-width:1;stroke-linecap:square;stroke-linejoin:miter;stroke:rgb(50%,50%,50%);stroke-opacity:1;stroke-miterlimit:3.25;" d="M 355.234375 265.703125 L 355.746094 264.515625 L 204.679688 210.292969 Z M 355.234375 265.703125 " transform="matrix(1,0,0,1,-74,-13)"/>
<path style="fill-rule:nonzero;fill:rgb(84.999084%,84.999084%,84.999084%);fill-opacity:0.6;stroke-width:1;stroke-linecap:square;stroke-linejoin:miter;stroke:rgb(50%,50%,50%);stroke-opacity:1;stroke-miterlimit:3.25;" d="M 355.746094 264.515625 L 355.234375 265.703125 L 357.652344 263.519531 Z M 355.746094 264.515625 " transform="matrix(1,0,0,1,-74,-13)"/>
<path style="fill-rule:nonzero;fill:rgb(84.999084%,84.999084%,84.999084%);fill-opacity:0.6;stroke-width:1;stroke-linecap:square;stroke-linejoin:miter;stroke:rgb(50%,50%,50%);stroke-opacity:1;stroke-miterlimit:3.25;" d="M 355.234375 265.703125 L 360.113281 262.855469 L 357.652344 263.519531 Z M 355.234375 265.703125 " transform="matrix(1,0,0,1,-74,-13)"/>
<path style="fill-rule:nonzero;fill:rgb(84.999084%,84.999084%,84.999084%);fill-opacity:0.6;stroke-width:1;stroke-linecap:square;stroke-linejoin:miter;stroke:rgb(50%,50%,50%);stroke-opacity:1;stroke-miterlimit:3.25;" d="M 360.113281 262.855469 L 355.234375 265.703125 L 422.542969 263.964844 Z M 360.113281 262.855469 " transform="matrix(1,0,0,1,-74,-13)"/>
<path style="fill-rule:nonzero;fill:rgb(84.999084%,84.999084%,84.999084%);fill-opacity:0.6;stroke-width:1;stroke-linecap:square;stroke-linejoin:miter;stroke:rgb(50%,50%,50%);stroke-opacity:1;stroke-miterlimit:3.25;" d="M 360.113281 262.855469 L 422.542969 263.964844 L 373.433594 186.550781 Z M 360.113281 262.855469 " transform="matrix(1,0,0,1,-74,-13)"/>
<path style="fill-rule:nonzero;fill:rgb(84.999084%,84.999084%,84.999084%);fill-opacity:0.6;stroke-width:1;stroke-linecap:square;stroke-linejoin:miter;stroke:rgb(50%,50%,50%);stroke-opacity:1;stroke-miterlimit:3.25;" d="M 357.652344 263.519531 L 360.113281 262.855469 L 373.433594 186.550781 Z M 357.652344 263.519531 " transform="matrix(1,0,0,1,-74,-13)"/>
<path style="fill-rule:nonzero;fill:rgb(84.999084%,84.999084%,84.999084%);fill-opacity:0.6;stroke-width:1;stroke-linecap:square;stroke-linejoin:miter;stroke:rgb(50%,50%,50%);stroke-opacity:1;stroke-miterlimit:3.25;" d="M 355.746094 264.515625 L 357.652344 263.519531 L 373.433594 186.550781 Z M 355.746094 264.515625 " transform="matrix(1,0,0,1,-74,-13)"/>
<path style="fill-rule:nonzero;fill:rgb(84.999084%,84.999084%,84.999084%);fill-opacity:0.6;stroke-width:1;stroke-linecap:square;stroke-linejoin:miter;stroke:rgb(50%,50%,50%);stroke-opacity:1;stroke-miterlimit:3.25;" d="M 304.757812 99.097656 L 258.117188 38.582031 L 168.308594 182.207031 Z M 304.757812 99.097656 " transform="matrix(1,0,0,1,-74,-13)"/>
<path style="fill-rule:nonzero;fill:rgb(84.999084%,84.999084%,84.999084%);fill-opacity:0.6;stroke-width:1;stroke-linecap:square;stroke-linejoin:miter;stroke:rgb(50%,50%,50%);stroke-opacity:1;stroke-miterlimit:3.25;" d="M 304.757812 99.097656 L 204.679688 210.292969 L 373.433594 186.550781 Z M 304.757812 99.097656 " transform="matrix(1,0,0,1,-74,-13)"/>
<path style="fill-rule:nonzero;fill:rgb(84.999084%,84.999084%,84.999084%);fill-opacity:0.6;stroke-width:1;stroke-linecap:square;stroke-linejoin:miter;stroke:rgb(50%,50%,50%);stroke-opacity:1;stroke-miterlimit:3.25;" d="M 258.117188 38.582031 L 304.757812 99.097656 L 365.097656 143.695312 Z M 258.117188 38.582031 " transform="matrix(1,0,0,1,-74,-13)"/>
<path style="fill-rule:nonzero;fill:rgb(84.999084%,84.999084%,84.999084%);fill-opacity:0.6;stroke-width:1;stroke-linecap:square;stroke-linejoin:miter;stroke:rgb(50%,50%,50%);stroke-opacity:1;stroke-miterlimit:3.25;" d="M 304.757812 99.097656 L 168.308594 182.207031 L 204.679688 210.292969 Z M 304.757812 99.097656 " transform="matrix(1,0,0,1,-74,-13)"/>
<path style="fill-rule:nonzero;fill:rgb(84.999084%,84.999084%,84.999084%);fill-opacity:0.6;stroke-width:1;stroke-linecap:square;stroke-linejoin:miter;stroke:rgb(50%,50%,50%);stroke-opacity:1;stroke-miterlimit:3.25;" d="M 364.964844 144.761719 L 373.433594 186.550781 L 365.097656 143.695312 Z M 364.964844 144.761719 " transform="matrix(1,0,0,1,-74,-13)"/>
<path style="fill-rule:nonzero;fill:rgb(84.999084%,84.999084%,84.999084%);fill-opacity:0.6;stroke-width:1;stroke-linecap:square;stroke-linejoin:miter;stroke:rgb(50%,50%,50%);stroke-opacity:1;stroke-miterlimit:3.25;" d="M 373.433594 186.550781 L 364.964844 144.761719 L 304.757812 99.097656 Z M 373.433594 186.550781 " transform="matrix(1,0,0,1,-74,-13)"/>
<path style="fill-rule:nonzero;fill:rgb(84.999084%,84.999084%,84.999084%);fill-opacity:0.6;stroke-width:1;stroke-linecap:square;stroke-linejoin:miter;stroke:rgb(50%,50%,50%);stroke-opacity:1;stroke-miterlimit:3.25;" d="M 365.097656 143.695312 L 373.433594 186.550781 L 422.542969 263.964844 Z M 365.097656 143.695312 " transform="matrix(1,0,0,1,-74,-13)"/>
<path style="fill-rule:nonzero;fill:rgb(84.999084%,84.999084%,84.999084%);fill-opacity:0.6;stroke-width:1;stroke-linecap:square;stroke-linejoin:miter;stroke:rgb(50%,50%,50%);stroke-opacity:1;stroke-miterlimit:3.25;" d="M 364.964844 144.761719 L 365.097656 143.695312 L 304.757812 99.097656 Z M 364.964844 144.761719 " transform="matrix(1,0,0,1,-74,-13)"/>
<path style="fill-rule:nonzero;fill:rgb(84.999084%,84.999084%,84.999084%);fill-opacity:0.6;stroke-width:1;stroke-linecap:square;stroke-linejoin:miter;stroke:rgb(50%,50%,50%);stroke-opacity:1;stroke-miterlimit:3.25;" d="M 204.679688 210.292969 L 355.746094 264.515625 L 373.433594 186.550781 Z M 204.679688 210.292969 " transform="matrix(1,0,0,1,-74,-13)"/>
<path style="fill-rule:nonzero;fill:rgb(84.999084%,84.999084%,84.999084%);fill-opacity:0.6;stroke-width:1;stroke-linecap:square;stroke-linejoin:miter;stroke:rgb(50%,50%,50%);stroke-opacity:1;stroke-miterlimit:3.25;" d="M 355.234375 265.703125 L 204.679688 210.292969 L 204.191406 210.6875 Z M 355.234375 265.703125 " transform="matrix(1,0,0,1,-74,-13)"/>
<path style=" stroke:none;fill-rule:evenodd;fill:rgb(99.998474%,0%,0%);fill-opacity:1;" d="M 282.789062 253 C 282.789062 252.523438 282.601562 252.070312 282.265625 251.734375 C 281.929688 251.398438 281.476562 251.210938 281 251.210938 C 280.523438 251.210938 280.070312 251.398438 279.734375 251.734375 C 279.398438 252.070312 279.210938 252.523438 279.210938 253 C 279.210938 253.476562 279.398438 253.929688 279.734375 254.265625 C 280.070312 254.601562 280.523438 254.789062 281 254.789062 C 281.476562 254.789062 281.929688 254.601562 282.265625 254.265625 C 282.601562 253.929688 282.789062 253.476562 282.789062 253 Z M 282.789062 253 "/>
<path style=" stroke:none;fill-rule:evenodd;fill:rgb(99.998474%,0%,0%);fill-opacity:1;" d="M 283.789062 252 C 283.789062 251.523438 283.601562 251.070312 283.265625 250.734375 C 282.929688 250.398438 282.476562 250.210938 282 250.210938 C 281.523438 250.210938 281.070312 250.398438 280.734375 250.734375 C 280.398438 251.070312 280.210938 251.523438 280.210938 252 C 280.210938 252.476562 280.398438 252.929688 280.734375 253.265625 C 281.070312 253.601562 281.523438 253.789062 282 253.789062 C 282.476562 253.789062 282.929688 253.601562 283.265625 253.265625 C 283.601562 252.929688 283.789062 252.476562 283.789062 252 Z M 283.789062 252 "/>
<path style=" stroke:none;fill-rule:evenodd;fill:rgb(99.998474%,0%,0%);fill-opacity:1;" d="M 350.789062 251 C 350.789062 250.523438 350.601562 250.070312 350.265625 249.734375 C 349.929688 249.398438 349.476562 249.210938 349 249.210938 C 348.523438 249.210938 348.070312 249.398438 347.734375 249.734375 C 347.398438 250.070312 347.210938 250.523438 347.210938 251 C 347.210938 251.476562 347.398438 251.929688 347.734375 252.265625 C 348.070312 252.601562 348.523438 252.789062 349 252.789062 C 349.476562 252.789062 349.929688 252.601562 350.265625 252.265625 C 350.601562 251.929688 350.789062 251.476562 350.789062 251 Z M 350.789062 251 "/>
<path style=" stroke:none;fill-rule:evenodd;fill:rgb(99.998474%,0%,0%);fill-opacity:1;" d="M 285.789062 251 C 285.789062 250.523438 285.601562 250.070312 285.265625 249.734375 C 284.929688 249.398438 284.476562 249.210938 284 249.210938 C 283.523438 249.210938 283.070312 249.398438 282.734375 249.734375 C 282.398438 250.070312 282.210938 250.523438 282.210938 251 C 282.210938 251.476562 282.398438 251.929688 282.734375 252.265625 C 283.070312 252.601562 283.523438 252.789062 284 252.789062 C 284.476562 252.789062 284.929688 252.601562 285.265625 252.265625 C 285.601562 251.929688 285.789062 251.476562 285.789062 251 Z M 285.789062 251 "/>
<path style=" stroke:none;fill-rule:evenodd;fill:rgb(99.998474%,0%,0%);fill-opacity:1;" d="M 287.789062 250 C 287.789062 249.523438 287.601562 249.070312 287.265625 248.734375 C 286.929688 248.398438 286.476562 248.210938 286 248.210938 C 285.523438 248.210938 285.070312 248.398438 284.734375 248.734375 C 284.398438 249.070312 284.210938 249.523438 284.210938 250 C 284.210938 250.476562 284.398438 250.929688 284.734375 251.265625 C 285.070312 251.601562 285.523438 251.789062 286 251.789062 C 286.476562 251.789062 286.929688 251.601562 287.265625 251.265625 C 287.601562 250.929688 287.789062 250.476562 287.789062 250 Z M 287.789062 250 "/>
<path style=" stroke:none;fill-rule:evenodd;fill:rgb(99.998474%,0%,0%);fill-opacity:1;" d="M 131.789062 198 C 131.789062 197.523438 131.601562 197.070312 131.265625 196.734375 C 130.929688 196.398438 130.476562 196.210938 130 196.210938 C 129.523438 196.210938 129.070312 196.398438 128.734375 196.734375 C 128.398438 197.070312 128.210938 197.523438 128.210938 198 C 128.210938 198.476562 128.398438 198.929688 128.734375 199.265625 C 129.070312 199.601562 129.523438 199.789062 130 199.789062 C 130.476562 199.789062 130.929688 199.601562 131.265625 199.265625 C 131.601562 198.929688 131.789062 198.476562 131.789062 198 Z M 131.789062 198 "/>
<path style=" stroke:none;fill-rule:evenodd;fill:rgb(99.998474%,0%,0%);fill-opacity:1;" d="M 132.789062 197 C 132.789062 196.523438 132.601562 196.070312 132.265625 195.734375 C 131.929688 195.398438 131.476562 195.210938 131 195.210938 C 130.523438 195.210938 130.070312 195.398438 129.734375 195.734375 C 129.398438 196.070312 129.210938 196.523438 129.210938 197 C 129.210938 197.476562 129.398438 197.929688 129.734375 198.265625 C 130.070312 198.601562 130.523438 198.789062 131 198.789062 C 131.476562 198.789062 131.929688 198.601562 132.265625 198.265625 C 132.601562 197.929688 132.789062 197.476562 132.789062 197 Z M 132.789062 197 "/>
<path style=" stroke:none;fill-rule:evenodd;fill:rgb(99.998474%,0%,0%);fill-opacity:1;" d="M 300.789062 174 C 300.789062 173.523438 300.601562 173.070312 300.265625 172.734375 C 299.929688 172.398438 299.476562 172.210938 299 172.210938 C 298.523438 172.210938 298.070312 172.398438 297.734375 172.734375 C 297.398438 173.070312 297.210938 173.523438 297.210938 174 C 297.210938 174.476562 297.398438 174.929688 297.734375 175.265625 C 298.070312 175.601562 298.523438 175.789062 299 175.789062 C 299.476562 175.789062 299.929688 175.601562 300.265625 175.265625 C 300.601562 174.929688 300.789062 174.476562 300.789062 174 Z M 300.789062 174 "/>
<path style=" stroke:none;fill-rule:evenodd;fill:rgb(99.998474%,0%,0%);fill-opacity:1;" d="M 95.789062 169 C 95.789062 168.523438 95.601562 168.070312 95.265625 167.734375 C 94.929688 167.398438 94.476562 167.210938 94 167.210938 C 93.523438 167.210938 93.070312 167.398438 92.734375 167.734375 C 92.398438 168.070312 92.210938 168.523438 92.210938 169 C 92.210938 169.476562 92.398438 169.929688 92.734375 170.265625 C 93.070312 170.601562 93.523438 170.789062 94 170.789062 C 94.476562 170.789062 94.929688 170.601562 95.265625 170.265625 C 95.601562 169.929688 95.789062 169.476562 95.789062 169 Z M 95.789062 169 "/>
<path style=" stroke:none;fill-rule:evenodd;fill:rgb(99.998474%,0%,0%);fill-opacity:1;" d="M 86.789062 163 C 86.789062 162.523438 86.601562 162.070312 86.265625 161.734375 C 85.929688 161.398438 85.476562 161.210938 85 161.210938 C 84.523438 161.210938 84.070312 161.398438 83.734375 161.734375 C 83.398438 162.070312 83.210938 162.523438 83.210938 163 C 83.210938 163.476562 83.398438 163.929688 83.734375 164.265625 C 84.070312 164.601562 84.523438 164.789062 85 164.789062 C 85.476562 164.789062 85.929688 164.601562 86.265625 164.265625 C 86.601562 163.929688 86.789062 163.476562 86.789062 163 Z M 86.789062 163 "/>
<path style=" stroke:none;fill-rule:evenodd;fill:rgb(99.998474%,0%,0%);fill-opacity:1;" d="M 86.789062 162 C 86.789062 161.523438 86.601562 161.070312 86.265625 160.734375 C 85.929688 160.398438 85.476562 160.210938 85 160.210938 C 84.523438 160.210938 84.070312 160.398438 83.734375 160.734375 C 83.398438 161.070312 83.210938 161.523438 83.210938 162 C 83.210938 162.476562 83.398438 162.929688 83.734375 163.265625 C 84.070312 163.601562 84.523438 163.789062 85 163.789062 C 85.476562 163.789062 85.929688 163.601562 86.265625 163.265625 C 86.601562 162.929688 86.789062 162.476562 86.789062 162 Z M 86.789062 162 "/>
<path style=" stroke:none;fill-rule:evenodd;fill:rgb(99.998474%,0%,0%);fill-opacity:1;" d="M 292.789062 132 C 292.789062 131.523438 292.601562 131.070312 292.265625 130.734375 C 291.929688 130.398438 291.476562 130.210938 291 130.210938 C 290.523438 130.210938 290.070312 130.398438 289.734375 130.734375 C 289.398438 131.070312 289.210938 131.523438 289.210938 132 C 289.210938 132.476562 289.398438 132.929688 289.734375 133.265625 C 290.070312 133.601562 290.523438 133.789062 291 133.789062 C 291.476562 133.789062 291.929688 133.601562 292.265625 133.265625 C 292.601562 132.929688 292.789062 132.476562 292.789062 132 Z M 292.789062 132 "/>
<path style=" stroke:none;fill-rule:evenodd;fill:rgb(99.998474%,0%,0%);fill-opacity:1;" d="M 292.789062 131 C 292.789062 130.523438 292.601562 130.070312 292.265625 129.734375 C 291.929688 129.398438 291.476562 129.210938 291 129.210938 C 290.523438 129.210938 290.070312 129.398438 289.734375 129.734375 C 289.398438 130.070312 289.210938 130.523438 289.210938 131 C 289.210938 131.476562 289.398438 131.929688 289.734375 132.265625 C 290.070312 132.601562 290.523438 132.789062 291 132.789062 C 291.476562 132.789062 291.929688 132.601562 292.265625 132.265625 C 292.601562 131.929688 292.789062 131.476562 292.789062 131 Z M 292.789062 131 "/>
<path style=" stroke:none;fill-rule:evenodd;fill:rgb(99.998474%,0%,0%);fill-opacity:1;" d="M 33.789062 127 C 33.789062 126.523438 33.601562 126.070312 33.265625 125.734375 C 32.929688 125.398438 32.476562 125.210938 32 125.210938 C 31.523438 125.210938 31.070312 125.398438 30.734375 125.734375 C 30.398438 126.070312 30.210938 126.523438 30.210938 127 C 30.210938 127.476562 30.398438 127.929688 30.734375 128.265625 C 31.070312 128.601562 31.523438 128.789062 32 128.789062 C 32.476562 128.789062 32.929688 128.601562 33.265625 128.265625 C 33.601562 127.929688 33.789062 127.476562 33.789062 127 Z M 33.789062 127 "/>
<path style=" stroke:none;fill-rule:evenodd;fill:rgb(99.998474%,0%,0%);fill-opacity:1;" d="M 37.789062 126 C 37.789062 125.523438 37.601562 125.070312 37.265625 124.734375 C 36.929688 124.398438 36.476562 124.210938 36 124.210938 C 35.523438 124.210938 35.070312 124.398438 34.734375 124.734375 C 34.398438 125.070312 34.210938 125.523438 34.210938 126 C 34.210938 126.476562 34.398438 126.929688 34.734375 127.265625 C 35.070312 127.601562 35.523438 127.789062 36 127.789062 C 36.476562 127.789062 36.929688 127.601562 37.265625 127.265625 C 37.601562 126.929688 37.789062 126.476562 37.789062 126 Z M 37.789062 126 "/>
<path style=" stroke:none;fill-rule:evenodd;fill:rgb(99.998474%,0%,0%);fill-opacity:1;" d="M 26.789062 126 C 26.789062 125.523438 26.601562 125.070312 26.265625 124.734375 C 25.929688 124.398438 25.476562 124.210938 25 124.210938 C 24.523438 124.210938 24.070312 124.398438 23.734375 124.734375 C 23.398438 125.070312 23.210938 125.523438 23.210938 126 C 23.210938 126.476562 23.398438 126.929688 23.734375 127.265625 C 24.070312 127.601562 24.523438 127.789062 25 127.789062 C 25.476562 127.789062 25.929688 127.601562 26.265625 127.265625 C 26.601562 126.929688 26.789062 126.476562 26.789062 126 Z M 26.789062 126 "/>
<path style=" stroke:none;fill-rule:evenodd;fill:rgb(99.998474%,0%,0%);fill-opacity:1;" d="M 25.789062 125 C 25.789062 124.523438 25.601562 124.070312 25.265625 123.734375 C 24.929688 123.398438 24.476562 123.210938 24 123.210938 C 23.523438 123.210938 23.070312 123.398438 22.734375 123.734375 C 22.398438 124.070312 22.210938 124.523438 22.210938 125 C 22.210938 125.476562 22.398438 125.929688 22.734375 126.265625 C 23.070312 126.601562 23.523438 126.789062 24 126.789062 C 24.476562 126.789062 24.929688 126.601562 25.265625 126.265625 C 25.601562 125.929688 25.789062 125.476562 25.789062 125 Z M 25.789062 125 "/>
<path style=" stroke:none;fill-rule:evenodd;fill:rgb(99.998474%,0%,0%);fill-opacity:1;" d="M 232.789062 86 C 232.789062 85.523438 232.601562 85.070312 232.265625 84.734375 C 231.929688 84.398438 231.476562 84.210938 231 84.210938 C 230.523438 84.210938 230.070312 84.398438 229.734375 84.734375 C 229.398438 85.070312 229.210938 85.523438 229.210938 86 C 229.210938 86.476562 229.398438 86.929688 229.734375 87.265625 C 230.070312 87.601562 230.523438 87.789062 231 87.789062 C 231.476562 87.789062 231.929688 87.601562 232.265625 87.265625 C 232.601562 86.929688 232.789062 86.476562 232.789062 86 Z M 232.789062 86 "/>
<path style=" stroke:none;fill-rule:evenodd;fill:rgb(99.998474%,0%,0%);fill-opacity:1;" d="M 63.789062 79 C 63.789062 78.523438 63.601562 78.070312 63.265625 77.734375 C 62.929688 77.398438 62.476562 77.210938 62 77.210938 C 61.523438 77.210938 61.070312 77.398438 60.734375 77.734375 C 60.398438 78.070312 60.210938 78.523438 60.210938 79 C 60.210938 79.476562 60.398438 79.929688 60.734375 80.265625 C 61.070312 80.601562 61.523438 80.789062 62 80.789062 C 62.476562 80.789062 62.929688 80.601562 63.265625 80.265625 C 63.601562 79.929688 63.789062 79.476562 63.789062 79 Z M 63.789062 79 "/>
<path style=" stroke:none;fill-rule:evenodd;fill:rgb(99.998474%,0%,0%);fill-opacity:1;" d="M 63.789062 79 C 63.789062 78.523438 63.601562 78.070312 63.265625 77.734375 C 62.929688 77.398438 62.476562 77.210938 62 77.210938 C 61.523438 77.210938 61.070312 77.398438 60.734375 77.734375 C 60.398438 78.070312 60.210938 78.523438 60.210938 79 C 60.210938 79.476562 60.398438 79.929688 60.734375 80.265625 C 61.070312 80.601562 61.523438 80.789062 62 80.789062 C 62.476562 80.789062 62.929688 80.601562 63.265625 80.265625 C 63.601562 79.929688 63.789062 79.476562 63.789062 79 Z M 63.789062 79 "/>
<path style=" stroke:none;fill-rule:evenodd;fill:rgb(99.998474%,0%,0%);fill-opacity:1;" d="M 185.789062 26 C 185.789062 25.523438 185.601562 25.070312 185.265625 24.734375 C 184.929688 24.398438 184.476562 24.210938 184 24.210938 C 183.523438 24.210938 183.070312 24.398438 182.734375 24.734375 C 182.398438 25.070312 182.210938 25.523438 182.210938 26 C 182.210938 26.476562 182.398438 26.929688 182.734375 27.265625 C 183.070312 27.601562 183.523438 27.789062 184 27.789062 C 184.476562 27.789062 184.929688 27.601562 185.265625 27.265625 C 185.601562 26.929688 185.789062 26.476562 185.789062 26 Z M 185.789062 26 "/>
<path style=" stroke:none;fill-rule:evenodd;fill:rgb(99.998474%,0%,0%);fill-opacity:1;" d="M 282.5 253 C 282.5 252.601562 282.34375 252.21875 282.0625 251.9375 C 281.78125 251.65625 281.398438 251.5 281 251.5 C 280.601562 251.5 280.21875 251.65625 279.9375 251.9375 C 279.65625 252.21875 279.5 252.601562 279.5 253 C 279.5 253.398438 279.65625 253.78125 279.9375 254.0625 C 280.21875 254.34375 280.601562 254.5 281 254.5 C 281.398438 254.5 281.78125 254.34375 282.0625 254.0625 C 282.34375 253.78125 282.5 253.398438 282.5 253 Z M 282.5 253 "/>
<path style=" stroke:none;fill-rule:evenodd;fill:rgb(99.998474%,0%,0%);fill-opacity:1;" d="M 283.5 252 C 283.5 251.601562 283.34375 251.21875 283.0625 250.9375 C 282.78125 250.65625 282.398438 250.5 282 250.5 C 281.601562 250.5 281.21875 250.65625 280.9375 250.9375 C 280.65625 251.21875 280.5 251.601562 280.5 252 C 280.5 252.398438 280.65625 252.78125 280.9375 253.0625 C 281.21875 253.34375 281.601562 253.5 282 253.5 C 282.398438 253.5 282.78125 253.34375 283.0625 253.0625 C 283.34375 252.78125 283.5 252.398438 283.5 252 Z M 283.5 252 "/>
<path style=" stroke:none;fill-rule:evenodd;fill:rgb(99.998474%,0%,0%);fill-opacity:1;" d="M 350.5 251 C 350.5 250.601562 350.34375 250.21875 350.0625 249.9375 C 349.78125 249.65625 349.398438 249.5 349 249.5 C 348.601562 249.5 348.21875 249.65625 347.9375 249.9375 C 347.65625 250.21875 347.5 250.601562 347.5 251 C 347.5 251.398438 347.65625 251.78125 347.9375 252.0625 C 348.21875 252.34375 348.601562 252.5 349 252.5 C 349.398438 252.5 349.78125 252.34375 350.0625 252.0625 C 350.34375 251.78125 350.5 251.398438 350.5 251 Z M 350.5 251 "/>
<path style=" stroke:none;fill-rule:evenodd;fill:rgb(99.998474%,0%,0%);fill-opacity:1;" d="M 285.5 251 C 285.5 250.601562 285.34375 250.21875 285.0625 249.9375 C 284.78125 249.65625 284.398438 249.5 284 249.5 C 283.601562 249.5 283.21875 249.65625 282.9375 249.9375 C 282.65625 250.21875 282.5 250.601562 282.5 251 C 282.5 251.398438 282.65625 251.78125 282.9375 252.0625 C 283.21875 252.34375 283.601562 252.5 284 252.5 C 284.398438 252.5 284.78125 252.34375 285.0625 252.0625 C 285.34375 251.78125 285.5 251.398438 285.5 251 Z M 285.5 251 "/>
<path style=" stroke:none;fill-rule:evenodd;fill:rgb(99.998474%,0%,0%);fill-opacity:1;" d="M 287.5 250 C 287.5 249.601562 287.34375 249.21875 287.0625 248.9375 C 286.78125 248.65625 286.398438 248.5 286 248.5 C 285.601562 248.5 285.21875 248.65625 284.9375 248.9375 C 284.65625 249.21875 284.5 249.601562 284.5 250 C 284.5 250.398438 284.65625 250.78125 284.9375 251.0625 C 285.21875 251.34375 285.601562 251.5 286 251.5 C 286.398438 251.5 286.78125 251.34375 287.0625 251.0625 C 287.34375 250.78125 287.5 250.398438 287.5 250 Z M 287.5 250 "/>
<path style=" stroke:none;fill-rule:evenodd;fill:rgb(99.998474%,0%,0%);fill-opacity:1;" d="M 131.5 198 C 131.5 197.601562 131.34375 197.21875 131.0625 196.9375 C 130.78125 196.65625 130.398438 196.5 130 196.5 C 129.601562 196.5 129.21875 196.65625 128.9375 196.9375 C 128.65625 197.21875 128.5 197.601562 128.5 198 C 128.5 198.398438 128.65625 198.78125 128.9375 199.0625 C 129.21875 199.34375 129.601562 199.5 130 199.5 C 130.398438 199.5 130.78125 199.34375 131.0625 199.0625 C 131.34375 198.78125 131.5 198.398438 131.5 198 Z M 131.5 198 "/>
<path style=" stroke:none;fill-rule:evenodd;fill:rgb(99.998474%,0%,0%);fill-opacity:1;" d="M 132.5 197 C 132.5 196.601562 132.34375 196.21875 132.0625 195.9375 C 131.78125 195.65625 131.398438 195.5 131 195.5 C 130.601562 195.5 130.21875 195.65625 129.9375 195.9375 C 129.65625 196.21875 129.5 196.601562 129.5 197 C 129.5 197.398438 129.65625 197.78125 129.9375 198.0625 C 130.21875 198.34375 130.601562 198.5 131 198.5 C 131.398438 198.5 131.78125 198.34375 132.0625 198.0625 C 132.34375 197.78125 132.5 197.398438 132.5 197 Z M 132.5 197 "/>
<path style=" stroke:none;fill-rule:evenodd;fill:rgb(99.998474%,0%,0%);fill-opacity:1;" d="M 300.5 174 C 300.5 173.601562 300.34375 173.21875 300.0625 172.9375 C 299.78125 172.65625 299.398438 172.5 299 172.5 C 298.601562 172.5 298.21875 172.65625 297.9375 172.9375 C 297.65625 173.21875 297.5 173.601562 297.5 174 C 297.5 174.398438 297.65625 174.78125 297.9375 175.0625 C 298.21875 175.34375 298.601562 175.5 299 175.5 C 299.398438 175.5 299.78125 175.34375 300.0625 175.0625 C 300.34375 174.78125 300.5 174.398438 300.5 174 Z M 300.5 174 "/>
<path style=" stroke:none;fill-rule:evenodd;fill:rgb(99.998474%,0%,0%);fill-opacity:1;" d="M 95.5 169 C 95.5 168.601562 95.34375 168.21875 95.0625 167.9375 C 94.78125 167.65625 94.398438 167.5 94 167.5 C 93.601562 167.5 93.21875 167.65625 92.9375 167.9375 C 92.65625 168.21875 92.5 168.601562 92.5 169 C 92.5 169.398438 92.65625 169.78125 92.9375 170.0625 C 93.21875 170.34375 93.601562 170.5 94 170.5 C 94.398438 170.5 94.78125 170.34375 95.0625 170.0625 C 95.34375 169.78125 95.5 169.398438 95.5 169 Z M 95.5 169 "/>
<path style=" stroke:none;fill-rule:evenodd;fill:rgb(99.998474%,0%,0%);fill-opacity:1;" d="M 86.5 163 C 86.5 162.601562 86.34375 162.21875 86.0625 161.9375 C 85.78125 161.65625 85.398438 161.5 85 161.5 C 84.601562 161.5 84.21875 161.65625 83.9375 161.9375 C 83.65625 162.21875 83.5 162.601562 83.5 163 C 83.5 163.398438 83.65625 163.78125 83.9375 164.0625 C 84.21875 164.34375 84.601562 164.5 85 164.5 C 85.398438 164.5 85.78125 164.34375 86.0625 164.0625 C 86.34375 163.78125 86.5 163.398438 86.5 163 Z M 86.5 163 "/>
<path style=" stroke:none;fill-rule:evenodd;fill:rgb(99.998474%,0%,0%);fill-opacity:1;" d="M 86.5 162 C 86.5 161.601562 86.34375 161.21875 86.0625 160.9375 C 85.78125 160.65625 85.398438 160.5 85 160.5 C 84.601562 160.5 84.21875 160.65625 83.9375 160.9375 C 83.65625 161.21875 83.5 161.601562 83.5 162 C 83.5 162.398438 83.65625 162.78125 83.9375 163.0625 C 84.21875 163.34375 84.601562 163.5 85 163.5 C 85.398438 163.5 85.78125 163.34375 86.0625 163.0625 C 86.34375 162.78125 86.5 162.398438 86.5 162 Z M 86.5 162 "/>
<path style=" stroke:none;fill-rule:evenodd;fill:rgb(99.998474%,0%,0%);fill-opacity:1;" d="M 292.5 132 C 292.5 131.601562 292.34375 131.21875 292.0625 130.9375 C 291.78125 130.65625 291.398438 130.5 291 130.5 C 290.601562 130.5 290.21875 130.65625 289.9375 130.9375 C 289.65625 131.21875 289.5 131.601562 289.5 132 C 289.5 132.398438 289.65625 132.78125 289.9375 133.0625 C 290.21875 133.34375 290.601562 133.5 291 133.5 C 291.398438 133.5 291.78125 133.34375 292.0625 133.0625 C 292.34375 132.78125 292.5 132.398438 292.5 132 Z M 292.5 132 "/>
<path style=" stroke:none;fill-rule:evenodd;fill:rgb(99.998474%,0%,0%);fill-opacity:1;" d="M 292.5 131 C 292.5 130.601562 292.34375 130.21875 292.0625 129.9375 C 291.78125 129.65625 291.398438 129.5 291 129.5 C 290.601562 129.5 290.21875 129.65625 289.9375 129.9375 C 289.65625 130.21875 289.5 130.601562 289.5 131 C 289.5 131.398438 289.65625 131.78125 289.9375 132.0625 C 290.21875 132.34375 290.601562 132.5 291 132.5 C 291.398438 132.5 291.78125 132.34375 292.0625 132.0625 C 292.34375 131.78125 292.5 131.398438 292.5 131 Z M 292.5 131 "/>
<path style=" stroke:none;fill-rule:evenodd;fill:rgb(99.998474%,0%,0%);fill-opacity:1;" d="M 33.5 127 C 33.5 126.601562 33.34375 126.21875 33.0625 125.9375 C 32.78125 125.65625 32.398438 125.5 32 125.5 C 31.601562 125.5 31.21875 125.65625 30.9375 125.9375 C 30.65625 126.21875 30.5 126.601562 30.5 127 C 30.5 127.398438 30.65625 127.78125 30.9375 128.0625 C 31.21875 128.34375 31.601562 128.5 32 128.5 C 32.398438 128.5 32.78125 128.34375 33.0625 128.0625 C 33.34375 127.78125 33.5 127.398438 33.5 127 Z M 33.5 127 "/>
<path style=" stroke:none;fill-rule:evenodd;fill:rgb(99.998474%,0%,0%);fill-opacity:1;" d="M 37.5 126 C 37.5 125.601562 37.34375 125.21875 37.0625 124.9375 C 36.78125 124.65625 36.398438 124.5 36 124.5 C 35.601562 124.5 35.21875 124.65625 34.9375 124.9375 C 34.65625 125.21875 34.5 125.601562 34.5 126 C 34.5 126.398438 34.65625 126.78125 34.9375 127.0625 C 35.21875 127.34375 35.601562 127.5 36 127.5 C 36.398438 127.5 36.78125 127.34375 37.0625 127.0625 C 37.34375 126.78125 37.5 126.398438 37.5 126 Z M 37.5 126 "/>
<path style=" stroke:none;fill-rule:evenodd;fill:rgb(99.998474%,0%,0%);fill-opacity:1;" d="M 26.5 126 C 26.5 125.601562 26.34375 125.21875 26.0625 124.9375 C 25.78125 124.65625 25.398438 124.5 25 124.5 C 24.601562 124.5 24.21875 124.65625 23.9375 124.9375 C 23.65625 125.21875 23.5 125.601562 23.5 126 C 23.5 126.398438 23.65625 126.78125 23.9375 127.0625 C 24.21875 127.34375 24.601562 127.5 25 127.5 C 25.398438 127.5 25.78125 127.34375 26.0625 127.0625 C 26.34375 126.78125 26.5 126.398438 26.5 126 Z M 26.5 126 "/>
<path style=" stroke:none;fill-rule:evenodd;fill:rgb(99.998474%,0%,0%);fill-opacity:1;" d="M 25.5 125 C 25.5 124.601562 25.34375 124.21875 25.0625 123.9375 C 24.78125 123.65625 24.398438 123.5 24 123.5 C 23.601562 123.5 23.21875 123.65625 22.9375 123.9375 C 22.65625 124.21875 22.5 124.601562 22.5 125 C 22.5 125.398438 22.65625 125.78125 22.9375 126.0625 C 23.21875 126.34375 23.601562 126.5 24 126.5 C 24.398438 126.5 24.78125 126.34375 25.0625 126.0625 C 25.34375 125.78125 25.5 125.398438 25.5 125 Z M 25.5 125 "/>
<path style=" stroke:none;fill-rule:evenodd;fill:rgb(99.998474%,0%,0%);fill-opacity:1;" d="M 232.5 86 C 232.5 85.601562 232.34375 85.21875 232.0625 84.9375 C 231.78125 84.65625 231.398438 84.5 231 84.5 C 230.601562 84.5 230.21875 84.65625 229.9375 84.9375 C 229.65625 85.21875 229.5 85.601562 229.5 86 C 229.5 86.398438 229.65625 86.78125 229.9375 87.0625 C 230.21875 87.34375 230.601562 87.5 231 87.5 C 231.398438 87.5 231.78125 87.34375 232.0625 87.0625 C 232.34375 86.78125 232.5 86.398438 232.5 86 Z M 232.5 86 "/>
<path style=" stroke:none;fill-rule:evenodd;fill:rgb(99.998474%,0%,0%);fill-opacity:1;" d="M 63.5 79 C 63.5 78.601562 63.34375 78.21875 63.0625 77.9375 C 62.78125 77.65625 62.398438 77.5 62 77.5 C 61.601562 77.5 61.21875 77.65625 60.9375 77.9375 C 60.65625 78.21875 60.5 78.601562 60.5 79 C 60.5 79.398438 60.65625 79.78125 60.9375 80.0625 C 61.21875 80.34375 61.601562 80.5 62 80.5 C 62.398438 80.5 62.78125 80.34375 63.0625 80.0625 C 63.34375 79.78125 63.5 79.398438 63.5 79 Z M 63.5 79 "/>
<path style=" stroke:none;fill-rule:evenodd;fill:rgb(99.998474%,0%,0%);fill-opacity:1;" d="M 63.5 79 C 63.5 78.601562 63.34375 78.21875 63.0625 77.9375 C 62.78125 77.65625 62.398438 77.5 62 77.5 C 61.601562 77.5 61.21875 77.65625 60.9375 77.9375 C 60.65625 78.21875 60.5 78.601562 60.5 79 C 60.5 79.398438 60.65625 79.78125 60.9375 80.0625 C 61.21875 80.34375 61.601562 80.5 62 80.5 C 62.398438 80.5 62.78125 80.34375 63.0625 80.0625 C 63.34375 79.78125 63.5 79.398438 63.5 79 Z M 63.5 79 "/>
<path style=" stroke:none;fill-rule:evenodd;fill:rgb(99.998474%,0%,0%);fill-opacity:1;" d="M 185.5 26 C 185.5 25.601562 185.34375 25.21875 185.0625 24.9375 C 184.78125 24.65625 184.398438 24.5 184 24.5 C 183.601562 24.5 183.21875 24.65625 182.9375 24.9375 C 182.65625 25.21875 182.5 25.601562 182.5 26 C 182.5 26.398438 182.65625 26.78125 182.9375 27.0625 C 183.21875 27.34375 183.601562 27.5 184 27.5 C 184.398438 27.5 184.78125 27.34375 185.0625 27.0625 C 185.34375 26.78125 185.5 26.398438 185.5 26 Z M 185.5 26 "/>
</g>
</svg>
