<?xml version="1.0" encoding="UTF-8"?>
<svg xmlns="http://www.w3.org/2000/svg" xmlns:xlink="http://www.w3.org/1999/xlink" width="296pt" height="312pt" viewBox="0 0 296 312" version="1.1">
<g id="surface2323">
<path style="fill-rule:nonzero;fill:rgb(84.999084%,84.999084%,84.999084%);fill-opacity:0.6;stroke-width:1;stroke-linecap:square;stroke-linejoin:miter;stroke:rgb(50%,50%,50%);stroke-opacity:1;stroke-miterlimit:3.25;" d="M 88.261719 303.757813 L 276.871094 209.09375 L 276.730469 207.519531 Z M 88.261719 303.757813 " transform="matrix(1,0,0,1,-74,-13)"/>
<path style="fill-rule:nonzero;fill:rgb(84.999084%,84.999084%,84.999084%);fill-opacity:0.6;stroke-width:1;stroke-linecap:square;stroke-linejoin:miter;stroke:rgb(50%,50%,50%);stroke-opacity:1;stroke-miterlimit:3.25;" d="M 276.871094 209.09375 L 88.261719 303.757813 L 290.933594 260.703125 Z M 276.871094 209.09375 " transform="matrix(1,0,0,1,-74,-13)"/>
<path style="fill-rule:nonzero;fill:rgb(84.999084%,84.999084%,84.999084%);fill-opacity:0.6;stroke-width:1;stroke-linecap:square;stroke-linejoin:miter;stroke:rgb(50%,50%,50%);stroke-opacity:1;stroke-miterlimit:3.25;" d="M 88.261719 303.757813 L 152.417969 99.378906 L 118.175781 82.082031 Z M 88.261719 303.757813 " transform="matrix(1,0,0,1,-74,-13)"/>
<path style="fill-rule:nonzero;fill:rgb(84.999084%,84.999084%,84.999084%);fill-opacity:0.6;stroke-width:1;stroke-linecap:square;stroke-linejoin:miter;stroke:rgb(50%,50%,50%);stroke-opacity:1;stroke-miterlimit:3.25;" d="M 152.417969 99.378906 L 88.261719 303.757813 L 276.730469 207.519531 Z M 152.417969 99.378906 " transform="matrix(1,0,0,1,-74,-13)"/>
<path style="fill-rule:nonzero;fill:rgb(84.999084%,84.999084%,84.999084%);fill-opacity:0.6;stroke-width:1;stroke-linecap:square;stroke-linejoin:miter;stroke:rgb(50%,50%,50%);stroke-opacity:1;stroke-miterlimit:3.25;" d="M 276.871094 209.09375 L 367.757813 321.296875 L 276.730469 207.519531 Z M 276.871094 209.09375 " transform="matrix(1,0,0,1,-74,-13)"/>
<path style="fill-rule:nonzero;fill:rgb(84.999084%,84.999084%,84.999084%);fill-opacity:0.6;stroke-width:1;stroke-linecap:square;stroke-linejoin:miter;stroke:rgb(50%,50%,50%);stroke-opacity:1;stroke-miterlimit:3.25;" d="M 367.304688 322.417969 L 367.375 322.644531 L 367.757813 321.296875 Z M 367.304688 322.417969 " transform="matrix(1,0,0,1,-74,-13)"/>
<path style="fill-rule:nonzero;fill:rgb(84.999084%,84.999084%,84.999084%);fill-opacity:0.6;stroke-width:1;stroke-linecap:square;stroke-linejoin:miter;stroke:rgb(50%,50%,50%);stroke-opacity:1;stroke-miterlimit:3.25;" d="M 367.375 322.644531 L 367.304688 322.417969 L 290.933594 260.703125 Z M 367.375 322.644531 " transform="matrix(1,0,0,1,-74,-13)"/>
<path style="fill-rule:nonzero;fill:rgb(84.999084%,84.999084%,84.999084%);fill-opacity:0.6;stroke-width:1;stroke-linecap:square;stroke-linejoin:miter;stroke:rgb(50%,50%,50%);stroke-opacity:1;stroke-miterlimit:3.25;" d="M 367.304688 322.417969 L 292.132813 260.535156 L 290.933594 260.703125 Z M 367.304688 322.417969 " transform="matrix(1,0,0,1,-74,-13)"/>
<path style="fill-rule:nonzero;fill:rgb(84.999084%,84.999084%,84.999084%);fill-opacity:0.6;stroke-width:1;stroke-linecap:square;stroke-linejoin:miter;stroke:rgb(50%,50%,50%);stroke-opacity:1;stroke-miterlimit:3.25;" d="M 292.132813 260.535156 L 367.304688 322.417969 L 367.757813 321.296875 Z M 292.132813 260.535156 " transform="matrix(1,0,0,1,-74,-13)"/>
<path style="fill-rule:nonzero;fill:rgb(84.999084%,84.999084%,84.999084%);fill-opacity:0.6;stroke-width:1;stroke-linecap:square;stroke-linejoin:miter;stroke:rgb(50%,50%,50%);stroke-opacity:1;stroke-miterlimit:3.25;" d="M 292.132813 260.535156 L 367.757813 321.296875 L 276.871094 209.09375 Z M 292.132813 260.535156 " transform="matrix(1,0,0,1,-74,-13)"/>
<path style="fill-rule:nonzero;fill:rgb(84.999084%,84.999084%,84.999084%);fill-opacity:0.6;stroke-width:1;stroke-linecap:square;stroke-linejoin:miter;stroke:rgb(50%,50%,50%);stroke-opacity:1;stroke-miterlimit:3.25;" d="M 290.933594 260.703125 L 292.132813 260.535156 L 276.871094 209.09375 Z M 290.933594 260.703125 " transform="matrix(1,0,0,1,-74,-13)"/>
<path style="fill-rule:nonzero;fill:rgb(84.999084%,84.999084%,84.999084%);fill-opacity:0.6;stroke-width:1;stroke-linecap:square;stroke-linejoin:miter;stroke:rgb(50%,50%,50%);stroke-opacity:1;stroke-miterlimit:3.25;" d="M 367.375 322.644531 L 290.933594 260.703125 L 88.261719 303.757813 Z M 367.375 322.644531 " transform="matrix(1,0,0,1,-74,-13)"/>
<path style=" stroke:none;fill-rule:evenodd;fill:rgb(99.998474%,0%,0%);fill-opacity:0.6;" d="M 294.789063 310 C 294.789063 309.523438 294.601563 309.070313 294.265625 308.734375 C 293.929688 308.398438 293.476563 308.210938 293 308.210938 C 292.523438 308.210938 292.070313 308.398438 291.734375 308.734375 C 291.398438 309.070313 291.210938 309.523438 291.210938 310 C 291.210938 310.476563 291.398438 310.929688 291.734375 311.265625 C 292.070313 311.601563 292.523438 311.789063 293 311.789063 C 293.476563 311.789063 293.929688 311.601563 294.265625 311.265625 C 294.601563 310.929688 294.789063 310.476563 294.789063 310 Z M 294.789063 310 "/>
<path style=" stroke:none;fill-rule:evenodd;fill:rgb(99.998474%,0%,0%);fill-opacity:0.6;" d="M 294.789063 309 C 294.789063 308.523438 294.601563 308.070313 294.265625 307.734375 C 293.929688 307.398438 293.476563 307.210938 293 307.210938 C 292.523438 307.210938 292.070313 307.398438 291.734375 307.734375 C 291.398438 308.070313 291.210938 308.523438 291.210938 309 C 291.210938 309.476563 291.398438 309.929688 291.734375 310.265625 C 292.070313 310.601563 292.523438 310.789063 293 310.789063 C 293.476563 310.789063 293.929688 310.601563 294.265625 310.265625 C 294.601563 309.929688 294.789063 309.476563 294.789063 309 Z M 294.789063 309 "/>
<path style=" stroke:none;fill-rule:evenodd;fill:rgb(99.998474%,0%,0%);fill-opacity:0.6;" d="M 295.789063 308 C 295.789063 307.523438 295.601563 307.070313 295.265625 306.734375 C 294.929688 306.398438 294.476563 306.210938 294 306.210938 C 293.523438 306.210938 293.070313 306.398438 292.734375 306.734375 C 292.398438 307.070313 292.210938 307.523438 292.210938 308 C 292.210938 308.476563 292.398438 308.929688 292.734375 309.265625 C 293.070313 309.601563 293.523438 309.789063 294 309.789063 C 294.476563 309.789063 294.929688 309.601563 295.265625 309.265625 C 295.601563 308.929688 295.789063 308.476563 295.789063 308 Z M 295.789063 308 "/>
<path style=" stroke:none;fill-rule:evenodd;fill:rgb(99.998474%,0%,0%);fill-opacity:0.6;" d="M 15.789063 291 C 15.789063 290.523438 15.601563 290.070313 15.265625 289.734375 C 14.929688 289.398438 14.476563 289.210938 14 289.210938 C 13.523438 289.210938 13.070313 289.398438 12.734375 289.734375 C 12.398438 290.070313 12.210938 290.523438 12.210938 291 C 12.210938 291.476563 12.398438 291.929688 12.734375 292.265625 C 13.070313 292.601563 13.523438 292.789063 14 292.789063 C 14.476563 292.789063 14.929688 292.601563 15.265625 292.265625 C 15.601563 291.929688 15.789063 291.476563 15.789063 291 Z M 15.789063 291 "/>
<path style=" stroke:none;fill-rule:evenodd;fill:rgb(99.998474%,0%,0%);fill-opacity:0.6;" d="M 218.789063 248 C 218.789063 247.523438 218.601563 247.070313 218.265625 246.734375 C 217.929688 246.398438 217.476563 246.210938 217 246.210938 C 216.523438 246.210938 216.070313 246.398438 215.734375 246.734375 C 215.398438 247.070313 215.210938 247.523438 215.210938 248 C 215.210938 248.476563 215.398438 248.929688 215.734375 249.265625 C 216.070313 249.601563 216.523438 249.789063 217 249.789063 C 217.476563 249.789063 217.929688 249.601563 218.265625 249.265625 C 218.601563 248.929688 218.789063 248.476563 218.789063 248 Z M 218.789063 248 "/>
<path style=" stroke:none;fill-rule:evenodd;fill:rgb(99.998474%,0%,0%);fill-opacity:0.6;" d="M 219.789063 248 C 219.789063 247.523438 219.601563 247.070313 219.265625 246.734375 C 218.929688 246.398438 218.476563 246.210938 218 246.210938 C 217.523438 246.210938 217.070313 246.398438 216.734375 246.734375 C 216.398438 247.070313 216.210938 247.523438 216.210938 248 C 216.210938 248.476563 216.398438 248.929688 216.734375 249.265625 C 217.070313 249.601563 217.523438 249.789063 218 249.789063 C 218.476563 249.789063 218.929688 249.601563 219.265625 249.265625 C 219.601563 248.929688 219.789063 248.476563 219.789063 248 Z M 219.789063 248 "/>
<path style=" stroke:none;fill-rule:evenodd;fill:rgb(99.998474%,0%,0%);fill-opacity:0.6;" d="M 204.789063 196 C 204.789063 195.523438 204.601563 195.070313 204.265625 194.734375 C 203.929688 194.398438 203.476563 194.210938 203 194.210938 C 202.523438 194.210938 202.070313 194.398438 201.734375 194.734375 C 201.398438 195.070313 201.210938 195.523438 201.210938 196 C 201.210938 196.476563 201.398438 196.929688 201.734375 197.265625 C 202.070313 197.601563 202.523438 197.789063 203 197.789063 C 203.476563 197.789063 203.929688 197.601563 204.265625 197.265625 C 204.601563 196.929688 204.789063 196.476563 204.789063 196 Z M 204.789063 196 "/>
<path style=" stroke:none;fill-rule:evenodd;fill:rgb(99.998474%,0%,0%);fill-opacity:0.6;" d="M 204.789063 195 C 204.789063 194.523438 204.601563 194.070313 204.265625 193.734375 C 203.929688 193.398438 203.476563 193.210938 203 193.210938 C 202.523438 193.210938 202.070313 193.398438 201.734375 193.734375 C 201.398438 194.070313 201.210938 194.523438 201.210938 195 C 201.210938 195.476563 201.398438 195.929688 201.734375 196.265625 C 202.070313 196.601563 202.523438 196.789063 203 196.789063 C 203.476563 196.789063 203.929688 196.601563 204.265625 196.265625 C 204.601563 195.929688 204.789063 195.476563 204.789063 195 Z M 204.789063 195 "/>
<path style=" stroke:none;fill-rule:evenodd;fill:rgb(99.998474%,0%,0%);fill-opacity:0.6;" d="M 79.789063 86 C 79.789063 85.523438 79.601563 85.070313 79.265625 84.734375 C 78.929688 84.398438 78.476563 84.210938 78 84.210938 C 77.523438 84.210938 77.070313 84.398438 76.734375 84.734375 C 76.398438 85.070313 76.210938 85.523438 76.210938 86 C 76.210938 86.476563 76.398438 86.929688 76.734375 87.265625 C 77.070313 87.601563 77.523438 87.789063 78 87.789063 C 78.476563 87.789063 78.929688 87.601563 79.265625 87.265625 C 79.601563 86.929688 79.789063 86.476563 79.789063 86 Z M 79.789063 86 "/>
<path style=" stroke:none;fill-rule:evenodd;fill:rgb(99.998474%,0%,0%);fill-opacity:0.6;" d="M 45.789063 69 C 45.789063 68.523438 45.601563 68.070313 45.265625 67.734375 C 44.929688 67.398438 44.476563 67.210938 44 67.210938 C 43.523438 67.210938 43.070313 67.398438 42.734375 67.734375 C 42.398438 68.070313 42.210938 68.523438 42.210938 69 C 42.210938 69.476563 42.398438 69.929688 42.734375 70.265625 C 43.070313 70.601563 43.523438 70.789063 44 70.789063 C 44.476563 70.789063 44.929688 70.601563 45.265625 70.265625 C 45.601563 69.929688 45.789063 69.476563 45.789063 69 Z M 45.789063 69 "/>
<path style=" stroke:none;fill-rule:evenodd;fill:rgb(99.998474%,0%,0%);fill-opacity:1;" d="M 294.5 310 C 294.5 309.601563 294.34375 309.21875 294.0625 308.9375 C 293.78125 308.65625 293.398438 308.5 293 308.5 C 292.601563 308.5 292.21875 308.65625 291.9375 308.9375 C 291.65625 309.21875 291.5 309.601563 291.5 310 C 291.5 310.398438 291.65625 310.78125 291.9375 311.0625 C 292.21875 311.34375 292.601563 311.5 293 311.5 C 293.398438 311.5 293.78125 311.34375 294.0625 311.0625 C 294.34375 310.78125 294.5 310.398438 294.5 310 Z M 294.5 310 "/>
<path style=" stroke:none;fill-rule:evenodd;fill:rgb(99.998474%,0%,0%);fill-opacity:1;" d="M 294.5 309 C 294.5 308.601563 294.34375 308.21875 294.0625 307.9375 C 293.78125 307.65625 293.398438 307.5 293 307.5 C 292.601563 307.5 292.21875 307.65625 291.9375 307.9375 C 291.65625 308.21875 291.5 308.601563 291.5 309 C 291.5 309.398438 291.65625 309.78125 291.9375 310.0625 C 292.21875 310.34375 292.601563 310.5 293 310.5 C 293.398438 310.5 293.78125 310.34375 294.0625 310.0625 C 294.34375 309.78125 294.5 309.398438 294.5 309 Z M 294.5 309 "/>
<path style=" stroke:none;fill-rule:evenodd;fill:rgb(99.998474%,0%,0%);fill-opacity:1;" d="M 295.5 308 C 295.5 307.601563 295.34375 307.21875 295.0625 306.9375 C 294.78125 306.65625 294.398438 306.5 294 306.5 C 293.601563 306.5 293.21875 306.65625 292.9375 306.9375 C 292.65625 307.21875 292.5 307.601563 292.5 308 C 292.5 308.398438 292.65625 308.78125 292.9375 309.0625 C 293.21875 309.34375 293.601563 309.5 294 309.5 C 294.398438 309.5 294.78125 309.34375 295.0625 309.0625 C 295.34375 308.78125 295.5 308.398438 295.5 308 Z M 295.5 308 "/>
<path style=" stroke:none;fill-rule:evenodd;fill:rgb(99.998474%,0%,0%);fill-opacity:1;" d="M 15.5 291 C 15.5 290.601563 15.34375 290.21875 15.0625 289.9375 C 14.78125 289.65625 14.398438 289.5 14 289.5 C 13.601563 289.5 13.21875 289.65625 12.9375 289.9375 C 12.65625 290.21875 12.5 290.601563 12.5 291 C 12.5 291.398438 12.65625 291.78125 12.9375 292.0625 C 13.21875 292.34375 13.601563 292.5 14 292.5 C 14.398438 292.5 14.78125 292.34375 15.0625 292.0625 C 15.34375 291.78125 15.5 291.398438 15.5 291 Z M 15.5 291 "/>
<path style=" stroke:none;fill-rule:evenodd;fill:rgb(99.998474%,0%,0%);fill-opacity:1;" d="M 218.5 248 C 218.5 247.601563 218.34375 247.21875 218.0625 246.9375 C 217.78125 246.65625 217.398438 246.5 217 246.5 C 216.601563 246.5 216.21875 246.65625 215.9375 246.9375 C 215.65625 247.21875 215.5 247.601563 215.5 248 C 215.5 248.398438 215.65625 248.78125 215.9375 249.0625 C 216.21875 249.34375 216.601563 249.5 217 249.5 C 217.398438 249.5 217.78125 249.34375 218.0625 249.0625 C 218.34375 248.78125 218.5 248.398438 218.5 248 Z M 218.5 248 "/>
<path style=" stroke:none;fill-rule:evenodd;fill:rgb(99.998474%,0%,0%);fill-opacity:1;" d="M 219.5 248 C 219.5 247.601563 219.34375 247.21875 219.0625 246.9375 C 218.78125 246.65625 218.398438 246.5 218 246.5 C 217.601563 246.5 217.21875 246.65625 216.9375 246.9375 C 216.65625 247.21875 216.5 247.601563 216.5 248 C 216.5 248.398438 216.65625 248.78125 216.9375 249.0625 C 217.21875 249.34375 217.601563 249.5 218 249.5 C 218.398438 249.5 218.78125 249.34375 219.0625 249.0625 C 219.34375 248.78125 219.5 248.398438 219.5 248 Z M 219.5 248 "/>
<path style=" stroke:none;fill-rule:evenodd;fill:rgb(99.998474%,0%,0%);fill-opacity:1;" d="M 204.5 196 C 204.5 195.601563 204.34375 195.21875 204.0625 194.9375 C 203.78125 194.65625 203.398438 194.5 203 194.5 C 202.601563 194.5 202.21875 194.65625 201.9375 194.9375 C 201.65625 195.21875 201.5 195.601563 201.5 196 C 201.5 196.398438 201.65625 196.78125 201.9375 197.0625 C 202.21875 197.34375 202.601563 197.5 203 197.5 C 203.398438 197.5 203.78125 197.34375 204.0625 197.0625 C 204.34375 196.78125 204.5 196.398438 204.5 196 Z M 204.5 196 "/>
<path style=" stroke:none;fill-rule:evenodd;fill:rgb(99.998474%,0%,0%);fill-opacity:1;" d="M 204.5 195 C 204.5 194.601563 204.34375 194.21875 204.0625 193.9375 C 203.78125 193.65625 203.398438 193.5 203 193.5 C 202.601563 193.5 202.21875 193.65625 201.9375 193.9375 C 201.65625 194.21875 201.5 194.601563 201.5 195 C 201.5 195.398438 201.65625 195.78125 201.9375 196.0625 C 202.21875 196.34375 202.601563 196.5 203 196.5 C 203.398438 196.5 203.78125 196.34375 204.0625 196.0625 C 204.34375 195.78125 204.5 195.398438 204.5 195 Z M 204.5 195 "/>
<path style=" stroke:none;fill-rule:evenodd;fill:rgb(99.998474%,0%,0%);fill-opacity:1;" d="M 79.5 86 C 79.5 85.601563 79.34375 85.21875 79.0625 84.9375 C 78.78125 84.65625 78.398438 84.5 78 84.5 C 77.601563 84.5 77.21875 84.65625 76.9375 84.9375 C 76.65625 85.21875 76.5 85.601563 76.5 86 C 76.5 86.398438 76.65625 86.78125 76.9375 87.0625 C 77.21875 87.34375 77.601563 87.5 78 87.5 C 78.398438 87.5 78.78125 87.34375 79.0625 87.0625 C 79.34375 86.78125 79.5 86.398438 79.5 86 Z M 79.5 86 "/>
<path style=" stroke:none;fill-rule:evenodd;fill:rgb(99.998474%,0%,0%);fill-opacity:1;" d="M 45.5 69 C 45.5 68.601563 45.34375 68.21875 45.0625 67.9375 C 44.78125 67.65625 44.398438 67.5 44 67.5 C 43.601563 67.5 43.21875 67.65625 42.9375 67.9375 C 42.65625 68.21875 42.5 68.601563 42.5 69 C 42.5 69.398438 42.65625 69.78125 42.9375 70.0625 C 43.21875 70.34375 43.601563 70.5 44 70.5 C 44.398438 70.5 44.78125 70.34375 45.0625 70.0625 C 45.34375 69.78125 45.5 69.398438 45.5 69 Z M 45.5 69 "/>
</g>
</svg>
