<?xml version="1.0" encoding="UTF-8"?>
<svg xmlns="http://www.w3.org/2000/svg" xmlns:xlink="http://www.w3.org/1999/xlink" width="350pt" height="314pt" viewBox="0 0 350 314" version="1.1">
<g id="surface2330">
<path style="fill-rule:nonzero;fill:rgb(84.999084%,84.999084%,84.999084%);fill-opacity:0.6;stroke-width:1;stroke-linecap:square;stroke-linejoin:miter;stroke:rgb(50%,50%,50%);stroke-opacity:1;stroke-miterlimit:3.25;" d="M 85.503906 306.636719 L 86.179688 304.664063 L 95.746094 220.765625 Z M 85.503906 306.636719 " transform="matrix(1,0,0,1,-74,-13)"/>
<path style="fill-rule:nonzero;fill:rgb(84.999084%,84.999084%,84.999084%);fill-opacity:0.6;stroke-width:1;stroke-linecap:square;stroke-linejoin:miter;stroke:rgb(50%,50%,50%);stroke-opacity:1;stroke-miterlimit:3.25;" d="M 86.179688 304.664063 L 85.503906 306.636719 L 88.007813 304.152344 Z M 86.179688 304.664063 " transform="matrix(1,0,0,1,-74,-13)"/>
<path style="fill-rule:nonzero;fill:rgb(84.999084%,84.999084%,84.999084%);fill-opacity:0.6;stroke-width:1;stroke-linecap:square;stroke-linejoin:miter;stroke:rgb(50%,50%,50%);stroke-opacity:1;stroke-miterlimit:3.25;" d="M 88.007813 304.152344 L 88.945313 304.5625 L 95.746094 220.765625 Z M 88.007813 304.152344 " transform="matrix(1,0,0,1,-74,-13)"/>
<path style="fill-rule:nonzero;fill:rgb(84.999084%,84.999084%,84.999084%);fill-opacity:0.6;stroke-width:1;stroke-linecap:square;stroke-linejoin:miter;stroke:rgb(50%,50%,50%);stroke-opacity:1;stroke-miterlimit:3.25;" d="M 88.945313 304.5625 L 88.007813 304.152344 L 85.503906 306.636719 Z M 88.945313 304.5625 " transform="matrix(1,0,0,1,-74,-13)"/>
<path style="fill-rule:nonzero;fill:rgb(84.999084%,84.999084%,84.999084%);fill-opacity:0.6;stroke-width:1;stroke-linecap:square;stroke-linejoin:miter;stroke:rgb(50%,50%,50%);stroke-opacity:1;stroke-miterlimit:3.25;" d="M 288.855469 262.140625 L 96.28125 220.320313 L 88.945313 304.5625 Z M 288.855469 262.140625 " transform="matrix(1,0,0,1,-74,-13)"/>
<path style="fill-rule:nonzero;fill:rgb(84.999084%,84.999084%,84.999084%);fill-opacity:0.6;stroke-width:1;stroke-linecap:square;stroke-linejoin:miter;stroke:rgb(50%,50%,50%);stroke-opacity:1;stroke-miterlimit:3.25;" d="M 86.179688 304.664063 L 88.007813 304.152344 L 95.746094 220.765625 Z M 86.179688 304.664063 " transform="matrix(1,0,0,1,-74,-13)"/>
<path style="fill-rule:nonzero;fill:rgb(84.999084%,84.999084%,84.999084%);fill-opacity:0.6;stroke-width:1;stroke-linecap:square;stroke-linejoin:miter;stroke:rgb(50%,50%,50%);stroke-opacity:1;stroke-miterlimit:3.25;" d="M 95.746094 220.765625 L 96.28125 220.320313 L 113.726563 88.207031 Z M 95.746094 220.765625 " transform="matrix(1,0,0,1,-74,-13)"/>
<path style="fill-rule:nonzero;fill:rgb(84.999084%,84.999084%,84.999084%);fill-opacity:0.6;stroke-width:1;stroke-linecap:square;stroke-linejoin:miter;stroke:rgb(50%,50%,50%);stroke-opacity:1;stroke-miterlimit:3.25;" d="M 95.746094 220.765625 L 88.945313 304.5625 L 96.28125 220.320313 Z M 95.746094 220.765625 " transform="matrix(1,0,0,1,-74,-13)"/>
<path style="fill-rule:nonzero;fill:rgb(84.999084%,84.999084%,84.999084%);fill-opacity:0.6;stroke-width:1;stroke-linecap:square;stroke-linejoin:miter;stroke:rgb(50%,50%,50%);stroke-opacity:1;stroke-miterlimit:3.25;" d="M 272.832031 209.441406 L 281.589844 213.371094 L 280.550781 211.351563 Z M 272.832031 209.441406 " transform="matrix(1,0,0,1,-74,-13)"/>
<path style="fill-rule:nonzero;fill:rgb(84.999084%,84.999084%,84.999084%);fill-opacity:0.6;stroke-width:1;stroke-linecap:square;stroke-linejoin:miter;stroke:rgb(50%,50%,50%);stroke-opacity:1;stroke-miterlimit:3.25;" d="M 272.832031 209.441406 L 96.28125 220.320313 L 288.855469 262.140625 Z M 272.832031 209.441406 " transform="matrix(1,0,0,1,-74,-13)"/>
<path style="fill-rule:nonzero;fill:rgb(84.999084%,84.999084%,84.999084%);fill-opacity:0.6;stroke-width:1;stroke-linecap:square;stroke-linejoin:miter;stroke:rgb(50%,50%,50%);stroke-opacity:1;stroke-miterlimit:3.25;" d="M 280.550781 211.351563 L 281.589844 213.371094 L 281.019531 204.742188 Z M 280.550781 211.351563 " transform="matrix(1,0,0,1,-74,-13)"/>
<path style="fill-rule:nonzero;fill:rgb(84.999084%,84.999084%,84.999084%);fill-opacity:0.6;stroke-width:1;stroke-linecap:square;stroke-linejoin:miter;stroke:rgb(50%,50%,50%);stroke-opacity:1;stroke-miterlimit:3.25;" d="M 272.832031 209.441406 L 280.550781 211.351563 L 277.789063 206.21875 Z M 272.832031 209.441406 " transform="matrix(1,0,0,1,-74,-13)"/>
<path style="fill-rule:nonzero;fill:rgb(84.999084%,84.999084%,84.999084%);fill-opacity:0.6;stroke-width:1;stroke-linecap:square;stroke-linejoin:miter;stroke:rgb(50%,50%,50%);stroke-opacity:1;stroke-miterlimit:3.25;" d="M 272.832031 209.441406 L 290.035156 259.335938 L 281.589844 213.371094 Z M 272.832031 209.441406 " transform="matrix(1,0,0,1,-74,-13)"/>
<path style="fill-rule:nonzero;fill:rgb(84.999084%,84.999084%,84.999084%);fill-opacity:0.6;stroke-width:1;stroke-linecap:square;stroke-linejoin:miter;stroke:rgb(50%,50%,50%);stroke-opacity:1;stroke-miterlimit:3.25;" d="M 96.28125 220.320313 L 272.832031 209.441406 L 271.855469 204.84375 Z M 96.28125 220.320313 " transform="matrix(1,0,0,1,-74,-13)"/>
<path style="fill-rule:nonzero;fill:rgb(84.999084%,84.999084%,84.999084%);fill-opacity:0.6;stroke-width:1;stroke-linecap:square;stroke-linejoin:miter;stroke:rgb(50%,50%,50%);stroke-opacity:1;stroke-miterlimit:3.25;" d="M 88.945313 304.5625 L 85.503906 306.636719 L 368.71875 325.453125 Z M 88.945313 304.5625 " transform="matrix(1,0,0,1,-74,-13)"/>
<path style="fill-rule:nonzero;fill:rgb(84.999084%,84.999084%,84.999084%);fill-opacity:0.6;stroke-width:1;stroke-linecap:square;stroke-linejoin:miter;stroke:rgb(50%,50%,50%);stroke-opacity:1;stroke-miterlimit:3.25;" d="M 113.726563 88.207031 L 152.398438 99.320313 L 116.960938 85.671875 Z M 113.726563 88.207031 " transform="matrix(1,0,0,1,-74,-13)"/>
<path style="fill-rule:nonzero;fill:rgb(84.999084%,84.999084%,84.999084%);fill-opacity:0.6;stroke-width:1;stroke-linecap:square;stroke-linejoin:miter;stroke:rgb(50%,50%,50%);stroke-opacity:1;stroke-miterlimit:3.25;" d="M 113.726563 88.207031 L 96.28125 220.320313 L 152.398438 99.320313 Z M 113.726563 88.207031 " transform="matrix(1,0,0,1,-74,-13)"/>
<path style="fill-rule:nonzero;fill:rgb(84.999084%,84.999084%,84.999084%);fill-opacity:0.6;stroke-width:1;stroke-linecap:square;stroke-linejoin:miter;stroke:rgb(50%,50%,50%);stroke-opacity:1;stroke-miterlimit:3.25;" d="M 113.726563 88.207031 L 116.558594 84.261719 L 115.820313 82.636719 Z M 113.726563 88.207031 " transform="matrix(1,0,0,1,-74,-13)"/>
<path style="fill-rule:nonzero;fill:rgb(84.999084%,84.999084%,84.999084%);fill-opacity:0.6;stroke-width:1;stroke-linecap:square;stroke-linejoin:miter;stroke:rgb(50%,50%,50%);stroke-opacity:1;stroke-miterlimit:3.25;" d="M 116.558594 84.261719 L 113.726563 88.207031 L 116.960938 85.671875 Z M 116.558594 84.261719 " transform="matrix(1,0,0,1,-74,-13)"/>
<path style="fill-rule:nonzero;fill:rgb(84.999084%,84.999084%,84.999084%);fill-opacity:0.6;stroke-width:1;stroke-linecap:square;stroke-linejoin:miter;stroke:rgb(50%,50%,50%);stroke-opacity:1;stroke-miterlimit:3.25;" d="M 116.558594 84.261719 L 116.960938 85.671875 L 152.398438 99.320313 Z M 116.558594 84.261719 " transform="matrix(1,0,0,1,-74,-13)"/>
<path style="fill-rule:nonzero;fill:rgb(84.999084%,84.999084%,84.999084%);fill-opacity:0.6;stroke-width:1;stroke-linecap:square;stroke-linejoin:miter;stroke:rgb(50%,50%,50%);stroke-opacity:1;stroke-miterlimit:3.25;" d="M 115.820313 82.636719 L 116.558594 84.261719 L 152.398438 99.320313 Z M 115.820313 82.636719 " transform="matrix(1,0,0,1,-74,-13)"/>
<path style="fill-rule:nonzero;fill:rgb(84.999084%,84.999084%,84.999084%);fill-opacity:0.6;stroke-width:1;stroke-linecap:square;stroke-linejoin:miter;stroke:rgb(50%,50%,50%);stroke-opacity:1;stroke-miterlimit:3.25;" d="M 152.398438 99.320313 L 348.730469 32.273438 L 115.820313 82.636719 Z M 152.398438 99.320313 " transform="matrix(1,0,0,1,-74,-13)"/>
<path style="fill-rule:nonzero;fill:rgb(84.999084%,84.999084%,84.999084%);fill-opacity:0.6;stroke-width:1;stroke-linecap:square;stroke-linejoin:miter;stroke:rgb(50%,50%,50%);stroke-opacity:1;stroke-miterlimit:3.25;" d="M 274.6875 206.410156 L 277.789063 206.21875 L 274.929688 203.964844 Z M 274.6875 206.410156 " transform="matrix(1,0,0,1,-74,-13)"/>
<path style="fill-rule:nonzero;fill:rgb(84.999084%,84.999084%,84.999084%);fill-opacity:0.6;stroke-width:1;stroke-linecap:square;stroke-linejoin:miter;stroke:rgb(50%,50%,50%);stroke-opacity:1;stroke-miterlimit:3.25;" d="M 277.789063 206.21875 L 274.6875 206.410156 L 272.832031 209.441406 Z M 277.789063 206.21875 " transform="matrix(1,0,0,1,-74,-13)"/>
<path style="fill-rule:nonzero;fill:rgb(84.999084%,84.999084%,84.999084%);fill-opacity:0.6;stroke-width:1;stroke-linecap:square;stroke-linejoin:miter;stroke:rgb(50%,50%,50%);stroke-opacity:1;stroke-miterlimit:3.25;" d="M 274.6875 206.410156 L 274.929688 203.964844 L 271.855469 204.84375 Z M 274.6875 206.410156 " transform="matrix(1,0,0,1,-74,-13)"/>
<path style="fill-rule:nonzero;fill:rgb(84.999084%,84.999084%,84.999084%);fill-opacity:0.6;stroke-width:1;stroke-linecap:square;stroke-linejoin:miter;stroke:rgb(50%,50%,50%);stroke-opacity:1;stroke-miterlimit:3.25;" d="M 274.929688 203.964844 L 277.789063 206.21875 L 281.019531 204.742188 Z M 274.929688 203.964844 " transform="matrix(1,0,0,1,-74,-13)"/>
<path style="fill-rule:nonzero;fill:rgb(84.999084%,84.999084%,84.999084%);fill-opacity:0.6;stroke-width:1;stroke-linecap:square;stroke-linejoin:miter;stroke:rgb(50%,50%,50%);stroke-opacity:1;stroke-miterlimit:3.25;" d="M 152.398438 99.320313 L 274.929688 203.964844 L 348.730469 32.273438 Z M 152.398438 99.320313 " transform="matrix(1,0,0,1,-74,-13)"/>
<path style="fill-rule:nonzero;fill:rgb(84.999084%,84.999084%,84.999084%);fill-opacity:0.6;stroke-width:1;stroke-linecap:square;stroke-linejoin:miter;stroke:rgb(50%,50%,50%);stroke-opacity:1;stroke-miterlimit:3.25;" d="M 271.855469 204.84375 L 274.929688 203.964844 L 152.398438 99.320313 Z M 271.855469 204.84375 " transform="matrix(1,0,0,1,-74,-13)"/>
<path style="fill-rule:nonzero;fill:rgb(84.999084%,84.999084%,84.999084%);fill-opacity:0.6;stroke-width:1;stroke-linecap:square;stroke-linejoin:miter;stroke:rgb(50%,50%,50%);stroke-opacity:1;stroke-miterlimit:3.25;" d="M 277.789063 206.21875 L 280.550781 211.351563 L 281.019531 204.742188 Z M 277.789063 206.21875 " transform="matrix(1,0,0,1,-74,-13)"/>
<path style="fill-rule:nonzero;fill:rgb(84.999084%,84.999084%,84.999084%);fill-opacity:0.6;stroke-width:1;stroke-linecap:square;stroke-linejoin:miter;stroke:rgb(50%,50%,50%);stroke-opacity:1;stroke-miterlimit:3.25;" d="M 274.6875 206.410156 L 271.855469 204.84375 L 272.832031 209.441406 Z M 274.6875 206.410156 " transform="matrix(1,0,0,1,-74,-13)"/>
<path style="fill-rule:nonzero;fill:rgb(84.999084%,84.999084%,84.999084%);fill-opacity:0.6;stroke-width:1;stroke-linecap:square;stroke-linejoin:miter;stroke:rgb(50%,50%,50%);stroke-opacity:1;stroke-miterlimit:3.25;" d="M 96.28125 220.320313 L 271.855469 204.84375 L 152.398438 99.320313 Z M 96.28125 220.320313 " transform="matrix(1,0,0,1,-74,-13)"/>
<path style="fill-rule:nonzero;fill:rgb(84.999084%,84.999084%,84.999084%);fill-opacity:0.6;stroke-width:1;stroke-linecap:square;stroke-linejoin:miter;stroke:rgb(50%,50%,50%);stroke-opacity:1;stroke-miterlimit:3.25;" d="M 375.753906 112.652344 L 274.929688 203.964844 L 281.019531 204.742188 Z M 375.753906 112.652344 " transform="matrix(1,0,0,1,-74,-13)"/>
<path style="fill-rule:nonzero;fill:rgb(84.999084%,84.999084%,84.999084%);fill-opacity:0.6;stroke-width:1;stroke-linecap:square;stroke-linejoin:miter;stroke:rgb(50%,50%,50%);stroke-opacity:1;stroke-miterlimit:3.25;" d="M 281.589844 213.371094 L 387.273438 125.324219 L 281.019531 204.742188 Z M 281.589844 213.371094 " transform="matrix(1,0,0,1,-74,-13)"/>
<path style="fill-rule:nonzero;fill:rgb(84.999084%,84.999084%,84.999084%);fill-opacity:0.6;stroke-width:1;stroke-linecap:square;stroke-linejoin:miter;stroke:rgb(50%,50%,50%);stroke-opacity:1;stroke-miterlimit:3.25;" d="M 365.671875 321.273438 L 368.148438 319.929688 L 296.5 266.992188 Z M 365.671875 321.273438 " transform="matrix(1,0,0,1,-74,-13)"/>
<path style="fill-rule:nonzero;fill:rgb(84.999084%,84.999084%,84.999084%);fill-opacity:0.6;stroke-width:1;stroke-linecap:square;stroke-linejoin:miter;stroke:rgb(50%,50%,50%);stroke-opacity:1;stroke-miterlimit:3.25;" d="M 368.148438 319.929688 L 365.671875 321.273438 L 368.253906 320.449219 Z M 368.148438 319.929688 " transform="matrix(1,0,0,1,-74,-13)"/>
<path style="fill-rule:nonzero;fill:rgb(84.999084%,84.999084%,84.999084%);fill-opacity:0.6;stroke-width:1;stroke-linecap:square;stroke-linejoin:miter;stroke:rgb(50%,50%,50%);stroke-opacity:1;stroke-miterlimit:3.25;" d="M 288.855469 262.140625 L 296.175781 267.300781 L 296.5 266.992188 Z M 288.855469 262.140625 " transform="matrix(1,0,0,1,-74,-13)"/>
<path style="fill-rule:nonzero;fill:rgb(84.999084%,84.999084%,84.999084%);fill-opacity:0.6;stroke-width:1;stroke-linecap:square;stroke-linejoin:miter;stroke:rgb(50%,50%,50%);stroke-opacity:1;stroke-miterlimit:3.25;" d="M 365.671875 321.273438 L 296.175781 267.300781 L 368.71875 325.453125 Z M 365.671875 321.273438 " transform="matrix(1,0,0,1,-74,-13)"/>
<path style="fill-rule:nonzero;fill:rgb(84.999084%,84.999084%,84.999084%);fill-opacity:0.6;stroke-width:1;stroke-linecap:square;stroke-linejoin:miter;stroke:rgb(50%,50%,50%);stroke-opacity:1;stroke-miterlimit:3.25;" d="M 296.5 266.992188 L 296.175781 267.300781 L 365.671875 321.273438 Z M 296.5 266.992188 " transform="matrix(1,0,0,1,-74,-13)"/>
<path style="fill-rule:nonzero;fill:rgb(84.999084%,84.999084%,84.999084%);fill-opacity:0.6;stroke-width:1;stroke-linecap:square;stroke-linejoin:miter;stroke:rgb(50%,50%,50%);stroke-opacity:1;stroke-miterlimit:3.25;" d="M 288.855469 262.140625 L 296.5 266.992188 L 290.035156 259.335938 Z M 288.855469 262.140625 " transform="matrix(1,0,0,1,-74,-13)"/>
<path style="fill-rule:nonzero;fill:rgb(84.999084%,84.999084%,84.999084%);fill-opacity:0.6;stroke-width:1;stroke-linecap:square;stroke-linejoin:miter;stroke:rgb(50%,50%,50%);stroke-opacity:1;stroke-miterlimit:3.25;" d="M 368.148438 319.929688 L 370.226563 318.648438 L 296.5 266.992188 Z M 368.148438 319.929688 " transform="matrix(1,0,0,1,-74,-13)"/>
<path style="fill-rule:nonzero;fill:rgb(84.999084%,84.999084%,84.999084%);fill-opacity:0.6;stroke-width:1;stroke-linecap:square;stroke-linejoin:miter;stroke:rgb(50%,50%,50%);stroke-opacity:1;stroke-miterlimit:3.25;" d="M 296.175781 267.300781 L 288.855469 262.140625 L 88.945313 304.5625 Z M 296.175781 267.300781 " transform="matrix(1,0,0,1,-74,-13)"/>
<path style="fill-rule:nonzero;fill:rgb(84.999084%,84.999084%,84.999084%);fill-opacity:0.6;stroke-width:1;stroke-linecap:square;stroke-linejoin:miter;stroke:rgb(50%,50%,50%);stroke-opacity:1;stroke-miterlimit:3.25;" d="M 368.773438 321.984375 L 368.253906 320.449219 L 365.671875 321.273438 Z M 368.773438 321.984375 " transform="matrix(1,0,0,1,-74,-13)"/>
<path style="fill-rule:nonzero;fill:rgb(84.999084%,84.999084%,84.999084%);fill-opacity:0.6;stroke-width:1;stroke-linecap:square;stroke-linejoin:miter;stroke:rgb(50%,50%,50%);stroke-opacity:1;stroke-miterlimit:3.25;" d="M 368.773438 321.984375 L 368.71875 325.453125 L 369.769531 320.289063 Z M 368.773438 321.984375 " transform="matrix(1,0,0,1,-74,-13)"/>
<path style="fill-rule:nonzero;fill:rgb(84.999084%,84.999084%,84.999084%);fill-opacity:0.6;stroke-width:1;stroke-linecap:square;stroke-linejoin:miter;stroke:rgb(50%,50%,50%);stroke-opacity:1;stroke-miterlimit:3.25;" d="M 369.769531 320.289063 L 370.226563 318.648438 L 368.148438 319.929688 Z M 369.769531 320.289063 " transform="matrix(1,0,0,1,-74,-13)"/>
<path style="fill-rule:nonzero;fill:rgb(84.999084%,84.999084%,84.999084%);fill-opacity:0.6;stroke-width:1;stroke-linecap:square;stroke-linejoin:miter;stroke:rgb(50%,50%,50%);stroke-opacity:1;stroke-miterlimit:3.25;" d="M 369.769531 320.289063 L 368.253906 320.449219 L 368.773438 321.984375 Z M 369.769531 320.289063 " transform="matrix(1,0,0,1,-74,-13)"/>
<path style="fill-rule:nonzero;fill:rgb(84.999084%,84.999084%,84.999084%);fill-opacity:0.6;stroke-width:1;stroke-linecap:square;stroke-linejoin:miter;stroke:rgb(50%,50%,50%);stroke-opacity:1;stroke-miterlimit:3.25;" d="M 370.226563 318.648438 L 369.769531 320.289063 L 368.71875 325.453125 Z M 370.226563 318.648438 " transform="matrix(1,0,0,1,-74,-13)"/>
<path style="fill-rule:nonzero;fill:rgb(84.999084%,84.999084%,84.999084%);fill-opacity:0.6;stroke-width:1;stroke-linecap:square;stroke-linejoin:miter;stroke:rgb(50%,50%,50%);stroke-opacity:1;stroke-miterlimit:3.25;" d="M 369.769531 320.289063 L 368.148438 319.929688 L 368.253906 320.449219 Z M 369.769531 320.289063 " transform="matrix(1,0,0,1,-74,-13)"/>
<path style="fill-rule:nonzero;fill:rgb(84.999084%,84.999084%,84.999084%);fill-opacity:0.6;stroke-width:1;stroke-linecap:square;stroke-linejoin:miter;stroke:rgb(50%,50%,50%);stroke-opacity:1;stroke-miterlimit:3.25;" d="M 368.773438 321.984375 L 365.671875 321.273438 L 368.71875 325.453125 Z M 368.773438 321.984375 " transform="matrix(1,0,0,1,-74,-13)"/>
<path style="fill-rule:nonzero;fill:rgb(84.999084%,84.999084%,84.999084%);fill-opacity:0.6;stroke-width:1;stroke-linecap:square;stroke-linejoin:miter;stroke:rgb(50%,50%,50%);stroke-opacity:1;stroke-miterlimit:3.25;" d="M 88.945313 304.5625 L 368.71875 325.453125 L 296.175781 267.300781 Z M 88.945313 304.5625 " transform="matrix(1,0,0,1,-74,-13)"/>
<path style="fill-rule:nonzero;fill:rgb(84.999084%,84.999084%,84.999084%);fill-opacity:0.6;stroke-width:1;stroke-linecap:square;stroke-linejoin:miter;stroke:rgb(50%,50%,50%);stroke-opacity:1;stroke-miterlimit:3.25;" d="M 296.5 266.992188 L 370.226563 318.648438 L 387.273438 125.324219 Z M 296.5 266.992188 " transform="matrix(1,0,0,1,-74,-13)"/>
<path style="fill-rule:nonzero;fill:rgb(84.999084%,84.999084%,84.999084%);fill-opacity:0.6;stroke-width:1;stroke-linecap:square;stroke-linejoin:miter;stroke:rgb(50%,50%,50%);stroke-opacity:1;stroke-miterlimit:3.25;" d="M 375.753906 112.652344 L 384.839844 120.679688 L 377.78125 113.289063 Z M 375.753906 112.652344 " transform="matrix(1,0,0,1,-74,-13)"/>
<path style="fill-rule:nonzero;fill:rgb(84.999084%,84.999084%,84.999084%);fill-opacity:0.6;stroke-width:1;stroke-linecap:square;stroke-linejoin:miter;stroke:rgb(50%,50%,50%);stroke-opacity:1;stroke-miterlimit:3.25;" d="M 375.753906 112.652344 L 281.019531 204.742188 L 387.273438 125.324219 Z M 375.753906 112.652344 " transform="matrix(1,0,0,1,-74,-13)"/>
<path style="fill-rule:nonzero;fill:rgb(84.999084%,84.999084%,84.999084%);fill-opacity:0.6;stroke-width:1;stroke-linecap:square;stroke-linejoin:miter;stroke:rgb(50%,50%,50%);stroke-opacity:1;stroke-miterlimit:3.25;" d="M 348.730469 32.273438 L 375.753906 112.652344 L 351.789063 30.195313 Z M 348.730469 32.273438 " transform="matrix(1,0,0,1,-74,-13)"/>
<path style="fill-rule:nonzero;fill:rgb(84.999084%,84.999084%,84.999084%);fill-opacity:0.6;stroke-width:1;stroke-linecap:square;stroke-linejoin:miter;stroke:rgb(50%,50%,50%);stroke-opacity:1;stroke-miterlimit:3.25;" d="M 348.730469 32.273438 L 274.929688 203.964844 L 375.753906 112.652344 Z M 348.730469 32.273438 " transform="matrix(1,0,0,1,-74,-13)"/>
<path style="fill-rule:nonzero;fill:rgb(84.999084%,84.999084%,84.999084%);fill-opacity:0.6;stroke-width:1;stroke-linecap:square;stroke-linejoin:miter;stroke:rgb(50%,50%,50%);stroke-opacity:1;stroke-miterlimit:3.25;" d="M 418.605469 21.914063 L 351.789063 30.195313 L 375.753906 112.652344 Z M 418.605469 21.914063 " transform="matrix(1,0,0,1,-74,-13)"/>
<path style="fill-rule:nonzero;fill:rgb(84.999084%,84.999084%,84.999084%);fill-opacity:0.6;stroke-width:1;stroke-linecap:square;stroke-linejoin:miter;stroke:rgb(50%,50%,50%);stroke-opacity:1;stroke-miterlimit:3.25;" d="M 348.730469 32.273438 L 351.789063 30.195313 L 115.820313 82.636719 Z M 348.730469 32.273438 " transform="matrix(1,0,0,1,-74,-13)"/>
<path style="fill-rule:nonzero;fill:rgb(84.999084%,84.999084%,84.999084%);fill-opacity:0.6;stroke-width:1;stroke-linecap:square;stroke-linejoin:miter;stroke:rgb(50%,50%,50%);stroke-opacity:1;stroke-miterlimit:3.25;" d="M 375.753906 112.652344 L 377.78125 113.289063 L 418.605469 21.914063 Z M 375.753906 112.652344 " transform="matrix(1,0,0,1,-74,-13)"/>
<path style="fill-rule:nonzero;fill:rgb(84.999084%,84.999084%,84.999084%);fill-opacity:0.6;stroke-width:1;stroke-linecap:square;stroke-linejoin:miter;stroke:rgb(50%,50%,50%);stroke-opacity:1;stroke-miterlimit:3.25;" d="M 296.5 266.992188 L 281.589844 213.371094 L 290.035156 259.335938 Z M 296.5 266.992188 " transform="matrix(1,0,0,1,-74,-13)"/>
<path style="fill-rule:nonzero;fill:rgb(84.999084%,84.999084%,84.999084%);fill-opacity:0.6;stroke-width:1;stroke-linecap:square;stroke-linejoin:miter;stroke:rgb(50%,50%,50%);stroke-opacity:1;stroke-miterlimit:3.25;" d="M 384.839844 120.679688 L 387.273438 125.324219 L 421.515625 22.867188 Z M 384.839844 120.679688 " transform="matrix(1,0,0,1,-74,-13)"/>
<path style="fill-rule:nonzero;fill:rgb(84.999084%,84.999084%,84.999084%);fill-opacity:0.6;stroke-width:1;stroke-linecap:square;stroke-linejoin:miter;stroke:rgb(50%,50%,50%);stroke-opacity:1;stroke-miterlimit:3.25;" d="M 387.273438 125.324219 L 384.839844 120.679688 L 375.753906 112.652344 Z M 387.273438 125.324219 " transform="matrix(1,0,0,1,-74,-13)"/>
<path style="fill-rule:nonzero;fill:rgb(84.999084%,84.999084%,84.999084%);fill-opacity:0.6;stroke-width:1;stroke-linecap:square;stroke-linejoin:miter;stroke:rgb(50%,50%,50%);stroke-opacity:1;stroke-miterlimit:3.25;" d="M 418.605469 21.914063 L 421.515625 22.867188 L 420.925781 21.738281 Z M 418.605469 21.914063 " transform="matrix(1,0,0,1,-74,-13)"/>
<path style="fill-rule:nonzero;fill:rgb(84.999084%,84.999084%,84.999084%);fill-opacity:0.6;stroke-width:1;stroke-linecap:square;stroke-linejoin:miter;stroke:rgb(50%,50%,50%);stroke-opacity:1;stroke-miterlimit:3.25;" d="M 418.605469 21.914063 L 377.78125 113.289063 L 421.515625 22.867188 Z M 418.605469 21.914063 " transform="matrix(1,0,0,1,-74,-13)"/>
<path style="fill-rule:nonzero;fill:rgb(84.999084%,84.999084%,84.999084%);fill-opacity:0.6;stroke-width:1;stroke-linecap:square;stroke-linejoin:miter;stroke:rgb(50%,50%,50%);stroke-opacity:1;stroke-miterlimit:3.25;" d="M 387.273438 125.324219 L 370.226563 318.648438 L 421.515625 22.867188 Z M 387.273438 125.324219 " transform="matrix(1,0,0,1,-74,-13)"/>
<path style="fill-rule:nonzero;fill:rgb(84.999084%,84.999084%,84.999084%);fill-opacity:0.6;stroke-width:1;stroke-linecap:square;stroke-linejoin:miter;stroke:rgb(50%,50%,50%);stroke-opacity:1;stroke-miterlimit:3.25;" d="M 421.515625 22.867188 L 377.78125 113.289063 L 384.839844 120.679688 Z M 421.515625 22.867188 " transform="matrix(1,0,0,1,-74,-13)"/>
<path style="fill-rule:nonzero;fill:rgb(84.999084%,84.999084%,84.999084%);fill-opacity:0.6;stroke-width:1;stroke-linecap:square;stroke-linejoin:miter;stroke:rgb(50%,50%,50%);stroke-opacity:1;stroke-miterlimit:3.25;" d="M 296.5 266.992188 L 387.273438 125.324219 L 281.589844 213.371094 Z M 296.5 266.992188 " transform="matrix(1,0,0,1,-74,-13)"/>
<path style="fill-rule:nonzero;fill:rgb(84.999084%,84.999084%,84.999084%);fill-opacity:0.6;stroke-width:1;stroke-linecap:square;stroke-linejoin:miter;stroke:rgb(50%,50%,50%);stroke-opacity:1;stroke-miterlimit:3.25;" d="M 290.035156 259.335938 L 272.832031 209.441406 L 288.855469 262.140625 Z M 290.035156 259.335938 " transform="matrix(1,0,0,1,-74,-13)"/>
<path style=" stroke:none;fill-rule:evenodd;fill:rgb(99.998474%,0%,0%);fill-opacity:0.6;" d="M 296.789063 312 C 296.789063 311.523438 296.601563 311.070313 296.265625 310.734375 C 295.929688 310.398438 295.476563 310.210938 295 310.210938 C 294.523438 310.210938 294.070313 310.398438 293.734375 310.734375 C 293.398438 311.070313 293.210938 311.523438 293.210938 312 C 293.210938 312.476563 293.398438 312.929688 293.734375 313.265625 C 294.070313 313.601563 294.523438 313.789063 295 313.789063 C 295.476563 313.789063 295.929688 313.601563 296.265625 313.265625 C 296.601563 312.929688 296.789063 312.476563 296.789063 312 Z M 296.789063 312 "/>
<path style=" stroke:none;fill-rule:evenodd;fill:rgb(99.998474%,0%,0%);fill-opacity:0.6;" d="M 296.789063 309 C 296.789063 308.523438 296.601563 308.070313 296.265625 307.734375 C 295.929688 307.398438 295.476563 307.210938 295 307.210938 C 294.523438 307.210938 294.070313 307.398438 293.734375 307.734375 C 293.398438 308.070313 293.210938 308.523438 293.210938 309 C 293.210938 309.476563 293.398438 309.929688 293.734375 310.265625 C 294.070313 310.601563 294.523438 310.789063 295 310.789063 C 295.476563 310.789063 295.929688 310.601563 296.265625 310.265625 C 296.601563 309.929688 296.789063 309.476563 296.789063 309 Z M 296.789063 309 "/>
<path style=" stroke:none;fill-rule:evenodd;fill:rgb(99.998474%,0%,0%);fill-opacity:0.6;" d="M 293.789063 308 C 293.789063 307.523438 293.601563 307.070313 293.265625 306.734375 C 292.929688 306.398438 292.476563 306.210938 292 306.210938 C 291.523438 306.210938 291.070313 306.398438 290.734375 306.734375 C 290.398438 307.070313 290.210938 307.523438 290.210938 308 C 290.210938 308.476563 290.398438 308.929688 290.734375 309.265625 C 291.070313 309.601563 291.523438 309.789063 292 309.789063 C 292.476563 309.789063 292.929688 309.601563 293.265625 309.265625 C 293.601563 308.929688 293.789063 308.476563 293.789063 308 Z M 293.789063 308 "/>
<path style=" stroke:none;fill-rule:evenodd;fill:rgb(99.998474%,0%,0%);fill-opacity:0.6;" d="M 295.789063 307 C 295.789063 306.523438 295.601563 306.070313 295.265625 305.734375 C 294.929688 305.398438 294.476563 305.210938 294 305.210938 C 293.523438 305.210938 293.070313 305.398438 292.734375 305.734375 C 292.398438 306.070313 292.210938 306.523438 292.210938 307 C 292.210938 307.476563 292.398438 307.929688 292.734375 308.265625 C 293.070313 308.601563 293.523438 308.789063 294 308.789063 C 294.476563 308.789063 294.929688 308.601563 295.265625 308.265625 C 295.601563 307.929688 295.789063 307.476563 295.789063 307 Z M 295.789063 307 "/>
<path style=" stroke:none;fill-rule:evenodd;fill:rgb(99.998474%,0%,0%);fill-opacity:0.6;" d="M 297.789063 307 C 297.789063 306.523438 297.601563 306.070313 297.265625 305.734375 C 296.929688 305.398438 296.476563 305.210938 296 305.210938 C 295.523438 305.210938 295.070313 305.398438 294.734375 305.734375 C 294.398438 306.070313 294.210938 306.523438 294.210938 307 C 294.210938 307.476563 294.398438 307.929688 294.734375 308.265625 C 295.070313 308.601563 295.523438 308.789063 296 308.789063 C 296.476563 308.789063 296.929688 308.601563 297.265625 308.265625 C 297.601563 307.929688 297.789063 307.476563 297.789063 307 Z M 297.789063 307 "/>
<path style=" stroke:none;fill-rule:evenodd;fill:rgb(99.998474%,0%,0%);fill-opacity:0.6;" d="M 295.789063 307 C 295.789063 306.523438 295.601563 306.070313 295.265625 305.734375 C 294.929688 305.398438 294.476563 305.210938 294 305.210938 C 293.523438 305.210938 293.070313 305.398438 292.734375 305.734375 C 292.398438 306.070313 292.210938 306.523438 292.210938 307 C 292.210938 307.476563 292.398438 307.929688 292.734375 308.265625 C 293.070313 308.601563 293.523438 308.789063 294 308.789063 C 294.476563 308.789063 294.929688 308.601563 295.265625 308.265625 C 295.601563 307.929688 295.789063 307.476563 295.789063 307 Z M 295.789063 307 "/>
<path style=" stroke:none;fill-rule:evenodd;fill:rgb(99.998474%,0%,0%);fill-opacity:0.6;" d="M 297.789063 306 C 297.789063 305.523438 297.601563 305.070313 297.265625 304.734375 C 296.929688 304.398438 296.476563 304.210938 296 304.210938 C 295.523438 304.210938 295.070313 304.398438 294.734375 304.734375 C 294.398438 305.070313 294.210938 305.523438 294.210938 306 C 294.210938 306.476563 294.398438 306.929688 294.734375 307.265625 C 295.070313 307.601563 295.523438 307.789063 296 307.789063 C 296.476563 307.789063 296.929688 307.601563 297.265625 307.265625 C 297.601563 306.929688 297.789063 306.476563 297.789063 306 Z M 297.789063 306 "/>
<path style=" stroke:none;fill-rule:evenodd;fill:rgb(99.998474%,0%,0%);fill-opacity:0.6;" d="M 13.789063 294 C 13.789063 293.523438 13.601563 293.070313 13.265625 292.734375 C 12.929688 292.398438 12.476563 292.210938 12 292.210938 C 11.523438 292.210938 11.070313 292.398438 10.734375 292.734375 C 10.398438 293.070313 10.210938 293.523438 10.210938 294 C 10.210938 294.476563 10.398438 294.929688 10.734375 295.265625 C 11.070313 295.601563 11.523438 295.789063 12 295.789063 C 12.476563 295.789063 12.929688 295.601563 13.265625 295.265625 C 13.601563 294.929688 13.789063 294.476563 13.789063 294 Z M 13.789063 294 "/>
<path style=" stroke:none;fill-rule:evenodd;fill:rgb(99.998474%,0%,0%);fill-opacity:0.6;" d="M 13.789063 292 C 13.789063 291.523438 13.601563 291.070313 13.265625 290.734375 C 12.929688 290.398438 12.476563 290.210938 12 290.210938 C 11.523438 290.210938 11.070313 290.398438 10.734375 290.734375 C 10.398438 291.070313 10.210938 291.523438 10.210938 292 C 10.210938 292.476563 10.398438 292.929688 10.734375 293.265625 C 11.070313 293.601563 11.523438 293.789063 12 293.789063 C 12.476563 293.789063 12.929688 293.601563 13.265625 293.265625 C 13.601563 292.929688 13.789063 292.476563 13.789063 292 Z M 13.789063 292 "/>
<path style=" stroke:none;fill-rule:evenodd;fill:rgb(99.998474%,0%,0%);fill-opacity:0.6;" d="M 16.789063 292 C 16.789063 291.523438 16.601563 291.070313 16.265625 290.734375 C 15.929688 290.398438 15.476563 290.210938 15 290.210938 C 14.523438 290.210938 14.070313 290.398438 13.734375 290.734375 C 13.398438 291.070313 13.210938 291.523438 13.210938 292 C 13.210938 292.476563 13.398438 292.929688 13.734375 293.265625 C 14.070313 293.601563 14.523438 293.789063 15 293.789063 C 15.476563 293.789063 15.929688 293.601563 16.265625 293.265625 C 16.601563 292.929688 16.789063 292.476563 16.789063 292 Z M 16.789063 292 "/>
<path style=" stroke:none;fill-rule:evenodd;fill:rgb(99.998474%,0%,0%);fill-opacity:0.6;" d="M 15.789063 291 C 15.789063 290.523438 15.601563 290.070313 15.265625 289.734375 C 14.929688 289.398438 14.476563 289.210938 14 289.210938 C 13.523438 289.210938 13.070313 289.398438 12.734375 289.734375 C 12.398438 290.070313 12.210938 290.523438 12.210938 291 C 12.210938 291.476563 12.398438 291.929688 12.734375 292.265625 C 13.070313 292.601563 13.523438 292.789063 14 292.789063 C 14.476563 292.789063 14.929688 292.601563 15.265625 292.265625 C 15.601563 291.929688 15.789063 291.476563 15.789063 291 Z M 15.789063 291 "/>
<path style=" stroke:none;fill-rule:evenodd;fill:rgb(99.998474%,0%,0%);fill-opacity:0.6;" d="M 223.789063 254 C 223.789063 253.523438 223.601563 253.070313 223.265625 252.734375 C 222.929688 252.398438 222.476563 252.210938 222 252.210938 C 221.523438 252.210938 221.070313 252.398438 220.734375 252.734375 C 220.398438 253.070313 220.210938 253.523438 220.210938 254 C 220.210938 254.476563 220.398438 254.929688 220.734375 255.265625 C 221.070313 255.601563 221.523438 255.789063 222 255.789063 C 222.476563 255.789063 222.929688 255.601563 223.265625 255.265625 C 223.601563 254.929688 223.789063 254.476563 223.789063 254 Z M 223.789063 254 "/>
<path style=" stroke:none;fill-rule:evenodd;fill:rgb(99.998474%,0%,0%);fill-opacity:0.6;" d="M 223.789063 254 C 223.789063 253.523438 223.601563 253.070313 223.265625 252.734375 C 222.929688 252.398438 222.476563 252.210938 222 252.210938 C 221.523438 252.210938 221.070313 252.398438 220.734375 252.734375 C 220.398438 253.070313 220.210938 253.523438 220.210938 254 C 220.210938 254.476563 220.398438 254.929688 220.734375 255.265625 C 221.070313 255.601563 221.523438 255.789063 222 255.789063 C 222.476563 255.789063 222.929688 255.601563 223.265625 255.265625 C 223.601563 254.929688 223.789063 254.476563 223.789063 254 Z M 223.789063 254 "/>
<path style=" stroke:none;fill-rule:evenodd;fill:rgb(99.998474%,0%,0%);fill-opacity:0.6;" d="M 216.789063 249 C 216.789063 248.523438 216.601563 248.070313 216.265625 247.734375 C 215.929688 247.398438 215.476563 247.210938 215 247.210938 C 214.523438 247.210938 214.070313 247.398438 213.734375 247.734375 C 213.398438 248.070313 213.210938 248.523438 213.210938 249 C 213.210938 249.476563 213.398438 249.929688 213.734375 250.265625 C 214.070313 250.601563 214.523438 250.789063 215 250.789063 C 215.476563 250.789063 215.929688 250.601563 216.265625 250.265625 C 216.601563 249.929688 216.789063 249.476563 216.789063 249 Z M 216.789063 249 "/>
<path style=" stroke:none;fill-rule:evenodd;fill:rgb(99.998474%,0%,0%);fill-opacity:0.6;" d="M 217.789063 246 C 217.789063 245.523438 217.601563 245.070313 217.265625 244.734375 C 216.929688 244.398438 216.476563 244.210938 216 244.210938 C 215.523438 244.210938 215.070313 244.398438 214.734375 244.734375 C 214.398438 245.070313 214.210938 245.523438 214.210938 246 C 214.210938 246.476563 214.398438 246.929688 214.734375 247.265625 C 215.070313 247.601563 215.523438 247.789063 216 247.789063 C 216.476563 247.789063 216.929688 247.601563 217.265625 247.265625 C 217.601563 246.929688 217.789063 246.476563 217.789063 246 Z M 217.789063 246 "/>
<path style=" stroke:none;fill-rule:evenodd;fill:rgb(99.998474%,0%,0%);fill-opacity:0.6;" d="M 23.789063 208 C 23.789063 207.523438 23.601563 207.070313 23.265625 206.734375 C 22.929688 206.398438 22.476563 206.210938 22 206.210938 C 21.523438 206.210938 21.070313 206.398438 20.734375 206.734375 C 20.398438 207.070313 20.210938 207.523438 20.210938 208 C 20.210938 208.476563 20.398438 208.929688 20.734375 209.265625 C 21.070313 209.601563 21.523438 209.789063 22 209.789063 C 22.476563 209.789063 22.929688 209.601563 23.265625 209.265625 C 23.601563 208.929688 23.789063 208.476563 23.789063 208 Z M 23.789063 208 "/>
<path style=" stroke:none;fill-rule:evenodd;fill:rgb(99.998474%,0%,0%);fill-opacity:0.6;" d="M 23.789063 207 C 23.789063 206.523438 23.601563 206.070313 23.265625 205.734375 C 22.929688 205.398438 22.476563 205.210938 22 205.210938 C 21.523438 205.210938 21.070313 205.398438 20.734375 205.734375 C 20.398438 206.070313 20.210938 206.523438 20.210938 207 C 20.210938 207.476563 20.398438 207.929688 20.734375 208.265625 C 21.070313 208.601563 21.523438 208.789063 22 208.789063 C 22.476563 208.789063 22.929688 208.601563 23.265625 208.265625 C 23.601563 207.929688 23.789063 207.476563 23.789063 207 Z M 23.789063 207 "/>
<path style=" stroke:none;fill-rule:evenodd;fill:rgb(99.998474%,0%,0%);fill-opacity:0.6;" d="M 209.789063 200 C 209.789063 199.523438 209.601563 199.070313 209.265625 198.734375 C 208.929688 198.398438 208.476563 198.210938 208 198.210938 C 207.523438 198.210938 207.070313 198.398438 206.734375 198.734375 C 206.398438 199.070313 206.210938 199.523438 206.210938 200 C 206.210938 200.476563 206.398438 200.929688 206.734375 201.265625 C 207.070313 201.601563 207.523438 201.789063 208 201.789063 C 208.476563 201.789063 208.929688 201.601563 209.265625 201.265625 C 209.601563 200.929688 209.789063 200.476563 209.789063 200 Z M 209.789063 200 "/>
<path style=" stroke:none;fill-rule:evenodd;fill:rgb(99.998474%,0%,0%);fill-opacity:0.6;" d="M 208.789063 198 C 208.789063 197.523438 208.601563 197.070313 208.265625 196.734375 C 207.929688 196.398438 207.476563 196.210938 207 196.210938 C 206.523438 196.210938 206.070313 196.398438 205.734375 196.734375 C 205.398438 197.070313 205.210938 197.523438 205.210938 198 C 205.210938 198.476563 205.398438 198.929688 205.734375 199.265625 C 206.070313 199.601563 206.523438 199.789063 207 199.789063 C 207.476563 199.789063 207.929688 199.601563 208.265625 199.265625 C 208.601563 198.929688 208.789063 198.476563 208.789063 198 Z M 208.789063 198 "/>
<path style=" stroke:none;fill-rule:evenodd;fill:rgb(99.998474%,0%,0%);fill-opacity:0.6;" d="M 200.789063 196 C 200.789063 195.523438 200.601563 195.070313 200.265625 194.734375 C 199.929688 194.398438 199.476563 194.210938 199 194.210938 C 198.523438 194.210938 198.070313 194.398438 197.734375 194.734375 C 197.398438 195.070313 197.210938 195.523438 197.210938 196 C 197.210938 196.476563 197.398438 196.929688 197.734375 197.265625 C 198.070313 197.601563 198.523438 197.789063 199 197.789063 C 199.476563 197.789063 199.929688 197.601563 200.265625 197.265625 C 200.601563 196.929688 200.789063 196.476563 200.789063 196 Z M 200.789063 196 "/>
<path style=" stroke:none;fill-rule:evenodd;fill:rgb(99.998474%,0%,0%);fill-opacity:0.6;" d="M 202.789063 193 C 202.789063 192.523438 202.601563 192.070313 202.265625 191.734375 C 201.929688 191.398438 201.476563 191.210938 201 191.210938 C 200.523438 191.210938 200.070313 191.398438 199.734375 191.734375 C 199.398438 192.070313 199.210938 192.523438 199.210938 193 C 199.210938 193.476563 199.398438 193.929688 199.734375 194.265625 C 200.070313 194.601563 200.523438 194.789063 201 194.789063 C 201.476563 194.789063 201.929688 194.601563 202.265625 194.265625 C 202.601563 193.929688 202.789063 193.476563 202.789063 193 Z M 202.789063 193 "/>
<path style=" stroke:none;fill-rule:evenodd;fill:rgb(99.998474%,0%,0%);fill-opacity:0.6;" d="M 205.789063 193 C 205.789063 192.523438 205.601563 192.070313 205.265625 191.734375 C 204.929688 191.398438 204.476563 191.210938 204 191.210938 C 203.523438 191.210938 203.070313 191.398438 202.734375 191.734375 C 202.398438 192.070313 202.210938 192.523438 202.210938 193 C 202.210938 193.476563 202.398438 193.929688 202.734375 194.265625 C 203.070313 194.601563 203.523438 194.789063 204 194.789063 C 204.476563 194.789063 204.929688 194.601563 205.265625 194.265625 C 205.601563 193.929688 205.789063 193.476563 205.789063 193 Z M 205.789063 193 "/>
<path style=" stroke:none;fill-rule:evenodd;fill:rgb(99.998474%,0%,0%);fill-opacity:0.6;" d="M 199.789063 192 C 199.789063 191.523438 199.601563 191.070313 199.265625 190.734375 C 198.929688 190.398438 198.476563 190.210938 198 190.210938 C 197.523438 190.210938 197.070313 190.398438 196.734375 190.734375 C 196.398438 191.070313 196.210938 191.523438 196.210938 192 C 196.210938 192.476563 196.398438 192.929688 196.734375 193.265625 C 197.070313 193.601563 197.523438 193.789063 198 193.789063 C 198.476563 193.789063 198.929688 193.601563 199.265625 193.265625 C 199.601563 192.929688 199.789063 192.476563 199.789063 192 Z M 199.789063 192 "/>
<path style=" stroke:none;fill-rule:evenodd;fill:rgb(99.998474%,0%,0%);fill-opacity:0.6;" d="M 208.789063 192 C 208.789063 191.523438 208.601563 191.070313 208.265625 190.734375 C 207.929688 190.398438 207.476563 190.210938 207 190.210938 C 206.523438 190.210938 206.070313 190.398438 205.734375 190.734375 C 205.398438 191.070313 205.210938 191.523438 205.210938 192 C 205.210938 192.476563 205.398438 192.929688 205.734375 193.265625 C 206.070313 193.601563 206.523438 193.789063 207 193.789063 C 207.476563 193.789063 207.929688 193.601563 208.265625 193.265625 C 208.601563 192.929688 208.789063 192.476563 208.789063 192 Z M 208.789063 192 "/>
<path style=" stroke:none;fill-rule:evenodd;fill:rgb(99.998474%,0%,0%);fill-opacity:0.6;" d="M 202.789063 191 C 202.789063 190.523438 202.601563 190.070313 202.265625 189.734375 C 201.929688 189.398438 201.476563 189.210938 201 189.210938 C 200.523438 189.210938 200.070313 189.398438 199.734375 189.734375 C 199.398438 190.070313 199.210938 190.523438 199.210938 191 C 199.210938 191.476563 199.398438 191.929688 199.734375 192.265625 C 200.070313 192.601563 200.523438 192.789063 201 192.789063 C 201.476563 192.789063 201.929688 192.601563 202.265625 192.265625 C 202.601563 191.929688 202.789063 191.476563 202.789063 191 Z M 202.789063 191 "/>
<path style=" stroke:none;fill-rule:evenodd;fill:rgb(99.998474%,0%,0%);fill-opacity:0.6;" d="M 314.789063 112 C 314.789063 111.523438 314.601563 111.070313 314.265625 110.734375 C 313.929688 110.398438 313.476563 110.210938 313 110.210938 C 312.523438 110.210938 312.070313 110.398438 311.734375 110.734375 C 311.398438 111.070313 311.210938 111.523438 311.210938 112 C 311.210938 112.476563 311.398438 112.929688 311.734375 113.265625 C 312.070313 113.601563 312.523438 113.789063 313 113.789063 C 313.476563 113.789063 313.929688 113.601563 314.265625 113.265625 C 314.601563 112.929688 314.789063 112.476563 314.789063 112 Z M 314.789063 112 "/>
<path style=" stroke:none;fill-rule:evenodd;fill:rgb(99.998474%,0%,0%);fill-opacity:0.6;" d="M 312.789063 108 C 312.789063 107.523438 312.601563 107.070313 312.265625 106.734375 C 311.929688 106.398438 311.476563 106.210938 311 106.210938 C 310.523438 106.210938 310.070313 106.398438 309.734375 106.734375 C 309.398438 107.070313 309.210938 107.523438 309.210938 108 C 309.210938 108.476563 309.398438 108.929688 309.734375 109.265625 C 310.070313 109.601563 310.523438 109.789063 311 109.789063 C 311.476563 109.789063 311.929688 109.601563 312.265625 109.265625 C 312.601563 108.929688 312.789063 108.476563 312.789063 108 Z M 312.789063 108 "/>
<path style=" stroke:none;fill-rule:evenodd;fill:rgb(99.998474%,0%,0%);fill-opacity:0.6;" d="M 305.789063 100 C 305.789063 99.523438 305.601563 99.070313 305.265625 98.734375 C 304.929688 98.398438 304.476563 98.210938 304 98.210938 C 303.523438 98.210938 303.070313 98.398438 302.734375 98.734375 C 302.398438 99.070313 302.210938 99.523438 302.210938 100 C 302.210938 100.476563 302.398438 100.929688 302.734375 101.265625 C 303.070313 101.601563 303.523438 101.789063 304 101.789063 C 304.476563 101.789063 304.929688 101.601563 305.265625 101.265625 C 305.601563 100.929688 305.789063 100.476563 305.789063 100 Z M 305.789063 100 "/>
<path style=" stroke:none;fill-rule:evenodd;fill:rgb(99.998474%,0%,0%);fill-opacity:0.6;" d="M 303.789063 100 C 303.789063 99.523438 303.601563 99.070313 303.265625 98.734375 C 302.929688 98.398438 302.476563 98.210938 302 98.210938 C 301.523438 98.210938 301.070313 98.398438 300.734375 98.734375 C 300.398438 99.070313 300.210938 99.523438 300.210938 100 C 300.210938 100.476563 300.398438 100.929688 300.734375 101.265625 C 301.070313 101.601563 301.523438 101.789063 302 101.789063 C 302.476563 101.789063 302.929688 101.601563 303.265625 101.265625 C 303.601563 100.929688 303.789063 100.476563 303.789063 100 Z M 303.789063 100 "/>
<path style=" stroke:none;fill-rule:evenodd;fill:rgb(99.998474%,0%,0%);fill-opacity:0.6;" d="M 79.789063 86 C 79.789063 85.523438 79.601563 85.070313 79.265625 84.734375 C 78.929688 84.398438 78.476563 84.210938 78 84.210938 C 77.523438 84.210938 77.070313 84.398438 76.734375 84.734375 C 76.398438 85.070313 76.210938 85.523438 76.210938 86 C 76.210938 86.476563 76.398438 86.929688 76.734375 87.265625 C 77.070313 87.601563 77.523438 87.789063 78 87.789063 C 78.476563 87.789063 78.929688 87.601563 79.265625 87.265625 C 79.601563 86.929688 79.789063 86.476563 79.789063 86 Z M 79.789063 86 "/>
<path style=" stroke:none;fill-rule:evenodd;fill:rgb(99.998474%,0%,0%);fill-opacity:0.6;" d="M 41.789063 75 C 41.789063 74.523438 41.601563 74.070313 41.265625 73.734375 C 40.929688 73.398438 40.476563 73.210938 40 73.210938 C 39.523438 73.210938 39.070313 73.398438 38.734375 73.734375 C 38.398438 74.070313 38.210938 74.523438 38.210938 75 C 38.210938 75.476563 38.398438 75.929688 38.734375 76.265625 C 39.070313 76.601563 39.523438 76.789063 40 76.789063 C 40.476563 76.789063 40.929688 76.601563 41.265625 76.265625 C 41.601563 75.929688 41.789063 75.476563 41.789063 75 Z M 41.789063 75 "/>
<path style=" stroke:none;fill-rule:evenodd;fill:rgb(99.998474%,0%,0%);fill-opacity:0.6;" d="M 44.789063 73 C 44.789063 72.523438 44.601563 72.070313 44.265625 71.734375 C 43.929688 71.398438 43.476563 71.210938 43 71.210938 C 42.523438 71.210938 42.070313 71.398438 41.734375 71.734375 C 41.398438 72.070313 41.210938 72.523438 41.210938 73 C 41.210938 73.476563 41.398438 73.929688 41.734375 74.265625 C 42.070313 74.601563 42.523438 74.789063 43 74.789063 C 43.476563 74.789063 43.929688 74.601563 44.265625 74.265625 C 44.601563 73.929688 44.789063 73.476563 44.789063 73 Z M 44.789063 73 "/>
<path style=" stroke:none;fill-rule:evenodd;fill:rgb(99.998474%,0%,0%);fill-opacity:0.6;" d="M 44.789063 71 C 44.789063 70.523438 44.601563 70.070313 44.265625 69.734375 C 43.929688 69.398438 43.476563 69.210938 43 69.210938 C 42.523438 69.210938 42.070313 69.398438 41.734375 69.734375 C 41.398438 70.070313 41.210938 70.523438 41.210938 71 C 41.210938 71.476563 41.398438 71.929688 41.734375 72.265625 C 42.070313 72.601563 42.523438 72.789063 43 72.789063 C 43.476563 72.789063 43.929688 72.601563 44.265625 72.265625 C 44.601563 71.929688 44.789063 71.476563 44.789063 71 Z M 44.789063 71 "/>
<path style=" stroke:none;fill-rule:evenodd;fill:rgb(99.998474%,0%,0%);fill-opacity:0.6;" d="M 43.789063 70 C 43.789063 69.523438 43.601563 69.070313 43.265625 68.734375 C 42.929688 68.398438 42.476563 68.210938 42 68.210938 C 41.523438 68.210938 41.070313 68.398438 40.734375 68.734375 C 40.398438 69.070313 40.210938 69.523438 40.210938 70 C 40.210938 70.476563 40.398438 70.929688 40.734375 71.265625 C 41.070313 71.601563 41.523438 71.789063 42 71.789063 C 42.476563 71.789063 42.929688 71.601563 43.265625 71.265625 C 43.601563 70.929688 43.789063 70.476563 43.789063 70 Z M 43.789063 70 "/>
<path style=" stroke:none;fill-rule:evenodd;fill:rgb(99.998474%,0%,0%);fill-opacity:0.6;" d="M 276.789063 19 C 276.789063 18.523438 276.601563 18.070313 276.265625 17.734375 C 275.929688 17.398438 275.476563 17.210938 275 17.210938 C 274.523438 17.210938 274.070313 17.398438 273.734375 17.734375 C 273.398438 18.070313 273.210938 18.523438 273.210938 19 C 273.210938 19.476563 273.398438 19.929688 273.734375 20.265625 C 274.070313 20.601563 274.523438 20.789063 275 20.789063 C 275.476563 20.789063 275.929688 20.601563 276.265625 20.265625 C 276.601563 19.929688 276.789063 19.476563 276.789063 19 Z M 276.789063 19 "/>
<path style=" stroke:none;fill-rule:evenodd;fill:rgb(99.998474%,0%,0%);fill-opacity:0.6;" d="M 279.789063 17 C 279.789063 16.523438 279.601563 16.070313 279.265625 15.734375 C 278.929688 15.398438 278.476563 15.210938 278 15.210938 C 277.523438 15.210938 277.070313 15.398438 276.734375 15.734375 C 276.398438 16.070313 276.210938 16.523438 276.210938 17 C 276.210938 17.476563 276.398438 17.929688 276.734375 18.265625 C 277.070313 18.601563 277.523438 18.789063 278 18.789063 C 278.476563 18.789063 278.929688 18.601563 279.265625 18.265625 C 279.601563 17.929688 279.789063 17.476563 279.789063 17 Z M 279.789063 17 "/>
<path style=" stroke:none;fill-rule:evenodd;fill:rgb(99.998474%,0%,0%);fill-opacity:0.6;" d="M 349.789063 10 C 349.789063 9.523438 349.601563 9.070313 349.265625 8.734375 C 348.929688 8.398438 348.476563 8.210938 348 8.210938 C 347.523438 8.210938 347.070313 8.398438 346.734375 8.734375 C 346.398438 9.070313 346.210938 9.523438 346.210938 10 C 346.210938 10.476563 346.398438 10.929688 346.734375 11.265625 C 347.070313 11.601563 347.523438 11.789063 348 11.789063 C 348.476563 11.789063 348.929688 11.601563 349.265625 11.265625 C 349.601563 10.929688 349.789063 10.476563 349.789063 10 Z M 349.789063 10 "/>
<path style=" stroke:none;fill-rule:evenodd;fill:rgb(99.998474%,0%,0%);fill-opacity:0.6;" d="M 346.789063 9 C 346.789063 8.523438 346.601563 8.070313 346.265625 7.734375 C 345.929688 7.398438 345.476563 7.210938 345 7.210938 C 344.523438 7.210938 344.070313 7.398438 343.734375 7.734375 C 343.398438 8.070313 343.210938 8.523438 343.210938 9 C 343.210938 9.476563 343.398438 9.929688 343.734375 10.265625 C 344.070313 10.601563 344.523438 10.789063 345 10.789063 C 345.476563 10.789063 345.929688 10.601563 346.265625 10.265625 C 346.601563 9.929688 346.789063 9.476563 346.789063 9 Z M 346.789063 9 "/>
<path style=" stroke:none;fill-rule:evenodd;fill:rgb(99.998474%,0%,0%);fill-opacity:0.6;" d="M 348.789063 9 C 348.789063 8.523438 348.601563 8.070313 348.265625 7.734375 C 347.929688 7.398438 347.476563 7.210938 347 7.210938 C 346.523438 7.210938 346.070313 7.398438 345.734375 7.734375 C 345.398438 8.070313 345.210938 8.523438 345.210938 9 C 345.210938 9.476563 345.398438 9.929688 345.734375 10.265625 C 346.070313 10.601563 346.523438 10.789063 347 10.789063 C 347.476563 10.789063 347.929688 10.601563 348.265625 10.265625 C 348.601563 9.929688 348.789063 9.476563 348.789063 9 Z M 348.789063 9 "/>
<path style=" stroke:none;fill-rule:evenodd;fill:rgb(99.998474%,0%,0%);fill-opacity:1;" d="M 296.5 312 C 296.5 311.601563 296.34375 311.21875 296.0625 310.9375 C 295.78125 310.65625 295.398438 310.5 295 310.5 C 294.601563 310.5 294.21875 310.65625 293.9375 310.9375 C 293.65625 311.21875 293.5 311.601563 293.5 312 C 293.5 312.398438 293.65625 312.78125 293.9375 313.0625 C 294.21875 313.34375 294.601563 313.5 295 313.5 C 295.398438 313.5 295.78125 313.34375 296.0625 313.0625 C 296.34375 312.78125 296.5 312.398438 296.5 312 Z M 296.5 312 "/>
<path style=" stroke:none;fill-rule:evenodd;fill:rgb(99.998474%,0%,0%);fill-opacity:1;" d="M 296.5 309 C 296.5 308.601563 296.34375 308.21875 296.0625 307.9375 C 295.78125 307.65625 295.398438 307.5 295 307.5 C 294.601563 307.5 294.21875 307.65625 293.9375 307.9375 C 293.65625 308.21875 293.5 308.601563 293.5 309 C 293.5 309.398438 293.65625 309.78125 293.9375 310.0625 C 294.21875 310.34375 294.601563 310.5 295 310.5 C 295.398438 310.5 295.78125 310.34375 296.0625 310.0625 C 296.34375 309.78125 296.5 309.398438 296.5 309 Z M 296.5 309 "/>
<path style=" stroke:none;fill-rule:evenodd;fill:rgb(99.998474%,0%,0%);fill-opacity:1;" d="M 293.5 308 C 293.5 307.601563 293.34375 307.21875 293.0625 306.9375 C 292.78125 306.65625 292.398438 306.5 292 306.5 C 291.601563 306.5 291.21875 306.65625 290.9375 306.9375 C 290.65625 307.21875 290.5 307.601563 290.5 308 C 290.5 308.398438 290.65625 308.78125 290.9375 309.0625 C 291.21875 309.34375 291.601563 309.5 292 309.5 C 292.398438 309.5 292.78125 309.34375 293.0625 309.0625 C 293.34375 308.78125 293.5 308.398438 293.5 308 Z M 293.5 308 "/>
<path style=" stroke:none;fill-rule:evenodd;fill:rgb(99.998474%,0%,0%);fill-opacity:1;" d="M 295.5 307 C 295.5 306.601563 295.34375 306.21875 295.0625 305.9375 C 294.78125 305.65625 294.398438 305.5 294 305.5 C 293.601563 305.5 293.21875 305.65625 292.9375 305.9375 C 292.65625 306.21875 292.5 306.601563 292.5 307 C 292.5 307.398438 292.65625 307.78125 292.9375 308.0625 C 293.21875 308.34375 293.601563 308.5 294 308.5 C 294.398438 308.5 294.78125 308.34375 295.0625 308.0625 C 295.34375 307.78125 295.5 307.398438 295.5 307 Z M 295.5 307 "/>
<path style=" stroke:none;fill-rule:evenodd;fill:rgb(99.998474%,0%,0%);fill-opacity:1;" d="M 297.5 307 C 297.5 306.601563 297.34375 306.21875 297.0625 305.9375 C 296.78125 305.65625 296.398438 305.5 296 305.5 C 295.601563 305.5 295.21875 305.65625 294.9375 305.9375 C 294.65625 306.21875 294.5 306.601563 294.5 307 C 294.5 307.398438 294.65625 307.78125 294.9375 308.0625 C 295.21875 308.34375 295.601563 308.5 296 308.5 C 296.398438 308.5 296.78125 308.34375 297.0625 308.0625 C 297.34375 307.78125 297.5 307.398438 297.5 307 Z M 297.5 307 "/>
<path style=" stroke:none;fill-rule:evenodd;fill:rgb(99.998474%,0%,0%);fill-opacity:1;" d="M 295.5 307 C 295.5 306.601563 295.34375 306.21875 295.0625 305.9375 C 294.78125 305.65625 294.398438 305.5 294 305.5 C 293.601563 305.5 293.21875 305.65625 292.9375 305.9375 C 292.65625 306.21875 292.5 306.601563 292.5 307 C 292.5 307.398438 292.65625 307.78125 292.9375 308.0625 C 293.21875 308.34375 293.601563 308.5 294 308.5 C 294.398438 308.5 294.78125 308.34375 295.0625 308.0625 C 295.34375 307.78125 295.5 307.398438 295.5 307 Z M 295.5 307 "/>
<path style=" stroke:none;fill-rule:evenodd;fill:rgb(99.998474%,0%,0%);fill-opacity:1;" d="M 297.5 306 C 297.5 305.601563 297.34375 305.21875 297.0625 304.9375 C 296.78125 304.65625 296.398438 304.5 296 304.5 C 295.601563 304.5 295.21875 304.65625 294.9375 304.9375 C 294.65625 305.21875 294.5 305.601563 294.5 306 C 294.5 306.398438 294.65625 306.78125 294.9375 307.0625 C 295.21875 307.34375 295.601563 307.5 296 307.5 C 296.398438 307.5 296.78125 307.34375 297.0625 307.0625 C 297.34375 306.78125 297.5 306.398438 297.5 306 Z M 297.5 306 "/>
<path style=" stroke:none;fill-rule:evenodd;fill:rgb(99.998474%,0%,0%);fill-opacity:1;" d="M 13.5 294 C 13.5 293.601563 13.34375 293.21875 13.0625 292.9375 C 12.78125 292.65625 12.398438 292.5 12 292.5 C 11.601563 292.5 11.21875 292.65625 10.9375 292.9375 C 10.65625 293.21875 10.5 293.601563 10.5 294 C 10.5 294.398438 10.65625 294.78125 10.9375 295.0625 C 11.21875 295.34375 11.601563 295.5 12 295.5 C 12.398438 295.5 12.78125 295.34375 13.0625 295.0625 C 13.34375 294.78125 13.5 294.398438 13.5 294 Z M 13.5 294 "/>
<path style=" stroke:none;fill-rule:evenodd;fill:rgb(99.998474%,0%,0%);fill-opacity:1;" d="M 13.5 292 C 13.5 291.601563 13.34375 291.21875 13.0625 290.9375 C 12.78125 290.65625 12.398438 290.5 12 290.5 C 11.601563 290.5 11.21875 290.65625 10.9375 290.9375 C 10.65625 291.21875 10.5 291.601563 10.5 292 C 10.5 292.398438 10.65625 292.78125 10.9375 293.0625 C 11.21875 293.34375 11.601563 293.5 12 293.5 C 12.398438 293.5 12.78125 293.34375 13.0625 293.0625 C 13.34375 292.78125 13.5 292.398438 13.5 292 Z M 13.5 292 "/>
<path style=" stroke:none;fill-rule:evenodd;fill:rgb(99.998474%,0%,0%);fill-opacity:1;" d="M 16.5 292 C 16.5 291.601563 16.34375 291.21875 16.0625 290.9375 C 15.78125 290.65625 15.398438 290.5 15 290.5 C 14.601563 290.5 14.21875 290.65625 13.9375 290.9375 C 13.65625 291.21875 13.5 291.601563 13.5 292 C 13.5 292.398438 13.65625 292.78125 13.9375 293.0625 C 14.21875 293.34375 14.601563 293.5 15 293.5 C 15.398438 293.5 15.78125 293.34375 16.0625 293.0625 C 16.34375 292.78125 16.5 292.398438 16.5 292 Z M 16.5 292 "/>
<path style=" stroke:none;fill-rule:evenodd;fill:rgb(99.998474%,0%,0%);fill-opacity:1;" d="M 15.5 291 C 15.5 290.601563 15.34375 290.21875 15.0625 289.9375 C 14.78125 289.65625 14.398438 289.5 14 289.5 C 13.601563 289.5 13.21875 289.65625 12.9375 289.9375 C 12.65625 290.21875 12.5 290.601563 12.5 291 C 12.5 291.398438 12.65625 291.78125 12.9375 292.0625 C 13.21875 292.34375 13.601563 292.5 14 292.5 C 14.398438 292.5 14.78125 292.34375 15.0625 292.0625 C 15.34375 291.78125 15.5 291.398438 15.5 291 Z M 15.5 291 "/>
<path style=" stroke:none;fill-rule:evenodd;fill:rgb(99.998474%,0%,0%);fill-opacity:1;" d="M 223.5 254 C 223.5 253.601563 223.34375 253.21875 223.0625 252.9375 C 222.78125 252.65625 222.398438 252.5 222 252.5 C 221.601563 252.5 221.21875 252.65625 220.9375 252.9375 C 220.65625 253.21875 220.5 253.601563 220.5 254 C 220.5 254.398438 220.65625 254.78125 220.9375 255.0625 C 221.21875 255.34375 221.601563 255.5 222 255.5 C 222.398438 255.5 222.78125 255.34375 223.0625 255.0625 C 223.34375 254.78125 223.5 254.398438 223.5 254 Z M 223.5 254 "/>
<path style=" stroke:none;fill-rule:evenodd;fill:rgb(99.998474%,0%,0%);fill-opacity:1;" d="M 223.5 254 C 223.5 253.601563 223.34375 253.21875 223.0625 252.9375 C 222.78125 252.65625 222.398438 252.5 222 252.5 C 221.601563 252.5 221.21875 252.65625 220.9375 252.9375 C 220.65625 253.21875 220.5 253.601563 220.5 254 C 220.5 254.398438 220.65625 254.78125 220.9375 255.0625 C 221.21875 255.34375 221.601563 255.5 222 255.5 C 222.398438 255.5 222.78125 255.34375 223.0625 255.0625 C 223.34375 254.78125 223.5 254.398438 223.5 254 Z M 223.5 254 "/>
<path style=" stroke:none;fill-rule:evenodd;fill:rgb(99.998474%,0%,0%);fill-opacity:1;" d="M 216.5 249 C 216.5 248.601563 216.34375 248.21875 216.0625 247.9375 C 215.78125 247.65625 215.398438 247.5 215 247.5 C 214.601563 247.5 214.21875 247.65625 213.9375 247.9375 C 213.65625 248.21875 213.5 248.601563 213.5 249 C 213.5 249.398438 213.65625 249.78125 213.9375 250.0625 C 214.21875 250.34375 214.601563 250.5 215 250.5 C 215.398438 250.5 215.78125 250.34375 216.0625 250.0625 C 216.34375 249.78125 216.5 249.398438 216.5 249 Z M 216.5 249 "/>
<path style=" stroke:none;fill-rule:evenodd;fill:rgb(99.998474%,0%,0%);fill-opacity:1;" d="M 217.5 246 C 217.5 245.601563 217.34375 245.21875 217.0625 244.9375 C 216.78125 244.65625 216.398438 244.5 216 244.5 C 215.601563 244.5 215.21875 244.65625 214.9375 244.9375 C 214.65625 245.21875 214.5 245.601563 214.5 246 C 214.5 246.398438 214.65625 246.78125 214.9375 247.0625 C 215.21875 247.34375 215.601563 247.5 216 247.5 C 216.398438 247.5 216.78125 247.34375 217.0625 247.0625 C 217.34375 246.78125 217.5 246.398438 217.5 246 Z M 217.5 246 "/>
<path style=" stroke:none;fill-rule:evenodd;fill:rgb(99.998474%,0%,0%);fill-opacity:1;" d="M 23.5 208 C 23.5 207.601563 23.34375 207.21875 23.0625 206.9375 C 22.78125 206.65625 22.398438 206.5 22 206.5 C 21.601563 206.5 21.21875 206.65625 20.9375 206.9375 C 20.65625 207.21875 20.5 207.601563 20.5 208 C 20.5 208.398438 20.65625 208.78125 20.9375 209.0625 C 21.21875 209.34375 21.601563 209.5 22 209.5 C 22.398438 209.5 22.78125 209.34375 23.0625 209.0625 C 23.34375 208.78125 23.5 208.398438 23.5 208 Z M 23.5 208 "/>
<path style=" stroke:none;fill-rule:evenodd;fill:rgb(99.998474%,0%,0%);fill-opacity:1;" d="M 23.5 207 C 23.5 206.601563 23.34375 206.21875 23.0625 205.9375 C 22.78125 205.65625 22.398438 205.5 22 205.5 C 21.601563 205.5 21.21875 205.65625 20.9375 205.9375 C 20.65625 206.21875 20.5 206.601563 20.5 207 C 20.5 207.398438 20.65625 207.78125 20.9375 208.0625 C 21.21875 208.34375 21.601563 208.5 22 208.5 C 22.398438 208.5 22.78125 208.34375 23.0625 208.0625 C 23.34375 207.78125 23.5 207.398438 23.5 207 Z M 23.5 207 "/>
<path style=" stroke:none;fill-rule:evenodd;fill:rgb(99.998474%,0%,0%);fill-opacity:1;" d="M 209.5 200 C 209.5 199.601563 209.34375 199.21875 209.0625 198.9375 C 208.78125 198.65625 208.398438 198.5 208 198.5 C 207.601563 198.5 207.21875 198.65625 206.9375 198.9375 C 206.65625 199.21875 206.5 199.601563 206.5 200 C 206.5 200.398438 206.65625 200.78125 206.9375 201.0625 C 207.21875 201.34375 207.601563 201.5 208 201.5 C 208.398438 201.5 208.78125 201.34375 209.0625 201.0625 C 209.34375 200.78125 209.5 200.398438 209.5 200 Z M 209.5 200 "/>
<path style=" stroke:none;fill-rule:evenodd;fill:rgb(99.998474%,0%,0%);fill-opacity:1;" d="M 208.5 198 C 208.5 197.601563 208.34375 197.21875 208.0625 196.9375 C 207.78125 196.65625 207.398438 196.5 207 196.5 C 206.601563 196.5 206.21875 196.65625 205.9375 196.9375 C 205.65625 197.21875 205.5 197.601563 205.5 198 C 205.5 198.398438 205.65625 198.78125 205.9375 199.0625 C 206.21875 199.34375 206.601563 199.5 207 199.5 C 207.398438 199.5 207.78125 199.34375 208.0625 199.0625 C 208.34375 198.78125 208.5 198.398438 208.5 198 Z M 208.5 198 "/>
<path style=" stroke:none;fill-rule:evenodd;fill:rgb(99.998474%,0%,0%);fill-opacity:1;" d="M 200.5 196 C 200.5 195.601563 200.34375 195.21875 200.0625 194.9375 C 199.78125 194.65625 199.398438 194.5 199 194.5 C 198.601563 194.5 198.21875 194.65625 197.9375 194.9375 C 197.65625 195.21875 197.5 195.601563 197.5 196 C 197.5 196.398438 197.65625 196.78125 197.9375 197.0625 C 198.21875 197.34375 198.601563 197.5 199 197.5 C 199.398438 197.5 199.78125 197.34375 200.0625 197.0625 C 200.34375 196.78125 200.5 196.398438 200.5 196 Z M 200.5 196 "/>
<path style=" stroke:none;fill-rule:evenodd;fill:rgb(99.998474%,0%,0%);fill-opacity:1;" d="M 202.5 193 C 202.5 192.601563 202.34375 192.21875 202.0625 191.9375 C 201.78125 191.65625 201.398438 191.5 201 191.5 C 200.601563 191.5 200.21875 191.65625 199.9375 191.9375 C 199.65625 192.21875 199.5 192.601563 199.5 193 C 199.5 193.398438 199.65625 193.78125 199.9375 194.0625 C 200.21875 194.34375 200.601563 194.5 201 194.5 C 201.398438 194.5 201.78125 194.34375 202.0625 194.0625 C 202.34375 193.78125 202.5 193.398438 202.5 193 Z M 202.5 193 "/>
<path style=" stroke:none;fill-rule:evenodd;fill:rgb(99.998474%,0%,0%);fill-opacity:1;" d="M 205.5 193 C 205.5 192.601563 205.34375 192.21875 205.0625 191.9375 C 204.78125 191.65625 204.398438 191.5 204 191.5 C 203.601563 191.5 203.21875 191.65625 202.9375 191.9375 C 202.65625 192.21875 202.5 192.601563 202.5 193 C 202.5 193.398438 202.65625 193.78125 202.9375 194.0625 C 203.21875 194.34375 203.601563 194.5 204 194.5 C 204.398438 194.5 204.78125 194.34375 205.0625 194.0625 C 205.34375 193.78125 205.5 193.398438 205.5 193 Z M 205.5 193 "/>
<path style=" stroke:none;fill-rule:evenodd;fill:rgb(99.998474%,0%,0%);fill-opacity:1;" d="M 199.5 192 C 199.5 191.601563 199.34375 191.21875 199.0625 190.9375 C 198.78125 190.65625 198.398438 190.5 198 190.5 C 197.601563 190.5 197.21875 190.65625 196.9375 190.9375 C 196.65625 191.21875 196.5 191.601563 196.5 192 C 196.5 192.398438 196.65625 192.78125 196.9375 193.0625 C 197.21875 193.34375 197.601563 193.5 198 193.5 C 198.398438 193.5 198.78125 193.34375 199.0625 193.0625 C 199.34375 192.78125 199.5 192.398438 199.5 192 Z M 199.5 192 "/>
<path style=" stroke:none;fill-rule:evenodd;fill:rgb(99.998474%,0%,0%);fill-opacity:1;" d="M 208.5 192 C 208.5 191.601563 208.34375 191.21875 208.0625 190.9375 C 207.78125 190.65625 207.398438 190.5 207 190.5 C 206.601563 190.5 206.21875 190.65625 205.9375 190.9375 C 205.65625 191.21875 205.5 191.601563 205.5 192 C 205.5 192.398438 205.65625 192.78125 205.9375 193.0625 C 206.21875 193.34375 206.601563 193.5 207 193.5 C 207.398438 193.5 207.78125 193.34375 208.0625 193.0625 C 208.34375 192.78125 208.5 192.398438 208.5 192 Z M 208.5 192 "/>
<path style=" stroke:none;fill-rule:evenodd;fill:rgb(99.998474%,0%,0%);fill-opacity:1;" d="M 202.5 191 C 202.5 190.601563 202.34375 190.21875 202.0625 189.9375 C 201.78125 189.65625 201.398438 189.5 201 189.5 C 200.601563 189.5 200.21875 189.65625 199.9375 189.9375 C 199.65625 190.21875 199.5 190.601563 199.5 191 C 199.5 191.398438 199.65625 191.78125 199.9375 192.0625 C 200.21875 192.34375 200.601563 192.5 201 192.5 C 201.398438 192.5 201.78125 192.34375 202.0625 192.0625 C 202.34375 191.78125 202.5 191.398438 202.5 191 Z M 202.5 191 "/>
<path style=" stroke:none;fill-rule:evenodd;fill:rgb(99.998474%,0%,0%);fill-opacity:1;" d="M 314.5 112 C 314.5 111.601563 314.34375 111.21875 314.0625 110.9375 C 313.78125 110.65625 313.398438 110.5 313 110.5 C 312.601563 110.5 312.21875 110.65625 311.9375 110.9375 C 311.65625 111.21875 311.5 111.601563 311.5 112 C 311.5 112.398438 311.65625 112.78125 311.9375 113.0625 C 312.21875 113.34375 312.601563 113.5 313 113.5 C 313.398438 113.5 313.78125 113.34375 314.0625 113.0625 C 314.34375 112.78125 314.5 112.398438 314.5 112 Z M 314.5 112 "/>
<path style=" stroke:none;fill-rule:evenodd;fill:rgb(99.998474%,0%,0%);fill-opacity:1;" d="M 312.5 108 C 312.5 107.601563 312.34375 107.21875 312.0625 106.9375 C 311.78125 106.65625 311.398438 106.5 311 106.5 C 310.601563 106.5 310.21875 106.65625 309.9375 106.9375 C 309.65625 107.21875 309.5 107.601563 309.5 108 C 309.5 108.398438 309.65625 108.78125 309.9375 109.0625 C 310.21875 109.34375 310.601563 109.5 311 109.5 C 311.398438 109.5 311.78125 109.34375 312.0625 109.0625 C 312.34375 108.78125 312.5 108.398438 312.5 108 Z M 312.5 108 "/>
<path style=" stroke:none;fill-rule:evenodd;fill:rgb(99.998474%,0%,0%);fill-opacity:1;" d="M 305.5 100 C 305.5 99.601563 305.34375 99.21875 305.0625 98.9375 C 304.78125 98.65625 304.398438 98.5 304 98.5 C 303.601563 98.5 303.21875 98.65625 302.9375 98.9375 C 302.65625 99.21875 302.5 99.601563 302.5 100 C 302.5 100.398438 302.65625 100.78125 302.9375 101.0625 C 303.21875 101.34375 303.601563 101.5 304 101.5 C 304.398438 101.5 304.78125 101.34375 305.0625 101.0625 C 305.34375 100.78125 305.5 100.398438 305.5 100 Z M 305.5 100 "/>
<path style=" stroke:none;fill-rule:evenodd;fill:rgb(99.998474%,0%,0%);fill-opacity:1;" d="M 303.5 100 C 303.5 99.601563 303.34375 99.21875 303.0625 98.9375 C 302.78125 98.65625 302.398438 98.5 302 98.5 C 301.601563 98.5 301.21875 98.65625 300.9375 98.9375 C 300.65625 99.21875 300.5 99.601563 300.5 100 C 300.5 100.398438 300.65625 100.78125 300.9375 101.0625 C 301.21875 101.34375 301.601563 101.5 302 101.5 C 302.398438 101.5 302.78125 101.34375 303.0625 101.0625 C 303.34375 100.78125 303.5 100.398438 303.5 100 Z M 303.5 100 "/>
<path style=" stroke:none;fill-rule:evenodd;fill:rgb(99.998474%,0%,0%);fill-opacity:1;" d="M 79.5 86 C 79.5 85.601563 79.34375 85.21875 79.0625 84.9375 C 78.78125 84.65625 78.398438 84.5 78 84.5 C 77.601563 84.5 77.21875 84.65625 76.9375 84.9375 C 76.65625 85.21875 76.5 85.601563 76.5 86 C 76.5 86.398438 76.65625 86.78125 76.9375 87.0625 C 77.21875 87.34375 77.601563 87.5 78 87.5 C 78.398438 87.5 78.78125 87.34375 79.0625 87.0625 C 79.34375 86.78125 79.5 86.398438 79.5 86 Z M 79.5 86 "/>
<path style=" stroke:none;fill-rule:evenodd;fill:rgb(99.998474%,0%,0%);fill-opacity:1;" d="M 41.5 75 C 41.5 74.601563 41.34375 74.21875 41.0625 73.9375 C 40.78125 73.65625 40.398438 73.5 40 73.5 C 39.601563 73.5 39.21875 73.65625 38.9375 73.9375 C 38.65625 74.21875 38.5 74.601563 38.5 75 C 38.5 75.398438 38.65625 75.78125 38.9375 76.0625 C 39.21875 76.34375 39.601563 76.5 40 76.5 C 40.398438 76.5 40.78125 76.34375 41.0625 76.0625 C 41.34375 75.78125 41.5 75.398438 41.5 75 Z M 41.5 75 "/>
<path style=" stroke:none;fill-rule:evenodd;fill:rgb(99.998474%,0%,0%);fill-opacity:1;" d="M 44.5 73 C 44.5 72.601563 44.34375 72.21875 44.0625 71.9375 C 43.78125 71.65625 43.398438 71.5 43 71.5 C 42.601563 71.5 42.21875 71.65625 41.9375 71.9375 C 41.65625 72.21875 41.5 72.601563 41.5 73 C 41.5 73.398438 41.65625 73.78125 41.9375 74.0625 C 42.21875 74.34375 42.601563 74.5 43 74.5 C 43.398438 74.5 43.78125 74.34375 44.0625 74.0625 C 44.34375 73.78125 44.5 73.398438 44.5 73 Z M 44.5 73 "/>
<path style=" stroke:none;fill-rule:evenodd;fill:rgb(99.998474%,0%,0%);fill-opacity:1;" d="M 44.5 71 C 44.5 70.601563 44.34375 70.21875 44.0625 69.9375 C 43.78125 69.65625 43.398438 69.5 43 69.5 C 42.601563 69.5 42.21875 69.65625 41.9375 69.9375 C 41.65625 70.21875 41.5 70.601563 41.5 71 C 41.5 71.398438 41.65625 71.78125 41.9375 72.0625 C 42.21875 72.34375 42.601563 72.5 43 72.5 C 43.398438 72.5 43.78125 72.34375 44.0625 72.0625 C 44.34375 71.78125 44.5 71.398438 44.5 71 Z M 44.5 71 "/>
<path style=" stroke:none;fill-rule:evenodd;fill:rgb(99.998474%,0%,0%);fill-opacity:1;" d="M 43.5 70 C 43.5 69.601563 43.34375 69.21875 43.0625 68.9375 C 42.78125 68.65625 42.398438 68.5 42 68.5 C 41.601563 68.5 41.21875 68.65625 40.9375 68.9375 C 40.65625 69.21875 40.5 69.601563 40.5 70 C 40.5 70.398438 40.65625 70.78125 40.9375 71.0625 C 41.21875 71.34375 41.601563 71.5 42 71.5 C 42.398438 71.5 42.78125 71.34375 43.0625 71.0625 C 43.34375 70.78125 43.5 70.398438 43.5 70 Z M 43.5 70 "/>
<path style=" stroke:none;fill-rule:evenodd;fill:rgb(99.998474%,0%,0%);fill-opacity:1;" d="M 276.5 19 C 276.5 18.601563 276.34375 18.21875 276.0625 17.9375 C 275.78125 17.65625 275.398438 17.5 275 17.5 C 274.601563 17.5 274.21875 17.65625 273.9375 17.9375 C 273.65625 18.21875 273.5 18.601563 273.5 19 C 273.5 19.398438 273.65625 19.78125 273.9375 20.0625 C 274.21875 20.34375 274.601563 20.5 275 20.5 C 275.398438 20.5 275.78125 20.34375 276.0625 20.0625 C 276.34375 19.78125 276.5 19.398438 276.5 19 Z M 276.5 19 "/>
<path style=" stroke:none;fill-rule:evenodd;fill:rgb(99.998474%,0%,0%);fill-opacity:1;" d="M 279.5 17 C 279.5 16.601563 279.34375 16.21875 279.0625 15.9375 C 278.78125 15.65625 278.398438 15.5 278 15.5 C 277.601563 15.5 277.21875 15.65625 276.9375 15.9375 C 276.65625 16.21875 276.5 16.601563 276.5 17 C 276.5 17.398438 276.65625 17.78125 276.9375 18.0625 C 277.21875 18.34375 277.601563 18.5 278 18.5 C 278.398438 18.5 278.78125 18.34375 279.0625 18.0625 C 279.34375 17.78125 279.5 17.398438 279.5 17 Z M 279.5 17 "/>
<path style=" stroke:none;fill-rule:evenodd;fill:rgb(99.998474%,0%,0%);fill-opacity:1;" d="M 349.5 10 C 349.5 9.601563 349.34375 9.21875 349.0625 8.9375 C 348.78125 8.65625 348.398438 8.5 348 8.5 C 347.601563 8.5 347.21875 8.65625 346.9375 8.9375 C 346.65625 9.21875 346.5 9.601563 346.5 10 C 346.5 10.398438 346.65625 10.78125 346.9375 11.0625 C 347.21875 11.34375 347.601563 11.5 348 11.5 C 348.398438 11.5 348.78125 11.34375 349.0625 11.0625 C 349.34375 10.78125 349.5 10.398438 349.5 10 Z M 349.5 10 "/>
<path style=" stroke:none;fill-rule:evenodd;fill:rgb(99.998474%,0%,0%);fill-opacity:1;" d="M 346.5 9 C 346.5 8.601563 346.34375 8.21875 346.0625 7.9375 C 345.78125 7.65625 345.398438 7.5 345 7.5 C 344.601563 7.5 344.21875 7.65625 343.9375 7.9375 C 343.65625 8.21875 343.5 8.601563 343.5 9 C 343.5 9.398438 343.65625 9.78125 343.9375 10.0625 C 344.21875 10.34375 344.601563 10.5 345 10.5 C 345.398438 10.5 345.78125 10.34375 346.0625 10.0625 C 346.34375 9.78125 346.5 9.398438 346.5 9 Z M 346.5 9 "/>
<path style=" stroke:none;fill-rule:evenodd;fill:rgb(99.998474%,0%,0%);fill-opacity:1;" d="M 348.5 9 C 348.5 8.601563 348.34375 8.21875 348.0625 7.9375 C 347.78125 7.65625 347.398438 7.5 347 7.5 C 346.601563 7.5 346.21875 7.65625 345.9375 7.9375 C 345.65625 8.21875 345.5 8.601563 345.5 9 C 345.5 9.398438 345.65625 9.78125 345.9375 10.0625 C 346.21875 10.34375 346.601563 10.5 347 10.5 C 347.398438 10.5 347.78125 10.34375 348.0625 10.0625 C 348.34375 9.78125 348.5 9.398438 348.5 9 Z M 348.5 9 "/>
</g>
</svg>
