<?xml version="1.0" encoding="UTF-8"?>
<svg xmlns="http://www.w3.org/2000/svg" xmlns:xlink="http://www.w3.org/1999/xlink" width="330pt" height="317pt" viewBox="0 0 330 317" version="1.1">
<g id="surface777">
<path style="fill-rule:nonzero;fill:rgb(84.999084%,84.999084%,84.999084%);fill-opacity:0.6;stroke-width:1;stroke-linecap:square;stroke-linejoin:miter;stroke:rgb(50%,50%,50%);stroke-opacity:1;stroke-miterlimit:3.25;" d="M 124.640625 290.246094 L 165.347656 271.6875 L 162.21875 268.511719 Z M 124.640625 290.246094 " transform="matrix(1,0,0,1,-74,-13)"/>
<path style="fill-rule:nonzero;fill:rgb(84.999084%,84.999084%,84.999084%);fill-opacity:0.6;stroke-width:1;stroke-linecap:square;stroke-linejoin:miter;stroke:rgb(50%,50%,50%);stroke-opacity:1;stroke-miterlimit:3.25;" d="M 165.347656 271.6875 L 124.640625 290.246094 L 169.320313 306.839844 Z M 165.347656 271.6875 " transform="matrix(1,0,0,1,-74,-13)"/>
<path style="fill-rule:nonzero;fill:rgb(84.999084%,84.999084%,84.999084%);fill-opacity:0.6;stroke-width:1;stroke-linecap:square;stroke-linejoin:miter;stroke:rgb(50%,50%,50%);stroke-opacity:1;stroke-miterlimit:3.25;" d="M 162.21875 268.511719 L 165.347656 271.6875 L 195.289063 269.292969 Z M 162.21875 268.511719 " transform="matrix(1,0,0,1,-74,-13)"/>
<path style="fill-rule:nonzero;fill:rgb(84.999084%,84.999084%,84.999084%);fill-opacity:0.6;stroke-width:1;stroke-linecap:square;stroke-linejoin:miter;stroke:rgb(50%,50%,50%);stroke-opacity:1;stroke-miterlimit:3.25;" d="M 124.640625 290.246094 L 162.21875 268.511719 L 98.691406 252.105469 Z M 124.640625 290.246094 " transform="matrix(1,0,0,1,-74,-13)"/>
<path style="fill-rule:nonzero;fill:rgb(84.999084%,84.999084%,84.999084%);fill-opacity:0.6;stroke-width:1;stroke-linecap:square;stroke-linejoin:miter;stroke:rgb(50%,50%,50%);stroke-opacity:1;stroke-miterlimit:3.25;" d="M 171.820313 327.523438 L 173.035156 326.3125 L 169.320313 306.839844 Z M 171.820313 327.523438 " transform="matrix(1,0,0,1,-74,-13)"/>
<path style="fill-rule:nonzero;fill:rgb(84.999084%,84.999084%,84.999084%);fill-opacity:0.6;stroke-width:1;stroke-linecap:square;stroke-linejoin:miter;stroke:rgb(50%,50%,50%);stroke-opacity:1;stroke-miterlimit:3.25;" d="M 169.320313 306.839844 L 195.289063 269.292969 L 165.347656 271.6875 Z M 169.320313 306.839844 " transform="matrix(1,0,0,1,-74,-13)"/>
<path style="fill-rule:nonzero;fill:rgb(84.999084%,84.999084%,84.999084%);fill-opacity:0.6;stroke-width:1;stroke-linecap:square;stroke-linejoin:miter;stroke:rgb(50%,50%,50%);stroke-opacity:1;stroke-miterlimit:3.25;" d="M 195.289063 269.292969 L 169.320313 306.839844 L 173.035156 326.3125 Z M 195.289063 269.292969 " transform="matrix(1,0,0,1,-74,-13)"/>
<path style="fill-rule:nonzero;fill:rgb(84.999084%,84.999084%,84.999084%);fill-opacity:0.6;stroke-width:1;stroke-linecap:square;stroke-linejoin:miter;stroke:rgb(50%,50%,50%);stroke-opacity:1;stroke-miterlimit:3.25;" d="M 173.035156 326.3125 L 298.589844 174.902344 L 195.289063 269.292969 Z M 173.035156 326.3125 " transform="matrix(1,0,0,1,-74,-13)"/>
<path style="fill-rule:nonzero;fill:rgb(84.999084%,84.999084%,84.999084%);fill-opacity:0.6;stroke-width:1;stroke-linecap:square;stroke-linejoin:miter;stroke:rgb(50%,50%,50%);stroke-opacity:1;stroke-miterlimit:3.25;" d="M 171.820313 327.523438 L 169.320313 306.839844 L 124.640625 290.246094 Z M 171.820313 327.523438 " transform="matrix(1,0,0,1,-74,-13)"/>
<path style="fill-rule:nonzero;fill:rgb(84.999084%,84.999084%,84.999084%);fill-opacity:0.6;stroke-width:1;stroke-linecap:square;stroke-linejoin:miter;stroke:rgb(50%,50%,50%);stroke-opacity:1;stroke-miterlimit:3.25;" d="M 162.21875 268.511719 L 195.289063 269.292969 L 171.101563 170.222656 Z M 162.21875 268.511719 " transform="matrix(1,0,0,1,-74,-13)"/>
<path style="fill-rule:nonzero;fill:rgb(84.999084%,84.999084%,84.999084%);fill-opacity:0.6;stroke-width:1;stroke-linecap:square;stroke-linejoin:miter;stroke:rgb(50%,50%,50%);stroke-opacity:1;stroke-miterlimit:3.25;" d="M 98.691406 252.105469 L 109.964844 144.179688 L 106.863281 137.570313 Z M 98.691406 252.105469 " transform="matrix(1,0,0,1,-74,-13)"/>
<path style="fill-rule:nonzero;fill:rgb(84.999084%,84.999084%,84.999084%);fill-opacity:0.6;stroke-width:1;stroke-linecap:square;stroke-linejoin:miter;stroke:rgb(50%,50%,50%);stroke-opacity:1;stroke-miterlimit:3.25;" d="M 109.964844 144.179688 L 98.691406 252.105469 L 111.664063 144.601563 Z M 109.964844 144.179688 " transform="matrix(1,0,0,1,-74,-13)"/>
<path style="fill-rule:nonzero;fill:rgb(84.999084%,84.999084%,84.999084%);fill-opacity:0.6;stroke-width:1;stroke-linecap:square;stroke-linejoin:miter;stroke:rgb(50%,50%,50%);stroke-opacity:1;stroke-miterlimit:3.25;" d="M 106.863281 137.570313 L 109.964844 144.179688 L 111.664063 144.601563 Z M 106.863281 137.570313 " transform="matrix(1,0,0,1,-74,-13)"/>
<path style="fill-rule:nonzero;fill:rgb(84.999084%,84.999084%,84.999084%);fill-opacity:0.6;stroke-width:1;stroke-linecap:square;stroke-linejoin:miter;stroke:rgb(50%,50%,50%);stroke-opacity:1;stroke-miterlimit:3.25;" d="M 171.101563 170.222656 L 195.753906 161.144531 L 124.953125 140.566406 Z M 171.101563 170.222656 " transform="matrix(1,0,0,1,-74,-13)"/>
<path style="fill-rule:nonzero;fill:rgb(84.999084%,84.999084%,84.999084%);fill-opacity:0.6;stroke-width:1;stroke-linecap:square;stroke-linejoin:miter;stroke:rgb(50%,50%,50%);stroke-opacity:1;stroke-miterlimit:3.25;" d="M 171.101563 170.222656 L 98.691406 252.105469 L 162.21875 268.511719 Z M 171.101563 170.222656 " transform="matrix(1,0,0,1,-74,-13)"/>
<path style="fill-rule:nonzero;fill:rgb(84.999084%,84.999084%,84.999084%);fill-opacity:0.6;stroke-width:1;stroke-linecap:square;stroke-linejoin:miter;stroke:rgb(50%,50%,50%);stroke-opacity:1;stroke-miterlimit:3.25;" d="M 111.664063 144.601563 L 124.953125 140.566406 L 106.863281 137.570313 Z M 111.664063 144.601563 " transform="matrix(1,0,0,1,-74,-13)"/>
<path style="fill-rule:nonzero;fill:rgb(84.999084%,84.999084%,84.999084%);fill-opacity:0.6;stroke-width:1;stroke-linecap:square;stroke-linejoin:miter;stroke:rgb(50%,50%,50%);stroke-opacity:1;stroke-miterlimit:3.25;" d="M 124.953125 140.566406 L 111.664063 144.601563 L 171.101563 170.222656 Z M 124.953125 140.566406 " transform="matrix(1,0,0,1,-74,-13)"/>
<path style="fill-rule:nonzero;fill:rgb(84.999084%,84.999084%,84.999084%);fill-opacity:0.6;stroke-width:1;stroke-linecap:square;stroke-linejoin:miter;stroke:rgb(50%,50%,50%);stroke-opacity:1;stroke-miterlimit:3.25;" d="M 195.753906 161.144531 L 198.257813 160.296875 L 124.953125 140.566406 Z M 195.753906 161.144531 " transform="matrix(1,0,0,1,-74,-13)"/>
<path style="fill-rule:nonzero;fill:rgb(84.999084%,84.999084%,84.999084%);fill-opacity:0.6;stroke-width:1;stroke-linecap:square;stroke-linejoin:miter;stroke:rgb(50%,50%,50%);stroke-opacity:1;stroke-miterlimit:3.25;" d="M 171.101563 170.222656 L 111.664063 144.601563 L 98.691406 252.105469 Z M 171.101563 170.222656 " transform="matrix(1,0,0,1,-74,-13)"/>
<path style="fill-rule:nonzero;fill:rgb(84.999084%,84.999084%,84.999084%);fill-opacity:0.6;stroke-width:1;stroke-linecap:square;stroke-linejoin:miter;stroke:rgb(50%,50%,50%);stroke-opacity:1;stroke-miterlimit:3.25;" d="M 171.101563 170.222656 L 196.714844 164.5625 L 195.753906 161.144531 Z M 171.101563 170.222656 " transform="matrix(1,0,0,1,-74,-13)"/>
<path style="fill-rule:nonzero;fill:rgb(84.999084%,84.999084%,84.999084%);fill-opacity:0.6;stroke-width:1;stroke-linecap:square;stroke-linejoin:miter;stroke:rgb(50%,50%,50%);stroke-opacity:1;stroke-miterlimit:3.25;" d="M 106.863281 137.570313 L 124.953125 140.566406 L 253.03125 33.492188 Z M 106.863281 137.570313 " transform="matrix(1,0,0,1,-74,-13)"/>
<path style="fill-rule:nonzero;fill:rgb(84.999084%,84.999084%,84.999084%);fill-opacity:0.6;stroke-width:1;stroke-linecap:square;stroke-linejoin:miter;stroke:rgb(50%,50%,50%);stroke-opacity:1;stroke-miterlimit:3.25;" d="M 171.101563 170.222656 L 195.289063 269.292969 L 196.949219 165.660156 Z M 171.101563 170.222656 " transform="matrix(1,0,0,1,-74,-13)"/>
<path style="fill-rule:nonzero;fill:rgb(84.999084%,84.999084%,84.999084%);fill-opacity:0.6;stroke-width:1;stroke-linecap:square;stroke-linejoin:miter;stroke:rgb(50%,50%,50%);stroke-opacity:1;stroke-miterlimit:3.25;" d="M 196.714844 164.5625 L 196.949219 165.660156 L 198.257813 160.296875 Z M 196.714844 164.5625 " transform="matrix(1,0,0,1,-74,-13)"/>
<path style="fill-rule:nonzero;fill:rgb(84.999084%,84.999084%,84.999084%);fill-opacity:0.6;stroke-width:1;stroke-linecap:square;stroke-linejoin:miter;stroke:rgb(50%,50%,50%);stroke-opacity:1;stroke-miterlimit:3.25;" d="M 196.949219 165.660156 L 196.714844 164.5625 L 171.101563 170.222656 Z M 196.949219 165.660156 " transform="matrix(1,0,0,1,-74,-13)"/>
<path style="fill-rule:nonzero;fill:rgb(84.999084%,84.999084%,84.999084%);fill-opacity:0.6;stroke-width:1;stroke-linecap:square;stroke-linejoin:miter;stroke:rgb(50%,50%,50%);stroke-opacity:1;stroke-miterlimit:3.25;" d="M 198.257813 160.296875 L 196.949219 165.660156 L 298.535156 173.679688 Z M 198.257813 160.296875 " transform="matrix(1,0,0,1,-74,-13)"/>
<path style="fill-rule:nonzero;fill:rgb(84.999084%,84.999084%,84.999084%);fill-opacity:0.6;stroke-width:1;stroke-linecap:square;stroke-linejoin:miter;stroke:rgb(50%,50%,50%);stroke-opacity:1;stroke-miterlimit:3.25;" d="M 196.714844 164.5625 L 198.257813 160.296875 L 195.753906 161.144531 Z M 196.714844 164.5625 " transform="matrix(1,0,0,1,-74,-13)"/>
<path style="fill-rule:nonzero;fill:rgb(84.999084%,84.999084%,84.999084%);fill-opacity:0.6;stroke-width:1;stroke-linecap:square;stroke-linejoin:miter;stroke:rgb(50%,50%,50%);stroke-opacity:1;stroke-miterlimit:3.25;" d="M 298.535156 173.679688 L 298.589844 174.902344 L 299.433594 169.351563 Z M 298.535156 173.679688 " transform="matrix(1,0,0,1,-74,-13)"/>
<path style="fill-rule:nonzero;fill:rgb(84.999084%,84.999084%,84.999084%);fill-opacity:0.6;stroke-width:1;stroke-linecap:square;stroke-linejoin:miter;stroke:rgb(50%,50%,50%);stroke-opacity:1;stroke-miterlimit:3.25;" d="M 298.589844 174.902344 L 298.535156 173.679688 L 196.949219 165.660156 Z M 298.589844 174.902344 " transform="matrix(1,0,0,1,-74,-13)"/>
<path style="fill-rule:nonzero;fill:rgb(84.999084%,84.999084%,84.999084%);fill-opacity:0.6;stroke-width:1;stroke-linecap:square;stroke-linejoin:miter;stroke:rgb(50%,50%,50%);stroke-opacity:1;stroke-miterlimit:3.25;" d="M 198.257813 160.296875 L 299.074219 169.578125 L 316.199219 84.59375 Z M 198.257813 160.296875 " transform="matrix(1,0,0,1,-74,-13)"/>
<path style="fill-rule:nonzero;fill:rgb(84.999084%,84.999084%,84.999084%);fill-opacity:0.6;stroke-width:1;stroke-linecap:square;stroke-linejoin:miter;stroke:rgb(50%,50%,50%);stroke-opacity:1;stroke-miterlimit:3.25;" d="M 299.433594 169.351563 L 299.074219 169.578125 L 298.535156 173.679688 Z M 299.433594 169.351563 " transform="matrix(1,0,0,1,-74,-13)"/>
<path style="fill-rule:nonzero;fill:rgb(84.999084%,84.999084%,84.999084%);fill-opacity:0.6;stroke-width:1;stroke-linecap:square;stroke-linejoin:miter;stroke:rgb(50%,50%,50%);stroke-opacity:1;stroke-miterlimit:3.25;" d="M 298.589844 174.902344 L 401.800781 70.761719 L 299.433594 169.351563 Z M 298.589844 174.902344 " transform="matrix(1,0,0,1,-74,-13)"/>
<path style="fill-rule:nonzero;fill:rgb(84.999084%,84.999084%,84.999084%);fill-opacity:0.6;stroke-width:1;stroke-linecap:square;stroke-linejoin:miter;stroke:rgb(50%,50%,50%);stroke-opacity:1;stroke-miterlimit:3.25;" d="M 298.535156 173.679688 L 299.074219 169.578125 L 198.257813 160.296875 Z M 298.535156 173.679688 " transform="matrix(1,0,0,1,-74,-13)"/>
<path style="fill-rule:nonzero;fill:rgb(84.999084%,84.999084%,84.999084%);fill-opacity:0.6;stroke-width:1;stroke-linecap:square;stroke-linejoin:miter;stroke:rgb(50%,50%,50%);stroke-opacity:1;stroke-miterlimit:3.25;" d="M 196.949219 165.660156 L 195.289063 269.292969 L 298.589844 174.902344 Z M 196.949219 165.660156 " transform="matrix(1,0,0,1,-74,-13)"/>
<path style="fill-rule:nonzero;fill:rgb(84.999084%,84.999084%,84.999084%);fill-opacity:0.6;stroke-width:1;stroke-linecap:square;stroke-linejoin:miter;stroke:rgb(50%,50%,50%);stroke-opacity:1;stroke-miterlimit:3.25;" d="M 316.199219 84.59375 L 299.074219 169.578125 L 299.433594 169.351563 Z M 316.199219 84.59375 " transform="matrix(1,0,0,1,-74,-13)"/>
<path style="fill-rule:nonzero;fill:rgb(84.999084%,84.999084%,84.999084%);fill-opacity:0.6;stroke-width:1;stroke-linecap:square;stroke-linejoin:miter;stroke:rgb(50%,50%,50%);stroke-opacity:1;stroke-miterlimit:3.25;" d="M 198.257813 160.296875 L 253.433594 33.640625 L 253.03125 33.492188 Z M 198.257813 160.296875 " transform="matrix(1,0,0,1,-74,-13)"/>
<path style="fill-rule:nonzero;fill:rgb(84.999084%,84.999084%,84.999084%);fill-opacity:0.6;stroke-width:1;stroke-linecap:square;stroke-linejoin:miter;stroke:rgb(50%,50%,50%);stroke-opacity:1;stroke-miterlimit:3.25;" d="M 253.433594 33.640625 L 198.257813 160.296875 L 316.199219 84.59375 Z M 253.433594 33.640625 " transform="matrix(1,0,0,1,-74,-13)"/>
<path style="fill-rule:nonzero;fill:rgb(84.999084%,84.999084%,84.999084%);fill-opacity:0.6;stroke-width:1;stroke-linecap:square;stroke-linejoin:miter;stroke:rgb(50%,50%,50%);stroke-opacity:1;stroke-miterlimit:3.25;" d="M 253.433594 33.640625 L 316.199219 84.59375 L 320.660156 85.035156 Z M 253.433594 33.640625 " transform="matrix(1,0,0,1,-74,-13)"/>
<path style="fill-rule:nonzero;fill:rgb(84.999084%,84.999084%,84.999084%);fill-opacity:0.6;stroke-width:1;stroke-linecap:square;stroke-linejoin:miter;stroke:rgb(50%,50%,50%);stroke-opacity:1;stroke-miterlimit:3.25;" d="M 253.03125 33.492188 L 253.433594 33.640625 L 402.3125 68.785156 Z M 253.03125 33.492188 " transform="matrix(1,0,0,1,-74,-13)"/>
<path style="fill-rule:nonzero;fill:rgb(84.999084%,84.999084%,84.999084%);fill-opacity:0.6;stroke-width:1;stroke-linecap:square;stroke-linejoin:miter;stroke:rgb(50%,50%,50%);stroke-opacity:1;stroke-miterlimit:3.25;" d="M 318.570313 85.886719 L 320.660156 85.035156 L 316.199219 84.59375 Z M 318.570313 85.886719 " transform="matrix(1,0,0,1,-74,-13)"/>
<path style="fill-rule:nonzero;fill:rgb(84.999084%,84.999084%,84.999084%);fill-opacity:0.6;stroke-width:1;stroke-linecap:square;stroke-linejoin:miter;stroke:rgb(50%,50%,50%);stroke-opacity:1;stroke-miterlimit:3.25;" d="M 318.570313 85.886719 L 299.433594 169.351563 L 320.660156 85.035156 Z M 318.570313 85.886719 " transform="matrix(1,0,0,1,-74,-13)"/>
<path style="fill-rule:nonzero;fill:rgb(84.999084%,84.999084%,84.999084%);fill-opacity:0.6;stroke-width:1;stroke-linecap:square;stroke-linejoin:miter;stroke:rgb(50%,50%,50%);stroke-opacity:1;stroke-miterlimit:3.25;" d="M 401.800781 70.761719 L 402.3125 68.785156 L 320.660156 85.035156 Z M 401.800781 70.761719 " transform="matrix(1,0,0,1,-74,-13)"/>
<path style="fill-rule:nonzero;fill:rgb(84.999084%,84.999084%,84.999084%);fill-opacity:0.6;stroke-width:1;stroke-linecap:square;stroke-linejoin:miter;stroke:rgb(50%,50%,50%);stroke-opacity:1;stroke-miterlimit:3.25;" d="M 299.433594 169.351563 L 401.800781 70.761719 L 320.660156 85.035156 Z M 299.433594 169.351563 " transform="matrix(1,0,0,1,-74,-13)"/>
<path style="fill-rule:nonzero;fill:rgb(84.999084%,84.999084%,84.999084%);fill-opacity:0.6;stroke-width:1;stroke-linecap:square;stroke-linejoin:miter;stroke:rgb(50%,50%,50%);stroke-opacity:1;stroke-miterlimit:3.25;" d="M 320.660156 85.035156 L 402.3125 68.785156 L 253.433594 33.640625 Z M 320.660156 85.035156 " transform="matrix(1,0,0,1,-74,-13)"/>
<path style="fill-rule:nonzero;fill:rgb(84.999084%,84.999084%,84.999084%);fill-opacity:0.6;stroke-width:1;stroke-linecap:square;stroke-linejoin:miter;stroke:rgb(50%,50%,50%);stroke-opacity:1;stroke-miterlimit:3.25;" d="M 316.199219 84.59375 L 299.433594 169.351563 L 318.570313 85.886719 Z M 316.199219 84.59375 " transform="matrix(1,0,0,1,-74,-13)"/>
<path style="fill-rule:nonzero;fill:rgb(84.999084%,84.999084%,84.999084%);fill-opacity:0.6;stroke-width:1;stroke-linecap:square;stroke-linejoin:miter;stroke:rgb(50%,50%,50%);stroke-opacity:1;stroke-miterlimit:3.25;" d="M 298.589844 174.902344 L 173.035156 326.3125 L 401.800781 70.761719 Z M 298.589844 174.902344 " transform="matrix(1,0,0,1,-74,-13)"/>
<path style="fill-rule:nonzero;fill:rgb(84.999084%,84.999084%,84.999084%);fill-opacity:0.6;stroke-width:1;stroke-linecap:square;stroke-linejoin:miter;stroke:rgb(50%,50%,50%);stroke-opacity:1;stroke-miterlimit:3.25;" d="M 198.257813 160.296875 L 253.03125 33.492188 L 124.953125 140.566406 Z M 198.257813 160.296875 " transform="matrix(1,0,0,1,-74,-13)"/>
<path style=" stroke:none;fill-rule:evenodd;fill:rgb(99.998474%,0%,0%);fill-opacity:0.6;" d="M 99.789063 315 C 99.789063 314.523438 99.601563 314.070313 99.265625 313.734375 C 98.929688 313.398438 98.476563 313.210938 98 313.210938 C 97.523438 313.210938 97.070313 313.398438 96.734375 313.734375 C 96.398438 314.070313 96.210938 314.523438 96.210938 315 C 96.210938 315.476563 96.398438 315.929688 96.734375 316.265625 C 97.070313 316.601563 97.523438 316.789063 98 316.789063 C 98.476563 316.789063 98.929688 316.601563 99.265625 316.265625 C 99.601563 315.929688 99.789063 315.476563 99.789063 315 Z M 99.789063 315 "/>
<path style=" stroke:none;fill-rule:evenodd;fill:rgb(99.998474%,0%,0%);fill-opacity:0.6;" d="M 100.789063 313 C 100.789063 312.523438 100.601563 312.070313 100.265625 311.734375 C 99.929688 311.398438 99.476563 311.210938 99 311.210938 C 98.523438 311.210938 98.070313 311.398438 97.734375 311.734375 C 97.398438 312.070313 97.210938 312.523438 97.210938 313 C 97.210938 313.476563 97.398438 313.929688 97.734375 314.265625 C 98.070313 314.601563 98.523438 314.789063 99 314.789063 C 99.476563 314.789063 99.929688 314.601563 100.265625 314.265625 C 100.601563 313.929688 100.789063 313.476563 100.789063 313 Z M 100.789063 313 "/>
<path style=" stroke:none;fill-rule:evenodd;fill:rgb(99.998474%,0%,0%);fill-opacity:0.6;" d="M 96.789063 294 C 96.789063 293.523438 96.601563 293.070313 96.265625 292.734375 C 95.929688 292.398438 95.476563 292.210938 95 292.210938 C 94.523438 292.210938 94.070313 292.398438 93.734375 292.734375 C 93.398438 293.070313 93.210938 293.523438 93.210938 294 C 93.210938 294.476563 93.398438 294.929688 93.734375 295.265625 C 94.070313 295.601563 94.523438 295.789063 95 295.789063 C 95.476563 295.789063 95.929688 295.601563 96.265625 295.265625 C 96.601563 294.929688 96.789063 294.476563 96.789063 294 Z M 96.789063 294 "/>
<path style=" stroke:none;fill-rule:evenodd;fill:rgb(99.998474%,0%,0%);fill-opacity:0.6;" d="M 52.789063 277 C 52.789063 276.523438 52.601563 276.070313 52.265625 275.734375 C 51.929688 275.398438 51.476563 275.210938 51 275.210938 C 50.523438 275.210938 50.070313 275.398438 49.734375 275.734375 C 49.398438 276.070313 49.210938 276.523438 49.210938 277 C 49.210938 277.476563 49.398438 277.929688 49.734375 278.265625 C 50.070313 278.601563 50.523438 278.789063 51 278.789063 C 51.476563 278.789063 51.929688 278.601563 52.265625 278.265625 C 52.601563 277.929688 52.789063 277.476563 52.789063 277 Z M 52.789063 277 "/>
<path style=" stroke:none;fill-rule:evenodd;fill:rgb(99.998474%,0%,0%);fill-opacity:0.6;" d="M 92.789063 259 C 92.789063 258.523438 92.601563 258.070313 92.265625 257.734375 C 91.929688 257.398438 91.476563 257.210938 91 257.210938 C 90.523438 257.210938 90.070313 257.398438 89.734375 257.734375 C 89.398438 258.070313 89.210938 258.523438 89.210938 259 C 89.210938 259.476563 89.398438 259.929688 89.734375 260.265625 C 90.070313 260.601563 90.523438 260.789063 91 260.789063 C 91.476563 260.789063 91.929688 260.601563 92.265625 260.265625 C 92.601563 259.929688 92.789063 259.476563 92.789063 259 Z M 92.789063 259 "/>
<path style=" stroke:none;fill-rule:evenodd;fill:rgb(99.998474%,0%,0%);fill-opacity:0.6;" d="M 122.789063 256 C 122.789063 255.523438 122.601563 255.070313 122.265625 254.734375 C 121.929688 254.398438 121.476563 254.210938 121 254.210938 C 120.523438 254.210938 120.070313 254.398438 119.734375 254.734375 C 119.398438 255.070313 119.210938 255.523438 119.210938 256 C 119.210938 256.476563 119.398438 256.929688 119.734375 257.265625 C 120.070313 257.601563 120.523438 257.789063 121 257.789063 C 121.476563 257.789063 121.929688 257.601563 122.265625 257.265625 C 122.601563 256.929688 122.789063 256.476563 122.789063 256 Z M 122.789063 256 "/>
<path style=" stroke:none;fill-rule:evenodd;fill:rgb(99.998474%,0%,0%);fill-opacity:0.6;" d="M 89.789063 256 C 89.789063 255.523438 89.601563 255.070313 89.265625 254.734375 C 88.929688 254.398438 88.476563 254.210938 88 254.210938 C 87.523438 254.210938 87.070313 254.398438 86.734375 254.734375 C 86.398438 255.070313 86.210938 255.523438 86.210938 256 C 86.210938 256.476563 86.398438 256.929688 86.734375 257.265625 C 87.070313 257.601563 87.523438 257.789063 88 257.789063 C 88.476563 257.789063 88.929688 257.601563 89.265625 257.265625 C 89.601563 256.929688 89.789063 256.476563 89.789063 256 Z M 89.789063 256 "/>
<path style=" stroke:none;fill-rule:evenodd;fill:rgb(99.998474%,0%,0%);fill-opacity:0.6;" d="M 26.789063 239 C 26.789063 238.523438 26.601563 238.070313 26.265625 237.734375 C 25.929688 237.398438 25.476563 237.210938 25 237.210938 C 24.523438 237.210938 24.070313 237.398438 23.734375 237.734375 C 23.398438 238.070313 23.210938 238.523438 23.210938 239 C 23.210938 239.476563 23.398438 239.929688 23.734375 240.265625 C 24.070313 240.601563 24.523438 240.789063 25 240.789063 C 25.476563 240.789063 25.929688 240.601563 26.265625 240.265625 C 26.601563 239.929688 26.789063 239.476563 26.789063 239 Z M 26.789063 239 "/>
<path style=" stroke:none;fill-rule:evenodd;fill:rgb(99.998474%,0%,0%);fill-opacity:0.6;" d="M 226.789063 162 C 226.789063 161.523438 226.601563 161.070313 226.265625 160.734375 C 225.929688 160.398438 225.476563 160.210938 225 160.210938 C 224.523438 160.210938 224.070313 160.398438 223.734375 160.734375 C 223.398438 161.070313 223.210938 161.523438 223.210938 162 C 223.210938 162.476563 223.398438 162.929688 223.734375 163.265625 C 224.070313 163.601563 224.523438 163.789063 225 163.789063 C 225.476563 163.789063 225.929688 163.601563 226.265625 163.265625 C 226.601563 162.929688 226.789063 162.476563 226.789063 162 Z M 226.789063 162 "/>
<path style=" stroke:none;fill-rule:evenodd;fill:rgb(99.998474%,0%,0%);fill-opacity:0.6;" d="M 226.789063 161 C 226.789063 160.523438 226.601563 160.070313 226.265625 159.734375 C 225.929688 159.398438 225.476563 159.210938 225 159.210938 C 224.523438 159.210938 224.070313 159.398438 223.734375 159.734375 C 223.398438 160.070313 223.210938 160.523438 223.210938 161 C 223.210938 161.476563 223.398438 161.929688 223.734375 162.265625 C 224.070313 162.601563 224.523438 162.789063 225 162.789063 C 225.476563 162.789063 225.929688 162.601563 226.265625 162.265625 C 226.601563 161.929688 226.789063 161.476563 226.789063 161 Z M 226.789063 161 "/>
<path style=" stroke:none;fill-rule:evenodd;fill:rgb(99.998474%,0%,0%);fill-opacity:0.6;" d="M 98.789063 157 C 98.789063 156.523438 98.601563 156.070313 98.265625 155.734375 C 97.929688 155.398438 97.476563 155.210938 97 155.210938 C 96.523438 155.210938 96.070313 155.398438 95.734375 155.734375 C 95.398438 156.070313 95.210938 156.523438 95.210938 157 C 95.210938 157.476563 95.398438 157.929688 95.734375 158.265625 C 96.070313 158.601563 96.523438 158.789063 97 158.789063 C 97.476563 158.789063 97.929688 158.601563 98.265625 158.265625 C 98.601563 157.929688 98.789063 157.476563 98.789063 157 Z M 98.789063 157 "/>
<path style=" stroke:none;fill-rule:evenodd;fill:rgb(99.998474%,0%,0%);fill-opacity:0.6;" d="M 226.789063 157 C 226.789063 156.523438 226.601563 156.070313 226.265625 155.734375 C 225.929688 155.398438 225.476563 155.210938 225 155.210938 C 224.523438 155.210938 224.070313 155.398438 223.734375 155.734375 C 223.398438 156.070313 223.210938 156.523438 223.210938 157 C 223.210938 157.476563 223.398438 157.929688 223.734375 158.265625 C 224.070313 158.601563 224.523438 158.789063 225 158.789063 C 225.476563 158.789063 225.929688 158.601563 226.265625 158.265625 C 226.601563 157.929688 226.789063 157.476563 226.789063 157 Z M 226.789063 157 "/>
<path style=" stroke:none;fill-rule:evenodd;fill:rgb(99.998474%,0%,0%);fill-opacity:0.6;" d="M 226.789063 156 C 226.789063 155.523438 226.601563 155.070313 226.265625 154.734375 C 225.929688 154.398438 225.476563 154.210938 225 154.210938 C 224.523438 154.210938 224.070313 154.398438 223.734375 154.734375 C 223.398438 155.070313 223.210938 155.523438 223.210938 156 C 223.210938 156.476563 223.398438 156.929688 223.734375 157.265625 C 224.070313 157.601563 224.523438 157.789063 225 157.789063 C 225.476563 157.789063 225.929688 157.601563 226.265625 157.265625 C 226.601563 156.929688 226.789063 156.476563 226.789063 156 Z M 226.789063 156 "/>
<path style=" stroke:none;fill-rule:evenodd;fill:rgb(99.998474%,0%,0%);fill-opacity:0.6;" d="M 124.789063 153 C 124.789063 152.523438 124.601563 152.070313 124.265625 151.734375 C 123.929688 151.398438 123.476563 151.210938 123 151.210938 C 122.523438 151.210938 122.070313 151.398438 121.734375 151.734375 C 121.398438 152.070313 121.210938 152.523438 121.210938 153 C 121.210938 153.476563 121.398438 153.929688 121.734375 154.265625 C 122.070313 154.601563 122.523438 154.789063 123 154.789063 C 123.476563 154.789063 123.929688 154.601563 124.265625 154.265625 C 124.601563 153.929688 124.789063 153.476563 124.789063 153 Z M 124.789063 153 "/>
<path style=" stroke:none;fill-rule:evenodd;fill:rgb(99.998474%,0%,0%);fill-opacity:0.6;" d="M 124.789063 152 C 124.789063 151.523438 124.601563 151.070313 124.265625 150.734375 C 123.929688 150.398438 123.476563 150.210938 123 150.210938 C 122.523438 150.210938 122.070313 150.398438 121.734375 150.734375 C 121.398438 151.070313 121.210938 151.523438 121.210938 152 C 121.210938 152.476563 121.398438 152.929688 121.734375 153.265625 C 122.070313 153.601563 122.523438 153.789063 123 153.789063 C 123.476563 153.789063 123.929688 153.601563 124.265625 153.265625 C 124.601563 152.929688 124.789063 152.476563 124.789063 152 Z M 124.789063 152 "/>
<path style=" stroke:none;fill-rule:evenodd;fill:rgb(99.998474%,0%,0%);fill-opacity:0.6;" d="M 123.789063 148 C 123.789063 147.523438 123.601563 147.070313 123.265625 146.734375 C 122.929688 146.398438 122.476563 146.210938 122 146.210938 C 121.523438 146.210938 121.070313 146.398438 120.734375 146.734375 C 120.398438 147.070313 120.210938 147.523438 120.210938 148 C 120.210938 148.476563 120.398438 148.929688 120.734375 149.265625 C 121.070313 149.601563 121.523438 149.789063 122 149.789063 C 122.476563 149.789063 122.929688 149.601563 123.265625 149.265625 C 123.601563 148.929688 123.789063 148.476563 123.789063 148 Z M 123.789063 148 "/>
<path style=" stroke:none;fill-rule:evenodd;fill:rgb(99.998474%,0%,0%);fill-opacity:0.6;" d="M 125.789063 147 C 125.789063 146.523438 125.601563 146.070313 125.265625 145.734375 C 124.929688 145.398438 124.476563 145.210938 124 145.210938 C 123.523438 145.210938 123.070313 145.398438 122.734375 145.734375 C 122.398438 146.070313 122.210938 146.523438 122.210938 147 C 122.210938 147.476563 122.398438 147.929688 122.734375 148.265625 C 123.070313 148.601563 123.523438 148.789063 124 148.789063 C 124.476563 148.789063 124.929688 148.601563 125.265625 148.265625 C 125.601563 147.929688 125.789063 147.476563 125.789063 147 Z M 125.789063 147 "/>
<path style=" stroke:none;fill-rule:evenodd;fill:rgb(99.998474%,0%,0%);fill-opacity:0.6;" d="M 39.789063 132 C 39.789063 131.523438 39.601563 131.070313 39.265625 130.734375 C 38.929688 130.398438 38.476563 130.210938 38 130.210938 C 37.523438 130.210938 37.070313 130.398438 36.734375 130.734375 C 36.398438 131.070313 36.210938 131.523438 36.210938 132 C 36.210938 132.476563 36.398438 132.929688 36.734375 133.265625 C 37.070313 133.601563 37.523438 133.789063 38 133.789063 C 38.476563 133.789063 38.929688 133.601563 39.265625 133.265625 C 39.601563 132.929688 39.789063 132.476563 39.789063 132 Z M 39.789063 132 "/>
<path style=" stroke:none;fill-rule:evenodd;fill:rgb(99.998474%,0%,0%);fill-opacity:0.6;" d="M 37.789063 131 C 37.789063 130.523438 37.601563 130.070313 37.265625 129.734375 C 36.929688 129.398438 36.476563 129.210938 36 129.210938 C 35.523438 129.210938 35.070313 129.398438 34.734375 129.734375 C 34.398438 130.070313 34.210938 130.523438 34.210938 131 C 34.210938 131.476563 34.398438 131.929688 34.734375 132.265625 C 35.070313 132.601563 35.523438 132.789063 36 132.789063 C 36.476563 132.789063 36.929688 132.601563 37.265625 132.265625 C 37.601563 131.929688 37.789063 131.476563 37.789063 131 Z M 37.789063 131 "/>
<path style=" stroke:none;fill-rule:evenodd;fill:rgb(99.998474%,0%,0%);fill-opacity:0.6;" d="M 52.789063 128 C 52.789063 127.523438 52.601563 127.070313 52.265625 126.734375 C 51.929688 126.398438 51.476563 126.210938 51 126.210938 C 50.523438 126.210938 50.070313 126.398438 49.734375 126.734375 C 49.398438 127.070313 49.210938 127.523438 49.210938 128 C 49.210938 128.476563 49.398438 128.929688 49.734375 129.265625 C 50.070313 129.601563 50.523438 129.789063 51 129.789063 C 51.476563 129.789063 51.929688 129.601563 52.265625 129.265625 C 52.601563 128.929688 52.789063 128.476563 52.789063 128 Z M 52.789063 128 "/>
<path style=" stroke:none;fill-rule:evenodd;fill:rgb(99.998474%,0%,0%);fill-opacity:0.6;" d="M 34.789063 125 C 34.789063 124.523438 34.601563 124.070313 34.265625 123.734375 C 33.929688 123.398438 33.476563 123.210938 33 123.210938 C 32.523438 123.210938 32.070313 123.398438 31.734375 123.734375 C 31.398438 124.070313 31.210938 124.523438 31.210938 125 C 31.210938 125.476563 31.398438 125.929688 31.734375 126.265625 C 32.070313 126.601563 32.523438 126.789063 33 126.789063 C 33.476563 126.789063 33.929688 126.601563 34.265625 126.265625 C 34.601563 125.929688 34.789063 125.476563 34.789063 125 Z M 34.789063 125 "/>
<path style=" stroke:none;fill-rule:evenodd;fill:rgb(99.998474%,0%,0%);fill-opacity:0.6;" d="M 246.789063 73 C 246.789063 72.523438 246.601563 72.070313 246.265625 71.734375 C 245.929688 71.398438 245.476563 71.210938 245 71.210938 C 244.523438 71.210938 244.070313 71.398438 243.734375 71.734375 C 243.398438 72.070313 243.210938 72.523438 243.210938 73 C 243.210938 73.476563 243.398438 73.929688 243.734375 74.265625 C 244.070313 74.601563 244.523438 74.789063 245 74.789063 C 245.476563 74.789063 245.929688 74.601563 246.265625 74.265625 C 246.601563 73.929688 246.789063 73.476563 246.789063 73 Z M 246.789063 73 "/>
<path style=" stroke:none;fill-rule:evenodd;fill:rgb(99.998474%,0%,0%);fill-opacity:0.6;" d="M 248.789063 72 C 248.789063 71.523438 248.601563 71.070313 248.265625 70.734375 C 247.929688 70.398438 247.476563 70.210938 247 70.210938 C 246.523438 70.210938 246.070313 70.398438 245.734375 70.734375 C 245.398438 71.070313 245.210938 71.523438 245.210938 72 C 245.210938 72.476563 245.398438 72.929688 245.734375 73.265625 C 246.070313 73.601563 246.523438 73.789063 247 73.789063 C 247.476563 73.789063 247.929688 73.601563 248.265625 73.265625 C 248.601563 72.929688 248.789063 72.476563 248.789063 72 Z M 248.789063 72 "/>
<path style=" stroke:none;fill-rule:evenodd;fill:rgb(99.998474%,0%,0%);fill-opacity:0.6;" d="M 243.789063 72 C 243.789063 71.523438 243.601563 71.070313 243.265625 70.734375 C 242.929688 70.398438 242.476563 70.210938 242 70.210938 C 241.523438 70.210938 241.070313 70.398438 240.734375 70.734375 C 240.398438 71.070313 240.210938 71.523438 240.210938 72 C 240.210938 72.476563 240.398438 72.929688 240.734375 73.265625 C 241.070313 73.601563 241.523438 73.789063 242 73.789063 C 242.476563 73.789063 242.929688 73.601563 243.265625 73.265625 C 243.601563 72.929688 243.789063 72.476563 243.789063 72 Z M 243.789063 72 "/>
<path style=" stroke:none;fill-rule:evenodd;fill:rgb(99.998474%,0%,0%);fill-opacity:0.6;" d="M 329.789063 58 C 329.789063 57.523438 329.601563 57.070313 329.265625 56.734375 C 328.929688 56.398438 328.476563 56.210938 328 56.210938 C 327.523438 56.210938 327.070313 56.398438 326.734375 56.734375 C 326.398438 57.070313 326.210938 57.523438 326.210938 58 C 326.210938 58.476563 326.398438 58.929688 326.734375 59.265625 C 327.070313 59.601563 327.523438 59.789063 328 59.789063 C 328.476563 59.789063 328.929688 59.601563 329.265625 59.265625 C 329.601563 58.929688 329.789063 58.476563 329.789063 58 Z M 329.789063 58 "/>
<path style=" stroke:none;fill-rule:evenodd;fill:rgb(99.998474%,0%,0%);fill-opacity:0.6;" d="M 329.789063 56 C 329.789063 55.523438 329.601563 55.070313 329.265625 54.734375 C 328.929688 54.398438 328.476563 54.210938 328 54.210938 C 327.523438 54.210938 327.070313 54.398438 326.734375 54.734375 C 326.398438 55.070313 326.210938 55.523438 326.210938 56 C 326.210938 56.476563 326.398438 56.929688 326.734375 57.265625 C 327.070313 57.601563 327.523438 57.789063 328 57.789063 C 328.476563 57.789063 328.929688 57.601563 329.265625 57.265625 C 329.601563 56.929688 329.789063 56.476563 329.789063 56 Z M 329.789063 56 "/>
<path style=" stroke:none;fill-rule:evenodd;fill:rgb(99.998474%,0%,0%);fill-opacity:0.6;" d="M 180.789063 21 C 180.789063 20.523438 180.601563 20.070313 180.265625 19.734375 C 179.929688 19.398438 179.476563 19.210938 179 19.210938 C 178.523438 19.210938 178.070313 19.398438 177.734375 19.734375 C 177.398438 20.070313 177.210938 20.523438 177.210938 21 C 177.210938 21.476563 177.398438 21.929688 177.734375 22.265625 C 178.070313 22.601563 178.523438 22.789063 179 22.789063 C 179.476563 22.789063 179.929688 22.601563 180.265625 22.265625 C 180.601563 21.929688 180.789063 21.476563 180.789063 21 Z M 180.789063 21 "/>
<path style=" stroke:none;fill-rule:evenodd;fill:rgb(99.998474%,0%,0%);fill-opacity:0.6;" d="M 180.789063 20 C 180.789063 19.523438 180.601563 19.070313 180.265625 18.734375 C 179.929688 18.398438 179.476563 18.210938 179 18.210938 C 178.523438 18.210938 178.070313 18.398438 177.734375 18.734375 C 177.398438 19.070313 177.210938 19.523438 177.210938 20 C 177.210938 20.476563 177.398438 20.929688 177.734375 21.265625 C 178.070313 21.601563 178.523438 21.789063 179 21.789063 C 179.476563 21.789063 179.929688 21.601563 180.265625 21.265625 C 180.601563 20.929688 180.789063 20.476563 180.789063 20 Z M 180.789063 20 "/>
<path style=" stroke:none;fill-rule:evenodd;fill:rgb(99.998474%,0%,0%);fill-opacity:1;" d="M 99.5 315 C 99.5 314.601563 99.34375 314.21875 99.0625 313.9375 C 98.78125 313.65625 98.398438 313.5 98 313.5 C 97.601563 313.5 97.21875 313.65625 96.9375 313.9375 C 96.65625 314.21875 96.5 314.601563 96.5 315 C 96.5 315.398438 96.65625 315.78125 96.9375 316.0625 C 97.21875 316.34375 97.601563 316.5 98 316.5 C 98.398438 316.5 98.78125 316.34375 99.0625 316.0625 C 99.34375 315.78125 99.5 315.398438 99.5 315 Z M 99.5 315 "/>
<path style=" stroke:none;fill-rule:evenodd;fill:rgb(99.998474%,0%,0%);fill-opacity:1;" d="M 100.5 313 C 100.5 312.601563 100.34375 312.21875 100.0625 311.9375 C 99.78125 311.65625 99.398438 311.5 99 311.5 C 98.601563 311.5 98.21875 311.65625 97.9375 311.9375 C 97.65625 312.21875 97.5 312.601563 97.5 313 C 97.5 313.398438 97.65625 313.78125 97.9375 314.0625 C 98.21875 314.34375 98.601563 314.5 99 314.5 C 99.398438 314.5 99.78125 314.34375 100.0625 314.0625 C 100.34375 313.78125 100.5 313.398438 100.5 313 Z M 100.5 313 "/>
<path style=" stroke:none;fill-rule:evenodd;fill:rgb(99.998474%,0%,0%);fill-opacity:1;" d="M 96.5 294 C 96.5 293.601563 96.34375 293.21875 96.0625 292.9375 C 95.78125 292.65625 95.398438 292.5 95 292.5 C 94.601563 292.5 94.21875 292.65625 93.9375 292.9375 C 93.65625 293.21875 93.5 293.601563 93.5 294 C 93.5 294.398438 93.65625 294.78125 93.9375 295.0625 C 94.21875 295.34375 94.601563 295.5 95 295.5 C 95.398438 295.5 95.78125 295.34375 96.0625 295.0625 C 96.34375 294.78125 96.5 294.398438 96.5 294 Z M 96.5 294 "/>
<path style=" stroke:none;fill-rule:evenodd;fill:rgb(99.998474%,0%,0%);fill-opacity:1;" d="M 52.5 277 C 52.5 276.601563 52.34375 276.21875 52.0625 275.9375 C 51.78125 275.65625 51.398438 275.5 51 275.5 C 50.601563 275.5 50.21875 275.65625 49.9375 275.9375 C 49.65625 276.21875 49.5 276.601563 49.5 277 C 49.5 277.398438 49.65625 277.78125 49.9375 278.0625 C 50.21875 278.34375 50.601563 278.5 51 278.5 C 51.398438 278.5 51.78125 278.34375 52.0625 278.0625 C 52.34375 277.78125 52.5 277.398438 52.5 277 Z M 52.5 277 "/>
<path style=" stroke:none;fill-rule:evenodd;fill:rgb(99.998474%,0%,0%);fill-opacity:1;" d="M 92.5 259 C 92.5 258.601563 92.34375 258.21875 92.0625 257.9375 C 91.78125 257.65625 91.398438 257.5 91 257.5 C 90.601563 257.5 90.21875 257.65625 89.9375 257.9375 C 89.65625 258.21875 89.5 258.601563 89.5 259 C 89.5 259.398438 89.65625 259.78125 89.9375 260.0625 C 90.21875 260.34375 90.601563 260.5 91 260.5 C 91.398438 260.5 91.78125 260.34375 92.0625 260.0625 C 92.34375 259.78125 92.5 259.398438 92.5 259 Z M 92.5 259 "/>
<path style=" stroke:none;fill-rule:evenodd;fill:rgb(99.998474%,0%,0%);fill-opacity:1;" d="M 122.5 256 C 122.5 255.601563 122.34375 255.21875 122.0625 254.9375 C 121.78125 254.65625 121.398438 254.5 121 254.5 C 120.601563 254.5 120.21875 254.65625 119.9375 254.9375 C 119.65625 255.21875 119.5 255.601563 119.5 256 C 119.5 256.398438 119.65625 256.78125 119.9375 257.0625 C 120.21875 257.34375 120.601563 257.5 121 257.5 C 121.398438 257.5 121.78125 257.34375 122.0625 257.0625 C 122.34375 256.78125 122.5 256.398438 122.5 256 Z M 122.5 256 "/>
<path style=" stroke:none;fill-rule:evenodd;fill:rgb(99.998474%,0%,0%);fill-opacity:1;" d="M 89.5 256 C 89.5 255.601563 89.34375 255.21875 89.0625 254.9375 C 88.78125 254.65625 88.398438 254.5 88 254.5 C 87.601563 254.5 87.21875 254.65625 86.9375 254.9375 C 86.65625 255.21875 86.5 255.601563 86.5 256 C 86.5 256.398438 86.65625 256.78125 86.9375 257.0625 C 87.21875 257.34375 87.601563 257.5 88 257.5 C 88.398438 257.5 88.78125 257.34375 89.0625 257.0625 C 89.34375 256.78125 89.5 256.398438 89.5 256 Z M 89.5 256 "/>
<path style=" stroke:none;fill-rule:evenodd;fill:rgb(99.998474%,0%,0%);fill-opacity:1;" d="M 26.5 239 C 26.5 238.601563 26.34375 238.21875 26.0625 237.9375 C 25.78125 237.65625 25.398438 237.5 25 237.5 C 24.601563 237.5 24.21875 237.65625 23.9375 237.9375 C 23.65625 238.21875 23.5 238.601563 23.5 239 C 23.5 239.398438 23.65625 239.78125 23.9375 240.0625 C 24.21875 240.34375 24.601563 240.5 25 240.5 C 25.398438 240.5 25.78125 240.34375 26.0625 240.0625 C 26.34375 239.78125 26.5 239.398438 26.5 239 Z M 26.5 239 "/>
<path style=" stroke:none;fill-rule:evenodd;fill:rgb(99.998474%,0%,0%);fill-opacity:1;" d="M 226.5 162 C 226.5 161.601563 226.34375 161.21875 226.0625 160.9375 C 225.78125 160.65625 225.398438 160.5 225 160.5 C 224.601563 160.5 224.21875 160.65625 223.9375 160.9375 C 223.65625 161.21875 223.5 161.601563 223.5 162 C 223.5 162.398438 223.65625 162.78125 223.9375 163.0625 C 224.21875 163.34375 224.601563 163.5 225 163.5 C 225.398438 163.5 225.78125 163.34375 226.0625 163.0625 C 226.34375 162.78125 226.5 162.398438 226.5 162 Z M 226.5 162 "/>
<path style=" stroke:none;fill-rule:evenodd;fill:rgb(99.998474%,0%,0%);fill-opacity:1;" d="M 226.5 161 C 226.5 160.601563 226.34375 160.21875 226.0625 159.9375 C 225.78125 159.65625 225.398438 159.5 225 159.5 C 224.601563 159.5 224.21875 159.65625 223.9375 159.9375 C 223.65625 160.21875 223.5 160.601563 223.5 161 C 223.5 161.398438 223.65625 161.78125 223.9375 162.0625 C 224.21875 162.34375 224.601563 162.5 225 162.5 C 225.398438 162.5 225.78125 162.34375 226.0625 162.0625 C 226.34375 161.78125 226.5 161.398438 226.5 161 Z M 226.5 161 "/>
<path style=" stroke:none;fill-rule:evenodd;fill:rgb(99.998474%,0%,0%);fill-opacity:1;" d="M 98.5 157 C 98.5 156.601563 98.34375 156.21875 98.0625 155.9375 C 97.78125 155.65625 97.398438 155.5 97 155.5 C 96.601563 155.5 96.21875 155.65625 95.9375 155.9375 C 95.65625 156.21875 95.5 156.601563 95.5 157 C 95.5 157.398438 95.65625 157.78125 95.9375 158.0625 C 96.21875 158.34375 96.601563 158.5 97 158.5 C 97.398438 158.5 97.78125 158.34375 98.0625 158.0625 C 98.34375 157.78125 98.5 157.398438 98.5 157 Z M 98.5 157 "/>
<path style=" stroke:none;fill-rule:evenodd;fill:rgb(99.998474%,0%,0%);fill-opacity:1;" d="M 226.5 157 C 226.5 156.601563 226.34375 156.21875 226.0625 155.9375 C 225.78125 155.65625 225.398438 155.5 225 155.5 C 224.601563 155.5 224.21875 155.65625 223.9375 155.9375 C 223.65625 156.21875 223.5 156.601563 223.5 157 C 223.5 157.398438 223.65625 157.78125 223.9375 158.0625 C 224.21875 158.34375 224.601563 158.5 225 158.5 C 225.398438 158.5 225.78125 158.34375 226.0625 158.0625 C 226.34375 157.78125 226.5 157.398438 226.5 157 Z M 226.5 157 "/>
<path style=" stroke:none;fill-rule:evenodd;fill:rgb(99.998474%,0%,0%);fill-opacity:1;" d="M 226.5 156 C 226.5 155.601563 226.34375 155.21875 226.0625 154.9375 C 225.78125 154.65625 225.398438 154.5 225 154.5 C 224.601563 154.5 224.21875 154.65625 223.9375 154.9375 C 223.65625 155.21875 223.5 155.601563 223.5 156 C 223.5 156.398438 223.65625 156.78125 223.9375 157.0625 C 224.21875 157.34375 224.601563 157.5 225 157.5 C 225.398438 157.5 225.78125 157.34375 226.0625 157.0625 C 226.34375 156.78125 226.5 156.398438 226.5 156 Z M 226.5 156 "/>
<path style=" stroke:none;fill-rule:evenodd;fill:rgb(99.998474%,0%,0%);fill-opacity:1;" d="M 124.5 153 C 124.5 152.601563 124.34375 152.21875 124.0625 151.9375 C 123.78125 151.65625 123.398438 151.5 123 151.5 C 122.601563 151.5 122.21875 151.65625 121.9375 151.9375 C 121.65625 152.21875 121.5 152.601563 121.5 153 C 121.5 153.398438 121.65625 153.78125 121.9375 154.0625 C 122.21875 154.34375 122.601563 154.5 123 154.5 C 123.398438 154.5 123.78125 154.34375 124.0625 154.0625 C 124.34375 153.78125 124.5 153.398438 124.5 153 Z M 124.5 153 "/>
<path style=" stroke:none;fill-rule:evenodd;fill:rgb(99.998474%,0%,0%);fill-opacity:1;" d="M 124.5 152 C 124.5 151.601563 124.34375 151.21875 124.0625 150.9375 C 123.78125 150.65625 123.398438 150.5 123 150.5 C 122.601563 150.5 122.21875 150.65625 121.9375 150.9375 C 121.65625 151.21875 121.5 151.601563 121.5 152 C 121.5 152.398438 121.65625 152.78125 121.9375 153.0625 C 122.21875 153.34375 122.601563 153.5 123 153.5 C 123.398438 153.5 123.78125 153.34375 124.0625 153.0625 C 124.34375 152.78125 124.5 152.398438 124.5 152 Z M 124.5 152 "/>
<path style=" stroke:none;fill-rule:evenodd;fill:rgb(99.998474%,0%,0%);fill-opacity:1;" d="M 123.5 148 C 123.5 147.601563 123.34375 147.21875 123.0625 146.9375 C 122.78125 146.65625 122.398438 146.5 122 146.5 C 121.601563 146.5 121.21875 146.65625 120.9375 146.9375 C 120.65625 147.21875 120.5 147.601563 120.5 148 C 120.5 148.398438 120.65625 148.78125 120.9375 149.0625 C 121.21875 149.34375 121.601563 149.5 122 149.5 C 122.398438 149.5 122.78125 149.34375 123.0625 149.0625 C 123.34375 148.78125 123.5 148.398438 123.5 148 Z M 123.5 148 "/>
<path style=" stroke:none;fill-rule:evenodd;fill:rgb(99.998474%,0%,0%);fill-opacity:1;" d="M 125.5 147 C 125.5 146.601563 125.34375 146.21875 125.0625 145.9375 C 124.78125 145.65625 124.398438 145.5 124 145.5 C 123.601563 145.5 123.21875 145.65625 122.9375 145.9375 C 122.65625 146.21875 122.5 146.601563 122.5 147 C 122.5 147.398438 122.65625 147.78125 122.9375 148.0625 C 123.21875 148.34375 123.601563 148.5 124 148.5 C 124.398438 148.5 124.78125 148.34375 125.0625 148.0625 C 125.34375 147.78125 125.5 147.398438 125.5 147 Z M 125.5 147 "/>
<path style=" stroke:none;fill-rule:evenodd;fill:rgb(99.998474%,0%,0%);fill-opacity:1;" d="M 39.5 132 C 39.5 131.601563 39.34375 131.21875 39.0625 130.9375 C 38.78125 130.65625 38.398438 130.5 38 130.5 C 37.601563 130.5 37.21875 130.65625 36.9375 130.9375 C 36.65625 131.21875 36.5 131.601563 36.5 132 C 36.5 132.398438 36.65625 132.78125 36.9375 133.0625 C 37.21875 133.34375 37.601563 133.5 38 133.5 C 38.398438 133.5 38.78125 133.34375 39.0625 133.0625 C 39.34375 132.78125 39.5 132.398438 39.5 132 Z M 39.5 132 "/>
<path style=" stroke:none;fill-rule:evenodd;fill:rgb(99.998474%,0%,0%);fill-opacity:1;" d="M 37.5 131 C 37.5 130.601563 37.34375 130.21875 37.0625 129.9375 C 36.78125 129.65625 36.398438 129.5 36 129.5 C 35.601563 129.5 35.21875 129.65625 34.9375 129.9375 C 34.65625 130.21875 34.5 130.601563 34.5 131 C 34.5 131.398438 34.65625 131.78125 34.9375 132.0625 C 35.21875 132.34375 35.601563 132.5 36 132.5 C 36.398438 132.5 36.78125 132.34375 37.0625 132.0625 C 37.34375 131.78125 37.5 131.398438 37.5 131 Z M 37.5 131 "/>
<path style=" stroke:none;fill-rule:evenodd;fill:rgb(99.998474%,0%,0%);fill-opacity:1;" d="M 52.5 128 C 52.5 127.601563 52.34375 127.21875 52.0625 126.9375 C 51.78125 126.65625 51.398438 126.5 51 126.5 C 50.601563 126.5 50.21875 126.65625 49.9375 126.9375 C 49.65625 127.21875 49.5 127.601563 49.5 128 C 49.5 128.398438 49.65625 128.78125 49.9375 129.0625 C 50.21875 129.34375 50.601563 129.5 51 129.5 C 51.398438 129.5 51.78125 129.34375 52.0625 129.0625 C 52.34375 128.78125 52.5 128.398438 52.5 128 Z M 52.5 128 "/>
<path style=" stroke:none;fill-rule:evenodd;fill:rgb(99.998474%,0%,0%);fill-opacity:1;" d="M 34.5 125 C 34.5 124.601563 34.34375 124.21875 34.0625 123.9375 C 33.78125 123.65625 33.398438 123.5 33 123.5 C 32.601563 123.5 32.21875 123.65625 31.9375 123.9375 C 31.65625 124.21875 31.5 124.601563 31.5 125 C 31.5 125.398438 31.65625 125.78125 31.9375 126.0625 C 32.21875 126.34375 32.601563 126.5 33 126.5 C 33.398438 126.5 33.78125 126.34375 34.0625 126.0625 C 34.34375 125.78125 34.5 125.398438 34.5 125 Z M 34.5 125 "/>
<path style=" stroke:none;fill-rule:evenodd;fill:rgb(99.998474%,0%,0%);fill-opacity:1;" d="M 246.5 73 C 246.5 72.601563 246.34375 72.21875 246.0625 71.9375 C 245.78125 71.65625 245.398438 71.5 245 71.5 C 244.601563 71.5 244.21875 71.65625 243.9375 71.9375 C 243.65625 72.21875 243.5 72.601563 243.5 73 C 243.5 73.398438 243.65625 73.78125 243.9375 74.0625 C 244.21875 74.34375 244.601563 74.5 245 74.5 C 245.398438 74.5 245.78125 74.34375 246.0625 74.0625 C 246.34375 73.78125 246.5 73.398438 246.5 73 Z M 246.5 73 "/>
<path style=" stroke:none;fill-rule:evenodd;fill:rgb(99.998474%,0%,0%);fill-opacity:1;" d="M 248.5 72 C 248.5 71.601563 248.34375 71.21875 248.0625 70.9375 C 247.78125 70.65625 247.398438 70.5 247 70.5 C 246.601563 70.5 246.21875 70.65625 245.9375 70.9375 C 245.65625 71.21875 245.5 71.601563 245.5 72 C 245.5 72.398438 245.65625 72.78125 245.9375 73.0625 C 246.21875 73.34375 246.601563 73.5 247 73.5 C 247.398438 73.5 247.78125 73.34375 248.0625 73.0625 C 248.34375 72.78125 248.5 72.398438 248.5 72 Z M 248.5 72 "/>
<path style=" stroke:none;fill-rule:evenodd;fill:rgb(99.998474%,0%,0%);fill-opacity:1;" d="M 243.5 72 C 243.5 71.601563 243.34375 71.21875 243.0625 70.9375 C 242.78125 70.65625 242.398438 70.5 242 70.5 C 241.601563 70.5 241.21875 70.65625 240.9375 70.9375 C 240.65625 71.21875 240.5 71.601563 240.5 72 C 240.5 72.398438 240.65625 72.78125 240.9375 73.0625 C 241.21875 73.34375 241.601563 73.5 242 73.5 C 242.398438 73.5 242.78125 73.34375 243.0625 73.0625 C 243.34375 72.78125 243.5 72.398438 243.5 72 Z M 243.5 72 "/>
<path style=" stroke:none;fill-rule:evenodd;fill:rgb(99.998474%,0%,0%);fill-opacity:1;" d="M 329.5 58 C 329.5 57.601563 329.34375 57.21875 329.0625 56.9375 C 328.78125 56.65625 328.398438 56.5 328 56.5 C 327.601563 56.5 327.21875 56.65625 326.9375 56.9375 C 326.65625 57.21875 326.5 57.601563 326.5 58 C 326.5 58.398438 326.65625 58.78125 326.9375 59.0625 C 327.21875 59.34375 327.601563 59.5 328 59.5 C 328.398438 59.5 328.78125 59.34375 329.0625 59.0625 C 329.34375 58.78125 329.5 58.398438 329.5 58 Z M 329.5 58 "/>
<path style=" stroke:none;fill-rule:evenodd;fill:rgb(99.998474%,0%,0%);fill-opacity:1;" d="M 329.5 56 C 329.5 55.601563 329.34375 55.21875 329.0625 54.9375 C 328.78125 54.65625 328.398438 54.5 328 54.5 C 327.601563 54.5 327.21875 54.65625 326.9375 54.9375 C 326.65625 55.21875 326.5 55.601563 326.5 56 C 326.5 56.398438 326.65625 56.78125 326.9375 57.0625 C 327.21875 57.34375 327.601563 57.5 328 57.5 C 328.398438 57.5 328.78125 57.34375 329.0625 57.0625 C 329.34375 56.78125 329.5 56.398438 329.5 56 Z M 329.5 56 "/>
<path style=" stroke:none;fill-rule:evenodd;fill:rgb(99.998474%,0%,0%);fill-opacity:1;" d="M 180.5 21 C 180.5 20.601563 180.34375 20.21875 180.0625 19.9375 C 179.78125 19.65625 179.398438 19.5 179 19.5 C 178.601563 19.5 178.21875 19.65625 177.9375 19.9375 C 177.65625 20.21875 177.5 20.601563 177.5 21 C 177.5 21.398438 177.65625 21.78125 177.9375 22.0625 C 178.21875 22.34375 178.601563 22.5 179 22.5 C 179.398438 22.5 179.78125 22.34375 180.0625 22.0625 C 180.34375 21.78125 180.5 21.398438 180.5 21 Z M 180.5 21 "/>
<path style=" stroke:none;fill-rule:evenodd;fill:rgb(99.998474%,0%,0%);fill-opacity:1;" d="M 180.5 20 C 180.5 19.601563 180.34375 19.21875 180.0625 18.9375 C 179.78125 18.65625 179.398438 18.5 179 18.5 C 178.601563 18.5 178.21875 18.65625 177.9375 18.9375 C 177.65625 19.21875 177.5 19.601563 177.5 20 C 177.5 20.398438 177.65625 20.78125 177.9375 21.0625 C 178.21875 21.34375 178.601563 21.5 179 21.5 C 179.398438 21.5 179.78125 21.34375 180.0625 21.0625 C 180.34375 20.78125 180.5 20.398438 180.5 20 Z M 180.5 20 "/>
</g>
</svg>
