<?xml version="1.0" encoding="UTF-8"?>
<svg xmlns="http://www.w3.org/2000/svg" xmlns:xlink="http://www.w3.org/1999/xlink" width="360pt" height="359pt" viewBox="0 0 360 359" version="1.1">
<g id="surface148">
<path style="fill-rule:nonzero;fill:rgb(84.999084%,84.999084%,84.999084%);fill-opacity:0.6;stroke-width:1;stroke-linecap:square;stroke-linejoin:miter;stroke:rgb(50%,50%,50%);stroke-opacity:1;stroke-miterlimit:3.25;" d="M 237.851562 94.113281 L 349.472656 202.480469 L 332.242188 141.019531 Z M 237.851562 94.113281 " transform="matrix(1,0,0,1,-74,-13)"/>
<path style="fill-rule:nonzero;fill:rgb(84.999084%,84.999084%,84.999084%);fill-opacity:0.6;stroke-width:1;stroke-linecap:square;stroke-linejoin:miter;stroke:rgb(50%,50%,50%);stroke-opacity:1;stroke-miterlimit:3.25;" d="M 349.472656 202.480469 L 237.851562 94.113281 L 105.375 295.097656 Z M 349.472656 202.480469 " transform="matrix(1,0,0,1,-74,-13)"/>
<path style="fill-rule:nonzero;fill:rgb(84.999084%,84.999084%,84.999084%);fill-opacity:0.6;stroke-width:1;stroke-linecap:square;stroke-linejoin:miter;stroke:rgb(50%,50%,50%);stroke-opacity:1;stroke-miterlimit:3.25;" d="M 165.679688 97.984375 L 237.851562 94.113281 L 249.652344 33.976562 Z M 165.679688 97.984375 " transform="matrix(1,0,0,1,-74,-13)"/>
<path style="fill-rule:nonzero;fill:rgb(84.999084%,84.999084%,84.999084%);fill-opacity:0.6;stroke-width:1;stroke-linecap:square;stroke-linejoin:miter;stroke:rgb(50%,50%,50%);stroke-opacity:1;stroke-miterlimit:3.25;" d="M 237.851562 94.113281 L 165.679688 97.984375 L 105.375 295.097656 Z M 237.851562 94.113281 " transform="matrix(1,0,0,1,-74,-13)"/>
<path style="fill-rule:nonzero;fill:rgb(84.999084%,84.999084%,84.999084%);fill-opacity:0.6;stroke-width:1;stroke-linecap:square;stroke-linejoin:miter;stroke:rgb(50%,50%,50%);stroke-opacity:1;stroke-miterlimit:3.25;" d="M 374.039062 83.964844 L 249.652344 33.976562 L 237.851562 94.113281 Z M 374.039062 83.964844 " transform="matrix(1,0,0,1,-74,-13)"/>
<path style="fill-rule:nonzero;fill:rgb(84.999084%,84.999084%,84.999084%);fill-opacity:0.6;stroke-width:1;stroke-linecap:square;stroke-linejoin:miter;stroke:rgb(50%,50%,50%);stroke-opacity:1;stroke-miterlimit:3.25;" d="M 237.851562 94.113281 L 332.242188 141.019531 L 374.039062 83.964844 Z M 237.851562 94.113281 " transform="matrix(1,0,0,1,-74,-13)"/>
<path style="fill-rule:nonzero;fill:rgb(84.999084%,84.999084%,84.999084%);fill-opacity:0.6;stroke-width:1;stroke-linecap:square;stroke-linejoin:miter;stroke:rgb(50%,50%,50%);stroke-opacity:1;stroke-miterlimit:3.25;" d="M 337.144531 304.613281 L 402.300781 209.082031 L 349.472656 202.480469 Z M 337.144531 304.613281 " transform="matrix(1,0,0,1,-74,-13)"/>
<path style="fill-rule:nonzero;fill:rgb(84.999084%,84.999084%,84.999084%);fill-opacity:0.6;stroke-width:1;stroke-linecap:square;stroke-linejoin:miter;stroke:rgb(50%,50%,50%);stroke-opacity:1;stroke-miterlimit:3.25;" d="M 374.039062 83.964844 L 332.242188 141.019531 L 402.300781 209.082031 Z M 374.039062 83.964844 " transform="matrix(1,0,0,1,-74,-13)"/>
<path style="fill-rule:nonzero;fill:rgb(84.999084%,84.999084%,84.999084%);fill-opacity:0.6;stroke-width:1;stroke-linecap:square;stroke-linejoin:miter;stroke:rgb(50%,50%,50%);stroke-opacity:1;stroke-miterlimit:3.25;" d="M 374.039062 83.964844 L 402.300781 209.082031 L 389.761719 26.355469 Z M 374.039062 83.964844 " transform="matrix(1,0,0,1,-74,-13)"/>
<path style="fill-rule:nonzero;fill:rgb(84.999084%,84.999084%,84.999084%);fill-opacity:0.6;stroke-width:1;stroke-linecap:square;stroke-linejoin:miter;stroke:rgb(50%,50%,50%);stroke-opacity:1;stroke-miterlimit:3.25;" d="M 374.039062 83.964844 L 389.761719 26.355469 L 249.652344 33.976562 Z M 374.039062 83.964844 " transform="matrix(1,0,0,1,-74,-13)"/>
<path style="fill-rule:nonzero;fill:rgb(84.999084%,84.999084%,84.999084%);fill-opacity:0.6;stroke-width:1;stroke-linecap:square;stroke-linejoin:miter;stroke:rgb(50%,50%,50%);stroke-opacity:1;stroke-miterlimit:3.25;" d="M 402.300781 209.082031 L 332.242188 141.019531 L 349.472656 202.480469 Z M 402.300781 209.082031 " transform="matrix(1,0,0,1,-74,-13)"/>
<path style="fill-rule:nonzero;fill:rgb(84.999084%,84.999084%,84.999084%);fill-opacity:0.6;stroke-width:1;stroke-linecap:square;stroke-linejoin:miter;stroke:rgb(50%,50%,50%);stroke-opacity:1;stroke-miterlimit:3.25;" d="M 337.144531 304.613281 L 349.472656 202.480469 L 105.375 295.097656 Z M 337.144531 304.613281 " transform="matrix(1,0,0,1,-74,-13)"/>
<path style=" stroke:none;fill-rule:evenodd;fill:rgb(99.998474%,0%,0%);fill-opacity:1;" d="M 264.789062 292 C 264.789062 291.523438 264.601562 291.070312 264.265625 290.734375 C 263.929688 290.398438 263.476562 290.210938 263 290.210938 C 262.523438 290.210938 262.070312 290.398438 261.734375 290.734375 C 261.398438 291.070312 261.210938 291.523438 261.210938 292 C 261.210938 292.476562 261.398438 292.929688 261.734375 293.265625 C 262.070312 293.601562 262.523438 293.789062 263 293.789062 C 263.476562 293.789062 263.929688 293.601562 264.265625 293.265625 C 264.601562 292.929688 264.789062 292.476562 264.789062 292 Z M 264.789062 292 "/>
<path style=" stroke:none;fill-rule:evenodd;fill:rgb(99.998474%,0%,0%);fill-opacity:1;" d="M 32.789062 282 C 32.789062 281.523438 32.601562 281.070312 32.265625 280.734375 C 31.929688 280.398438 31.476562 280.210938 31 280.210938 C 30.523438 280.210938 30.070312 280.398438 29.734375 280.734375 C 29.398438 281.070312 29.210938 281.523438 29.210938 282 C 29.210938 282.476562 29.398438 282.929688 29.734375 283.265625 C 30.070312 283.601562 30.523438 283.789062 31 283.789062 C 31.476562 283.789062 31.929688 283.601562 32.265625 283.265625 C 32.601562 282.929688 32.789062 282.476562 32.789062 282 Z M 32.789062 282 "/>
<path style=" stroke:none;fill-rule:evenodd;fill:rgb(99.998474%,0%,0%);fill-opacity:1;" d="M 329.789062 196 C 329.789062 195.523438 329.601562 195.070312 329.265625 194.734375 C 328.929688 194.398438 328.476562 194.210938 328 194.210938 C 327.523438 194.210938 327.070312 194.398438 326.734375 194.734375 C 326.398438 195.070312 326.210938 195.523438 326.210938 196 C 326.210938 196.476562 326.398438 196.929688 326.734375 197.265625 C 327.070312 197.601562 327.523438 197.789062 328 197.789062 C 328.476562 197.789062 328.929688 197.601562 329.265625 197.265625 C 329.601562 196.929688 329.789062 196.476562 329.789062 196 Z M 329.789062 196 "/>
<path style=" stroke:none;fill-rule:evenodd;fill:rgb(99.998474%,0%,0%);fill-opacity:1;" d="M 276.789062 189 C 276.789062 188.523438 276.601562 188.070312 276.265625 187.734375 C 275.929688 187.398438 275.476562 187.210938 275 187.210938 C 274.523438 187.210938 274.070312 187.398438 273.734375 187.734375 C 273.398438 188.070312 273.210938 188.523438 273.210938 189 C 273.210938 189.476562 273.398438 189.929688 273.734375 190.265625 C 274.070312 190.601562 274.523438 190.789062 275 190.789062 C 275.476562 190.789062 275.929688 190.601562 276.265625 190.265625 C 276.601562 189.929688 276.789062 189.476562 276.789062 189 Z M 276.789062 189 "/>
<path style=" stroke:none;fill-rule:evenodd;fill:rgb(99.998474%,0%,0%);fill-opacity:1;" d="M 259.789062 128 C 259.789062 127.523438 259.601562 127.070312 259.265625 126.734375 C 258.929688 126.398438 258.476562 126.210938 258 126.210938 C 257.523438 126.210938 257.070312 126.398438 256.734375 126.734375 C 256.398438 127.070312 256.210938 127.523438 256.210938 128 C 256.210938 128.476562 256.398438 128.929688 256.734375 129.265625 C 257.070312 129.601562 257.523438 129.789062 258 129.789062 C 258.476562 129.789062 258.929688 129.601562 259.265625 129.265625 C 259.601562 128.929688 259.789062 128.476562 259.789062 128 Z M 259.789062 128 "/>
<path style=" stroke:none;fill-rule:evenodd;fill:rgb(99.998474%,0%,0%);fill-opacity:1;" d="M 93.789062 85 C 93.789062 84.523438 93.601562 84.070312 93.265625 83.734375 C 92.929688 83.398438 92.476562 83.210938 92 83.210938 C 91.523438 83.210938 91.070312 83.398438 90.734375 83.734375 C 90.398438 84.070312 90.210938 84.523438 90.210938 85 C 90.210938 85.476562 90.398438 85.929688 90.734375 86.265625 C 91.070312 86.601562 91.523438 86.789062 92 86.789062 C 92.476562 86.789062 92.929688 86.601562 93.265625 86.265625 C 93.601562 85.929688 93.789062 85.476562 93.789062 85 Z M 93.789062 85 "/>
<path style=" stroke:none;fill-rule:evenodd;fill:rgb(99.998474%,0%,0%);fill-opacity:1;" d="M 165.789062 81 C 165.789062 80.523438 165.601562 80.070312 165.265625 79.734375 C 164.929688 79.398438 164.476562 79.210938 164 79.210938 C 163.523438 79.210938 163.070312 79.398438 162.734375 79.734375 C 162.398438 80.070312 162.210938 80.523438 162.210938 81 C 162.210938 81.476562 162.398438 81.929688 162.734375 82.265625 C 163.070312 82.601562 163.523438 82.789062 164 82.789062 C 164.476562 82.789062 164.929688 82.601562 165.265625 82.265625 C 165.601562 81.929688 165.789062 81.476562 165.789062 81 Z M 165.789062 81 "/>
<path style=" stroke:none;fill-rule:evenodd;fill:rgb(99.998474%,0%,0%);fill-opacity:1;" d="M 301.789062 71 C 301.789062 70.523438 301.601562 70.070312 301.265625 69.734375 C 300.929688 69.398438 300.476562 69.210938 300 69.210938 C 299.523438 69.210938 299.070312 69.398438 298.734375 69.734375 C 298.398438 70.070312 298.210938 70.523438 298.210938 71 C 298.210938 71.476562 298.398438 71.929688 298.734375 72.265625 C 299.070312 72.601562 299.523438 72.789062 300 72.789062 C 300.476562 72.789062 300.929688 72.601562 301.265625 72.265625 C 301.601562 71.929688 301.789062 71.476562 301.789062 71 Z M 301.789062 71 "/>
<path style=" stroke:none;fill-rule:evenodd;fill:rgb(99.998474%,0%,0%);fill-opacity:1;" d="M 177.789062 21 C 177.789062 20.523438 177.601562 20.070312 177.265625 19.734375 C 176.929688 19.398438 176.476562 19.210938 176 19.210938 C 175.523438 19.210938 175.070312 19.398438 174.734375 19.734375 C 174.398438 20.070312 174.210938 20.523438 174.210938 21 C 174.210938 21.476562 174.398438 21.929688 174.734375 22.265625 C 175.070312 22.601562 175.523438 22.789062 176 22.789062 C 176.476562 22.789062 176.929688 22.601562 177.265625 22.265625 C 177.601562 21.929688 177.789062 21.476562 177.789062 21 Z M 177.789062 21 "/>
<path style=" stroke:none;fill-rule:evenodd;fill:rgb(99.998474%,0%,0%);fill-opacity:1;" d="M 317.789062 13 C 317.789062 12.523438 317.601562 12.070312 317.265625 11.734375 C 316.929688 11.398438 316.476562 11.210938 316 11.210938 C 315.523438 11.210938 315.070312 11.398438 314.734375 11.734375 C 314.398438 12.070312 314.210938 12.523438 314.210938 13 C 314.210938 13.476562 314.398438 13.929688 314.734375 14.265625 C 315.070312 14.601562 315.523438 14.789062 316 14.789062 C 316.476562 14.789062 316.929688 14.601562 317.265625 14.265625 C 317.601562 13.929688 317.789062 13.476562 317.789062 13 Z M 317.789062 13 "/>
<path style=" stroke:none;fill-rule:evenodd;fill:rgb(99.998474%,0%,0%);fill-opacity:1;" d="M 264.5 292 C 264.5 291.601562 264.34375 291.21875 264.0625 290.9375 C 263.78125 290.65625 263.398438 290.5 263 290.5 C 262.601562 290.5 262.21875 290.65625 261.9375 290.9375 C 261.65625 291.21875 261.5 291.601562 261.5 292 C 261.5 292.398438 261.65625 292.78125 261.9375 293.0625 C 262.21875 293.34375 262.601562 293.5 263 293.5 C 263.398438 293.5 263.78125 293.34375 264.0625 293.0625 C 264.34375 292.78125 264.5 292.398438 264.5 292 Z M 264.5 292 "/>
<path style=" stroke:none;fill-rule:evenodd;fill:rgb(99.998474%,0%,0%);fill-opacity:1;" d="M 32.5 282 C 32.5 281.601562 32.34375 281.21875 32.0625 280.9375 C 31.78125 280.65625 31.398438 280.5 31 280.5 C 30.601562 280.5 30.21875 280.65625 29.9375 280.9375 C 29.65625 281.21875 29.5 281.601562 29.5 282 C 29.5 282.398438 29.65625 282.78125 29.9375 283.0625 C 30.21875 283.34375 30.601562 283.5 31 283.5 C 31.398438 283.5 31.78125 283.34375 32.0625 283.0625 C 32.34375 282.78125 32.5 282.398438 32.5 282 Z M 32.5 282 "/>
<path style=" stroke:none;fill-rule:evenodd;fill:rgb(99.998474%,0%,0%);fill-opacity:1;" d="M 329.5 196 C 329.5 195.601562 329.34375 195.21875 329.0625 194.9375 C 328.78125 194.65625 328.398438 194.5 328 194.5 C 327.601562 194.5 327.21875 194.65625 326.9375 194.9375 C 326.65625 195.21875 326.5 195.601562 326.5 196 C 326.5 196.398438 326.65625 196.78125 326.9375 197.0625 C 327.21875 197.34375 327.601562 197.5 328 197.5 C 328.398438 197.5 328.78125 197.34375 329.0625 197.0625 C 329.34375 196.78125 329.5 196.398438 329.5 196 Z M 329.5 196 "/>
<path style=" stroke:none;fill-rule:evenodd;fill:rgb(99.998474%,0%,0%);fill-opacity:1;" d="M 276.5 189 C 276.5 188.601562 276.34375 188.21875 276.0625 187.9375 C 275.78125 187.65625 275.398438 187.5 275 187.5 C 274.601562 187.5 274.21875 187.65625 273.9375 187.9375 C 273.65625 188.21875 273.5 188.601562 273.5 189 C 273.5 189.398438 273.65625 189.78125 273.9375 190.0625 C 274.21875 190.34375 274.601562 190.5 275 190.5 C 275.398438 190.5 275.78125 190.34375 276.0625 190.0625 C 276.34375 189.78125 276.5 189.398438 276.5 189 Z M 276.5 189 "/>
<path style=" stroke:none;fill-rule:evenodd;fill:rgb(99.998474%,0%,0%);fill-opacity:1;" d="M 259.5 128 C 259.5 127.601562 259.34375 127.21875 259.0625 126.9375 C 258.78125 126.65625 258.398438 126.5 258 126.5 C 257.601562 126.5 257.21875 126.65625 256.9375 126.9375 C 256.65625 127.21875 256.5 127.601562 256.5 128 C 256.5 128.398438 256.65625 128.78125 256.9375 129.0625 C 257.21875 129.34375 257.601562 129.5 258 129.5 C 258.398438 129.5 258.78125 129.34375 259.0625 129.0625 C 259.34375 128.78125 259.5 128.398438 259.5 128 Z M 259.5 128 "/>
<path style=" stroke:none;fill-rule:evenodd;fill:rgb(99.998474%,0%,0%);fill-opacity:1;" d="M 93.5 85 C 93.5 84.601562 93.34375 84.21875 93.0625 83.9375 C 92.78125 83.65625 92.398438 83.5 92 83.5 C 91.601562 83.5 91.21875 83.65625 90.9375 83.9375 C 90.65625 84.21875 90.5 84.601562 90.5 85 C 90.5 85.398438 90.65625 85.78125 90.9375 86.0625 C 91.21875 86.34375 91.601562 86.5 92 86.5 C 92.398438 86.5 92.78125 86.34375 93.0625 86.0625 C 93.34375 85.78125 93.5 85.398438 93.5 85 Z M 93.5 85 "/>
<path style=" stroke:none;fill-rule:evenodd;fill:rgb(99.998474%,0%,0%);fill-opacity:1;" d="M 165.5 81 C 165.5 80.601562 165.34375 80.21875 165.0625 79.9375 C 164.78125 79.65625 164.398438 79.5 164 79.5 C 163.601562 79.5 163.21875 79.65625 162.9375 79.9375 C 162.65625 80.21875 162.5 80.601562 162.5 81 C 162.5 81.398438 162.65625 81.78125 162.9375 82.0625 C 163.21875 82.34375 163.601562 82.5 164 82.5 C 164.398438 82.5 164.78125 82.34375 165.0625 82.0625 C 165.34375 81.78125 165.5 81.398438 165.5 81 Z M 165.5 81 "/>
<path style=" stroke:none;fill-rule:evenodd;fill:rgb(99.998474%,0%,0%);fill-opacity:1;" d="M 301.5 71 C 301.5 70.601562 301.34375 70.21875 301.0625 69.9375 C 300.78125 69.65625 300.398438 69.5 300 69.5 C 299.601562 69.5 299.21875 69.65625 298.9375 69.9375 C 298.65625 70.21875 298.5 70.601562 298.5 71 C 298.5 71.398438 298.65625 71.78125 298.9375 72.0625 C 299.21875 72.34375 299.601562 72.5 300 72.5 C 300.398438 72.5 300.78125 72.34375 301.0625 72.0625 C 301.34375 71.78125 301.5 71.398438 301.5 71 Z M 301.5 71 "/>
<path style=" stroke:none;fill-rule:evenodd;fill:rgb(99.998474%,0%,0%);fill-opacity:1;" d="M 177.5 21 C 177.5 20.601562 177.34375 20.21875 177.0625 19.9375 C 176.78125 19.65625 176.398438 19.5 176 19.5 C 175.601562 19.5 175.21875 19.65625 174.9375 19.9375 C 174.65625 20.21875 174.5 20.601562 174.5 21 C 174.5 21.398438 174.65625 21.78125 174.9375 22.0625 C 175.21875 22.34375 175.601562 22.5 176 22.5 C 176.398438 22.5 176.78125 22.34375 177.0625 22.0625 C 177.34375 21.78125 177.5 21.398438 177.5 21 Z M 177.5 21 "/>
<path style=" stroke:none;fill-rule:evenodd;fill:rgb(99.998474%,0%,0%);fill-opacity:1;" d="M 317.5 13 C 317.5 12.601562 317.34375 12.21875 317.0625 11.9375 C 316.78125 11.65625 316.398438 11.5 316 11.5 C 315.601562 11.5 315.21875 11.65625 314.9375 11.9375 C 314.65625 12.21875 314.5 12.601562 314.5 13 C 314.5 13.398438 314.65625 13.78125 314.9375 14.0625 C 315.21875 14.34375 315.601562 14.5 316 14.5 C 316.398438 14.5 316.78125 14.34375 317.0625 14.0625 C 317.34375 13.78125 317.5 13.398438 317.5 13 Z M 317.5 13 "/>
</g>
</svg>
