<?xml version="1.0" encoding="UTF-8"?>
<svg xmlns="http://www.w3.org/2000/svg" xmlns:xlink="http://www.w3.org/1999/xlink" width="360pt" height="359pt" viewBox="0 0 360 359" version="1.1">
<g id="surface152">
<path style="fill-rule:nonzero;fill:rgb(84.999084%,84.999084%,84.999084%);fill-opacity:0.6;stroke-width:1;stroke-linecap:square;stroke-linejoin:miter;stroke:rgb(50%,50%,50%);stroke-opacity:1;stroke-miterlimit:3.25;" d="M 104.984375 295.902344 L 105.273438 295.199219 L 90.1875 289.363281 Z M 104.984375 295.902344 " transform="matrix(1,0,0,1,-74,-13)"/>
<path style="fill-rule:nonzero;fill:rgb(84.999084%,84.999084%,84.999084%);fill-opacity:0.6;stroke-width:1;stroke-linecap:square;stroke-linejoin:miter;stroke:rgb(50%,50%,50%);stroke-opacity:1;stroke-miterlimit:3.25;" d="M 105.273438 295.199219 L 104.984375 295.902344 L 172.558594 345.472656 Z M 105.273438 295.199219 " transform="matrix(1,0,0,1,-74,-13)"/>
<path style="fill-rule:nonzero;fill:rgb(84.999084%,84.999084%,84.999084%);fill-opacity:0.6;stroke-width:1;stroke-linecap:square;stroke-linejoin:miter;stroke:rgb(50%,50%,50%);stroke-opacity:1;stroke-miterlimit:3.25;" d="M 104.984375 295.902344 L 90.1875 289.363281 L 88.15625 291.867188 Z M 104.984375 295.902344 " transform="matrix(1,0,0,1,-74,-13)"/>
<path style="fill-rule:nonzero;fill:rgb(84.999084%,84.999084%,84.999084%);fill-opacity:0.6;stroke-width:1;stroke-linecap:square;stroke-linejoin:miter;stroke:rgb(50%,50%,50%);stroke-opacity:1;stroke-miterlimit:3.25;" d="M 90.1875 289.363281 L 105.273438 295.199219 L 105.109375 287.925781 Z M 90.1875 289.363281 " transform="matrix(1,0,0,1,-74,-13)"/>
<path style="fill-rule:nonzero;fill:rgb(84.999084%,84.999084%,84.999084%);fill-opacity:0.6;stroke-width:1;stroke-linecap:square;stroke-linejoin:miter;stroke:rgb(50%,50%,50%);stroke-opacity:1;stroke-miterlimit:3.25;" d="M 170.136719 138.480469 L 90.1875 289.363281 L 105.109375 287.925781 Z M 170.136719 138.480469 " transform="matrix(1,0,0,1,-74,-13)"/>
<path style="fill-rule:nonzero;fill:rgb(84.999084%,84.999084%,84.999084%);fill-opacity:0.6;stroke-width:1;stroke-linecap:square;stroke-linejoin:miter;stroke:rgb(50%,50%,50%);stroke-opacity:1;stroke-miterlimit:3.25;" d="M 88.15625 291.867188 L 90.1875 289.363281 L 170.136719 138.480469 Z M 88.15625 291.867188 " transform="matrix(1,0,0,1,-74,-13)"/>
<path style="fill-rule:nonzero;fill:rgb(84.999084%,84.999084%,84.999084%);fill-opacity:0.6;stroke-width:1;stroke-linecap:square;stroke-linejoin:miter;stroke:rgb(50%,50%,50%);stroke-opacity:1;stroke-miterlimit:3.25;" d="M 105.273438 295.199219 L 106.128906 290.027344 L 105.109375 287.925781 Z M 105.273438 295.199219 " transform="matrix(1,0,0,1,-74,-13)"/>
<path style="fill-rule:nonzero;fill:rgb(84.999084%,84.999084%,84.999084%);fill-opacity:0.6;stroke-width:1;stroke-linecap:square;stroke-linejoin:miter;stroke:rgb(50%,50%,50%);stroke-opacity:1;stroke-miterlimit:3.25;" d="M 104.984375 295.902344 L 88.15625 291.867188 L 172.558594 345.472656 Z M 104.984375 295.902344 " transform="matrix(1,0,0,1,-74,-13)"/>
<path style="fill-rule:nonzero;fill:rgb(84.999084%,84.999084%,84.999084%);fill-opacity:0.6;stroke-width:1;stroke-linecap:square;stroke-linejoin:miter;stroke:rgb(50%,50%,50%);stroke-opacity:1;stroke-miterlimit:3.25;" d="M 172.558594 345.472656 L 235.101562 317.414062 L 106.128906 290.027344 Z M 172.558594 345.472656 " transform="matrix(1,0,0,1,-74,-13)"/>
<path style="fill-rule:nonzero;fill:rgb(84.999084%,84.999084%,84.999084%);fill-opacity:0.6;stroke-width:1;stroke-linecap:square;stroke-linejoin:miter;stroke:rgb(50%,50%,50%);stroke-opacity:1;stroke-miterlimit:3.25;" d="M 235.101562 317.414062 L 172.558594 345.472656 L 340.566406 359.804688 Z M 235.101562 317.414062 " transform="matrix(1,0,0,1,-74,-13)"/>
<path style="fill-rule:nonzero;fill:rgb(84.999084%,84.999084%,84.999084%);fill-opacity:0.6;stroke-width:1;stroke-linecap:square;stroke-linejoin:miter;stroke:rgb(50%,50%,50%);stroke-opacity:1;stroke-miterlimit:3.25;" d="M 235.101562 317.414062 L 253.546875 265.101562 L 106.128906 290.027344 Z M 235.101562 317.414062 " transform="matrix(1,0,0,1,-74,-13)"/>
<path style="fill-rule:nonzero;fill:rgb(84.999084%,84.999084%,84.999084%);fill-opacity:0.6;stroke-width:1;stroke-linecap:square;stroke-linejoin:miter;stroke:rgb(50%,50%,50%);stroke-opacity:1;stroke-miterlimit:3.25;" d="M 253.546875 265.101562 L 235.101562 317.414062 L 255.558594 269.726562 Z M 253.546875 265.101562 " transform="matrix(1,0,0,1,-74,-13)"/>
<path style="fill-rule:nonzero;fill:rgb(84.999084%,84.999084%,84.999084%);fill-opacity:0.6;stroke-width:1;stroke-linecap:square;stroke-linejoin:miter;stroke:rgb(50%,50%,50%);stroke-opacity:1;stroke-miterlimit:3.25;" d="M 253.546875 265.101562 L 335.410156 252.285156 L 298.390625 171.675781 Z M 253.546875 265.101562 " transform="matrix(1,0,0,1,-74,-13)"/>
<path style="fill-rule:nonzero;fill:rgb(84.999084%,84.999084%,84.999084%);fill-opacity:0.6;stroke-width:1;stroke-linecap:square;stroke-linejoin:miter;stroke:rgb(50%,50%,50%);stroke-opacity:1;stroke-miterlimit:3.25;" d="M 106.128906 290.027344 L 253.546875 265.101562 L 105.109375 287.925781 Z M 106.128906 290.027344 " transform="matrix(1,0,0,1,-74,-13)"/>
<path style="fill-rule:nonzero;fill:rgb(84.999084%,84.999084%,84.999084%);fill-opacity:0.6;stroke-width:1;stroke-linecap:square;stroke-linejoin:miter;stroke:rgb(50%,50%,50%);stroke-opacity:1;stroke-miterlimit:3.25;" d="M 335.410156 252.285156 L 253.546875 265.101562 L 255.558594 269.726562 Z M 335.410156 252.285156 " transform="matrix(1,0,0,1,-74,-13)"/>
<path style="fill-rule:nonzero;fill:rgb(84.999084%,84.999084%,84.999084%);fill-opacity:0.6;stroke-width:1;stroke-linecap:square;stroke-linejoin:miter;stroke:rgb(50%,50%,50%);stroke-opacity:1;stroke-miterlimit:3.25;" d="M 172.558594 345.472656 L 106.128906 290.027344 L 105.273438 295.199219 Z M 172.558594 345.472656 " transform="matrix(1,0,0,1,-74,-13)"/>
<path style="fill-rule:nonzero;fill:rgb(84.999084%,84.999084%,84.999084%);fill-opacity:0.6;stroke-width:1;stroke-linecap:square;stroke-linejoin:miter;stroke:rgb(50%,50%,50%);stroke-opacity:1;stroke-miterlimit:3.25;" d="M 170.136719 138.480469 L 105.109375 287.925781 L 253.546875 265.101562 Z M 170.136719 138.480469 " transform="matrix(1,0,0,1,-74,-13)"/>
<path style="fill-rule:nonzero;fill:rgb(84.999084%,84.999084%,84.999084%);fill-opacity:0.6;stroke-width:1;stroke-linecap:square;stroke-linejoin:miter;stroke:rgb(50%,50%,50%);stroke-opacity:1;stroke-miterlimit:3.25;" d="M 170.136719 138.480469 L 235.027344 94.28125 L 249.753906 34.308594 Z M 170.136719 138.480469 " transform="matrix(1,0,0,1,-74,-13)"/>
<path style="fill-rule:nonzero;fill:rgb(84.999084%,84.999084%,84.999084%);fill-opacity:0.6;stroke-width:1;stroke-linecap:square;stroke-linejoin:miter;stroke:rgb(50%,50%,50%);stroke-opacity:1;stroke-miterlimit:3.25;" d="M 239.25 93.929688 L 235.027344 94.28125 L 298.390625 171.675781 Z M 239.25 93.929688 " transform="matrix(1,0,0,1,-74,-13)"/>
<path style="fill-rule:nonzero;fill:rgb(84.999084%,84.999084%,84.999084%);fill-opacity:0.6;stroke-width:1;stroke-linecap:square;stroke-linejoin:miter;stroke:rgb(50%,50%,50%);stroke-opacity:1;stroke-miterlimit:3.25;" d="M 237.773438 93.863281 L 239.25 93.929688 L 239.671875 92.488281 Z M 237.773438 93.863281 " transform="matrix(1,0,0,1,-74,-13)"/>
<path style="fill-rule:nonzero;fill:rgb(84.999084%,84.999084%,84.999084%);fill-opacity:0.6;stroke-width:1;stroke-linecap:square;stroke-linejoin:miter;stroke:rgb(50%,50%,50%);stroke-opacity:1;stroke-miterlimit:3.25;" d="M 239.25 93.929688 L 237.773438 93.863281 L 235.027344 94.28125 Z M 239.25 93.929688 " transform="matrix(1,0,0,1,-74,-13)"/>
<path style="fill-rule:nonzero;fill:rgb(84.999084%,84.999084%,84.999084%);fill-opacity:0.6;stroke-width:1;stroke-linecap:square;stroke-linejoin:miter;stroke:rgb(50%,50%,50%);stroke-opacity:1;stroke-miterlimit:3.25;" d="M 332.214844 141.011719 L 239.671875 92.488281 L 239.25 93.929688 Z M 332.214844 141.011719 " transform="matrix(1,0,0,1,-74,-13)"/>
<path style="fill-rule:nonzero;fill:rgb(84.999084%,84.999084%,84.999084%);fill-opacity:0.6;stroke-width:1;stroke-linecap:square;stroke-linejoin:miter;stroke:rgb(50%,50%,50%);stroke-opacity:1;stroke-miterlimit:3.25;" d="M 237.773438 93.863281 L 239.671875 92.488281 L 235.027344 94.28125 Z M 237.773438 93.863281 " transform="matrix(1,0,0,1,-74,-13)"/>
<path style="fill-rule:nonzero;fill:rgb(84.999084%,84.999084%,84.999084%);fill-opacity:0.6;stroke-width:1;stroke-linecap:square;stroke-linejoin:miter;stroke:rgb(50%,50%,50%);stroke-opacity:1;stroke-miterlimit:3.25;" d="M 235.027344 94.28125 L 170.136719 138.480469 L 298.390625 171.675781 Z M 235.027344 94.28125 " transform="matrix(1,0,0,1,-74,-13)"/>
<path style="fill-rule:nonzero;fill:rgb(84.999084%,84.999084%,84.999084%);fill-opacity:0.6;stroke-width:1;stroke-linecap:square;stroke-linejoin:miter;stroke:rgb(50%,50%,50%);stroke-opacity:1;stroke-miterlimit:3.25;" d="M 235.027344 94.28125 L 239.671875 92.488281 L 249.753906 34.308594 Z M 235.027344 94.28125 " transform="matrix(1,0,0,1,-74,-13)"/>
<path style="fill-rule:nonzero;fill:rgb(84.999084%,84.999084%,84.999084%);fill-opacity:0.6;stroke-width:1;stroke-linecap:square;stroke-linejoin:miter;stroke:rgb(50%,50%,50%);stroke-opacity:1;stroke-miterlimit:3.25;" d="M 298.390625 171.675781 L 299.105469 171.683594 L 299.421875 171.601562 Z M 298.390625 171.675781 " transform="matrix(1,0,0,1,-74,-13)"/>
<path style="fill-rule:nonzero;fill:rgb(84.999084%,84.999084%,84.999084%);fill-opacity:0.6;stroke-width:1;stroke-linecap:square;stroke-linejoin:miter;stroke:rgb(50%,50%,50%);stroke-opacity:1;stroke-miterlimit:3.25;" d="M 335.410156 252.285156 L 299.105469 171.683594 L 298.390625 171.675781 Z M 335.410156 252.285156 " transform="matrix(1,0,0,1,-74,-13)"/>
<path style="fill-rule:nonzero;fill:rgb(84.999084%,84.999084%,84.999084%);fill-opacity:0.6;stroke-width:1;stroke-linecap:square;stroke-linejoin:miter;stroke:rgb(50%,50%,50%);stroke-opacity:1;stroke-miterlimit:3.25;" d="M 346.445312 204.578125 L 299.421875 171.601562 L 299.105469 171.683594 Z M 346.445312 204.578125 " transform="matrix(1,0,0,1,-74,-13)"/>
<path style="fill-rule:nonzero;fill:rgb(84.999084%,84.999084%,84.999084%);fill-opacity:0.6;stroke-width:1;stroke-linecap:square;stroke-linejoin:miter;stroke:rgb(50%,50%,50%);stroke-opacity:1;stroke-miterlimit:3.25;" d="M 298.390625 171.675781 L 299.421875 171.601562 L 304.566406 168.757812 Z M 298.390625 171.675781 " transform="matrix(1,0,0,1,-74,-13)"/>
<path style="fill-rule:nonzero;fill:rgb(84.999084%,84.999084%,84.999084%);fill-opacity:0.6;stroke-width:1;stroke-linecap:square;stroke-linejoin:miter;stroke:rgb(50%,50%,50%);stroke-opacity:1;stroke-miterlimit:3.25;" d="M 250.828125 31.269531 L 249.753906 34.308594 L 374.035156 83.957031 Z M 250.828125 31.269531 " transform="matrix(1,0,0,1,-74,-13)"/>
<path style="fill-rule:nonzero;fill:rgb(84.999084%,84.999084%,84.999084%);fill-opacity:0.6;stroke-width:1;stroke-linecap:square;stroke-linejoin:miter;stroke:rgb(50%,50%,50%);stroke-opacity:1;stroke-miterlimit:3.25;" d="M 374.035156 83.957031 L 249.753906 34.308594 L 239.671875 92.488281 Z M 374.035156 83.957031 " transform="matrix(1,0,0,1,-74,-13)"/>
<path style="fill-rule:nonzero;fill:rgb(84.999084%,84.999084%,84.999084%);fill-opacity:0.6;stroke-width:1;stroke-linecap:square;stroke-linejoin:miter;stroke:rgb(50%,50%,50%);stroke-opacity:1;stroke-miterlimit:3.25;" d="M 239.25 93.929688 L 304.566406 168.757812 L 332.214844 141.011719 Z M 239.25 93.929688 " transform="matrix(1,0,0,1,-74,-13)"/>
<path style="fill-rule:nonzero;fill:rgb(84.999084%,84.999084%,84.999084%);fill-opacity:0.6;stroke-width:1;stroke-linecap:square;stroke-linejoin:miter;stroke:rgb(50%,50%,50%);stroke-opacity:1;stroke-miterlimit:3.25;" d="M 249.753906 34.308594 L 250.828125 31.269531 L 170.136719 138.480469 Z M 249.753906 34.308594 " transform="matrix(1,0,0,1,-74,-13)"/>
<path style="fill-rule:nonzero;fill:rgb(84.999084%,84.999084%,84.999084%);fill-opacity:0.6;stroke-width:1;stroke-linecap:square;stroke-linejoin:miter;stroke:rgb(50%,50%,50%);stroke-opacity:1;stroke-miterlimit:3.25;" d="M 304.566406 168.757812 L 299.421875 171.601562 L 346.445312 204.578125 Z M 304.566406 168.757812 " transform="matrix(1,0,0,1,-74,-13)"/>
<path style="fill-rule:nonzero;fill:rgb(84.999084%,84.999084%,84.999084%);fill-opacity:0.6;stroke-width:1;stroke-linecap:square;stroke-linejoin:miter;stroke:rgb(50%,50%,50%);stroke-opacity:1;stroke-miterlimit:3.25;" d="M 304.566406 168.757812 L 239.25 93.929688 L 298.390625 171.675781 Z M 304.566406 168.757812 " transform="matrix(1,0,0,1,-74,-13)"/>
<path style="fill-rule:nonzero;fill:rgb(84.999084%,84.999084%,84.999084%);fill-opacity:0.6;stroke-width:1;stroke-linecap:square;stroke-linejoin:miter;stroke:rgb(50%,50%,50%);stroke-opacity:1;stroke-miterlimit:3.25;" d="M 170.136719 138.480469 L 253.546875 265.101562 L 298.390625 171.675781 Z M 170.136719 138.480469 " transform="matrix(1,0,0,1,-74,-13)"/>
<path style="fill-rule:nonzero;fill:rgb(84.999084%,84.999084%,84.999084%);fill-opacity:0.6;stroke-width:1;stroke-linecap:square;stroke-linejoin:miter;stroke:rgb(50%,50%,50%);stroke-opacity:1;stroke-miterlimit:3.25;" d="M 255.558594 269.726562 L 235.101562 317.414062 L 337.691406 304.410156 Z M 255.558594 269.726562 " transform="matrix(1,0,0,1,-74,-13)"/>
<path style="fill-rule:nonzero;fill:rgb(84.999084%,84.999084%,84.999084%);fill-opacity:0.6;stroke-width:1;stroke-linecap:square;stroke-linejoin:miter;stroke:rgb(50%,50%,50%);stroke-opacity:1;stroke-miterlimit:3.25;" d="M 337.691406 304.410156 L 338.113281 304.675781 L 338.074219 302.964844 Z M 337.691406 304.410156 " transform="matrix(1,0,0,1,-74,-13)"/>
<path style="fill-rule:nonzero;fill:rgb(84.999084%,84.999084%,84.999084%);fill-opacity:0.6;stroke-width:1;stroke-linecap:square;stroke-linejoin:miter;stroke:rgb(50%,50%,50%);stroke-opacity:1;stroke-miterlimit:3.25;" d="M 338.113281 304.675781 L 337.691406 304.410156 L 338.515625 355.03125 Z M 338.113281 304.675781 " transform="matrix(1,0,0,1,-74,-13)"/>
<path style="fill-rule:nonzero;fill:rgb(84.999084%,84.999084%,84.999084%);fill-opacity:0.6;stroke-width:1;stroke-linecap:square;stroke-linejoin:miter;stroke:rgb(50%,50%,50%);stroke-opacity:1;stroke-miterlimit:3.25;" d="M 336.027344 253.03125 L 337.78125 302.648438 L 338.074219 302.964844 Z M 336.027344 253.03125 " transform="matrix(1,0,0,1,-74,-13)"/>
<path style="fill-rule:nonzero;fill:rgb(84.999084%,84.999084%,84.999084%);fill-opacity:0.6;stroke-width:1;stroke-linecap:square;stroke-linejoin:miter;stroke:rgb(50%,50%,50%);stroke-opacity:1;stroke-miterlimit:3.25;" d="M 337.78125 302.648438 L 335.410156 252.285156 L 255.558594 269.726562 Z M 337.78125 302.648438 " transform="matrix(1,0,0,1,-74,-13)"/>
<path style="fill-rule:nonzero;fill:rgb(84.999084%,84.999084%,84.999084%);fill-opacity:0.6;stroke-width:1;stroke-linecap:square;stroke-linejoin:miter;stroke:rgb(50%,50%,50%);stroke-opacity:1;stroke-miterlimit:3.25;" d="M 338.074219 302.964844 L 337.78125 302.648438 L 337.691406 304.410156 Z M 338.074219 302.964844 " transform="matrix(1,0,0,1,-74,-13)"/>
<path style="fill-rule:nonzero;fill:rgb(84.999084%,84.999084%,84.999084%);fill-opacity:0.6;stroke-width:1;stroke-linecap:square;stroke-linejoin:miter;stroke:rgb(50%,50%,50%);stroke-opacity:1;stroke-miterlimit:3.25;" d="M 402.675781 211.503906 L 336.027344 253.03125 L 338.074219 302.964844 Z M 402.675781 211.503906 " transform="matrix(1,0,0,1,-74,-13)"/>
<path style="fill-rule:nonzero;fill:rgb(84.999084%,84.999084%,84.999084%);fill-opacity:0.6;stroke-width:1;stroke-linecap:square;stroke-linejoin:miter;stroke:rgb(50%,50%,50%);stroke-opacity:1;stroke-miterlimit:3.25;" d="M 338.074219 302.964844 L 338.113281 304.675781 L 402.675781 211.503906 Z M 338.074219 302.964844 " transform="matrix(1,0,0,1,-74,-13)"/>
<path style="fill-rule:nonzero;fill:rgb(84.999084%,84.999084%,84.999084%);fill-opacity:0.6;stroke-width:1;stroke-linecap:square;stroke-linejoin:miter;stroke:rgb(50%,50%,50%);stroke-opacity:1;stroke-miterlimit:3.25;" d="M 337.78125 302.648438 L 255.558594 269.726562 L 337.691406 304.410156 Z M 337.78125 302.648438 " transform="matrix(1,0,0,1,-74,-13)"/>
<path style="fill-rule:nonzero;fill:rgb(84.999084%,84.999084%,84.999084%);fill-opacity:0.6;stroke-width:1;stroke-linecap:square;stroke-linejoin:miter;stroke:rgb(50%,50%,50%);stroke-opacity:1;stroke-miterlimit:3.25;" d="M 340.566406 359.804688 L 340.570312 359.574219 L 338.515625 355.03125 Z M 340.566406 359.804688 " transform="matrix(1,0,0,1,-74,-13)"/>
<path style="fill-rule:nonzero;fill:rgb(84.999084%,84.999084%,84.999084%);fill-opacity:0.6;stroke-width:1;stroke-linecap:square;stroke-linejoin:miter;stroke:rgb(50%,50%,50%);stroke-opacity:1;stroke-miterlimit:3.25;" d="M 340.570312 359.574219 L 340.566406 359.804688 L 341.886719 359.523438 Z M 340.570312 359.574219 " transform="matrix(1,0,0,1,-74,-13)"/>
<path style="fill-rule:nonzero;fill:rgb(84.999084%,84.999084%,84.999084%);fill-opacity:0.6;stroke-width:1;stroke-linecap:square;stroke-linejoin:miter;stroke:rgb(50%,50%,50%);stroke-opacity:1;stroke-miterlimit:3.25;" d="M 338.515625 355.03125 L 340.558594 359.191406 L 341.886719 359.523438 Z M 338.515625 355.03125 " transform="matrix(1,0,0,1,-74,-13)"/>
<path style="fill-rule:nonzero;fill:rgb(84.999084%,84.999084%,84.999084%);fill-opacity:0.6;stroke-width:1;stroke-linecap:square;stroke-linejoin:miter;stroke:rgb(50%,50%,50%);stroke-opacity:1;stroke-miterlimit:3.25;" d="M 340.558594 359.191406 L 338.515625 355.03125 L 340.570312 359.574219 Z M 340.558594 359.191406 " transform="matrix(1,0,0,1,-74,-13)"/>
<path style="fill-rule:nonzero;fill:rgb(84.999084%,84.999084%,84.999084%);fill-opacity:0.6;stroke-width:1;stroke-linecap:square;stroke-linejoin:miter;stroke:rgb(50%,50%,50%);stroke-opacity:1;stroke-miterlimit:3.25;" d="M 341.886719 359.523438 L 340.558594 359.191406 L 340.570312 359.574219 Z M 341.886719 359.523438 " transform="matrix(1,0,0,1,-74,-13)"/>
<path style="fill-rule:nonzero;fill:rgb(84.999084%,84.999084%,84.999084%);fill-opacity:0.6;stroke-width:1;stroke-linecap:square;stroke-linejoin:miter;stroke:rgb(50%,50%,50%);stroke-opacity:1;stroke-miterlimit:3.25;" d="M 338.515625 355.03125 L 341.886719 359.523438 L 338.113281 304.675781 Z M 338.515625 355.03125 " transform="matrix(1,0,0,1,-74,-13)"/>
<path style="fill-rule:nonzero;fill:rgb(84.999084%,84.999084%,84.999084%);fill-opacity:0.6;stroke-width:1;stroke-linecap:square;stroke-linejoin:miter;stroke:rgb(50%,50%,50%);stroke-opacity:1;stroke-miterlimit:3.25;" d="M 340.566406 359.804688 L 338.515625 355.03125 L 235.101562 317.414062 Z M 340.566406 359.804688 " transform="matrix(1,0,0,1,-74,-13)"/>
<path style="fill-rule:nonzero;fill:rgb(84.999084%,84.999084%,84.999084%);fill-opacity:0.6;stroke-width:1;stroke-linecap:square;stroke-linejoin:miter;stroke:rgb(50%,50%,50%);stroke-opacity:1;stroke-miterlimit:3.25;" d="M 335.410156 252.285156 L 337.78125 302.648438 L 336.027344 253.03125 Z M 335.410156 252.285156 " transform="matrix(1,0,0,1,-74,-13)"/>
<path style="fill-rule:nonzero;fill:rgb(84.999084%,84.999084%,84.999084%);fill-opacity:0.6;stroke-width:1;stroke-linecap:square;stroke-linejoin:miter;stroke:rgb(50%,50%,50%);stroke-opacity:1;stroke-miterlimit:3.25;" d="M 341.886719 359.523438 L 402.675781 211.503906 L 338.113281 304.675781 Z M 341.886719 359.523438 " transform="matrix(1,0,0,1,-74,-13)"/>
<path style="fill-rule:nonzero;fill:rgb(84.999084%,84.999084%,84.999084%);fill-opacity:0.6;stroke-width:1;stroke-linecap:square;stroke-linejoin:miter;stroke:rgb(50%,50%,50%);stroke-opacity:1;stroke-miterlimit:3.25;" d="M 346.445312 204.578125 L 353.371094 209.027344 L 351.996094 205.152344 Z M 346.445312 204.578125 " transform="matrix(1,0,0,1,-74,-13)"/>
<path style="fill-rule:nonzero;fill:rgb(84.999084%,84.999084%,84.999084%);fill-opacity:0.6;stroke-width:1;stroke-linecap:square;stroke-linejoin:miter;stroke:rgb(50%,50%,50%);stroke-opacity:1;stroke-miterlimit:3.25;" d="M 353.371094 209.027344 L 346.445312 204.578125 L 335.410156 252.285156 Z M 353.371094 209.027344 " transform="matrix(1,0,0,1,-74,-13)"/>
<path style="fill-rule:nonzero;fill:rgb(84.999084%,84.999084%,84.999084%);fill-opacity:0.6;stroke-width:1;stroke-linecap:square;stroke-linejoin:miter;stroke:rgb(50%,50%,50%);stroke-opacity:1;stroke-miterlimit:3.25;" d="M 304.566406 168.757812 L 350.660156 202.121094 L 332.214844 141.011719 Z M 304.566406 168.757812 " transform="matrix(1,0,0,1,-74,-13)"/>
<path style="fill-rule:nonzero;fill:rgb(84.999084%,84.999084%,84.999084%);fill-opacity:0.6;stroke-width:1;stroke-linecap:square;stroke-linejoin:miter;stroke:rgb(50%,50%,50%);stroke-opacity:1;stroke-miterlimit:3.25;" d="M 304.566406 168.757812 L 346.445312 204.578125 L 350.660156 202.121094 Z M 304.566406 168.757812 " transform="matrix(1,0,0,1,-74,-13)"/>
<path style="fill-rule:nonzero;fill:rgb(84.999084%,84.999084%,84.999084%);fill-opacity:0.6;stroke-width:1;stroke-linecap:square;stroke-linejoin:miter;stroke:rgb(50%,50%,50%);stroke-opacity:1;stroke-miterlimit:3.25;" d="M 350.660156 202.121094 L 346.445312 204.578125 L 351.996094 205.152344 Z M 350.660156 202.121094 " transform="matrix(1,0,0,1,-74,-13)"/>
<path style="fill-rule:nonzero;fill:rgb(84.999084%,84.999084%,84.999084%);fill-opacity:0.6;stroke-width:1;stroke-linecap:square;stroke-linejoin:miter;stroke:rgb(50%,50%,50%);stroke-opacity:1;stroke-miterlimit:3.25;" d="M 401.785156 208.96875 L 332.214844 141.011719 L 350.660156 202.121094 Z M 401.785156 208.96875 " transform="matrix(1,0,0,1,-74,-13)"/>
<path style="fill-rule:nonzero;fill:rgb(84.999084%,84.999084%,84.999084%);fill-opacity:0.6;stroke-width:1;stroke-linecap:square;stroke-linejoin:miter;stroke:rgb(50%,50%,50%);stroke-opacity:1;stroke-miterlimit:3.25;" d="M 350.660156 202.121094 L 351.996094 205.152344 L 401.785156 208.96875 Z M 350.660156 202.121094 " transform="matrix(1,0,0,1,-74,-13)"/>
<path style="fill-rule:nonzero;fill:rgb(84.999084%,84.999084%,84.999084%);fill-opacity:0.6;stroke-width:1;stroke-linecap:square;stroke-linejoin:miter;stroke:rgb(50%,50%,50%);stroke-opacity:1;stroke-miterlimit:3.25;" d="M 346.445312 204.578125 L 299.105469 171.683594 L 335.410156 252.285156 Z M 346.445312 204.578125 " transform="matrix(1,0,0,1,-74,-13)"/>
<path style="fill-rule:nonzero;fill:rgb(84.999084%,84.999084%,84.999084%);fill-opacity:0.6;stroke-width:1;stroke-linecap:square;stroke-linejoin:miter;stroke:rgb(50%,50%,50%);stroke-opacity:1;stroke-miterlimit:3.25;" d="M 353.371094 209.027344 L 402.675781 211.503906 L 401.785156 208.96875 Z M 353.371094 209.027344 " transform="matrix(1,0,0,1,-74,-13)"/>
<path style="fill-rule:nonzero;fill:rgb(84.999084%,84.999084%,84.999084%);fill-opacity:0.6;stroke-width:1;stroke-linecap:square;stroke-linejoin:miter;stroke:rgb(50%,50%,50%);stroke-opacity:1;stroke-miterlimit:3.25;" d="M 353.371094 209.027344 L 335.410156 252.285156 L 336.027344 253.03125 Z M 353.371094 209.027344 " transform="matrix(1,0,0,1,-74,-13)"/>
<path style="fill-rule:nonzero;fill:rgb(84.999084%,84.999084%,84.999084%);fill-opacity:0.6;stroke-width:1;stroke-linecap:square;stroke-linejoin:miter;stroke:rgb(50%,50%,50%);stroke-opacity:1;stroke-miterlimit:3.25;" d="M 401.785156 208.96875 L 402.675781 211.503906 L 421.3125 90.222656 Z M 401.785156 208.96875 " transform="matrix(1,0,0,1,-74,-13)"/>
<path style="fill-rule:nonzero;fill:rgb(84.999084%,84.999084%,84.999084%);fill-opacity:0.6;stroke-width:1;stroke-linecap:square;stroke-linejoin:miter;stroke:rgb(50%,50%,50%);stroke-opacity:1;stroke-miterlimit:3.25;" d="M 420.101562 89.890625 L 332.214844 141.011719 L 401.785156 208.96875 Z M 420.101562 89.890625 " transform="matrix(1,0,0,1,-74,-13)"/>
<path style="fill-rule:nonzero;fill:rgb(84.999084%,84.999084%,84.999084%);fill-opacity:0.6;stroke-width:1;stroke-linecap:square;stroke-linejoin:miter;stroke:rgb(50%,50%,50%);stroke-opacity:1;stroke-miterlimit:3.25;" d="M 420.101562 89.890625 L 374.035156 83.957031 L 332.214844 141.011719 Z M 420.101562 89.890625 " transform="matrix(1,0,0,1,-74,-13)"/>
<path style="fill-rule:nonzero;fill:rgb(84.999084%,84.999084%,84.999084%);fill-opacity:0.6;stroke-width:1;stroke-linecap:square;stroke-linejoin:miter;stroke:rgb(50%,50%,50%);stroke-opacity:1;stroke-miterlimit:3.25;" d="M 420.101562 89.890625 L 401.785156 208.96875 L 421.3125 90.222656 Z M 420.101562 89.890625 " transform="matrix(1,0,0,1,-74,-13)"/>
<path style="fill-rule:nonzero;fill:rgb(84.999084%,84.999084%,84.999084%);fill-opacity:0.6;stroke-width:1;stroke-linecap:square;stroke-linejoin:miter;stroke:rgb(50%,50%,50%);stroke-opacity:1;stroke-miterlimit:3.25;" d="M 420.101562 89.890625 L 421.3125 90.222656 L 250.828125 31.269531 Z M 420.101562 89.890625 " transform="matrix(1,0,0,1,-74,-13)"/>
<path style="fill-rule:nonzero;fill:rgb(84.999084%,84.999084%,84.999084%);fill-opacity:0.6;stroke-width:1;stroke-linecap:square;stroke-linejoin:miter;stroke:rgb(50%,50%,50%);stroke-opacity:1;stroke-miterlimit:3.25;" d="M 374.035156 83.957031 L 420.101562 89.890625 L 250.828125 31.269531 Z M 374.035156 83.957031 " transform="matrix(1,0,0,1,-74,-13)"/>
<path style="fill-rule:nonzero;fill:rgb(84.999084%,84.999084%,84.999084%);fill-opacity:0.6;stroke-width:1;stroke-linecap:square;stroke-linejoin:miter;stroke:rgb(50%,50%,50%);stroke-opacity:1;stroke-miterlimit:3.25;" d="M 401.785156 208.96875 L 351.996094 205.152344 L 353.371094 209.027344 Z M 401.785156 208.96875 " transform="matrix(1,0,0,1,-74,-13)"/>
<path style="fill-rule:nonzero;fill:rgb(84.999084%,84.999084%,84.999084%);fill-opacity:0.6;stroke-width:1;stroke-linecap:square;stroke-linejoin:miter;stroke:rgb(50%,50%,50%);stroke-opacity:1;stroke-miterlimit:3.25;" d="M 336.027344 253.03125 L 402.675781 211.503906 L 353.371094 209.027344 Z M 336.027344 253.03125 " transform="matrix(1,0,0,1,-74,-13)"/>
<path style="fill-rule:nonzero;fill:rgb(84.999084%,84.999084%,84.999084%);fill-opacity:0.6;stroke-width:1;stroke-linecap:square;stroke-linejoin:miter;stroke:rgb(50%,50%,50%);stroke-opacity:1;stroke-miterlimit:3.25;" d="M 332.214844 141.011719 L 374.035156 83.957031 L 239.671875 92.488281 Z M 332.214844 141.011719 " transform="matrix(1,0,0,1,-74,-13)"/>
<path style="fill-rule:nonzero;fill:rgb(84.999084%,84.999084%,84.999084%);fill-opacity:0.6;stroke-width:1;stroke-linecap:square;stroke-linejoin:miter;stroke:rgb(50%,50%,50%);stroke-opacity:1;stroke-miterlimit:3.25;" d="M 337.691406 304.410156 L 235.101562 317.414062 L 338.515625 355.03125 Z M 337.691406 304.410156 " transform="matrix(1,0,0,1,-74,-13)"/>
<path style=" stroke:none;fill-rule:evenodd;fill:rgb(99.998474%,0%,0%);fill-opacity:1;" d="M 268.789062 347 C 268.789062 346.523438 268.601562 346.070312 268.265625 345.734375 C 267.929688 345.398438 267.476562 345.210938 267 345.210938 C 266.523438 345.210938 266.070312 345.398438 265.734375 345.734375 C 265.398438 346.070312 265.210938 346.523438 265.210938 347 C 265.210938 347.476562 265.398438 347.929688 265.734375 348.265625 C 266.070312 348.601562 266.523438 348.789062 267 348.789062 C 267.476562 348.789062 267.929688 348.601562 268.265625 348.265625 C 268.601562 347.929688 268.789062 347.476562 268.789062 347 Z M 268.789062 347 "/>
<path style=" stroke:none;fill-rule:evenodd;fill:rgb(99.998474%,0%,0%);fill-opacity:1;" d="M 268.789062 347 C 268.789062 346.523438 268.601562 346.070312 268.265625 345.734375 C 267.929688 345.398438 267.476562 345.210938 267 345.210938 C 266.523438 345.210938 266.070312 345.398438 265.734375 345.734375 C 265.398438 346.070312 265.210938 346.523438 265.210938 347 C 265.210938 347.476562 265.398438 347.929688 265.734375 348.265625 C 266.070312 348.601562 266.523438 348.789062 267 348.789062 C 267.476562 348.789062 267.929688 348.601562 268.265625 348.265625 C 268.601562 347.929688 268.789062 347.476562 268.789062 347 Z M 268.789062 347 "/>
<path style=" stroke:none;fill-rule:evenodd;fill:rgb(99.998474%,0%,0%);fill-opacity:1;" d="M 269.789062 347 C 269.789062 346.523438 269.601562 346.070312 269.265625 345.734375 C 268.929688 345.398438 268.476562 345.210938 268 345.210938 C 267.523438 345.210938 267.070312 345.398438 266.734375 345.734375 C 266.398438 346.070312 266.210938 346.523438 266.210938 347 C 266.210938 347.476562 266.398438 347.929688 266.734375 348.265625 C 267.070312 348.601562 267.523438 348.789062 268 348.789062 C 268.476562 348.789062 268.929688 348.601562 269.265625 348.265625 C 269.601562 347.929688 269.789062 347.476562 269.789062 347 Z M 269.789062 347 "/>
<path style=" stroke:none;fill-rule:evenodd;fill:rgb(99.998474%,0%,0%);fill-opacity:1;" d="M 268.789062 346 C 268.789062 345.523438 268.601562 345.070312 268.265625 344.734375 C 267.929688 344.398438 267.476562 344.210938 267 344.210938 C 266.523438 344.210938 266.070312 344.398438 265.734375 344.734375 C 265.398438 345.070312 265.210938 345.523438 265.210938 346 C 265.210938 346.476562 265.398438 346.929688 265.734375 347.265625 C 266.070312 347.601562 266.523438 347.789062 267 347.789062 C 267.476562 347.789062 267.929688 347.601562 268.265625 347.265625 C 268.601562 346.929688 268.789062 346.476562 268.789062 346 Z M 268.789062 346 "/>
<path style=" stroke:none;fill-rule:evenodd;fill:rgb(99.998474%,0%,0%);fill-opacity:1;" d="M 266.789062 342 C 266.789062 341.523438 266.601562 341.070312 266.265625 340.734375 C 265.929688 340.398438 265.476562 340.210938 265 340.210938 C 264.523438 340.210938 264.070312 340.398438 263.734375 340.734375 C 263.398438 341.070312 263.210938 341.523438 263.210938 342 C 263.210938 342.476562 263.398438 342.929688 263.734375 343.265625 C 264.070312 343.601562 264.523438 343.789062 265 343.789062 C 265.476562 343.789062 265.929688 343.601562 266.265625 343.265625 C 266.601562 342.929688 266.789062 342.476562 266.789062 342 Z M 266.789062 342 "/>
<path style=" stroke:none;fill-rule:evenodd;fill:rgb(99.998474%,0%,0%);fill-opacity:1;" d="M 100.789062 332 C 100.789062 331.523438 100.601562 331.070312 100.265625 330.734375 C 99.929688 330.398438 99.476562 330.210938 99 330.210938 C 98.523438 330.210938 98.070312 330.398438 97.734375 330.734375 C 97.398438 331.070312 97.210938 331.523438 97.210938 332 C 97.210938 332.476562 97.398438 332.929688 97.734375 333.265625 C 98.070312 333.601562 98.523438 333.789062 99 333.789062 C 99.476562 333.789062 99.929688 333.601562 100.265625 333.265625 C 100.601562 332.929688 100.789062 332.476562 100.789062 332 Z M 100.789062 332 "/>
<path style=" stroke:none;fill-rule:evenodd;fill:rgb(99.998474%,0%,0%);fill-opacity:1;" d="M 162.789062 304 C 162.789062 303.523438 162.601562 303.070312 162.265625 302.734375 C 161.929688 302.398438 161.476562 302.210938 161 302.210938 C 160.523438 302.210938 160.070312 302.398438 159.734375 302.734375 C 159.398438 303.070312 159.210938 303.523438 159.210938 304 C 159.210938 304.476562 159.398438 304.929688 159.734375 305.265625 C 160.070312 305.601562 160.523438 305.789062 161 305.789062 C 161.476562 305.789062 161.929688 305.601562 162.265625 305.265625 C 162.601562 304.929688 162.789062 304.476562 162.789062 304 Z M 162.789062 304 "/>
<path style=" stroke:none;fill-rule:evenodd;fill:rgb(99.998474%,0%,0%);fill-opacity:1;" d="M 265.789062 292 C 265.789062 291.523438 265.601562 291.070312 265.265625 290.734375 C 264.929688 290.398438 264.476562 290.210938 264 290.210938 C 263.523438 290.210938 263.070312 290.398438 262.734375 290.734375 C 262.398438 291.070312 262.210938 291.523438 262.210938 292 C 262.210938 292.476562 262.398438 292.929688 262.734375 293.265625 C 263.070312 293.601562 263.523438 293.789062 264 293.789062 C 264.476562 293.789062 264.929688 293.601562 265.265625 293.265625 C 265.601562 292.929688 265.789062 292.476562 265.789062 292 Z M 265.789062 292 "/>
<path style=" stroke:none;fill-rule:evenodd;fill:rgb(99.998474%,0%,0%);fill-opacity:1;" d="M 265.789062 291 C 265.789062 290.523438 265.601562 290.070312 265.265625 289.734375 C 264.929688 289.398438 264.476562 289.210938 264 289.210938 C 263.523438 289.210938 263.070312 289.398438 262.734375 289.734375 C 262.398438 290.070312 262.210938 290.523438 262.210938 291 C 262.210938 291.476562 262.398438 291.929688 262.734375 292.265625 C 263.070312 292.601562 263.523438 292.789062 264 292.789062 C 264.476562 292.789062 264.929688 292.601562 265.265625 292.265625 C 265.601562 291.929688 265.789062 291.476562 265.789062 291 Z M 265.789062 291 "/>
<path style=" stroke:none;fill-rule:evenodd;fill:rgb(99.998474%,0%,0%);fill-opacity:1;" d="M 265.789062 290 C 265.789062 289.523438 265.601562 289.070312 265.265625 288.734375 C 264.929688 288.398438 264.476562 288.210938 264 288.210938 C 263.523438 288.210938 263.070312 288.398438 262.734375 288.734375 C 262.398438 289.070312 262.210938 289.523438 262.210938 290 C 262.210938 290.476562 262.398438 290.929688 262.734375 291.265625 C 263.070312 291.601562 263.523438 291.789062 264 291.789062 C 264.476562 291.789062 264.929688 291.601562 265.265625 291.265625 C 265.601562 290.929688 265.789062 290.476562 265.789062 290 Z M 265.789062 290 "/>
<path style=" stroke:none;fill-rule:evenodd;fill:rgb(99.998474%,0%,0%);fill-opacity:1;" d="M 265.789062 290 C 265.789062 289.523438 265.601562 289.070312 265.265625 288.734375 C 264.929688 288.398438 264.476562 288.210938 264 288.210938 C 263.523438 288.210938 263.070312 288.398438 262.734375 288.734375 C 262.398438 289.070312 262.210938 289.523438 262.210938 290 C 262.210938 290.476562 262.398438 290.929688 262.734375 291.265625 C 263.070312 291.601562 263.523438 291.789062 264 291.789062 C 264.476562 291.789062 264.929688 291.601562 265.265625 291.265625 C 265.601562 290.929688 265.789062 290.476562 265.789062 290 Z M 265.789062 290 "/>
<path style=" stroke:none;fill-rule:evenodd;fill:rgb(99.998474%,0%,0%);fill-opacity:1;" d="M 32.789062 283 C 32.789062 282.523438 32.601562 282.070312 32.265625 281.734375 C 31.929688 281.398438 31.476562 281.210938 31 281.210938 C 30.523438 281.210938 30.070312 281.398438 29.734375 281.734375 C 29.398438 282.070312 29.210938 282.523438 29.210938 283 C 29.210938 283.476562 29.398438 283.929688 29.734375 284.265625 C 30.070312 284.601562 30.523438 284.789062 31 284.789062 C 31.476562 284.789062 31.929688 284.601562 32.265625 284.265625 C 32.601562 283.929688 32.789062 283.476562 32.789062 283 Z M 32.789062 283 "/>
<path style=" stroke:none;fill-rule:evenodd;fill:rgb(99.998474%,0%,0%);fill-opacity:1;" d="M 32.789062 282 C 32.789062 281.523438 32.601562 281.070312 32.265625 280.734375 C 31.929688 280.398438 31.476562 280.210938 31 280.210938 C 30.523438 280.210938 30.070312 280.398438 29.734375 280.734375 C 29.398438 281.070312 29.210938 281.523438 29.210938 282 C 29.210938 282.476562 29.398438 282.929688 29.734375 283.265625 C 30.070312 283.601562 30.523438 283.789062 31 283.789062 C 31.476562 283.789062 31.929688 283.601562 32.265625 283.265625 C 32.601562 282.929688 32.789062 282.476562 32.789062 282 Z M 32.789062 282 "/>
<path style=" stroke:none;fill-rule:evenodd;fill:rgb(99.998474%,0%,0%);fill-opacity:1;" d="M 15.789062 279 C 15.789062 278.523438 15.601562 278.070312 15.265625 277.734375 C 14.929688 277.398438 14.476562 277.210938 14 277.210938 C 13.523438 277.210938 13.070312 277.398438 12.734375 277.734375 C 12.398438 278.070312 12.210938 278.523438 12.210938 279 C 12.210938 279.476562 12.398438 279.929688 12.734375 280.265625 C 13.070312 280.601562 13.523438 280.789062 14 280.789062 C 14.476562 280.789062 14.929688 280.601562 15.265625 280.265625 C 15.601562 279.929688 15.789062 279.476562 15.789062 279 Z M 15.789062 279 "/>
<path style=" stroke:none;fill-rule:evenodd;fill:rgb(99.998474%,0%,0%);fill-opacity:1;" d="M 33.789062 277 C 33.789062 276.523438 33.601562 276.070312 33.265625 275.734375 C 32.929688 275.398438 32.476562 275.210938 32 275.210938 C 31.523438 275.210938 31.070312 275.398438 30.734375 275.734375 C 30.398438 276.070312 30.210938 276.523438 30.210938 277 C 30.210938 277.476562 30.398438 277.929688 30.734375 278.265625 C 31.070312 278.601562 31.523438 278.789062 32 278.789062 C 32.476562 278.789062 32.929688 278.601562 33.265625 278.265625 C 33.601562 277.929688 33.789062 277.476562 33.789062 277 Z M 33.789062 277 "/>
<path style=" stroke:none;fill-rule:evenodd;fill:rgb(99.998474%,0%,0%);fill-opacity:1;" d="M 17.789062 276 C 17.789062 275.523438 17.601562 275.070312 17.265625 274.734375 C 16.929688 274.398438 16.476562 274.210938 16 274.210938 C 15.523438 274.210938 15.070312 274.398438 14.734375 274.734375 C 14.398438 275.070312 14.210938 275.523438 14.210938 276 C 14.210938 276.476562 14.398438 276.929688 14.734375 277.265625 C 15.070312 277.601562 15.523438 277.789062 16 277.789062 C 16.476562 277.789062 16.929688 277.601562 17.265625 277.265625 C 17.601562 276.929688 17.789062 276.476562 17.789062 276 Z M 17.789062 276 "/>
<path style=" stroke:none;fill-rule:evenodd;fill:rgb(99.998474%,0%,0%);fill-opacity:1;" d="M 32.789062 275 C 32.789062 274.523438 32.601562 274.070312 32.265625 273.734375 C 31.929688 273.398438 31.476562 273.210938 31 273.210938 C 30.523438 273.210938 30.070312 273.398438 29.734375 273.734375 C 29.398438 274.070312 29.210938 274.523438 29.210938 275 C 29.210938 275.476562 29.398438 275.929688 29.734375 276.265625 C 30.070312 276.601562 30.523438 276.789062 31 276.789062 C 31.476562 276.789062 31.929688 276.601562 32.265625 276.265625 C 32.601562 275.929688 32.789062 275.476562 32.789062 275 Z M 32.789062 275 "/>
<path style=" stroke:none;fill-rule:evenodd;fill:rgb(99.998474%,0%,0%);fill-opacity:1;" d="M 183.789062 257 C 183.789062 256.523438 183.601562 256.070312 183.265625 255.734375 C 182.929688 255.398438 182.476562 255.210938 182 255.210938 C 181.523438 255.210938 181.070312 255.398438 180.734375 255.734375 C 180.398438 256.070312 180.210938 256.523438 180.210938 257 C 180.210938 257.476562 180.398438 257.929688 180.734375 258.265625 C 181.070312 258.601562 181.523438 258.789062 182 258.789062 C 182.476562 258.789062 182.929688 258.601562 183.265625 258.265625 C 183.601562 257.929688 183.789062 257.476562 183.789062 257 Z M 183.789062 257 "/>
<path style=" stroke:none;fill-rule:evenodd;fill:rgb(99.998474%,0%,0%);fill-opacity:1;" d="M 181.789062 252 C 181.789062 251.523438 181.601562 251.070312 181.265625 250.734375 C 180.929688 250.398438 180.476562 250.210938 180 250.210938 C 179.523438 250.210938 179.070312 250.398438 178.734375 250.734375 C 178.398438 251.070312 178.210938 251.523438 178.210938 252 C 178.210938 252.476562 178.398438 252.929688 178.734375 253.265625 C 179.070312 253.601562 179.523438 253.789062 180 253.789062 C 180.476562 253.789062 180.929688 253.601562 181.265625 253.265625 C 181.601562 252.929688 181.789062 252.476562 181.789062 252 Z M 181.789062 252 "/>
<path style=" stroke:none;fill-rule:evenodd;fill:rgb(99.998474%,0%,0%);fill-opacity:1;" d="M 263.789062 240 C 263.789062 239.523438 263.601562 239.070312 263.265625 238.734375 C 262.929688 238.398438 262.476562 238.210938 262 238.210938 C 261.523438 238.210938 261.070312 238.398438 260.734375 238.734375 C 260.398438 239.070312 260.210938 239.523438 260.210938 240 C 260.210938 240.476562 260.398438 240.929688 260.734375 241.265625 C 261.070312 241.601562 261.523438 241.789062 262 241.789062 C 262.476562 241.789062 262.929688 241.601562 263.265625 241.265625 C 263.601562 240.929688 263.789062 240.476562 263.789062 240 Z M 263.789062 240 "/>
<path style=" stroke:none;fill-rule:evenodd;fill:rgb(99.998474%,0%,0%);fill-opacity:1;" d="M 262.789062 239 C 262.789062 238.523438 262.601562 238.070312 262.265625 237.734375 C 261.929688 237.398438 261.476562 237.210938 261 237.210938 C 260.523438 237.210938 260.070312 237.398438 259.734375 237.734375 C 259.398438 238.070312 259.210938 238.523438 259.210938 239 C 259.210938 239.476562 259.398438 239.929688 259.734375 240.265625 C 260.070312 240.601562 260.523438 240.789062 261 240.789062 C 261.476562 240.789062 261.929688 240.601562 262.265625 240.265625 C 262.601562 239.929688 262.789062 239.476562 262.789062 239 Z M 262.789062 239 "/>
<path style=" stroke:none;fill-rule:evenodd;fill:rgb(99.998474%,0%,0%);fill-opacity:1;" d="M 330.789062 199 C 330.789062 198.523438 330.601562 198.070312 330.265625 197.734375 C 329.929688 197.398438 329.476562 197.210938 329 197.210938 C 328.523438 197.210938 328.070312 197.398438 327.734375 197.734375 C 327.398438 198.070312 327.210938 198.523438 327.210938 199 C 327.210938 199.476562 327.398438 199.929688 327.734375 200.265625 C 328.070312 200.601562 328.523438 200.789062 329 200.789062 C 329.476562 200.789062 329.929688 200.601562 330.265625 200.265625 C 330.601562 199.929688 330.789062 199.476562 330.789062 199 Z M 330.789062 199 "/>
<path style=" stroke:none;fill-rule:evenodd;fill:rgb(99.998474%,0%,0%);fill-opacity:1;" d="M 280.789062 196 C 280.789062 195.523438 280.601562 195.070312 280.265625 194.734375 C 279.929688 194.398438 279.476562 194.210938 279 194.210938 C 278.523438 194.210938 278.070312 194.398438 277.734375 194.734375 C 277.398438 195.070312 277.210938 195.523438 277.210938 196 C 277.210938 196.476562 277.398438 196.929688 277.734375 197.265625 C 278.070312 197.601562 278.523438 197.789062 279 197.789062 C 279.476562 197.789062 279.929688 197.601562 280.265625 197.265625 C 280.601562 196.929688 280.789062 196.476562 280.789062 196 Z M 280.789062 196 "/>
<path style=" stroke:none;fill-rule:evenodd;fill:rgb(99.998474%,0%,0%);fill-opacity:1;" d="M 329.789062 196 C 329.789062 195.523438 329.601562 195.070312 329.265625 194.734375 C 328.929688 194.398438 328.476562 194.210938 328 194.210938 C 327.523438 194.210938 327.070312 194.398438 326.734375 194.734375 C 326.398438 195.070312 326.210938 195.523438 326.210938 196 C 326.210938 196.476562 326.398438 196.929688 326.734375 197.265625 C 327.070312 197.601562 327.523438 197.789062 328 197.789062 C 328.476562 197.789062 328.929688 197.601562 329.265625 197.265625 C 329.601562 196.929688 329.789062 196.476562 329.789062 196 Z M 329.789062 196 "/>
<path style=" stroke:none;fill-rule:evenodd;fill:rgb(99.998474%,0%,0%);fill-opacity:1;" d="M 279.789062 192 C 279.789062 191.523438 279.601562 191.070312 279.265625 190.734375 C 278.929688 190.398438 278.476562 190.210938 278 190.210938 C 277.523438 190.210938 277.070312 190.398438 276.734375 190.734375 C 276.398438 191.070312 276.210938 191.523438 276.210938 192 C 276.210938 192.476562 276.398438 192.929688 276.734375 193.265625 C 277.070312 193.601562 277.523438 193.789062 278 193.789062 C 278.476562 193.789062 278.929688 193.601562 279.265625 193.265625 C 279.601562 192.929688 279.789062 192.476562 279.789062 192 Z M 279.789062 192 "/>
<path style=" stroke:none;fill-rule:evenodd;fill:rgb(99.998474%,0%,0%);fill-opacity:1;" d="M 273.789062 192 C 273.789062 191.523438 273.601562 191.070312 273.265625 190.734375 C 272.929688 190.398438 272.476562 190.210938 272 190.210938 C 271.523438 190.210938 271.070312 190.398438 270.734375 190.734375 C 270.398438 191.070312 270.210938 191.523438 270.210938 192 C 270.210938 192.476562 270.398438 192.929688 270.734375 193.265625 C 271.070312 193.601562 271.523438 193.789062 272 193.789062 C 272.476562 193.789062 272.929688 193.601562 273.265625 193.265625 C 273.601562 192.929688 273.789062 192.476562 273.789062 192 Z M 273.789062 192 "/>
<path style=" stroke:none;fill-rule:evenodd;fill:rgb(99.998474%,0%,0%);fill-opacity:1;" d="M 278.789062 189 C 278.789062 188.523438 278.601562 188.070312 278.265625 187.734375 C 277.929688 187.398438 277.476562 187.210938 277 187.210938 C 276.523438 187.210938 276.070312 187.398438 275.734375 187.734375 C 275.398438 188.070312 275.210938 188.523438 275.210938 189 C 275.210938 189.476562 275.398438 189.929688 275.734375 190.265625 C 276.070312 190.601562 276.523438 190.789062 277 190.789062 C 277.476562 190.789062 277.929688 190.601562 278.265625 190.265625 C 278.601562 189.929688 278.789062 189.476562 278.789062 189 Z M 278.789062 189 "/>
<path style=" stroke:none;fill-rule:evenodd;fill:rgb(99.998474%,0%,0%);fill-opacity:1;" d="M 225.789062 159 C 225.789062 158.523438 225.601562 158.070312 225.265625 157.734375 C 224.929688 157.398438 224.476562 157.210938 224 157.210938 C 223.523438 157.210938 223.070312 157.398438 222.734375 157.734375 C 222.398438 158.070312 222.210938 158.523438 222.210938 159 C 222.210938 159.476562 222.398438 159.929688 222.734375 160.265625 C 223.070312 160.601562 223.523438 160.789062 224 160.789062 C 224.476562 160.789062 224.929688 160.601562 225.265625 160.265625 C 225.601562 159.929688 225.789062 159.476562 225.789062 159 Z M 225.789062 159 "/>
<path style=" stroke:none;fill-rule:evenodd;fill:rgb(99.998474%,0%,0%);fill-opacity:1;" d="M 226.789062 159 C 226.789062 158.523438 226.601562 158.070312 226.265625 157.734375 C 225.929688 157.398438 225.476562 157.210938 225 157.210938 C 224.523438 157.210938 224.070312 157.398438 223.734375 157.734375 C 223.398438 158.070312 223.210938 158.523438 223.210938 159 C 223.210938 159.476562 223.398438 159.929688 223.734375 160.265625 C 224.070312 160.601562 224.523438 160.789062 225 160.789062 C 225.476562 160.789062 225.929688 160.601562 226.265625 160.265625 C 226.601562 159.929688 226.789062 159.476562 226.789062 159 Z M 226.789062 159 "/>
<path style=" stroke:none;fill-rule:evenodd;fill:rgb(99.998474%,0%,0%);fill-opacity:1;" d="M 226.789062 159 C 226.789062 158.523438 226.601562 158.070312 226.265625 157.734375 C 225.929688 157.398438 225.476562 157.210938 225 157.210938 C 224.523438 157.210938 224.070312 157.398438 223.734375 157.734375 C 223.398438 158.070312 223.210938 158.523438 223.210938 159 C 223.210938 159.476562 223.398438 159.929688 223.734375 160.265625 C 224.070312 160.601562 224.523438 160.789062 225 160.789062 C 225.476562 160.789062 225.929688 160.601562 226.265625 160.265625 C 226.601562 159.929688 226.789062 159.476562 226.789062 159 Z M 226.789062 159 "/>
<path style=" stroke:none;fill-rule:evenodd;fill:rgb(99.998474%,0%,0%);fill-opacity:1;" d="M 232.789062 156 C 232.789062 155.523438 232.601562 155.070312 232.265625 154.734375 C 231.929688 154.398438 231.476562 154.210938 231 154.210938 C 230.523438 154.210938 230.070312 154.398438 229.734375 154.734375 C 229.398438 155.070312 229.210938 155.523438 229.210938 156 C 229.210938 156.476562 229.398438 156.929688 229.734375 157.265625 C 230.070312 157.601562 230.523438 157.789062 231 157.789062 C 231.476562 157.789062 231.929688 157.601562 232.265625 157.265625 C 232.601562 156.929688 232.789062 156.476562 232.789062 156 Z M 232.789062 156 "/>
<path style=" stroke:none;fill-rule:evenodd;fill:rgb(99.998474%,0%,0%);fill-opacity:1;" d="M 259.789062 128 C 259.789062 127.523438 259.601562 127.070312 259.265625 126.734375 C 258.929688 126.398438 258.476562 126.210938 258 126.210938 C 257.523438 126.210938 257.070312 126.398438 256.734375 126.734375 C 256.398438 127.070312 256.210938 127.523438 256.210938 128 C 256.210938 128.476562 256.398438 128.929688 256.734375 129.265625 C 257.070312 129.601562 257.523438 129.789062 258 129.789062 C 258.476562 129.789062 258.929688 129.601562 259.265625 129.265625 C 259.601562 128.929688 259.789062 128.476562 259.789062 128 Z M 259.789062 128 "/>
<path style=" stroke:none;fill-rule:evenodd;fill:rgb(99.998474%,0%,0%);fill-opacity:1;" d="M 97.789062 125 C 97.789062 124.523438 97.601562 124.070312 97.265625 123.734375 C 96.929688 123.398438 96.476562 123.210938 96 123.210938 C 95.523438 123.210938 95.070312 123.398438 94.734375 123.734375 C 94.398438 124.070312 94.210938 124.523438 94.210938 125 C 94.210938 125.476562 94.398438 125.929688 94.734375 126.265625 C 95.070312 126.601562 95.523438 126.789062 96 126.789062 C 96.476562 126.789062 96.929688 126.601562 97.265625 126.265625 C 97.601562 125.929688 97.789062 125.476562 97.789062 125 Z M 97.789062 125 "/>
<path style=" stroke:none;fill-rule:evenodd;fill:rgb(99.998474%,0%,0%);fill-opacity:1;" d="M 162.789062 81 C 162.789062 80.523438 162.601562 80.070312 162.265625 79.734375 C 161.929688 79.398438 161.476562 79.210938 161 79.210938 C 160.523438 79.210938 160.070312 79.398438 159.734375 79.734375 C 159.398438 80.070312 159.210938 80.523438 159.210938 81 C 159.210938 81.476562 159.398438 81.929688 159.734375 82.265625 C 160.070312 82.601562 160.523438 82.789062 161 82.789062 C 161.476562 82.789062 161.929688 82.601562 162.265625 82.265625 C 162.601562 81.929688 162.789062 81.476562 162.789062 81 Z M 162.789062 81 "/>
<path style=" stroke:none;fill-rule:evenodd;fill:rgb(99.998474%,0%,0%);fill-opacity:1;" d="M 166.789062 81 C 166.789062 80.523438 166.601562 80.070312 166.265625 79.734375 C 165.929688 79.398438 165.476562 79.210938 165 79.210938 C 164.523438 79.210938 164.070312 79.398438 163.734375 79.734375 C 163.398438 80.070312 163.210938 80.523438 163.210938 81 C 163.210938 81.476562 163.398438 81.929688 163.734375 82.265625 C 164.070312 82.601562 164.523438 82.789062 165 82.789062 C 165.476562 82.789062 165.929688 82.601562 166.265625 82.265625 C 166.601562 81.929688 166.789062 81.476562 166.789062 81 Z M 166.789062 81 "/>
<path style=" stroke:none;fill-rule:evenodd;fill:rgb(99.998474%,0%,0%);fill-opacity:1;" d="M 165.789062 81 C 165.789062 80.523438 165.601562 80.070312 165.265625 79.734375 C 164.929688 79.398438 164.476562 79.210938 164 79.210938 C 163.523438 79.210938 163.070312 79.398438 162.734375 79.734375 C 162.398438 80.070312 162.210938 80.523438 162.210938 81 C 162.210938 81.476562 162.398438 81.929688 162.734375 82.265625 C 163.070312 82.601562 163.523438 82.789062 164 82.789062 C 164.476562 82.789062 164.929688 82.601562 165.265625 82.265625 C 165.601562 81.929688 165.789062 81.476562 165.789062 81 Z M 165.789062 81 "/>
<path style=" stroke:none;fill-rule:evenodd;fill:rgb(99.998474%,0%,0%);fill-opacity:1;" d="M 167.789062 79 C 167.789062 78.523438 167.601562 78.070312 167.265625 77.734375 C 166.929688 77.398438 166.476562 77.210938 166 77.210938 C 165.523438 77.210938 165.070312 77.398438 164.734375 77.734375 C 164.398438 78.070312 164.210938 78.523438 164.210938 79 C 164.210938 79.476562 164.398438 79.929688 164.734375 80.265625 C 165.070312 80.601562 165.523438 80.789062 166 80.789062 C 166.476562 80.789062 166.929688 80.601562 167.265625 80.265625 C 167.601562 79.929688 167.789062 79.476562 167.789062 79 Z M 167.789062 79 "/>
<path style=" stroke:none;fill-rule:evenodd;fill:rgb(99.998474%,0%,0%);fill-opacity:1;" d="M 348.789062 77 C 348.789062 76.523438 348.601562 76.070312 348.265625 75.734375 C 347.929688 75.398438 347.476562 75.210938 347 75.210938 C 346.523438 75.210938 346.070312 75.398438 345.734375 75.734375 C 345.398438 76.070312 345.210938 76.523438 345.210938 77 C 345.210938 77.476562 345.398438 77.929688 345.734375 78.265625 C 346.070312 78.601562 346.523438 78.789062 347 78.789062 C 347.476562 78.789062 347.929688 78.601562 348.265625 78.265625 C 348.601562 77.929688 348.789062 77.476562 348.789062 77 Z M 348.789062 77 "/>
<path style=" stroke:none;fill-rule:evenodd;fill:rgb(99.998474%,0%,0%);fill-opacity:1;" d="M 347.789062 77 C 347.789062 76.523438 347.601562 76.070312 347.265625 75.734375 C 346.929688 75.398438 346.476562 75.210938 346 75.210938 C 345.523438 75.210938 345.070312 75.398438 344.734375 75.734375 C 344.398438 76.070312 344.210938 76.523438 344.210938 77 C 344.210938 77.476562 344.398438 77.929688 344.734375 78.265625 C 345.070312 78.601562 345.523438 78.789062 346 78.789062 C 346.476562 78.789062 346.929688 78.601562 347.265625 78.265625 C 347.601562 77.929688 347.789062 77.476562 347.789062 77 Z M 347.789062 77 "/>
<path style=" stroke:none;fill-rule:evenodd;fill:rgb(99.998474%,0%,0%);fill-opacity:1;" d="M 301.789062 71 C 301.789062 70.523438 301.601562 70.070312 301.265625 69.734375 C 300.929688 69.398438 300.476562 69.210938 300 69.210938 C 299.523438 69.210938 299.070312 69.398438 298.734375 69.734375 C 298.398438 70.070312 298.210938 70.523438 298.210938 71 C 298.210938 71.476562 298.398438 71.929688 298.734375 72.265625 C 299.070312 72.601562 299.523438 72.789062 300 72.789062 C 300.476562 72.789062 300.929688 72.601562 301.265625 72.265625 C 301.601562 71.929688 301.789062 71.476562 301.789062 71 Z M 301.789062 71 "/>
<path style=" stroke:none;fill-rule:evenodd;fill:rgb(99.998474%,0%,0%);fill-opacity:1;" d="M 177.789062 21 C 177.789062 20.523438 177.601562 20.070312 177.265625 19.734375 C 176.929688 19.398438 176.476562 19.210938 176 19.210938 C 175.523438 19.210938 175.070312 19.398438 174.734375 19.734375 C 174.398438 20.070312 174.210938 20.523438 174.210938 21 C 174.210938 21.476562 174.398438 21.929688 174.734375 22.265625 C 175.070312 22.601562 175.523438 22.789062 176 22.789062 C 176.476562 22.789062 176.929688 22.601562 177.265625 22.265625 C 177.601562 21.929688 177.789062 21.476562 177.789062 21 Z M 177.789062 21 "/>
<path style=" stroke:none;fill-rule:evenodd;fill:rgb(99.998474%,0%,0%);fill-opacity:1;" d="M 178.789062 18 C 178.789062 17.523438 178.601562 17.070312 178.265625 16.734375 C 177.929688 16.398438 177.476562 16.210938 177 16.210938 C 176.523438 16.210938 176.070312 16.398438 175.734375 16.734375 C 175.398438 17.070312 175.210938 17.523438 175.210938 18 C 175.210938 18.476562 175.398438 18.929688 175.734375 19.265625 C 176.070312 19.601562 176.523438 19.789062 177 19.789062 C 177.476562 19.789062 177.929688 19.601562 178.265625 19.265625 C 178.601562 18.929688 178.789062 18.476562 178.789062 18 Z M 178.789062 18 "/>
<path style=" stroke:none;fill-rule:evenodd;fill:rgb(99.998474%,0%,0%);fill-opacity:1;" d="M 268.5 347 C 268.5 346.601562 268.34375 346.21875 268.0625 345.9375 C 267.78125 345.65625 267.398438 345.5 267 345.5 C 266.601562 345.5 266.21875 345.65625 265.9375 345.9375 C 265.65625 346.21875 265.5 346.601562 265.5 347 C 265.5 347.398438 265.65625 347.78125 265.9375 348.0625 C 266.21875 348.34375 266.601562 348.5 267 348.5 C 267.398438 348.5 267.78125 348.34375 268.0625 348.0625 C 268.34375 347.78125 268.5 347.398438 268.5 347 Z M 268.5 347 "/>
<path style=" stroke:none;fill-rule:evenodd;fill:rgb(99.998474%,0%,0%);fill-opacity:1;" d="M 268.5 347 C 268.5 346.601562 268.34375 346.21875 268.0625 345.9375 C 267.78125 345.65625 267.398438 345.5 267 345.5 C 266.601562 345.5 266.21875 345.65625 265.9375 345.9375 C 265.65625 346.21875 265.5 346.601562 265.5 347 C 265.5 347.398438 265.65625 347.78125 265.9375 348.0625 C 266.21875 348.34375 266.601562 348.5 267 348.5 C 267.398438 348.5 267.78125 348.34375 268.0625 348.0625 C 268.34375 347.78125 268.5 347.398438 268.5 347 Z M 268.5 347 "/>
<path style=" stroke:none;fill-rule:evenodd;fill:rgb(99.998474%,0%,0%);fill-opacity:1;" d="M 269.5 347 C 269.5 346.601562 269.34375 346.21875 269.0625 345.9375 C 268.78125 345.65625 268.398438 345.5 268 345.5 C 267.601562 345.5 267.21875 345.65625 266.9375 345.9375 C 266.65625 346.21875 266.5 346.601562 266.5 347 C 266.5 347.398438 266.65625 347.78125 266.9375 348.0625 C 267.21875 348.34375 267.601562 348.5 268 348.5 C 268.398438 348.5 268.78125 348.34375 269.0625 348.0625 C 269.34375 347.78125 269.5 347.398438 269.5 347 Z M 269.5 347 "/>
<path style=" stroke:none;fill-rule:evenodd;fill:rgb(99.998474%,0%,0%);fill-opacity:1;" d="M 268.5 346 C 268.5 345.601562 268.34375 345.21875 268.0625 344.9375 C 267.78125 344.65625 267.398438 344.5 267 344.5 C 266.601562 344.5 266.21875 344.65625 265.9375 344.9375 C 265.65625 345.21875 265.5 345.601562 265.5 346 C 265.5 346.398438 265.65625 346.78125 265.9375 347.0625 C 266.21875 347.34375 266.601562 347.5 267 347.5 C 267.398438 347.5 267.78125 347.34375 268.0625 347.0625 C 268.34375 346.78125 268.5 346.398438 268.5 346 Z M 268.5 346 "/>
<path style=" stroke:none;fill-rule:evenodd;fill:rgb(99.998474%,0%,0%);fill-opacity:1;" d="M 266.5 342 C 266.5 341.601562 266.34375 341.21875 266.0625 340.9375 C 265.78125 340.65625 265.398438 340.5 265 340.5 C 264.601562 340.5 264.21875 340.65625 263.9375 340.9375 C 263.65625 341.21875 263.5 341.601562 263.5 342 C 263.5 342.398438 263.65625 342.78125 263.9375 343.0625 C 264.21875 343.34375 264.601562 343.5 265 343.5 C 265.398438 343.5 265.78125 343.34375 266.0625 343.0625 C 266.34375 342.78125 266.5 342.398438 266.5 342 Z M 266.5 342 "/>
<path style=" stroke:none;fill-rule:evenodd;fill:rgb(99.998474%,0%,0%);fill-opacity:1;" d="M 100.5 332 C 100.5 331.601562 100.34375 331.21875 100.0625 330.9375 C 99.78125 330.65625 99.398438 330.5 99 330.5 C 98.601562 330.5 98.21875 330.65625 97.9375 330.9375 C 97.65625 331.21875 97.5 331.601562 97.5 332 C 97.5 332.398438 97.65625 332.78125 97.9375 333.0625 C 98.21875 333.34375 98.601562 333.5 99 333.5 C 99.398438 333.5 99.78125 333.34375 100.0625 333.0625 C 100.34375 332.78125 100.5 332.398438 100.5 332 Z M 100.5 332 "/>
<path style=" stroke:none;fill-rule:evenodd;fill:rgb(99.998474%,0%,0%);fill-opacity:1;" d="M 162.5 304 C 162.5 303.601562 162.34375 303.21875 162.0625 302.9375 C 161.78125 302.65625 161.398438 302.5 161 302.5 C 160.601562 302.5 160.21875 302.65625 159.9375 302.9375 C 159.65625 303.21875 159.5 303.601562 159.5 304 C 159.5 304.398438 159.65625 304.78125 159.9375 305.0625 C 160.21875 305.34375 160.601562 305.5 161 305.5 C 161.398438 305.5 161.78125 305.34375 162.0625 305.0625 C 162.34375 304.78125 162.5 304.398438 162.5 304 Z M 162.5 304 "/>
<path style=" stroke:none;fill-rule:evenodd;fill:rgb(99.998474%,0%,0%);fill-opacity:1;" d="M 265.5 292 C 265.5 291.601562 265.34375 291.21875 265.0625 290.9375 C 264.78125 290.65625 264.398438 290.5 264 290.5 C 263.601562 290.5 263.21875 290.65625 262.9375 290.9375 C 262.65625 291.21875 262.5 291.601562 262.5 292 C 262.5 292.398438 262.65625 292.78125 262.9375 293.0625 C 263.21875 293.34375 263.601562 293.5 264 293.5 C 264.398438 293.5 264.78125 293.34375 265.0625 293.0625 C 265.34375 292.78125 265.5 292.398438 265.5 292 Z M 265.5 292 "/>
<path style=" stroke:none;fill-rule:evenodd;fill:rgb(99.998474%,0%,0%);fill-opacity:1;" d="M 265.5 291 C 265.5 290.601562 265.34375 290.21875 265.0625 289.9375 C 264.78125 289.65625 264.398438 289.5 264 289.5 C 263.601562 289.5 263.21875 289.65625 262.9375 289.9375 C 262.65625 290.21875 262.5 290.601562 262.5 291 C 262.5 291.398438 262.65625 291.78125 262.9375 292.0625 C 263.21875 292.34375 263.601562 292.5 264 292.5 C 264.398438 292.5 264.78125 292.34375 265.0625 292.0625 C 265.34375 291.78125 265.5 291.398438 265.5 291 Z M 265.5 291 "/>
<path style=" stroke:none;fill-rule:evenodd;fill:rgb(99.998474%,0%,0%);fill-opacity:1;" d="M 265.5 290 C 265.5 289.601562 265.34375 289.21875 265.0625 288.9375 C 264.78125 288.65625 264.398438 288.5 264 288.5 C 263.601562 288.5 263.21875 288.65625 262.9375 288.9375 C 262.65625 289.21875 262.5 289.601562 262.5 290 C 262.5 290.398438 262.65625 290.78125 262.9375 291.0625 C 263.21875 291.34375 263.601562 291.5 264 291.5 C 264.398438 291.5 264.78125 291.34375 265.0625 291.0625 C 265.34375 290.78125 265.5 290.398438 265.5 290 Z M 265.5 290 "/>
<path style=" stroke:none;fill-rule:evenodd;fill:rgb(99.998474%,0%,0%);fill-opacity:1;" d="M 265.5 290 C 265.5 289.601562 265.34375 289.21875 265.0625 288.9375 C 264.78125 288.65625 264.398438 288.5 264 288.5 C 263.601562 288.5 263.21875 288.65625 262.9375 288.9375 C 262.65625 289.21875 262.5 289.601562 262.5 290 C 262.5 290.398438 262.65625 290.78125 262.9375 291.0625 C 263.21875 291.34375 263.601562 291.5 264 291.5 C 264.398438 291.5 264.78125 291.34375 265.0625 291.0625 C 265.34375 290.78125 265.5 290.398438 265.5 290 Z M 265.5 290 "/>
<path style=" stroke:none;fill-rule:evenodd;fill:rgb(99.998474%,0%,0%);fill-opacity:1;" d="M 32.5 283 C 32.5 282.601562 32.34375 282.21875 32.0625 281.9375 C 31.78125 281.65625 31.398438 281.5 31 281.5 C 30.601562 281.5 30.21875 281.65625 29.9375 281.9375 C 29.65625 282.21875 29.5 282.601562 29.5 283 C 29.5 283.398438 29.65625 283.78125 29.9375 284.0625 C 30.21875 284.34375 30.601562 284.5 31 284.5 C 31.398438 284.5 31.78125 284.34375 32.0625 284.0625 C 32.34375 283.78125 32.5 283.398438 32.5 283 Z M 32.5 283 "/>
<path style=" stroke:none;fill-rule:evenodd;fill:rgb(99.998474%,0%,0%);fill-opacity:1;" d="M 32.5 282 C 32.5 281.601562 32.34375 281.21875 32.0625 280.9375 C 31.78125 280.65625 31.398438 280.5 31 280.5 C 30.601562 280.5 30.21875 280.65625 29.9375 280.9375 C 29.65625 281.21875 29.5 281.601562 29.5 282 C 29.5 282.398438 29.65625 282.78125 29.9375 283.0625 C 30.21875 283.34375 30.601562 283.5 31 283.5 C 31.398438 283.5 31.78125 283.34375 32.0625 283.0625 C 32.34375 282.78125 32.5 282.398438 32.5 282 Z M 32.5 282 "/>
<path style=" stroke:none;fill-rule:evenodd;fill:rgb(99.998474%,0%,0%);fill-opacity:1;" d="M 15.5 279 C 15.5 278.601562 15.34375 278.21875 15.0625 277.9375 C 14.78125 277.65625 14.398438 277.5 14 277.5 C 13.601562 277.5 13.21875 277.65625 12.9375 277.9375 C 12.65625 278.21875 12.5 278.601562 12.5 279 C 12.5 279.398438 12.65625 279.78125 12.9375 280.0625 C 13.21875 280.34375 13.601562 280.5 14 280.5 C 14.398438 280.5 14.78125 280.34375 15.0625 280.0625 C 15.34375 279.78125 15.5 279.398438 15.5 279 Z M 15.5 279 "/>
<path style=" stroke:none;fill-rule:evenodd;fill:rgb(99.998474%,0%,0%);fill-opacity:1;" d="M 33.5 277 C 33.5 276.601562 33.34375 276.21875 33.0625 275.9375 C 32.78125 275.65625 32.398438 275.5 32 275.5 C 31.601562 275.5 31.21875 275.65625 30.9375 275.9375 C 30.65625 276.21875 30.5 276.601562 30.5 277 C 30.5 277.398438 30.65625 277.78125 30.9375 278.0625 C 31.21875 278.34375 31.601562 278.5 32 278.5 C 32.398438 278.5 32.78125 278.34375 33.0625 278.0625 C 33.34375 277.78125 33.5 277.398438 33.5 277 Z M 33.5 277 "/>
<path style=" stroke:none;fill-rule:evenodd;fill:rgb(99.998474%,0%,0%);fill-opacity:1;" d="M 17.5 276 C 17.5 275.601562 17.34375 275.21875 17.0625 274.9375 C 16.78125 274.65625 16.398438 274.5 16 274.5 C 15.601562 274.5 15.21875 274.65625 14.9375 274.9375 C 14.65625 275.21875 14.5 275.601562 14.5 276 C 14.5 276.398438 14.65625 276.78125 14.9375 277.0625 C 15.21875 277.34375 15.601562 277.5 16 277.5 C 16.398438 277.5 16.78125 277.34375 17.0625 277.0625 C 17.34375 276.78125 17.5 276.398438 17.5 276 Z M 17.5 276 "/>
<path style=" stroke:none;fill-rule:evenodd;fill:rgb(99.998474%,0%,0%);fill-opacity:1;" d="M 32.5 275 C 32.5 274.601562 32.34375 274.21875 32.0625 273.9375 C 31.78125 273.65625 31.398438 273.5 31 273.5 C 30.601562 273.5 30.21875 273.65625 29.9375 273.9375 C 29.65625 274.21875 29.5 274.601562 29.5 275 C 29.5 275.398438 29.65625 275.78125 29.9375 276.0625 C 30.21875 276.34375 30.601562 276.5 31 276.5 C 31.398438 276.5 31.78125 276.34375 32.0625 276.0625 C 32.34375 275.78125 32.5 275.398438 32.5 275 Z M 32.5 275 "/>
<path style=" stroke:none;fill-rule:evenodd;fill:rgb(99.998474%,0%,0%);fill-opacity:1;" d="M 183.5 257 C 183.5 256.601562 183.34375 256.21875 183.0625 255.9375 C 182.78125 255.65625 182.398438 255.5 182 255.5 C 181.601562 255.5 181.21875 255.65625 180.9375 255.9375 C 180.65625 256.21875 180.5 256.601562 180.5 257 C 180.5 257.398438 180.65625 257.78125 180.9375 258.0625 C 181.21875 258.34375 181.601562 258.5 182 258.5 C 182.398438 258.5 182.78125 258.34375 183.0625 258.0625 C 183.34375 257.78125 183.5 257.398438 183.5 257 Z M 183.5 257 "/>
<path style=" stroke:none;fill-rule:evenodd;fill:rgb(99.998474%,0%,0%);fill-opacity:1;" d="M 181.5 252 C 181.5 251.601562 181.34375 251.21875 181.0625 250.9375 C 180.78125 250.65625 180.398438 250.5 180 250.5 C 179.601562 250.5 179.21875 250.65625 178.9375 250.9375 C 178.65625 251.21875 178.5 251.601562 178.5 252 C 178.5 252.398438 178.65625 252.78125 178.9375 253.0625 C 179.21875 253.34375 179.601562 253.5 180 253.5 C 180.398438 253.5 180.78125 253.34375 181.0625 253.0625 C 181.34375 252.78125 181.5 252.398438 181.5 252 Z M 181.5 252 "/>
<path style=" stroke:none;fill-rule:evenodd;fill:rgb(99.998474%,0%,0%);fill-opacity:1;" d="M 263.5 240 C 263.5 239.601562 263.34375 239.21875 263.0625 238.9375 C 262.78125 238.65625 262.398438 238.5 262 238.5 C 261.601562 238.5 261.21875 238.65625 260.9375 238.9375 C 260.65625 239.21875 260.5 239.601562 260.5 240 C 260.5 240.398438 260.65625 240.78125 260.9375 241.0625 C 261.21875 241.34375 261.601562 241.5 262 241.5 C 262.398438 241.5 262.78125 241.34375 263.0625 241.0625 C 263.34375 240.78125 263.5 240.398438 263.5 240 Z M 263.5 240 "/>
<path style=" stroke:none;fill-rule:evenodd;fill:rgb(99.998474%,0%,0%);fill-opacity:1;" d="M 262.5 239 C 262.5 238.601562 262.34375 238.21875 262.0625 237.9375 C 261.78125 237.65625 261.398438 237.5 261 237.5 C 260.601562 237.5 260.21875 237.65625 259.9375 237.9375 C 259.65625 238.21875 259.5 238.601562 259.5 239 C 259.5 239.398438 259.65625 239.78125 259.9375 240.0625 C 260.21875 240.34375 260.601562 240.5 261 240.5 C 261.398438 240.5 261.78125 240.34375 262.0625 240.0625 C 262.34375 239.78125 262.5 239.398438 262.5 239 Z M 262.5 239 "/>
<path style=" stroke:none;fill-rule:evenodd;fill:rgb(99.998474%,0%,0%);fill-opacity:1;" d="M 330.5 199 C 330.5 198.601562 330.34375 198.21875 330.0625 197.9375 C 329.78125 197.65625 329.398438 197.5 329 197.5 C 328.601562 197.5 328.21875 197.65625 327.9375 197.9375 C 327.65625 198.21875 327.5 198.601562 327.5 199 C 327.5 199.398438 327.65625 199.78125 327.9375 200.0625 C 328.21875 200.34375 328.601562 200.5 329 200.5 C 329.398438 200.5 329.78125 200.34375 330.0625 200.0625 C 330.34375 199.78125 330.5 199.398438 330.5 199 Z M 330.5 199 "/>
<path style=" stroke:none;fill-rule:evenodd;fill:rgb(99.998474%,0%,0%);fill-opacity:1;" d="M 280.5 196 C 280.5 195.601562 280.34375 195.21875 280.0625 194.9375 C 279.78125 194.65625 279.398438 194.5 279 194.5 C 278.601562 194.5 278.21875 194.65625 277.9375 194.9375 C 277.65625 195.21875 277.5 195.601562 277.5 196 C 277.5 196.398438 277.65625 196.78125 277.9375 197.0625 C 278.21875 197.34375 278.601562 197.5 279 197.5 C 279.398438 197.5 279.78125 197.34375 280.0625 197.0625 C 280.34375 196.78125 280.5 196.398438 280.5 196 Z M 280.5 196 "/>
<path style=" stroke:none;fill-rule:evenodd;fill:rgb(99.998474%,0%,0%);fill-opacity:1;" d="M 329.5 196 C 329.5 195.601562 329.34375 195.21875 329.0625 194.9375 C 328.78125 194.65625 328.398438 194.5 328 194.5 C 327.601562 194.5 327.21875 194.65625 326.9375 194.9375 C 326.65625 195.21875 326.5 195.601562 326.5 196 C 326.5 196.398438 326.65625 196.78125 326.9375 197.0625 C 327.21875 197.34375 327.601562 197.5 328 197.5 C 328.398438 197.5 328.78125 197.34375 329.0625 197.0625 C 329.34375 196.78125 329.5 196.398438 329.5 196 Z M 329.5 196 "/>
<path style=" stroke:none;fill-rule:evenodd;fill:rgb(99.998474%,0%,0%);fill-opacity:1;" d="M 279.5 192 C 279.5 191.601562 279.34375 191.21875 279.0625 190.9375 C 278.78125 190.65625 278.398438 190.5 278 190.5 C 277.601562 190.5 277.21875 190.65625 276.9375 190.9375 C 276.65625 191.21875 276.5 191.601562 276.5 192 C 276.5 192.398438 276.65625 192.78125 276.9375 193.0625 C 277.21875 193.34375 277.601562 193.5 278 193.5 C 278.398438 193.5 278.78125 193.34375 279.0625 193.0625 C 279.34375 192.78125 279.5 192.398438 279.5 192 Z M 279.5 192 "/>
<path style=" stroke:none;fill-rule:evenodd;fill:rgb(99.998474%,0%,0%);fill-opacity:1;" d="M 273.5 192 C 273.5 191.601562 273.34375 191.21875 273.0625 190.9375 C 272.78125 190.65625 272.398438 190.5 272 190.5 C 271.601562 190.5 271.21875 190.65625 270.9375 190.9375 C 270.65625 191.21875 270.5 191.601562 270.5 192 C 270.5 192.398438 270.65625 192.78125 270.9375 193.0625 C 271.21875 193.34375 271.601562 193.5 272 193.5 C 272.398438 193.5 272.78125 193.34375 273.0625 193.0625 C 273.34375 192.78125 273.5 192.398438 273.5 192 Z M 273.5 192 "/>
<path style=" stroke:none;fill-rule:evenodd;fill:rgb(99.998474%,0%,0%);fill-opacity:1;" d="M 278.5 189 C 278.5 188.601562 278.34375 188.21875 278.0625 187.9375 C 277.78125 187.65625 277.398438 187.5 277 187.5 C 276.601562 187.5 276.21875 187.65625 275.9375 187.9375 C 275.65625 188.21875 275.5 188.601562 275.5 189 C 275.5 189.398438 275.65625 189.78125 275.9375 190.0625 C 276.21875 190.34375 276.601562 190.5 277 190.5 C 277.398438 190.5 277.78125 190.34375 278.0625 190.0625 C 278.34375 189.78125 278.5 189.398438 278.5 189 Z M 278.5 189 "/>
<path style=" stroke:none;fill-rule:evenodd;fill:rgb(99.998474%,0%,0%);fill-opacity:1;" d="M 225.5 159 C 225.5 158.601562 225.34375 158.21875 225.0625 157.9375 C 224.78125 157.65625 224.398438 157.5 224 157.5 C 223.601562 157.5 223.21875 157.65625 222.9375 157.9375 C 222.65625 158.21875 222.5 158.601562 222.5 159 C 222.5 159.398438 222.65625 159.78125 222.9375 160.0625 C 223.21875 160.34375 223.601562 160.5 224 160.5 C 224.398438 160.5 224.78125 160.34375 225.0625 160.0625 C 225.34375 159.78125 225.5 159.398438 225.5 159 Z M 225.5 159 "/>
<path style=" stroke:none;fill-rule:evenodd;fill:rgb(99.998474%,0%,0%);fill-opacity:1;" d="M 226.5 159 C 226.5 158.601562 226.34375 158.21875 226.0625 157.9375 C 225.78125 157.65625 225.398438 157.5 225 157.5 C 224.601562 157.5 224.21875 157.65625 223.9375 157.9375 C 223.65625 158.21875 223.5 158.601562 223.5 159 C 223.5 159.398438 223.65625 159.78125 223.9375 160.0625 C 224.21875 160.34375 224.601562 160.5 225 160.5 C 225.398438 160.5 225.78125 160.34375 226.0625 160.0625 C 226.34375 159.78125 226.5 159.398438 226.5 159 Z M 226.5 159 "/>
<path style=" stroke:none;fill-rule:evenodd;fill:rgb(99.998474%,0%,0%);fill-opacity:1;" d="M 226.5 159 C 226.5 158.601562 226.34375 158.21875 226.0625 157.9375 C 225.78125 157.65625 225.398438 157.5 225 157.5 C 224.601562 157.5 224.21875 157.65625 223.9375 157.9375 C 223.65625 158.21875 223.5 158.601562 223.5 159 C 223.5 159.398438 223.65625 159.78125 223.9375 160.0625 C 224.21875 160.34375 224.601562 160.5 225 160.5 C 225.398438 160.5 225.78125 160.34375 226.0625 160.0625 C 226.34375 159.78125 226.5 159.398438 226.5 159 Z M 226.5 159 "/>
<path style=" stroke:none;fill-rule:evenodd;fill:rgb(99.998474%,0%,0%);fill-opacity:1;" d="M 232.5 156 C 232.5 155.601562 232.34375 155.21875 232.0625 154.9375 C 231.78125 154.65625 231.398438 154.5 231 154.5 C 230.601562 154.5 230.21875 154.65625 229.9375 154.9375 C 229.65625 155.21875 229.5 155.601562 229.5 156 C 229.5 156.398438 229.65625 156.78125 229.9375 157.0625 C 230.21875 157.34375 230.601562 157.5 231 157.5 C 231.398438 157.5 231.78125 157.34375 232.0625 157.0625 C 232.34375 156.78125 232.5 156.398438 232.5 156 Z M 232.5 156 "/>
<path style=" stroke:none;fill-rule:evenodd;fill:rgb(99.998474%,0%,0%);fill-opacity:1;" d="M 259.5 128 C 259.5 127.601562 259.34375 127.21875 259.0625 126.9375 C 258.78125 126.65625 258.398438 126.5 258 126.5 C 257.601562 126.5 257.21875 126.65625 256.9375 126.9375 C 256.65625 127.21875 256.5 127.601562 256.5 128 C 256.5 128.398438 256.65625 128.78125 256.9375 129.0625 C 257.21875 129.34375 257.601562 129.5 258 129.5 C 258.398438 129.5 258.78125 129.34375 259.0625 129.0625 C 259.34375 128.78125 259.5 128.398438 259.5 128 Z M 259.5 128 "/>
<path style=" stroke:none;fill-rule:evenodd;fill:rgb(99.998474%,0%,0%);fill-opacity:1;" d="M 97.5 125 C 97.5 124.601562 97.34375 124.21875 97.0625 123.9375 C 96.78125 123.65625 96.398438 123.5 96 123.5 C 95.601562 123.5 95.21875 123.65625 94.9375 123.9375 C 94.65625 124.21875 94.5 124.601562 94.5 125 C 94.5 125.398438 94.65625 125.78125 94.9375 126.0625 C 95.21875 126.34375 95.601562 126.5 96 126.5 C 96.398438 126.5 96.78125 126.34375 97.0625 126.0625 C 97.34375 125.78125 97.5 125.398438 97.5 125 Z M 97.5 125 "/>
<path style=" stroke:none;fill-rule:evenodd;fill:rgb(99.998474%,0%,0%);fill-opacity:1;" d="M 162.5 81 C 162.5 80.601562 162.34375 80.21875 162.0625 79.9375 C 161.78125 79.65625 161.398438 79.5 161 79.5 C 160.601562 79.5 160.21875 79.65625 159.9375 79.9375 C 159.65625 80.21875 159.5 80.601562 159.5 81 C 159.5 81.398438 159.65625 81.78125 159.9375 82.0625 C 160.21875 82.34375 160.601562 82.5 161 82.5 C 161.398438 82.5 161.78125 82.34375 162.0625 82.0625 C 162.34375 81.78125 162.5 81.398438 162.5 81 Z M 162.5 81 "/>
<path style=" stroke:none;fill-rule:evenodd;fill:rgb(99.998474%,0%,0%);fill-opacity:1;" d="M 166.5 81 C 166.5 80.601562 166.34375 80.21875 166.0625 79.9375 C 165.78125 79.65625 165.398438 79.5 165 79.5 C 164.601562 79.5 164.21875 79.65625 163.9375 79.9375 C 163.65625 80.21875 163.5 80.601562 163.5 81 C 163.5 81.398438 163.65625 81.78125 163.9375 82.0625 C 164.21875 82.34375 164.601562 82.5 165 82.5 C 165.398438 82.5 165.78125 82.34375 166.0625 82.0625 C 166.34375 81.78125 166.5 81.398438 166.5 81 Z M 166.5 81 "/>
<path style=" stroke:none;fill-rule:evenodd;fill:rgb(99.998474%,0%,0%);fill-opacity:1;" d="M 165.5 81 C 165.5 80.601562 165.34375 80.21875 165.0625 79.9375 C 164.78125 79.65625 164.398438 79.5 164 79.5 C 163.601562 79.5 163.21875 79.65625 162.9375 79.9375 C 162.65625 80.21875 162.5 80.601562 162.5 81 C 162.5 81.398438 162.65625 81.78125 162.9375 82.0625 C 163.21875 82.34375 163.601562 82.5 164 82.5 C 164.398438 82.5 164.78125 82.34375 165.0625 82.0625 C 165.34375 81.78125 165.5 81.398438 165.5 81 Z M 165.5 81 "/>
<path style=" stroke:none;fill-rule:evenodd;fill:rgb(99.998474%,0%,0%);fill-opacity:1;" d="M 167.5 79 C 167.5 78.601562 167.34375 78.21875 167.0625 77.9375 C 166.78125 77.65625 166.398438 77.5 166 77.5 C 165.601562 77.5 165.21875 77.65625 164.9375 77.9375 C 164.65625 78.21875 164.5 78.601562 164.5 79 C 164.5 79.398438 164.65625 79.78125 164.9375 80.0625 C 165.21875 80.34375 165.601562 80.5 166 80.5 C 166.398438 80.5 166.78125 80.34375 167.0625 80.0625 C 167.34375 79.78125 167.5 79.398438 167.5 79 Z M 167.5 79 "/>
<path style=" stroke:none;fill-rule:evenodd;fill:rgb(99.998474%,0%,0%);fill-opacity:1;" d="M 348.5 77 C 348.5 76.601562 348.34375 76.21875 348.0625 75.9375 C 347.78125 75.65625 347.398438 75.5 347 75.5 C 346.601562 75.5 346.21875 75.65625 345.9375 75.9375 C 345.65625 76.21875 345.5 76.601562 345.5 77 C 345.5 77.398438 345.65625 77.78125 345.9375 78.0625 C 346.21875 78.34375 346.601562 78.5 347 78.5 C 347.398438 78.5 347.78125 78.34375 348.0625 78.0625 C 348.34375 77.78125 348.5 77.398438 348.5 77 Z M 348.5 77 "/>
<path style=" stroke:none;fill-rule:evenodd;fill:rgb(99.998474%,0%,0%);fill-opacity:1;" d="M 347.5 77 C 347.5 76.601562 347.34375 76.21875 347.0625 75.9375 C 346.78125 75.65625 346.398438 75.5 346 75.5 C 345.601562 75.5 345.21875 75.65625 344.9375 75.9375 C 344.65625 76.21875 344.5 76.601562 344.5 77 C 344.5 77.398438 344.65625 77.78125 344.9375 78.0625 C 345.21875 78.34375 345.601562 78.5 346 78.5 C 346.398438 78.5 346.78125 78.34375 347.0625 78.0625 C 347.34375 77.78125 347.5 77.398438 347.5 77 Z M 347.5 77 "/>
<path style=" stroke:none;fill-rule:evenodd;fill:rgb(99.998474%,0%,0%);fill-opacity:1;" d="M 301.5 71 C 301.5 70.601562 301.34375 70.21875 301.0625 69.9375 C 300.78125 69.65625 300.398438 69.5 300 69.5 C 299.601562 69.5 299.21875 69.65625 298.9375 69.9375 C 298.65625 70.21875 298.5 70.601562 298.5 71 C 298.5 71.398438 298.65625 71.78125 298.9375 72.0625 C 299.21875 72.34375 299.601562 72.5 300 72.5 C 300.398438 72.5 300.78125 72.34375 301.0625 72.0625 C 301.34375 71.78125 301.5 71.398438 301.5 71 Z M 301.5 71 "/>
<path style=" stroke:none;fill-rule:evenodd;fill:rgb(99.998474%,0%,0%);fill-opacity:1;" d="M 177.5 21 C 177.5 20.601562 177.34375 20.21875 177.0625 19.9375 C 176.78125 19.65625 176.398438 19.5 176 19.5 C 175.601562 19.5 175.21875 19.65625 174.9375 19.9375 C 174.65625 20.21875 174.5 20.601562 174.5 21 C 174.5 21.398438 174.65625 21.78125 174.9375 22.0625 C 175.21875 22.34375 175.601562 22.5 176 22.5 C 176.398438 22.5 176.78125 22.34375 177.0625 22.0625 C 177.34375 21.78125 177.5 21.398438 177.5 21 Z M 177.5 21 "/>
<path style=" stroke:none;fill-rule:evenodd;fill:rgb(99.998474%,0%,0%);fill-opacity:1;" d="M 178.5 18 C 178.5 17.601562 178.34375 17.21875 178.0625 16.9375 C 177.78125 16.65625 177.398438 16.5 177 16.5 C 176.601562 16.5 176.21875 16.65625 175.9375 16.9375 C 175.65625 17.21875 175.5 17.601562 175.5 18 C 175.5 18.398438 175.65625 18.78125 175.9375 19.0625 C 176.21875 19.34375 176.601562 19.5 177 19.5 C 177.398438 19.5 177.78125 19.34375 178.0625 19.0625 C 178.34375 18.78125 178.5 18.398438 178.5 18 Z M 178.5 18 "/>
</g>
</svg>
