<?xml version="1.0" encoding="UTF-8"?>
<svg xmlns="http://www.w3.org/2000/svg" xmlns:xlink="http://www.w3.org/1999/xlink" width="353pt" height="301pt" viewBox="0 0 353 301" version="1.1">
<g id="surface641">
<path style="fill-rule:nonzero;fill:rgb(84.999084%,84.999084%,84.999084%);fill-opacity:0.6;stroke-width:1;stroke-linecap:square;stroke-linejoin:miter;stroke:rgb(50%,50%,50%);stroke-opacity:1;stroke-miterlimit:3.25;" d="M 243.292969 195.667969 L 221.136719 103.839844 L 240.007813 266.011719 Z M 243.292969 195.667969 " transform="matrix(1,0,0,1,-74,-13)"/>
<path style="fill-rule:nonzero;fill:rgb(84.999084%,84.999084%,84.999084%);fill-opacity:0.6;stroke-width:1;stroke-linecap:square;stroke-linejoin:miter;stroke:rgb(50%,50%,50%);stroke-opacity:1;stroke-miterlimit:3.25;" d="M 221.136719 103.839844 L 243.292969 195.667969 L 236.859375 140.648438 Z M 221.136719 103.839844 " transform="matrix(1,0,0,1,-74,-13)"/>
<path style="fill-rule:nonzero;fill:rgb(84.999084%,84.999084%,84.999084%);fill-opacity:0.6;stroke-width:1;stroke-linecap:square;stroke-linejoin:miter;stroke:rgb(50%,50%,50%);stroke-opacity:1;stroke-miterlimit:3.25;" d="M 243.292969 195.667969 L 287.101563 143.664063 L 236.859375 140.648438 Z M 243.292969 195.667969 " transform="matrix(1,0,0,1,-74,-13)"/>
<path style="fill-rule:nonzero;fill:rgb(84.999084%,84.999084%,84.999084%);fill-opacity:0.6;stroke-width:1;stroke-linecap:square;stroke-linejoin:miter;stroke:rgb(50%,50%,50%);stroke-opacity:1;stroke-miterlimit:3.25;" d="M 294.066406 302.609375 L 287.101563 143.664063 L 243.292969 195.667969 Z M 294.066406 302.609375 " transform="matrix(1,0,0,1,-74,-13)"/>
<path style="fill-rule:nonzero;fill:rgb(84.999084%,84.999084%,84.999084%);fill-opacity:0.6;stroke-width:1;stroke-linecap:square;stroke-linejoin:miter;stroke:rgb(50%,50%,50%);stroke-opacity:1;stroke-miterlimit:3.25;" d="M 243.292969 195.667969 L 240.007813 266.011719 L 294.066406 302.609375 Z M 243.292969 195.667969 " transform="matrix(1,0,0,1,-74,-13)"/>
<path style="fill-rule:nonzero;fill:rgb(84.999084%,84.999084%,84.999084%);fill-opacity:0.6;stroke-width:1;stroke-linecap:square;stroke-linejoin:miter;stroke:rgb(50%,50%,50%);stroke-opacity:1;stroke-miterlimit:3.25;" d="M 236.859375 140.648438 L 287.101563 143.664063 L 231.550781 101.457031 Z M 236.859375 140.648438 " transform="matrix(1,0,0,1,-74,-13)"/>
<path style="fill-rule:nonzero;fill:rgb(84.999084%,84.999084%,84.999084%);fill-opacity:0.6;stroke-width:1;stroke-linecap:square;stroke-linejoin:miter;stroke:rgb(50%,50%,50%);stroke-opacity:1;stroke-miterlimit:3.25;" d="M 221.136719 103.839844 L 229.449219 102.886719 L 231.550781 101.457031 Z M 221.136719 103.839844 " transform="matrix(1,0,0,1,-74,-13)"/>
<path style="fill-rule:nonzero;fill:rgb(84.999084%,84.999084%,84.999084%);fill-opacity:0.6;stroke-width:1;stroke-linecap:square;stroke-linejoin:miter;stroke:rgb(50%,50%,50%);stroke-opacity:1;stroke-miterlimit:3.25;" d="M 229.449219 102.886719 L 221.136719 103.839844 L 236.859375 140.648438 Z M 229.449219 102.886719 " transform="matrix(1,0,0,1,-74,-13)"/>
<path style="fill-rule:nonzero;fill:rgb(84.999084%,84.999084%,84.999084%);fill-opacity:0.6;stroke-width:1;stroke-linecap:square;stroke-linejoin:miter;stroke:rgb(50%,50%,50%);stroke-opacity:1;stroke-miterlimit:3.25;" d="M 231.550781 101.457031 L 263.171875 55.820313 L 250.066406 38.523438 Z M 231.550781 101.457031 " transform="matrix(1,0,0,1,-74,-13)"/>
<path style="fill-rule:nonzero;fill:rgb(84.999084%,84.999084%,84.999084%);fill-opacity:0.6;stroke-width:1;stroke-linecap:square;stroke-linejoin:miter;stroke:rgb(50%,50%,50%);stroke-opacity:1;stroke-miterlimit:3.25;" d="M 263.171875 55.820313 L 231.550781 101.457031 L 287.101563 143.664063 Z M 263.171875 55.820313 " transform="matrix(1,0,0,1,-74,-13)"/>
<path style="fill-rule:nonzero;fill:rgb(84.999084%,84.999084%,84.999084%);fill-opacity:0.6;stroke-width:1;stroke-linecap:square;stroke-linejoin:miter;stroke:rgb(50%,50%,50%);stroke-opacity:1;stroke-miterlimit:3.25;" d="M 250.066406 38.523438 L 263.171875 55.820313 L 309.027344 58.1875 Z M 250.066406 38.523438 " transform="matrix(1,0,0,1,-74,-13)"/>
<path style="fill-rule:nonzero;fill:rgb(84.999084%,84.999084%,84.999084%);fill-opacity:0.6;stroke-width:1;stroke-linecap:square;stroke-linejoin:miter;stroke:rgb(50%,50%,50%);stroke-opacity:1;stroke-miterlimit:3.25;" d="M 231.550781 101.457031 L 250.066406 38.523438 L 221.136719 103.839844 Z M 231.550781 101.457031 " transform="matrix(1,0,0,1,-74,-13)"/>
<path style="fill-rule:nonzero;fill:rgb(84.999084%,84.999084%,84.999084%);fill-opacity:0.6;stroke-width:1;stroke-linecap:square;stroke-linejoin:miter;stroke:rgb(50%,50%,50%);stroke-opacity:1;stroke-miterlimit:3.25;" d="M 229.449219 102.886719 L 236.859375 140.648438 L 231.550781 101.457031 Z M 229.449219 102.886719 " transform="matrix(1,0,0,1,-74,-13)"/>
<path style="fill-rule:nonzero;fill:rgb(84.999084%,84.999084%,84.999084%);fill-opacity:0.6;stroke-width:1;stroke-linecap:square;stroke-linejoin:miter;stroke:rgb(50%,50%,50%);stroke-opacity:1;stroke-miterlimit:3.25;" d="M 287.101563 143.664063 L 309.027344 58.1875 L 263.171875 55.820313 Z M 287.101563 143.664063 " transform="matrix(1,0,0,1,-74,-13)"/>
<path style="fill-rule:nonzero;fill:rgb(84.999084%,84.999084%,84.999084%);fill-opacity:0.6;stroke-width:1;stroke-linecap:square;stroke-linejoin:miter;stroke:rgb(50%,50%,50%);stroke-opacity:1;stroke-miterlimit:3.25;" d="M 294.066406 302.609375 L 334.898438 312.308594 L 407.425781 262.980469 Z M 294.066406 302.609375 " transform="matrix(1,0,0,1,-74,-13)"/>
<path style="fill-rule:nonzero;fill:rgb(84.999084%,84.999084%,84.999084%);fill-opacity:0.6;stroke-width:1;stroke-linecap:square;stroke-linejoin:miter;stroke:rgb(50%,50%,50%);stroke-opacity:1;stroke-miterlimit:3.25;" d="M 407.425781 262.980469 L 424.746094 285.949219 L 407.824219 262.699219 Z M 407.425781 262.980469 " transform="matrix(1,0,0,1,-74,-13)"/>
<path style="fill-rule:nonzero;fill:rgb(84.999084%,84.999084%,84.999084%);fill-opacity:0.6;stroke-width:1;stroke-linecap:square;stroke-linejoin:miter;stroke:rgb(50%,50%,50%);stroke-opacity:1;stroke-miterlimit:3.25;" d="M 424.746094 285.949219 L 407.425781 262.980469 L 334.898438 312.308594 Z M 424.746094 285.949219 " transform="matrix(1,0,0,1,-74,-13)"/>
<path style="fill-rule:nonzero;fill:rgb(84.999084%,84.999084%,84.999084%);fill-opacity:0.6;stroke-width:1;stroke-linecap:square;stroke-linejoin:miter;stroke:rgb(50%,50%,50%);stroke-opacity:1;stroke-miterlimit:3.25;" d="M 407.824219 262.699219 L 287.101563 143.664063 L 407.425781 262.980469 Z M 407.824219 262.699219 " transform="matrix(1,0,0,1,-74,-13)"/>
<path style="fill-rule:nonzero;fill:rgb(84.999084%,84.999084%,84.999084%);fill-opacity:0.6;stroke-width:1;stroke-linecap:square;stroke-linejoin:miter;stroke:rgb(50%,50%,50%);stroke-opacity:1;stroke-miterlimit:3.25;" d="M 309.027344 58.1875 L 355.570313 98.5 L 410.601563 96.605469 Z M 309.027344 58.1875 " transform="matrix(1,0,0,1,-74,-13)"/>
<path style="fill-rule:nonzero;fill:rgb(84.999084%,84.999084%,84.999084%);fill-opacity:0.6;stroke-width:1;stroke-linecap:square;stroke-linejoin:miter;stroke:rgb(50%,50%,50%);stroke-opacity:1;stroke-miterlimit:3.25;" d="M 287.101563 143.664063 L 355.570313 98.5 L 309.027344 58.1875 Z M 287.101563 143.664063 " transform="matrix(1,0,0,1,-74,-13)"/>
<path style="fill-rule:nonzero;fill:rgb(84.999084%,84.999084%,84.999084%);fill-opacity:0.6;stroke-width:1;stroke-linecap:square;stroke-linejoin:miter;stroke:rgb(50%,50%,50%);stroke-opacity:1;stroke-miterlimit:3.25;" d="M 407.824219 262.699219 L 423.144531 258.582031 L 410.601563 96.605469 Z M 407.824219 262.699219 " transform="matrix(1,0,0,1,-74,-13)"/>
<path style="fill-rule:nonzero;fill:rgb(84.999084%,84.999084%,84.999084%);fill-opacity:0.6;stroke-width:1;stroke-linecap:square;stroke-linejoin:miter;stroke:rgb(50%,50%,50%);stroke-opacity:1;stroke-miterlimit:3.25;" d="M 423.144531 258.582031 L 407.824219 262.699219 L 424.746094 285.949219 Z M 423.144531 258.582031 " transform="matrix(1,0,0,1,-74,-13)"/>
<path style="fill-rule:nonzero;fill:rgb(84.999084%,84.999084%,84.999084%);fill-opacity:0.6;stroke-width:1;stroke-linecap:square;stroke-linejoin:miter;stroke:rgb(50%,50%,50%);stroke-opacity:1;stroke-miterlimit:3.25;" d="M 407.824219 262.699219 L 410.601563 96.605469 L 355.570313 98.5 Z M 407.824219 262.699219 " transform="matrix(1,0,0,1,-74,-13)"/>
<path style="fill-rule:nonzero;fill:rgb(84.999084%,84.999084%,84.999084%);fill-opacity:0.6;stroke-width:1;stroke-linecap:square;stroke-linejoin:miter;stroke:rgb(50%,50%,50%);stroke-opacity:1;stroke-miterlimit:3.25;" d="M 407.824219 262.699219 L 355.570313 98.5 L 287.101563 143.664063 Z M 407.824219 262.699219 " transform="matrix(1,0,0,1,-74,-13)"/>
<path style="fill-rule:nonzero;fill:rgb(84.999084%,84.999084%,84.999084%);fill-opacity:0.6;stroke-width:1;stroke-linecap:square;stroke-linejoin:miter;stroke:rgb(50%,50%,50%);stroke-opacity:1;stroke-miterlimit:3.25;" d="M 287.101563 143.664063 L 294.066406 302.609375 L 407.425781 262.980469 Z M 287.101563 143.664063 " transform="matrix(1,0,0,1,-74,-13)"/>
<path style=" stroke:none;fill-rule:evenodd;fill:rgb(99.998474%,0%,0%);fill-opacity:0.6;" d="M 262.789063 299 C 262.789063 298.523438 262.601563 298.070313 262.265625 297.734375 C 261.929688 297.398438 261.476563 297.210938 261 297.210938 C 260.523438 297.210938 260.070313 297.398438 259.734375 297.734375 C 259.398438 298.070313 259.210938 298.523438 259.210938 299 C 259.210938 299.476563 259.398438 299.929688 259.734375 300.265625 C 260.070313 300.601563 260.523438 300.789063 261 300.789063 C 261.476563 300.789063 261.929688 300.601563 262.265625 300.265625 C 262.601563 299.929688 262.789063 299.476563 262.789063 299 Z M 262.789063 299 "/>
<path style=" stroke:none;fill-rule:evenodd;fill:rgb(99.998474%,0%,0%);fill-opacity:0.6;" d="M 221.789063 290 C 221.789063 289.523438 221.601563 289.070313 221.265625 288.734375 C 220.929688 288.398438 220.476563 288.210938 220 288.210938 C 219.523438 288.210938 219.070313 288.398438 218.734375 288.734375 C 218.398438 289.070313 218.210938 289.523438 218.210938 290 C 218.210938 290.476563 218.398438 290.929688 218.734375 291.265625 C 219.070313 291.601563 219.523438 291.789063 220 291.789063 C 220.476563 291.789063 220.929688 291.601563 221.265625 291.265625 C 221.601563 290.929688 221.789063 290.476563 221.789063 290 Z M 221.789063 290 "/>
<path style=" stroke:none;fill-rule:evenodd;fill:rgb(99.998474%,0%,0%);fill-opacity:0.6;" d="M 352.789063 273 C 352.789063 272.523438 352.601563 272.070313 352.265625 271.734375 C 351.929688 271.398438 351.476563 271.210938 351 271.210938 C 350.523438 271.210938 350.070313 271.398438 349.734375 271.734375 C 349.398438 272.070313 349.210938 272.523438 349.210938 273 C 349.210938 273.476563 349.398438 273.929688 349.734375 274.265625 C 350.070313 274.601563 350.523438 274.789063 351 274.789063 C 351.476563 274.789063 351.929688 274.601563 352.265625 274.265625 C 352.601563 273.929688 352.789063 273.476563 352.789063 273 Z M 352.789063 273 "/>
<path style=" stroke:none;fill-rule:evenodd;fill:rgb(99.998474%,0%,0%);fill-opacity:0.6;" d="M 167.789063 253 C 167.789063 252.523438 167.601563 252.070313 167.265625 251.734375 C 166.929688 251.398438 166.476563 251.210938 166 251.210938 C 165.523438 251.210938 165.070313 251.398438 164.734375 251.734375 C 164.398438 252.070313 164.210938 252.523438 164.210938 253 C 164.210938 253.476563 164.398438 253.929688 164.734375 254.265625 C 165.070313 254.601563 165.523438 254.789063 166 254.789063 C 166.476563 254.789063 166.929688 254.601563 167.265625 254.265625 C 167.601563 253.929688 167.789063 253.476563 167.789063 253 Z M 167.789063 253 "/>
<path style=" stroke:none;fill-rule:evenodd;fill:rgb(99.998474%,0%,0%);fill-opacity:0.6;" d="M 334.789063 250 C 334.789063 249.523438 334.601563 249.070313 334.265625 248.734375 C 333.929688 248.398438 333.476563 248.210938 333 248.210938 C 332.523438 248.210938 332.070313 248.398438 331.734375 248.734375 C 331.398438 249.070313 331.210938 249.523438 331.210938 250 C 331.210938 250.476563 331.398438 250.929688 331.734375 251.265625 C 332.070313 251.601563 332.523438 251.789063 333 251.789063 C 333.476563 251.789063 333.929688 251.601563 334.265625 251.265625 C 334.601563 250.929688 334.789063 250.476563 334.789063 250 Z M 334.789063 250 "/>
<path style=" stroke:none;fill-rule:evenodd;fill:rgb(99.998474%,0%,0%);fill-opacity:0.6;" d="M 335.789063 250 C 335.789063 249.523438 335.601563 249.070313 335.265625 248.734375 C 334.929688 248.398438 334.476563 248.210938 334 248.210938 C 333.523438 248.210938 333.070313 248.398438 332.734375 248.734375 C 332.398438 249.070313 332.210938 249.523438 332.210938 250 C 332.210938 250.476563 332.398438 250.929688 332.734375 251.265625 C 333.070313 251.601563 333.523438 251.789063 334 251.789063 C 334.476563 251.789063 334.929688 251.601563 335.265625 251.265625 C 335.601563 250.929688 335.789063 250.476563 335.789063 250 Z M 335.789063 250 "/>
<path style=" stroke:none;fill-rule:evenodd;fill:rgb(99.998474%,0%,0%);fill-opacity:0.6;" d="M 350.789063 246 C 350.789063 245.523438 350.601563 245.070313 350.265625 244.734375 C 349.929688 244.398438 349.476563 244.210938 349 244.210938 C 348.523438 244.210938 348.070313 244.398438 347.734375 244.734375 C 347.398438 245.070313 347.210938 245.523438 347.210938 246 C 347.210938 246.476563 347.398438 246.929688 347.734375 247.265625 C 348.070313 247.601563 348.523438 247.789063 349 247.789063 C 349.476563 247.789063 349.929688 247.601563 350.265625 247.265625 C 350.601563 246.929688 350.789063 246.476563 350.789063 246 Z M 350.789063 246 "/>
<path style=" stroke:none;fill-rule:evenodd;fill:rgb(99.998474%,0%,0%);fill-opacity:0.6;" d="M 170.789063 183 C 170.789063 182.523438 170.601563 182.070313 170.265625 181.734375 C 169.929688 181.398438 169.476563 181.210938 169 181.210938 C 168.523438 181.210938 168.070313 181.398438 167.734375 181.734375 C 167.398438 182.070313 167.210938 182.523438 167.210938 183 C 167.210938 183.476563 167.398438 183.929688 167.734375 184.265625 C 168.070313 184.601563 168.523438 184.789063 169 184.789063 C 169.476563 184.789063 169.929688 184.601563 170.265625 184.265625 C 170.601563 183.929688 170.789063 183.476563 170.789063 183 Z M 170.789063 183 "/>
<path style=" stroke:none;fill-rule:evenodd;fill:rgb(99.998474%,0%,0%);fill-opacity:0.6;" d="M 214.789063 131 C 214.789063 130.523438 214.601563 130.070313 214.265625 129.734375 C 213.929688 129.398438 213.476563 129.210938 213 129.210938 C 212.523438 129.210938 212.070313 129.398438 211.734375 129.734375 C 211.398438 130.070313 211.210938 130.523438 211.210938 131 C 211.210938 131.476563 211.398438 131.929688 211.734375 132.265625 C 212.070313 132.601563 212.523438 132.789063 213 132.789063 C 213.476563 132.789063 213.929688 132.601563 214.265625 132.265625 C 214.601563 131.929688 214.789063 131.476563 214.789063 131 Z M 214.789063 131 "/>
<path style=" stroke:none;fill-rule:evenodd;fill:rgb(99.998474%,0%,0%);fill-opacity:0.6;" d="M 164.789063 128 C 164.789063 127.523438 164.601563 127.070313 164.265625 126.734375 C 163.929688 126.398438 163.476563 126.210938 163 126.210938 C 162.523438 126.210938 162.070313 126.398438 161.734375 126.734375 C 161.398438 127.070313 161.210938 127.523438 161.210938 128 C 161.210938 128.476563 161.398438 128.929688 161.734375 129.265625 C 162.070313 129.601563 162.523438 129.789063 163 129.789063 C 163.476563 129.789063 163.929688 129.601563 164.265625 129.265625 C 164.601563 128.929688 164.789063 128.476563 164.789063 128 Z M 164.789063 128 "/>
<path style=" stroke:none;fill-rule:evenodd;fill:rgb(99.998474%,0%,0%);fill-opacity:0.6;" d="M 148.789063 91 C 148.789063 90.523438 148.601563 90.070313 148.265625 89.734375 C 147.929688 89.398438 147.476563 89.210938 147 89.210938 C 146.523438 89.210938 146.070313 89.398438 145.734375 89.734375 C 145.398438 90.070313 145.210938 90.523438 145.210938 91 C 145.210938 91.476563 145.398438 91.929688 145.734375 92.265625 C 146.070313 92.601563 146.523438 92.789063 147 92.789063 C 147.476563 92.789063 147.929688 92.601563 148.265625 92.265625 C 148.601563 91.929688 148.789063 91.476563 148.789063 91 Z M 148.789063 91 "/>
<path style=" stroke:none;fill-rule:evenodd;fill:rgb(99.998474%,0%,0%);fill-opacity:0.6;" d="M 156.789063 90 C 156.789063 89.523438 156.601563 89.070313 156.265625 88.734375 C 155.929688 88.398438 155.476563 88.210938 155 88.210938 C 154.523438 88.210938 154.070313 88.398438 153.734375 88.734375 C 153.398438 89.070313 153.210938 89.523438 153.210938 90 C 153.210938 90.476563 153.398438 90.929688 153.734375 91.265625 C 154.070313 91.601563 154.523438 91.789063 155 91.789063 C 155.476563 91.789063 155.929688 91.601563 156.265625 91.265625 C 156.601563 90.929688 156.789063 90.476563 156.789063 90 Z M 156.789063 90 "/>
<path style=" stroke:none;fill-rule:evenodd;fill:rgb(99.998474%,0%,0%);fill-opacity:0.6;" d="M 159.789063 88 C 159.789063 87.523438 159.601563 87.070313 159.265625 86.734375 C 158.929688 86.398438 158.476563 86.210938 158 86.210938 C 157.523438 86.210938 157.070313 86.398438 156.734375 86.734375 C 156.398438 87.070313 156.210938 87.523438 156.210938 88 C 156.210938 88.476563 156.398438 88.929688 156.734375 89.265625 C 157.070313 89.601563 157.523438 89.789063 158 89.789063 C 158.476563 89.789063 158.929688 89.601563 159.265625 89.265625 C 159.601563 88.929688 159.789063 88.476563 159.789063 88 Z M 159.789063 88 "/>
<path style=" stroke:none;fill-rule:evenodd;fill:rgb(99.998474%,0%,0%);fill-opacity:0.6;" d="M 283.789063 85 C 283.789063 84.523438 283.601563 84.070313 283.265625 83.734375 C 282.929688 83.398438 282.476563 83.210938 282 83.210938 C 281.523438 83.210938 281.070313 83.398438 280.734375 83.734375 C 280.398438 84.070313 280.210938 84.523438 280.210938 85 C 280.210938 85.476563 280.398438 85.929688 280.734375 86.265625 C 281.070313 86.601563 281.523438 86.789063 282 86.789063 C 282.476563 86.789063 282.929688 86.601563 283.265625 86.265625 C 283.601563 85.929688 283.789063 85.476563 283.789063 85 Z M 283.789063 85 "/>
<path style=" stroke:none;fill-rule:evenodd;fill:rgb(99.998474%,0%,0%);fill-opacity:0.6;" d="M 338.789063 84 C 338.789063 83.523438 338.601563 83.070313 338.265625 82.734375 C 337.929688 82.398438 337.476563 82.210938 337 82.210938 C 336.523438 82.210938 336.070313 82.398438 335.734375 82.734375 C 335.398438 83.070313 335.210938 83.523438 335.210938 84 C 335.210938 84.476563 335.398438 84.929688 335.734375 85.265625 C 336.070313 85.601563 336.523438 85.789063 337 85.789063 C 337.476563 85.789063 337.929688 85.601563 338.265625 85.265625 C 338.601563 84.929688 338.789063 84.476563 338.789063 84 Z M 338.789063 84 "/>
<path style=" stroke:none;fill-rule:evenodd;fill:rgb(99.998474%,0%,0%);fill-opacity:0.6;" d="M 236.789063 45 C 236.789063 44.523438 236.601563 44.070313 236.265625 43.734375 C 235.929688 43.398438 235.476563 43.210938 235 43.210938 C 234.523438 43.210938 234.070313 43.398438 233.734375 43.734375 C 233.398438 44.070313 233.210938 44.523438 233.210938 45 C 233.210938 45.476563 233.398438 45.929688 233.734375 46.265625 C 234.070313 46.601563 234.523438 46.789063 235 46.789063 C 235.476563 46.789063 235.929688 46.601563 236.265625 46.265625 C 236.601563 45.929688 236.789063 45.476563 236.789063 45 Z M 236.789063 45 "/>
<path style=" stroke:none;fill-rule:evenodd;fill:rgb(99.998474%,0%,0%);fill-opacity:0.6;" d="M 190.789063 43 C 190.789063 42.523438 190.601563 42.070313 190.265625 41.734375 C 189.929688 41.398438 189.476563 41.210938 189 41.210938 C 188.523438 41.210938 188.070313 41.398438 187.734375 41.734375 C 187.398438 42.070313 187.210938 42.523438 187.210938 43 C 187.210938 43.476563 187.398438 43.929688 187.734375 44.265625 C 188.070313 44.601563 188.523438 44.789063 189 44.789063 C 189.476563 44.789063 189.929688 44.601563 190.265625 44.265625 C 190.601563 43.929688 190.789063 43.476563 190.789063 43 Z M 190.789063 43 "/>
<path style=" stroke:none;fill-rule:evenodd;fill:rgb(99.998474%,0%,0%);fill-opacity:0.6;" d="M 177.789063 26 C 177.789063 25.523438 177.601563 25.070313 177.265625 24.734375 C 176.929688 24.398438 176.476563 24.210938 176 24.210938 C 175.523438 24.210938 175.070313 24.398438 174.734375 24.734375 C 174.398438 25.070313 174.210938 25.523438 174.210938 26 C 174.210938 26.476563 174.398438 26.929688 174.734375 27.265625 C 175.070313 27.601563 175.523438 27.789063 176 27.789063 C 176.476563 27.789063 176.929688 27.601563 177.265625 27.265625 C 177.601563 26.929688 177.789063 26.476563 177.789063 26 Z M 177.789063 26 "/>
<path style=" stroke:none;fill-rule:evenodd;fill:rgb(99.998474%,0%,0%);fill-opacity:1;" d="M 262.5 299 C 262.5 298.601563 262.34375 298.21875 262.0625 297.9375 C 261.78125 297.65625 261.398438 297.5 261 297.5 C 260.601563 297.5 260.21875 297.65625 259.9375 297.9375 C 259.65625 298.21875 259.5 298.601563 259.5 299 C 259.5 299.398438 259.65625 299.78125 259.9375 300.0625 C 260.21875 300.34375 260.601563 300.5 261 300.5 C 261.398438 300.5 261.78125 300.34375 262.0625 300.0625 C 262.34375 299.78125 262.5 299.398438 262.5 299 Z M 262.5 299 "/>
<path style=" stroke:none;fill-rule:evenodd;fill:rgb(99.998474%,0%,0%);fill-opacity:1;" d="M 221.5 290 C 221.5 289.601563 221.34375 289.21875 221.0625 288.9375 C 220.78125 288.65625 220.398438 288.5 220 288.5 C 219.601563 288.5 219.21875 288.65625 218.9375 288.9375 C 218.65625 289.21875 218.5 289.601563 218.5 290 C 218.5 290.398438 218.65625 290.78125 218.9375 291.0625 C 219.21875 291.34375 219.601563 291.5 220 291.5 C 220.398438 291.5 220.78125 291.34375 221.0625 291.0625 C 221.34375 290.78125 221.5 290.398438 221.5 290 Z M 221.5 290 "/>
<path style=" stroke:none;fill-rule:evenodd;fill:rgb(99.998474%,0%,0%);fill-opacity:1;" d="M 352.5 273 C 352.5 272.601563 352.34375 272.21875 352.0625 271.9375 C 351.78125 271.65625 351.398438 271.5 351 271.5 C 350.601563 271.5 350.21875 271.65625 349.9375 271.9375 C 349.65625 272.21875 349.5 272.601563 349.5 273 C 349.5 273.398438 349.65625 273.78125 349.9375 274.0625 C 350.21875 274.34375 350.601563 274.5 351 274.5 C 351.398438 274.5 351.78125 274.34375 352.0625 274.0625 C 352.34375 273.78125 352.5 273.398438 352.5 273 Z M 352.5 273 "/>
<path style=" stroke:none;fill-rule:evenodd;fill:rgb(99.998474%,0%,0%);fill-opacity:1;" d="M 167.5 253 C 167.5 252.601563 167.34375 252.21875 167.0625 251.9375 C 166.78125 251.65625 166.398438 251.5 166 251.5 C 165.601563 251.5 165.21875 251.65625 164.9375 251.9375 C 164.65625 252.21875 164.5 252.601563 164.5 253 C 164.5 253.398438 164.65625 253.78125 164.9375 254.0625 C 165.21875 254.34375 165.601563 254.5 166 254.5 C 166.398438 254.5 166.78125 254.34375 167.0625 254.0625 C 167.34375 253.78125 167.5 253.398438 167.5 253 Z M 167.5 253 "/>
<path style=" stroke:none;fill-rule:evenodd;fill:rgb(99.998474%,0%,0%);fill-opacity:1;" d="M 334.5 250 C 334.5 249.601563 334.34375 249.21875 334.0625 248.9375 C 333.78125 248.65625 333.398438 248.5 333 248.5 C 332.601563 248.5 332.21875 248.65625 331.9375 248.9375 C 331.65625 249.21875 331.5 249.601563 331.5 250 C 331.5 250.398438 331.65625 250.78125 331.9375 251.0625 C 332.21875 251.34375 332.601563 251.5 333 251.5 C 333.398438 251.5 333.78125 251.34375 334.0625 251.0625 C 334.34375 250.78125 334.5 250.398438 334.5 250 Z M 334.5 250 "/>
<path style=" stroke:none;fill-rule:evenodd;fill:rgb(99.998474%,0%,0%);fill-opacity:1;" d="M 335.5 250 C 335.5 249.601563 335.34375 249.21875 335.0625 248.9375 C 334.78125 248.65625 334.398438 248.5 334 248.5 C 333.601563 248.5 333.21875 248.65625 332.9375 248.9375 C 332.65625 249.21875 332.5 249.601563 332.5 250 C 332.5 250.398438 332.65625 250.78125 332.9375 251.0625 C 333.21875 251.34375 333.601563 251.5 334 251.5 C 334.398438 251.5 334.78125 251.34375 335.0625 251.0625 C 335.34375 250.78125 335.5 250.398438 335.5 250 Z M 335.5 250 "/>
<path style=" stroke:none;fill-rule:evenodd;fill:rgb(99.998474%,0%,0%);fill-opacity:1;" d="M 350.5 246 C 350.5 245.601563 350.34375 245.21875 350.0625 244.9375 C 349.78125 244.65625 349.398438 244.5 349 244.5 C 348.601563 244.5 348.21875 244.65625 347.9375 244.9375 C 347.65625 245.21875 347.5 245.601563 347.5 246 C 347.5 246.398438 347.65625 246.78125 347.9375 247.0625 C 348.21875 247.34375 348.601563 247.5 349 247.5 C 349.398438 247.5 349.78125 247.34375 350.0625 247.0625 C 350.34375 246.78125 350.5 246.398438 350.5 246 Z M 350.5 246 "/>
<path style=" stroke:none;fill-rule:evenodd;fill:rgb(99.998474%,0%,0%);fill-opacity:1;" d="M 170.5 183 C 170.5 182.601563 170.34375 182.21875 170.0625 181.9375 C 169.78125 181.65625 169.398438 181.5 169 181.5 C 168.601563 181.5 168.21875 181.65625 167.9375 181.9375 C 167.65625 182.21875 167.5 182.601563 167.5 183 C 167.5 183.398438 167.65625 183.78125 167.9375 184.0625 C 168.21875 184.34375 168.601563 184.5 169 184.5 C 169.398438 184.5 169.78125 184.34375 170.0625 184.0625 C 170.34375 183.78125 170.5 183.398438 170.5 183 Z M 170.5 183 "/>
<path style=" stroke:none;fill-rule:evenodd;fill:rgb(99.998474%,0%,0%);fill-opacity:1;" d="M 214.5 131 C 214.5 130.601563 214.34375 130.21875 214.0625 129.9375 C 213.78125 129.65625 213.398438 129.5 213 129.5 C 212.601563 129.5 212.21875 129.65625 211.9375 129.9375 C 211.65625 130.21875 211.5 130.601563 211.5 131 C 211.5 131.398438 211.65625 131.78125 211.9375 132.0625 C 212.21875 132.34375 212.601563 132.5 213 132.5 C 213.398438 132.5 213.78125 132.34375 214.0625 132.0625 C 214.34375 131.78125 214.5 131.398438 214.5 131 Z M 214.5 131 "/>
<path style=" stroke:none;fill-rule:evenodd;fill:rgb(99.998474%,0%,0%);fill-opacity:1;" d="M 164.5 128 C 164.5 127.601563 164.34375 127.21875 164.0625 126.9375 C 163.78125 126.65625 163.398438 126.5 163 126.5 C 162.601563 126.5 162.21875 126.65625 161.9375 126.9375 C 161.65625 127.21875 161.5 127.601563 161.5 128 C 161.5 128.398438 161.65625 128.78125 161.9375 129.0625 C 162.21875 129.34375 162.601563 129.5 163 129.5 C 163.398438 129.5 163.78125 129.34375 164.0625 129.0625 C 164.34375 128.78125 164.5 128.398438 164.5 128 Z M 164.5 128 "/>
<path style=" stroke:none;fill-rule:evenodd;fill:rgb(99.998474%,0%,0%);fill-opacity:1;" d="M 148.5 91 C 148.5 90.601563 148.34375 90.21875 148.0625 89.9375 C 147.78125 89.65625 147.398438 89.5 147 89.5 C 146.601563 89.5 146.21875 89.65625 145.9375 89.9375 C 145.65625 90.21875 145.5 90.601563 145.5 91 C 145.5 91.398438 145.65625 91.78125 145.9375 92.0625 C 146.21875 92.34375 146.601563 92.5 147 92.5 C 147.398438 92.5 147.78125 92.34375 148.0625 92.0625 C 148.34375 91.78125 148.5 91.398438 148.5 91 Z M 148.5 91 "/>
<path style=" stroke:none;fill-rule:evenodd;fill:rgb(99.998474%,0%,0%);fill-opacity:1;" d="M 156.5 90 C 156.5 89.601563 156.34375 89.21875 156.0625 88.9375 C 155.78125 88.65625 155.398438 88.5 155 88.5 C 154.601563 88.5 154.21875 88.65625 153.9375 88.9375 C 153.65625 89.21875 153.5 89.601563 153.5 90 C 153.5 90.398438 153.65625 90.78125 153.9375 91.0625 C 154.21875 91.34375 154.601563 91.5 155 91.5 C 155.398438 91.5 155.78125 91.34375 156.0625 91.0625 C 156.34375 90.78125 156.5 90.398438 156.5 90 Z M 156.5 90 "/>
<path style=" stroke:none;fill-rule:evenodd;fill:rgb(99.998474%,0%,0%);fill-opacity:1;" d="M 159.5 88 C 159.5 87.601563 159.34375 87.21875 159.0625 86.9375 C 158.78125 86.65625 158.398438 86.5 158 86.5 C 157.601563 86.5 157.21875 86.65625 156.9375 86.9375 C 156.65625 87.21875 156.5 87.601563 156.5 88 C 156.5 88.398438 156.65625 88.78125 156.9375 89.0625 C 157.21875 89.34375 157.601563 89.5 158 89.5 C 158.398438 89.5 158.78125 89.34375 159.0625 89.0625 C 159.34375 88.78125 159.5 88.398438 159.5 88 Z M 159.5 88 "/>
<path style=" stroke:none;fill-rule:evenodd;fill:rgb(99.998474%,0%,0%);fill-opacity:1;" d="M 283.5 85 C 283.5 84.601563 283.34375 84.21875 283.0625 83.9375 C 282.78125 83.65625 282.398438 83.5 282 83.5 C 281.601563 83.5 281.21875 83.65625 280.9375 83.9375 C 280.65625 84.21875 280.5 84.601563 280.5 85 C 280.5 85.398438 280.65625 85.78125 280.9375 86.0625 C 281.21875 86.34375 281.601563 86.5 282 86.5 C 282.398438 86.5 282.78125 86.34375 283.0625 86.0625 C 283.34375 85.78125 283.5 85.398438 283.5 85 Z M 283.5 85 "/>
<path style=" stroke:none;fill-rule:evenodd;fill:rgb(99.998474%,0%,0%);fill-opacity:1;" d="M 338.5 84 C 338.5 83.601563 338.34375 83.21875 338.0625 82.9375 C 337.78125 82.65625 337.398438 82.5 337 82.5 C 336.601563 82.5 336.21875 82.65625 335.9375 82.9375 C 335.65625 83.21875 335.5 83.601563 335.5 84 C 335.5 84.398438 335.65625 84.78125 335.9375 85.0625 C 336.21875 85.34375 336.601563 85.5 337 85.5 C 337.398438 85.5 337.78125 85.34375 338.0625 85.0625 C 338.34375 84.78125 338.5 84.398438 338.5 84 Z M 338.5 84 "/>
<path style=" stroke:none;fill-rule:evenodd;fill:rgb(99.998474%,0%,0%);fill-opacity:1;" d="M 236.5 45 C 236.5 44.601563 236.34375 44.21875 236.0625 43.9375 C 235.78125 43.65625 235.398438 43.5 235 43.5 C 234.601563 43.5 234.21875 43.65625 233.9375 43.9375 C 233.65625 44.21875 233.5 44.601563 233.5 45 C 233.5 45.398438 233.65625 45.78125 233.9375 46.0625 C 234.21875 46.34375 234.601563 46.5 235 46.5 C 235.398438 46.5 235.78125 46.34375 236.0625 46.0625 C 236.34375 45.78125 236.5 45.398438 236.5 45 Z M 236.5 45 "/>
<path style=" stroke:none;fill-rule:evenodd;fill:rgb(99.998474%,0%,0%);fill-opacity:1;" d="M 190.5 43 C 190.5 42.601563 190.34375 42.21875 190.0625 41.9375 C 189.78125 41.65625 189.398438 41.5 189 41.5 C 188.601563 41.5 188.21875 41.65625 187.9375 41.9375 C 187.65625 42.21875 187.5 42.601563 187.5 43 C 187.5 43.398438 187.65625 43.78125 187.9375 44.0625 C 188.21875 44.34375 188.601563 44.5 189 44.5 C 189.398438 44.5 189.78125 44.34375 190.0625 44.0625 C 190.34375 43.78125 190.5 43.398438 190.5 43 Z M 190.5 43 "/>
<path style=" stroke:none;fill-rule:evenodd;fill:rgb(99.998474%,0%,0%);fill-opacity:1;" d="M 177.5 26 C 177.5 25.601563 177.34375 25.21875 177.0625 24.9375 C 176.78125 24.65625 176.398438 24.5 176 24.5 C 175.601563 24.5 175.21875 24.65625 174.9375 24.9375 C 174.65625 25.21875 174.5 25.601563 174.5 26 C 174.5 26.398438 174.65625 26.78125 174.9375 27.0625 C 175.21875 27.34375 175.601563 27.5 176 27.5 C 176.398438 27.5 176.78125 27.34375 177.0625 27.0625 C 177.34375 26.78125 177.5 26.398438 177.5 26 Z M 177.5 26 "/>
</g>
</svg>
