<?xml version="1.0" encoding="UTF-8"?>
<svg xmlns="http://www.w3.org/2000/svg" xmlns:xlink="http://www.w3.org/1999/xlink" width="327pt" height="270pt" viewBox="0 0 327 270" version="1.1">
<g id="surface847">
<path style="fill-rule:nonzero;fill:rgb(84.999084%,84.999084%,84.999084%);fill-opacity:0.6;stroke-width:1;stroke-linecap:square;stroke-linejoin:miter;stroke:rgb(50%,50%,50%);stroke-opacity:1;stroke-miterlimit:3.25;" d="M 138.46875 191.257813 L 136.40625 259.984375 L 138.523438 191.589844 Z M 138.46875 191.257813 " transform="matrix(1,0,0,1,-74,-13)"/>
<path style="fill-rule:nonzero;fill:rgb(84.999084%,84.999084%,84.999084%);fill-opacity:0.6;stroke-width:1;stroke-linecap:square;stroke-linejoin:miter;stroke:rgb(50%,50%,50%);stroke-opacity:1;stroke-miterlimit:3.25;" d="M 138.277344 259.894531 L 136.40625 259.984375 L 384.625 281.265625 Z M 138.277344 259.894531 " transform="matrix(1,0,0,1,-74,-13)"/>
<path style="fill-rule:nonzero;fill:rgb(84.999084%,84.999084%,84.999084%);fill-opacity:0.6;stroke-width:1;stroke-linecap:square;stroke-linejoin:miter;stroke:rgb(50%,50%,50%);stroke-opacity:1;stroke-miterlimit:3.25;" d="M 138.523438 191.589844 L 136.40625 259.984375 L 138.277344 259.894531 Z M 138.523438 191.589844 " transform="matrix(1,0,0,1,-74,-13)"/>
<path style="fill-rule:nonzero;fill:rgb(84.999084%,84.999084%,84.999084%);fill-opacity:0.6;stroke-width:1;stroke-linecap:square;stroke-linejoin:miter;stroke:rgb(50%,50%,50%);stroke-opacity:1;stroke-miterlimit:3.25;" d="M 136.40625 259.984375 L 138.46875 191.257813 L 120.105469 94.597656 Z M 136.40625 259.984375 " transform="matrix(1,0,0,1,-74,-13)"/>
<path style="fill-rule:nonzero;fill:rgb(84.999084%,84.999084%,84.999084%);fill-opacity:0.6;stroke-width:1;stroke-linecap:square;stroke-linejoin:miter;stroke:rgb(50%,50%,50%);stroke-opacity:1;stroke-miterlimit:3.25;" d="M 138.277344 259.894531 L 141.945313 191.085938 L 138.523438 191.589844 Z M 138.277344 259.894531 " transform="matrix(1,0,0,1,-74,-13)"/>
<path style="fill-rule:nonzero;fill:rgb(84.999084%,84.999084%,84.999084%);fill-opacity:0.6;stroke-width:1;stroke-linecap:square;stroke-linejoin:miter;stroke:rgb(50%,50%,50%);stroke-opacity:1;stroke-miterlimit:3.25;" d="M 215.921875 187.652344 L 141.945313 191.085938 L 216.542969 189.878906 Z M 215.921875 187.652344 " transform="matrix(1,0,0,1,-74,-13)"/>
<path style="fill-rule:nonzero;fill:rgb(84.999084%,84.999084%,84.999084%);fill-opacity:0.6;stroke-width:1;stroke-linecap:square;stroke-linejoin:miter;stroke:rgb(50%,50%,50%);stroke-opacity:1;stroke-miterlimit:3.25;" d="M 141.945313 191.085938 L 215.921875 187.652344 L 204.160156 162.625 Z M 141.945313 191.085938 " transform="matrix(1,0,0,1,-74,-13)"/>
<path style="fill-rule:nonzero;fill:rgb(84.999084%,84.999084%,84.999084%);fill-opacity:0.6;stroke-width:1;stroke-linecap:square;stroke-linejoin:miter;stroke:rgb(50%,50%,50%);stroke-opacity:1;stroke-miterlimit:3.25;" d="M 138.523438 191.589844 L 141.945313 191.085938 L 138.46875 191.257813 Z M 138.523438 191.589844 " transform="matrix(1,0,0,1,-74,-13)"/>
<path style="fill-rule:nonzero;fill:rgb(84.999084%,84.999084%,84.999084%);fill-opacity:0.6;stroke-width:1;stroke-linecap:square;stroke-linejoin:miter;stroke:rgb(50%,50%,50%);stroke-opacity:1;stroke-miterlimit:3.25;" d="M 141.945313 191.085938 L 138.277344 259.894531 L 216.542969 189.878906 Z M 141.945313 191.085938 " transform="matrix(1,0,0,1,-74,-13)"/>
<path style="fill-rule:nonzero;fill:rgb(84.999084%,84.999084%,84.999084%);fill-opacity:0.6;stroke-width:1;stroke-linecap:square;stroke-linejoin:miter;stroke:rgb(50%,50%,50%);stroke-opacity:1;stroke-miterlimit:3.25;" d="M 138.46875 191.257813 L 141.945313 191.085938 L 141.242188 186.402344 Z M 138.46875 191.257813 " transform="matrix(1,0,0,1,-74,-13)"/>
<path style="fill-rule:nonzero;fill:rgb(84.999084%,84.999084%,84.999084%);fill-opacity:0.6;stroke-width:1;stroke-linecap:square;stroke-linejoin:miter;stroke:rgb(50%,50%,50%);stroke-opacity:1;stroke-miterlimit:3.25;" d="M 120.320313 94.375 L 120.105469 94.597656 L 204.160156 162.625 Z M 120.320313 94.375 " transform="matrix(1,0,0,1,-74,-13)"/>
<path style="fill-rule:nonzero;fill:rgb(84.999084%,84.999084%,84.999084%);fill-opacity:0.6;stroke-width:1;stroke-linecap:square;stroke-linejoin:miter;stroke:rgb(50%,50%,50%);stroke-opacity:1;stroke-miterlimit:3.25;" d="M 141.242188 186.402344 L 120.105469 94.597656 L 138.46875 191.257813 Z M 141.242188 186.402344 " transform="matrix(1,0,0,1,-74,-13)"/>
<path style="fill-rule:nonzero;fill:rgb(84.999084%,84.999084%,84.999084%);fill-opacity:0.6;stroke-width:1;stroke-linecap:square;stroke-linejoin:miter;stroke:rgb(50%,50%,50%);stroke-opacity:1;stroke-miterlimit:3.25;" d="M 204.160156 162.625 L 120.105469 94.597656 L 141.242188 186.402344 Z M 204.160156 162.625 " transform="matrix(1,0,0,1,-74,-13)"/>
<path style="fill-rule:nonzero;fill:rgb(84.999084%,84.999084%,84.999084%);fill-opacity:0.6;stroke-width:1;stroke-linecap:square;stroke-linejoin:miter;stroke:rgb(50%,50%,50%);stroke-opacity:1;stroke-miterlimit:3.25;" d="M 207.375 163.957031 L 208.953125 164.351563 L 205.304688 163.171875 Z M 207.375 163.957031 " transform="matrix(1,0,0,1,-74,-13)"/>
<path style="fill-rule:nonzero;fill:rgb(84.999084%,84.999084%,84.999084%);fill-opacity:0.6;stroke-width:1;stroke-linecap:square;stroke-linejoin:miter;stroke:rgb(50%,50%,50%);stroke-opacity:1;stroke-miterlimit:3.25;" d="M 205.304688 163.171875 L 215.921875 187.652344 L 207.375 163.957031 Z M 205.304688 163.171875 " transform="matrix(1,0,0,1,-74,-13)"/>
<path style="fill-rule:nonzero;fill:rgb(84.999084%,84.999084%,84.999084%);fill-opacity:0.6;stroke-width:1;stroke-linecap:square;stroke-linejoin:miter;stroke:rgb(50%,50%,50%);stroke-opacity:1;stroke-miterlimit:3.25;" d="M 204.160156 162.625 L 205.304688 163.171875 L 208.953125 164.351563 Z M 204.160156 162.625 " transform="matrix(1,0,0,1,-74,-13)"/>
<path style="fill-rule:nonzero;fill:rgb(84.999084%,84.999084%,84.999084%);fill-opacity:0.6;stroke-width:1;stroke-linecap:square;stroke-linejoin:miter;stroke:rgb(50%,50%,50%);stroke-opacity:1;stroke-miterlimit:3.25;" d="M 204.160156 162.625 L 141.242188 186.402344 L 141.945313 191.085938 Z M 204.160156 162.625 " transform="matrix(1,0,0,1,-74,-13)"/>
<path style="fill-rule:nonzero;fill:rgb(84.999084%,84.999084%,84.999084%);fill-opacity:0.6;stroke-width:1;stroke-linecap:square;stroke-linejoin:miter;stroke:rgb(50%,50%,50%);stroke-opacity:1;stroke-miterlimit:3.25;" d="M 204.160156 162.625 L 310.117188 35.835938 L 120.320313 94.375 Z M 204.160156 162.625 " transform="matrix(1,0,0,1,-74,-13)"/>
<path style="fill-rule:nonzero;fill:rgb(84.999084%,84.999084%,84.999084%);fill-opacity:0.6;stroke-width:1;stroke-linecap:square;stroke-linejoin:miter;stroke:rgb(50%,50%,50%);stroke-opacity:1;stroke-miterlimit:3.25;" d="M 204.160156 162.625 L 215.921875 187.652344 L 205.304688 163.171875 Z M 204.160156 162.625 " transform="matrix(1,0,0,1,-74,-13)"/>
<path style="fill-rule:nonzero;fill:rgb(84.999084%,84.999084%,84.999084%);fill-opacity:0.6;stroke-width:1;stroke-linecap:square;stroke-linejoin:miter;stroke:rgb(50%,50%,50%);stroke-opacity:1;stroke-miterlimit:3.25;" d="M 215.921875 187.652344 L 208.953125 164.351563 L 207.375 163.957031 Z M 215.921875 187.652344 " transform="matrix(1,0,0,1,-74,-13)"/>
<path style="fill-rule:nonzero;fill:rgb(84.999084%,84.999084%,84.999084%);fill-opacity:0.6;stroke-width:1;stroke-linecap:square;stroke-linejoin:miter;stroke:rgb(50%,50%,50%);stroke-opacity:1;stroke-miterlimit:3.25;" d="M 310.117188 35.835938 L 204.160156 162.625 L 208.953125 164.351563 Z M 310.117188 35.835938 " transform="matrix(1,0,0,1,-74,-13)"/>
<path style="fill-rule:nonzero;fill:rgb(84.999084%,84.999084%,84.999084%);fill-opacity:0.6;stroke-width:1;stroke-linecap:square;stroke-linejoin:miter;stroke:rgb(50%,50%,50%);stroke-opacity:1;stroke-miterlimit:3.25;" d="M 215.921875 187.652344 L 292.289063 180.496094 L 208.953125 164.351563 Z M 215.921875 187.652344 " transform="matrix(1,0,0,1,-74,-13)"/>
<path style="fill-rule:nonzero;fill:rgb(84.999084%,84.999084%,84.999084%);fill-opacity:0.6;stroke-width:1;stroke-linecap:square;stroke-linejoin:miter;stroke:rgb(50%,50%,50%);stroke-opacity:1;stroke-miterlimit:3.25;" d="M 216.542969 189.878906 L 292.519531 181.121094 L 292.289063 180.496094 Z M 216.542969 189.878906 " transform="matrix(1,0,0,1,-74,-13)"/>
<path style="fill-rule:nonzero;fill:rgb(84.999084%,84.999084%,84.999084%);fill-opacity:0.6;stroke-width:1;stroke-linecap:square;stroke-linejoin:miter;stroke:rgb(50%,50%,50%);stroke-opacity:1;stroke-miterlimit:3.25;" d="M 292.519531 181.121094 L 216.542969 189.878906 L 384.625 281.265625 Z M 292.519531 181.121094 " transform="matrix(1,0,0,1,-74,-13)"/>
<path style="fill-rule:nonzero;fill:rgb(84.999084%,84.999084%,84.999084%);fill-opacity:0.6;stroke-width:1;stroke-linecap:square;stroke-linejoin:miter;stroke:rgb(50%,50%,50%);stroke-opacity:1;stroke-miterlimit:3.25;" d="M 292.289063 180.496094 L 292.519531 181.121094 L 316.078125 159.285156 Z M 292.289063 180.496094 " transform="matrix(1,0,0,1,-74,-13)"/>
<path style="fill-rule:nonzero;fill:rgb(84.999084%,84.999084%,84.999084%);fill-opacity:0.6;stroke-width:1;stroke-linecap:square;stroke-linejoin:miter;stroke:rgb(50%,50%,50%);stroke-opacity:1;stroke-miterlimit:3.25;" d="M 208.953125 164.351563 L 292.289063 180.496094 L 312.332031 156.328125 Z M 208.953125 164.351563 " transform="matrix(1,0,0,1,-74,-13)"/>
<path style="fill-rule:nonzero;fill:rgb(84.999084%,84.999084%,84.999084%);fill-opacity:0.6;stroke-width:1;stroke-linecap:square;stroke-linejoin:miter;stroke:rgb(50%,50%,50%);stroke-opacity:1;stroke-miterlimit:3.25;" d="M 387.375 275.917969 L 292.519531 181.121094 L 386.375 277.664063 Z M 387.375 275.917969 " transform="matrix(1,0,0,1,-74,-13)"/>
<path style="fill-rule:nonzero;fill:rgb(84.999084%,84.999084%,84.999084%);fill-opacity:0.6;stroke-width:1;stroke-linecap:square;stroke-linejoin:miter;stroke:rgb(50%,50%,50%);stroke-opacity:1;stroke-miterlimit:3.25;" d="M 386.375 277.664063 L 384.625 281.265625 L 387.375 275.917969 Z M 386.375 277.664063 " transform="matrix(1,0,0,1,-74,-13)"/>
<path style="fill-rule:nonzero;fill:rgb(84.999084%,84.999084%,84.999084%);fill-opacity:0.6;stroke-width:1;stroke-linecap:square;stroke-linejoin:miter;stroke:rgb(50%,50%,50%);stroke-opacity:1;stroke-miterlimit:3.25;" d="M 316.078125 159.285156 L 387.375 275.917969 L 398.125 131.960938 Z M 316.078125 159.285156 " transform="matrix(1,0,0,1,-74,-13)"/>
<path style="fill-rule:nonzero;fill:rgb(84.999084%,84.999084%,84.999084%);fill-opacity:0.6;stroke-width:1;stroke-linecap:square;stroke-linejoin:miter;stroke:rgb(50%,50%,50%);stroke-opacity:1;stroke-miterlimit:3.25;" d="M 316.078125 159.285156 L 292.519531 181.121094 L 387.375 275.917969 Z M 316.078125 159.285156 " transform="matrix(1,0,0,1,-74,-13)"/>
<path style="fill-rule:nonzero;fill:rgb(84.999084%,84.999084%,84.999084%);fill-opacity:0.6;stroke-width:1;stroke-linecap:square;stroke-linejoin:miter;stroke:rgb(50%,50%,50%);stroke-opacity:1;stroke-miterlimit:3.25;" d="M 386.375 277.664063 L 292.519531 181.121094 L 384.625 281.265625 Z M 386.375 277.664063 " transform="matrix(1,0,0,1,-74,-13)"/>
<path style="fill-rule:nonzero;fill:rgb(84.999084%,84.999084%,84.999084%);fill-opacity:0.6;stroke-width:1;stroke-linecap:square;stroke-linejoin:miter;stroke:rgb(50%,50%,50%);stroke-opacity:1;stroke-miterlimit:3.25;" d="M 216.542969 189.878906 L 138.277344 259.894531 L 384.625 281.265625 Z M 216.542969 189.878906 " transform="matrix(1,0,0,1,-74,-13)"/>
<path style="fill-rule:nonzero;fill:rgb(84.999084%,84.999084%,84.999084%);fill-opacity:0.6;stroke-width:1;stroke-linecap:square;stroke-linejoin:miter;stroke:rgb(50%,50%,50%);stroke-opacity:1;stroke-miterlimit:3.25;" d="M 312.332031 156.328125 L 292.289063 180.496094 L 316.078125 159.285156 Z M 312.332031 156.328125 " transform="matrix(1,0,0,1,-74,-13)"/>
<path style="fill-rule:nonzero;fill:rgb(84.999084%,84.999084%,84.999084%);fill-opacity:0.6;stroke-width:1;stroke-linecap:square;stroke-linejoin:miter;stroke:rgb(50%,50%,50%);stroke-opacity:1;stroke-miterlimit:3.25;" d="M 310.03125 32.335938 L 310.117188 35.835938 L 310.367188 34.589844 Z M 310.03125 32.335938 " transform="matrix(1,0,0,1,-74,-13)"/>
<path style="fill-rule:nonzero;fill:rgb(84.999084%,84.999084%,84.999084%);fill-opacity:0.6;stroke-width:1;stroke-linecap:square;stroke-linejoin:miter;stroke:rgb(50%,50%,50%);stroke-opacity:1;stroke-miterlimit:3.25;" d="M 120.320313 94.375 L 310.117188 35.835938 L 310.03125 32.335938 Z M 120.320313 94.375 " transform="matrix(1,0,0,1,-74,-13)"/>
<path style="fill-rule:nonzero;fill:rgb(84.999084%,84.999084%,84.999084%);fill-opacity:0.6;stroke-width:1;stroke-linecap:square;stroke-linejoin:miter;stroke:rgb(50%,50%,50%);stroke-opacity:1;stroke-miterlimit:3.25;" d="M 310.367188 34.589844 L 310.117188 35.835938 L 398.714844 127.851563 Z M 310.367188 34.589844 " transform="matrix(1,0,0,1,-74,-13)"/>
<path style="fill-rule:nonzero;fill:rgb(84.999084%,84.999084%,84.999084%);fill-opacity:0.6;stroke-width:1;stroke-linecap:square;stroke-linejoin:miter;stroke:rgb(50%,50%,50%);stroke-opacity:1;stroke-miterlimit:3.25;" d="M 310.03125 32.335938 L 310.367188 34.589844 L 398.714844 127.851563 Z M 310.03125 32.335938 " transform="matrix(1,0,0,1,-74,-13)"/>
<path style="fill-rule:nonzero;fill:rgb(84.999084%,84.999084%,84.999084%);fill-opacity:0.6;stroke-width:1;stroke-linecap:square;stroke-linejoin:miter;stroke:rgb(50%,50%,50%);stroke-opacity:1;stroke-miterlimit:3.25;" d="M 312.332031 156.328125 L 315.214844 158.265625 L 398.714844 127.851563 Z M 312.332031 156.328125 " transform="matrix(1,0,0,1,-74,-13)"/>
<path style="fill-rule:nonzero;fill:rgb(84.999084%,84.999084%,84.999084%);fill-opacity:0.6;stroke-width:1;stroke-linecap:square;stroke-linejoin:miter;stroke:rgb(50%,50%,50%);stroke-opacity:1;stroke-miterlimit:3.25;" d="M 315.214844 158.265625 L 312.332031 156.328125 L 316.078125 159.285156 Z M 315.214844 158.265625 " transform="matrix(1,0,0,1,-74,-13)"/>
<path style="fill-rule:nonzero;fill:rgb(84.999084%,84.999084%,84.999084%);fill-opacity:0.6;stroke-width:1;stroke-linecap:square;stroke-linejoin:miter;stroke:rgb(50%,50%,50%);stroke-opacity:1;stroke-miterlimit:3.25;" d="M 398.125 131.960938 L 398.714844 127.851563 L 315.214844 158.265625 Z M 398.125 131.960938 " transform="matrix(1,0,0,1,-74,-13)"/>
<path style="fill-rule:nonzero;fill:rgb(84.999084%,84.999084%,84.999084%);fill-opacity:0.6;stroke-width:1;stroke-linecap:square;stroke-linejoin:miter;stroke:rgb(50%,50%,50%);stroke-opacity:1;stroke-miterlimit:3.25;" d="M 398.714844 127.851563 L 398.125 131.960938 L 387.375 275.917969 Z M 398.714844 127.851563 " transform="matrix(1,0,0,1,-74,-13)"/>
<path style="fill-rule:nonzero;fill:rgb(84.999084%,84.999084%,84.999084%);fill-opacity:0.6;stroke-width:1;stroke-linecap:square;stroke-linejoin:miter;stroke:rgb(50%,50%,50%);stroke-opacity:1;stroke-miterlimit:3.25;" d="M 315.214844 158.265625 L 316.078125 159.285156 L 398.125 131.960938 Z M 315.214844 158.265625 " transform="matrix(1,0,0,1,-74,-13)"/>
<path style="fill-rule:nonzero;fill:rgb(84.999084%,84.999084%,84.999084%);fill-opacity:0.6;stroke-width:1;stroke-linecap:square;stroke-linejoin:miter;stroke:rgb(50%,50%,50%);stroke-opacity:1;stroke-miterlimit:3.25;" d="M 312.332031 156.328125 L 398.714844 127.851563 L 310.117188 35.835938 Z M 312.332031 156.328125 " transform="matrix(1,0,0,1,-74,-13)"/>
<path style="fill-rule:nonzero;fill:rgb(84.999084%,84.999084%,84.999084%);fill-opacity:0.6;stroke-width:1;stroke-linecap:square;stroke-linejoin:miter;stroke:rgb(50%,50%,50%);stroke-opacity:1;stroke-miterlimit:3.25;" d="M 312.332031 156.328125 L 310.117188 35.835938 L 208.953125 164.351563 Z M 312.332031 156.328125 " transform="matrix(1,0,0,1,-74,-13)"/>
<path style="fill-rule:nonzero;fill:rgb(84.999084%,84.999084%,84.999084%);fill-opacity:0.6;stroke-width:1;stroke-linecap:square;stroke-linejoin:miter;stroke:rgb(50%,50%,50%);stroke-opacity:1;stroke-miterlimit:3.25;" d="M 216.542969 189.878906 L 292.289063 180.496094 L 215.921875 187.652344 Z M 216.542969 189.878906 " transform="matrix(1,0,0,1,-74,-13)"/>
<path style=" stroke:none;fill-rule:evenodd;fill:rgb(99.998474%,0%,0%);fill-opacity:0.6;" d="M 312.789063 268 C 312.789063 267.523438 312.601563 267.070313 312.265625 266.734375 C 311.929688 266.398438 311.476563 266.210938 311 266.210938 C 310.523438 266.210938 310.070313 266.398438 309.734375 266.734375 C 309.398438 267.070313 309.210938 267.523438 309.210938 268 C 309.210938 268.476563 309.398438 268.929688 309.734375 269.265625 C 310.070313 269.601563 310.523438 269.789063 311 269.789063 C 311.476563 269.789063 311.929688 269.601563 312.265625 269.265625 C 312.601563 268.929688 312.789063 268.476563 312.789063 268 Z M 312.789063 268 "/>
<path style=" stroke:none;fill-rule:evenodd;fill:rgb(99.998474%,0%,0%);fill-opacity:0.6;" d="M 313.789063 265 C 313.789063 264.523438 313.601563 264.070313 313.265625 263.734375 C 312.929688 263.398438 312.476563 263.210938 312 263.210938 C 311.523438 263.210938 311.070313 263.398438 310.734375 263.734375 C 310.398438 264.070313 310.210938 264.523438 310.210938 265 C 310.210938 265.476563 310.398438 265.929688 310.734375 266.265625 C 311.070313 266.601563 311.523438 266.789063 312 266.789063 C 312.476563 266.789063 312.929688 266.601563 313.265625 266.265625 C 313.601563 265.929688 313.789063 265.476563 313.789063 265 Z M 313.789063 265 "/>
<path style=" stroke:none;fill-rule:evenodd;fill:rgb(99.998474%,0%,0%);fill-opacity:0.6;" d="M 314.789063 263 C 314.789063 262.523438 314.601563 262.070313 314.265625 261.734375 C 313.929688 261.398438 313.476563 261.210938 313 261.210938 C 312.523438 261.210938 312.070313 261.398438 311.734375 261.734375 C 311.398438 262.070313 311.210938 262.523438 311.210938 263 C 311.210938 263.476563 311.398438 263.929688 311.734375 264.265625 C 312.070313 264.601563 312.523438 264.789063 313 264.789063 C 313.476563 264.789063 313.929688 264.601563 314.265625 264.265625 C 314.601563 263.929688 314.789063 263.476563 314.789063 263 Z M 314.789063 263 "/>
<path style=" stroke:none;fill-rule:evenodd;fill:rgb(99.998474%,0%,0%);fill-opacity:0.6;" d="M 63.789063 247 C 63.789063 246.523438 63.601563 246.070313 63.265625 245.734375 C 62.929688 245.398438 62.476563 245.210938 62 245.210938 C 61.523438 245.210938 61.070313 245.398438 60.734375 245.734375 C 60.398438 246.070313 60.210938 246.523438 60.210938 247 C 60.210938 247.476563 60.398438 247.929688 60.734375 248.265625 C 61.070313 248.601563 61.523438 248.789063 62 248.789063 C 62.476563 248.789063 62.929688 248.601563 63.265625 248.265625 C 63.601563 247.929688 63.789063 247.476563 63.789063 247 Z M 63.789063 247 "/>
<path style=" stroke:none;fill-rule:evenodd;fill:rgb(99.998474%,0%,0%);fill-opacity:0.6;" d="M 65.789063 247 C 65.789063 246.523438 65.601563 246.070313 65.265625 245.734375 C 64.929688 245.398438 64.476563 245.210938 64 245.210938 C 63.523438 245.210938 63.070313 245.398438 62.734375 245.734375 C 62.398438 246.070313 62.210938 246.523438 62.210938 247 C 62.210938 247.476563 62.398438 247.929688 62.734375 248.265625 C 63.070313 248.601563 63.523438 248.789063 64 248.789063 C 64.476563 248.789063 64.929688 248.601563 65.265625 248.265625 C 65.601563 247.929688 65.789063 247.476563 65.789063 247 Z M 65.789063 247 "/>
<path style=" stroke:none;fill-rule:evenodd;fill:rgb(99.998474%,0%,0%);fill-opacity:0.6;" d="M 66.789063 179 C 66.789063 178.523438 66.601563 178.070313 66.265625 177.734375 C 65.929688 177.398438 65.476563 177.210938 65 177.210938 C 64.523438 177.210938 64.070313 177.398438 63.734375 177.734375 C 63.398438 178.070313 63.210938 178.523438 63.210938 179 C 63.210938 179.476563 63.398438 179.929688 63.734375 180.265625 C 64.070313 180.601563 64.523438 180.789063 65 180.789063 C 65.476563 180.789063 65.929688 180.601563 66.265625 180.265625 C 66.601563 179.929688 66.789063 179.476563 66.789063 179 Z M 66.789063 179 "/>
<path style=" stroke:none;fill-rule:evenodd;fill:rgb(99.998474%,0%,0%);fill-opacity:0.6;" d="M 65.789063 178 C 65.789063 177.523438 65.601563 177.070313 65.265625 176.734375 C 64.929688 176.398438 64.476563 176.210938 64 176.210938 C 63.523438 176.210938 63.070313 176.398438 62.734375 176.734375 C 62.398438 177.070313 62.210938 177.523438 62.210938 178 C 62.210938 178.476563 62.398438 178.929688 62.734375 179.265625 C 63.070313 179.601563 63.523438 179.789063 64 179.789063 C 64.476563 179.789063 64.929688 179.601563 65.265625 179.265625 C 65.601563 178.929688 65.789063 178.476563 65.789063 178 Z M 65.789063 178 "/>
<path style=" stroke:none;fill-rule:evenodd;fill:rgb(99.998474%,0%,0%);fill-opacity:0.6;" d="M 69.789063 178 C 69.789063 177.523438 69.601563 177.070313 69.265625 176.734375 C 68.929688 176.398438 68.476563 176.210938 68 176.210938 C 67.523438 176.210938 67.070313 176.398438 66.734375 176.734375 C 66.398438 177.070313 66.210938 177.523438 66.210938 178 C 66.210938 178.476563 66.398438 178.929688 66.734375 179.265625 C 67.070313 179.601563 67.523438 179.789063 68 179.789063 C 68.476563 179.789063 68.929688 179.601563 69.265625 179.265625 C 69.601563 178.929688 69.789063 178.476563 69.789063 178 Z M 69.789063 178 "/>
<path style=" stroke:none;fill-rule:evenodd;fill:rgb(99.998474%,0%,0%);fill-opacity:0.6;" d="M 144.789063 177 C 144.789063 176.523438 144.601563 176.070313 144.265625 175.734375 C 143.929688 175.398438 143.476563 175.210938 143 175.210938 C 142.523438 175.210938 142.070313 175.398438 141.734375 175.734375 C 141.398438 176.070313 141.210938 176.523438 141.210938 177 C 141.210938 177.476563 141.398438 177.929688 141.734375 178.265625 C 142.070313 178.601563 142.523438 178.789063 143 178.789063 C 143.476563 178.789063 143.929688 178.601563 144.265625 178.265625 C 144.601563 177.929688 144.789063 177.476563 144.789063 177 Z M 144.789063 177 "/>
<path style=" stroke:none;fill-rule:evenodd;fill:rgb(99.998474%,0%,0%);fill-opacity:0.6;" d="M 143.789063 175 C 143.789063 174.523438 143.601563 174.070313 143.265625 173.734375 C 142.929688 173.398438 142.476563 173.210938 142 173.210938 C 141.523438 173.210938 141.070313 173.398438 140.734375 173.734375 C 140.398438 174.070313 140.210938 174.523438 140.210938 175 C 140.210938 175.476563 140.398438 175.929688 140.734375 176.265625 C 141.070313 176.601563 141.523438 176.789063 142 176.789063 C 142.476563 176.789063 142.929688 176.601563 143.265625 176.265625 C 143.601563 175.929688 143.789063 175.476563 143.789063 175 Z M 143.789063 175 "/>
<path style=" stroke:none;fill-rule:evenodd;fill:rgb(99.998474%,0%,0%);fill-opacity:0.6;" d="M 68.789063 173 C 68.789063 172.523438 68.601563 172.070313 68.265625 171.734375 C 67.929688 171.398438 67.476563 171.210938 67 171.210938 C 66.523438 171.210938 66.070313 171.398438 65.734375 171.734375 C 65.398438 172.070313 65.210938 172.523438 65.210938 173 C 65.210938 173.476563 65.398438 173.929688 65.734375 174.265625 C 66.070313 174.601563 66.523438 174.789063 67 174.789063 C 67.476563 174.789063 67.929688 174.601563 68.265625 174.265625 C 68.601563 173.929688 68.789063 173.476563 68.789063 173 Z M 68.789063 173 "/>
<path style=" stroke:none;fill-rule:evenodd;fill:rgb(99.998474%,0%,0%);fill-opacity:0.6;" d="M 220.789063 168 C 220.789063 167.523438 220.601563 167.070313 220.265625 166.734375 C 219.929688 166.398438 219.476563 166.210938 219 166.210938 C 218.523438 166.210938 218.070313 166.398438 217.734375 166.734375 C 217.398438 167.070313 217.210938 167.523438 217.210938 168 C 217.210938 168.476563 217.398438 168.929688 217.734375 169.265625 C 218.070313 169.601563 218.523438 169.789063 219 169.789063 C 219.476563 169.789063 219.929688 169.601563 220.265625 169.265625 C 220.601563 168.929688 220.789063 168.476563 220.789063 168 Z M 220.789063 168 "/>
<path style=" stroke:none;fill-rule:evenodd;fill:rgb(99.998474%,0%,0%);fill-opacity:0.6;" d="M 219.789063 167 C 219.789063 166.523438 219.601563 166.070313 219.265625 165.734375 C 218.929688 165.398438 218.476563 165.210938 218 165.210938 C 217.523438 165.210938 217.070313 165.398438 216.734375 165.734375 C 216.398438 166.070313 216.210938 166.523438 216.210938 167 C 216.210938 167.476563 216.398438 167.929688 216.734375 168.265625 C 217.070313 168.601563 217.523438 168.789063 218 168.789063 C 218.476563 168.789063 218.929688 168.601563 219.265625 168.265625 C 219.601563 167.929688 219.789063 167.476563 219.789063 167 Z M 219.789063 167 "/>
<path style=" stroke:none;fill-rule:evenodd;fill:rgb(99.998474%,0%,0%);fill-opacity:0.6;" d="M 136.789063 151 C 136.789063 150.523438 136.601563 150.070313 136.265625 149.734375 C 135.929688 149.398438 135.476563 149.210938 135 149.210938 C 134.523438 149.210938 134.070313 149.398438 133.734375 149.734375 C 133.398438 150.070313 133.210938 150.523438 133.210938 151 C 133.210938 151.476563 133.398438 151.929688 133.734375 152.265625 C 134.070313 152.601563 134.523438 152.789063 135 152.789063 C 135.476563 152.789063 135.929688 152.601563 136.265625 152.265625 C 136.601563 151.929688 136.789063 151.476563 136.789063 151 Z M 136.789063 151 "/>
<path style=" stroke:none;fill-rule:evenodd;fill:rgb(99.998474%,0%,0%);fill-opacity:0.6;" d="M 134.789063 151 C 134.789063 150.523438 134.601563 150.070313 134.265625 149.734375 C 133.929688 149.398438 133.476563 149.210938 133 149.210938 C 132.523438 149.210938 132.070313 149.398438 131.734375 149.734375 C 131.398438 150.070313 131.210938 150.523438 131.210938 151 C 131.210938 151.476563 131.398438 151.929688 131.734375 152.265625 C 132.070313 152.601563 132.523438 152.789063 133 152.789063 C 133.476563 152.789063 133.929688 152.601563 134.265625 152.265625 C 134.601563 151.929688 134.789063 151.476563 134.789063 151 Z M 134.789063 151 "/>
<path style=" stroke:none;fill-rule:evenodd;fill:rgb(99.998474%,0%,0%);fill-opacity:0.6;" d="M 132.789063 150 C 132.789063 149.523438 132.601563 149.070313 132.265625 148.734375 C 131.929688 148.398438 131.476563 148.210938 131 148.210938 C 130.523438 148.210938 130.070313 148.398438 129.734375 148.734375 C 129.398438 149.070313 129.210938 149.523438 129.210938 150 C 129.210938 150.476563 129.398438 150.929688 129.734375 151.265625 C 130.070313 151.601563 130.523438 151.789063 131 151.789063 C 131.476563 151.789063 131.929688 151.601563 132.265625 151.265625 C 132.601563 150.929688 132.789063 150.476563 132.789063 150 Z M 132.789063 150 "/>
<path style=" stroke:none;fill-rule:evenodd;fill:rgb(99.998474%,0%,0%);fill-opacity:0.6;" d="M 131.789063 150 C 131.789063 149.523438 131.601563 149.070313 131.265625 148.734375 C 130.929688 148.398438 130.476563 148.210938 130 148.210938 C 129.523438 148.210938 129.070313 148.398438 128.734375 148.734375 C 128.398438 149.070313 128.210938 149.523438 128.210938 150 C 128.210938 150.476563 128.398438 150.929688 128.734375 151.265625 C 129.070313 151.601563 129.523438 151.789063 130 151.789063 C 130.476563 151.789063 130.929688 151.601563 131.265625 151.265625 C 131.601563 150.929688 131.789063 150.476563 131.789063 150 Z M 131.789063 150 "/>
<path style=" stroke:none;fill-rule:evenodd;fill:rgb(99.998474%,0%,0%);fill-opacity:0.6;" d="M 243.789063 146 C 243.789063 145.523438 243.601563 145.070313 243.265625 144.734375 C 242.929688 144.398438 242.476563 144.210938 242 144.210938 C 241.523438 144.210938 241.070313 144.398438 240.734375 144.734375 C 240.398438 145.070313 240.210938 145.523438 240.210938 146 C 240.210938 146.476563 240.398438 146.929688 240.734375 147.265625 C 241.070313 147.601563 241.523438 147.789063 242 147.789063 C 242.476563 147.789063 242.929688 147.601563 243.265625 147.265625 C 243.601563 146.929688 243.789063 146.476563 243.789063 146 Z M 243.789063 146 "/>
<path style=" stroke:none;fill-rule:evenodd;fill:rgb(99.998474%,0%,0%);fill-opacity:0.6;" d="M 242.789063 145 C 242.789063 144.523438 242.601563 144.070313 242.265625 143.734375 C 241.929688 143.398438 241.476563 143.210938 241 143.210938 C 240.523438 143.210938 240.070313 143.398438 239.734375 143.734375 C 239.398438 144.070313 239.210938 144.523438 239.210938 145 C 239.210938 145.476563 239.398438 145.929688 239.734375 146.265625 C 240.070313 146.601563 240.523438 146.789063 241 146.789063 C 241.476563 146.789063 241.929688 146.601563 242.265625 146.265625 C 242.601563 145.929688 242.789063 145.476563 242.789063 145 Z M 242.789063 145 "/>
<path style=" stroke:none;fill-rule:evenodd;fill:rgb(99.998474%,0%,0%);fill-opacity:0.6;" d="M 239.789063 143 C 239.789063 142.523438 239.601563 142.070313 239.265625 141.734375 C 238.929688 141.398438 238.476563 141.210938 238 141.210938 C 237.523438 141.210938 237.070313 141.398438 236.734375 141.734375 C 236.398438 142.070313 236.210938 142.523438 236.210938 143 C 236.210938 143.476563 236.398438 143.929688 236.734375 144.265625 C 237.070313 144.601563 237.523438 144.789063 238 144.789063 C 238.476563 144.789063 238.929688 144.601563 239.265625 144.265625 C 239.601563 143.929688 239.789063 143.476563 239.789063 143 Z M 239.789063 143 "/>
<path style=" stroke:none;fill-rule:evenodd;fill:rgb(99.998474%,0%,0%);fill-opacity:0.6;" d="M 325.789063 119 C 325.789063 118.523438 325.601563 118.070313 325.265625 117.734375 C 324.929688 117.398438 324.476563 117.210938 324 117.210938 C 323.523438 117.210938 323.070313 117.398438 322.734375 117.734375 C 322.398438 118.070313 322.210938 118.523438 322.210938 119 C 322.210938 119.476563 322.398438 119.929688 322.734375 120.265625 C 323.070313 120.601563 323.523438 120.789063 324 120.789063 C 324.476563 120.789063 324.929688 120.601563 325.265625 120.265625 C 325.601563 119.929688 325.789063 119.476563 325.789063 119 Z M 325.789063 119 "/>
<path style=" stroke:none;fill-rule:evenodd;fill:rgb(99.998474%,0%,0%);fill-opacity:0.6;" d="M 326.789063 115 C 326.789063 114.523438 326.601563 114.070313 326.265625 113.734375 C 325.929688 113.398438 325.476563 113.210938 325 113.210938 C 324.523438 113.210938 324.070313 113.398438 323.734375 113.734375 C 323.398438 114.070313 323.210938 114.523438 323.210938 115 C 323.210938 115.476563 323.398438 115.929688 323.734375 116.265625 C 324.070313 116.601563 324.523438 116.789063 325 116.789063 C 325.476563 116.789063 325.929688 116.601563 326.265625 116.265625 C 326.601563 115.929688 326.789063 115.476563 326.789063 115 Z M 326.789063 115 "/>
<path style=" stroke:none;fill-rule:evenodd;fill:rgb(99.998474%,0%,0%);fill-opacity:0.6;" d="M 47.789063 82 C 47.789063 81.523438 47.601563 81.070313 47.265625 80.734375 C 46.929688 80.398438 46.476563 80.210938 46 80.210938 C 45.523438 80.210938 45.070313 80.398438 44.734375 80.734375 C 44.398438 81.070313 44.210938 81.523438 44.210938 82 C 44.210938 82.476563 44.398438 82.929688 44.734375 83.265625 C 45.070313 83.601563 45.523438 83.789063 46 83.789063 C 46.476563 83.789063 46.929688 83.601563 47.265625 83.265625 C 47.601563 82.929688 47.789063 82.476563 47.789063 82 Z M 47.789063 82 "/>
<path style=" stroke:none;fill-rule:evenodd;fill:rgb(99.998474%,0%,0%);fill-opacity:0.6;" d="M 47.789063 81 C 47.789063 80.523438 47.601563 80.070313 47.265625 79.734375 C 46.929688 79.398438 46.476563 79.210938 46 79.210938 C 45.523438 79.210938 45.070313 79.398438 44.734375 79.734375 C 44.398438 80.070313 44.210938 80.523438 44.210938 81 C 44.210938 81.476563 44.398438 81.929688 44.734375 82.265625 C 45.070313 82.601563 45.523438 82.789063 46 82.789063 C 46.476563 82.789063 46.929688 82.601563 47.265625 82.265625 C 47.601563 81.929688 47.789063 81.476563 47.789063 81 Z M 47.789063 81 "/>
<path style=" stroke:none;fill-rule:evenodd;fill:rgb(99.998474%,0%,0%);fill-opacity:0.6;" d="M 237.789063 23 C 237.789063 22.523438 237.601563 22.070313 237.265625 21.734375 C 236.929688 21.398438 236.476563 21.210938 236 21.210938 C 235.523438 21.210938 235.070313 21.398438 234.734375 21.734375 C 234.398438 22.070313 234.210938 22.523438 234.210938 23 C 234.210938 23.476563 234.398438 23.929688 234.734375 24.265625 C 235.070313 24.601563 235.523438 24.789063 236 24.789063 C 236.476563 24.789063 236.929688 24.601563 237.265625 24.265625 C 237.601563 23.929688 237.789063 23.476563 237.789063 23 Z M 237.789063 23 "/>
<path style=" stroke:none;fill-rule:evenodd;fill:rgb(99.998474%,0%,0%);fill-opacity:0.6;" d="M 237.789063 22 C 237.789063 21.523438 237.601563 21.070313 237.265625 20.734375 C 236.929688 20.398438 236.476563 20.210938 236 20.210938 C 235.523438 20.210938 235.070313 20.398438 234.734375 20.734375 C 234.398438 21.070313 234.210938 21.523438 234.210938 22 C 234.210938 22.476563 234.398438 22.929688 234.734375 23.265625 C 235.070313 23.601563 235.523438 23.789063 236 23.789063 C 236.476563 23.789063 236.929688 23.601563 237.265625 23.265625 C 237.601563 22.929688 237.789063 22.476563 237.789063 22 Z M 237.789063 22 "/>
<path style=" stroke:none;fill-rule:evenodd;fill:rgb(99.998474%,0%,0%);fill-opacity:0.6;" d="M 237.789063 19 C 237.789063 18.523438 237.601563 18.070313 237.265625 17.734375 C 236.929688 17.398438 236.476563 17.210938 236 17.210938 C 235.523438 17.210938 235.070313 17.398438 234.734375 17.734375 C 234.398438 18.070313 234.210938 18.523438 234.210938 19 C 234.210938 19.476563 234.398438 19.929688 234.734375 20.265625 C 235.070313 20.601563 235.523438 20.789063 236 20.789063 C 236.476563 20.789063 236.929688 20.601563 237.265625 20.265625 C 237.601563 19.929688 237.789063 19.476563 237.789063 19 Z M 237.789063 19 "/>
<path style=" stroke:none;fill-rule:evenodd;fill:rgb(99.998474%,0%,0%);fill-opacity:1;" d="M 312.5 268 C 312.5 267.601563 312.34375 267.21875 312.0625 266.9375 C 311.78125 266.65625 311.398438 266.5 311 266.5 C 310.601563 266.5 310.21875 266.65625 309.9375 266.9375 C 309.65625 267.21875 309.5 267.601563 309.5 268 C 309.5 268.398438 309.65625 268.78125 309.9375 269.0625 C 310.21875 269.34375 310.601563 269.5 311 269.5 C 311.398438 269.5 311.78125 269.34375 312.0625 269.0625 C 312.34375 268.78125 312.5 268.398438 312.5 268 Z M 312.5 268 "/>
<path style=" stroke:none;fill-rule:evenodd;fill:rgb(99.998474%,0%,0%);fill-opacity:1;" d="M 313.5 265 C 313.5 264.601563 313.34375 264.21875 313.0625 263.9375 C 312.78125 263.65625 312.398438 263.5 312 263.5 C 311.601563 263.5 311.21875 263.65625 310.9375 263.9375 C 310.65625 264.21875 310.5 264.601563 310.5 265 C 310.5 265.398438 310.65625 265.78125 310.9375 266.0625 C 311.21875 266.34375 311.601563 266.5 312 266.5 C 312.398438 266.5 312.78125 266.34375 313.0625 266.0625 C 313.34375 265.78125 313.5 265.398438 313.5 265 Z M 313.5 265 "/>
<path style=" stroke:none;fill-rule:evenodd;fill:rgb(99.998474%,0%,0%);fill-opacity:1;" d="M 314.5 263 C 314.5 262.601563 314.34375 262.21875 314.0625 261.9375 C 313.78125 261.65625 313.398438 261.5 313 261.5 C 312.601563 261.5 312.21875 261.65625 311.9375 261.9375 C 311.65625 262.21875 311.5 262.601563 311.5 263 C 311.5 263.398438 311.65625 263.78125 311.9375 264.0625 C 312.21875 264.34375 312.601563 264.5 313 264.5 C 313.398438 264.5 313.78125 264.34375 314.0625 264.0625 C 314.34375 263.78125 314.5 263.398438 314.5 263 Z M 314.5 263 "/>
<path style=" stroke:none;fill-rule:evenodd;fill:rgb(99.998474%,0%,0%);fill-opacity:1;" d="M 63.5 247 C 63.5 246.601563 63.34375 246.21875 63.0625 245.9375 C 62.78125 245.65625 62.398438 245.5 62 245.5 C 61.601563 245.5 61.21875 245.65625 60.9375 245.9375 C 60.65625 246.21875 60.5 246.601563 60.5 247 C 60.5 247.398438 60.65625 247.78125 60.9375 248.0625 C 61.21875 248.34375 61.601563 248.5 62 248.5 C 62.398438 248.5 62.78125 248.34375 63.0625 248.0625 C 63.34375 247.78125 63.5 247.398438 63.5 247 Z M 63.5 247 "/>
<path style=" stroke:none;fill-rule:evenodd;fill:rgb(99.998474%,0%,0%);fill-opacity:1;" d="M 65.5 247 C 65.5 246.601563 65.34375 246.21875 65.0625 245.9375 C 64.78125 245.65625 64.398438 245.5 64 245.5 C 63.601563 245.5 63.21875 245.65625 62.9375 245.9375 C 62.65625 246.21875 62.5 246.601563 62.5 247 C 62.5 247.398438 62.65625 247.78125 62.9375 248.0625 C 63.21875 248.34375 63.601563 248.5 64 248.5 C 64.398438 248.5 64.78125 248.34375 65.0625 248.0625 C 65.34375 247.78125 65.5 247.398438 65.5 247 Z M 65.5 247 "/>
<path style=" stroke:none;fill-rule:evenodd;fill:rgb(99.998474%,0%,0%);fill-opacity:1;" d="M 66.5 179 C 66.5 178.601563 66.34375 178.21875 66.0625 177.9375 C 65.78125 177.65625 65.398438 177.5 65 177.5 C 64.601563 177.5 64.21875 177.65625 63.9375 177.9375 C 63.65625 178.21875 63.5 178.601563 63.5 179 C 63.5 179.398438 63.65625 179.78125 63.9375 180.0625 C 64.21875 180.34375 64.601563 180.5 65 180.5 C 65.398438 180.5 65.78125 180.34375 66.0625 180.0625 C 66.34375 179.78125 66.5 179.398438 66.5 179 Z M 66.5 179 "/>
<path style=" stroke:none;fill-rule:evenodd;fill:rgb(99.998474%,0%,0%);fill-opacity:1;" d="M 65.5 178 C 65.5 177.601563 65.34375 177.21875 65.0625 176.9375 C 64.78125 176.65625 64.398438 176.5 64 176.5 C 63.601563 176.5 63.21875 176.65625 62.9375 176.9375 C 62.65625 177.21875 62.5 177.601563 62.5 178 C 62.5 178.398438 62.65625 178.78125 62.9375 179.0625 C 63.21875 179.34375 63.601563 179.5 64 179.5 C 64.398438 179.5 64.78125 179.34375 65.0625 179.0625 C 65.34375 178.78125 65.5 178.398438 65.5 178 Z M 65.5 178 "/>
<path style=" stroke:none;fill-rule:evenodd;fill:rgb(99.998474%,0%,0%);fill-opacity:1;" d="M 69.5 178 C 69.5 177.601563 69.34375 177.21875 69.0625 176.9375 C 68.78125 176.65625 68.398438 176.5 68 176.5 C 67.601563 176.5 67.21875 176.65625 66.9375 176.9375 C 66.65625 177.21875 66.5 177.601563 66.5 178 C 66.5 178.398438 66.65625 178.78125 66.9375 179.0625 C 67.21875 179.34375 67.601563 179.5 68 179.5 C 68.398438 179.5 68.78125 179.34375 69.0625 179.0625 C 69.34375 178.78125 69.5 178.398438 69.5 178 Z M 69.5 178 "/>
<path style=" stroke:none;fill-rule:evenodd;fill:rgb(99.998474%,0%,0%);fill-opacity:1;" d="M 144.5 177 C 144.5 176.601563 144.34375 176.21875 144.0625 175.9375 C 143.78125 175.65625 143.398438 175.5 143 175.5 C 142.601563 175.5 142.21875 175.65625 141.9375 175.9375 C 141.65625 176.21875 141.5 176.601563 141.5 177 C 141.5 177.398438 141.65625 177.78125 141.9375 178.0625 C 142.21875 178.34375 142.601563 178.5 143 178.5 C 143.398438 178.5 143.78125 178.34375 144.0625 178.0625 C 144.34375 177.78125 144.5 177.398438 144.5 177 Z M 144.5 177 "/>
<path style=" stroke:none;fill-rule:evenodd;fill:rgb(99.998474%,0%,0%);fill-opacity:1;" d="M 143.5 175 C 143.5 174.601563 143.34375 174.21875 143.0625 173.9375 C 142.78125 173.65625 142.398438 173.5 142 173.5 C 141.601563 173.5 141.21875 173.65625 140.9375 173.9375 C 140.65625 174.21875 140.5 174.601563 140.5 175 C 140.5 175.398438 140.65625 175.78125 140.9375 176.0625 C 141.21875 176.34375 141.601563 176.5 142 176.5 C 142.398438 176.5 142.78125 176.34375 143.0625 176.0625 C 143.34375 175.78125 143.5 175.398438 143.5 175 Z M 143.5 175 "/>
<path style=" stroke:none;fill-rule:evenodd;fill:rgb(99.998474%,0%,0%);fill-opacity:1;" d="M 68.5 173 C 68.5 172.601563 68.34375 172.21875 68.0625 171.9375 C 67.78125 171.65625 67.398438 171.5 67 171.5 C 66.601563 171.5 66.21875 171.65625 65.9375 171.9375 C 65.65625 172.21875 65.5 172.601563 65.5 173 C 65.5 173.398438 65.65625 173.78125 65.9375 174.0625 C 66.21875 174.34375 66.601563 174.5 67 174.5 C 67.398438 174.5 67.78125 174.34375 68.0625 174.0625 C 68.34375 173.78125 68.5 173.398438 68.5 173 Z M 68.5 173 "/>
<path style=" stroke:none;fill-rule:evenodd;fill:rgb(99.998474%,0%,0%);fill-opacity:1;" d="M 220.5 168 C 220.5 167.601563 220.34375 167.21875 220.0625 166.9375 C 219.78125 166.65625 219.398438 166.5 219 166.5 C 218.601563 166.5 218.21875 166.65625 217.9375 166.9375 C 217.65625 167.21875 217.5 167.601563 217.5 168 C 217.5 168.398438 217.65625 168.78125 217.9375 169.0625 C 218.21875 169.34375 218.601563 169.5 219 169.5 C 219.398438 169.5 219.78125 169.34375 220.0625 169.0625 C 220.34375 168.78125 220.5 168.398438 220.5 168 Z M 220.5 168 "/>
<path style=" stroke:none;fill-rule:evenodd;fill:rgb(99.998474%,0%,0%);fill-opacity:1;" d="M 219.5 167 C 219.5 166.601563 219.34375 166.21875 219.0625 165.9375 C 218.78125 165.65625 218.398438 165.5 218 165.5 C 217.601563 165.5 217.21875 165.65625 216.9375 165.9375 C 216.65625 166.21875 216.5 166.601563 216.5 167 C 216.5 167.398438 216.65625 167.78125 216.9375 168.0625 C 217.21875 168.34375 217.601563 168.5 218 168.5 C 218.398438 168.5 218.78125 168.34375 219.0625 168.0625 C 219.34375 167.78125 219.5 167.398438 219.5 167 Z M 219.5 167 "/>
<path style=" stroke:none;fill-rule:evenodd;fill:rgb(99.998474%,0%,0%);fill-opacity:1;" d="M 136.5 151 C 136.5 150.601563 136.34375 150.21875 136.0625 149.9375 C 135.78125 149.65625 135.398438 149.5 135 149.5 C 134.601563 149.5 134.21875 149.65625 133.9375 149.9375 C 133.65625 150.21875 133.5 150.601563 133.5 151 C 133.5 151.398438 133.65625 151.78125 133.9375 152.0625 C 134.21875 152.34375 134.601563 152.5 135 152.5 C 135.398438 152.5 135.78125 152.34375 136.0625 152.0625 C 136.34375 151.78125 136.5 151.398438 136.5 151 Z M 136.5 151 "/>
<path style=" stroke:none;fill-rule:evenodd;fill:rgb(99.998474%,0%,0%);fill-opacity:1;" d="M 134.5 151 C 134.5 150.601563 134.34375 150.21875 134.0625 149.9375 C 133.78125 149.65625 133.398438 149.5 133 149.5 C 132.601563 149.5 132.21875 149.65625 131.9375 149.9375 C 131.65625 150.21875 131.5 150.601563 131.5 151 C 131.5 151.398438 131.65625 151.78125 131.9375 152.0625 C 132.21875 152.34375 132.601563 152.5 133 152.5 C 133.398438 152.5 133.78125 152.34375 134.0625 152.0625 C 134.34375 151.78125 134.5 151.398438 134.5 151 Z M 134.5 151 "/>
<path style=" stroke:none;fill-rule:evenodd;fill:rgb(99.998474%,0%,0%);fill-opacity:1;" d="M 132.5 150 C 132.5 149.601563 132.34375 149.21875 132.0625 148.9375 C 131.78125 148.65625 131.398438 148.5 131 148.5 C 130.601563 148.5 130.21875 148.65625 129.9375 148.9375 C 129.65625 149.21875 129.5 149.601563 129.5 150 C 129.5 150.398438 129.65625 150.78125 129.9375 151.0625 C 130.21875 151.34375 130.601563 151.5 131 151.5 C 131.398438 151.5 131.78125 151.34375 132.0625 151.0625 C 132.34375 150.78125 132.5 150.398438 132.5 150 Z M 132.5 150 "/>
<path style=" stroke:none;fill-rule:evenodd;fill:rgb(99.998474%,0%,0%);fill-opacity:1;" d="M 131.5 150 C 131.5 149.601563 131.34375 149.21875 131.0625 148.9375 C 130.78125 148.65625 130.398438 148.5 130 148.5 C 129.601563 148.5 129.21875 148.65625 128.9375 148.9375 C 128.65625 149.21875 128.5 149.601563 128.5 150 C 128.5 150.398438 128.65625 150.78125 128.9375 151.0625 C 129.21875 151.34375 129.601563 151.5 130 151.5 C 130.398438 151.5 130.78125 151.34375 131.0625 151.0625 C 131.34375 150.78125 131.5 150.398438 131.5 150 Z M 131.5 150 "/>
<path style=" stroke:none;fill-rule:evenodd;fill:rgb(99.998474%,0%,0%);fill-opacity:1;" d="M 243.5 146 C 243.5 145.601563 243.34375 145.21875 243.0625 144.9375 C 242.78125 144.65625 242.398438 144.5 242 144.5 C 241.601563 144.5 241.21875 144.65625 240.9375 144.9375 C 240.65625 145.21875 240.5 145.601563 240.5 146 C 240.5 146.398438 240.65625 146.78125 240.9375 147.0625 C 241.21875 147.34375 241.601563 147.5 242 147.5 C 242.398438 147.5 242.78125 147.34375 243.0625 147.0625 C 243.34375 146.78125 243.5 146.398438 243.5 146 Z M 243.5 146 "/>
<path style=" stroke:none;fill-rule:evenodd;fill:rgb(99.998474%,0%,0%);fill-opacity:1;" d="M 242.5 145 C 242.5 144.601563 242.34375 144.21875 242.0625 143.9375 C 241.78125 143.65625 241.398438 143.5 241 143.5 C 240.601563 143.5 240.21875 143.65625 239.9375 143.9375 C 239.65625 144.21875 239.5 144.601563 239.5 145 C 239.5 145.398438 239.65625 145.78125 239.9375 146.0625 C 240.21875 146.34375 240.601563 146.5 241 146.5 C 241.398438 146.5 241.78125 146.34375 242.0625 146.0625 C 242.34375 145.78125 242.5 145.398438 242.5 145 Z M 242.5 145 "/>
<path style=" stroke:none;fill-rule:evenodd;fill:rgb(99.998474%,0%,0%);fill-opacity:1;" d="M 239.5 143 C 239.5 142.601563 239.34375 142.21875 239.0625 141.9375 C 238.78125 141.65625 238.398438 141.5 238 141.5 C 237.601563 141.5 237.21875 141.65625 236.9375 141.9375 C 236.65625 142.21875 236.5 142.601563 236.5 143 C 236.5 143.398438 236.65625 143.78125 236.9375 144.0625 C 237.21875 144.34375 237.601563 144.5 238 144.5 C 238.398438 144.5 238.78125 144.34375 239.0625 144.0625 C 239.34375 143.78125 239.5 143.398438 239.5 143 Z M 239.5 143 "/>
<path style=" stroke:none;fill-rule:evenodd;fill:rgb(99.998474%,0%,0%);fill-opacity:1;" d="M 325.5 119 C 325.5 118.601563 325.34375 118.21875 325.0625 117.9375 C 324.78125 117.65625 324.398438 117.5 324 117.5 C 323.601563 117.5 323.21875 117.65625 322.9375 117.9375 C 322.65625 118.21875 322.5 118.601563 322.5 119 C 322.5 119.398438 322.65625 119.78125 322.9375 120.0625 C 323.21875 120.34375 323.601563 120.5 324 120.5 C 324.398438 120.5 324.78125 120.34375 325.0625 120.0625 C 325.34375 119.78125 325.5 119.398438 325.5 119 Z M 325.5 119 "/>
<path style=" stroke:none;fill-rule:evenodd;fill:rgb(99.998474%,0%,0%);fill-opacity:1;" d="M 326.5 115 C 326.5 114.601563 326.34375 114.21875 326.0625 113.9375 C 325.78125 113.65625 325.398438 113.5 325 113.5 C 324.601563 113.5 324.21875 113.65625 323.9375 113.9375 C 323.65625 114.21875 323.5 114.601563 323.5 115 C 323.5 115.398438 323.65625 115.78125 323.9375 116.0625 C 324.21875 116.34375 324.601563 116.5 325 116.5 C 325.398438 116.5 325.78125 116.34375 326.0625 116.0625 C 326.34375 115.78125 326.5 115.398438 326.5 115 Z M 326.5 115 "/>
<path style=" stroke:none;fill-rule:evenodd;fill:rgb(99.998474%,0%,0%);fill-opacity:1;" d="M 47.5 82 C 47.5 81.601563 47.34375 81.21875 47.0625 80.9375 C 46.78125 80.65625 46.398438 80.5 46 80.5 C 45.601563 80.5 45.21875 80.65625 44.9375 80.9375 C 44.65625 81.21875 44.5 81.601563 44.5 82 C 44.5 82.398438 44.65625 82.78125 44.9375 83.0625 C 45.21875 83.34375 45.601563 83.5 46 83.5 C 46.398438 83.5 46.78125 83.34375 47.0625 83.0625 C 47.34375 82.78125 47.5 82.398438 47.5 82 Z M 47.5 82 "/>
<path style=" stroke:none;fill-rule:evenodd;fill:rgb(99.998474%,0%,0%);fill-opacity:1;" d="M 47.5 81 C 47.5 80.601563 47.34375 80.21875 47.0625 79.9375 C 46.78125 79.65625 46.398438 79.5 46 79.5 C 45.601563 79.5 45.21875 79.65625 44.9375 79.9375 C 44.65625 80.21875 44.5 80.601563 44.5 81 C 44.5 81.398438 44.65625 81.78125 44.9375 82.0625 C 45.21875 82.34375 45.601563 82.5 46 82.5 C 46.398438 82.5 46.78125 82.34375 47.0625 82.0625 C 47.34375 81.78125 47.5 81.398438 47.5 81 Z M 47.5 81 "/>
<path style=" stroke:none;fill-rule:evenodd;fill:rgb(99.998474%,0%,0%);fill-opacity:1;" d="M 237.5 23 C 237.5 22.601563 237.34375 22.21875 237.0625 21.9375 C 236.78125 21.65625 236.398438 21.5 236 21.5 C 235.601563 21.5 235.21875 21.65625 234.9375 21.9375 C 234.65625 22.21875 234.5 22.601563 234.5 23 C 234.5 23.398438 234.65625 23.78125 234.9375 24.0625 C 235.21875 24.34375 235.601563 24.5 236 24.5 C 236.398438 24.5 236.78125 24.34375 237.0625 24.0625 C 237.34375 23.78125 237.5 23.398438 237.5 23 Z M 237.5 23 "/>
<path style=" stroke:none;fill-rule:evenodd;fill:rgb(99.998474%,0%,0%);fill-opacity:1;" d="M 237.5 22 C 237.5 21.601563 237.34375 21.21875 237.0625 20.9375 C 236.78125 20.65625 236.398438 20.5 236 20.5 C 235.601563 20.5 235.21875 20.65625 234.9375 20.9375 C 234.65625 21.21875 234.5 21.601563 234.5 22 C 234.5 22.398438 234.65625 22.78125 234.9375 23.0625 C 235.21875 23.34375 235.601563 23.5 236 23.5 C 236.398438 23.5 236.78125 23.34375 237.0625 23.0625 C 237.34375 22.78125 237.5 22.398438 237.5 22 Z M 237.5 22 "/>
<path style=" stroke:none;fill-rule:evenodd;fill:rgb(99.998474%,0%,0%);fill-opacity:1;" d="M 237.5 19 C 237.5 18.601563 237.34375 18.21875 237.0625 17.9375 C 236.78125 17.65625 236.398438 17.5 236 17.5 C 235.601563 17.5 235.21875 17.65625 234.9375 17.9375 C 234.65625 18.21875 234.5 18.601563 234.5 19 C 234.5 19.398438 234.65625 19.78125 234.9375 20.0625 C 235.21875 20.34375 235.601563 20.5 236 20.5 C 236.398438 20.5 236.78125 20.34375 237.0625 20.0625 C 237.34375 19.78125 237.5 19.398438 237.5 19 Z M 237.5 19 "/>
</g>
</svg>
